999
dxfrw 0.6.3
  0
SECTION
  2
HEADER
  9
$ACADVER
  1
AC1021
  9
$DWGCODEPAGE
  3
ANSI_1252
  9
$INSBASE
 10
0
 20
0
 30
0
  9
$EXTMIN
 10
1381.712627484812
 20
14453.61116556058
 30
0
  9
$EXTMAX
 10
7672.917617523016
 20
16935.67762448451
 30
0
  9
$LIMMIN
 10
0
 20
0
  9
$LIMMAX
 10
420
 20
297
  9
$ORTHOMODE
 70
    1
  9
$REGENMODE
 70
    1
  9
$FILLMODE
 70
    1
  9
$QTEXTMODE
 70
    0
  9
$MIRRTEXT
 70
    0
  9
$LTSCALE
 40
1
  9
$ATTMODE
 70
    1
  9
$TEXTSIZE
 40
2.5
  9
$TRACEWID
 40
1
  9
$TEXTSTYLE
  7
Standard
  9
$CLAYER
  8
Pannello leonardo
  9
$CELTYPE
  6
ByLayer
  9
$CECOLOR
 62
    1
  9
$CELTSCALE
 40
1
  9
$DISPSILH
 70
    0
  9
$DIMSCALE
 40
1
  9
$DIMASZ
 40
2.5
  9
$DIMEXO
 40
0.625
  9
$DIMDLI
 40
3.75
  9
$DIMRND
 40
0
  9
$DIMDLE
 40
0
  9
$DIMEXE
 40
1.25
  9
$DIMTP
 40
0
  9
$DIMTM
 40
0
  9
$DIMTXT
 40
2.5
  9
$DIMCEN
 40
2.5
  9
$DIMTSZ
 40
0
  9
$DIMTOL
 70
    0
  9
$DIMLIM
 70
    0
  9
$DIMTIH
 70
    0
  9
$DIMTOH
 70
    0
  9
$DIMSE1
 70
    0
  9
$DIMSE2
 70
    0
  9
$DIMTAD
 70
    1
  9
$DIMZIN
 70
    8
  9
$DIMBLK
  1

  9
$DIMASO
 70
    1
  9
$DIMSHO
 70
    1
  9
$DIMPOST
  1

  9
$DIMAPOST
  1

  9
$DIMALT
 70
    0
  9
$DIMALTD
 70
    3
  9
$DIMALTF
 40
0.03937007874016
  9
$DIMLFAC
 40
1
  9
$DIMTOFL
 70
    1
  9
$DIMTVP
 40
0
  9
$DIMTIX
 70
    0
  9
$DIMSOXD
 70
    0
  9
$DIMSAH
 70
    0
  9
$DIMBLK1
  1

  9
$DIMBLK2
  1

  9
$DIMSTYLE
  2
ISO-25
  9
$DIMCLRD
 70
    0
  9
$DIMCLRE
 70
    0
  9
$DIMCLRT
 70
    0
  9
$DIMTFAC
 40
1
  9
$DIMGAP
 40
0.625
  9
$DIMJUST
 70
    0
  9
$DIMSD1
 70
    0
  9
$DIMSD2
 70
    0
  9
$DIMTOLJ
 70
    0
  9
$DIMTZIN
 70
    8
  9
$DIMALTZ
 70
    0
  9
$DIMALTTZ
 70
    0
  9
$DIMUPT
 70
    0
  9
$DIMDEC
 70
    2
  9
$DIMTDEC
 70
    2
  9
$DIMALTU
 70
    2
  9
$DIMALTTD
 70
    3
  9
$DIMTXSTY
  7
Standard
  9
$DIMAUNIT
 70
    0
  9
$DIMADEC
 70
    0
  9
$DIMALTRND
 40
0
  9
$DIMAZIN
 70
    0
  9
$DIMDSEP
 70
   44
  9
$DIMATFIT
 70
    3
  9
$DIMFRAC
 70
    0
  9
$DIMLDRBLK
  1

  9
$DIMLUNIT
 70
    2
  9
$DIMLWD
 70
   -2
  9
$DIMLWE
 70
   -2
  9
$DIMTMOVE
 70
    0
  9
$DIMFXL
 40
1
  9
$DIMFXLON
 70
    0
  9
$DIMJOGANG
 40
0.7853981633974483
  9
$DIMTFILL
 70
    0
  9
$DIMTFILLCLR
 70
    0
  9
$DIMARCSYM
 70
    0
  9
$DIMLTYPE
  6

  9
$DIMLTEX1
  6

  9
$DIMLTEX2
  6

  9
$LUNITS
 70
    2
  9
$LUPREC
 70
    4
  9
$SKETCHINC
 40
1
  9
$FILLETRAD
 40
0
  9
$AUNITS
 70
    0
  9
$AUPREC
 70
    0
  9
$MENU
  1
.
  9
$ELEVATION
 40
0
  9
$PELEVATION
 40
0
  9
$THICKNESS
 40
0
  9
$LIMCHECK
 70
    0
  9
$CHAMFERA
 40
0
  9
$CHAMFERB
 40
0
  9
$CHAMFERC
 40
0
  9
$CHAMFERD
 40
0
  9
$SKPOLY
 70
    0
  9
$USRTIMER
 70
    1
  9
$ANGBASE
 50
0
  9
$ANGDIR
 70
    0
  9
$PDMODE
 70
    0
  9
$PDSIZE
 40
0
  9
$PLINEWID
 40
0
  9
$SPLFRAME
 70
    0
  9
$SPLINETYPE
 70
    6
  9
$SPLINESEGS
 70
    8
  9
$HANDSEED
  5
20000
  9
$SURFTAB1
 70
    6
  9
$SURFTAB2
 70
    6
  9
$SURFTYPE
 70
    6
  9
$SURFU
 70
    6
  9
$SURFV
 70
    6
  9
$UCSBASE
  2

  9
$UCSNAME
  2

  9
$UCSORG
 10
0
 20
0
 30
0
  9
$UCSXDIR
 10
1
 20
0
 30
0
  9
$UCSYDIR
 10
0
 20
1
 30
0
  9
$UCSORTHOREF
  2

  9
$UCSORTHOVIEW
 70
    0
  9
$UCSORGTOP
 10
0
 20
0
 30
0
  9
$UCSORGBOTTOM
 10
0
 20
0
 30
0
  9
$UCSORGLEFT
 10
0
 20
0
 30
0
  9
$UCSORGRIGHT
 10
0
 20
0
 30
0
  9
$UCSORGFRONT
 10
0
 20
0
 30
0
  9
$UCSORGBACK
 10
0
 20
0
 30
0
  9
$PUCSBASE
  2

  9
$PUCSNAME
  2

  9
$PUCSORG
 10
0
 20
0
 30
0
  9
$PUCSXDIR
 10
1
 20
0
 30
0
  9
$PUCSYDIR
 10
0
 20
1
 30
0
  9
$PUCSORTHOREF
  2

  9
$PUCSORTHOVIEW
 70
    0
  9
$PUCSORGTOP
 10
0
 20
0
 30
0
  9
$PUCSORGBOTTOM
 10
0
 20
0
 30
0
  9
$PUCSORGLEFT
 10
0
 20
0
 30
0
  9
$PUCSORGRIGHT
 10
0
 20
0
 30
0
  9
$PUCSORGFRONT
 10
0
 20
0
 30
0
  9
$PUCSORGBACK
 10
0
 20
0
 30
0
  9
$USERI1
 70
    0
  9
$USERI2
 70
    0
  9
$USERI3
 70
    0
  9
$USERI4
 70
    0
  9
$USERI5
 70
    0
  9
$USERR1
 40
0
  9
$USERR2
 40
0
  9
$USERR3
 40
0
  9
$USERR4
 40
0
  9
$USERR5
 40
0
  9
$WORLDVIEW
 70
    1
  9
$SHADEDGE
 70
    3
  9
$SHADEDIF
 70
   70
  9
$TILEMODE
 70
    1
  9
$MAXACTVP
 70
   64
  9
$PINSBASE
 10
0
 20
0
 30
0
  9
$PLIMCHECK
 70
    0
  9
$PEXTMIN
 10
0
 20
0
 30
0
  9
$PEXTMAX
 10
0
 20
0
 30
0
  9
$GRIDMODE
 70
    1
  9
$SNAPSTYLE
 70
    0
  9
$PLIMMIN
 10
0
 20
0
  9
$PLIMMAX
 10
12
 20
9
  9
$UNITMODE
 70
    0
  9
$VISRETAIN
 70
    1
  9
$PLINEGEN
 70
    0
  9
$PSLTSCALE
 70
    1
  9
$TREEDEPTH
 70
 3020
  9
$CMLSTYLE
  2
Standard
  9
$CMLJUST
 70
    0
  9
$CMLSCALE
 40
20
  9
$PROXYGRAPHICS
 70
    1
  9
$MEASUREMENT
 70
    1
  9
$CELWEIGHT
370
   -1
  9
$ENDCAPS
280
    0
  9
$JOINSTYLE
280
    0
  9
$LWDISPLAY
290
    0
  9
$INSUNITS
 70
    4
  9
$HYPERLINKBASE
  1

  9
$STYLESHEET
  1

  9
$XEDIT
290
    1
  9
$CEPSNTYPE
380
    0
  9
$PSTYLEMODE
290
    1
  9
$EXTNAMES
290
    1
  9
$PSVPSCALE
 40
0
  9
$OLESTARTUP
290
    0
  9
$SORTENTS
280
  127
  9
$INDEXCTL
280
    0
  9
$HIDETEXT
280
    1
  9
$XCLIPFRAME
290
    2
  9
$HALOGAP
280
    0
  9
$OBSCOLOR
 70
  257
  9
$OBSLTYPE
280
    0
  9
$INTERSECTIONDISPLAY
280
    0
  9
$INTERSECTIONCOLOR
 70
  257
  9
$DIMASSOC
280
    2
  9
$PROJECTNAME
  1

  9
$CAMERADISPLAY
290
    0
  9
$LENSLENGTH
 40
50
  9
$CAMERAHEIGHT
 40
0
  9
$STEPSPERSEC
 40
2
  9
$STEPSIZE
 40
6
  9
$3DDWFPREC
 40
2
  9
$PSOLWIDTH
 40
5
  9
$PSOLHEIGHT
 40
80
  9
$LOFTANG1
 40
1.570796326794896
  9
$LOFTANG2
 40
1.570796326794896
  9
$LOFTMAG1
 40
0
  9
$LOFTMAG2
 40
0
  9
$LOFTPARAM
 70
    7
  9
$LOFTNORMALS
280
    1
  9
$LATITUDE
 40
37.795
  9
$LONGITUDE
 40
-122.394
  9
$NORTHDIRECTION
 40
0
  9
$TIMEZONE
 70
-8000
  9
$LIGHTGLYPHDISPLAY
280
    1
  9
$TILEMODELIGHTSYNCH
280
    1
  9
$SOLIDHIST
280
    0
  9
$SHOWHIST
280
    1
  9
$DWFFRAME
280
    2
  9
$DGNFRAME
280
    0
  9
$REALWORLDSCALE
290
    1
  9
$INTERFERECOLOR
 62
    1
  9
$CSHADOW
280
    0
  9
$SHADOWPLANELOCATION
 40
0
  0
ENDSEC
  0
SECTION
  2
CLASSES
  0
ENDSEC
  0
SECTION
  2
TABLES
  0
TABLE
  2
VPORT
  5
8
330
0
100
AcDbSymbolTable
 70
    1
  0
VPORT
  5
31
330
2
100
AcDbSymbolTableRecord
100
AcDbViewportTableRecord
  2
*ACTIVE
 70
    0
 10
0
 20
0
 11
1
 21
1
 12
3243.902572988449
 22
8713.318911202914
 13
0
 23
0
 14
10
 24
10
 15
10
 25
10
 16
0
 26
0
 36
1
 17
0
 27
0
 37
0
 40
3468.02675075856
 41
1.496598639455782
 42
50
 43
0
 44
0
 50
0
 51
0
 71
    0
 72
  100
 73
    1
 74
    3
 75
    0
 76
    1
 77
    0
 78
    0
281
    0
 65
    1
110
0
120
0
130
0
111
1
121
0
131
0
112
0
122
1
132
0
 79
    0
146
0
348
10020
 60
    7
 61
    5
292
1
282
    1
141
0
142
0
 63
  250
421
3358443
  0
ENDTAB
  0
TABLE
  2
LTYPE
  5
5
330
0
100
AcDbSymbolTable
 70
    4
  0
LTYPE
  5
14
330
5
100
AcDbSymbolTableRecord
100
AcDbLinetypeTableRecord
  2
ByBlock
 70
    0
  3

 72
   65
 73
    0
 40
0
  0
LTYPE
  5
15
330
5
100
AcDbSymbolTableRecord
100
AcDbLinetypeTableRecord
  2
ByLayer
 70
    0
  3

 72
   65
 73
    0
 40
0
  0
LTYPE
  5
16
330
5
100
AcDbSymbolTableRecord
100
AcDbLinetypeTableRecord
  2
Continuous
 70
    0
  3
Solid line
 72
   65
 73
    0
 40
0
  0
LTYPE
  5
32
330
5
100
AcDbSymbolTableRecord
100
AcDbLinetypeTableRecord
  2
DOT
 70
    0
  3
Dot . . . . . . . . . . . . . . . . . . . . . .
 72
   65
 73
    2
 40
6.35
 49
0
 74
    0
 49
-6.35
 74
    0
  0
LTYPE
  5
33
330
5
100
AcDbSymbolTableRecord
100
AcDbLinetypeTableRecord
  2
DOTTINY
 70
    0
  3
Dot (.15x) .....................................
 72
   65
 73
    2
 40
0.9525
 49
0
 74
    0
 49
-0.9525
 74
    0
  0
LTYPE
  5
34
330
5
100
AcDbSymbolTableRecord
100
AcDbLinetypeTableRecord
  2
DOT2
 70
    0
  3
Dot (.5x) .....................................
 72
   65
 73
    2
 40
3.175
 49
0
 74
    0
 49
-3.175
 74
    0
  0
LTYPE
  5
35
330
5
100
AcDbSymbolTableRecord
100
AcDbLinetypeTableRecord
  2
DOTX2
 70
    0
  3
Dot (2x) .  .  .  .  .  .  .  .  .  .  .  .  .
 72
   65
 73
    2
 40
12.7
 49
0
 74
    0
 49
-12.7
 74
    0
  0
LTYPE
  5
36
330
5
100
AcDbSymbolTableRecord
100
AcDbLinetypeTableRecord
  2
DASHED
 70
    0
  3
Dashed _ _ _ _ _ _ _ _ _ _ _ _ _ _ _ _ _
 72
   65
 73
    2
 40
19.05
 49
12.7
 74
    0
 49
-6.35
 74
    0
  0
LTYPE
  5
37
330
5
100
AcDbSymbolTableRecord
100
AcDbLinetypeTableRecord
  2
DASHEDTINY
 70
    0
  3
Dashed (.15x) _ _ _ _ _ _ _ _ _ _ _ _ _ _ _ _ _
 72
   65
 73
    2
 40
2.8575
 49
1.905
 74
    0
 49
-0.9525
 74
    0
  0
LTYPE
  5
38
330
5
100
AcDbSymbolTableRecord
100
AcDbLinetypeTableRecord
  2
DASHED2
 70
    0
  3
Dashed (.5x) _ _ _ _ _ _ _ _ _ _ _ _ _ _ _ _ _
 72
   65
 73
    2
 40
9.524999999999999
 49
6.35
 74
    0
 49
-3.175
 74
    0
  0
LTYPE
  5
39
330
5
100
AcDbSymbolTableRecord
100
AcDbLinetypeTableRecord
  2
DASHEDX2
 70
    0
  3
Dashed (2x) ____  ____  ____  ____  ____  ___
 72
   65
 73
    2
 40
38.09999999999999
 49
25.4
 74
    0
 49
-12.7
 74
    0
  0
LTYPE
  5
3A
330
5
100
AcDbSymbolTableRecord
100
AcDbLinetypeTableRecord
  2
DASHDOT
 70
    0
  3
Dash dot __ . __ . __ . __ . __ . __ . __ . __
 72
   65
 73
    4
 40
25.4
 49
12.7
 74
    0
 49
-6.35
 74
    0
 49
0
 74
    0
 49
-6.35
 74
    0
  0
LTYPE
  5
3B
330
5
100
AcDbSymbolTableRecord
100
AcDbLinetypeTableRecord
  2
DASHDOTTINY
 70
    0
  3
Dash dot (.15x) _._._._._._._._._._._._._._._.
 72
   65
 73
    4
 40
3.81
 49
1.905
 74
    0
 49
-0.9525
 74
    0
 49
0
 74
    0
 49
-0.9525
 74
    0
  0
LTYPE
  5
3C
330
5
100
AcDbSymbolTableRecord
100
AcDbLinetypeTableRecord
  2
DASHDOT2
 70
    0
  3
Dash dot (.5x) _._._._._._._._._._._._._._._.
 72
   65
 73
    4
 40
12.7
 49
6.35
 74
    0
 49
-3.175
 74
    0
 49
0
 74
    0
 49
-3.175
 74
    0
  0
LTYPE
  5
3D
330
5
100
AcDbSymbolTableRecord
100
AcDbLinetypeTableRecord
  2
DASHDOTX2
 70
    0
  3
Dash dot (2x) ____  .  ____  .  ____  .  ___
 72
   65
 73
    4
 40
50.8
 49
25.4
 74
    0
 49
-12.7
 74
    0
 49
0
 74
    0
 49
-12.7
 74
    0
  0
LTYPE
  5
3E
330
5
100
AcDbSymbolTableRecord
100
AcDbLinetypeTableRecord
  2
DIVIDE
 70
    0
  3
Divide ____ . . ____ . . ____ . . ____ . . ____
 72
   65
 73
    6
 40
31.75
 49
12.7
 74
    0
 49
-6.35
 74
    0
 49
0
 74
    0
 49
-6.35
 74
    0
 49
0
 74
    0
 49
-6.35
 74
    0
  0
LTYPE
  5
3F
330
5
100
AcDbSymbolTableRecord
100
AcDbLinetypeTableRecord
  2
DIVIDETINY
 70
    0
  3
Divide (.15x) __..__..__..__..__..__..__..__.._
 72
   65
 73
    6
 40
4.7625
 49
1.905
 74
    0
 49
-0.9525
 74
    0
 49
0
 74
    0
 49
-0.9525
 74
    0
 49
0
 74
    0
 49
-0.9525
 74
    0
  0
LTYPE
  5
40
330
5
100
AcDbSymbolTableRecord
100
AcDbLinetypeTableRecord
  2
DIVIDE2
 70
    0
  3
Divide (.5x) __..__..__..__..__..__..__..__.._
 72
   65
 73
    6
 40
15.875
 49
6.35
 74
    0
 49
-3.175
 74
    0
 49
0
 74
    0
 49
-3.175
 74
    0
 49
0
 74
    0
 49
-3.175
 74
    0
  0
LTYPE
  5
41
330
5
100
AcDbSymbolTableRecord
100
AcDbLinetypeTableRecord
  2
DIVIDEX2
 70
    0
  3
Divide (2x) ________  .  .  ________  .  .  _
 72
   65
 73
    6
 40
63.5
 49
25.4
 74
    0
 49
-12.7
 74
    0
 49
0
 74
    0
 49
-12.7
 74
    0
 49
0
 74
    0
 49
-12.7
 74
    0
  0
LTYPE
  5
42
330
5
100
AcDbSymbolTableRecord
100
AcDbLinetypeTableRecord
  2
BORDER
 70
    0
  3
Border __ __ . __ __ . __ __ . __ __ . __ __ .
 72
   65
 73
    6
 40
44.45
 49
12.7
 74
    0
 49
-6.35
 74
    0
 49
12.7
 74
    0
 49
-6.35
 74
    0
 49
0
 74
    0
 49
-6.35
 74
    0
  0
LTYPE
  5
43
330
5
100
AcDbSymbolTableRecord
100
AcDbLinetypeTableRecord
  2
BORDERTINY
 70
    0
  3
Border (.15x) __.__.__.__.__.__.__.__.__.__.__.
 72
   65
 73
    6
 40
6.6675
 49
1.905
 74
    0
 49
-0.9525
 74
    0
 49
1.905
 74
    0
 49
-0.9525
 74
    0
 49
0
 74
    0
 49
-0.9525
 74
    0
  0
LTYPE
  5
44
330
5
100
AcDbSymbolTableRecord
100
AcDbLinetypeTableRecord
  2
BORDER2
 70
    0
  3
Border (.5x) __.__.__.__.__.__.__.__.__.__.__.
 72
   65
 73
    6
 40
22.225
 49
6.35
 74
    0
 49
-3.175
 74
    0
 49
6.35
 74
    0
 49
-3.175
 74
    0
 49
0
 74
    0
 49
-3.175
 74
    0
  0
LTYPE
  5
45
330
5
100
AcDbSymbolTableRecord
100
AcDbLinetypeTableRecord
  2
BORDERX2
 70
    0
  3
Border (2x) ____  ____  .  ____  ____  .  ___
 72
   65
 73
    6
 40
88.89999999999999
 49
25.4
 74
    0
 49
-12.7
 74
    0
 49
25.4
 74
    0
 49
-12.7
 74
    0
 49
0
 74
    0
 49
-12.7
 74
    0
  0
LTYPE
  5
46
330
5
100
AcDbSymbolTableRecord
100
AcDbLinetypeTableRecord
  2
CENTER
 70
    0
  3
Center ____ _ ____ _ ____ _ ____ _ ____ _ ____
 72
   65
 73
    4
 40
50.8
 49
31.75
 74
    0
 49
-6.35
 74
    0
 49
6.35
 74
    0
 49
-6.35
 74
    0
  0
LTYPE
  5
47
330
5
100
AcDbSymbolTableRecord
100
AcDbLinetypeTableRecord
  2
CENTERTINY
 70
    0
  3
Center (.15x) ___ _ ___ _ ___ _ ___ _ ___ _ ___
 72
   65
 73
    4
 40
7.619999999999999
 49
4.7625
 74
    0
 49
-0.9525
 74
    0
 49
0.9525
 74
    0
 49
-0.9525
 74
    0
  0
LTYPE
  5
48
330
5
100
AcDbSymbolTableRecord
100
AcDbLinetypeTableRecord
  2
CENTER2
 70
    0
  3
Center (.5x) ___ _ ___ _ ___ _ ___ _ ___ _ ___
 72
   65
 73
    4
 40
28.575
 49
19.05
 74
    0
 49
-3.175
 74
    0
 49
3.175
 74
    0
 49
-3.175
 74
    0
  0
LTYPE
  5
49
330
5
100
AcDbSymbolTableRecord
100
AcDbLinetypeTableRecord
  2
CENTERX2
 70
    0
  3
Center (2x) ________  __  ________  __  _____
 72
   65
 73
    4
 40
101.6
 49
63.5
 74
    0
 49
-12.7
 74
    0
 49
12.7
 74
    0
 49
-12.7
 74
    0
  0
ENDTAB
  0
TABLE
  2
LAYER
  5
2
330
0
100
AcDbSymbolTable
 70
    1
  0
LAYER
  5
10
330
2
100
AcDbSymbolTableRecord
100
AcDbLayerTableRecord
  2
0
 70
    0
 62
    7
  6
CONTINUOUS
370
   -3
390
F
  0
LAYER
  5
4A
330
2
100
AcDbSymbolTableRecord
100
AcDbLayerTableRecord
  2
Collettore
 70
    0
 62
    7
  6
CONTINUOUS
370
   -3
390
F
  0
LAYER
  5
4B
330
2
100
AcDbSymbolTableRecord
100
AcDbLayerTableRecord
  2
Pannello leonardo
 70
    0
 62
    7
  6
CONTINUOUS
370
   -3
390
F
  0
ENDTAB
  0
TABLE
  2
STYLE
  5
3
330
0
100
AcDbSymbolTable
 70
    3
  0
STYLE
  5
4C
330
2
100
AcDbSymbolTableRecord
100
AcDbTextStyleTableRecord
  2
Standard
 70
    0
 40
0
 41
1
 50
0
 71
    0
 42
1
  3
txt
  4

  0
ENDTAB
  0
TABLE
  2
VIEW
  5
6
330
0
100
AcDbSymbolTable
 70
    0
  0
ENDTAB
  0
TABLE
  2
UCS
  5
7
330
0
100
AcDbSymbolTable
 70
    0
  0
ENDTAB
  0
TABLE
  2
APPID
  5
9
330
0
100
AcDbSymbolTable
 70
    1
  0
APPID
  5
12
330
9
100
AcDbSymbolTableRecord
100
AcDbRegAppTableRecord
  2
ACAD
 70
    0
  0
APPID
  5
4D
330
9
100
AcDbSymbolTableRecord
100
AcDbRegAppTableRecord
  2
LibreCad
 70
    0
  0
ENDTAB
  0
TABLE
  2
DIMSTYLE
  5
A
330
0
100
AcDbSymbolTable
 70
    1
100
AcDbDimStyleTable
 71
    1
  0
DIMSTYLE
105
4E
330
A
100
AcDbSymbolTableRecord
100
AcDbDimStyleTableRecord
  2
Standard
 70
    0
 40
1
 41
2.5
 42
0.625
 43
0.38
 44
1.25
 45
0
 46
0
 47
0
 48
0
 49
1
140
2.5
141
0.09
142
0
143
25.4
144
1
145
0
146
1
147
0.625
148
0
 71
    0
 72
    0
 73
    0
 74
    1
 75
    0
 76
    0
 77
    0
 78
    8
 79
    0
170
    0
171
    2
172
    0
173
    0
174
    0
175
    0
176
    0
177
    0
178
    0
179
    0
271
    2
272
    4
273
    2
274
    2
275
    0
276
    0
277
    2
278
   44
279
    0
280
    0
281
    0
282
    0
283
    1
284
    0
285
    0
286
    0
288
    0
289
    3
340
Standard
341

371
   -2
372
   -2
  0
ENDTAB
  0
TABLE
  2
BLOCK_RECORD
  5
1
330
0
100
AcDbSymbolTable
 70
    2
  0
BLOCK_RECORD
  5
1F
330
1
100
AcDbSymbolTableRecord
100
AcDbBlockTableRecord
  2
*Model_Space
 70
    0
280
    1
281
    0
  0
BLOCK_RECORD
  5
1E
330
1
100
AcDbSymbolTableRecord
100
AcDbBlockTableRecord
  2
*Paper_Space
 70
    0
280
    1
281
    0
  0
BLOCK_RECORD
  5
4F
330
1
100
AcDbSymbolTableRecord
100
AcDbBlockTableRecord
  2
Leo 55_120
 70
    0
280
    1
281
    0
  0
BLOCK_RECORD
  5
52
330
1
100
AcDbSymbolTableRecord
100
AcDbBlockTableRecord
  2
Leo 55_60
 70
    0
280
    1
281
    0
  0
BLOCK_RECORD
  5
55
330
1
100
AcDbSymbolTableRecord
100
AcDbBlockTableRecord
  2
leo 55_120 idro
 70
    0
280
    1
281
    0
  0
BLOCK_RECORD
  5
58
330
1
100
AcDbSymbolTableRecord
100
AcDbBlockTableRecord
  2
Leo 55_60 idro
 70
    0
280
    1
281
    0
  0
BLOCK_RECORD
  5
5B
330
1
100
AcDbSymbolTableRecord
100
AcDbBlockTableRecord
  2
collettore
 70
    0
280
    1
281
    0
  0
ENDTAB
  0
ENDSEC
  0
SECTION
  2
BLOCKS
  0
BLOCK
  5
20
330
1F
100
AcDbEntity
  8
0
100
AcDbBlockBegin
  2
*Model_Space
 70
    0
 10
0
 20
0
 30
0
  3
*Model_Space
  1

  0
ENDBLK
  5
21
330
1F
100
AcDbEntity
  8
0
100
AcDbBlockEnd
  0
BLOCK
  5
1C
330
1B
100
AcDbEntity
  8
0
100
AcDbBlockBegin
  2
*Paper_Space
 70
    0
 10
0
 20
0
 30
0
  3
*Paper_Space
  1

  0
ENDBLK
  5
1D
330
1F
100
AcDbEntity
  8
0
100
AcDbBlockEnd
  0
BLOCK
  5
50
330
4F
100
AcDbEntity
  8
0
100
AcDbBlockBegin
  2
Leo 55_120
 70
    0
 10
0
 20
0
  3
Leo 55_120
  1

  0
LINE
  5
5E
100
AcDbEntity
  8
Pannello leonardo
  6
ByLayer
 62
    8
370
   -1
100
AcDbLine
 10
-1199.999999999999
 20
-1000
 11
0
 21
-1000
  0
LWPOLYLINE
  5
5F
100
AcDbEntity
  8
Pannello leonardo
  6
ByLayer
 62
  256
370
   -1
100
AcDbPolyline
 90
    7
 70
    0
 43
0
 10
0
 20
-1000
 10
0
 20
-120.240480961922
 10
-194.1883726419173
 20
-120.2404809619256
 42
-0.4142135623732014
 10
-199.198392681993
 20
-115.2304609218445
 10
-199.1983926819948
 20
0
 10
-1199.999999999999
 20
0
 10
-1199.999999999999
 20
-1000
  0
LWPOLYLINE
  5
60
100
AcDbEntity
  8
Pannello leonardo
  6
ByLayer
 62
  152
370
   -1
100
AcDbPolyline
 90
  231
 70
    0
 43
0
 10
-149.0981922811916
 20
-87.8842624621611
 10
-451.5019745909947
 20
-87.8842624621611
 42
0.1231056256202469
 10
-501.6021749927513
 20
-100.4093125628715
 42
-0.2500000000054178
 10
-601.8025757924406
 20
-100.4093125628715
 42
0.2500000000000197
 10
-702.0029765940481
 20
-100.4093125618529
 42
-0.2499999999892203
 10
-802.2033773956427
 20
-100.4093125628715
 42
0.2499999999784219
 10
-902.4037781972513
 20
-100.4093125618528
 42
-0.2061578592960027
 10
-986.3250162323004
 20
-107.4194035774635
 42
0.05494283062939721
 10
-1014.82694137798
 20
-101.2399052555229
 42
-0.09557275275589606
 10
-1054.254549075186
 20
-89.28946583165089
 42
1.665894214900658
 10
-1056.075118792618
 20
-168.8569009868042
 42
-0.1813310213455527
 10
-984.5735045832442
 20
-163.0996363689992
 42
0.1873503423332885
 10
-902.4037781991555
 20
-155.5195330037531
 42
-0.2354072560762692
 10
-802.2033773956427
 20
-155.5195330037531
 42
0.2354072560762666
 10
-702.0029765959532
 20
-155.5195330037531
 42
-0.2354072560762646
 10
-601.8025757924407
 20
-155.5195330037531
 42
0.2354072560816316
 10
-501.6021749908323
 20
-155.5195330027345
 42
-0.2047070493655848
 10
-412.7124543917471
 20
-150.3081171034536
 42
0.1476648713695599
 10
-318.9871886941519
 20
-155.1921674865044
 10
-263.368469447144
 20
-154.9976210718196
 42
-0.4162640046467569
 10
-218.2782837056429
 20
-200.087801432539
 10
-218.2782880936184
 20
-337.2878468642193
 42
-0.08794308270741646
 10
-224.7664671772536
 20
-373.8910577277712
 42
0.09489800847860679
 10
-230.2814262624006
 20
-407.7120953612138
 10
-230.2814262623952
 20
-642.9932485638928
 42
0.1231056256176619
 10
-217.7563761621832
 20
-693.0934489647352
 42
-0.2119070839891963
 10
-211.5159458689321
 20
-779.2305724718096
 42
0.03338243030829661
 10
-215.7423298717613
 20
-794.0075291126849
 10
-233.7724033138984
 20
-877.8444670037663
 42
1.237925486470878
 10
-145.5863110808659
 20
-877.8444670037663
 42
0.0794813658856629
 10
-150.7805372343391
 20
-864.4709689701683
 42
-0.2286384076690826
 10
-157.3699063298844
 20
-781.8059783942699
 42
0.2180671764687131
 10
-162.6461557213332
 20
-693.0934489646553
 42
-0.2493946906446415
 10
-162.6461557213006
 20
-592.8930481630522
 42
0.1225272470380622
 10
-150.1211056211214
 20
-542.7928477622883
 10
-150.1211056211068
 20
-477.8523759223353
 42
0.1231056256176701
 10
-162.646155721286
 20
-427.7521755215745
 42
-0.2061578593240698
 10
-169.6562467365238
 20
-343.8309374877172
 42
0.0581494799174305
 10
-163.3818093705922
 20
-313.9705340357874
 42
-0.004694425297653779
 10
-163.1680676527317
 20
-272.7360675441776
 42
0.1229422267453803
 10
-175.513905902957
 20
-223.2850619548262
 42
-1.662726901862194
 10
-95.85458726562862
 20
-223.1699113163013
 42
0.122731994494415
 10
-108.159688857453
 20
-272.5444848194603
 42
-0.01528927133639268
 10
-108.1596888574568
 20
-311.7723817302506
 42
-0.05217823451592716
 10
-111.3801993174311
 20
-333.6186604417489
 42
0.1080766525965493
 10
-119.6914921805037
 20
-386.5141491830582
 42
0.03953082103471364
 10
-105.7057651366267
 20
-431.3944867085154
 42
-0.1128562996116609
 10
-95.01088518023609
 20
-477.8523759780402
 10
-95.01088518023609
 20
-540.3183912452512
 42
-0.1202243155623571
 10
-108.098858880363
 20
-593.9631200979928
 42
0.2469853965716313
 10
-107.5359352804207
 20
-693.0934490204399
 42
-0.2098332621960674
 10
-101.0124559799478
 20
-778.4338356015049
 42
0.0845437320580557
 10
-107.0140267792449
 20
-813.6740217806635
 10
-107.0140219434233
 20
-887.2746074330423
 42
-1.000000064232898
 10
-272.3446924513428
 20
-887.2746074330423
 10
-272.3446873816119
 20
-850.4743531888689
 10
-272.3446834742608
 20
-813.6740413113146
 42
-0.08454373275506617
 10
-266.3431126745654
 20
-778.433854834946
 42
0.2098332621956964
 10
-272.8665919754694
 20
-693.093468254945
 42
-0.2499999999997353
 10
-272.8665919754367
 20
-592.8930674533422
 42
0.1231056256176175
 10
-260.341541875252
 20
-542.792867052587
 10
-260.341541875252
 20
-477.8523952126271
 42
0.1298862254940321
 10
-272.8665919754703
 20
-427.7521948117863
 42
-0.2138411747854952
 10
-278.9034629920152
 20
-341.0487835474706
 42
0.09507227104553019
 10
-273.3885073721167
 20
-307.2277266237361
 10
-273.3885096749764
 20
-280.661327298345
 42
0.4142135593554502
 10
-356.0538422337504
 20
-197.9959866540157
 42
0.4142136007617674
 10
-438.7191755902493
 20
-280.6613219079773
 10
-438.7191755902493
 20
-307.2277274964398
 42
-0.08768941432544784
 10
-445.1636110190411
 20
-343.7058968666678
 42
0.2065019097551506
 10
-438.1972602285696
 20
-427.7521763942786
 42
-0.1231056256175519
 10
-425.6722101283267
 20
-477.8523767950392
 10
-425.6722101283266
 20
-542.7928486349991
 42
-0.1231056256163386
 10
-438.1972602286023
 20
-592.8930490358379
 42
0.2499999999999026
 10
-438.1972602285695
 20
-693.0934498374388
 42
-0.2180131617601894
 10
-431.9568137333081
 20
-779.2305526123527
 42
0.04795469014465781
 10
-436.1832122231461
 20
-794.0075467731441
 10
-454.2025086456123
 20
-877.7942092482971
 42
1.462068606171714
 10
-371.2214213007265
 20
-864.4709698428723
 42
-0.2292380556242236
 10
-377.8107903962717
 20
-781.8059792669737
 42
0.2186641298249094
 10
-383.0870397877206
 20
-693.0934498373571
 42
-0.1231056256175517
 10
-395.6120898879054
 20
-642.9932494366003
 10
-395.6120898878999
 20
-407.7120962339177
 42
-0.08791841873455676
 10
-389.1239108042664
 20
-371.1088853703659
 42
0.246357006357062
 10
-393.2532437266893
 20
-306.1432585307593
 42
-0.5051678661457287
 10
-369.3916997389679
 20
-237.5889874689311
 42
-0.5041496919843328
 10
-310.9616535529239
 20
-280.5193848188865
 42
-0.05504116642343372
 10
-313.4112488838181
 20
-295.6206431434767
 10
-318.5903907840148
 20
-314.2774780343752
 10
-330.3244699649166
 20
-356.5594193907782
 42
0.2002488207954623
 10
-326.1450286567124
 20
-431.3952882696757
 42
-0.1131477040379282
 10
-315.4768132177433
 20
-477.8523470533762
 10
-315.451769246627
 20
-542.7928486349991
 42
-0.1231056568623254
 10
-327.9768193468409
 20
-592.8930490358343
 42
0.2500000327020716
 10
-327.9768193468062
 20
-693.0934498374388
 42
-0.2098332943330045
 10
-321.4533400463333
 20
-778.4338364185041
 42
0.08454376382821413
 10
-327.4549108456304
 20
-813.6740229213591
 10
-327.45490576661
 20
-892.2846356112733
 42
-0.9725073201104225
 10
-492.7855742148822
 20
-887.2746841749249
 10
-492.7855664001799
 20
-813.6740604198163
 42
-0.08454373275506606
 10
-486.7839956004845
 20
-778.4338739434477
 42
0.2098332621956964
 10
-493.3074749013884
 20
-693.0934873634468
 42
-0.2499999999997353
 10
-493.3074749013557
 20
-592.893086561844
 42
0.1231056256176173
 10
-480.782424801171
 20
-542.7928861610853
 10
-480.782424801171
 20
-477.8524143211288
 42
0.1231058561003683
 10
-493.3074749013892
 20
-427.7522139202846
 42
-0.2138411747854954
 10
-499.3443459179343
 20
-341.0488026559723
 42
0.1056902586762925
 10
-493.8293972285172
 20
-307.2277658952335
 10
-493.8293960661338
 20
-280.6613656971385
 42
0.4142135593554502
 10
-576.494728624908
 20
-197.9960250528093
 42
0.4142136007617678
 10
-659.1600619814087
 20
-280.6613603067709
 10
-659.1600619814087
 20
-307.2277658952335
 42
-0.08768941432544784
 10
-665.6044974101987
 20
-343.7059352654613
 42
0.2065019097551506
 10
-658.638146619729
 20
-427.7522147930722
 42
-0.1231056256175518
 10
-646.1130965194861
 20
-477.8524151938325
 10
-646.1130965194861
 20
-542.7928870337892
 42
-0.1231056256163383
 10
-658.6381466197619
 20
-592.8930874346314
 42
0.2499999999999031
 10
-658.638146619729
 20
-693.0934882362327
 42
-0.2180131617601894
 10
-652.3977001244657
 20
-779.2305910111462
 42
0.0479546901446577
 10
-656.6240986143036
 20
-794.0075851719375
 10
-674.6433950367718
 20
-877.7942476470909
 42
1.462068606171713
 10
-591.6623076918841
 20
-864.471008241666
 42
-0.229238055624224
 10
-598.2516767874313
 20
-781.8060176657669
 42
0.2186641298249089
 10
-603.5279261788803
 20
-693.0934882361508
 42
-0.1231056256175519
 10
-616.0529762790629
 20
-642.9932878353937
 10
-616.0529762790575
 20
-407.712134632711
 42
-0.08791841873455687
 10
-609.5647971954239
 20
-371.1089237691594
 42
0.246357006357062
 10
-613.6941301178485
 20
-306.1432969295529
 42
-0.5051678661457284
 10
-589.8325861301255
 20
-237.5890258677246
 42
-0.5041496919843323
 10
-531.4025399440834
 20
-280.51942321768
 42
-0.05504116642343372
 10
-533.8521352749776
 20
-295.6206815422702
 10
-539.0312771751742
 20
-314.2775164331689
 10
-550.7653563560762
 20
-356.5594577895717
 42
0.2002488207954621
 10
-546.5859150478718
 20
-431.3953266684691
 42
-0.1131477040379282
 10
-535.9176996089009
 20
-477.8523854521663
 10
-535.8926556377846
 20
-542.7928870337892
 42
-0.1231056568623249
 10
-548.4177057379984
 20
-592.8930874346278
 42
0.2500000327020719
 10
-548.4177057379657
 20
-693.0934882362326
 42
-0.2098332943330045
 10
-541.8942264374908
 20
-778.4338748172976
 42
0.08454376382821413
 10
-547.8957972367898
 20
-813.6740613201528
 10
-547.8957921577694
 20
-892.2846740100666
 42
-0.9778685405146471
 10
-713.2264559783952
 20
-887.2746073773377
 10
-713.2264516289424
 20
-813.6740220210231
 42
-0.08454373275506606
 10
-707.224880829247
 20
-778.4338355446544
 42
0.2098332621956964
 10
-713.748360130151
 20
-693.0934489646532
 42
-0.2499999999997353
 10
-713.7483601301182
 20
-592.8930481630503
 42
0.1231056256176173
 10
-701.2233100299336
 20
-542.7928477622916
 10
-701.2233100299337
 20
-477.8523759223353
 42
0.1231056256174574
 10
-713.7483601301519
 20
-427.7521755214912
 42
-0.2138411747854952
 10
-719.7852311466959
 20
-341.0487642571788
 42
0.1194492930107414
 10
-714.270278992044
 20
-307.2277658952335
 10
-714.2702778296608
 20
-280.6613656971385
 42
0.4142135593554502
 10
-796.9356103884347
 20
-197.9960250528093
 42
0.4142136007617677
 10
-879.6009437449356
 20
-280.6613603067708
 10
-879.6009437449356
 20
-307.2277658952335
 42
-0.08768941432544784
 10
-886.0453791737255
 20
-343.7059352654614
 42
0.2065019097551507
 10
-879.0790283832557
 20
-427.7522147930723
 42
-0.1231056256175518
 10
-866.5539782830126
 20
-477.8524151938325
 10
-866.5539782830126
 20
-542.7928870337892
 42
-0.1231056256163388
 10
-879.0790283832885
 20
-592.8930874346316
 42
0.2499999999999027
 10
-879.0790283832556
 20
-693.0934882362326
 42
-0.2180131617601899
 10
-872.8385818879924
 20
-779.2305910111463
 42
0.0479546901446577
 10
-877.0649803778305
 20
-794.0075851719375
 10
-895.0842768002983
 20
-877.7942476470909
 42
1.462068606171714
 10
-812.1031894554108
 20
-864.4710082416659
 42
-0.2292380556242235
 10
-818.6925585509581
 20
-781.8060176657669
 42
0.2186641298249089
 10
-823.9688079424068
 20
-693.0934882361508
 42
-0.1231056256175519
 10
-836.4938580425896
 20
-642.9932878353937
 10
-836.4938580425841
 20
-407.712134632711
 42
-0.08791841873455676
 10
-830.0056789589509
 20
-371.1089237691595
 42
0.246357006357062
 10
-834.1350118813752
 20
-306.1432969295529
 42
-0.5051678661457294
 10
-810.2734678936522
 20
-237.5890258677245
 42
-0.5041496919843325
 10
-751.8434217076103
 20
-280.5194232176801
 42
-0.05504116642343349
 10
-754.2930170385041
 20
-295.6206815422702
 10
-759.4721589387009
 20
-314.2775164331689
 10
-771.2062381196026
 20
-356.5594577895718
 42
0.2002488207954621
 10
-767.0267968113982
 20
-431.3953266684691
 42
-0.1131477040379281
 10
-756.3585813724277
 20
-477.8523854521663
 10
-756.3335374013113
 20
-542.7928870337892
 42
-0.1231056568623249
 10
-768.8585875015251
 20
-592.8930874346279
 42
0.2500000327020716
 10
-768.8585875014923
 20
-693.0934882362326
 42
-0.2098332943330045
 10
-762.3351082010176
 20
-778.4338748172976
 42
0.08454376382821424
 10
-768.3366790003166
 20
-813.6740613201528
 10
-768.3366739212961
 20
-892.2846740100666
 42
-0.9710207038588435
 10
-933.6673412071704
 20
-887.2746457761314
 10
-933.6673264619792
 20
-813.6740123758716
 42
-0.08454373275506606
 10
-927.6657556622839
 20
-778.4338258995029
 42
0.2098332621956964
 10
-934.1892349631881
 20
-693.0934393195021
 42
-0.2499999999997353
 10
-934.1892349631551
 20
-592.8930385178992
 42
0.1231056256176173
 10
-921.6641848629706
 20
-542.7928381171405
 10
-921.6641848629706
 20
-477.8523662771838
 42
0.1231052746303909
 10
-934.1892349631889
 20
-427.7521658763435
 42
-0.2138411747854954
 10
-940.2261059797327
 20
-341.0487546120275
 42
0.08099824828228891
 10
-934.7111538250795
 20
-307.2277266237361
 10
-934.7111526626959
 20
-280.6613264256413
 42
0.4142135593554502
 10
-1017.37648522147
 20
-197.9959857813119
 42
0.4142136007617672
 10
-1100.04181857797
 20
-280.6613210352733
 10
-1100.04181857797
 20
-307.2277266237361
 42
-0.08768941432544784
 10
-1106.486254006759
 20
-343.7058959939642
 42
0.2065019097551504
 10
-1099.51990321629
 20
-427.7521755215745
 42
-0.123105625617552
 10
-1086.994853116047
 20
-477.8523759223353
 10
-1086.994853116047
 20
-542.7928477622916
 42
-0.1231056256163386
 10
-1099.519903216322
 20
-592.8930481631342
 42
0.2499999999999025
 10
-1099.51990321629
 20
-693.0934489647351
 42
-0.2180131617601899
 10
-1093.279456721027
 20
-779.2305517396491
 42
0.0479546901446577
 10
-1097.505855210866
 20
-794.00754590044
 10
-1115.525151633333
 20
-877.7942083755933
 42
1.462068606171712
 10
-1032.544064288446
 20
-864.4709689701682
 42
-0.2292380556242236
 10
-1039.133433383992
 20
-781.8059783942699
 42
0.2186641298249089
 10
-1044.409682775441
 20
-693.0934489646531
 42
-0.1231056256175517
 10
-1056.934732875625
 20
-642.9932485638961
 10
-1056.934732875619
 20
-407.7120953612138
 42
-0.08791841873455687
 10
-1050.446553791986
 20
-371.1088844976621
 42
0.246357006357062
 10
-1054.575886714409
 20
-306.1432576580555
 42
-0.5051678661457281
 10
-1030.714342726687
 20
-237.5889865962272
 42
-0.504149691984332
 10
-972.2842965406443
 20
-280.5193839461826
 42
-0.05504116642343394
 10
-974.7338918715382
 20
-295.6206422707729
 10
-979.9130337717352
 20
-314.2774771616714
 10
-991.6471129526371
 20
-356.5594185180743
 42
0.2002488207954622
 10
-987.4676716444326
 20
-431.3952873969756
 42
-0.1131477040379282
 10
-976.7994562054628
 20
-477.8523461806687
 10
-976.7744122343463
 20
-542.7928477622916
 42
-0.1231056568623254
 10
-989.2994623345602
 20
-592.8930481631304
 42
0.2500000327020717
 10
-989.2994623345267
 20
-693.0934489647352
 42
-0.2098332943330045
 10
-982.7759830340528
 20
-778.4338355458003
 42
0.08454376382821413
 10
-988.7775538333507
 20
-813.6740220486553
 10
-988.7775487543304
 20
-892.2846347385691
 42
-0.9999999999999992
 10
-1144.08817507584
 20
-892.284634104797
 10
-1144.088175075836
 20
-88.07458184011554
 42
-0.414213562373089
 10
-1098.997994715114
 20
-42.98440147939619
 10
-149.0981922811916
 20
-42.98440147941071
  0
LWPOLYLINE
  5
61
100
AcDbEntity
  8
Pannello leonardo
  6
ByLayer
 62
   30
370
   -1
100
AcDbPolyline
 90
    2
 70
    0
 43
0
 10
-39.87975540745539
 20
-1000
 10
-39.87975540745539
 20
-33.06613226452828
  0
LINE
  5
62
100
AcDbEntity
  8
Pannello leonardo
  6
ByLayer
 62
    8
370
   -1
100
AcDbLine
 10
-103.0060079124669
 20
-120.240480961922
 11
-103.0060079124669
 21
-150.240480961922
  0
LINE
  5
63
100
AcDbEntity
  8
Pannello leonardo
  6
ByLayer
 62
    8
370
   -1
100
AcDbLine
 10
-103.0060079124669
 20
-180.240480961922
 11
-103.0060079124669
 21
-210.240480961922
  0
LINE
  5
64
100
AcDbEntity
  8
Pannello leonardo
  6
ByLayer
 62
    8
370
   -1
100
AcDbLine
 10
-103.0060079124659
 20
-240.240480961922
 11
-103.0060079124659
 21
-270.240480961922
  0
LINE
  5
65
100
AcDbEntity
  8
Pannello leonardo
  6
ByLayer
 62
    8
370
   -1
100
AcDbLine
 10
-103.0060079124659
 20
-300.240480961922
 11
-103.0060079124659
 21
-330.240480961922
  0
LINE
  5
66
100
AcDbEntity
  8
Pannello leonardo
  6
ByLayer
 62
    8
370
   -1
100
AcDbLine
 10
-103.0060079124659
 20
-360.240480961922
 11
-103.0060079124659
 21
-390.240480961922
  0
LINE
  5
67
100
AcDbEntity
  8
Pannello leonardo
  6
ByLayer
 62
    8
370
   -1
100
AcDbLine
 10
-103.006007912465
 20
-420.240480961922
 11
-103.006007912465
 21
-450.2404809619218
  0
LINE
  5
68
100
AcDbEntity
  8
Pannello leonardo
  6
ByLayer
 62
    8
370
   -1
100
AcDbLine
 10
-103.006007912465
 20
-480.2404809619218
 11
-103.006007912465
 21
-510.240480961922
  0
LINE
  5
69
100
AcDbEntity
  8
Pannello leonardo
  6
ByLayer
 62
    8
370
   -1
100
AcDbLine
 10
-103.006007912465
 20
-540.240480961922
 11
-103.006007912465
 21
-570.240480961922
  0
LINE
  5
6A
100
AcDbEntity
  8
Pannello leonardo
  6
ByLayer
 62
    8
370
   -1
100
AcDbLine
 10
-103.0060079124641
 20
-600.2404809619219
 11
-103.0060079124641
 21
-630.2404809619218
  0
LINE
  5
6B
100
AcDbEntity
  8
Pannello leonardo
  6
ByLayer
 62
    8
370
   -1
100
AcDbLine
 10
-103.0060079124641
 20
-660.240480961922
 11
-103.0060079124641
 21
-690.240480961922
  0
LINE
  5
6C
100
AcDbEntity
  8
Pannello leonardo
  6
ByLayer
 62
    8
370
   -1
100
AcDbLine
 10
-103.0060079124641
 20
-720.240480961922
 11
-103.0060079124641
 21
-750.2404809619219
  0
LINE
  5
6D
100
AcDbEntity
  8
Pannello leonardo
  6
ByLayer
 62
    8
370
   -1
100
AcDbLine
 10
-103.0060079124632
 20
-780.2404809619217
 11
-103.0060079124632
 21
-810.2404809619219
  0
LINE
  5
6E
100
AcDbEntity
  8
Pannello leonardo
  6
ByLayer
 62
    8
370
   -1
100
AcDbLine
 10
-103.0060079124632
 20
-840.240480961922
 11
-103.0060079124632
 21
-870.2404809619221
  0
LINE
  5
6F
100
AcDbEntity
  8
Pannello leonardo
  6
ByLayer
 62
    8
370
   -1
100
AcDbLine
 10
-103.0060079124623
 20
-900.2404809619219
 11
-103.0060079124623
 21
-930.240480961922
  0
LINE
  5
70
100
AcDbEntity
  8
Pannello leonardo
  6
ByLayer
 62
    8
370
   -1
100
AcDbLine
 10
-103.0060079124623
 20
-960.2404809619219
 11
-103.0060079124623
 21
-990.240480961922
  0
LINE
  5
71
100
AcDbEntity
  8
Pannello leonardo
  6
ByLayer
 62
    8
370
   -1
100
AcDbLine
 10
-80.96191973610259
 20
-120.240480961922
 11
-80.96191973610259
 21
-150.240480961922
  0
LINE
  5
72
100
AcDbEntity
  8
Pannello leonardo
  6
ByLayer
 62
    8
370
   -1
100
AcDbLine
 10
-80.96191973610259
 20
-180.240480961922
 11
-80.96191973610259
 21
-210.240480961922
  0
LINE
  5
73
100
AcDbEntity
  8
Pannello leonardo
  6
ByLayer
 62
    8
370
   -1
100
AcDbLine
 10
-80.96191973610165
 20
-240.240480961922
 11
-80.96191973610165
 21
-270.240480961922
  0
LINE
  5
74
100
AcDbEntity
  8
Pannello leonardo
  6
ByLayer
 62
    8
370
   -1
100
AcDbLine
 10
-80.96191973610165
 20
-300.240480961922
 11
-80.96191973610165
 21
-330.240480961922
  0
LINE
  5
75
100
AcDbEntity
  8
Pannello leonardo
  6
ByLayer
 62
    8
370
   -1
100
AcDbLine
 10
-80.96191973610165
 20
-360.240480961922
 11
-80.96191973610165
 21
-390.240480961922
  0
LINE
  5
76
100
AcDbEntity
  8
Pannello leonardo
  6
ByLayer
 62
    8
370
   -1
100
AcDbLine
 10
-80.96191973610075
 20
-420.240480961922
 11
-80.96191973610075
 21
-450.2404809619218
  0
LINE
  5
77
100
AcDbEntity
  8
Pannello leonardo
  6
ByLayer
 62
    8
370
   -1
100
AcDbLine
 10
-80.96191973610075
 20
-480.2404809619218
 11
-80.96191973610075
 21
-510.240480961922
  0
LINE
  5
78
100
AcDbEntity
  8
Pannello leonardo
  6
ByLayer
 62
    8
370
   -1
100
AcDbLine
 10
-80.96191973610075
 20
-540.240480961922
 11
-80.96191973610075
 21
-570.240480961922
  0
LINE
  5
79
100
AcDbEntity
  8
Pannello leonardo
  6
ByLayer
 62
    8
370
   -1
100
AcDbLine
 10
-80.96191973609984
 20
-600.2404809619219
 11
-80.96191973609984
 21
-630.2404809619218
  0
LINE
  5
7A
100
AcDbEntity
  8
Pannello leonardo
  6
ByLayer
 62
    8
370
   -1
100
AcDbLine
 10
-80.96191973609984
 20
-660.240480961922
 11
-80.96191973609984
 21
-690.240480961922
  0
LINE
  5
7B
100
AcDbEntity
  8
Pannello leonardo
  6
ByLayer
 62
    8
370
   -1
100
AcDbLine
 10
-80.96191973609984
 20
-720.240480961922
 11
-80.96191973609984
 21
-750.2404809619219
  0
LINE
  5
7C
100
AcDbEntity
  8
Pannello leonardo
  6
ByLayer
 62
    8
370
   -1
100
AcDbLine
 10
-80.96191973609893
 20
-780.2404809619217
 11
-80.96191973609893
 21
-810.2404809619219
  0
LINE
  5
7D
100
AcDbEntity
  8
Pannello leonardo
  6
ByLayer
 62
    8
370
   -1
100
AcDbLine
 10
-80.96191973609893
 20
-840.240480961922
 11
-80.96191973609893
 21
-870.2404809619221
  0
LINE
  5
7E
100
AcDbEntity
  8
Pannello leonardo
  6
ByLayer
 62
    8
370
   -1
100
AcDbLine
 10
-80.96191973609803
 20
-900.2404809619219
 11
-80.96191973609803
 21
-930.240480961922
  0
LINE
  5
7F
100
AcDbEntity
  8
Pannello leonardo
  6
ByLayer
 62
    8
370
   -1
100
AcDbLine
 10
-80.96191973609803
 20
-960.2404809619219
 11
-80.96191973609803
 21
-990.240480961922
  0
CIRCLE
  5
80
100
AcDbEntity
  8
Pannello leonardo
  6
ByLayer
 62
   11
370
   -1
100
AcDbCircle
 10
-149.0981922811916
 20
-42.98440147941071
 40
20
  0
CIRCLE
  5
81
100
AcDbEntity
  8
Pannello leonardo
  6
ByLayer
 62
  161
370
   -1
100
AcDbCircle
 10
-149.0981922811916
 20
-87.8842624621611
 40
20
  0
CIRCLE
  5
82
100
AcDbEntity
  8
Pannello leonardo
  6
ByLayer
 62
  256
370
   -1
100
AcDbCircle
 10
-190.201265941766
 20
-1000.000000382133
 40
1.75
  0
CIRCLE
  5
83
100
AcDbEntity
  8
Pannello leonardo
  6
ByLayer
 62
  256
370
   -1
100
AcDbCircle
 10
-355.5319272643965
 20
-1000.000000382133
 40
1.75
  0
CIRCLE
  5
84
100
AcDbEntity
  8
Pannello leonardo
  6
ByLayer
 62
  256
370
   -1
100
AcDbCircle
 10
-575.9728090279232
 20
-1000.000000382133
 40
1.75
  0
CIRCLE
  5
85
100
AcDbEntity
  8
Pannello leonardo
  6
ByLayer
 62
  256
370
   -1
100
AcDbCircle
 10
-796.413690791479
 20
-1000.000000382133
 40
1.75
  0
CIRCLE
  5
86
100
AcDbEntity
  8
Pannello leonardo
  6
ByLayer
 62
  256
370
   -1
100
AcDbCircle
 10
-1178.657319047967
 20
-1000.000000382133
 40
1.75
  0
CIRCLE
  5
87
100
AcDbEntity
  8
Pannello leonardo
  6
ByLayer
 62
  256
370
   -1
100
AcDbCircle
 10
-1016.854572555005
 20
-1000.000000382133
 40
1.75
  0
CIRCLE
  5
88
100
AcDbEntity
  8
Pannello leonardo
  6
ByLayer
 62
  256
370
   -1
100
AcDbCircle
 10
-13.82765071130325
 20
-504.0080156499241
 40
1.75
  0
CIRCLE
  5
89
100
AcDbEntity
  8
Pannello leonardo
  6
ByLayer
 62
  256
370
   -1
100
AcDbCircle
 10
-1178.657319047967
 20
-504.0080156499316
 40
1.75
  0
CIRCLE
  5
8A
100
AcDbEntity
  8
Pannello leonardo
  6
ByLayer
 62
  256
370
   -1
100
AcDbCircle
 10
-796.413690791479
 20
-504.0080156499316
 40
1.75
  0
CIRCLE
  5
8B
100
AcDbEntity
  8
Pannello leonardo
  6
ByLayer
 62
  256
370
   -1
100
AcDbCircle
 10
-575.9728090279232
 20
-504.0080156499316
 40
1.75
  0
CIRCLE
  5
8C
100
AcDbEntity
  8
Pannello leonardo
  6
ByLayer
 62
  256
370
   -1
100
AcDbCircle
 10
-355.5319272643965
 20
-504.0080156499316
 40
1.75
  0
CIRCLE
  5
8D
100
AcDbEntity
  8
Pannello leonardo
  6
ByLayer
 62
  256
370
   -1
100
AcDbCircle
 10
-190.201265941766
 20
-504.0080156499316
 40
1.75
  0
CIRCLE
  5
8E
100
AcDbEntity
  8
Pannello leonardo
  6
ByLayer
 62
  256
370
   -1
100
AcDbCircle
 10
-355.5319272643965
 20
-20.04007977818401
 40
1.75
  0
CIRCLE
  5
8F
100
AcDbEntity
  8
Pannello leonardo
  6
ByLayer
 62
  256
370
   -1
100
AcDbCircle
 10
-575.9728090279232
 20
-20.04007977818401
 40
1.75
  0
CIRCLE
  5
90
100
AcDbEntity
  8
Pannello leonardo
  6
ByLayer
 62
  256
370
   -1
100
AcDbCircle
 10
-796.413690791479
 20
-20.04007977819128
 40
1.75
  0
CIRCLE
  5
91
100
AcDbEntity
  8
Pannello leonardo
  6
ByLayer
 62
  256
370
   -1
100
AcDbCircle
 10
-1016.854572555005
 20
-20.04007977819128
 40
1.75
  0
CIRCLE
  5
92
100
AcDbEntity
  8
Pannello leonardo
  6
ByLayer
 62
  256
370
   -1
100
AcDbCircle
 10
-1178.657319047967
 20
-20.04007977819128
 40
1.75
  0
CIRCLE
  5
93
100
AcDbEntity
  8
Pannello leonardo
  6
ByLayer
 62
  256
370
   -1
100
AcDbCircle
 10
-1016.854579367485
 20
-504.0080156499316
 40
1.75
  0
CIRCLE
  5
94
100
AcDbEntity
  8
Pannello leonardo
  6
ByLayer
 62
  256
370
   -1
100
AcDbCircle
 10
-13.82765071130325
 20
-1000.000000382133
 40
1.75
  0
ENDBLK
  5
51
330
4F
100
AcDbEntity
  8
0
100
AcDbBlockEnd
  0
BLOCK
  5
53
330
52
100
AcDbEntity
  8
0
100
AcDbBlockBegin
  2
Leo 55_60
 70
    0
 10
0
 20
0
  3
Leo 55_60
  1

  0
LWPOLYLINE
  5
95
100
AcDbEntity
  8
Pannello leonardo
  6
CONTINUOUS
 62
  256
370
   -1
100
AcDbPolyline
 90
    7
 70
    1
 43
0
 10
-600
 20
0
 10
-600
 20
-1000
 10
0
 20
-1000
 10
0
 20
-120.2404809619165
 10
-194.789577102526
 20
-120.2404809619183
 42
-0.4142135623730951
 10
-199.7995971426062
 20
-115.2304609218408
 10
-199.799597142607
 20
0
  0
LWPOLYLINE
  5
96
100
AcDbEntity
  8
Pannello leonardo
  6
ByLayer
 62
  152
370
   -1
100
AcDbPolyline
 90
  112
 70
    0
 43
0
 10
-149.6993967418047
 20
-87.8842624621611
 10
-349.1672193382865
 20
-87.88426246216659
 42
0.1083375439123979
 10
-393.7097219738697
 20
-97.65013541221194
 42
-0.2717011718373685
 10
-449.2135520101363
 20
-92.1413326655456
 42
1.895663130150137
 10
-451.4137751638345
 20
-166.5401302605914
 42
-0.1582863129118656
 10
-424.6785617615305
 20
-157.815631262536
 10
-113.6690751427804
 20
-157.815631262536
 42
-0.4142135623730951
 10
-58.5588547018988
 20
-212.9258517034177
 10
-58.55885470189875
 20
-351.6300728514325
 42
-0.08830523542777903
 10
-65.04703035554027
 20
-388.2332837157319
 42
0.2048198551270011
 10
-58.03693934061992
 20
-472.1545217485036
 42
-0.2490738595959219
 10
-58.03693933984602
 20
-572.3549225501118
 42
0.2500000000040925
 10
-58.03693933984593
 20
-672.5553233531607
 42
-0.2117890266392278
 10
-51.78023105160084
 20
-758.6471882039003
 42
0.1139090217459953
 10
-57.99794462582308
 20
-805.6028625846974
 42
-0.02897488702788837
 10
-57.51503059585866
 20
-819.5899437213777
 10
-57.51503059585503
 20
-871.4160731692537
 42
0.1668669495977705
 10
-47.87074201875479
 20
-899.3678264452082
 42
-1.897130574172241
 10
-122.2695397235366
 20
-899.3678266053521
 42
0.1512871448259239
 10
-112.6252512799337
 20
-868.2232375944002
 10
-112.6252512799265
 20
-815.7316149077812
 42
0.02382523088738261
 10
-113.1081651876848
 20
-805.6028613188662
 42
-0.1054847734320229
 10
-108.0742954361994
 20
-761.9885296961038
 42
0.219698282634033
 10
-113.1471597810669
 20
-672.5553233525316
 42
-0.2500000000040925
 10
-113.1471597807276
 20
-572.354922550112
 42
0.2500000000040928
 10
-113.1471597815008
 20
-472.1545217485036
 42
-0.2131978289862259
 10
-119.1840307974271
 20
-385.4564445026771
 42
0.08712353647138933
 10
-113.6690717125393
 20
-351.6300728514325
 10
-113.6690705501469
 20
-280.6613264256503
 42
1.000000030522892
 10
-278.9997410580663
 20
-280.6613210352807
 10
-278.9997364654246
 20
-351.6300746929192
 42
-0.07514539567444889
 10
-285.4441718943535
 20
-388.2332837157319
 42
0.2004639940154257
 10
-278.4778211041457
 20
-472.1545217485036
 42
-0.2500000000040928
 10
-278.4778211041457
 20
-572.3549225515524
 42
0.2500000000040925
 10
-278.4778211033736
 20
-672.5553233531607
 42
-0.2117890266392282
 10
-272.2211128151283
 20
-758.6471882039004
 42
0.1175132502067985
 10
-278.2859629534751
 20
-807.0905881693924
 42
-0.03148325714117038
 10
-277.9559123593817
 20
-816.3058526169333
 10
-277.9559123593808
 20
-830.6480869387597
 42
-0.1512871459264737
 10
-287.6002009365147
 20
-861.7926761446543
 42
1.897130579120527
 10
-213.2014033413671
 20
-861.7926761446543
 42
-0.1668669495977705
 10
-222.8456919184973
 20
-833.8409228687215
 10
-222.8456919185
 20
-815.7316174524167
 42
0.02382523390775734
 10
-223.3286059485536
 20
-805.6028625838098
 42
-0.1139090217459953
 10
-217.1108923742422
 20
-758.6471882039131
 42
0.2117890266392278
 10
-223.367600663265
 20
-672.5553233517057
 42
-0.1231056256196157
 10
-235.8926507630795
 20
-622.4551229516363
 10
-235.8926507630795
 20
-422.0543213484196
 42
-0.08765413332692426
 10
-229.4482119039122
 20
-385.5761519778208
 42
0.1199519239550764
 10
-223.8895160245474
 20
-351.6300728514325
 10
-223.8895160245483
 20
-337.2878468642157
 42
0.1512871459264732
 10
-233.5338046016805
 20
-306.1432576583356
 42
-1.721281171568245
 10
-155.4583695018418
 20
-299.6948183801724
 10
-170.8323679616578
 20
-332.7117730557584
 42
0.2356577234634664
 10
-168.2573802223824
 20
-427.7521755208106
 42
-0.1231056256196158
 10
-155.7323301217966
 20
-477.8523759223316
 10
-155.7323301217957
 20
-522.2547221500279
 42
-0.1231056256196158
 10
-168.2573802216111
 20
-572.3549225501118
 42
0.2500000000040926
 10
-168.2573802223833
 20
-672.5553233517057
 42
-0.2117890266392278
 10
-162.0006719336416
 20
-758.6471882046716
 42
0.1139090186805619
 10
-168.2183856285718
 20
-805.6028613187917
 42
-0.02381055139694978
 10
-167.7354717208109
 20
-815.7316149077812
 10
-167.7354717208154
 20
-887.2746127677091
 42
-1.078756648536373
 10
-333.0661373929006
 20
-887.2746127677091
 42
1.633123935319537e+16
 10
-333.0661373929006
 20
-887.2746127677091
 10
-333.0661330434596
 20
-815.7316149077669
 42
0.02382523088738272
 10
-333.549046951146
 20
-805.602861319554
 42
-0.1054847734320229
 10
-328.5151771996662
 20
-761.9885296958618
 42
0.219698282634033
 10
-333.5880415442552
 20
-672.5553233531607
 42
-0.2500000000040927
 10
-333.5880415450266
 20
-572.3549225515544
 42
0.1231056253758704
 10
-321.0629914444407
 20
-522.2547222471766
 10
-321.0629914444425
 20
-477.8523759223316
 42
0.08819845118566358
 10
-327.5864772520799
 20
-441.1581951223213
 42
-0.0489951992217819
 10
-334.1099630595463
 20
-404.4640074888446
 10
-334.1099523136736
 20
-280.6613210352807
 42
0.9999999999999999
 10
-499.440622821593
 20
-280.6613210352807
 10
-499.4406228215948
 20
-351.6300728514325
 42
-0.09030573087238297
 10
-504.999314108315
 20
-385.5761519778353
 42
0.2130588163210596
 10
-498.9187028676752
 20
-472.1545217485036
 42
-0.2500000000040928
 10
-498.9187028669011
 20
-572.3549225501118
 42
0.2500000000040924
 10
-498.9187028669013
 20
-672.5553233531606
 42
-0.213598684138937
 10
-492.9136496053552
 20
-759.3402006786383
 42
0.1122355053602429
 10
-498.879708030595
 20
-805.6028849510202
 42
-0.02382523088738272
 10
-498.3967941229056
 20
-815.7316385392913
 10
-498.3967941229083
 20
-830.6480869387597
 42
-0.1512871459264734
 10
-508.0410827000886
 20
-861.7926761447161
 42
1.897130579120527
 10
-433.6422851048937
 20
-861.7926761446543
 42
-0.1668669495977705
 10
-443.2865736820247
 20
-833.8409228687215
 10
-443.2865736820214
 20
-818.538204037075
 42
0.006744389190470297
 10
-443.7182654638928
 20
-805.0582724114773
 42
-0.1041709225021999
 10
-438.6337685964027
 20
-761.9885071381613
 42
0.2185893867127533
 10
-443.8084824265414
 20
-672.5553233521766
 42
-0.2500000000040923
 10
-443.8084824260194
 20
-572.354922550112
 42
0.2500000000040928
 10
-443.8084824267908
 20
-472.1545217485036
 42
-0.2061578593255294
 10
-450.8185734417175
 20
-388.2332837157318
 42
0.08869351236118579
 10
-444.3303943578276
 20
-351.6300820546748
 10
-444.3303977880758
 20
-337.2878468642157
 42
0.1512871459264732
 10
-453.9746863652071
 20
-306.1432576583356
 42
-1.897130579120525
 10
-379.5758887700868
 20
-306.1432576583593
 42
0.1668669495977706
 10
-389.2201773471907
 20
-334.0950109343248
 10
-389.2201739169486
 20
-351.6300728514325
 42
-0.0809966052887995
 10
-394.7351330022866
 20
-385.45111048539
 42
0.08792186968531944
 10
-401.2233120857245
 20
-422.0543213484343
 10
-401.2233120857226
 20
-622.4551229516363
 42
0.1231056256196158
 10
-388.6982619859091
 20
-672.5553233517057
 42
-0.2172736762170858
 10
-382.4578277723922
 20
-758.6924359627866
 42
0.1213862185306896
 10
-388.1763534843421
 20
-812.2063559159432
 10
-388.1763491347865
 20
-892.2846328077865
 42
-1.000888034948465
 10
-543.4869769015448
 20
-892.2846328213346
 10
-543.4869747268265
 20
-88.07458184011921
 42
-0.4142135623730951
 10
-498.3967943661073
 20
-42.98440147939253
 10
-149.6993967418047
 20
-42.98440147940708
  0
LWPOLYLINE
  5
97
100
AcDbEntity
  8
Pannello leonardo
  6
ByLayer
 62
   30
370
   -1
100
AcDbPolyline
 90
    2
 70
    0
 43
0
 10
-40.480959868054
 20
-1000
 10
-40.480959868054
 20
-35.0701402805571
  0
LINE
  5
98
100
AcDbEntity
  8
Pannello leonardo
  6
ByLayer
 62
    8
370
   -1
100
AcDbLine
 10
-103.6072123730791
 20
-120.240480961922
 11
-103.6072123730791
 21
-150.240480961922
  0
LINE
  5
99
100
AcDbEntity
  8
Pannello leonardo
  6
ByLayer
 62
    8
370
   -1
100
AcDbLine
 10
-103.6072123730791
 20
-180.240480961922
 11
-103.6072123730791
 21
-210.240480961922
  0
LINE
  5
9A
100
AcDbEntity
  8
Pannello leonardo
  6
ByLayer
 62
    8
370
   -1
100
AcDbLine
 10
-103.6072123730782
 20
-240.240480961922
 11
-103.6072123730782
 21
-270.240480961922
  0
LINE
  5
9B
100
AcDbEntity
  8
Pannello leonardo
  6
ByLayer
 62
    8
370
   -1
100
AcDbLine
 10
-103.6072123730782
 20
-300.240480961922
 11
-103.6072123730782
 21
-330.240480961922
  0
LINE
  5
9C
100
AcDbEntity
  8
Pannello leonardo
  6
ByLayer
 62
    8
370
   -1
100
AcDbLine
 10
-103.6072123730782
 20
-360.240480961922
 11
-103.6072123730782
 21
-390.240480961922
  0
LINE
  5
9D
100
AcDbEntity
  8
Pannello leonardo
  6
ByLayer
 62
    8
370
   -1
100
AcDbLine
 10
-103.6072123730773
 20
-420.240480961922
 11
-103.6072123730773
 21
-450.2404809619218
  0
LINE
  5
9E
100
AcDbEntity
  8
Pannello leonardo
  6
ByLayer
 62
    8
370
   -1
100
AcDbLine
 10
-103.6072123730773
 20
-480.2404809619218
 11
-103.6072123730773
 21
-510.240480961922
  0
LINE
  5
9F
100
AcDbEntity
  8
Pannello leonardo
  6
ByLayer
 62
    8
370
   -1
100
AcDbLine
 10
-103.6072123730773
 20
-540.240480961922
 11
-103.6072123730773
 21
-570.240480961922
  0
LINE
  5
A0
100
AcDbEntity
  8
Pannello leonardo
  6
ByLayer
 62
    8
370
   -1
100
AcDbLine
 10
-103.6072123730764
 20
-600.2404809619219
 11
-103.6072123730764
 21
-630.2404809619218
  0
LINE
  5
A1
100
AcDbEntity
  8
Pannello leonardo
  6
ByLayer
 62
    8
370
   -1
100
AcDbLine
 10
-103.6072123730764
 20
-660.240480961922
 11
-103.6072123730764
 21
-690.240480961922
  0
LINE
  5
A2
100
AcDbEntity
  8
Pannello leonardo
  6
ByLayer
 62
    8
370
   -1
100
AcDbLine
 10
-103.6072123730764
 20
-720.240480961922
 11
-103.6072123730764
 21
-750.2404809619219
  0
LINE
  5
A3
100
AcDbEntity
  8
Pannello leonardo
  6
ByLayer
 62
    8
370
   -1
100
AcDbLine
 10
-103.6072123730755
 20
-780.2404809619218
 11
-103.6072123730755
 21
-810.2404809619219
  0
LINE
  5
A4
100
AcDbEntity
  8
Pannello leonardo
  6
ByLayer
 62
    8
370
   -1
100
AcDbLine
 10
-103.6072123730755
 20
-840.240480961922
 11
-103.6072123730755
 21
-870.2404809619221
  0
LINE
  5
A5
100
AcDbEntity
  8
Pannello leonardo
  6
ByLayer
 62
    8
370
   -1
100
AcDbLine
 10
-103.6072123730746
 20
-900.2404809619219
 11
-103.6072123730746
 21
-930.240480961922
  0
LINE
  5
A6
100
AcDbEntity
  8
Pannello leonardo
  6
ByLayer
 62
    8
370
   -1
100
AcDbLine
 10
-103.6072123730746
 20
-960.2404809619219
 11
-103.6072123730746
 21
-990.240480961922
  0
LINE
  5
A7
100
AcDbEntity
  8
Pannello leonardo
  6
ByLayer
 62
    8
370
   -1
100
AcDbLine
 10
-81.56312419671484
 20
-120.240480961922
 11
-81.56312419671484
 21
-150.240480961922
  0
LINE
  5
A8
100
AcDbEntity
  8
Pannello leonardo
  6
ByLayer
 62
    8
370
   -1
100
AcDbLine
 10
-81.56312419671484
 20
-180.240480961922
 11
-81.56312419671484
 21
-210.240480961922
  0
LINE
  5
A9
100
AcDbEntity
  8
Pannello leonardo
  6
ByLayer
 62
    8
370
   -1
100
AcDbLine
 10
-81.56312419671391
 20
-240.240480961922
 11
-81.56312419671391
 21
-270.240480961922
  0
LINE
  5
AA
100
AcDbEntity
  8
Pannello leonardo
  6
ByLayer
 62
    8
370
   -1
100
AcDbLine
 10
-81.56312419671391
 20
-300.240480961922
 11
-81.56312419671391
 21
-330.240480961922
  0
LINE
  5
AB
100
AcDbEntity
  8
Pannello leonardo
  6
ByLayer
 62
    8
370
   -1
100
AcDbLine
 10
-81.56312419671391
 20
-360.240480961922
 11
-81.56312419671391
 21
-390.240480961922
  0
LINE
  5
AC
100
AcDbEntity
  8
Pannello leonardo
  6
ByLayer
 62
    8
370
   -1
100
AcDbLine
 10
-81.56312419671303
 20
-420.240480961922
 11
-81.56312419671303
 21
-450.2404809619218
  0
LINE
  5
AD
100
AcDbEntity
  8
Pannello leonardo
  6
ByLayer
 62
    8
370
   -1
100
AcDbLine
 10
-81.56312419671303
 20
-480.2404809619218
 11
-81.56312419671303
 21
-510.240480961922
  0
LINE
  5
AE
100
AcDbEntity
  8
Pannello leonardo
  6
ByLayer
 62
    8
370
   -1
100
AcDbLine
 10
-81.56312419671303
 20
-540.240480961922
 11
-81.56312419671303
 21
-570.240480961922
  0
LINE
  5
AF
100
AcDbEntity
  8
Pannello leonardo
  6
ByLayer
 62
    8
370
   -1
100
AcDbLine
 10
-81.56312419671212
 20
-600.2404809619219
 11
-81.56312419671212
 21
-630.2404809619218
  0
LINE
  5
B0
100
AcDbEntity
  8
Pannello leonardo
  6
ByLayer
 62
    8
370
   -1
100
AcDbLine
 10
-81.56312419671212
 20
-660.240480961922
 11
-81.56312419671212
 21
-690.240480961922
  0
LINE
  5
B1
100
AcDbEntity
  8
Pannello leonardo
  6
ByLayer
 62
    8
370
   -1
100
AcDbLine
 10
-81.56312419671212
 20
-720.240480961922
 11
-81.56312419671212
 21
-750.2404809619219
  0
LINE
  5
B2
100
AcDbEntity
  8
Pannello leonardo
  6
ByLayer
 62
    8
370
   -1
100
AcDbLine
 10
-81.56312419671121
 20
-780.2404809619218
 11
-81.56312419671121
 21
-810.2404809619219
  0
LINE
  5
B3
100
AcDbEntity
  8
Pannello leonardo
  6
ByLayer
 62
    8
370
   -1
100
AcDbLine
 10
-81.56312419671121
 20
-840.240480961922
 11
-81.56312419671121
 21
-870.2404809619221
  0
LINE
  5
B4
100
AcDbEntity
  8
Pannello leonardo
  6
ByLayer
 62
    8
370
   -1
100
AcDbLine
 10
-81.56312419671031
 20
-900.2404809619219
 11
-81.56312419671031
 21
-930.240480961922
  0
LINE
  5
B5
100
AcDbEntity
  8
Pannello leonardo
  6
ByLayer
 62
    8
370
   -1
100
AcDbLine
 10
-81.56312419671031
 20
-960.2404809619219
 11
-81.56312419671031
 21
-990.240480961922
  0
CIRCLE
  5
B6
100
AcDbEntity
  8
Pannello leonardo
  6
ByLayer
 62
   11
370
   -1
100
AcDbCircle
 10
-149.6993967418038
 20
-42.98440147941072
 40
20
  0
CIRCLE
  5
B7
100
AcDbEntity
  8
Pannello leonardo
  6
ByLayer
 62
  161
370
   -1
100
AcDbCircle
 10
-149.6993967418038
 20
-87.8842624621611
 40
20
  0
CIRCLE
  5
B8
100
AcDbEntity
  8
0
  6
ByLayer
 62
  256
370
   -1
100
AcDbCircle
 10
-190.8024704023564
 20
-999.9999996178669
 40
1.75
  0
CIRCLE
  5
B9
100
AcDbEntity
  8
0
  6
ByLayer
 62
  256
370
   -1
100
AcDbCircle
 10
-14.42885517190098
 20
-999.9999996178669
 40
1.75
  0
CIRCLE
  5
BA
100
AcDbEntity
  8
0
  6
ByLayer
 62
  256
370
   -1
100
AcDbCircle
 10
-356.1331317250016
 20
-999.9999996178669
 40
1.75
  0
CIRCLE
  5
BB
100
AcDbEntity
  8
0
  6
ByLayer
 62
  256
370
   -1
100
AcDbCircle
 10
-578.0561146909321
 20
-999.9999996178669
 40
1.75
  0
CIRCLE
  5
BC
100
AcDbEntity
  8
0
  6
ByLayer
 62
  256
370
   -1
100
AcDbCircle
 10
-356.1331317250016
 20
-20.04007977819128
 40
1.75
  0
CIRCLE
  5
BD
100
AcDbEntity
  8
0
  6
ByLayer
 62
  256
370
   -1
100
AcDbCircle
 10
-578.0561146909394
 20
-20.04007977819128
 40
1.75
  0
CIRCLE
  5
BE
100
AcDbEntity
  8
0
  6
ByLayer
 62
  256
370
   -1
100
AcDbCircle
 10
-578.0561146909321
 20
-504.0080156499316
 40
1.75
  0
CIRCLE
  5
BF
100
AcDbEntity
  8
0
  6
ByLayer
 62
  256
370
   -1
100
AcDbCircle
 10
-361.1431517650863
 20
-504.0080156499316
 40
1.75
  0
CIRCLE
  5
C0
100
AcDbEntity
  8
0
  6
ByLayer
 62
  256
370
   -1
100
AcDbCircle
 10
-195.8124904424412
 20
-504.0080156499316
 40
1.75
  0
CIRCLE
  5
C1
100
AcDbEntity
  8
0
  6
ByLayer
 62
  256
370
   -1
100
AcDbCircle
 10
-14.42885517190098
 20
-504.0080156499316
 40
1.75
  0
LINE
  5
C2
100
AcDbEntity
  8
0
  6
ByLayer
 62
  256
370
   -1
100
AcDbLine
 10
-578.0561146909394
 20
-17.94007977819273
 11
-578.0561146909394
 21
-22.14007977818983
  0
LINE
  5
C3
100
AcDbEntity
  8
0
  6
ByLayer
 62
  256
370
   -1
100
AcDbLine
 10
-580.156114690938
 20
-20.04007977819128
 11
-575.9561146909336
 21
-20.04007977819128
  0
LINE
  5
C4
100
AcDbEntity
  8
0
  6
ByLayer
 62
  256
370
   -1
100
AcDbLine
 10
-578.0561146909321
 20
-501.908015649933
 11
-578.0561146909321
 21
-506.1080156499301
  0
LINE
  5
C5
100
AcDbEntity
  8
0
  6
ByLayer
 62
  256
370
   -1
100
AcDbLine
 10
-580.1561146909307
 20
-504.0080156499316
 11
-575.9561146909336
 21
-504.0080156499316
  0
LINE
  5
C6
100
AcDbEntity
  8
0
  6
ByLayer
 62
  256
370
   -1
100
AcDbLine
 10
-578.0561146909394
 20
-997.9000000000016
 11
-578.0561146909394
 21
-1002.099999999998
  0
LINE
  5
C7
100
AcDbEntity
  8
0
  6
ByLayer
 62
  256
370
   -1
100
AcDbLine
 10
-580.156114690938
 20
-1000
 11
-575.9561146909336
 21
-1000
  0
LINE
  5
C8
100
AcDbEntity
  8
0
  6
ByLayer
 62
  256
370
   -1
100
AcDbLine
 10
-356.1331317250016
 20
-17.94007977819273
 11
-356.1331317250016
 21
-22.14007977818983
  0
LINE
  5
C9
100
AcDbEntity
  8
0
  6
ByLayer
 62
  256
370
   -1
100
AcDbLine
 10
-358.233131725
 20
-20.04007977819128
 11
-354.0331317250029
 21
-20.04007977819128
  0
LINE
  5
CA
100
AcDbEntity
  8
0
  6
ByLayer
 62
  256
370
   -1
100
AcDbLine
 10
-361.1431517650863
 20
-501.908015649933
 11
-361.1431517650863
 21
-506.1080156499301
  0
LINE
  5
CB
100
AcDbEntity
  8
0
  6
ByLayer
 62
  256
370
   -1
100
AcDbLine
 10
-363.2431517650849
 20
-504.0080156499316
 11
-359.0431517650805
 21
-504.0080156499316
  0
LINE
  5
CC
100
AcDbEntity
  8
0
  6
ByLayer
 62
  256
370
   -1
100
AcDbLine
 10
-356.1331317250016
 20
-997.8999996178682
 11
-356.1331317250016
 21
-1002.099999617865
  0
LINE
  5
CD
100
AcDbEntity
  8
0
  6
ByLayer
 62
  256
370
   -1
100
AcDbLine
 10
-358.2331317250073
 20
-999.9999996178669
 11
-354.0331317250029
 21
-999.9999996178669
  0
LINE
  5
CE
100
AcDbEntity
  8
0
  6
ByLayer
 62
  256
370
   -1
100
AcDbLine
 10
-190.8024704023564
 20
-997.8999996178682
 11
-190.8024704023564
 21
-1002.099999617865
  0
LINE
  5
CF
100
AcDbEntity
  8
0
  6
ByLayer
 62
  256
370
   -1
100
AcDbLine
 10
-192.902470402355
 20
-999.9999996178669
 11
-188.7024704023579
 21
-999.9999996178669
  0
LINE
  5
D0
100
AcDbEntity
  8
0
  6
ByLayer
 62
  256
370
   -1
100
AcDbLine
 10
-14.42885517190098
 20
-997.8999996178682
 11
-14.42885517190098
 21
-1002.099999617865
  0
LINE
  5
D1
100
AcDbEntity
  8
0
  6
ByLayer
 62
  256
370
   -1
100
AcDbLine
 10
-16.52885517189952
 20
-999.9999996178669
 11
-12.32885517189515
 21
-999.9999996178669
  0
LINE
  5
D2
100
AcDbEntity
  8
0
  6
ByLayer
 62
  256
370
   -1
100
AcDbLine
 10
-14.42885517190098
 20
-501.908015649933
 11
-14.42885517190098
 21
-506.1080156499301
  0
LINE
  5
D3
100
AcDbEntity
  8
0
  6
ByLayer
 62
  256
370
   -1
100
AcDbLine
 10
-16.52885517189952
 20
-504.0080156499316
 11
-12.32885517189515
 21
-504.0080156499316
  0
LINE
  5
D4
100
AcDbEntity
  8
0
  6
ByLayer
 62
  256
370
   -1
100
AcDbLine
 10
-195.8124904424412
 20
-501.908015649933
 11
-195.8124904424412
 21
-506.1080156499301
  0
LINE
  5
D5
100
AcDbEntity
  8
0
  6
ByLayer
 62
  256
370
   -1
100
AcDbLine
 10
-197.9124904424397
 20
-504.0080156499316
 11
-193.7124904424354
 21
-504.0080156499316
  0
ENDBLK
  5
54
330
52
100
AcDbEntity
  8
0
100
AcDbBlockEnd
  0
BLOCK
  5
56
330
55
100
AcDbEntity
  8
0
100
AcDbBlockBegin
  2
leo 55_120 idro
 70
    0
 10
0
 20
0
  3
leo 55_120 idro
  1

  0
LINE
  5
D6
100
AcDbEntity
  8
Pannello leonardo
  6
ByLayer
 62
    8
370
   -1
100
AcDbLine
 10
-1199.999999999999
 20
-1000
 11
0
 21
-1000
  0
LWPOLYLINE
  5
D7
100
AcDbEntity
  8
Pannello leonardo
  6
ByLayer
 62
  256
370
   -1
100
AcDbPolyline
 90
    7
 70
    0
 43
0
 10
0
 20
-1000
 10
0
 20
-120.240480961922
 10
-194.1883726419173
 20
-120.2404809619256
 42
-0.4142135623732014
 10
-199.198392681993
 20
-115.2304609218445
 10
-199.1983926819948
 20
0
 10
-1199.999999999999
 20
0
 10
-1199.999999999999
 20
-1000
  0
LWPOLYLINE
  5
D8
100
AcDbEntity
  8
Pannello leonardo
  6
ByLayer
 62
   93
370
   -1
100
AcDbPolyline
 90
  231
 70
    0
 43
0
 10
-149.0981922811916
 20
-87.8842624621611
 10
-451.5019745909948
 20
-87.88426246216115
 42
0.1231056256202469
 10
-501.6021749927513
 20
-100.4093125628715
 42
-0.2500000000054178
 10
-601.8025757924406
 20
-100.4093125628716
 42
0.2500000000000197
 10
-702.0029765940481
 20
-100.4093125618529
 42
-0.2499999999892203
 10
-802.2033773956427
 20
-100.4093125628715
 42
0.2499999999784219
 10
-902.4037781972513
 20
-100.4093125618528
 42
-0.2061578592960027
 10
-986.3250162323004
 20
-107.4194035774635
 42
0.05494283062939721
 10
-1014.82694137798
 20
-101.2399052555229
 42
-0.09557275275589606
 10
-1054.254549075186
 20
-89.28946583165089
 42
1.665894214900658
 10
-1056.075118792618
 20
-168.8569009868042
 42
-0.1813310213455527
 10
-984.5735045832442
 20
-163.0996363689992
 42
0.1873503423332885
 10
-902.4037781991555
 20
-155.5195330037531
 42
-0.2354072560762692
 10
-802.2033773956427
 20
-155.5195330037532
 42
0.2354072560762666
 10
-702.0029765959533
 20
-155.5195330037531
 42
-0.2354072560762645
 10
-601.8025757924407
 20
-155.5195330037531
 42
0.2354072560816316
 10
-501.6021749908323
 20
-155.5195330027345
 42
-0.2047070493655848
 10
-412.7124543917471
 20
-150.3081171034537
 42
0.1476648713695599
 10
-318.9871886941519
 20
-155.1921674865043
 10
-263.368469447144
 20
-154.9976210718196
 42
-0.4162640046467569
 10
-218.2782837056429
 20
-200.087801432539
 10
-218.2782880936184
 20
-337.2878468642193
 42
-0.08794308270741646
 10
-224.7664671772536
 20
-373.8910577277712
 42
0.09489800847860679
 10
-230.2814262624006
 20
-407.7120953612138
 10
-230.2814262623952
 20
-642.9932485638928
 42
0.1231056256176619
 10
-217.7563761621832
 20
-693.0934489647352
 42
-0.2119070839891963
 10
-211.5159458689321
 20
-779.2305724718096
 42
0.03338243030829661
 10
-215.7423298717613
 20
-794.0075291126849
 10
-233.7724033138984
 20
-877.8444670037663
 42
1.237925486470878
 10
-145.5863110808659
 20
-877.8444670037663
 42
0.0794813658856629
 10
-150.7805372343391
 20
-864.4709689701683
 42
-0.2286384076690826
 10
-157.3699063298844
 20
-781.8059783942699
 42
0.2180671764687131
 10
-162.6461557213332
 20
-693.0934489646553
 42
-0.2493946906446415
 10
-162.6461557213006
 20
-592.8930481630522
 42
0.1225272470380622
 10
-150.1211056211214
 20
-542.7928477622883
 10
-150.1211056211068
 20
-477.8523759223353
 42
0.1231056256176701
 10
-162.646155721286
 20
-427.7521755215747
 42
-0.2061578593240698
 10
-169.6562467365238
 20
-343.8309374877172
 42
0.0581494799174305
 10
-163.3818093705922
 20
-313.9705340357874
 42
-0.004694425297653779
 10
-163.1680676527317
 20
-272.7360675441776
 42
0.1229422267453803
 10
-175.513905902957
 20
-223.2850619548262
 42
-1.662726901862194
 10
-95.85458726562862
 20
-223.1699113163013
 42
0.122731994494415
 10
-108.159688857453
 20
-272.5444848194603
 42
-0.01528927133639268
 10
-108.1596888574568
 20
-311.7723817302506
 42
-0.05217823451592716
 10
-111.3801993174311
 20
-333.6186604417489
 42
0.1080766525965493
 10
-119.6914921805037
 20
-386.5141491830582
 42
0.03953082103471364
 10
-105.7057651366267
 20
-431.3944867085154
 42
-0.1128562996116609
 10
-95.01088518023609
 20
-477.8523759780402
 10
-95.01088518023609
 20
-540.3183912452512
 42
-0.1202243155623571
 10
-108.098858880363
 20
-593.9631200979928
 42
0.2469853965716313
 10
-107.5359352804207
 20
-693.0934490204399
 42
-0.2098332621960674
 10
-101.0124559799478
 20
-778.4338356015049
 42
0.08454373205805592
 10
-107.0140267792449
 20
-813.6740217806636
 10
-107.0140219434233
 20
-887.2746074330423
 42
-1.000000064232898
 10
-272.3446924513428
 20
-887.2746074330423
 10
-272.3446873816119
 20
-850.4743531888689
 10
-272.3446834742608
 20
-813.6740413113146
 42
-0.08454373275506617
 10
-266.3431126745654
 20
-778.433854834946
 42
0.2098332621956964
 10
-272.8665919754694
 20
-693.093468254945
 42
-0.2499999999997353
 10
-272.8665919754367
 20
-592.8930674533422
 42
0.1231056256176175
 10
-260.341541875252
 20
-542.792867052587
 10
-260.341541875252
 20
-477.8523952126271
 42
0.1298862254940321
 10
-272.8665919754703
 20
-427.7521948117863
 42
-0.2138411747854952
 10
-278.9034629920152
 20
-341.0487835474706
 42
0.09507227104553019
 10
-273.3885073721167
 20
-307.2277266237361
 10
-273.3885096749764
 20
-280.661327298345
 42
0.4142135593554502
 10
-356.0538422337504
 20
-197.9959866540157
 42
0.4142136007617674
 10
-438.7191755902493
 20
-280.6613219079773
 10
-438.7191755902493
 20
-307.2277274964398
 42
-0.08768941432544784
 10
-445.1636110190411
 20
-343.7058968666678
 42
0.2065019097551506
 10
-438.1972602285696
 20
-427.7521763942786
 42
-0.1231056256175519
 10
-425.6722101283267
 20
-477.8523767950392
 10
-425.6722101283266
 20
-542.7928486349991
 42
-0.1231056256163386
 10
-438.1972602286023
 20
-592.8930490358379
 42
0.2499999999999027
 10
-438.1972602285695
 20
-693.0934498374389
 42
-0.2180131617601899
 10
-431.9568137333081
 20
-779.2305526123527
 42
0.04795469014465781
 10
-436.1832122231461
 20
-794.0075467731441
 10
-454.2025086456123
 20
-877.7942092482971
 42
1.462068606171714
 10
-371.2214213007265
 20
-864.4709698428723
 42
-0.2292380556242236
 10
-377.8107903962717
 20
-781.8059792669737
 42
0.2186641298249094
 10
-383.0870397877206
 20
-693.0934498373571
 42
-0.1231056256175517
 10
-395.6120898879054
 20
-642.9932494366003
 10
-395.6120898878999
 20
-407.7120962339177
 42
-0.08791841873455676
 10
-389.1239108042664
 20
-371.1088853703659
 42
0.246357006357062
 10
-393.2532437266893
 20
-306.1432585307593
 42
-0.5051678661457287
 10
-369.3916997389679
 20
-237.5889874689311
 42
-0.5041496919843328
 10
-310.9616535529239
 20
-280.5193848188865
 42
-0.05504116642343372
 10
-313.4112488838181
 20
-295.6206431434767
 10
-318.5903907840148
 20
-314.2774780343752
 10
-330.3244699649166
 20
-356.5594193907782
 42
0.2002488207954623
 10
-326.1450286567123
 20
-431.3952882696757
 42
-0.1131477040379282
 10
-315.4768132177433
 20
-477.8523470533763
 10
-315.451769246627
 20
-542.7928486349991
 42
-0.1231056568623254
 10
-327.9768193468409
 20
-592.8930490358343
 42
0.2500000327020717
 10
-327.9768193468062
 20
-693.0934498374389
 42
-0.2098332943330045
 10
-321.4533400463333
 20
-778.4338364185041
 42
0.08454376382821413
 10
-327.4549108456304
 20
-813.6740229213591
 10
-327.45490576661
 20
-892.2846356112733
 42
-0.9725073201104225
 10
-492.7855742148822
 20
-887.2746841749249
 10
-492.7855664001799
 20
-813.6740604198163
 42
-0.08454373275506606
 10
-486.7839956004845
 20
-778.4338739434477
 42
0.2098332621956964
 10
-493.3074749013884
 20
-693.0934873634468
 42
-0.2499999999997353
 10
-493.3074749013557
 20
-592.893086561844
 42
0.1231056256176173
 10
-480.782424801171
 20
-542.7928861610853
 10
-480.782424801171
 20
-477.8524143211288
 42
0.1231058561003683
 10
-493.3074749013892
 20
-427.7522139202846
 42
-0.2138411747854954
 10
-499.3443459179343
 20
-341.0488026559723
 42
0.1056902586762925
 10
-493.8293972285172
 20
-307.2277658952335
 10
-493.8293960661338
 20
-280.6613656971385
 42
0.4142135593554502
 10
-576.494728624908
 20
-197.9960250528093
 42
0.4142136007617677
 10
-659.1600619814088
 20
-280.6613603067707
 10
-659.1600619814088
 20
-307.2277658952335
 42
-0.08768941432544784
 10
-665.6044974101987
 20
-343.7059352654614
 42
0.2065019097551507
 10
-658.638146619729
 20
-427.7522147930723
 42
-0.1231056256175518
 10
-646.1130965194861
 20
-477.8524151938325
 10
-646.1130965194861
 20
-542.7928870337892
 42
-0.1231056256163383
 10
-658.6381466197619
 20
-592.8930874346314
 42
0.2499999999999031
 10
-658.638146619729
 20
-693.0934882362327
 42
-0.2180131617601894
 10
-652.3977001244657
 20
-779.2305910111462
 42
0.0479546901446577
 10
-656.6240986143036
 20
-794.0075851719375
 10
-674.6433950367718
 20
-877.7942476470909
 42
1.462068606171713
 10
-591.6623076918841
 20
-864.471008241666
 42
-0.2292380556242239
 10
-598.2516767874311
 20
-781.8060176657672
 42
0.2186641298249094
 10
-603.5279261788801
 20
-693.0934882361507
 42
-0.1231056256175515
 10
-616.0529762790628
 20
-642.9932878353937
 10
-616.0529762790576
 20
-407.7121346327111
 42
-0.08791841873455687
 10
-609.564797195424
 20
-371.1089237691594
 42
0.246357006357062
 10
-613.6941301178485
 20
-306.1432969295529
 42
-0.5051678661457284
 10
-589.8325861301255
 20
-237.5890258677246
 42
-0.5041496919843323
 10
-531.4025399440834
 20
-280.51942321768
 42
-0.05504116642343372
 10
-533.8521352749776
 20
-295.6206815422702
 10
-539.0312771751742
 20
-314.2775164331689
 10
-550.7653563560762
 20
-356.5594577895717
 42
0.2002488207954623
 10
-546.5859150478718
 20
-431.3953266684692
 42
-0.1131477040379282
 10
-535.9176996089009
 20
-477.8523854521663
 10
-535.8926556377846
 20
-542.7928870337892
 42
-0.1231056568623249
 10
-548.4177057379984
 20
-592.8930874346278
 42
0.2500000327020719
 10
-548.4177057379657
 20
-693.0934882362326
 42
-0.2098332943330045
 10
-541.8942264374908
 20
-778.4338748172976
 42
0.08454376382821413
 10
-547.8957972367898
 20
-813.6740613201528
 10
-547.8957921577694
 20
-892.2846740100666
 42
-0.9778685405146471
 10
-713.2264559783952
 20
-887.2746073773377
 10
-713.2264516289424
 20
-813.6740220210231
 42
-0.08454373275506606
 10
-707.224880829247
 20
-778.4338355446544
 42
0.2098332621956964
 10
-713.748360130151
 20
-693.0934489646532
 42
-0.2499999999997353
 10
-713.7483601301182
 20
-592.8930481630503
 42
0.1231056256176173
 10
-701.2233100299336
 20
-542.7928477622916
 10
-701.2233100299337
 20
-477.8523759223353
 42
0.1231056256174574
 10
-713.7483601301519
 20
-427.7521755214912
 42
-0.2138411747854952
 10
-719.7852311466959
 20
-341.0487642571788
 42
0.1194492930107414
 10
-714.270278992044
 20
-307.2277658952335
 10
-714.2702778296608
 20
-280.6613656971385
 42
0.4142135593554502
 10
-796.9356103884347
 20
-197.9960250528093
 42
0.4142136007617677
 10
-879.6009437449356
 20
-280.6613603067708
 10
-879.6009437449356
 20
-307.2277658952335
 42
-0.08768941432544784
 10
-886.0453791737255
 20
-343.7059352654614
 42
0.2065019097551507
 10
-879.0790283832557
 20
-427.7522147930723
 42
-0.1231056256175518
 10
-866.5539782830126
 20
-477.8524151938325
 10
-866.5539782830126
 20
-542.7928870337892
 42
-0.1231056256163388
 10
-879.0790283832885
 20
-592.8930874346316
 42
0.2499999999999027
 10
-879.0790283832556
 20
-693.0934882362326
 42
-0.2180131617601899
 10
-872.8385818879924
 20
-779.2305910111463
 42
0.0479546901446577
 10
-877.0649803778305
 20
-794.0075851719375
 10
-895.0842768002983
 20
-877.7942476470909
 42
1.462068606171714
 10
-812.1031894554108
 20
-864.471008241666
 42
-0.2292380556242236
 10
-818.692558550958
 20
-781.8060176657671
 42
0.2186641298249089
 10
-823.9688079424068
 20
-693.0934882361508
 42
-0.1231056256175519
 10
-836.4938580425896
 20
-642.9932878353937
 10
-836.4938580425841
 20
-407.7121346327111
 42
-0.08791841873455676
 10
-830.0056789589509
 20
-371.1089237691595
 42
0.246357006357062
 10
-834.1350118813752
 20
-306.1432969295529
 42
-0.5051678661457294
 10
-810.2734678936522
 20
-237.5890258677246
 42
-0.5041496919843327
 10
-751.8434217076101
 20
-280.5194232176801
 42
-0.05504116642343349
 10
-754.2930170385042
 20
-295.6206815422702
 10
-759.4721589387009
 20
-314.2775164331689
 10
-771.2062381196027
 20
-356.5594577895717
 42
0.2002488207954623
 10
-767.0267968113984
 20
-431.3953266684692
 42
-0.1131477040379282
 10
-756.3585813724277
 20
-477.8523854521663
 10
-756.3335374013113
 20
-542.7928870337892
 42
-0.1231056568623249
 10
-768.8585875015251
 20
-592.8930874346279
 42
0.2500000327020716
 10
-768.8585875014923
 20
-693.0934882362326
 42
-0.2098332943330045
 10
-762.3351082010176
 20
-778.4338748172976
 42
0.08454376382821424
 10
-768.3366790003166
 20
-813.6740613201528
 10
-768.3366739212961
 20
-892.2846740100666
 42
-0.9710207038588435
 10
-933.6673412071704
 20
-887.2746457761314
 10
-933.6673264619792
 20
-813.6740123758716
 42
-0.08454373275506606
 10
-927.6657556622839
 20
-778.4338258995029
 42
0.2098332621956964
 10
-934.1892349631881
 20
-693.0934393195021
 42
-0.2499999999997353
 10
-934.1892349631551
 20
-592.8930385178992
 42
0.1231056256176173
 10
-921.6641848629706
 20
-542.7928381171405
 10
-921.6641848629707
 20
-477.8523662771839
 42
0.1231052746303908
 10
-934.1892349631892
 20
-427.7521658763434
 42
-0.2138411747854952
 10
-940.2261059797327
 20
-341.0487546120275
 42
0.08099824828228891
 10
-934.7111538250795
 20
-307.2277266237361
 10
-934.7111526626959
 20
-280.6613264256413
 42
0.4142135593554502
 10
-1017.37648522147
 20
-197.9959857813119
 42
0.4142136007617672
 10
-1100.04181857797
 20
-280.6613210352733
 10
-1100.04181857797
 20
-307.2277266237361
 42
-0.08768941432544784
 10
-1106.486254006759
 20
-343.7058959939642
 42
0.2065019097551504
 10
-1099.51990321629
 20
-427.7521755215747
 42
-0.1231056256175517
 10
-1086.994853116047
 20
-477.8523759223353
 10
-1086.994853116047
 20
-542.7928477622916
 42
-0.1231056256163386
 10
-1099.519903216322
 20
-592.8930481631342
 42
0.2499999999999025
 10
-1099.51990321629
 20
-693.0934489647351
 42
-0.2180131617601899
 10
-1093.279456721027
 20
-779.2305517396491
 42
0.0479546901446577
 10
-1097.505855210866
 20
-794.00754590044
 10
-1115.525151633333
 20
-877.7942083755933
 42
1.462068606171712
 10
-1032.544064288446
 20
-864.4709689701682
 42
-0.2292380556242236
 10
-1039.133433383992
 20
-781.8059783942699
 42
0.2186641298249089
 10
-1044.409682775441
 20
-693.0934489646531
 42
-0.1231056256175517
 10
-1056.934732875625
 20
-642.9932485638963
 10
-1056.934732875619
 20
-407.7120953612138
 42
-0.08791841873455687
 10
-1050.446553791986
 20
-371.1088844976621
 42
0.2463570063570625
 10
-1054.575886714408
 20
-306.1432576580555
 42
-0.5051678661457294
 10
-1030.714342726687
 20
-237.5889865962272
 42
-0.5041496919843325
 10
-972.2842965406443
 20
-280.5193839461826
 42
-0.05504116642343394
 10
-974.7338918715382
 20
-295.6206422707729
 10
-979.9130337717352
 20
-314.2774771616714
 10
-991.6471129526371
 20
-356.5594185180743
 42
0.2002488207954622
 10
-987.4676716444325
 20
-431.3952873969756
 42
-0.1131477040379283
 10
-976.7994562054627
 20
-477.8523461806688
 10
-976.7744122343463
 20
-542.7928477622916
 42
-0.1231056568623254
 10
-989.2994623345602
 20
-592.8930481631304
 42
0.2500000327020717
 10
-989.2994623345267
 20
-693.0934489647352
 42
-0.2098332943330045
 10
-982.7759830340528
 20
-778.4338355458003
 42
0.08454376382821413
 10
-988.7775538333507
 20
-813.6740220486553
 10
-988.7775487543304
 20
-892.2846347385691
 42
-0.9999999999999992
 10
-1144.08817507584
 20
-892.284634104797
 10
-1144.088175075836
 20
-88.07458184011554
 42
-0.414213562373089
 10
-1098.997994715114
 20
-42.98440147939619
 10
-149.0981922811916
 20
-42.98440147941072
  0
LWPOLYLINE
  5
D9
100
AcDbEntity
  8
Pannello leonardo
  6
ByLayer
 62
   30
370
   -1
100
AcDbPolyline
 90
    2
 70
    0
 43
0
 10
-39.87975540745539
 20
-1000
 10
-39.87975540745539
 20
-33.06613226452828
  0
LINE
  5
DA
100
AcDbEntity
  8
Pannello leonardo
  6
ByLayer
 62
    8
370
   -1
100
AcDbLine
 10
-103.0060079124669
 20
-120.240480961922
 11
-103.0060079124669
 21
-150.240480961922
  0
LINE
  5
DB
100
AcDbEntity
  8
Pannello leonardo
  6
ByLayer
 62
    8
370
   -1
100
AcDbLine
 10
-103.0060079124669
 20
-180.240480961922
 11
-103.0060079124669
 21
-210.240480961922
  0
LINE
  5
DC
100
AcDbEntity
  8
Pannello leonardo
  6
ByLayer
 62
    8
370
   -1
100
AcDbLine
 10
-103.0060079124659
 20
-240.240480961922
 11
-103.0060079124659
 21
-270.240480961922
  0
LINE
  5
DD
100
AcDbEntity
  8
Pannello leonardo
  6
ByLayer
 62
    8
370
   -1
100
AcDbLine
 10
-103.0060079124659
 20
-300.240480961922
 11
-103.0060079124659
 21
-330.240480961922
  0
LINE
  5
DE
100
AcDbEntity
  8
Pannello leonardo
  6
ByLayer
 62
    8
370
   -1
100
AcDbLine
 10
-103.0060079124659
 20
-360.240480961922
 11
-103.0060079124659
 21
-390.240480961922
  0
LINE
  5
DF
100
AcDbEntity
  8
Pannello leonardo
  6
ByLayer
 62
    8
370
   -1
100
AcDbLine
 10
-103.006007912465
 20
-420.240480961922
 11
-103.006007912465
 21
-450.2404809619218
  0
LINE
  5
E0
100
AcDbEntity
  8
Pannello leonardo
  6
ByLayer
 62
    8
370
   -1
100
AcDbLine
 10
-103.006007912465
 20
-480.2404809619218
 11
-103.006007912465
 21
-510.240480961922
  0
LINE
  5
E1
100
AcDbEntity
  8
Pannello leonardo
  6
ByLayer
 62
    8
370
   -1
100
AcDbLine
 10
-103.006007912465
 20
-540.240480961922
 11
-103.006007912465
 21
-570.240480961922
  0
LINE
  5
E2
100
AcDbEntity
  8
Pannello leonardo
  6
ByLayer
 62
    8
370
   -1
100
AcDbLine
 10
-103.0060079124641
 20
-600.2404809619219
 11
-103.0060079124641
 21
-630.2404809619218
  0
LINE
  5
E3
100
AcDbEntity
  8
Pannello leonardo
  6
ByLayer
 62
    8
370
   -1
100
AcDbLine
 10
-103.0060079124641
 20
-660.240480961922
 11
-103.0060079124641
 21
-690.240480961922
  0
LINE
  5
E4
100
AcDbEntity
  8
Pannello leonardo
  6
ByLayer
 62
    8
370
   -1
100
AcDbLine
 10
-103.0060079124641
 20
-720.240480961922
 11
-103.0060079124641
 21
-750.2404809619219
  0
LINE
  5
E5
100
AcDbEntity
  8
Pannello leonardo
  6
ByLayer
 62
    8
370
   -1
100
AcDbLine
 10
-103.0060079124632
 20
-780.2404809619218
 11
-103.0060079124632
 21
-810.2404809619219
  0
LINE
  5
E6
100
AcDbEntity
  8
Pannello leonardo
  6
ByLayer
 62
    8
370
   -1
100
AcDbLine
 10
-103.0060079124632
 20
-840.240480961922
 11
-103.0060079124632
 21
-870.2404809619221
  0
LINE
  5
E7
100
AcDbEntity
  8
Pannello leonardo
  6
ByLayer
 62
    8
370
   -1
100
AcDbLine
 10
-103.0060079124623
 20
-900.2404809619219
 11
-103.0060079124623
 21
-930.240480961922
  0
LINE
  5
E8
100
AcDbEntity
  8
Pannello leonardo
  6
ByLayer
 62
    8
370
   -1
100
AcDbLine
 10
-103.0060079124623
 20
-960.2404809619219
 11
-103.0060079124623
 21
-990.240480961922
  0
LINE
  5
E9
100
AcDbEntity
  8
Pannello leonardo
  6
ByLayer
 62
    8
370
   -1
100
AcDbLine
 10
-80.96191973610259
 20
-120.240480961922
 11
-80.96191973610259
 21
-150.240480961922
  0
LINE
  5
EA
100
AcDbEntity
  8
Pannello leonardo
  6
ByLayer
 62
    8
370
   -1
100
AcDbLine
 10
-80.96191973610259
 20
-180.240480961922
 11
-80.96191973610259
 21
-210.240480961922
  0
LINE
  5
EB
100
AcDbEntity
  8
Pannello leonardo
  6
ByLayer
 62
    8
370
   -1
100
AcDbLine
 10
-80.96191973610165
 20
-240.240480961922
 11
-80.96191973610165
 21
-270.240480961922
  0
LINE
  5
EC
100
AcDbEntity
  8
Pannello leonardo
  6
ByLayer
 62
    8
370
   -1
100
AcDbLine
 10
-80.96191973610165
 20
-300.240480961922
 11
-80.96191973610165
 21
-330.240480961922
  0
LINE
  5
ED
100
AcDbEntity
  8
Pannello leonardo
  6
ByLayer
 62
    8
370
   -1
100
AcDbLine
 10
-80.96191973610165
 20
-360.240480961922
 11
-80.96191973610165
 21
-390.240480961922
  0
LINE
  5
EE
100
AcDbEntity
  8
Pannello leonardo
  6
ByLayer
 62
    8
370
   -1
100
AcDbLine
 10
-80.96191973610075
 20
-420.240480961922
 11
-80.96191973610075
 21
-450.2404809619218
  0
LINE
  5
EF
100
AcDbEntity
  8
Pannello leonardo
  6
ByLayer
 62
    8
370
   -1
100
AcDbLine
 10
-80.96191973610075
 20
-480.2404809619218
 11
-80.96191973610075
 21
-510.240480961922
  0
LINE
  5
F0
100
AcDbEntity
  8
Pannello leonardo
  6
ByLayer
 62
    8
370
   -1
100
AcDbLine
 10
-80.96191973610075
 20
-540.240480961922
 11
-80.96191973610075
 21
-570.240480961922
  0
LINE
  5
F1
100
AcDbEntity
  8
Pannello leonardo
  6
ByLayer
 62
    8
370
   -1
100
AcDbLine
 10
-80.96191973609984
 20
-600.2404809619219
 11
-80.96191973609984
 21
-630.2404809619218
  0
LINE
  5
F2
100
AcDbEntity
  8
Pannello leonardo
  6
ByLayer
 62
    8
370
   -1
100
AcDbLine
 10
-80.96191973609984
 20
-660.240480961922
 11
-80.96191973609984
 21
-690.240480961922
  0
LINE
  5
F3
100
AcDbEntity
  8
Pannello leonardo
  6
ByLayer
 62
    8
370
   -1
100
AcDbLine
 10
-80.96191973609984
 20
-720.240480961922
 11
-80.96191973609984
 21
-750.2404809619219
  0
LINE
  5
F4
100
AcDbEntity
  8
Pannello leonardo
  6
ByLayer
 62
    8
370
   -1
100
AcDbLine
 10
-80.96191973609893
 20
-780.2404809619218
 11
-80.96191973609893
 21
-810.2404809619219
  0
LINE
  5
F5
100
AcDbEntity
  8
Pannello leonardo
  6
ByLayer
 62
    8
370
   -1
100
AcDbLine
 10
-80.96191973609893
 20
-840.240480961922
 11
-80.96191973609893
 21
-870.2404809619221
  0
LINE
  5
F6
100
AcDbEntity
  8
Pannello leonardo
  6
ByLayer
 62
    8
370
   -1
100
AcDbLine
 10
-80.96191973609803
 20
-900.2404809619219
 11
-80.96191973609803
 21
-930.240480961922
  0
LINE
  5
F7
100
AcDbEntity
  8
Pannello leonardo
  6
ByLayer
 62
    8
370
   -1
100
AcDbLine
 10
-80.96191973609803
 20
-960.2404809619219
 11
-80.96191973609803
 21
-990.240480961922
  0
CIRCLE
  5
F8
100
AcDbEntity
  8
Pannello leonardo
  6
ByLayer
 62
   11
370
   -1
100
AcDbCircle
 10
-149.0981922811916
 20
-42.98440147941072
 40
20
  0
CIRCLE
  5
F9
100
AcDbEntity
  8
Pannello leonardo
  6
ByLayer
 62
  161
370
   -1
100
AcDbCircle
 10
-149.0981922811916
 20
-87.8842624621611
 40
20
  0
CIRCLE
  5
FA
100
AcDbEntity
  8
Pannello leonardo
  6
ByLayer
 62
  256
370
   -1
100
AcDbCircle
 10
-190.201265941766
 20
-1000.000000382133
 40
1.75
  0
CIRCLE
  5
FB
100
AcDbEntity
  8
Pannello leonardo
  6
ByLayer
 62
  256
370
   -1
100
AcDbCircle
 10
-355.5319272643965
 20
-1000.000000382133
 40
1.75
  0
CIRCLE
  5
FC
100
AcDbEntity
  8
Pannello leonardo
  6
ByLayer
 62
  256
370
   -1
100
AcDbCircle
 10
-575.9728090279232
 20
-1000.000000382133
 40
1.75
  0
CIRCLE
  5
FD
100
AcDbEntity
  8
Pannello leonardo
  6
ByLayer
 62
  256
370
   -1
100
AcDbCircle
 10
-796.413690791479
 20
-1000.000000382133
 40
1.75
  0
CIRCLE
  5
FE
100
AcDbEntity
  8
Pannello leonardo
  6
ByLayer
 62
  256
370
   -1
100
AcDbCircle
 10
-1178.657319047967
 20
-1000.000000382133
 40
1.75
  0
CIRCLE
  5
FF
100
AcDbEntity
  8
Pannello leonardo
  6
ByLayer
 62
  256
370
   -1
100
AcDbCircle
 10
-1016.854572555005
 20
-1000.000000382133
 40
1.75
  0
CIRCLE
  5
100
100
AcDbEntity
  8
Pannello leonardo
  6
ByLayer
 62
  256
370
   -1
100
AcDbCircle
 10
-13.82765071130325
 20
-504.0080156499242
 40
1.75
  0
CIRCLE
  5
101
100
AcDbEntity
  8
Pannello leonardo
  6
ByLayer
 62
  256
370
   -1
100
AcDbCircle
 10
-1178.657319047967
 20
-504.0080156499316
 40
1.75
  0
CIRCLE
  5
102
100
AcDbEntity
  8
Pannello leonardo
  6
ByLayer
 62
  256
370
   -1
100
AcDbCircle
 10
-796.413690791479
 20
-504.0080156499316
 40
1.75
  0
CIRCLE
  5
103
100
AcDbEntity
  8
Pannello leonardo
  6
ByLayer
 62
  256
370
   -1
100
AcDbCircle
 10
-575.9728090279232
 20
-504.0080156499316
 40
1.75
  0
CIRCLE
  5
104
100
AcDbEntity
  8
Pannello leonardo
  6
ByLayer
 62
  256
370
   -1
100
AcDbCircle
 10
-355.5319272643965
 20
-504.0080156499316
 40
1.75
  0
CIRCLE
  5
105
100
AcDbEntity
  8
Pannello leonardo
  6
ByLayer
 62
  256
370
   -1
100
AcDbCircle
 10
-190.201265941766
 20
-504.0080156499316
 40
1.75
  0
CIRCLE
  5
106
100
AcDbEntity
  8
Pannello leonardo
  6
ByLayer
 62
  256
370
   -1
100
AcDbCircle
 10
-355.5319272643965
 20
-20.04007977818401
 40
1.75
  0
CIRCLE
  5
107
100
AcDbEntity
  8
Pannello leonardo
  6
ByLayer
 62
  256
370
   -1
100
AcDbCircle
 10
-575.9728090279232
 20
-20.04007977818401
 40
1.75
  0
CIRCLE
  5
108
100
AcDbEntity
  8
Pannello leonardo
  6
ByLayer
 62
  256
370
   -1
100
AcDbCircle
 10
-796.413690791479
 20
-20.04007977819128
 40
1.75
  0
CIRCLE
  5
109
100
AcDbEntity
  8
Pannello leonardo
  6
ByLayer
 62
  256
370
   -1
100
AcDbCircle
 10
-1016.854572555005
 20
-20.04007977819128
 40
1.75
  0
CIRCLE
  5
10A
100
AcDbEntity
  8
Pannello leonardo
  6
ByLayer
 62
  256
370
   -1
100
AcDbCircle
 10
-1178.657319047967
 20
-20.04007977819128
 40
1.75
  0
CIRCLE
  5
10B
100
AcDbEntity
  8
Pannello leonardo
  6
ByLayer
 62
  256
370
   -1
100
AcDbCircle
 10
-1016.854579367485
 20
-504.0080156499316
 40
1.75
  0
CIRCLE
  5
10C
100
AcDbEntity
  8
Pannello leonardo
  6
ByLayer
 62
  256
370
   -1
100
AcDbCircle
 10
-13.82765071130325
 20
-1000.000000382133
 40
1.75
  0
ENDBLK
  5
57
330
55
100
AcDbEntity
  8
0
100
AcDbBlockEnd
  0
BLOCK
  5
59
330
58
100
AcDbEntity
  8
0
100
AcDbBlockBegin
  2
Leo 55_60 idro
 70
    0
 10
0
 20
0
  3
Leo 55_60 idro
  1

  0
LWPOLYLINE
  5
10D
100
AcDbEntity
  8
Pannello leonardo
  6
CONTINUOUS
 62
  256
370
   -1
100
AcDbPolyline
 90
    7
 70
    1
 43
0
 10
-600
 20
0
 10
-600
 20
-1000
 10
0
 20
-1000
 10
0
 20
-120.2404809619165
 10
-194.789577102526
 20
-120.2404809619183
 42
-0.4142135623730951
 10
-199.7995971426062
 20
-115.2304609218408
 10
-199.799597142607
 20
0
  0
LWPOLYLINE
  5
10E
100
AcDbEntity
  8
Pannello leonardo
  6
ByLayer
 62
   93
370
   -1
100
AcDbPolyline
 90
  112
 70
    0
 43
0
 10
-149.6993967418047
 20
-87.8842624621611
 10
-349.1672193382865
 20
-87.88426246216659
 42
0.1083375439123979
 10
-393.7097219738697
 20
-97.65013541221194
 42
-0.2717011718373685
 10
-449.2135520101363
 20
-92.1413326655456
 42
1.895663130150137
 10
-451.4137751638345
 20
-166.5401302605914
 42
-0.1582863129118656
 10
-424.6785617615305
 20
-157.815631262536
 10
-113.6690751427804
 20
-157.815631262536
 42
-0.4142135623730951
 10
-58.5588547018988
 20
-212.9258517034177
 10
-58.55885470189875
 20
-351.6300728514325
 42
-0.08830523542777903
 10
-65.04703035554027
 20
-388.2332837157319
 42
0.2048198551270011
 10
-58.03693934061992
 20
-472.1545217485036
 42
-0.2490738595959219
 10
-58.03693933984602
 20
-572.3549225501118
 42
0.2500000000040925
 10
-58.03693933984593
 20
-672.5553233531607
 42
-0.2117890266392278
 10
-51.78023105160084
 20
-758.6471882039003
 42
0.1139090217459953
 10
-57.99794462582308
 20
-805.6028625846974
 42
-0.02897488702788837
 10
-57.51503059585866
 20
-819.5899437213777
 10
-57.51503059585503
 20
-871.4160731692537
 42
0.1668669495977705
 10
-47.87074201875479
 20
-899.3678264452082
 42
-1.897130574172241
 10
-122.2695397235366
 20
-899.3678266053521
 42
0.1512871448259239
 10
-112.6252512799337
 20
-868.2232375944002
 10
-112.6252512799265
 20
-815.7316149077812
 42
0.02382523088738261
 10
-113.1081651876848
 20
-805.6028613188662
 42
-0.1054847734320229
 10
-108.0742954361994
 20
-761.9885296961038
 42
0.219698282634033
 10
-113.1471597810669
 20
-672.5553233525316
 42
-0.2500000000040925
 10
-113.1471597807276
 20
-572.354922550112
 42
0.2500000000040928
 10
-113.1471597815008
 20
-472.1545217485036
 42
-0.2131978289862259
 10
-119.1840307974271
 20
-385.4564445026771
 42
0.08712353647138933
 10
-113.6690717125393
 20
-351.6300728514325
 10
-113.6690705501469
 20
-280.6613264256503
 42
1.000000030522892
 10
-278.9997410580663
 20
-280.6613210352807
 10
-278.9997364654246
 20
-351.6300746929192
 42
-0.07514539567444889
 10
-285.4441718943535
 20
-388.2332837157319
 42
0.2004639940154257
 10
-278.4778211041457
 20
-472.1545217485036
 42
-0.2500000000040928
 10
-278.4778211041457
 20
-572.3549225515524
 42
0.2500000000040925
 10
-278.4778211033736
 20
-672.5553233531607
 42
-0.2117890266392282
 10
-272.2211128151283
 20
-758.6471882039004
 42
0.1175132502067985
 10
-278.2859629534751
 20
-807.0905881693924
 42
-0.03148325714117038
 10
-277.9559123593817
 20
-816.3058526169333
 10
-277.9559123593808
 20
-830.6480869387597
 42
-0.1512871459264737
 10
-287.6002009365147
 20
-861.7926761446543
 42
1.897130579120527
 10
-213.2014033413671
 20
-861.7926761446543
 42
-0.1668669495977705
 10
-222.8456919184973
 20
-833.8409228687215
 10
-222.8456919185
 20
-815.7316174524167
 42
0.02382523390775734
 10
-223.3286059485536
 20
-805.6028625838098
 42
-0.1139090217459953
 10
-217.1108923742422
 20
-758.6471882039131
 42
0.2117890266392278
 10
-223.367600663265
 20
-672.5553233517057
 42
-0.1231056256196157
 10
-235.8926507630795
 20
-622.4551229516363
 10
-235.8926507630795
 20
-422.0543213484196
 42
-0.08765413332692426
 10
-229.4482119039122
 20
-385.5761519778208
 42
0.1199519239550764
 10
-223.8895160245474
 20
-351.6300728514325
 10
-223.8895160245483
 20
-337.2878468642157
 42
0.1512871459264732
 10
-233.5338046016805
 20
-306.1432576583356
 42
-1.721281171568245
 10
-155.4583695018418
 20
-299.6948183801724
 10
-170.8323679616578
 20
-332.7117730557584
 42
0.2356577234634664
 10
-168.2573802223824
 20
-427.7521755208106
 42
-0.1231056256196158
 10
-155.7323301217966
 20
-477.8523759223316
 10
-155.7323301217957
 20
-522.2547221500279
 42
-0.1231056256196158
 10
-168.2573802216111
 20
-572.3549225501118
 42
0.2500000000040926
 10
-168.2573802223833
 20
-672.5553233517057
 42
-0.2117890266392278
 10
-162.0006719336416
 20
-758.6471882046716
 42
0.1139090186805619
 10
-168.2183856285718
 20
-805.6028613187917
 42
-0.02381055139694978
 10
-167.7354717208109
 20
-815.7316149077812
 10
-167.7354717208154
 20
-887.2746127677091
 42
-1.078756648536373
 10
-333.0661373929006
 20
-887.2746127677091
 42
1.633123935319537e+16
 10
-333.0661373929006
 20
-887.2746127677091
 10
-333.0661330434596
 20
-815.7316149077669
 42
0.02382523088738272
 10
-333.549046951146
 20
-805.602861319554
 42
-0.1054847734320229
 10
-328.5151771996662
 20
-761.9885296958618
 42
0.219698282634033
 10
-333.5880415442552
 20
-672.5553233531607
 42
-0.2500000000040927
 10
-333.5880415450266
 20
-572.3549225515544
 42
0.1231056253758704
 10
-321.0629914444407
 20
-522.2547222471766
 10
-321.0629914444425
 20
-477.8523759223316
 42
0.08819845118566358
 10
-327.5864772520799
 20
-441.1581951223213
 42
-0.0489951992217819
 10
-334.1099630595463
 20
-404.4640074888446
 10
-334.1099523136736
 20
-280.6613210352807
 42
0.9999999999999999
 10
-499.440622821593
 20
-280.6613210352807
 10
-499.4406228215948
 20
-351.6300728514325
 42
-0.09030573087238297
 10
-504.999314108315
 20
-385.5761519778353
 42
0.2130588163210596
 10
-498.9187028676752
 20
-472.1545217485036
 42
-0.2500000000040928
 10
-498.9187028669011
 20
-572.3549225501118
 42
0.2500000000040924
 10
-498.9187028669013
 20
-672.5553233531606
 42
-0.213598684138937
 10
-492.9136496053552
 20
-759.3402006786383
 42
0.1122355053602429
 10
-498.879708030595
 20
-805.6028849510202
 42
-0.02382523088738272
 10
-498.3967941229056
 20
-815.7316385392913
 10
-498.3967941229083
 20
-830.6480869387597
 42
-0.1512871459264734
 10
-508.0410827000886
 20
-861.7926761447161
 42
1.897130579120527
 10
-433.6422851048937
 20
-861.7926761446543
 42
-0.1668669495977705
 10
-443.2865736820247
 20
-833.8409228687215
 10
-443.2865736820214
 20
-818.538204037075
 42
0.006744389190470297
 10
-443.7182654638928
 20
-805.0582724114773
 42
-0.1041709225021999
 10
-438.6337685964027
 20
-761.9885071381613
 42
0.2185893867127533
 10
-443.8084824265414
 20
-672.5553233521766
 42
-0.2500000000040923
 10
-443.8084824260194
 20
-572.354922550112
 42
0.2500000000040928
 10
-443.8084824267908
 20
-472.1545217485036
 42
-0.2061578593255294
 10
-450.8185734417175
 20
-388.2332837157318
 42
0.08869351236118579
 10
-444.3303943578276
 20
-351.6300820546748
 10
-444.3303977880758
 20
-337.2878468642157
 42
0.1512871459264732
 10
-453.9746863652071
 20
-306.1432576583356
 42
-1.897130579120525
 10
-379.5758887700868
 20
-306.1432576583593
 42
0.1668669495977706
 10
-389.2201773471907
 20
-334.0950109343248
 10
-389.2201739169486
 20
-351.6300728514325
 42
-0.0809966052887995
 10
-394.7351330022866
 20
-385.45111048539
 42
0.08792186968531944
 10
-401.2233120857245
 20
-422.0543213484343
 10
-401.2233120857226
 20
-622.4551229516363
 42
0.1231056256196158
 10
-388.6982619859091
 20
-672.5553233517057
 42
-0.2172736762170858
 10
-382.4578277723922
 20
-758.6924359627866
 42
0.1213862185306896
 10
-388.1763534843421
 20
-812.2063559159432
 10
-388.1763491347865
 20
-892.2846328077865
 42
-1.000888034948465
 10
-543.4869769015448
 20
-892.2846328213346
 10
-543.4869747268265
 20
-88.07458184011921
 42
-0.4142135623730951
 10
-498.3967943661073
 20
-42.98440147939253
 10
-149.6993967418047
 20
-42.98440147940708
  0
LWPOLYLINE
  5
10F
100
AcDbEntity
  8
Pannello leonardo
  6
ByLayer
 62
   30
370
   -1
100
AcDbPolyline
 90
    2
 70
    0
 43
0
 10
-40.480959868054
 20
-1000
 10
-40.480959868054
 20
-35.0701402805571
  0
LINE
  5
110
100
AcDbEntity
  8
Pannello leonardo
  6
ByLayer
 62
    8
370
   -1
100
AcDbLine
 10
-103.6072123730791
 20
-120.240480961922
 11
-103.6072123730791
 21
-150.240480961922
  0
LINE
  5
111
100
AcDbEntity
  8
Pannello leonardo
  6
ByLayer
 62
    8
370
   -1
100
AcDbLine
 10
-103.6072123730791
 20
-180.240480961922
 11
-103.6072123730791
 21
-210.240480961922
  0
LINE
  5
112
100
AcDbEntity
  8
Pannello leonardo
  6
ByLayer
 62
    8
370
   -1
100
AcDbLine
 10
-103.6072123730782
 20
-240.240480961922
 11
-103.6072123730782
 21
-270.240480961922
  0
LINE
  5
113
100
AcDbEntity
  8
Pannello leonardo
  6
ByLayer
 62
    8
370
   -1
100
AcDbLine
 10
-103.6072123730782
 20
-300.240480961922
 11
-103.6072123730782
 21
-330.240480961922
  0
LINE
  5
114
100
AcDbEntity
  8
Pannello leonardo
  6
ByLayer
 62
    8
370
   -1
100
AcDbLine
 10
-103.6072123730782
 20
-360.240480961922
 11
-103.6072123730782
 21
-390.240480961922
  0
LINE
  5
115
100
AcDbEntity
  8
Pannello leonardo
  6
ByLayer
 62
    8
370
   -1
100
AcDbLine
 10
-103.6072123730773
 20
-420.240480961922
 11
-103.6072123730773
 21
-450.2404809619218
  0
LINE
  5
116
100
AcDbEntity
  8
Pannello leonardo
  6
ByLayer
 62
    8
370
   -1
100
AcDbLine
 10
-103.6072123730773
 20
-480.2404809619218
 11
-103.6072123730773
 21
-510.240480961922
  0
LINE
  5
117
100
AcDbEntity
  8
Pannello leonardo
  6
ByLayer
 62
    8
370
   -1
100
AcDbLine
 10
-103.6072123730773
 20
-540.240480961922
 11
-103.6072123730773
 21
-570.240480961922
  0
LINE
  5
118
100
AcDbEntity
  8
Pannello leonardo
  6
ByLayer
 62
    8
370
   -1
100
AcDbLine
 10
-103.6072123730764
 20
-600.2404809619219
 11
-103.6072123730764
 21
-630.2404809619218
  0
LINE
  5
119
100
AcDbEntity
  8
Pannello leonardo
  6
ByLayer
 62
    8
370
   -1
100
AcDbLine
 10
-103.6072123730764
 20
-660.240480961922
 11
-103.6072123730764
 21
-690.240480961922
  0
LINE
  5
11A
100
AcDbEntity
  8
Pannello leonardo
  6
ByLayer
 62
    8
370
   -1
100
AcDbLine
 10
-103.6072123730764
 20
-720.240480961922
 11
-103.6072123730764
 21
-750.2404809619219
  0
LINE
  5
11B
100
AcDbEntity
  8
Pannello leonardo
  6
ByLayer
 62
    8
370
   -1
100
AcDbLine
 10
-103.6072123730755
 20
-780.2404809619218
 11
-103.6072123730755
 21
-810.2404809619219
  0
LINE
  5
11C
100
AcDbEntity
  8
Pannello leonardo
  6
ByLayer
 62
    8
370
   -1
100
AcDbLine
 10
-103.6072123730755
 20
-840.240480961922
 11
-103.6072123730755
 21
-870.2404809619221
  0
LINE
  5
11D
100
AcDbEntity
  8
Pannello leonardo
  6
ByLayer
 62
    8
370
   -1
100
AcDbLine
 10
-103.6072123730746
 20
-900.2404809619219
 11
-103.6072123730746
 21
-930.240480961922
  0
LINE
  5
11E
100
AcDbEntity
  8
Pannello leonardo
  6
ByLayer
 62
    8
370
   -1
100
AcDbLine
 10
-103.6072123730746
 20
-960.2404809619219
 11
-103.6072123730746
 21
-990.240480961922
  0
LINE
  5
11F
100
AcDbEntity
  8
Pannello leonardo
  6
ByLayer
 62
    8
370
   -1
100
AcDbLine
 10
-81.56312419671484
 20
-120.240480961922
 11
-81.56312419671484
 21
-150.240480961922
  0
LINE
  5
120
100
AcDbEntity
  8
Pannello leonardo
  6
ByLayer
 62
    8
370
   -1
100
AcDbLine
 10
-81.56312419671484
 20
-180.240480961922
 11
-81.56312419671484
 21
-210.240480961922
  0
LINE
  5
121
100
AcDbEntity
  8
Pannello leonardo
  6
ByLayer
 62
    8
370
   -1
100
AcDbLine
 10
-81.56312419671391
 20
-240.240480961922
 11
-81.56312419671391
 21
-270.240480961922
  0
LINE
  5
122
100
AcDbEntity
  8
Pannello leonardo
  6
ByLayer
 62
    8
370
   -1
100
AcDbLine
 10
-81.56312419671391
 20
-300.240480961922
 11
-81.56312419671391
 21
-330.240480961922
  0
LINE
  5
123
100
AcDbEntity
  8
Pannello leonardo
  6
ByLayer
 62
    8
370
   -1
100
AcDbLine
 10
-81.56312419671391
 20
-360.240480961922
 11
-81.56312419671391
 21
-390.240480961922
  0
LINE
  5
124
100
AcDbEntity
  8
Pannello leonardo
  6
ByLayer
 62
    8
370
   -1
100
AcDbLine
 10
-81.56312419671303
 20
-420.240480961922
 11
-81.56312419671303
 21
-450.2404809619218
  0
LINE
  5
125
100
AcDbEntity
  8
Pannello leonardo
  6
ByLayer
 62
    8
370
   -1
100
AcDbLine
 10
-81.56312419671303
 20
-480.2404809619218
 11
-81.56312419671303
 21
-510.240480961922
  0
LINE
  5
126
100
AcDbEntity
  8
Pannello leonardo
  6
ByLayer
 62
    8
370
   -1
100
AcDbLine
 10
-81.56312419671303
 20
-540.240480961922
 11
-81.56312419671303
 21
-570.240480961922
  0
LINE
  5
127
100
AcDbEntity
  8
Pannello leonardo
  6
ByLayer
 62
    8
370
   -1
100
AcDbLine
 10
-81.56312419671212
 20
-600.2404809619219
 11
-81.56312419671212
 21
-630.2404809619218
  0
LINE
  5
128
100
AcDbEntity
  8
Pannello leonardo
  6
ByLayer
 62
    8
370
   -1
100
AcDbLine
 10
-81.56312419671212
 20
-660.240480961922
 11
-81.56312419671212
 21
-690.240480961922
  0
LINE
  5
129
100
AcDbEntity
  8
Pannello leonardo
  6
ByLayer
 62
    8
370
   -1
100
AcDbLine
 10
-81.56312419671212
 20
-720.240480961922
 11
-81.56312419671212
 21
-750.2404809619219
  0
LINE
  5
12A
100
AcDbEntity
  8
Pannello leonardo
  6
ByLayer
 62
    8
370
   -1
100
AcDbLine
 10
-81.56312419671121
 20
-780.2404809619218
 11
-81.56312419671121
 21
-810.2404809619219
  0
LINE
  5
12B
100
AcDbEntity
  8
Pannello leonardo
  6
ByLayer
 62
    8
370
   -1
100
AcDbLine
 10
-81.56312419671121
 20
-840.240480961922
 11
-81.56312419671121
 21
-870.2404809619221
  0
LINE
  5
12C
100
AcDbEntity
  8
Pannello leonardo
  6
ByLayer
 62
    8
370
   -1
100
AcDbLine
 10
-81.56312419671031
 20
-900.2404809619219
 11
-81.56312419671031
 21
-930.240480961922
  0
LINE
  5
12D
100
AcDbEntity
  8
Pannello leonardo
  6
ByLayer
 62
    8
370
   -1
100
AcDbLine
 10
-81.56312419671031
 20
-960.2404809619219
 11
-81.56312419671031
 21
-990.240480961922
  0
CIRCLE
  5
12E
100
AcDbEntity
  8
Pannello leonardo
  6
ByLayer
 62
   11
370
   -1
100
AcDbCircle
 10
-149.6993967418038
 20
-42.98440147941072
 40
20
  0
CIRCLE
  5
12F
100
AcDbEntity
  8
Pannello leonardo
  6
ByLayer
 62
  161
370
   -1
100
AcDbCircle
 10
-149.6993967418038
 20
-87.8842624621611
 40
20
  0
CIRCLE
  5
130
100
AcDbEntity
  8
0
  6
ByLayer
 62
  256
370
   -1
100
AcDbCircle
 10
-190.8024704023564
 20
-999.9999996178669
 40
1.75
  0
CIRCLE
  5
131
100
AcDbEntity
  8
0
  6
ByLayer
 62
  256
370
   -1
100
AcDbCircle
 10
-14.42885517190098
 20
-999.9999996178669
 40
1.75
  0
CIRCLE
  5
132
100
AcDbEntity
  8
0
  6
ByLayer
 62
  256
370
   -1
100
AcDbCircle
 10
-356.1331317250016
 20
-999.9999996178669
 40
1.75
  0
CIRCLE
  5
133
100
AcDbEntity
  8
0
  6
ByLayer
 62
  256
370
   -1
100
AcDbCircle
 10
-578.0561146909321
 20
-999.9999996178669
 40
1.75
  0
CIRCLE
  5
134
100
AcDbEntity
  8
0
  6
ByLayer
 62
  256
370
   -1
100
AcDbCircle
 10
-356.1331317250016
 20
-20.04007977819128
 40
1.75
  0
CIRCLE
  5
135
100
AcDbEntity
  8
0
  6
ByLayer
 62
  256
370
   -1
100
AcDbCircle
 10
-578.0561146909394
 20
-20.04007977819128
 40
1.75
  0
CIRCLE
  5
136
100
AcDbEntity
  8
0
  6
ByLayer
 62
  256
370
   -1
100
AcDbCircle
 10
-578.0561146909321
 20
-504.0080156499316
 40
1.75
  0
CIRCLE
  5
137
100
AcDbEntity
  8
0
  6
ByLayer
 62
  256
370
   -1
100
AcDbCircle
 10
-361.1431517650863
 20
-504.0080156499316
 40
1.75
  0
CIRCLE
  5
138
100
AcDbEntity
  8
0
  6
ByLayer
 62
  256
370
   -1
100
AcDbCircle
 10
-195.8124904424412
 20
-504.0080156499316
 40
1.75
  0
CIRCLE
  5
139
100
AcDbEntity
  8
0
  6
ByLayer
 62
  256
370
   -1
100
AcDbCircle
 10
-14.42885517190098
 20
-504.0080156499316
 40
1.75
  0
LINE
  5
13A
100
AcDbEntity
  8
0
  6
ByLayer
 62
  256
370
   -1
100
AcDbLine
 10
-578.0561146909394
 20
-17.94007977819273
 11
-578.0561146909394
 21
-22.14007977818983
  0
LINE
  5
13B
100
AcDbEntity
  8
0
  6
ByLayer
 62
  256
370
   -1
100
AcDbLine
 10
-580.156114690938
 20
-20.04007977819128
 11
-575.9561146909336
 21
-20.04007977819128
  0
LINE
  5
13C
100
AcDbEntity
  8
0
  6
ByLayer
 62
  256
370
   -1
100
AcDbLine
 10
-578.0561146909321
 20
-501.908015649933
 11
-578.0561146909321
 21
-506.1080156499301
  0
LINE
  5
13D
100
AcDbEntity
  8
0
  6
ByLayer
 62
  256
370
   -1
100
AcDbLine
 10
-580.1561146909307
 20
-504.0080156499316
 11
-575.9561146909336
 21
-504.0080156499316
  0
LINE
  5
13E
100
AcDbEntity
  8
0
  6
ByLayer
 62
  256
370
   -1
100
AcDbLine
 10
-578.0561146909394
 20
-997.9000000000016
 11
-578.0561146909394
 21
-1002.099999999998
  0
LINE
  5
13F
100
AcDbEntity
  8
0
  6
ByLayer
 62
  256
370
   -1
100
AcDbLine
 10
-580.156114690938
 20
-1000
 11
-575.9561146909336
 21
-1000
  0
LINE
  5
140
100
AcDbEntity
  8
0
  6
ByLayer
 62
  256
370
   -1
100
AcDbLine
 10
-356.1331317250016
 20
-17.94007977819273
 11
-356.1331317250016
 21
-22.14007977818983
  0
LINE
  5
141
100
AcDbEntity
  8
0
  6
ByLayer
 62
  256
370
   -1
100
AcDbLine
 10
-358.233131725
 20
-20.04007977819128
 11
-354.0331317250029
 21
-20.04007977819128
  0
LINE
  5
142
100
AcDbEntity
  8
0
  6
ByLayer
 62
  256
370
   -1
100
AcDbLine
 10
-361.1431517650863
 20
-501.908015649933
 11
-361.1431517650863
 21
-506.1080156499301
  0
LINE
  5
143
100
AcDbEntity
  8
0
  6
ByLayer
 62
  256
370
   -1
100
AcDbLine
 10
-363.2431517650849
 20
-504.0080156499316
 11
-359.0431517650805
 21
-504.0080156499316
  0
LINE
  5
144
100
AcDbEntity
  8
0
  6
ByLayer
 62
  256
370
   -1
100
AcDbLine
 10
-356.1331317250016
 20
-997.8999996178682
 11
-356.1331317250016
 21
-1002.099999617865
  0
LINE
  5
145
100
AcDbEntity
  8
0
  6
ByLayer
 62
  256
370
   -1
100
AcDbLine
 10
-358.2331317250073
 20
-999.9999996178669
 11
-354.0331317250029
 21
-999.9999996178669
  0
LINE
  5
146
100
AcDbEntity
  8
0
  6
ByLayer
 62
  256
370
   -1
100
AcDbLine
 10
-190.8024704023564
 20
-997.8999996178682
 11
-190.8024704023564
 21
-1002.099999617865
  0
LINE
  5
147
100
AcDbEntity
  8
0
  6
ByLayer
 62
  256
370
   -1
100
AcDbLine
 10
-192.902470402355
 20
-999.9999996178669
 11
-188.7024704023579
 21
-999.9999996178669
  0
LINE
  5
148
100
AcDbEntity
  8
0
  6
ByLayer
 62
  256
370
   -1
100
AcDbLine
 10
-14.42885517190098
 20
-997.8999996178682
 11
-14.42885517190098
 21
-1002.099999617865
  0
LINE
  5
149
100
AcDbEntity
  8
0
  6
ByLayer
 62
  256
370
   -1
100
AcDbLine
 10
-16.52885517189952
 20
-999.9999996178669
 11
-12.32885517189515
 21
-999.9999996178669
  0
LINE
  5
14A
100
AcDbEntity
  8
0
  6
ByLayer
 62
  256
370
   -1
100
AcDbLine
 10
-14.42885517190098
 20
-501.908015649933
 11
-14.42885517190098
 21
-506.1080156499301
  0
LINE
  5
14B
100
AcDbEntity
  8
0
  6
ByLayer
 62
  256
370
   -1
100
AcDbLine
 10
-16.52885517189952
 20
-504.0080156499316
 11
-12.32885517189515
 21
-504.0080156499316
  0
LINE
  5
14C
100
AcDbEntity
  8
0
  6
ByLayer
 62
  256
370
   -1
100
AcDbLine
 10
-195.8124904424412
 20
-501.908015649933
 11
-195.8124904424412
 21
-506.1080156499301
  0
LINE
  5
14D
100
AcDbEntity
  8
0
  6
ByLayer
 62
  256
370
   -1
100
AcDbLine
 10
-197.9124904424397
 20
-504.0080156499316
 11
-193.7124904424354
 21
-504.0080156499316
  0
ENDBLK
  5
5A
330
58
100
AcDbEntity
  8
0
100
AcDbBlockEnd
  0
BLOCK
  5
5C
330
5B
100
AcDbEntity
  8
0
100
AcDbBlockBegin
  2
collettore
 70
    0
 10
0
 20
0
  3
collettore
  1

  0
LWPOLYLINE
  5
14E
100
AcDbEntity
  8
Pannello leonardo
  6
ByLayer
 62
    1
370
   -1
100
AcDbPolyline
 90
    4
 70
    1
 43
0
 10
0
 20
0
 10
600
 20
0
 10
600
 20
600
 10
0
 20
600
  0
LWPOLYLINE
  5
14F
100
AcDbEntity
  8
Pannello leonardo
  6
ByLayer
 62
   11
420
15888754
370
   -1
100
AcDbPolyline
 90
    4
 70
    1
 43
0
 10
70
 20
400
 10
530
 20
400
 10
530
 20
315
 10
70
 20
315
  0
LINE
  5
150
100
AcDbEntity
  8
Pannello leonardo
  6
ByLayer
 62
    8
370
   -1
100
AcDbLine
 10
0
 20
600
 11
600
 21
0
  0
LINE
  5
151
100
AcDbEntity
  8
Pannello leonardo
  6
ByLayer
 62
    8
370
   -1
100
AcDbLine
 10
600
 20
600
 11
0
 21
0
  0
LWPOLYLINE
  5
152
100
AcDbEntity
  8
Pannello leonardo
  6
ByLayer
 62
   11
420
15888754
370
   -1
100
AcDbPolyline
 90
    4
 70
    1
 43
0
 10
468.75
 20
395
 10
525
 20
395
 10
525
 20
320
 10
468.75
 20
320
  0
LWPOLYLINE
  5
153
100
AcDbEntity
  8
Pannello leonardo
  6
ByLayer
 62
   11
420
15888754
370
   -1
100
AcDbPolyline
 90
    4
 70
    1
 43
0
 10
412.5
 20
395
 10
468.75
 20
395
 10
468.75
 20
320
 10
412.5
 20
320
  0
LWPOLYLINE
  5
154
100
AcDbEntity
  8
Pannello leonardo
  6
ByLayer
 62
   11
420
15888754
370
   -1
100
AcDbPolyline
 90
    4
 70
    1
 43
0
 10
356.25
 20
395
 10
412.5
 20
395
 10
412.5
 20
320
 10
356.25
 20
320
  0
LWPOLYLINE
  5
155
100
AcDbEntity
  8
Pannello leonardo
  6
ByLayer
 62
   11
420
15888754
370
   -1
100
AcDbPolyline
 90
    4
 70
    1
 43
0
 10
300
 20
395
 10
356.25
 20
395
 10
356.25
 20
320
 10
300
 20
320
  0
LWPOLYLINE
  5
156
100
AcDbEntity
  8
Pannello leonardo
  6
ByLayer
 62
   11
420
15888754
370
   -1
100
AcDbPolyline
 90
    4
 70
    1
 43
0
 10
243.75
 20
395
 10
300
 20
395
 10
300
 20
320
 10
243.75
 20
320
  0
LWPOLYLINE
  5
157
100
AcDbEntity
  8
Pannello leonardo
  6
ByLayer
 62
   11
420
15888754
370
   -1
100
AcDbPolyline
 90
    4
 70
    1
 43
0
 10
187.5
 20
395
 10
243.75
 20
395
 10
243.75
 20
320
 10
187.5
 20
320
  0
LWPOLYLINE
  5
158
100
AcDbEntity
  8
Pannello leonardo
  6
ByLayer
 62
   11
420
15888754
370
   -1
100
AcDbPolyline
 90
    4
 70
    1
 43
0
 10
131.25
 20
395
 10
187.5
 20
395
 10
187.5
 20
320
 10
131.25
 20
320
  0
LWPOLYLINE
  5
159
100
AcDbEntity
  8
Pannello leonardo
  6
ByLayer
 62
   11
420
15888754
370
   -1
100
AcDbPolyline
 90
    4
 70
    1
 43
0
 10
75
 20
395
 10
131.25
 20
395
 10
131.25
 20
320
 10
75
 20
320
  0
LWPOLYLINE
  5
15A
100
AcDbEntity
  8
Pannello leonardo
  6
ByLayer
 62
  161
370
   -1
100
AcDbPolyline
 90
    4
 70
    1
 43
0
 10
70
 20
200
 10
530
 20
200
 10
530
 20
285
 10
70
 20
285
  0
LWPOLYLINE
  5
15B
100
AcDbEntity
  8
Pannello leonardo
  6
ByLayer
 62
  161
370
   -1
100
AcDbPolyline
 90
    4
 70
    1
 43
0
 10
468.75
 20
205
 10
525
 20
205
 10
525
 20
280
 10
468.75
 20
280
  0
LWPOLYLINE
  5
15C
100
AcDbEntity
  8
Pannello leonardo
  6
ByLayer
 62
  161
370
   -1
100
AcDbPolyline
 90
    4
 70
    1
 43
0
 10
412.5
 20
205
 10
468.75
 20
205
 10
468.75
 20
280
 10
412.5
 20
280
  0
LWPOLYLINE
  5
15D
100
AcDbEntity
  8
Pannello leonardo
  6
ByLayer
 62
  161
370
   -1
100
AcDbPolyline
 90
    4
 70
    1
 43
0
 10
356.25
 20
205
 10
412.5
 20
205
 10
412.5
 20
280
 10
356.25
 20
280
  0
LWPOLYLINE
  5
15E
100
AcDbEntity
  8
Pannello leonardo
  6
ByLayer
 62
  161
370
   -1
100
AcDbPolyline
 90
    4
 70
    1
 43
0
 10
300
 20
205
 10
356.25
 20
205
 10
356.25
 20
280
 10
300
 20
280
  0
LWPOLYLINE
  5
15F
100
AcDbEntity
  8
Pannello leonardo
  6
ByLayer
 62
  161
370
   -1
100
AcDbPolyline
 90
    4
 70
    1
 43
0
 10
243.75
 20
205
 10
300
 20
205
 10
300
 20
280
 10
243.75
 20
280
  0
LWPOLYLINE
  5
160
100
AcDbEntity
  8
Pannello leonardo
  6
ByLayer
 62
  161
370
   -1
100
AcDbPolyline
 90
    4
 70
    1
 43
0
 10
187.5
 20
205
 10
243.75
 20
205
 10
243.75
 20
280
 10
187.5
 20
280
  0
LWPOLYLINE
  5
161
100
AcDbEntity
  8
Pannello leonardo
  6
ByLayer
 62
  161
370
   -1
100
AcDbPolyline
 90
    4
 70
    1
 43
0
 10
131.25
 20
205
 10
187.5
 20
205
 10
187.5
 20
280
 10
131.25
 20
280
  0
LWPOLYLINE
  5
162
100
AcDbEntity
  8
Pannello leonardo
  6
ByLayer
 62
  161
370
   -1
100
AcDbPolyline
 90
    4
 70
    1
 43
0
 10
75
 20
205
 10
131.25
 20
205
 10
131.25
 20
280
 10
75
 20
280
  0
ENDBLK
  5
5D
330
5B
100
AcDbEntity
  8
0
100
AcDbBlockEnd
  0
ENDSEC
  0
SECTION
  2
ENTITIES
  0
INSERT
  5
163
100
AcDbEntity
  8
0
  6
ByLayer
 62
    8
370
   -1
100
AcDbBlockReference
  2
Leo 55_120
 10
4785.462775890861
 20
16935.67762448451
 30
0
 41
1
 42
1
 43
0
 50
0
 70
    1
 71
    1
 44
0
 45
0
  0
INSERT
  5
164
100
AcDbEntity
  8
0
  6
ByLayer
 62
    8
370
   -1
100
AcDbBlockReference
  2
leo 55_120 idro
 10
7672.917617523016
 20
16935.67762448451
 30
0
 41
1
 42
1
 43
0
 50
0
 70
    1
 71
    1
 44
0
 45
0
  0
INSERT
  5
165
100
AcDbEntity
  8
0
  6
ByLayer
 62
    8
370
   -1
100
AcDbBlockReference
  2
Leo 55_60
 10
4784.999438667557
 20
15455.71116556058
 30
0
 41
1
 42
1
 43
0
 50
0
 70
    1
 71
    1
 44
0
 45
0
  0
INSERT
  5
166
100
AcDbEntity
  8
0
  6
ByLayer
 62
  256
370
   -1
100
AcDbBlockReference
  2
Leo 55_60 idro
 10
7672.917617523016
 20
15455.71116556058
 30
0
 41
1
 42
1
 43
0
 50
0
 70
    1
 71
    1
 44
0
 45
0
  0
LWPOLYLINE
  5
167
100
AcDbEntity
  8
Pannello leonardo
  6
ByLayer
 62
   11
420
15888754
370
   -1
100
AcDbPolyline
 90
    4
 70
    1
 43
0
 10
4665.225302055871
 20
15441.54090099319
 10
4721.47530205587
 20
15441.54090099319
 10
4721.47530205587
 20
15366.54090099319
 10
4665.225302055871
 20
15366.54090099319
  0
INSERT
  5
168
100
AcDbEntity
  8
Pannello leonardo
  6
ByLayer
 62
    1
370
   -1
100
AcDbBlockReference
  2
collettore
 10
1381.712627484812
 20
14484.26793596066
 30
0
 41
1
 42
1
 43
0
 50
0
 70
    1
 71
    1
 44
0
 45
0
  0
ENDSEC
  0
SECTION
  2
OBJECTS
  0
DICTIONARY
  5
C
330
0
100
AcDbDictionary
281
    1
  3
ACAD_GROUP
350
D
  0
DICTIONARY
  5
D
330
C
100
AcDbDictionary
281
    1
  0
ENDSEC
  0
EOF
