  0
SECTION
  2
HEADER
  9
$ACADVER
  1
AC1032
  9
$ACADMAINTVER
 90
4
  9
$DWGCODEPAGE
  3
ANSI_1252
  9
$LASTSAVEDBY
  1
ezdxf
  9
$REQUIREDVERSIONS
160
0
  9
$INSBASE
 10
0.0
 20
0.0
 30
0.0
  9
$EXTMIN
 10
1e+20
 20
1e+20
 30
1e+20
  9
$EXTMAX
 10
-1e+20
 20
-1e+20
 30
-1e+20
  9
$LIMMIN
 10
0.0
 20
0.0
  9
$LIMMAX
 10
420.0
 20
297.0
  9
$ORTHOMODE
 70
0
  9
$REGENMODE
 70
1
  9
$FILLMODE
 70
1
  9
$QTEXTMODE
 70
0
  9
$MIRRTEXT
 70
1
  9
$LTSCALE
 40
1.0
  9
$ATTMODE
 70
1
  9
$TEXTSIZE
 40
2.5
  9
$TRACEWID
 40
1.0
  9
$TEXTSTYLE
  7
Standard
  9
$CLAYER
  8
0
  9
$CELTYPE
  6
ByLayer
  9
$CECOLOR
 62
256
  9
$CELTSCALE
 40
1.0
  9
$DISPSILH
 70
0
  9
$DIMSCALE
 40
1.0
  9
$DIMASZ
 40
2.5
  9
$DIMEXO
 40
0.625
  9
$DIMDLI
 40
3.75
  9
$DIMRND
 40
0.0
  9
$DIMDLE
 40
0.0
  9
$DIMEXE
 40
1.25
  9
$DIMTP
 40
0.0
  9
$DIMTM
 40
0.0
  9
$DIMTXT
 40
2.5
  9
$DIMCEN
 40
2.5
  9
$DIMTSZ
 40
0.0
  9
$DIMTOL
 70
0
  9
$DIMLIM
 70
0
  9
$DIMTIH
 70
0
  9
$DIMTOH
 70
0
  9
$DIMSE1
 70
0
  9
$DIMSE2
 70
0
  9
$DIMTAD
 70
1
  9
$DIMZIN
 70
8
  9
$DIMBLK
  1

  9
$DIMASO
 70
1
  9
$DIMSHO
 70
1
  9
$DIMPOST
  1

  9
$DIMAPOST
  1

  9
$DIMALT
 70
0
  9
$DIMALTD
 70
3
  9
$DIMALTF
 40
0.03937007874
  9
$DIMLFAC
 40
1.0
  9
$DIMTOFL
 70
1
  9
$DIMTVP
 40
0.0
  9
$DIMTIX
 70
0
  9
$DIMSOXD
 70
0
  9
$DIMSAH
 70
0
  9
$DIMBLK1
  1

  9
$DIMBLK2
  1

  9
$DIMSTYLE
  2
ISO-25
  9
$DIMCLRD
 70
0
  9
$DIMCLRE
 70
0
  9
$DIMCLRT
 70
0
  9
$DIMTFAC
 40
1.0
  9
$DIMGAP
 40
0.625
  9
$DIMJUST
 70
0
  9
$DIMSD1
 70
0
  9
$DIMSD2
 70
0
  9
$DIMTOLJ
 70
0
  9
$DIMTZIN
 70
8
  9
$DIMALTZ
 70
0
  9
$DIMALTTZ
 70
0
  9
$DIMUPT
 70
0
  9
$DIMDEC
 70
2
  9
$DIMTDEC
 70
2
  9
$DIMALTU
 70
2
  9
$DIMALTTD
 70
3
  9
$DIMTXSTY
  7
Standard
  9
$DIMAUNIT
 70
0
  9
$DIMADEC
 70
0
  9
$DIMALTRND
 40
0.0
  9
$DIMAZIN
 70
0
  9
$DIMDSEP
 70
44
  9
$DIMATFIT
 70
3
  9
$DIMFRAC
 70
0
  9
$DIMLDRBLK
  1

  9
$DIMLUNIT
 70
2
  9
$DIMLWD
 70
-2
  9
$DIMLWE
 70
-2
  9
$DIMTMOVE
 70
0
  9
$DIMFXL
 40
1.0
  9
$DIMFXLON
 70
0
  9
$DIMJOGANG
 40
0.785398163397
  9
$DIMTFILL
 70
0
  9
$DIMTFILLCLR
 70
0
  9
$DIMARCSYM
 70
0
  9
$DIMLTYPE
  6

  9
$DIMLTEX1
  6

  9
$DIMLTEX2
  6

  9
$DIMTXTDIRECTION
 70
0
  9
$LUNITS
 70
2
  9
$LUPREC
 70
4
  9
$SKETCHINC
 40
1.0
  9
$FILLETRAD
 40
10.0
  9
$AUNITS
 70
0
  9
$AUPREC
 70
2
  9
$MENU
  1
.
  9
$ELEVATION
 40
0.0
  9
$PELEVATION
 40
0.0
  9
$THICKNESS
 40
0.0
  9
$LIMCHECK
 70
0
  9
$CHAMFERA
 40
0.0
  9
$CHAMFERB
 40
0.0
  9
$CHAMFERC
 40
0.0
  9
$CHAMFERD
 40
0.0
  9
$SKPOLY
 70
0
  9
$TDCREATE
 40
2460263.899837963
  9
$TDUCREATE
 40
2458532.153996898
  9
$TDUPDATE
 40
2460263.899837963
  9
$TDUUPDATE
 40
2458532.1544311
  9
$TDINDWG
 40
0.0
  9
$TDUSRTIMER
 40
0.0
  9
$USRTIMER
 70
1
  9
$ANGBASE
 50
0.0
  9
$ANGDIR
 70
0
  9
$PDMODE
 70
0
  9
$PDSIZE
 40
0.0
  9
$PLINEWID
 40
0.0
  9
$SPLFRAME
 70
0
  9
$SPLINETYPE
 70
6
  9
$SPLINESEGS
 70
8
  9
$HANDSEED
  5
99
  9
$SURFTAB1
 70
6
  9
$SURFTAB2
 70
6
  9
$SURFTYPE
 70
6
  9
$SURFU
 70
6
  9
$SURFV
 70
6
  9
$UCSBASE
  2

  9
$UCSNAME
  2

  9
$UCSORG
 10
0.0
 20
0.0
 30
0.0
  9
$UCSXDIR
 10
1.0
 20
0.0
 30
0.0
  9
$UCSYDIR
 10
0.0
 20
1.0
 30
0.0
  9
$UCSORTHOREF
  2

  9
$UCSORTHOVIEW
 70
0
  9
$UCSORGTOP
 10
0.0
 20
0.0
 30
0.0
  9
$UCSORGBOTTOM
 10
0.0
 20
0.0
 30
0.0
  9
$UCSORGLEFT
 10
0.0
 20
0.0
 30
0.0
  9
$UCSORGRIGHT
 10
0.0
 20
0.0
 30
0.0
  9
$UCSORGFRONT
 10
0.0
 20
0.0
 30
0.0
  9
$UCSORGBACK
 10
0.0
 20
0.0
 30
0.0
  9
$PUCSBASE
  2

  9
$PUCSNAME
  2

  9
$PUCSORG
 10
0.0
 20
0.0
 30
0.0
  9
$PUCSXDIR
 10
1.0
 20
0.0
 30
0.0
  9
$PUCSYDIR
 10
0.0
 20
1.0
 30
0.0
  9
$PUCSORTHOREF
  2

  9
$PUCSORTHOVIEW
 70
0
  9
$PUCSORGTOP
 10
0.0
 20
0.0
 30
0.0
  9
$PUCSORGBOTTOM
 10
0.0
 20
0.0
 30
0.0
  9
$PUCSORGLEFT
 10
0.0
 20
0.0
 30
0.0
  9
$PUCSORGRIGHT
 10
0.0
 20
0.0
 30
0.0
  9
$PUCSORGFRONT
 10
0.0
 20
0.0
 30
0.0
  9
$PUCSORGBACK
 10
0.0
 20
0.0
 30
0.0
  9
$USERI1
 70
0
  9
$USERI2
 70
0
  9
$USERI3
 70
0
  9
$USERI4
 70
0
  9
$USERI5
 70
0
  9
$USERR1
 40
0.0
  9
$USERR2
 40
0.0
  9
$USERR3
 40
0.0
  9
$USERR4
 40
0.0
  9
$USERR5
 40
0.0
  9
$WORLDVIEW
 70
1
  9
$SHADEDGE
 70
3
  9
$SHADEDIF
 70
70
  9
$TILEMODE
 70
1
  9
$MAXACTVP
 70
64
  9
$PINSBASE
 10
0.0
 20
0.0
 30
0.0
  9
$PLIMCHECK
 70
0
  9
$PEXTMIN
 10
1e+20
 20
1e+20
 30
1e+20
  9
$PEXTMAX
 10
-1e+20
 20
-1e+20
 30
-1e+20
  9
$PLIMMIN
 10
0.0
 20
0.0
  9
$PLIMMAX
 10
420.0
 20
297.0
  9
$UNITMODE
 70
0
  9
$VISRETAIN
 70
1
  9
$PLINEGEN
 70
0
  9
$PSLTSCALE
 70
1
  9
$TREEDEPTH
 70
3020
  9
$CMLSTYLE
  2
Standard
  9
$CMLJUST
 70
0
  9
$CMLSCALE
 40
20.0
  9
$PROXYGRAPHICS
 70
1
  9
$MEASUREMENT
 70
1
  9
$CELWEIGHT
370
-1
  9
$ENDCAPS
280
0
  9
$JOINSTYLE
280
0
  9
$LWDISPLAY
290
0
  9
$INSUNITS
 70
6
  9
$HYPERLINKBASE
  1

  9
$STYLESHEET
  1

  9
$XEDIT
290
1
  9
$CEPSNTYPE
380
0
  9
$PSTYLEMODE
290
1
  9
$FINGERPRINTGUID
  2
{8D73C727-11C0-4A22-9672-FACB0844BC3F}
  9
$VERSIONGUID
  2
{656857C3-3625-4044-A168-473969C3DA1C}
  9
$EXTNAMES
290
1
  9
$PSVPSCALE
 40
0.0
  9
$OLESTARTUP
290
0
  9
$SORTENTS
280
127
  9
$INDEXCTL
280
0
  9
$HIDETEXT
280
1
  9
$XCLIPFRAME
280
0
  9
$HALOGAP
280
0
  9
$OBSCOLOR
 70
257
  9
$OBSLTYPE
280
0
  9
$INTERSECTIONDISPLAY
280
0
  9
$INTERSECTIONCOLOR
 70
257
  9
$DIMASSOC
280
2
  9
$PROJECTNAME
  1

  9
$CAMERADISPLAY
290
0
  9
$LENSLENGTH
 40
50.0
  9
$CAMERAHEIGHT
 40
0.0
  9
$STEPSPERSEC
 40
24.0
  9
$STEPSIZE
 40
100.0
  9
$3DDWFPREC
 40
2.0
  9
$PSOLWIDTH
 40
0.005
  9
$PSOLHEIGHT
 40
0.08
  9
$LOFTANG1
 40
1.570796326795
  9
$LOFTANG2
 40
1.570796326795
  9
$LOFTMAG1
 40
0.0
  9
$LOFTMAG2
 40
0.0
  9
$LOFTPARAM
 70
7
  9
$LOFTNORMALS
280
1
  9
$LATITUDE
 40
37.795
  9
$LONGITUDE
 40
-122.394
  9
$NORTHDIRECTION
 40
0.0
  9
$TIMEZONE
 70
-8000
  9
$LIGHTGLYPHDISPLAY
280
1
  9
$TILEMODELIGHTSYNCH
280
1
  9
$CMATERIAL
347
20
  9
$SOLIDHIST
280
0
  9
$SHOWHIST
280
1
  9
$DWFFRAME
280
2
  9
$DGNFRAME
280
2
  9
$REALWORLDSCALE
290
1
  9
$INTERFERECOLOR
 62
256
  9
$CSHADOW
280
0
  9
$SHADOWPLANELOCATION
 40
0.0
  0
ENDSEC
  0
SECTION
  2
CLASSES
  0
CLASS
  1
ACDBDICTIONARYWDFLT
  2
AcDbDictionaryWithDefault
  3
ObjectDBX Classes
 90
0
 91
0
280
0
281
0
  0
CLASS
  1
SUN
  2
AcDbSun
  3
SCENEOE
 90
1153
 91
0
280
0
281
0
  0
CLASS
  1
VISUALSTYLE
  2
AcDbVisualStyle
  3
ObjectDBX Classes
 90
4095
 91
0
280
0
281
0
  0
CLASS
  1
MATERIAL
  2
AcDbMaterial
  3
ObjectDBX Classes
 90
1153
 91
0
280
0
281
0
  0
CLASS
  1
SCALE
  2
AcDbScale
  3
ObjectDBX Classes
 90
1153
 91
0
280
0
281
0
  0
CLASS
  1
TABLESTYLE
  2
AcDbTableStyle
  3
ObjectDBX Classes
 90
4095
 91
0
280
0
281
0
  0
CLASS
  1
MLEADERSTYLE
  2
AcDbMLeaderStyle
  3
ACDB_MLEADERSTYLE_CLASS
 90
4095
 91
0
280
0
281
0
  0
CLASS
  1
DICTIONARYVAR
  2
AcDbDictionaryVar
  3
ObjectDBX Classes
 90
0
 91
0
280
0
281
0
  0
CLASS
  1
CELLSTYLEMAP
  2
AcDbCellStyleMap
  3
ObjectDBX Classes
 90
1152
 91
0
280
0
281
0
  0
CLASS
  1
MENTALRAYRENDERSETTINGS
  2
AcDbMentalRayRenderSettings
  3
SCENEOE
 90
1024
 91
0
280
0
281
0
  0
CLASS
  1
ACDBDETAILVIEWSTYLE
  2
AcDbDetailViewStyle
  3
ObjectDBX Classes
 90
1025
 91
0
280
0
281
0
  0
CLASS
  1
ACDBSECTIONVIEWSTYLE
  2
AcDbSectionViewStyle
  3
ObjectDBX Classes
 90
1025
 91
0
280
0
281
0
  0
CLASS
  1
RASTERVARIABLES
  2
AcDbRasterVariables
  3
ISM
 90
0
 91
0
280
0
281
0
  0
CLASS
  1
LAYOUT
  2
AcDbLayout
  3
ObjectDBX Classes
 90
0
 91
0
280
0
281
0
  0
CLASS
  1
ACDBPLACEHOLDER
  2
AcDbPlaceHolder
  3
ObjectDBX Classes
 90
0
 91
0
280
0
281
0
  0
ENDSEC
  0
SECTION
  2
TABLES
  0
TABLE
  2
VPORT
  5
8
330
0
100
AcDbSymbolTable
 70
1
  0
VPORT
  5
23
330
8
100
AcDbSymbolTableRecord
100
AcDbViewportTableRecord
  2
*Active
 70
0
 10
0.0
 20
0.0
 11
1.0
 21
1.0
 12
0.0
 22
0.0
 13
0.0
 23
0.0
 14
0.5
 24
0.5
 15
0.5
 25
0.5
 16
0.0
 26
0.0
 36
1.0
 17
0.0
 27
0.0
 37
0.0
 40
1000.0
 41
1.34
 42
50.0
 43
0.0
 44
0.0
 50
0.0
 51
0.0
 71
0
 72
1000
 73
1
 74
3
 75
0
 76
0
 77
0
 78
0
281
0
 65
0
146
0.0
  0
ENDTAB
  0
TABLE
  2
LTYPE
  5
2
330
0
100
AcDbSymbolTable
 70
3
  0
LTYPE
  5
24
330
2
100
AcDbSymbolTableRecord
100
AcDbLinetypeTableRecord
  2
ByBlock
 70
0
  3

 72
65
 73
0
 40
0.0
  0
LTYPE
  5
25
330
2
100
AcDbSymbolTableRecord
100
AcDbLinetypeTableRecord
  2
ByLayer
 70
0
  3

 72
65
 73
0
 40
0.0
  0
LTYPE
  5
26
330
2
100
AcDbSymbolTableRecord
100
AcDbLinetypeTableRecord
  2
Continuous
 70
0
  3

 72
65
 73
0
 40
0.0
  0
ENDTAB
  0
TABLE
  2
LAYER
  5
1
330
0
100
AcDbSymbolTable
 70
3
  0
LAYER
  5
27
330
1
100
AcDbSymbolTableRecord
100
AcDbLayerTableRecord
  2
0
 70
0
 62
7
  6
Continuous
370
-3
390
13
347
21
  0
LAYER
  5
28
330
1
100
AcDbSymbolTableRecord
100
AcDbLayerTableRecord
  2
Defpoints
 70
0
 62
7
  6
Continuous
290
0
370
-3
390
13
347
21
  0
LAYER
  5
95
330
1
100
AcDbSymbolTableRecord
100
AcDbLayerTableRecord
  2
AREE LEONARDO
 70
0
 62
6
  6
CONTINUOUS
370
-3
390
F
347
2000F
  0
ENDTAB
  0
TABLE
  2
STYLE
  5
5
330
0
100
AcDbSymbolTable
 70
1
  0
STYLE
  5
29
330
5
100
AcDbSymbolTableRecord
100
AcDbTextStyleTableRecord
  2
Standard
 70
0
 40
0.0
 41
1.0
 50
0.0
 71
0
 42
2.5
  3
txt
  4

  0
ENDTAB
  0
TABLE
  2
VIEW
  5
7
330
0
100
AcDbSymbolTable
 70
0
  0
ENDTAB
  0
TABLE
  2
UCS
  5
6
330
0
100
AcDbSymbolTable
 70
0
  0
ENDTAB
  0
TABLE
  2
APPID
  5
3
330
0
100
AcDbSymbolTable
 70
3
  0
APPID
  5
2A
330
3
100
AcDbSymbolTableRecord
100
AcDbRegAppTableRecord
  2
ACAD
 70
0
  0
APPID
  5
96
330
3
100
AcDbSymbolTableRecord
100
AcDbRegAppTableRecord
  2
HATCHBACKGROUNDCOLOR
 70
0
  0
APPID
  5
97
330
3
100
AcDbSymbolTableRecord
100
AcDbRegAppTableRecord
  2
EZDXF
 70
0
  0
ENDTAB
  0
TABLE
  2
DIMSTYLE
  5
4
330
0
100
AcDbSymbolTable
 70
1
100
AcDbDimStyleTable
  0
DIMSTYLE
105
2B
330
4
100
AcDbSymbolTableRecord
100
AcDbDimStyleTableRecord
  2
Standard
 70
0
 40
1.0
 41
2.5
 42
0.625
 43
3.75
 44
1.25
 45
0.0
 46
0.0
 47
0.0
 48
0.0
 49
2.5
140
2.5
141
2.5
142
0.0
143
0.03937007874
144
1.0
145
0.0
146
1.0
147
0.625
148
0.0
 69
0
 70
0
 71
0
 72
0
 73
0
 74
0
 75
0
 76
0
 77
1
 78
8
 79
3
170
0
171
3
172
1
173
0
174
0
175
0
176
0
177
0
178
0
179
2
271
2
272
2
273
2
274
3
275
0
276
0
277
2
278
44
279
0
280
0
281
0
282
0
283
0
284
8
285
0
286
0
288
0
289
3
290
0
371
-2
372
-2
  0
ENDTAB
  0
TABLE
  2
BLOCK_RECORD
  5
9
330
0
100
AcDbSymbolTable
 70
2
  0
BLOCK_RECORD
  5
17
330
9
100
AcDbSymbolTableRecord
100
AcDbBlockTableRecord
  2
*Model_Space
340
1A
 70
0
280
1
281
0
  0
BLOCK_RECORD
  5
1B
330
9
100
AcDbSymbolTableRecord
100
AcDbBlockTableRecord
  2
*Paper_Space
340
1E
 70
0
280
1
281
0
  0
ENDTAB
  0
ENDSEC
  0
SECTION
  2
BLOCKS
  0
BLOCK
  5
18
330
17
100
AcDbEntity
  8
0
100
AcDbBlockBegin
  2
*Model_Space
 70
0
 10
0.0
 20
0.0
 30
0.0
  3
*Model_Space
  1

  0
ENDBLK
  5
19
330
17
100
AcDbEntity
  8
0
100
AcDbBlockEnd
  0
BLOCK
  5
1C
330
1B
100
AcDbEntity
  8
0
100
AcDbBlockBegin
  2
*Paper_Space
 70
0
 10
0.0
 20
0.0
 30
0.0
  3
*Paper_Space
  1

  0
ENDBLK
  5
1D
330
1B
100
AcDbEntity
  8
0
100
AcDbBlockEnd
  0
ENDSEC
  0
SECTION
  2
ENTITIES
  0
LWPOLYLINE
  5
2F
330
17
100
AcDbEntity
  8
AREE LEONARDO
  6
ByLayer
 62
1
100
AcDbPolyline
 90
4
 70
1
 10
2869.048795520673
 20
1561.719216704872
 10
2869.648795520672
 20
1561.719216704872
 10
2869.648795520672
 20
1561.119216704872
 10
2869.048795520673
 20
1561.119216704872
  0
LWPOLYLINE
  5
30
330
17
100
AcDbEntity
  8
AREE LEONARDO
  6
ByLayer
 62
1
100
AcDbPolyline
 90
4
 70
1
 10
2871.387190180423
 20
1558.728458781208
 10
2871.987190180422
 20
1558.728458781208
 10
2871.987190180422
 20
1558.128458781208
 10
2871.387190180423
 20
1558.128458781208
  0
LWPOLYLINE
  5
31
330
17
100
AcDbEntity
  8
AREE LEONARDO
  6
ByLayer
 62
1
100
AcDbPolyline
 90
4
 70
1
 10
2882.720656313107
 20
1562.148032101241
 10
2883.320656313107
 20
1562.148032101241
 10
2883.320656313107
 20
1561.548032101241
 10
2882.720656313107
 20
1561.548032101241
  0
LWPOLYLINE
  5
32
330
17
100
AcDbEntity
  8
AREE LEONARDO
  6
ByLayer
 62
1
100
AcDbPolyline
 90
4
 70
1
 10
2875.901986033703
 20
1571.010194821142
 10
2876.501986033703
 20
1571.010194821142
 10
2876.501986033703
 20
1570.410194821142
 10
2875.901986033703
 20
1570.410194821142
  0
LWPOLYLINE
  5
33
330
17
100
AcDbEntity
  8
AREE LEONARDO
  6
ByLayer
 62
1
100
AcDbPolyline
 90
4
 70
1
 10
2873.042364865024
 20
1570.265252030183
 10
2873.642364865024
 20
1570.265252030183
 10
2873.642364865024
 20
1569.665252030184
 10
2873.042364865024
 20
1569.665252030184
  0
LWPOLYLINE
  5
34
330
17
100
AcDbEntity
  8
AREE LEONARDO
  6
ByLayer
 62
5
100
AcDbPolyline
 90
10
 70
1
 10
2869.838577477823
 20
1576.42757869516
 10
2873.688551218957
 20
1576.427576105252
 10
2873.688564378631
 20
1572.689521301008
 10
2872.793262025023
 20
1572.689521317665
 10
2872.793262033885
 20
1573.280875609806
 10
2869.868578427939
 20
1573.280792471085
 10
2869.874394882094
 20
1573.625280188374
 10
2869.786184090319
 20
1573.625280188374
 10
2869.786184090319
 20
1576.377578695114
 10
2869.838577477823
 20
1576.377578695114
  0
LWPOLYLINE
  5
35
330
17
100
AcDbEntity
  8
AREE LEONARDO
  6
ByLayer
 62
5
100
AcDbPolyline
 90
6
 70
1
 10
2875.188867242897
 20
1576.297578695115
 10
2874.838577347303
 20
1576.297578695115
 10
2874.838577347303
 20
1576.427578695158
 10
2873.789128685674
 20
1576.427575898779
 10
2873.78914138408
 20
1573.505249683802
 10
2875.183751915823
 20
1573.505253944895
  0
LWPOLYLINE
  5
36
330
17
100
AcDbEntity
  8
AREE LEONARDO
  6
ByLayer
 62
5
100
AcDbPolyline
 90
6
 70
1
 10
2874.958578250711
 20
1573.405249683748
 10
2873.789128685677
 20
1573.405249683748
 10
2873.790812584692
 20
1570.786050645842
 10
2874.967149927723
 20
1570.786806920285
 10
2874.967149927723
 20
1572.947939653824
 10
2874.958578250711
 20
1572.947939653824
  0
LWPOLYLINE
  5
37
330
17
100
AcDbEntity
  8
AREE LEONARDO
  6
ByLayer
 62
5
100
AcDbPolyline
 90
6
 70
1
 10
2876.688527469482
 20
1573.126647863167
 10
2876.008586798585
 20
1573.12662846312
 10
2876.00857823749
 20
1572.947939653824
 10
2875.186278780099
 20
1572.947939653824
 10
2875.186278780099
 20
1570.286627283205
 10
2876.688526735039
 20
1570.286627283205
  0
LWPOLYLINE
  5
38
330
17
100
AcDbEntity
  8
AREE LEONARDO
  6
ByLayer
 62
5
100
AcDbPolyline
 90
10
 70
1
 10
2876.788526844708
 20
1572.926879521272
 10
2877.460507276648
 20
1572.926960585906
 10
2877.460507349302
 20
1573.126730719043
 10
2880.088702730501
 20
1573.126730719043
 10
2880.088702730501
 20
1572.946736175205
 10
2880.688501437072
 20
1572.946736175205
 10
2880.688501437083
 20
1569.626067870316
 10
2880.558601236493
 20
1569.626067870316
 10
2880.558594072566
 20
1564.329927936085
 10
2876.788527935246
 20
1564.329927936085
  0
LWPOLYLINE
  5
39
330
17
100
AcDbEntity
  8
AREE LEONARDO
  6
ByLayer
 62
5
100
AcDbPolyline
 90
6
 70
1
 10
2881.068703948667
 20
1569.163186383368
 10
2883.696425190724
 20
1569.163180329371
 10
2883.696426963297
 20
1565.898277752783
 10
2880.658594072569
 20
1565.898277752783
 10
2880.658594072569
 20
1568.526067870316
 10
2881.068703948667
 20
1568.526067870316
  0
LWPOLYLINE
  5
3A
330
17
100
AcDbEntity
  8
AREE LEONARDO
  6
ByLayer
 62
5
100
AcDbPolyline
 90
6
 70
1
 10
2884.708605992409
 20
1569.163180329371
 10
2883.796425190727
 20
1569.16318024582
 10
2883.796425529223
 20
1565.898277278449
 10
2884.988280794276
 20
1565.898277351023
 10
2884.988280794276
 20
1567.779952086854
 10
2884.708605992409
 20
1567.779952086854
  0
LWPOLYLINE
  5
3B
330
17
100
AcDbEntity
  8
AREE LEONARDO
  6
ByLayer
 62
5
100
AcDbPolyline
 90
8
 70
1
 10
2888.438602126683
 20
1568.190158867879
 10
2885.21860724822
 20
1568.190158867879
 10
2885.218540782411
 20
1564.329925583638
 10
2888.708579646542
 20
1564.329865491867
 10
2888.708579646542
 20
1564.478119528334
 10
2888.78812376948
 20
1564.478119528334
 10
2888.78812376948
 20
1567.998119819755
 10
2888.438602126683
 20
1567.998119819755
  0
LWPOLYLINE
  5
3C
330
17
100
AcDbEntity
  8
AREE LEONARDO
  6
ByLayer
 62
5
100
AcDbPolyline
 90
8
 70
1
 10
2888.708579646542
 20
1564.129804374899
 10
2885.238526694649
 20
1564.129864122551
 10
2885.238526694653
 20
1563.678564745669
 10
2884.688260359818
 20
1563.678564745669
 10
2884.688260359817
 20
1561.160853557212
 10
2888.788123769153
 20
1561.16085355721
 10
2888.78812376948
 20
1563.428119819859
 10
2888.708579646542
 20
1563.428119819859
  0
LWPOLYLINE
  5
3D
330
17
100
AcDbEntity
  8
AREE LEONARDO
  6
ByLayer
 62
5
100
AcDbPolyline
 90
8
 70
1
 10
2888.788123769153
 20
1561.06085355721
 10
2884.696435967314
 20
1561.060853557212
 10
2884.696435967314
 20
1558.706067870269
 10
2885.388588558717
 20
1558.706067870269
 10
2885.389040355359
 20
1558.580738919305
 10
2888.608550934585
 20
1558.578199850188
 10
2888.608550934585
 20
1558.826047550739
 10
2888.788119812567
 20
1558.826047550739
  0
LWPOLYLINE
  5
3E
330
17
100
AcDbEntity
  8
AREE LEONARDO
  6
ByLayer
 62
5
100
AcDbPolyline
 90
6
 70
1
 10
2884.587407385801
 20
1560.210902087894
 10
2882.596435967642
 20
1560.210902087894
 10
2882.596435967642
 20
1559.666945053028
 10
2881.574172764381
 20
1559.666945053028
 10
2881.574172764377
 20
1558.577582853302
 10
2884.587588558717
 20
1558.577582853302
  0
LWPOLYLINE
  5
3F
330
17
100
AcDbEntity
  8
AREE LEONARDO
  6
ByLayer
 62
5
100
AcDbPolyline
 90
16
 70
1
 10
2882.49643596764
 20
1559.766945053028
 10
2881.366070818027
 20
1559.766945053028
 10
2881.366070818027
 20
1559.906522742345
 10
2880.858550934585
 20
1559.906522742345
 10
2880.858550934585
 20
1559.766945053026
 10
2876.888551824772
 20
1559.766945053026
 10
2876.888551824772
 20
1559.835011887855
 10
2876.608092590839
 20
1559.835012622478
 10
2876.608094676352
 20
1560.631204818441
 10
2876.788514884966
 20
1560.631203802925
 10
2876.788541591466
 20
1564.129927936084
 10
2880.638601236494
 20
1564.129927936084
 10
2880.638601236494
 20
1563.929630674303
 10
2881.238450330764
 20
1563.929630674303
 10
2881.238450330764
 20
1564.129927936084
 10
2882.49643596764
 20
1564.129927936084
  0
LWPOLYLINE
  5
40
330
17
100
AcDbEntity
  8
AREE LEONARDO
  6
ByLayer
 62
5
100
AcDbPolyline
 90
6
 70
1
 10
2884.587407385801
 20
1560.310902087894
 10
2884.587407382496
 20
1562.324304231092
 10
2882.596712782657
 20
1562.324304228645
 10
2882.596712782657
 20
1561.31579101779
 10
2883.687407385803
 20
1561.31579101779
 10
2883.687407385803
 20
1560.310902087894
  0
LWPOLYLINE
  5
41
330
17
100
AcDbEntity
  8
AREE LEONARDO
  6
ByLayer
 62
5
100
AcDbPolyline
 90
4
 70
1
 10
2884.588301372941
 20
1564.129927878968
 10
2882.596727308873
 20
1564.129927878968
 10
2882.596727308873
 20
1562.424304228645
 10
2884.588532667547
 20
1562.424304228645
  0
LWPOLYLINE
  5
42
330
17
100
AcDbEntity
  8
AREE LEONARDO
  6
ByLayer
 62
5
100
AcDbPolyline
 90
4
 70
1
 10
2880.658594072569
 20
1565.798277351023
 10
2884.988280781613
 20
1565.798043207712
 10
2884.988280794268
 20
1564.329927809296
 10
2880.658594072569
 20
1564.329927809296
  0
LWPOLYLINE
  5
43
330
17
100
AcDbEntity
  8
AREE LEONARDO
  6
ByLayer
 62
6
100
AcDbPolyline
 90
4
 70
1
 10
2872.793262023164
 20
1572.589521317663
 10
2873.688564521779
 20
1572.58952130101
 10
2873.689625817589
 20
1569.518415807169
 10
2872.791684883841
 20
1569.520708424704
  0
LWPOLYLINE
  5
44
330
17
100
AcDbEntity
  8
AREE LEONARDO
  6
ByLayer
 62
5
100
AcDbPolyline
 90
6
 70
1
 10
2869.788023316081
 20
1570.138551112943
 10
2869.78671935967
 20
1572.726765737583
 10
2869.874394882094
 20
1572.726792932293
 10
2869.874384755966
 20
1573.180812739615
 10
2872.693262007344
 20
1573.180875609805
 10
2872.69278170013
 20
1570.13830603319
  0
LWPOLYLINE
  5
45
330
17
100
AcDbEntity
  8
AREE LEONARDO
  6
ByLayer
 62
5
100
AcDbPolyline
 90
18
 70
1
 10
2872.691679089994
 20
1570.038315983518
 10
2869.989362934926
 20
1570.038034163666
 10
2869.989362934926
 20
1569.438758419794
 10
2869.924314596834
 20
1569.438758419794
 10
2869.924314596834
 20
1568.626067870314
 10
2869.788716669618
 20
1568.626067870314
 10
2869.795146804173
 20
1564.877588466513
 10
2870.535572416896
 20
1564.878858591224
 10
2870.535572416896
 20
1564.958122665255
 10
2871.515573801649
 20
1564.958122665255
 10
2871.515573801649
 20
1564.879922991545
 10
2873.388578000655
 20
1564.879922991545
 10
2873.388577477822
 20
1566.479633519746
 10
2875.088404121401
 20
1566.478721413498
 10
2875.089192764026
 20
1567.449211591483
 10
2874.96729784772
 20
1567.449310646094
 10
2874.967316418161
 20
1569.418351626779
 10
2872.691679089994
 20
1569.418351626779
  0
LWPOLYLINE
  5
46
330
17
100
AcDbEntity
  8
AREE LEONARDO
  6
ByLayer
 62
5
100
AcDbPolyline
 90
16
 70
1
 10
2876.288471077076
 20
1559.209596914512
 10
2875.208528458073
 20
1559.20959696442
 10
2875.208528458073
 20
1560.631206309919
 10
2872.208766402162
 20
1560.631206309919
 10
2872.208766402162
 20
1558.998097612655
 10
2872.158766402162
 20
1558.998097612655
 10
2872.158766402162
 20
1558.198097612656
 10
2873.138551824771
 20
1558.198097612656
 10
2873.138551824771
 20
1557.738097612657
 10
2872.938563843794
 20
1557.738096727556
 10
2872.938577707776
 20
1554.605538042617
 10
2873.138551824771
 20
1554.605538042617
 10
2873.138551824771
 20
1554.52707050197
 10
2876.208550934583
 20
1554.526970183886
 10
2876.208550934583
 20
1554.823514834223
 10
2876.28846392239
 20
1554.823514834223
  0
LWPOLYLINE
  5
47
330
17
100
AcDbEntity
  8
AREE LEONARDO
  6
ByLayer
 62
5
100
AcDbPolyline
 90
10
 70
1
 10
2872.838563843792
 20
1557.734865800348
 10
2872.238551824775
 20
1557.738097612657
 10
2872.238551824775
 20
1557.810258520969
 10
2869.098858992803
 20
1557.807599716698
 10
2869.089619817737
 20
1554.60352269792
 10
2869.432647843188
 20
1554.60352269792
 10
2869.432647843188
 20
1554.52707050197
 10
2872.288551824773
 20
1554.52707050197
 10
2872.288551824773
 20
1554.605538042617
 10
2872.838577707201
 20
1554.605540479319
  0
LWPOLYLINE
  5
48
330
17
100
AcDbEntity
  8
AREE LEONARDO
  6
ByLayer
 62
5
100
AcDbPolyline
 90
6
 70
1
 10
2869.0988589928
 20
1560.631206309919
 10
2869.108843208234
 20
1557.907599716696
 10
2871.208765415036
 20
1557.909655679811
 10
2871.208765415036
 20
1558.955582594044
 10
2870.698858992803
 20
1558.955582594044
 10
2870.698858992803
 20
1560.631206309919
  0
LWPOLYLINE
  5
49
330
17
100
AcDbEntity
  8
AREE LEONARDO
  6
ByLayer
 62
5
100
AcDbPolyline
 90
10
 70
1
 10
2867.088727609525
 20
1555.331765841101
 10
2867.088727609525
 20
1553.669608467106
 10
2867.423550934576
 20
1553.669608467106
 10
2867.423550934576
 20
1553.419608467146
 10
2868.789446031742
 20
1553.419608467146
 10
2868.789446031742
 20
1554.14598143675
 10
2868.644920790165
 20
1554.14598143675
 10
2868.644920790165
 20
1554.60352269792
 10
2869.00884449512
 20
1554.60352269792
 10
2869.00884449512
 20
1555.331774098196
  0
LWPOLYLINE
  5
4A
330
17
100
AcDbEntity
  8
AREE LEONARDO
  6
ByLayer
 62
5
100
AcDbPolyline
 90
8
 70
1
 10
2866.913550934574
 20
1553.419632446988
 10
2863.218551824773
 20
1553.419575635331
 10
2863.218551824773
 20
1553.618097612656
 10
2863.08886479571
 20
1553.618108441787
 10
2863.098787154236
 20
1556.581774098196
 10
2866.988727609527
 20
1556.581765841101
 10
2866.988727609527
 20
1553.669608467106
 10
2866.913550934578
 20
1553.669608467106
  0
LWPOLYLINE
  5
4B
330
17
100
AcDbEntity
  8
AREE LEONARDO
  6
ByLayer
 62
5
100
AcDbPolyline
 90
18
 70
1
 10
2868.998851535785
 20
1556.681774098197
 10
2863.168551824774
 20
1556.681774098197
 10
2863.168551824774
 20
1557.518097612656
 10
2863.088853237524
 20
1557.518077680351
 10
2863.088843208892
 20
1560.368097612656
 10
2863.168551824774
 20
1560.368097612656
 10
2863.168551824774
 20
1560.492492226451
 10
2863.604375314013
 20
1560.492492226451
 10
2863.604375314013
 20
1560.679997387277
 10
2866.688551824774
 20
1560.679997387277
 10
2866.688551824774
 20
1560.528097612656
 10
2867.488551824775
 20
1560.528097612656
 10
2867.488551824775
 20
1561.038097612656
 10
2867.238720728617
 20
1561.038097612656
 10
2867.238720728617
 20
1561.879989133556
 10
2869.838049558204
 20
1561.879989133556
 10
2869.838049558204
 20
1560.83120630992
 10
2868.998859158442
 20
1560.83120630992
  0
LWPOLYLINE
  5
4C
330
17
100
AcDbEntity
  8
AREE LEONARDO
  6
ByLayer
 62
5
100
AcDbPolyline
 90
4
 70
1
 10
2867.088727609525
 20
1556.581765841101
 10
2868.99904353614
 20
1556.581765841101
 10
2868.99904353614
 20
1555.431774098197
 10
2867.088727609525
 20
1555.431774098197
  0
LWPOLYLINE
  5
4D
330
17
100
AcDbEntity
  8
AREE LEONARDO
  6
ByLayer
 62
4
100
AcDbPolyline
 90
4
 70
1
 10
2874.276573388176
 20
1574.829068634872
 10
2874.429376685972
 20
1574.829068634872
 10
2874.429376685972
 20
1574.676265337077
 10
2874.276573388176
 20
1574.676265337077
  0
LWPOLYLINE
  5
4E
330
17
100
AcDbEntity
  8
AREE LEONARDO
  6
ByLayer
 62
4
100
AcDbPolyline
 90
4
 70
1
 10
2871.245429545383
 20
1571.86253484543
 10
2871.398232843178
 20
1571.86253484543
 10
2871.398232843178
 20
1571.709731547636
 10
2871.245429545383
 20
1571.709731547636
  0
LWPOLYLINE
  5
4F
330
17
100
AcDbEntity
  8
AREE LEONARDO
  6
ByLayer
 62
4
100
AcDbPolyline
 90
4
 70
1
 10
2873.172406568207
 20
1572.395171778656
 10
2873.325209866003
 20
1572.395171778656
 10
2873.325209866003
 20
1572.242368480861
 10
2873.172406568207
 20
1572.242368480861
  0
LWPOLYLINE
  5
50
330
17
100
AcDbEntity
  8
AREE LEONARDO
  6
ByLayer
 62
4
100
AcDbPolyline
 90
4
 70
1
 10
2873.172406568208
 20
1571.618124073029
 10
2873.325209866003
 20
1571.618124073029
 10
2873.325209866003
 20
1571.465320775234
 10
2873.172406568208
 20
1571.465320775234
  0
LWPOLYLINE
  5
51
330
17
100
AcDbEntity
  8
AREE LEONARDO
  6
ByLayer
 62
4
100
AcDbPolyline
 90
4
 70
1
 10
2873.172406568207
 20
1570.784809738384
 10
2873.325209866003
 20
1570.784809738384
 10
2873.325209866003
 20
1570.632006440589
 10
2873.172406568207
 20
1570.632006440589
  0
LWPOLYLINE
  5
52
330
17
100
AcDbEntity
  8
AREE LEONARDO
  6
ByLayer
 62
4
100
AcDbPolyline
 90
4
 70
1
 10
2872.578472659263
 20
1569.135762820057
 10
2872.731275957058
 20
1569.135762820057
 10
2872.731275957058
 20
1568.982959522262
 10
2872.578472659263
 20
1568.982959522262
  0
LWPOLYLINE
  5
53
330
17
100
AcDbEntity
  8
AREE LEONARDO
  6
ByLayer
 62
4
100
AcDbPolyline
 90
4
 70
1
 10
2872.378476181096
 20
1569.134575924414
 10
2872.531279478891
 20
1569.134575924414
 10
2872.531279478891
 20
1568.981772626619
 10
2872.378476181096
 20
1568.981772626619
  0
LWPOLYLINE
  5
54
330
17
100
AcDbEntity
  8
AREE LEONARDO
  6
ByLayer
 62
4
100
AcDbPolyline
 90
4
 70
1
 10
2870.462546386794
 20
1569.135762820057
 10
2870.61534968459
 20
1569.135762820057
 10
2870.61534968459
 20
1568.982959522262
 10
2870.462546386794
 20
1568.982959522262
  0
LWPOLYLINE
  5
55
330
17
100
AcDbEntity
  8
AREE LEONARDO
  6
ByLayer
 62
4
100
AcDbPolyline
 90
4
 70
1
 10
2870.262549908625
 20
1569.134575924414
 10
2870.415353206421
 20
1569.134575924414
 10
2870.415353206421
 20
1568.981772626619
 10
2870.262549908625
 20
1568.981772626619
  0
LWPOLYLINE
  5
56
330
17
100
AcDbEntity
  8
AREE LEONARDO
  6
ByLayer
 62
4
100
AcDbPolyline
 90
4
 70
1
 10
2870.262549908628
 20
1567.416004077277
 10
2870.415353206423
 20
1567.416004077277
 10
2870.415353206423
 20
1567.263200779482
 10
2870.262549908628
 20
1567.263200779482
  0
LWPOLYLINE
  5
57
330
17
100
AcDbEntity
  8
AREE LEONARDO
  6
ByLayer
 62
4
100
AcDbPolyline
 90
4
 70
1
 10
2870.462546386794
 20
1567.417190972919
 10
2870.61534968459
 20
1567.417190972919
 10
2870.61534968459
 20
1567.264387675124
 10
2870.462546386794
 20
1567.264387675124
  0
LWPOLYLINE
  5
58
330
17
100
AcDbEntity
  8
AREE LEONARDO
  6
ByLayer
 62
4
100
AcDbPolyline
 90
4
 70
1
 10
2872.378476181094
 20
1567.416004077277
 10
2872.531279478889
 20
1567.416004077277
 10
2872.531279478889
 20
1567.263200779482
 10
2872.378476181094
 20
1567.263200779482
  0
LWPOLYLINE
  5
59
330
17
100
AcDbEntity
  8
AREE LEONARDO
  6
ByLayer
 62
4
100
AcDbPolyline
 90
4
 70
1
 10
2872.578472659263
 20
1567.417190972919
 10
2872.731275957058
 20
1567.417190972919
 10
2872.731275957058
 20
1567.264387675124
 10
2872.578472659263
 20
1567.264387675124
  0
LWPOLYLINE
  5
5A
330
17
100
AcDbEntity
  8
AREE LEONARDO
  6
ByLayer
 62
4
100
AcDbPolyline
 90
4
 70
1
 10
2872.578472659263
 20
1565.712207115226
 10
2872.731275957058
 20
1565.712207115226
 10
2872.731275957058
 20
1565.559403817431
 10
2872.578472659263
 20
1565.559403817431
  0
LWPOLYLINE
  5
5B
330
17
100
AcDbEntity
  8
AREE LEONARDO
  6
ByLayer
 62
4
100
AcDbPolyline
 90
4
 70
1
 10
2872.378476181096
 20
1565.711020219583
 10
2872.531279478891
 20
1565.711020219583
 10
2872.531279478891
 20
1565.558216921789
 10
2872.378476181096
 20
1565.558216921789
  0
LWPOLYLINE
  5
5C
330
17
100
AcDbEntity
  8
AREE LEONARDO
  6
ByLayer
 62
4
100
AcDbPolyline
 90
4
 70
1
 10
2870.262549908625
 20
1565.711020219583
 10
2870.415353206421
 20
1565.711020219583
 10
2870.415353206421
 20
1565.558216921789
 10
2870.262549908625
 20
1565.558216921789
  0
LWPOLYLINE
  5
5D
330
17
100
AcDbEntity
  8
AREE LEONARDO
  6
ByLayer
 62
4
100
AcDbPolyline
 90
4
 70
1
 10
2870.462546386794
 20
1565.712207115226
 10
2870.61534968459
 20
1565.712207115226
 10
2870.61534968459
 20
1565.559403817431
 10
2870.462546386794
 20
1565.559403817431
  0
LWPOLYLINE
  5
5E
330
17
100
AcDbEntity
  8
AREE LEONARDO
  6
ByLayer
 62
4
100
AcDbPolyline
 90
4
 70
1
 10
2876.054940942159
 20
1571.544419240344
 10
2876.207744239954
 20
1571.544419240344
 10
2876.207744239954
 20
1571.391615942549
 10
2876.054940942159
 20
1571.391615942549
  0
LWPOLYLINE
  5
5F
330
17
100
AcDbEntity
  8
AREE LEONARDO
  6
ByLayer
 62
4
100
AcDbPolyline
 90
4
 70
1
 10
2878.974050821919
 20
1571.415703922125
 10
2879.126854119714
 20
1571.415703922125
 10
2879.126854119714
 20
1571.26290062433
 10
2878.974050821919
 20
1571.26290062433
  0
LWPOLYLINE
  5
60
330
17
100
AcDbEntity
  8
AREE LEONARDO
  6
ByLayer
 62
4
100
AcDbPolyline
 90
4
 70
1
 10
2879.274347667248
 20
1569.635127411181
 10
2879.427150965043
 20
1569.635127411181
 10
2879.427150965043
 20
1569.482324113386
 10
2879.274347667248
 20
1569.482324113386
  0
LWPOLYLINE
  5
61
330
17
100
AcDbEntity
  8
AREE LEONARDO
  6
ByLayer
 62
4
100
AcDbPolyline
 90
4
 70
1
 10
2879.275534562891
 20
1569.435130933014
 10
2879.428337860688
 20
1569.435130933014
 10
2879.428337860688
 20
1569.282327635219
 10
2879.275534562891
 20
1569.282327635219
  0
LWPOLYLINE
  5
62
330
17
100
AcDbEntity
  8
AREE LEONARDO
  6
ByLayer
 62
4
100
AcDbPolyline
 90
4
 70
1
 10
2877.826323836244
 20
1569.635127411182
 10
2877.979127134038
 20
1569.635127411182
 10
2877.979127134038
 20
1569.482324113387
 10
2877.826323836244
 20
1569.482324113387
  0
LWPOLYLINE
  5
63
330
17
100
AcDbEntity
  8
AREE LEONARDO
  6
ByLayer
 62
4
100
AcDbPolyline
 90
4
 70
1
 10
2877.827510731885
 20
1569.435130933015
 10
2877.980314029679
 20
1569.435130933015
 10
2877.980314029679
 20
1569.28232763522
 10
2877.827510731885
 20
1569.28232763522
  0
LWPOLYLINE
  5
64
330
17
100
AcDbEntity
  8
AREE LEONARDO
  6
ByLayer
 62
4
100
AcDbPolyline
 90
4
 70
1
 10
2877.816406467684
 20
1567.455682523419
 10
2877.969209765478
 20
1567.455682523419
 10
2877.969209765478
 20
1567.302879225624
 10
2877.816406467684
 20
1567.302879225624
  0
LWPOLYLINE
  5
65
330
17
100
AcDbEntity
  8
AREE LEONARDO
  6
ByLayer
 62
4
100
AcDbPolyline
 90
4
 70
1
 10
2877.817593363325
 20
1567.255686045252
 10
2877.97039666112
 20
1567.255686045252
 10
2877.97039666112
 20
1567.102882747457
 10
2877.817593363325
 20
1567.102882747457
  0
LWPOLYLINE
  5
66
330
17
100
AcDbEntity
  8
AREE LEONARDO
  6
ByLayer
 62
4
100
AcDbPolyline
 90
4
 70
1
 10
2879.26443029869
 20
1567.455682523418
 10
2879.417233596484
 20
1567.455682523418
 10
2879.417233596484
 20
1567.302879225622
 10
2879.26443029869
 20
1567.302879225622
  0
LWPOLYLINE
  5
67
330
17
100
AcDbEntity
  8
AREE LEONARDO
  6
ByLayer
 62
4
100
AcDbPolyline
 90
4
 70
1
 10
2879.265617194332
 20
1567.255686045251
 10
2879.418420492127
 20
1567.255686045251
 10
2879.418420492127
 20
1567.102882747456
 10
2879.265617194332
 20
1567.102882747456
  0
LWPOLYLINE
  5
68
330
17
100
AcDbEntity
  8
AREE LEONARDO
  6
ByLayer
 62
4
100
AcDbPolyline
 90
4
 70
1
 10
2879.274347667249
 20
1565.436994544267
 10
2879.427150965044
 20
1565.436994544267
 10
2879.427150965044
 20
1565.284191246472
 10
2879.274347667249
 20
1565.284191246472
  0
LWPOLYLINE
  5
69
330
17
100
AcDbEntity
  8
AREE LEONARDO
  6
ByLayer
 62
4
100
AcDbPolyline
 90
4
 70
1
 10
2879.275534562891
 20
1565.2369980661
 10
2879.428337860688
 20
1565.2369980661
 10
2879.428337860688
 20
1565.084194768306
 10
2879.275534562891
 20
1565.084194768306
  0
LWPOLYLINE
  5
6A
330
17
100
AcDbEntity
  8
AREE LEONARDO
  6
ByLayer
 62
4
100
AcDbPolyline
 90
4
 70
1
 10
2877.826323836244
 20
1565.436994544269
 10
2877.979127134038
 20
1565.436994544269
 10
2877.979127134038
 20
1565.284191246474
 10
2877.826323836244
 20
1565.284191246474
  0
LWPOLYLINE
  5
6B
330
17
100
AcDbEntity
  8
AREE LEONARDO
  6
ByLayer
 62
4
100
AcDbPolyline
 90
4
 70
1
 10
2877.827510731885
 20
1565.236998066101
 10
2877.980314029679
 20
1565.236998066101
 10
2877.980314029679
 20
1565.084194768306
 10
2877.827510731885
 20
1565.084194768306
  0
LWPOLYLINE
  5
6C
330
17
100
AcDbEntity
  8
AREE LEONARDO
  6
ByLayer
 62
4
100
AcDbPolyline
 90
4
 70
1
 10
2882.051890602897
 20
1567.853180143405
 10
2882.204693900693
 20
1567.853180143405
 10
2882.204693900693
 20
1567.700376845611
 10
2882.051890602897
 20
1567.700376845611
  0
LWPOLYLINE
  5
6D
330
17
100
AcDbEntity
  8
AREE LEONARDO
  6
ByLayer
 62
4
100
AcDbPolyline
 90
4
 70
1
 10
2882.12823525319
 20
1565.399868648703
 10
2882.281038550985
 20
1565.399868648703
 10
2882.281038550985
 20
1565.247065350908
 10
2882.12823525319
 20
1565.247065350908
  0
LWPOLYLINE
  5
6E
330
17
100
AcDbEntity
  8
AREE LEONARDO
  6
ByLayer
 62
4
100
AcDbPolyline
 90
4
 70
1
 10
2883.159235075151
 20
1565.399868648703
 10
2883.312038372945
 20
1565.399868648703
 10
2883.312038372945
 20
1565.247065350908
 10
2883.159235075151
 20
1565.247065350908
  0
LWPOLYLINE
  5
6F
330
17
100
AcDbEntity
  8
AREE LEONARDO
  6
ByLayer
 62
4
100
AcDbPolyline
 90
4
 70
1
 10
2885.998594643214
 20
1567.906241044781
 10
2886.151397941009
 20
1567.906241044781
 10
2886.151397941009
 20
1567.753437746986
 10
2885.998594643214
 20
1567.753437746986
  0
LWPOLYLINE
  5
70
330
17
100
AcDbEntity
  8
AREE LEONARDO
  6
ByLayer
 62
4
100
AcDbPolyline
 90
4
 70
1
 10
2885.999781538858
 20
1567.706244566616
 10
2886.152584836652
 20
1567.706244566616
 10
2886.152584836652
 20
1567.553441268821
 10
2885.999781538858
 20
1567.553441268821
  0
LWPOLYLINE
  5
71
330
17
100
AcDbEntity
  8
AREE LEONARDO
  6
ByLayer
 62
4
100
AcDbPolyline
 90
4
 70
1
 10
2884.209689617166
 20
1567.312439926993
 10
2884.362492914961
 20
1567.312439926993
 10
2884.362492914961
 20
1567.159636629198
 10
2884.209689617166
 20
1567.159636629198
  0
LWPOLYLINE
  5
72
330
17
100
AcDbEntity
  8
AREE LEONARDO
  6
ByLayer
 62
4
100
AcDbPolyline
 90
4
 70
1
 10
2885.998594643215
 20
1566.71760078609
 10
2886.15139794101
 20
1566.71760078609
 10
2886.15139794101
 20
1566.564797488296
 10
2885.998594643215
 20
1566.564797488296
  0
LWPOLYLINE
  5
73
330
17
100
AcDbEntity
  8
AREE LEONARDO
  6
ByLayer
 62
4
100
AcDbPolyline
 90
4
 70
1
 10
2885.999781538858
 20
1566.517604307924
 10
2886.152584836652
 20
1566.517604307924
 10
2886.152584836652
 20
1566.36480101013
 10
2885.999781538858
 20
1566.36480101013
  0
LWPOLYLINE
  5
74
330
17
100
AcDbEntity
  8
AREE LEONARDO
  6
ByLayer
 62
4
100
AcDbPolyline
 90
4
 70
1
 10
2885.998594643215
 20
1565.543227916316
 10
2886.15139794101
 20
1565.543227916316
 10
2886.15139794101
 20
1565.390424618521
 10
2885.998594643215
 20
1565.390424618521
  0
LWPOLYLINE
  5
75
330
17
100
AcDbEntity
  8
AREE LEONARDO
  6
ByLayer
 62
4
100
AcDbPolyline
 90
4
 70
1
 10
2885.999781538858
 20
1565.34323143815
 10
2886.152584836652
 20
1565.34323143815
 10
2886.152584836652
 20
1565.190428140355
 10
2885.999781538858
 20
1565.190428140355
  0
LWPOLYLINE
  5
76
330
17
100
AcDbEntity
  8
AREE LEONARDO
  6
ByLayer
 62
4
100
AcDbPolyline
 90
4
 70
1
 10
2884.190234897114
 20
1565.399868648703
 10
2884.34303819491
 20
1565.399868648703
 10
2884.34303819491
 20
1565.247065350908
 10
2884.190234897114
 20
1565.247065350908
  0
LWPOLYLINE
  5
77
330
17
100
AcDbEntity
  8
AREE LEONARDO
  6
ByLayer
 62
4
100
AcDbPolyline
 90
4
 70
1
 10
2882.34188226368
 20
1565.497293736121
 10
2883.09788226368
 20
1565.497293736121
 10
2883.09788226368
 20
1564.694293736121
 10
2882.34188226368
 20
1564.694293736121
  0
LWPOLYLINE
  5
78
330
17
100
AcDbEntity
  8
AREE LEONARDO
  6
ByLayer
 62
4
100
AcDbPolyline
 90
4
 70
1
 10
2883.866848491257
 20
1563.418925078052
 10
2884.019651789052
 20
1563.418925078052
 10
2884.019651789052
 20
1563.266121780258
 10
2883.866848491257
 20
1563.266121780258
  0
LWPOLYLINE
  5
79
330
17
100
AcDbEntity
  8
AREE LEONARDO
  6
ByLayer
 62
4
100
AcDbPolyline
 90
4
 70
1
 10
2883.421018964162
 20
1561.919432258761
 10
2883.573822261956
 20
1561.919432258761
 10
2883.573822261956
 20
1561.766628960966
 10
2883.421018964162
 20
1561.766628960966
  0
LWPOLYLINE
  5
7A
330
17
100
AcDbEntity
  8
AREE LEONARDO
  6
ByLayer
 62
4
100
AcDbPolyline
 90
4
 70
1
 10
2883.62101544233
 20
1561.920619154403
 10
2883.773818740124
 20
1561.920619154403
 10
2883.773818740124
 20
1561.767815856608
 10
2883.62101544233
 20
1561.767815856608
  0
LWPOLYLINE
  5
7B
330
17
100
AcDbEntity
  8
AREE LEONARDO
  6
ByLayer
 62
4
100
AcDbPolyline
 90
4
 70
1
 10
2881.087134787112
 20
1561.270372095761
 10
2881.239938084908
 20
1561.270372095761
 10
2881.239938084908
 20
1561.117568797967
 10
2881.087134787112
 20
1561.117568797967
  0
LWPOLYLINE
  5
7C
330
17
100
AcDbEntity
  8
AREE LEONARDO
  6
ByLayer
 62
4
100
AcDbPolyline
 90
4
 70
1
 10
2880.887138308946
 20
1561.269185200119
 10
2881.039941606741
 20
1561.269185200119
 10
2881.039941606741
 20
1561.116381902324
 10
2880.887138308946
 20
1561.116381902324
  0
LWPOLYLINE
  5
7D
330
17
100
AcDbEntity
  8
AREE LEONARDO
  6
ByLayer
 62
4
100
AcDbPolyline
 90
4
 70
1
 10
2881.087134787112
 20
1563.380957438454
 10
2881.239938084908
 20
1563.380957438454
 10
2881.239938084908
 20
1563.228154140659
 10
2881.087134787112
 20
1563.228154140659
  0
LWPOLYLINE
  5
7E
330
17
100
AcDbEntity
  8
AREE LEONARDO
  6
ByLayer
 62
4
100
AcDbPolyline
 90
4
 70
1
 10
2880.887138308946
 20
1563.379770542811
 10
2881.039941606741
 20
1563.379770542811
 10
2881.039941606741
 20
1563.226967245016
 10
2880.887138308946
 20
1563.226967245016
  0
LWPOLYLINE
  5
7F
330
17
100
AcDbEntity
  8
AREE LEONARDO
  6
ByLayer
 62
4
100
AcDbPolyline
 90
4
 70
1
 10
2879.521094243825
 20
1563.380957438454
 10
2879.673897541621
 20
1563.380957438454
 10
2879.673897541621
 20
1563.228154140659
 10
2879.521094243825
 20
1563.228154140659
  0
LWPOLYLINE
  5
80
330
17
100
AcDbEntity
  8
AREE LEONARDO
  6
ByLayer
 62
4
100
AcDbPolyline
 90
4
 70
1
 10
2879.321097765659
 20
1563.379770542811
 10
2879.473901063454
 20
1563.379770542811
 10
2879.473901063454
 20
1563.226967245016
 10
2879.321097765659
 20
1563.226967245016
  0
LWPOLYLINE
  5
81
330
17
100
AcDbEntity
  8
AREE LEONARDO
  6
ByLayer
 62
4
100
AcDbPolyline
 90
4
 70
1
 10
2879.521094243825
 20
1561.270372095761
 10
2879.673897541621
 20
1561.270372095761
 10
2879.673897541621
 20
1561.117568797967
 10
2879.521094243825
 20
1561.117568797967
  0
LWPOLYLINE
  5
82
330
17
100
AcDbEntity
  8
AREE LEONARDO
  6
ByLayer
 62
4
100
AcDbPolyline
 90
4
 70
1
 10
2879.321097765658
 20
1561.269185200119
 10
2879.473901063453
 20
1561.269185200119
 10
2879.473901063453
 20
1561.116381902324
 10
2879.321097765658
 20
1561.116381902324
  0
LWPOLYLINE
  5
83
330
17
100
AcDbEntity
  8
AREE LEONARDO
  6
ByLayer
 62
4
100
AcDbPolyline
 90
4
 70
1
 10
2883.97661949436
 20
1559.348334021188
 10
2884.129422792156
 20
1559.348334021188
 10
2884.129422792156
 20
1559.195530723393
 10
2883.97661949436
 20
1559.195530723393
  0
LWPOLYLINE
  5
84
330
17
100
AcDbEntity
  8
AREE LEONARDO
  6
ByLayer
 62
4
100
AcDbPolyline
 90
4
 70
1
 10
2874.247069210113
 20
1572.300529089495
 10
2874.399872507908
 20
1572.300529089495
 10
2874.399872507908
 20
1572.1477257917
 10
2874.247069210113
 20
1572.1477257917
  0
LWPOLYLINE
  5
85
330
17
100
AcDbEntity
  8
AREE LEONARDO
  6
ByLayer
 62
4
100
AcDbPolyline
 90
4
 70
1
 10
2878.086340851032
 20
1563.380957438454
 10
2878.239144148827
 20
1563.380957438454
 10
2878.239144148827
 20
1563.228154140659
 10
2878.086340851032
 20
1563.228154140659
  0
LWPOLYLINE
  5
86
330
17
100
AcDbEntity
  8
AREE LEONARDO
  6
ByLayer
 62
4
100
AcDbPolyline
 90
4
 70
1
 10
2877.886344372864
 20
1563.379770542811
 10
2878.039147670659
 20
1563.379770542811
 10
2878.039147670659
 20
1563.226967245016
 10
2877.886344372864
 20
1563.226967245016
  0
LWPOLYLINE
  5
87
330
17
100
AcDbEntity
  8
AREE LEONARDO
  6
ByLayer
 62
4
100
AcDbPolyline
 90
4
 70
1
 10
2874.332482502681
 20
1557.695508391123
 10
2874.485285800476
 20
1557.695508391123
 10
2874.485285800476
 20
1557.542705093329
 10
2874.332482502681
 20
1557.542705093329
  0
LWPOLYLINE
  5
88
330
17
100
AcDbEntity
  8
AREE LEONARDO
  6
ByLayer
 62
4
100
AcDbPolyline
 90
4
 70
1
 10
2874.333669398324
 20
1557.495511912956
 10
2874.486472696119
 20
1557.495511912956
 10
2874.486472696119
 20
1557.342708615163
 10
2874.333669398324
 20
1557.342708615163
  0
LWPOLYLINE
  5
89
330
17
100
AcDbEntity
  8
AREE LEONARDO
  6
ByLayer
 62
4
100
AcDbPolyline
 90
4
 70
1
 10
2874.332482502682
 20
1556.506868132433
 10
2874.485285800478
 20
1556.506868132433
 10
2874.485285800478
 20
1556.354064834638
 10
2874.332482502682
 20
1556.354064834638
  0
LWPOLYLINE
  5
8A
330
17
100
AcDbEntity
  8
AREE LEONARDO
  6
ByLayer
 62
4
100
AcDbPolyline
 90
4
 70
1
 10
2874.333669398325
 20
1556.306871654267
 10
2874.48647269612
 20
1556.306871654267
 10
2874.48647269612
 20
1556.154068356472
 10
2874.333669398325
 20
1556.154068356472
  0
LWPOLYLINE
  5
8B
330
17
100
AcDbEntity
  8
AREE LEONARDO
  6
ByLayer
 62
4
100
AcDbPolyline
 90
4
 70
1
 10
2874.332482502682
 20
1555.332495262658
 10
2874.485285800478
 20
1555.332495262658
 10
2874.485285800478
 20
1555.179691964864
 10
2874.332482502682
 20
1555.179691964864
  0
LWPOLYLINE
  5
8C
330
17
100
AcDbEntity
  8
AREE LEONARDO
  6
ByLayer
 62
4
100
AcDbPolyline
 90
4
 70
1
 10
2874.333669398325
 20
1555.13249878449
 10
2874.48647269612
 20
1555.13249878449
 10
2874.48647269612
 20
1554.979695486695
 10
2874.333669398325
 20
1554.979695486695
  0
LWPOLYLINE
  5
8D
330
17
100
AcDbEntity
  8
AREE LEONARDO
  6
ByLayer
 62
4
100
AcDbPolyline
 90
4
 70
1
 10
2863.876775724085
 20
1558.952374971824
 10
2864.02957902188
 20
1558.952374971824
 10
2864.02957902188
 20
1558.799571674029
 10
2863.876775724085
 20
1558.799571674029
  0
LWPOLYLINE
  5
8E
330
17
100
AcDbEntity
  8
AREE LEONARDO
  6
ByLayer
 62
4
100
AcDbPolyline
 90
4
 70
1
 10
2864.07677220225
 20
1558.953561867467
 10
2864.229575500045
 20
1558.953561867467
 10
2864.229575500045
 20
1558.800758569672
 10
2864.07677220225
 20
1558.800758569672
  0
LWPOLYLINE
  5
8F
330
17
100
AcDbEntity
  8
AREE LEONARDO
  6
ByLayer
 62
4
100
AcDbPolyline
 90
4
 70
1
 10
2865.065415982776
 20
1558.952374971824
 10
2865.21821928057
 20
1558.952374971824
 10
2865.21821928057
 20
1558.799571674029
 10
2865.065415982776
 20
1558.799571674029
  0
LWPOLYLINE
  5
90
330
17
100
AcDbEntity
  8
AREE LEONARDO
  6
ByLayer
 62
4
100
AcDbPolyline
 90
4
 70
1
 10
2865.265412460941
 20
1558.953561867467
 10
2865.418215758736
 20
1558.953561867467
 10
2865.418215758736
 20
1558.800758569672
 10
2865.265412460941
 20
1558.800758569672
  0
LWPOLYLINE
  5
91
330
17
100
AcDbEntity
  8
AREE LEONARDO
  6
ByLayer
 62
4
100
AcDbPolyline
 90
4
 70
1
 10
2866.239788852551
 20
1558.952374971824
 10
2866.392592150348
 20
1558.952374971824
 10
2866.392592150348
 20
1558.799571674029
 10
2866.239788852551
 20
1558.799571674029
  0
LWPOLYLINE
  5
92
330
17
100
AcDbEntity
  8
AREE LEONARDO
  6
ByLayer
 62
4
100
AcDbPolyline
 90
4
 70
1
 10
2866.439785330716
 20
1558.953561867467
 10
2866.592588628511
 20
1558.953561867467
 10
2866.592588628511
 20
1558.800758569672
 10
2866.439785330716
 20
1558.800758569672
  0
LWPOLYLINE
  5
93
330
17
100
AcDbEntity
  8
AREE LEONARDO
  6
ByLayer
 62
4
100
AcDbPolyline
 90
4
 70
1
 10
2867.527227609524
 20
1556.296097637611
 10
2868.330227609524
 20
1556.296097637611
 10
2868.330227609524
 20
1555.540097637611
 10
2867.527227609524
 20
1555.540097637611
  0
LWPOLYLINE
  5
94
330
17
100
AcDbEntity
  8
AREE LEONARDO
  6
ByLayer
 62
6
100
AcDbPolyline
 90
4
 70
1
 10
2871.266841861216
 20
1560.069247698602
 10
2872.101263670699
 20
1560.069247698602
 10
2872.101263670699
 20
1557.972495459389
 10
2871.266841861216
 20
1557.972495459389
  0
ENDSEC
  0
SECTION
  2
OBJECTS
  0
DICTIONARY
  5
A
330
0
100
AcDbDictionary
280
0
281
1
  3
ACAD_COLOR
350
B
  3
ACAD_GROUP
350
C
  3
ACAD_LAYOUT
350
D
  3
ACAD_MATERIAL
350
E
  3
ACAD_MLEADERSTYLE
350
F
  3
ACAD_MLINESTYLE
350
10
  3
ACAD_PLOTSETTINGS
350
11
  3
ACAD_PLOTSTYLENAME
350
12
  3
ACAD_SCALELIST
350
14
  3
ACAD_TABLESTYLE
350
15
  3
ACAD_VISUALSTYLE
350
16
  3
EZDXF_META
350
2D
  0
DICTIONARY
  5
B
330
A
100
AcDbDictionary
280
0
281
1
  0
DICTIONARY
  5
C
330
A
100
AcDbDictionary
280
0
281
1
  0
DICTIONARY
  5
D
330
A
100
AcDbDictionary
280
0
281
1
  3
Model
350
1A
  3
Layout1
350
1E
  0
DICTIONARY
  5
E
330
A
100
AcDbDictionary
280
0
281
1
  3
ByBlock
350
1F
  3
ByLayer
350
20
  3
Global
350
21
  0
DICTIONARY
  5
F
330
A
100
AcDbDictionary
280
0
281
1
  3
Standard
350
2C
  0
DICTIONARY
  5
10
330
A
100
AcDbDictionary
280
0
281
1
  3
Standard
350
22
  0
DICTIONARY
  5
11
330
A
100
AcDbDictionary
280
0
281
1
  0
ACDBDICTIONARYWDFLT
  5
12
330
A
100
AcDbDictionary
280
0
281
1
  3
Normal
350
13
100
AcDbDictionaryWithDefault
340
13
  0
ACDBPLACEHOLDER
  5
13
330
12
  0
DICTIONARY
  5
14
330
A
100
AcDbDictionary
280
0
281
1
  0
DICTIONARY
  5
15
330
A
100
AcDbDictionary
280
0
281
1
  0
DICTIONARY
  5
16
330
A
100
AcDbDictionary
280
0
281
1
  0
LAYOUT
  5
1A
330
D
100
AcDbPlotSettings
  1

  2
Adobe PDF
  4
A3
  6

 40
7.5
 41
20.0
 42
7.5
 43
20.0
 44
420.0
 45
297.0
 46
0.0
 47
0.0
 48
0.0
 49
0.0
140
0.0
141
0.0
142
1.0
143
1.0
 70
1024
 72
1
 73
0
 74
5
  7

 75
16
 76
0
 77
2
 78
300
147
1.0
148
0.0
149
0.0
100
AcDbLayout
  1
Model
 70
1
 71
0
 10
0.0
 20
0.0
 11
420.0
 21
297.0
 12
0.0
 22
0.0
 32
0.0
 14
1e+20
 24
1e+20
 34
1e+20
 15
-1e+20
 25
-1e+20
 35
-1e+20
146
0.0
 13
0.0
 23
0.0
 33
0.0
 16
1.0
 26
0.0
 36
0.0
 17
0.0
 27
1.0
 37
0.0
 76
1
330
17
  0
LAYOUT
  5
1E
330
D
100
AcDbPlotSettings
  1

  2
Adobe PDF
  4
A3
  6

 40
7.5
 41
20.0
 42
7.5
 43
20.0
 44
420.0
 45
297.0
 46
0.0
 47
0.0
 48
0.0
 49
0.0
140
0.0
141
0.0
142
1.0
143
1.0
 70
0
 72
1
 73
0
 74
5
  7

 75
16
 76
0
 77
2
 78
300
147
1.0
148
0.0
149
0.0
100
AcDbLayout
  1
Layout1
 70
1
 71
1
 10
0.0
 20
0.0
 11
420.0
 21
297.0
 12
0.0
 22
0.0
 32
0.0
 14
1e+20
 24
1e+20
 34
1e+20
 15
-1e+20
 25
-1e+20
 35
-1e+20
146
0.0
 13
0.0
 23
0.0
 33
0.0
 16
1.0
 26
0.0
 36
0.0
 17
0.0
 27
1.0
 37
0.0
 76
1
330
1B
  0
MATERIAL
  5
1F
102
{ACAD_REACTORS
330
E
102
}
330
E
100
AcDbMaterial
  1
ByBlock
  2

 70
0
 40
1.0
 71
1
 41
1.0
 91
-1023410177
 42
1.0
 72
1
  3

 73
1
 74
1
 75
1
 44
0.5
 73
0
 45
1.0
 46
1.0
 77
1
  4

 78
1
 79
1
170
1
 48
1.0
171
1
  6

172
1
173
1
174
1
140
1.0
141
1.0
175
1
  7

176
1
177
1
178
1
143
1.0
179
1
  8

270
1
271
1
272
1
145
1.0
146
1.0
273
1
  9

274
1
275
1
276
1
 42
1.0
 72
1
  3

 73
1
 74
1
 75
1
 94
63
  0
MATERIAL
  5
20
102
{ACAD_REACTORS
330
E
102
}
330
E
100
AcDbMaterial
  1
ByLayer
  2

 70
0
 40
1.0
 71
1
 41
1.0
 91
-1023410177
 42
1.0
 72
1
  3

 73
1
 74
1
 75
1
 44
0.5
 73
0
 45
1.0
 46
1.0
 77
1
  4

 78
1
 79
1
170
1
 48
1.0
171
1
  6

172
1
173
1
174
1
140
1.0
141
1.0
175
1
  7

176
1
177
1
178
1
143
1.0
179
1
  8

270
1
271
1
272
1
145
1.0
146
1.0
273
1
  9

274
1
275
1
276
1
 42
1.0
 72
1
  3

 73
1
 74
1
 75
1
 94
63
  0
MATERIAL
  5
21
102
{ACAD_REACTORS
330
E
102
}
330
E
100
AcDbMaterial
  1
Global
  2

 70
0
 40
1.0
 71
1
 41
1.0
 91
-1023410177
 42
1.0
 72
1
  3

 73
1
 74
1
 75
1
 44
0.5
 73
0
 45
1.0
 46
1.0
 77
1
  4

 78
1
 79
1
170
1
 48
1.0
171
1
  6

172
1
173
1
174
1
140
1.0
141
1.0
175
1
  7

176
1
177
1
178
1
143
1.0
179
1
  8

270
1
271
1
272
1
145
1.0
146
1.0
273
1
  9

274
1
275
1
276
1
 42
1.0
 72
1
  3

 73
1
 74
1
 75
1
 94
63
  0
MLINESTYLE
  5
22
102
{ACAD_REACTORS
330
10
102
}
330
10
100
AcDbMlineStyle
  2
Standard
 70
0
  3

 62
256
 51
90.0
 52
90.0
 71
2
 49
0.5
 62
256
  6
BYLAYER
 49
-0.5
 62
256
  6
BYLAYER
  0
MLEADERSTYLE
  5
2C
102
{ACAD_REACTORS
330
F
102
}
330
F
100
AcDbMLeaderStyle
179
2
170
2
171
1
172
0
 90
2
 40
0.0
 41
0.0
173
1
 91
-1056964608
 92
-2
290
1
 42
2.0
291
1
 43
8.0
  3
Standard
 44
4.0
300

342
29
174
1
175
1
176
0
178
1
 93
-1056964608
 45
4.0
292
0
297
0
 46
4.0
 94
-1056964608
 47
1.0
 49
1.0
140
1.0
294
1
141
0.0
177
0
142
1.0
295
0
296
0
143
3.75
271
0
272
9
273
9
  0
DICTIONARY
  5
2D
330
A
100
AcDbDictionary
281
1
  3
CREATED_BY_EZDXF
350
2E
  3
WRITTEN_BY_EZDXF
350
98
  0
DICTIONARYVAR
  5
2E
330
2D
100
DictionaryVariables
280
0
  1
1.1.2 @ 2023-11-14T21:35:46.162856+00:00
  0
DICTIONARYVAR
  5
98
330
2D
100
DictionaryVariables
280
0
  1
1.1.2 @ 2023-11-14T21:35:46.169764+00:00
  0
ENDSEC
  0
EOF
