  0
SECTION
  2
HEADER
  9
$ACADVER
  1
AC1032
  9
$ACADMAINTVER
 90
4
  9
$DWGCODEPAGE
  3
ANSI_1252
  9
$LASTSAVEDBY
  1
ezdxf
  9
$REQUIREDVERSIONS
160
0
  9
$INSBASE
 10
0.0
 20
0.0
 30
0.0
  9
$EXTMIN
 10
1e+20
 20
1e+20
 30
1e+20
  9
$EXTMAX
 10
-1e+20
 20
-1e+20
 30
-1e+20
  9
$LIMMIN
 10
0.0
 20
0.0
  9
$LIMMAX
 10
420.0
 20
297.0
  9
$ORTHOMODE
 70
0
  9
$REGENMODE
 70
1
  9
$FILLMODE
 70
1
  9
$QTEXTMODE
 70
0
  9
$MIRRTEXT
 70
1
  9
$LTSCALE
 40
1.0
  9
$ATTMODE
 70
1
  9
$TEXTSIZE
 40
2.5
  9
$TRACEWID
 40
1.0
  9
$TEXTSTYLE
  7
Standard
  9
$CLAYER
  8
0
  9
$CELTYPE
  6
ByLayer
  9
$CECOLOR
 62
256
  9
$CELTSCALE
 40
1.0
  9
$DISPSILH
 70
0
  9
$DIMSCALE
 40
1.0
  9
$DIMASZ
 40
2.5
  9
$DIMEXO
 40
0.625
  9
$DIMDLI
 40
3.75
  9
$DIMRND
 40
0.0
  9
$DIMDLE
 40
0.0
  9
$DIMEXE
 40
1.25
  9
$DIMTP
 40
0.0
  9
$DIMTM
 40
0.0
  9
$DIMTXT
 40
2.5
  9
$DIMCEN
 40
2.5
  9
$DIMTSZ
 40
0.0
  9
$DIMTOL
 70
0
  9
$DIMLIM
 70
0
  9
$DIMTIH
 70
0
  9
$DIMTOH
 70
0
  9
$DIMSE1
 70
0
  9
$DIMSE2
 70
0
  9
$DIMTAD
 70
1
  9
$DIMZIN
 70
8
  9
$DIMBLK
  1

  9
$DIMASO
 70
1
  9
$DIMSHO
 70
1
  9
$DIMPOST
  1

  9
$DIMAPOST
  1

  9
$DIMALT
 70
0
  9
$DIMALTD
 70
3
  9
$DIMALTF
 40
0.03937007874
  9
$DIMLFAC
 40
1.0
  9
$DIMTOFL
 70
1
  9
$DIMTVP
 40
0.0
  9
$DIMTIX
 70
0
  9
$DIMSOXD
 70
0
  9
$DIMSAH
 70
0
  9
$DIMBLK1
  1

  9
$DIMBLK2
  1

  9
$DIMSTYLE
  2
ISO-25
  9
$DIMCLRD
 70
0
  9
$DIMCLRE
 70
0
  9
$DIMCLRT
 70
0
  9
$DIMTFAC
 40
1.0
  9
$DIMGAP
 40
0.625
  9
$DIMJUST
 70
0
  9
$DIMSD1
 70
0
  9
$DIMSD2
 70
0
  9
$DIMTOLJ
 70
0
  9
$DIMTZIN
 70
8
  9
$DIMALTZ
 70
0
  9
$DIMALTTZ
 70
0
  9
$DIMUPT
 70
0
  9
$DIMDEC
 70
2
  9
$DIMTDEC
 70
2
  9
$DIMALTU
 70
2
  9
$DIMALTTD
 70
3
  9
$DIMTXSTY
  7
Standard
  9
$DIMAUNIT
 70
0
  9
$DIMADEC
 70
0
  9
$DIMALTRND
 40
0.0
  9
$DIMAZIN
 70
0
  9
$DIMDSEP
 70
44
  9
$DIMATFIT
 70
3
  9
$DIMFRAC
 70
0
  9
$DIMLDRBLK
  1

  9
$DIMLUNIT
 70
2
  9
$DIMLWD
 70
-2
  9
$DIMLWE
 70
-2
  9
$DIMTMOVE
 70
0
  9
$DIMFXL
 40
1.0
  9
$DIMFXLON
 70
0
  9
$DIMJOGANG
 40
0.785398163397
  9
$DIMTFILL
 70
0
  9
$DIMTFILLCLR
 70
0
  9
$DIMARCSYM
 70
0
  9
$DIMLTYPE
  6

  9
$DIMLTEX1
  6

  9
$DIMLTEX2
  6

  9
$DIMTXTDIRECTION
 70
0
  9
$LUNITS
 70
2
  9
$LUPREC
 70
4
  9
$SKETCHINC
 40
1.0
  9
$FILLETRAD
 40
10.0
  9
$AUNITS
 70
0
  9
$AUPREC
 70
2
  9
$MENU
  1
.
  9
$ELEVATION
 40
0.0
  9
$PELEVATION
 40
0.0
  9
$THICKNESS
 40
0.0
  9
$LIMCHECK
 70
0
  9
$CHAMFERA
 40
0.0
  9
$CHAMFERB
 40
0.0
  9
$CHAMFERC
 40
0.0
  9
$CHAMFERD
 40
0.0
  9
$SKPOLY
 70
0
  9
$TDCREATE
 40
2460263.8998842593
  9
$TDUCREATE
 40
2458532.153996898
  9
$TDUPDATE
 40
2460263.8998842593
  9
$TDUUPDATE
 40
2458532.1544311
  9
$TDINDWG
 40
0.0
  9
$TDUSRTIMER
 40
0.0
  9
$USRTIMER
 70
1
  9
$ANGBASE
 50
0.0
  9
$ANGDIR
 70
0
  9
$PDMODE
 70
0
  9
$PDSIZE
 40
0.0
  9
$PLINEWID
 40
0.0
  9
$SPLFRAME
 70
0
  9
$SPLINETYPE
 70
6
  9
$SPLINESEGS
 70
8
  9
$HANDSEED
  5
57
  9
$SURFTAB1
 70
6
  9
$SURFTAB2
 70
6
  9
$SURFTYPE
 70
6
  9
$SURFU
 70
6
  9
$SURFV
 70
6
  9
$UCSBASE
  2

  9
$UCSNAME
  2

  9
$UCSORG
 10
0.0
 20
0.0
 30
0.0
  9
$UCSXDIR
 10
1.0
 20
0.0
 30
0.0
  9
$UCSYDIR
 10
0.0
 20
1.0
 30
0.0
  9
$UCSORTHOREF
  2

  9
$UCSORTHOVIEW
 70
0
  9
$UCSORGTOP
 10
0.0
 20
0.0
 30
0.0
  9
$UCSORGBOTTOM
 10
0.0
 20
0.0
 30
0.0
  9
$UCSORGLEFT
 10
0.0
 20
0.0
 30
0.0
  9
$UCSORGRIGHT
 10
0.0
 20
0.0
 30
0.0
  9
$UCSORGFRONT
 10
0.0
 20
0.0
 30
0.0
  9
$UCSORGBACK
 10
0.0
 20
0.0
 30
0.0
  9
$PUCSBASE
  2

  9
$PUCSNAME
  2

  9
$PUCSORG
 10
0.0
 20
0.0
 30
0.0
  9
$PUCSXDIR
 10
1.0
 20
0.0
 30
0.0
  9
$PUCSYDIR
 10
0.0
 20
1.0
 30
0.0
  9
$PUCSORTHOREF
  2

  9
$PUCSORTHOVIEW
 70
0
  9
$PUCSORGTOP
 10
0.0
 20
0.0
 30
0.0
  9
$PUCSORGBOTTOM
 10
0.0
 20
0.0
 30
0.0
  9
$PUCSORGLEFT
 10
0.0
 20
0.0
 30
0.0
  9
$PUCSORGRIGHT
 10
0.0
 20
0.0
 30
0.0
  9
$PUCSORGFRONT
 10
0.0
 20
0.0
 30
0.0
  9
$PUCSORGBACK
 10
0.0
 20
0.0
 30
0.0
  9
$USERI1
 70
0
  9
$USERI2
 70
0
  9
$USERI3
 70
0
  9
$USERI4
 70
0
  9
$USERI5
 70
0
  9
$USERR1
 40
0.0
  9
$USERR2
 40
0.0
  9
$USERR3
 40
0.0
  9
$USERR4
 40
0.0
  9
$USERR5
 40
0.0
  9
$WORLDVIEW
 70
1
  9
$SHADEDGE
 70
3
  9
$SHADEDIF
 70
70
  9
$TILEMODE
 70
1
  9
$MAXACTVP
 70
64
  9
$PINSBASE
 10
0.0
 20
0.0
 30
0.0
  9
$PLIMCHECK
 70
0
  9
$PEXTMIN
 10
1e+20
 20
1e+20
 30
1e+20
  9
$PEXTMAX
 10
-1e+20
 20
-1e+20
 30
-1e+20
  9
$PLIMMIN
 10
0.0
 20
0.0
  9
$PLIMMAX
 10
420.0
 20
297.0
  9
$UNITMODE
 70
0
  9
$VISRETAIN
 70
1
  9
$PLINEGEN
 70
0
  9
$PSLTSCALE
 70
1
  9
$TREEDEPTH
 70
3020
  9
$CMLSTYLE
  2
Standard
  9
$CMLJUST
 70
0
  9
$CMLSCALE
 40
20.0
  9
$PROXYGRAPHICS
 70
1
  9
$MEASUREMENT
 70
1
  9
$CELWEIGHT
370
-1
  9
$ENDCAPS
280
0
  9
$JOINSTYLE
280
0
  9
$LWDISPLAY
290
0
  9
$INSUNITS
 70
6
  9
$HYPERLINKBASE
  1

  9
$STYLESHEET
  1

  9
$XEDIT
290
1
  9
$CEPSNTYPE
380
0
  9
$PSTYLEMODE
290
1
  9
$FINGERPRINTGUID
  2
{E18B191A-5693-4ABA-9CE1-B2D94943ADA1}
  9
$VERSIONGUID
  2
{25BA2737-E952-42B2-9396-AD13B5EEDBD6}
  9
$EXTNAMES
290
1
  9
$PSVPSCALE
 40
0.0
  9
$OLESTARTUP
290
0
  9
$SORTENTS
280
127
  9
$INDEXCTL
280
0
  9
$HIDETEXT
280
1
  9
$XCLIPFRAME
280
0
  9
$HALOGAP
280
0
  9
$OBSCOLOR
 70
257
  9
$OBSLTYPE
280
0
  9
$INTERSECTIONDISPLAY
280
0
  9
$INTERSECTIONCOLOR
 70
257
  9
$DIMASSOC
280
2
  9
$PROJECTNAME
  1

  9
$CAMERADISPLAY
290
0
  9
$LENSLENGTH
 40
50.0
  9
$CAMERAHEIGHT
 40
0.0
  9
$STEPSPERSEC
 40
24.0
  9
$STEPSIZE
 40
100.0
  9
$3DDWFPREC
 40
2.0
  9
$PSOLWIDTH
 40
0.005
  9
$PSOLHEIGHT
 40
0.08
  9
$LOFTANG1
 40
1.570796326795
  9
$LOFTANG2
 40
1.570796326795
  9
$LOFTMAG1
 40
0.0
  9
$LOFTMAG2
 40
0.0
  9
$LOFTPARAM
 70
7
  9
$LOFTNORMALS
280
1
  9
$LATITUDE
 40
37.795
  9
$LONGITUDE
 40
-122.394
  9
$NORTHDIRECTION
 40
0.0
  9
$TIMEZONE
 70
-8000
  9
$LIGHTGLYPHDISPLAY
280
1
  9
$TILEMODELIGHTSYNCH
280
1
  9
$CMATERIAL
347
20
  9
$SOLIDHIST
280
0
  9
$SHOWHIST
280
1
  9
$DWFFRAME
280
2
  9
$DGNFRAME
280
2
  9
$REALWORLDSCALE
290
1
  9
$INTERFERECOLOR
 62
256
  9
$CSHADOW
280
0
  9
$SHADOWPLANELOCATION
 40
0.0
  0
ENDSEC
  0
SECTION
  2
CLASSES
  0
CLASS
  1
ACDBDICTIONARYWDFLT
  2
AcDbDictionaryWithDefault
  3
ObjectDBX Classes
 90
0
 91
0
280
0
281
0
  0
CLASS
  1
SUN
  2
AcDbSun
  3
SCENEOE
 90
1153
 91
0
280
0
281
0
  0
CLASS
  1
VISUALSTYLE
  2
AcDbVisualStyle
  3
ObjectDBX Classes
 90
4095
 91
0
280
0
281
0
  0
CLASS
  1
MATERIAL
  2
AcDbMaterial
  3
ObjectDBX Classes
 90
1153
 91
0
280
0
281
0
  0
CLASS
  1
SCALE
  2
AcDbScale
  3
ObjectDBX Classes
 90
1153
 91
0
280
0
281
0
  0
CLASS
  1
TABLESTYLE
  2
AcDbTableStyle
  3
ObjectDBX Classes
 90
4095
 91
0
280
0
281
0
  0
CLASS
  1
MLEADERSTYLE
  2
AcDbMLeaderStyle
  3
ACDB_MLEADERSTYLE_CLASS
 90
4095
 91
0
280
0
281
0
  0
CLASS
  1
DICTIONARYVAR
  2
AcDbDictionaryVar
  3
ObjectDBX Classes
 90
0
 91
0
280
0
281
0
  0
CLASS
  1
CELLSTYLEMAP
  2
AcDbCellStyleMap
  3
ObjectDBX Classes
 90
1152
 91
0
280
0
281
0
  0
CLASS
  1
MENTALRAYRENDERSETTINGS
  2
AcDbMentalRayRenderSettings
  3
SCENEOE
 90
1024
 91
0
280
0
281
0
  0
CLASS
  1
ACDBDETAILVIEWSTYLE
  2
AcDbDetailViewStyle
  3
ObjectDBX Classes
 90
1025
 91
0
280
0
281
0
  0
CLASS
  1
ACDBSECTIONVIEWSTYLE
  2
AcDbSectionViewStyle
  3
ObjectDBX Classes
 90
1025
 91
0
280
0
281
0
  0
CLASS
  1
RASTERVARIABLES
  2
AcDbRasterVariables
  3
ISM
 90
0
 91
0
280
0
281
0
  0
CLASS
  1
LAYOUT
  2
AcDbLayout
  3
ObjectDBX Classes
 90
0
 91
0
280
0
281
0
  0
CLASS
  1
ACDBPLACEHOLDER
  2
AcDbPlaceHolder
  3
ObjectDBX Classes
 90
0
 91
0
280
0
281
0
  0
ENDSEC
  0
SECTION
  2
TABLES
  0
TABLE
  2
VPORT
  5
8
330
0
100
AcDbSymbolTable
 70
1
  0
VPORT
  5
23
330
8
100
AcDbSymbolTableRecord
100
AcDbViewportTableRecord
  2
*Active
 70
0
 10
0.0
 20
0.0
 11
1.0
 21
1.0
 12
0.0
 22
0.0
 13
0.0
 23
0.0
 14
0.5
 24
0.5
 15
0.5
 25
0.5
 16
0.0
 26
0.0
 36
1.0
 17
0.0
 27
0.0
 37
0.0
 40
1000.0
 41
1.34
 42
50.0
 43
0.0
 44
0.0
 50
0.0
 51
0.0
 71
0
 72
1000
 73
1
 74
3
 75
0
 76
0
 77
0
 78
0
281
0
 65
0
146
0.0
  0
ENDTAB
  0
TABLE
  2
LTYPE
  5
2
330
0
100
AcDbSymbolTable
 70
3
  0
LTYPE
  5
24
330
2
100
AcDbSymbolTableRecord
100
AcDbLinetypeTableRecord
  2
ByBlock
 70
0
  3

 72
65
 73
0
 40
0.0
  0
LTYPE
  5
25
330
2
100
AcDbSymbolTableRecord
100
AcDbLinetypeTableRecord
  2
ByLayer
 70
0
  3

 72
65
 73
0
 40
0.0
  0
LTYPE
  5
26
330
2
100
AcDbSymbolTableRecord
100
AcDbLinetypeTableRecord
  2
Continuous
 70
0
  3

 72
65
 73
0
 40
0.0
  0
ENDTAB
  0
TABLE
  2
LAYER
  5
1
330
0
100
AcDbSymbolTable
 70
3
  0
LAYER
  5
27
330
1
100
AcDbSymbolTableRecord
100
AcDbLayerTableRecord
  2
0
 70
0
 62
7
  6
Continuous
370
-3
390
13
347
21
  0
LAYER
  5
28
330
1
100
AcDbSymbolTableRecord
100
AcDbLayerTableRecord
  2
Defpoints
 70
0
 62
7
  6
Continuous
290
0
370
-3
390
13
347
21
  0
LAYER
  5
53
330
1
100
AcDbSymbolTableRecord
100
AcDbLayerTableRecord
  2
AREE LEONARDO
 70
0
 62
5
  6
Continuous
370
-3
390
F
347
EE
  0
ENDTAB
  0
TABLE
  2
STYLE
  5
5
330
0
100
AcDbSymbolTable
 70
1
  0
STYLE
  5
29
330
5
100
AcDbSymbolTableRecord
100
AcDbTextStyleTableRecord
  2
Standard
 70
0
 40
0.0
 41
1.0
 50
0.0
 71
0
 42
2.5
  3
txt
  4

  0
ENDTAB
  0
TABLE
  2
VIEW
  5
7
330
0
100
AcDbSymbolTable
 70
0
  0
ENDTAB
  0
TABLE
  2
UCS
  5
6
330
0
100
AcDbSymbolTable
 70
0
  0
ENDTAB
  0
TABLE
  2
APPID
  5
3
330
0
100
AcDbSymbolTable
 70
3
  0
APPID
  5
2A
330
3
100
AcDbSymbolTableRecord
100
AcDbRegAppTableRecord
  2
ACAD
 70
0
  0
APPID
  5
54
330
3
100
AcDbSymbolTableRecord
100
AcDbRegAppTableRecord
  2
HATCHBACKGROUNDCOLOR
 70
0
  0
APPID
  5
55
330
3
100
AcDbSymbolTableRecord
100
AcDbRegAppTableRecord
  2
EZDXF
 70
0
  0
ENDTAB
  0
TABLE
  2
DIMSTYLE
  5
4
330
0
100
AcDbSymbolTable
 70
1
100
AcDbDimStyleTable
  0
DIMSTYLE
105
2B
330
4
100
AcDbSymbolTableRecord
100
AcDbDimStyleTableRecord
  2
Standard
 70
0
 40
1.0
 41
2.5
 42
0.625
 43
3.75
 44
1.25
 45
0.0
 46
0.0
 47
0.0
 48
0.0
 49
2.5
140
2.5
141
2.5
142
0.0
143
0.03937007874
144
1.0
145
0.0
146
1.0
147
0.625
148
0.0
 69
0
 70
0
 71
0
 72
0
 73
0
 74
0
 75
0
 76
0
 77
1
 78
8
 79
3
170
0
171
3
172
1
173
0
174
0
175
0
176
0
177
0
178
0
179
2
271
2
272
2
273
2
274
3
275
0
276
0
277
2
278
44
279
0
280
0
281
0
282
0
283
0
284
8
285
0
286
0
288
0
289
3
290
0
371
-2
372
-2
  0
ENDTAB
  0
TABLE
  2
BLOCK_RECORD
  5
9
330
0
100
AcDbSymbolTable
 70
2
  0
BLOCK_RECORD
  5
17
330
9
100
AcDbSymbolTableRecord
100
AcDbBlockTableRecord
  2
*Model_Space
340
1A
 70
0
280
1
281
0
  0
BLOCK_RECORD
  5
1B
330
9
100
AcDbSymbolTableRecord
100
AcDbBlockTableRecord
  2
*Paper_Space
340
1E
 70
0
280
1
281
0
  0
ENDTAB
  0
ENDSEC
  0
SECTION
  2
BLOCKS
  0
BLOCK
  5
18
330
17
100
AcDbEntity
  8
0
100
AcDbBlockBegin
  2
*Model_Space
 70
0
 10
0.0
 20
0.0
 30
0.0
  3
*Model_Space
  1

  0
ENDBLK
  5
19
330
17
100
AcDbEntity
  8
0
100
AcDbBlockEnd
  0
BLOCK
  5
1C
330
1B
100
AcDbEntity
  8
0
100
AcDbBlockBegin
  2
*Paper_Space
 70
0
 10
0.0
 20
0.0
 30
0.0
  3
*Paper_Space
  1

  0
ENDBLK
  5
1D
330
1B
100
AcDbEntity
  8
0
100
AcDbBlockEnd
  0
ENDSEC
  0
SECTION
  2
ENTITIES
  0
LWPOLYLINE
  5
2F
330
17
100
AcDbEntity
  8
AREE LEONARDO
 62
5
100
AcDbPolyline
 90
17
 70
1
 10
3060.870080740151
 20
5649.362154033545
 10
3129.003118864323
 20
4499.944674622853
 10
8767.988436590824
 20
4901.969654575404
 10
8767.988436590824
 20
1594.792988025356
 10
14374.40933502832
 20
1595.024893292522
 10
13873.04098875538
 20
9337.079732906488
 10
11922.14655145999
 20
9208.421927521886
 10
12105.45791901271
 20
6345.513174542523
 10
11756.30630768457
 20
6321.099112042523
 10
11743.67203034082
 20
6501.732656964398
 10
7644.58140349895
 20
6241.860130971914
 10
7663.929598700216
 20
5965.203115948773
 10
6965.656893622075
 20
5916.374990948773
 10
6961.47052981982
 20
5976.219911133285
 10
3149.842954679367
 20
5714.569935343293
 10
3153.950350653341
 20
5655.876944073773
 10
3060.870080740151
 20
5649.362154033564
  0
LWPOLYLINE
  5
30
330
17
100
AcDbEntity
  8
AREE LEONARDO
 62
5
100
AcDbPolyline
 90
11
 70
1
 10
8667.988436590833
 20
4795.372781206684
 10
4822.048886721936
 20
4521.180939356163
 10
4918.757126526867
 20
3180.38474304247
 10
5396.589510809583
 20
3180.384743042703
 10
5396.589510809583
 20
1595.024893292522
 10
6663.532870184575
 20
1595.024893292522
 10
6663.532870184575
 20
1911.492178448772
 10
7163.532870184583
 20
1911.492178448772
 10
7163.532870184583
 20
1595.024893292522
 10
8671.681063543965
 20
1595.024893292522
 10
8667.988436590833
 20
4795.372781206684
  0
LWPOLYLINE
  5
31
330
17
100
AcDbEntity
  8
AREE LEONARDO
 62
3
100
AcDbPolyline
 90
11
 70
1
 10
3134.874356209261
 20
4400.89576949162
 10
4722.560480505195
 20
4514.088027731113
 10
4825.969873704915
 20
3080.384743042354
 10
5296.58951080959
 20
3080.384743042354
 10
5296.58951080959
 20
1595.024893292522
 10
3696.919100653326
 20
1595.024893292522
 10
3696.919100653326
 20
1735.009024151897
 10
3515.217440497076
 20
1735.009024151897
 10
3515.217440497076
 20
1766.533682355022
 10
3291.029187443619
 20
1766.533682355022
 10
3134.874356209261
 20
4400.89576949162
  0
LWPOLYLINE
  5
32
330
17
100
AcDbEntity
  8
AREE LEONARDO
 62
5
100
AcDbPolyline
 90
11
 70
1
 10
17319.05044830957
 20
3796.562979230023
 10
14649.31167877835
 20
3656.670401105023
 10
14651.02066315334
 20
3632.134268292523
 10
14641.83487213771
 20
3631.493399151898
 10
14650.25772370021
 20
3500.847647198773
 10
14772.26700104396
 20
1987.938711651897
 10
14847.79800690333
 20
1993.218252667522
 10
14875.63003815334
 20
1595.024893292522
 10
15146.77871979396
 20
1595.024893292522
 10
17806.96548737211
 20
1595.024893292522
 10
17319.32510651271
 20
3795.281240948773
  0
LWPOLYLINE
  5
33
330
17
100
AcDbEntity
  8
AREE LEONARDO
 62
5
100
AcDbPolyline
 90
17
 70
1
 10
2627.88036085905
 20
11224.63498640292
 10
2645.466463934598
 20
10947.41136790189
 10
2823.567049872098
 20
10959.86253977689
 10
2847.981112372098
 20
10610.71092844877
 10
2667.622225653348
 20
10598.10716868314
 10
2877.301842550714
 20
7302.969279940538
 10
3612.847513793921
 20
7355.409163549722
 10
3620.032201740836
 20
7255.798186342878
 10
3239.401574418855
 20
7228.661563050298
 10
3338.923505395065
 20
5826.753641948868
 10
4627.745152740707
 20
5910.093425506906
 10
4517.547056069565
 20
7419.908678063837
 10
7246.641654690695
 20
7614.476342187794
 10
7035.420077215825
 20
10775.26170969876
 10
6446.498794619921
 20
10734.10860795069
 10
6403.238636488069
 20
11509.56760522903
 10
2627.878781467643
 20
11224.6348672036
  0
LWPOLYLINE
  5
34
330
17
100
AcDbEntity
  8
AREE LEONARDO
 62
3
100
AcDbPolyline
 90
11
 70
1
 10
4628.67025219087
 20
7327.707877388987
 10
4724.125696437408
 20
5916.964800122955
 10
6954.499885046117
 20
6075.976765563826
 10
6930.775301825216
 20
6415.154287823773
 10
7334.767001043966
 20
6443.413565167523
 10
7310.444491278341
 20
6760.308096417523
 10
7624.531405340825
 20
6784.416983136273
 10
7578.632967840825
 20
7382.653067120648
 10
7264.546053778333
 20
7358.544180401898
 10
7252.550738897025
 20
7514.77442227837
 10
4628.67025219087
 20
7327.707877388987
  0
LWPOLYLINE
  5
35
330
17
100
AcDbEntity
  8
AREE LEONARDO
 62
3
100
AcDbPolyline
 90
7
 70
1
 10
6543.424077460494
 20
12531.691043019
 10
6614.81211276069
 20
11247.06574839837
 10
7300.129549872075
 20
11294.97606516751
 10
7321.003573309583
 20
11000.72557688627
 10
9107.666146471149
 20
11135.56799680058
 10
8989.064269299586
 20
12707.04331728437
 10
6543.424077460494
 20
12531.691043019
  0
LWPOLYLINE
  5
36
330
17
100
AcDbEntity
  8
AREE LEONARDO
 62
3
100
AcDbPolyline
 90
7
 70
1
 10
9105.284398935695
 20
12495.89603912184
 10
9207.389419625473
 20
11143.00412935071
 10
11245.47256745021
 20
11297.41747141751
 10
11220.84488190333
 20
11650.10912180814
 10
11365.8132738391
 20
11660.25882428185
 10
11302.85038719601
 20
12653.44356561877
 10
9105.284398935695
 20
12495.89603912184
  0
LWPOLYLINE
  5
37
330
17
100
AcDbEntity
  8
AREE LEONARDO
 62
5
100
AcDbPolyline
 90
11
 70
1
 10
2558.674471747098
 20
15465.72191477689
 10
2562.003749160202
 20
15418.11469318657
 10
2362.751620184598
 20
15404.16795969876
 10
2612.046640485485
 20
11474.23441371375
 10
6489.04368655846
 20
11766.80602194351
 10
6441.272328983945
 20
12623.13042396068
 10
8984.676209750756
 20
12805.48115101464
 10
8909.093154934202
 20
13806.83045693062
 10
6384.264089817141
 20
13625.81146140566
 10
6265.16678550185
 20
15746.23264950519
 10
2558.674471747098
 20
15465.72191477689
  0
LWPOLYLINE
  5
38
330
17
100
AcDbEntity
  8
AREE LEONARDO
 62
5
100
AcDbPolyline
 90
7
 70
1
 10
6362.067623146748
 20
15753.57009274019
 10
6475.648165497895
 20
13727.93996525667
 10
11029.60393876206
 20
14054.43830573088
 10
10847.62744868078
 20
17297.98665357725
 10
6470.204012762716
 20
16975.02977610501
 10
6540.860809758986
 20
15766.41312476285
 10
6362.067623146748
 20
15753.57009274019
  0
LWPOLYLINE
  5
39
330
17
100
AcDbEntity
  8
AREE LEONARDO
 62
5
100
AcDbPolyline
 90
22
 70
1
 10
10950.55345560607
 20
17305.57908780961
 10
11137.88261770734
 20
13966.62473186309
 10
9005.822579243188
 20
13813.76552571152
 10
9095.965474697736
 20
12601.30815471669
 10
12209.47662189227
 20
12824.5214655258
 10
12216.1711442312
 20
12718.92120175699
 10
11396.36786530536
 20
12660.14800472959
 10
11459.34240664258
 20
11666.77942070965
 10
11719.62417877835
 20
11684.99071360501
 10
11737.08023346582
 20
11435.50951243314
 10
11780.65933502835
 20
11438.22557688626
 10
11812.36709870021
 20
10938.31712962064
 10
11909.485672784
 20
9408.021409971821
 10
13958.90987412442
 20
9543.177067298158
 10
13802.26578034083
 20
11783.44042063626
 10
14101.5211514346
 20
11804.34496165189
 10
14257.55752838771
 20
9572.96068430815
 10
15304.70834843906
 20
9624.337709315652
 10
15141.92642487207
 20
11666.61913157377
 10
16516.07193268461
 20
11772.72875071439
 10
15623.79898346582
 20
17650.41429758939
 10
10950.55345560605
 20
17305.57908780984
  0
LWPOLYLINE
  5
3A
330
17
100
AcDbEntity
  8
AREE LEONARDO
 62
5
100
AcDbPolyline
 90
5
 70
1
 10
16023.27408112207
 20
16884.51463938628
 10
16621.29654205957
 20
12956.44457102689
 10
21077.62231360466
 20
13719.98177215148
 10
20578.87710846586
 20
17309.28880930814
 10
16023.27408112207
 20
16884.51463938628
  0
LWPOLYLINE
  5
3B
330
17
100
AcDbEntity
  8
AREE LEONARDO
 62
5
100
AcDbPolyline
 90
11
 70
1
 10
21082.26455963771
 20
13567.68114329252
 10
19319.662113714
 20
13266.5327429063
 10
19532.33514986743
 20
11881.48310344975
 10
16854.54239166896
 20
11423.94335032376
 10
17343.15545916811
 20
8190.030273593526
 10
18424.26222617828
 20
8375.649926882536
 10
18074.13216589016
 20
10556.88021749101
 10
18256.49713424526
 20
10588.04948721483
 10
18606.92391494286
 20
8404.970695246542
 10
21703.87710846583
 20
8945.305655011274
 10
21098.72750917539
 20
13571.41192991456
  0
LWPOLYLINE
  5
3C
330
17
100
AcDbEntity
  8
AREE LEONARDO
 62
3
100
AcDbPolyline
 90
5
 70
1
 10
16909.56558502833
 20
12853.60033274564
 10
17099.26285065336
 20
11617.88255930814
 10
19358.47515026197
 20
12025.44208032923
 10
19171.81734400703
 20
13241.19652237913
 10
16909.57857551253
 20
12853.51571069183
  0
LWPOLYLINE
  5
3D
330
17
100
AcDbEntity
  8
AREE LEONARDO
 62
3
100
AcDbPolyline
 90
5
 70
1
 10
17365.98120842962
 20
8039.713297379734
 10
17663.56338776271
 20
6108.727285870648
 10
20386.82557732631
 20
6570.502721570147
 10
19988.24743066311
 20
8489.940936181163
 10
17365.95596588771
 20
8039.879629620649
  0
LWPOLYLINE
  5
3E
330
17
100
AcDbEntity
  8
AREE LEONARDO
 62
5
100
AcDbPolyline
 90
5
 70
1
 10
20106.58267334846
 20
8510.2583991639
 10
20505.31751236081
 20
6590.092921232995
 10
21987.66006745021
 20
6835.167715558148
 10
21724.99527252834
 20
8788.29271555815
 10
20106.54608235877
 20
8510.252116706872
  0
LWPOLYLINE
  5
3F
330
17
100
AcDbEntity
  8
AREE LEONARDO
 62
5
100
AcDbPolyline
 90
6
 70
1
 10
17679.9634762853
 20
5970.942639408115
 10
22008.94762686916
 20
6686.650959794473
 10
22680.98892487208
 20
1680.260488995647
 10
18484.76089752836
 20
1554.070303448772
 10
17878.01040924707
 20
4666.771719464398
 10
17684.43120260345
 20
5971.681285886799
  0
LWPOLYLINE
  5
40
330
17
100
AcDbEntity
  8
AREE LEONARDO
 62
1
100
AcDbPolyline
 90
5
 70
1
 10
4092.740892738872
 20
12300.85373188094
 10
4092.740892738872
 20
11700.85373188094
 10
4692.740892738878
 20
11700.85373188094
 10
4692.740892738878
 20
12300.85373188094
 10
4092.740892738872
 20
12300.85373188094
  0
LWPOLYLINE
  5
41
330
17
100
AcDbEntity
  8
AREE LEONARDO
 62
1
100
AcDbPolyline
 90
5
 70
1
 10
9584.647292788828
 20
6314.734545711234
 10
9584.647292788828
 20
5714.734545711234
 10
10184.64729278883
 20
5714.734545711234
 10
10184.64729278883
 20
6314.734545711234
 10
9584.647292788828
 20
6314.734545711234
  0
LWPOLYLINE
  5
42
330
17
100
AcDbEntity
  8
AREE LEONARDO
 62
1
100
AcDbPolyline
 90
5
 70
1
 10
20647.74404062256
 20
11405.28642998227
 10
20647.74404062256
 20
10805.28642998227
 10
21247.74404062256
 20
10805.28642998227
 10
21247.74404062256
 20
11405.28642998227
 10
20647.74404062256
 20
11405.28642998227
  0
LWPOLYLINE
  5
43
330
17
100
AcDbEntity
  8
AREE LEONARDO
 62
1
100
AcDbPolyline
 90
5
 70
1
 10
21090.75598370115
 20
8082.536264959834
 10
21090.75598370115
 20
7482.536264959836
 10
21690.75598370115
 20
7482.536264959836
 10
21690.75598370115
 20
8082.536264959834
 10
21090.75598370115
 20
8082.536264959834
  0
LWPOLYLINE
  5
44
330
17
100
AcDbEntity
  8
AREE LEONARDO
 62
2
100
AcDbPolyline
 90
9
 70
1
 10
3264.228602656888
 20
2596.358571099463
 10
3313.572568885891
 20
1779.955904070074
 10
3526.022716781914
 20
1778.349803674566
 10
3526.374284702605
 20
1742.261109228172
 10
3703.309021834106
 20
1741.215073978292
 10
3709.111490765147
 20
1607.243199902664
 10
5274.113318321917
 20
1606.394695838658
 10
5267.725081075336
 20
2592.857931390069
 10
3264.228602656888
 20
2596.358571099463
  0
LWPOLYLINE
  5
45
330
17
100
AcDbEntity
  8
AREE LEONARDO
 62
2
100
AcDbPolyline
 90
9
 70
1
 10
5435.248693378901
 20
2594.658116129572
 10
5440.443205800646
 20
1614.913817988495
 10
6651.391412873421
 20
1616.962773729704
 10
6646.405522138903
 20
1921.250572529286
 10
7167.901305325216
 20
1919.993970773135
 10
7167.218706068812
 20
1609.771671695035
 10
8645.259136571254
 20
1608.709485868949
 10
8645.733114140425
 20
2594.388284288545
 10
5435.248693378901
 20
2594.658116129572
  0
LWPOLYLINE
  5
46
330
17
100
AcDbEntity
  8
AREE LEONARDO
 62
2
100
AcDbPolyline
 90
5
 70
1
 10
8781.389525871626
 20
2595.170529809718
 10
8794.336273993922
 20
1608.231162445203
 10
14343.71661217346
 20
1606.529135440236
 10
14274.53129218011
 20
2593.468502804752
 10
8781.389525871626
 20
2595.170529809718
  0
LWPOLYLINE
  5
47
330
17
100
AcDbEntity
  8
AREE LEONARDO
 62
2
100
AcDbPolyline
 90
7
 70
1
 10
14739.01669141873
 20
2595.429683132791
 10
17545.95634627618
 20
2588.404834062486
 10
17766.95867784676
 20
1599.321691591589
 10
14885.71475182495
 20
1605.196586333354
 10
14861.29058325276
 20
2006.478383601518
 10
14786.57800064703
 20
2002.376317340754
 10
14739.01669141873
 20
2595.429683132791
  0
LWPOLYLINE
  5
48
330
17
100
AcDbEntity
  8
AREE LEONARDO
 62
1
100
AcDbPolyline
 90
5
 70
1
 10
15392.28048188916
 20
14710.39306692612
 10
15392.28048188916
 20
14110.39306692612
 10
15992.28048188916
 20
14110.39306692612
 10
15992.28048188916
 20
14710.39306692612
 10
15392.28048188916
 20
14710.39306692612
  0
LWPOLYLINE
  5
49
330
17
100
AcDbEntity
  8
AREE LEONARDO
 62
2
100
AcDbPolyline
 90
5
 70
1
 10
9034.608995105073
 20
6277.189098261142
 10
9034.608995105073
 20
5678.570213895483
 10
9522.942542819996
 20
5678.570213895483
 10
9522.942542819996
 20
6277.520265675035
 10
9034.608995105073
 20
6277.189098261142
  0
LWPOLYLINE
  5
4A
330
17
100
AcDbEntity
  8
AREE LEONARDO
 62
2
100
AcDbPolyline
 90
5
 70
1
 10
10218.54729559172
 20
6272.699208610477
 10
10218.54729559172
 20
5674.080324244819
 10
10706.88084330664
 20
5674.080324244819
 10
10706.88084330664
 20
6273.030376024371
 10
10218.54729559172
 20
6272.699208610477
  0
LWPOLYLINE
  5
4B
330
17
100
AcDbEntity
  8
AREE LEONARDO
 62
2
100
AcDbPolyline
 90
5
 70
1
 10
3551.394978319109
 20
12311.91447896029
 10
3551.394978319109
 20
11713.29559459463
 10
4039.728526034032
 20
11713.29559459463
 10
4039.728526034032
 20
12312.24564637418
 10
3551.394978319109
 20
12311.91447896029
  0
LWPOLYLINE
  5
4C
330
17
100
AcDbEntity
  8
AREE LEONARDO
 62
2
100
AcDbPolyline
 90
5
 70
1
 10
4778.455169917248
 20
12329.18530168328
 10
4778.455169917248
 20
11730.56641731762
 10
5266.788717632171
 20
11730.56641731762
 10
5266.788717632171
 20
12329.51646909717
 10
4778.455169917248
 20
12329.18530168328
  0
LWPOLYLINE
  5
4D
330
17
100
AcDbEntity
  8
AREE LEONARDO
 62
2
100
AcDbPolyline
 90
5
 70
1
 10
15369.76475095148
 20
15414.09379745556
 10
15369.76475095148
 20
14815.4749130899
 10
15858.0982986664
 20
14815.4749130899
 10
15858.0982986664
 20
15414.42496486945
 10
15369.76475095148
 20
15414.09379745556
  0
LWPOLYLINE
  5
4E
330
17
100
AcDbEntity
  8
AREE LEONARDO
 62
2
100
AcDbPolyline
 90
5
 70
1
 10
15397.44007310462
 20
14068.13854609938
 10
15397.44007310462
 20
13469.51966173372
 10
15885.77362081954
 20
13469.51966173372
 10
15885.77362081954
 20
14068.46971351328
 10
15397.44007310462
 20
14068.13854609938
  0
LWPOLYLINE
  5
4F
330
17
100
AcDbEntity
  8
AREE LEONARDO
 62
2
100
AcDbPolyline
 90
5
 70
1
 10
20643.86089999524
 20
12051.24681605074
 10
20643.86089999524
 20
11452.62793168509
 10
21132.19444771017
 20
11452.62793168509
 10
21132.19444771017
 20
12051.57798346464
 10
20643.86089999524
 20
12051.24681605074
  0
LWPOLYLINE
  5
50
330
17
100
AcDbEntity
  8
AREE LEONARDO
 62
2
100
AcDbPolyline
 90
5
 70
1
 10
20649.64085547829
 20
10768.8295379716
 10
20649.64085547829
 20
10170.21065360595
 10
21137.97440319321
 20
10170.21065360595
 10
21137.97440319321
 20
10769.1607053855
 10
20649.64085547829
 20
10768.8295379716
  0
LWPOLYLINE
  5
51
330
17
100
AcDbEntity
  8
AREE LEONARDO
 62
2
100
AcDbPolyline
 90
5
 70
1
 10
21124.47736459253
 20
7440.850566609841
 10
21124.47736459253
 20
6842.231682244181
 10
21612.81091230746
 20
6842.231682244181
 10
21612.81091230746
 20
7441.181734023733
 10
21124.47736459253
 20
7440.850566609841
  0
LWPOLYLINE
  5
52
330
17
100
AcDbEntity
  8
AREE LEONARDO
 62
2
100
AcDbPolyline
 90
5
 70
1
 10
21134.2203419443
 20
8629.89243294339
 10
21134.2203419443
 20
8125.751341005514
 10
21622.55388965922
 20
8125.751341005514
 10
21622.55388965922
 20
8635.358488804157
 10
21134.2203419443
 20
8629.89243294339
  0
ENDSEC
  0
SECTION
  2
OBJECTS
  0
DICTIONARY
  5
A
330
0
100
AcDbDictionary
280
0
281
1
  3
ACAD_COLOR
350
B
  3
ACAD_GROUP
350
C
  3
ACAD_LAYOUT
350
D
  3
ACAD_MATERIAL
350
E
  3
ACAD_MLEADERSTYLE
350
F
  3
ACAD_MLINESTYLE
350
10
  3
ACAD_PLOTSETTINGS
350
11
  3
ACAD_PLOTSTYLENAME
350
12
  3
ACAD_SCALELIST
350
14
  3
ACAD_TABLESTYLE
350
15
  3
ACAD_VISUALSTYLE
350
16
  3
EZDXF_META
350
2D
  0
DICTIONARY
  5
B
330
A
100
AcDbDictionary
280
0
281
1
  0
DICTIONARY
  5
C
330
A
100
AcDbDictionary
280
0
281
1
  0
DICTIONARY
  5
D
330
A
100
AcDbDictionary
280
0
281
1
  3
Model
350
1A
  3
Layout1
350
1E
  0
DICTIONARY
  5
E
330
A
100
AcDbDictionary
280
0
281
1
  3
ByBlock
350
1F
  3
ByLayer
350
20
  3
Global
350
21
  0
DICTIONARY
  5
F
330
A
100
AcDbDictionary
280
0
281
1
  3
Standard
350
2C
  0
DICTIONARY
  5
10
330
A
100
AcDbDictionary
280
0
281
1
  3
Standard
350
22
  0
DICTIONARY
  5
11
330
A
100
AcDbDictionary
280
0
281
1
  0
ACDBDICTIONARYWDFLT
  5
12
330
A
100
AcDbDictionary
280
0
281
1
  3
Normal
350
13
100
AcDbDictionaryWithDefault
340
13
  0
ACDBPLACEHOLDER
  5
13
330
12
  0
DICTIONARY
  5
14
330
A
100
AcDbDictionary
280
0
281
1
  0
DICTIONARY
  5
15
330
A
100
AcDbDictionary
280
0
281
1
  0
DICTIONARY
  5
16
330
A
100
AcDbDictionary
280
0
281
1
  0
LAYOUT
  5
1A
330
D
100
AcDbPlotSettings
  1

  2
Adobe PDF
  4
A3
  6

 40
7.5
 41
20.0
 42
7.5
 43
20.0
 44
420.0
 45
297.0
 46
0.0
 47
0.0
 48
0.0
 49
0.0
140
0.0
141
0.0
142
1.0
143
1.0
 70
1024
 72
1
 73
0
 74
5
  7

 75
16
 76
0
 77
2
 78
300
147
1.0
148
0.0
149
0.0
100
AcDbLayout
  1
Model
 70
1
 71
0
 10
0.0
 20
0.0
 11
420.0
 21
297.0
 12
0.0
 22
0.0
 32
0.0
 14
1e+20
 24
1e+20
 34
1e+20
 15
-1e+20
 25
-1e+20
 35
-1e+20
146
0.0
 13
0.0
 23
0.0
 33
0.0
 16
1.0
 26
0.0
 36
0.0
 17
0.0
 27
1.0
 37
0.0
 76
1
330
17
  0
LAYOUT
  5
1E
330
D
100
AcDbPlotSettings
  1

  2
Adobe PDF
  4
A3
  6

 40
7.5
 41
20.0
 42
7.5
 43
20.0
 44
420.0
 45
297.0
 46
0.0
 47
0.0
 48
0.0
 49
0.0
140
0.0
141
0.0
142
1.0
143
1.0
 70
0
 72
1
 73
0
 74
5
  7

 75
16
 76
0
 77
2
 78
300
147
1.0
148
0.0
149
0.0
100
AcDbLayout
  1
Layout1
 70
1
 71
1
 10
0.0
 20
0.0
 11
420.0
 21
297.0
 12
0.0
 22
0.0
 32
0.0
 14
1e+20
 24
1e+20
 34
1e+20
 15
-1e+20
 25
-1e+20
 35
-1e+20
146
0.0
 13
0.0
 23
0.0
 33
0.0
 16
1.0
 26
0.0
 36
0.0
 17
0.0
 27
1.0
 37
0.0
 76
1
330
1B
  0
MATERIAL
  5
1F
102
{ACAD_REACTORS
330
E
102
}
330
E
100
AcDbMaterial
  1
ByBlock
  2

 70
0
 40
1.0
 71
1
 41
1.0
 91
-1023410177
 42
1.0
 72
1
  3

 73
1
 74
1
 75
1
 44
0.5
 73
0
 45
1.0
 46
1.0
 77
1
  4

 78
1
 79
1
170
1
 48
1.0
171
1
  6

172
1
173
1
174
1
140
1.0
141
1.0
175
1
  7

176
1
177
1
178
1
143
1.0
179
1
  8

270
1
271
1
272
1
145
1.0
146
1.0
273
1
  9

274
1
275
1
276
1
 42
1.0
 72
1
  3

 73
1
 74
1
 75
1
 94
63
  0
MATERIAL
  5
20
102
{ACAD_REACTORS
330
E
102
}
330
E
100
AcDbMaterial
  1
ByLayer
  2

 70
0
 40
1.0
 71
1
 41
1.0
 91
-1023410177
 42
1.0
 72
1
  3

 73
1
 74
1
 75
1
 44
0.5
 73
0
 45
1.0
 46
1.0
 77
1
  4

 78
1
 79
1
170
1
 48
1.0
171
1
  6

172
1
173
1
174
1
140
1.0
141
1.0
175
1
  7

176
1
177
1
178
1
143
1.0
179
1
  8

270
1
271
1
272
1
145
1.0
146
1.0
273
1
  9

274
1
275
1
276
1
 42
1.0
 72
1
  3

 73
1
 74
1
 75
1
 94
63
  0
MATERIAL
  5
21
102
{ACAD_REACTORS
330
E
102
}
330
E
100
AcDbMaterial
  1
Global
  2

 70
0
 40
1.0
 71
1
 41
1.0
 91
-1023410177
 42
1.0
 72
1
  3

 73
1
 74
1
 75
1
 44
0.5
 73
0
 45
1.0
 46
1.0
 77
1
  4

 78
1
 79
1
170
1
 48
1.0
171
1
  6

172
1
173
1
174
1
140
1.0
141
1.0
175
1
  7

176
1
177
1
178
1
143
1.0
179
1
  8

270
1
271
1
272
1
145
1.0
146
1.0
273
1
  9

274
1
275
1
276
1
 42
1.0
 72
1
  3

 73
1
 74
1
 75
1
 94
63
  0
MLINESTYLE
  5
22
102
{ACAD_REACTORS
330
10
102
}
330
10
100
AcDbMlineStyle
  2
Standard
 70
0
  3

 62
256
 51
90.0
 52
90.0
 71
2
 49
0.5
 62
256
  6
BYLAYER
 49
-0.5
 62
256
  6
BYLAYER
  0
MLEADERSTYLE
  5
2C
102
{ACAD_REACTORS
330
F
102
}
330
F
100
AcDbMLeaderStyle
179
2
170
2
171
1
172
0
 90
2
 40
0.0
 41
0.0
173
1
 91
-1056964608
 92
-2
290
1
 42
2.0
291
1
 43
8.0
  3
Standard
 44
4.0
300

342
29
174
1
175
1
176
0
178
1
 93
-1056964608
 45
4.0
292
0
297
0
 46
4.0
 94
-1056964608
 47
1.0
 49
1.0
140
1.0
294
1
141
0.0
177
0
142
1.0
295
0
296
0
143
3.75
271
0
272
9
273
9
  0
DICTIONARY
  5
2D
330
A
100
AcDbDictionary
281
1
  3
CREATED_BY_EZDXF
350
2E
  3
WRITTEN_BY_EZDXF
350
56
  0
DICTIONARYVAR
  5
2E
330
2D
100
DictionaryVariables
280
0
  1
1.1.2 @ 2023-11-14T21:35:50.270116+00:00
  0
DICTIONARYVAR
  5
56
330
2D
100
DictionaryVariables
280
0
  1
1.1.2 @ 2023-11-14T21:35:50.274520+00:00
  0
ENDSEC
  0
EOF
