  0
SECTION
  2
HEADER
  9
$ACADVER
  1
AC1032
  9
$ACADMAINTVER
 90
4
  9
$DWGCODEPAGE
  3
ANSI_1252
  9
$LASTSAVEDBY
  1
ezdxf
  9
$REQUIREDVERSIONS
160
0
  9
$INSBASE
 10
0.0
 20
0.0
 30
0.0
  9
$EXTMIN
 10
1e+20
 20
1e+20
 30
1e+20
  9
$EXTMAX
 10
-1e+20
 20
-1e+20
 30
-1e+20
  9
$LIMMIN
 10
0.0
 20
0.0
  9
$LIMMAX
 10
420.0
 20
297.0
  9
$ORTHOMODE
 70
0
  9
$REGENMODE
 70
1
  9
$FILLMODE
 70
1
  9
$QTEXTMODE
 70
0
  9
$MIRRTEXT
 70
1
  9
$LTSCALE
 40
1.0
  9
$ATTMODE
 70
1
  9
$TEXTSIZE
 40
2.5
  9
$TRACEWID
 40
1.0
  9
$TEXTSTYLE
  7
Standard
  9
$CLAYER
  8
0
  9
$CELTYPE
  6
ByLayer
  9
$CECOLOR
 62
256
  9
$CELTSCALE
 40
1.0
  9
$DISPSILH
 70
0
  9
$DIMSCALE
 40
1.0
  9
$DIMASZ
 40
2.5
  9
$DIMEXO
 40
0.625
  9
$DIMDLI
 40
3.75
  9
$DIMRND
 40
0.0
  9
$DIMDLE
 40
0.0
  9
$DIMEXE
 40
1.25
  9
$DIMTP
 40
0.0
  9
$DIMTM
 40
0.0
  9
$DIMTXT
 40
2.5
  9
$DIMCEN
 40
2.5
  9
$DIMTSZ
 40
0.0
  9
$DIMTOL
 70
0
  9
$DIMLIM
 70
0
  9
$DIMTIH
 70
0
  9
$DIMTOH
 70
0
  9
$DIMSE1
 70
0
  9
$DIMSE2
 70
0
  9
$DIMTAD
 70
1
  9
$DIMZIN
 70
8
  9
$DIMBLK
  1

  9
$DIMASO
 70
1
  9
$DIMSHO
 70
1
  9
$DIMPOST
  1

  9
$DIMAPOST
  1

  9
$DIMALT
 70
0
  9
$DIMALTD
 70
3
  9
$DIMALTF
 40
0.03937007874
  9
$DIMLFAC
 40
1.0
  9
$DIMTOFL
 70
1
  9
$DIMTVP
 40
0.0
  9
$DIMTIX
 70
0
  9
$DIMSOXD
 70
0
  9
$DIMSAH
 70
0
  9
$DIMBLK1
  1

  9
$DIMBLK2
  1

  9
$DIMSTYLE
  2
ISO-25
  9
$DIMCLRD
 70
0
  9
$DIMCLRE
 70
0
  9
$DIMCLRT
 70
0
  9
$DIMTFAC
 40
1.0
  9
$DIMGAP
 40
0.625
  9
$DIMJUST
 70
0
  9
$DIMSD1
 70
0
  9
$DIMSD2
 70
0
  9
$DIMTOLJ
 70
0
  9
$DIMTZIN
 70
8
  9
$DIMALTZ
 70
0
  9
$DIMALTTZ
 70
0
  9
$DIMUPT
 70
0
  9
$DIMDEC
 70
2
  9
$DIMTDEC
 70
2
  9
$DIMALTU
 70
2
  9
$DIMALTTD
 70
3
  9
$DIMTXSTY
  7
Standard
  9
$DIMAUNIT
 70
0
  9
$DIMADEC
 70
0
  9
$DIMALTRND
 40
0.0
  9
$DIMAZIN
 70
0
  9
$DIMDSEP
 70
44
  9
$DIMATFIT
 70
3
  9
$DIMFRAC
 70
0
  9
$DIMLDRBLK
  1

  9
$DIMLUNIT
 70
2
  9
$DIMLWD
 70
-2
  9
$DIMLWE
 70
-2
  9
$DIMTMOVE
 70
0
  9
$DIMFXL
 40
1.0
  9
$DIMFXLON
 70
0
  9
$DIMJOGANG
 40
0.785398163397
  9
$DIMTFILL
 70
0
  9
$DIMTFILLCLR
 70
0
  9
$DIMARCSYM
 70
0
  9
$DIMLTYPE
  6

  9
$DIMLTEX1
  6

  9
$DIMLTEX2
  6

  9
$DIMTXTDIRECTION
 70
0
  9
$LUNITS
 70
2
  9
$LUPREC
 70
4
  9
$SKETCHINC
 40
1.0
  9
$FILLETRAD
 40
10.0
  9
$AUNITS
 70
0
  9
$AUPREC
 70
2
  9
$MENU
  1
.
  9
$ELEVATION
 40
0.0
  9
$PELEVATION
 40
0.0
  9
$THICKNESS
 40
0.0
  9
$LIMCHECK
 70
0
  9
$CHAMFERA
 40
0.0
  9
$CHAMFERB
 40
0.0
  9
$CHAMFERC
 40
0.0
  9
$CHAMFERD
 40
0.0
  9
$SKPOLY
 70
0
  9
$TDCREATE
 40
2460263.9000694444
  9
$TDUCREATE
 40
2458532.153996898
  9
$TDUPDATE
 40
2460263.9000694444
  9
$TDUUPDATE
 40
2458532.1544311
  9
$TDINDWG
 40
0.0
  9
$TDUSRTIMER
 40
0.0
  9
$USRTIMER
 70
1
  9
$ANGBASE
 50
0.0
  9
$ANGDIR
 70
0
  9
$PDMODE
 70
0
  9
$PDSIZE
 40
0.0
  9
$PLINEWID
 40
0.0
  9
$SPLFRAME
 70
0
  9
$SPLINETYPE
 70
6
  9
$SPLINESEGS
 70
8
  9
$HANDSEED
  5
103
  9
$SURFTAB1
 70
6
  9
$SURFTAB2
 70
6
  9
$SURFTYPE
 70
6
  9
$SURFU
 70
6
  9
$SURFV
 70
6
  9
$UCSBASE
  2

  9
$UCSNAME
  2

  9
$UCSORG
 10
0.0
 20
0.0
 30
0.0
  9
$UCSXDIR
 10
1.0
 20
0.0
 30
0.0
  9
$UCSYDIR
 10
0.0
 20
1.0
 30
0.0
  9
$UCSORTHOREF
  2

  9
$UCSORTHOVIEW
 70
0
  9
$UCSORGTOP
 10
0.0
 20
0.0
 30
0.0
  9
$UCSORGBOTTOM
 10
0.0
 20
0.0
 30
0.0
  9
$UCSORGLEFT
 10
0.0
 20
0.0
 30
0.0
  9
$UCSORGRIGHT
 10
0.0
 20
0.0
 30
0.0
  9
$UCSORGFRONT
 10
0.0
 20
0.0
 30
0.0
  9
$UCSORGBACK
 10
0.0
 20
0.0
 30
0.0
  9
$PUCSBASE
  2

  9
$PUCSNAME
  2

  9
$PUCSORG
 10
0.0
 20
0.0
 30
0.0
  9
$PUCSXDIR
 10
1.0
 20
0.0
 30
0.0
  9
$PUCSYDIR
 10
0.0
 20
1.0
 30
0.0
  9
$PUCSORTHOREF
  2

  9
$PUCSORTHOVIEW
 70
0
  9
$PUCSORGTOP
 10
0.0
 20
0.0
 30
0.0
  9
$PUCSORGBOTTOM
 10
0.0
 20
0.0
 30
0.0
  9
$PUCSORGLEFT
 10
0.0
 20
0.0
 30
0.0
  9
$PUCSORGRIGHT
 10
0.0
 20
0.0
 30
0.0
  9
$PUCSORGFRONT
 10
0.0
 20
0.0
 30
0.0
  9
$PUCSORGBACK
 10
0.0
 20
0.0
 30
0.0
  9
$USERI1
 70
0
  9
$USERI2
 70
0
  9
$USERI3
 70
0
  9
$USERI4
 70
0
  9
$USERI5
 70
0
  9
$USERR1
 40
0.0
  9
$USERR2
 40
0.0
  9
$USERR3
 40
0.0
  9
$USERR4
 40
0.0
  9
$USERR5
 40
0.0
  9
$WORLDVIEW
 70
1
  9
$SHADEDGE
 70
3
  9
$SHADEDIF
 70
70
  9
$TILEMODE
 70
1
  9
$MAXACTVP
 70
64
  9
$PINSBASE
 10
0.0
 20
0.0
 30
0.0
  9
$PLIMCHECK
 70
0
  9
$PEXTMIN
 10
1e+20
 20
1e+20
 30
1e+20
  9
$PEXTMAX
 10
-1e+20
 20
-1e+20
 30
-1e+20
  9
$PLIMMIN
 10
0.0
 20
0.0
  9
$PLIMMAX
 10
420.0
 20
297.0
  9
$UNITMODE
 70
0
  9
$VISRETAIN
 70
1
  9
$PLINEGEN
 70
0
  9
$PSLTSCALE
 70
1
  9
$TREEDEPTH
 70
3020
  9
$CMLSTYLE
  2
Standard
  9
$CMLJUST
 70
0
  9
$CMLSCALE
 40
20.0
  9
$PROXYGRAPHICS
 70
1
  9
$MEASUREMENT
 70
1
  9
$CELWEIGHT
370
-1
  9
$ENDCAPS
280
0
  9
$JOINSTYLE
280
0
  9
$LWDISPLAY
290
0
  9
$INSUNITS
 70
6
  9
$HYPERLINKBASE
  1

  9
$STYLESHEET
  1

  9
$XEDIT
290
1
  9
$CEPSNTYPE
380
0
  9
$PSTYLEMODE
290
1
  9
$FINGERPRINTGUID
  2
{50F7A339-3D85-40EB-AA9A-D27E868EE1FA}
  9
$VERSIONGUID
  2
{2F0E325F-9DA4-4D95-9690-72BDFA136A5E}
  9
$EXTNAMES
290
1
  9
$PSVPSCALE
 40
0.0
  9
$OLESTARTUP
290
0
  9
$SORTENTS
280
127
  9
$INDEXCTL
280
0
  9
$HIDETEXT
280
1
  9
$XCLIPFRAME
280
0
  9
$HALOGAP
280
0
  9
$OBSCOLOR
 70
257
  9
$OBSLTYPE
280
0
  9
$INTERSECTIONDISPLAY
280
0
  9
$INTERSECTIONCOLOR
 70
257
  9
$DIMASSOC
280
2
  9
$PROJECTNAME
  1

  9
$CAMERADISPLAY
290
0
  9
$LENSLENGTH
 40
50.0
  9
$CAMERAHEIGHT
 40
0.0
  9
$STEPSPERSEC
 40
24.0
  9
$STEPSIZE
 40
100.0
  9
$3DDWFPREC
 40
2.0
  9
$PSOLWIDTH
 40
0.005
  9
$PSOLHEIGHT
 40
0.08
  9
$LOFTANG1
 40
1.570796326795
  9
$LOFTANG2
 40
1.570796326795
  9
$LOFTMAG1
 40
0.0
  9
$LOFTMAG2
 40
0.0
  9
$LOFTPARAM
 70
7
  9
$LOFTNORMALS
280
1
  9
$LATITUDE
 40
37.795
  9
$LONGITUDE
 40
-122.394
  9
$NORTHDIRECTION
 40
0.0
  9
$TIMEZONE
 70
-8000
  9
$LIGHTGLYPHDISPLAY
280
1
  9
$TILEMODELIGHTSYNCH
280
1
  9
$CMATERIAL
347
20
  9
$SOLIDHIST
280
0
  9
$SHOWHIST
280
1
  9
$DWFFRAME
280
2
  9
$DGNFRAME
280
2
  9
$REALWORLDSCALE
290
1
  9
$INTERFERECOLOR
 62
256
  9
$CSHADOW
280
0
  9
$SHADOWPLANELOCATION
 40
0.0
  0
ENDSEC
  0
SECTION
  2
CLASSES
  0
CLASS
  1
ACDBDICTIONARYWDFLT
  2
AcDbDictionaryWithDefault
  3
ObjectDBX Classes
 90
0
 91
0
280
0
281
0
  0
CLASS
  1
SUN
  2
AcDbSun
  3
SCENEOE
 90
1153
 91
0
280
0
281
0
  0
CLASS
  1
VISUALSTYLE
  2
AcDbVisualStyle
  3
ObjectDBX Classes
 90
4095
 91
0
280
0
281
0
  0
CLASS
  1
MATERIAL
  2
AcDbMaterial
  3
ObjectDBX Classes
 90
1153
 91
0
280
0
281
0
  0
CLASS
  1
SCALE
  2
AcDbScale
  3
ObjectDBX Classes
 90
1153
 91
0
280
0
281
0
  0
CLASS
  1
TABLESTYLE
  2
AcDbTableStyle
  3
ObjectDBX Classes
 90
4095
 91
0
280
0
281
0
  0
CLASS
  1
MLEADERSTYLE
  2
AcDbMLeaderStyle
  3
ACDB_MLEADERSTYLE_CLASS
 90
4095
 91
0
280
0
281
0
  0
CLASS
  1
DICTIONARYVAR
  2
AcDbDictionaryVar
  3
ObjectDBX Classes
 90
0
 91
0
280
0
281
0
  0
CLASS
  1
CELLSTYLEMAP
  2
AcDbCellStyleMap
  3
ObjectDBX Classes
 90
1152
 91
0
280
0
281
0
  0
CLASS
  1
MENTALRAYRENDERSETTINGS
  2
AcDbMentalRayRenderSettings
  3
SCENEOE
 90
1024
 91
0
280
0
281
0
  0
CLASS
  1
ACDBDETAILVIEWSTYLE
  2
AcDbDetailViewStyle
  3
ObjectDBX Classes
 90
1025
 91
0
280
0
281
0
  0
CLASS
  1
ACDBSECTIONVIEWSTYLE
  2
AcDbSectionViewStyle
  3
ObjectDBX Classes
 90
1025
 91
0
280
0
281
0
  0
CLASS
  1
RASTERVARIABLES
  2
AcDbRasterVariables
  3
ISM
 90
0
 91
0
280
0
281
0
  0
CLASS
  1
LAYOUT
  2
AcDbLayout
  3
ObjectDBX Classes
 90
0
 91
0
280
0
281
0
  0
CLASS
  1
ACDBPLACEHOLDER
  2
AcDbPlaceHolder
  3
ObjectDBX Classes
 90
0
 91
0
280
0
281
0
  0
ENDSEC
  0
SECTION
  2
TABLES
  0
TABLE
  2
VPORT
  5
8
330
0
100
AcDbSymbolTable
 70
1
  0
VPORT
  5
23
330
8
100
AcDbSymbolTableRecord
100
AcDbViewportTableRecord
  2
*Active
 70
0
 10
0.0
 20
0.0
 11
1.0
 21
1.0
 12
0.0
 22
0.0
 13
0.0
 23
0.0
 14
0.5
 24
0.5
 15
0.5
 25
0.5
 16
0.0
 26
0.0
 36
1.0
 17
0.0
 27
0.0
 37
0.0
 40
1000.0
 41
1.34
 42
50.0
 43
0.0
 44
0.0
 50
0.0
 51
0.0
 71
0
 72
1000
 73
1
 74
3
 75
0
 76
0
 77
0
 78
0
281
0
 65
0
146
0.0
  0
ENDTAB
  0
TABLE
  2
LTYPE
  5
2
330
0
100
AcDbSymbolTable
 70
3
  0
LTYPE
  5
24
330
2
100
AcDbSymbolTableRecord
100
AcDbLinetypeTableRecord
  2
ByBlock
 70
0
  3

 72
65
 73
0
 40
0.0
  0
LTYPE
  5
25
330
2
100
AcDbSymbolTableRecord
100
AcDbLinetypeTableRecord
  2
ByLayer
 70
0
  3

 72
65
 73
0
 40
0.0
  0
LTYPE
  5
26
330
2
100
AcDbSymbolTableRecord
100
AcDbLinetypeTableRecord
  2
Continuous
 70
0
  3

 72
65
 73
0
 40
0.0
  0
ENDTAB
  0
TABLE
  2
LAYER
  5
1
330
0
100
AcDbSymbolTable
 70
3
  0
LAYER
  5
27
330
1
100
AcDbSymbolTableRecord
100
AcDbLayerTableRecord
  2
0
 70
0
 62
7
  6
Continuous
370
-3
390
13
347
21
  0
LAYER
  5
28
330
1
100
AcDbSymbolTableRecord
100
AcDbLayerTableRecord
  2
Defpoints
 70
0
 62
7
  6
Continuous
290
0
370
-3
390
13
347
21
  0
LAYER
  5
FF
330
1
100
AcDbSymbolTableRecord
100
AcDbLayerTableRecord
  2
AREE LEONARDO
 70
0
 62
5
  6
Continuous
370
-3
390
8
347
B
  0
ENDTAB
  0
TABLE
  2
STYLE
  5
5
330
0
100
AcDbSymbolTable
 70
1
  0
STYLE
  5
29
330
5
100
AcDbSymbolTableRecord
100
AcDbTextStyleTableRecord
  2
Standard
 70
0
 40
0.0
 41
1.0
 50
0.0
 71
0
 42
2.5
  3
txt
  4

  0
ENDTAB
  0
TABLE
  2
VIEW
  5
7
330
0
100
AcDbSymbolTable
 70
0
  0
ENDTAB
  0
TABLE
  2
UCS
  5
6
330
0
100
AcDbSymbolTable
 70
0
  0
ENDTAB
  0
TABLE
  2
APPID
  5
3
330
0
100
AcDbSymbolTable
 70
3
  0
APPID
  5
2A
330
3
100
AcDbSymbolTableRecord
100
AcDbRegAppTableRecord
  2
ACAD
 70
0
  0
APPID
  5
100
330
3
100
AcDbSymbolTableRecord
100
AcDbRegAppTableRecord
  2
HATCHBACKGROUNDCOLOR
 70
0
  0
APPID
  5
101
330
3
100
AcDbSymbolTableRecord
100
AcDbRegAppTableRecord
  2
EZDXF
 70
0
  0
ENDTAB
  0
TABLE
  2
DIMSTYLE
  5
4
330
0
100
AcDbSymbolTable
 70
1
100
AcDbDimStyleTable
  0
DIMSTYLE
105
2B
330
4
100
AcDbSymbolTableRecord
100
AcDbDimStyleTableRecord
  2
Standard
 70
0
 40
1.0
 41
2.5
 42
0.625
 43
3.75
 44
1.25
 45
0.0
 46
0.0
 47
0.0
 48
0.0
 49
2.5
140
2.5
141
2.5
142
0.0
143
0.03937007874
144
1.0
145
0.0
146
1.0
147
0.625
148
0.0
 69
0
 70
0
 71
0
 72
0
 73
0
 74
0
 75
0
 76
0
 77
1
 78
8
 79
3
170
0
171
3
172
1
173
0
174
0
175
0
176
0
177
0
178
0
179
2
271
2
272
2
273
2
274
3
275
0
276
0
277
2
278
44
279
0
280
0
281
0
282
0
283
0
284
8
285
0
286
0
288
0
289
3
290
0
371
-2
372
-2
  0
ENDTAB
  0
TABLE
  2
BLOCK_RECORD
  5
9
330
0
100
AcDbSymbolTable
 70
2
  0
BLOCK_RECORD
  5
17
330
9
100
AcDbSymbolTableRecord
100
AcDbBlockTableRecord
  2
*Model_Space
340
1A
 70
0
280
1
281
0
  0
BLOCK_RECORD
  5
1B
330
9
100
AcDbSymbolTableRecord
100
AcDbBlockTableRecord
  2
*Paper_Space
340
1E
 70
0
280
1
281
0
  0
ENDTAB
  0
ENDSEC
  0
SECTION
  2
BLOCKS
  0
BLOCK
  5
18
330
17
100
AcDbEntity
  8
0
100
AcDbBlockBegin
  2
*Model_Space
 70
0
 10
0.0
 20
0.0
 30
0.0
  3
*Model_Space
  1

  0
ENDBLK
  5
19
330
17
100
AcDbEntity
  8
0
100
AcDbBlockEnd
  0
BLOCK
  5
1C
330
1B
100
AcDbEntity
  8
0
100
AcDbBlockBegin
  2
*Paper_Space
 70
0
 10
0.0
 20
0.0
 30
0.0
  3
*Paper_Space
  1

  0
ENDBLK
  5
1D
330
1B
100
AcDbEntity
  8
0
100
AcDbBlockEnd
  0
ENDSEC
  0
SECTION
  2
ENTITIES
  0
LWPOLYLINE
  5
2F
330
17
100
AcDbEntity
  8
AREE LEONARDO
 62
1
100
AcDbPolyline
 90
4
 70
1
 10
7549.629324849608
 20
477.2358799146259
 10
7549.629324849608
 20
557.2358797952141
 10
7469.629324969017
 20
557.2358797952141
 10
7469.629324969017
 20
477.2358799146259
  0
LWPOLYLINE
  5
30
330
17
100
AcDbEntity
  8
AREE LEONARDO
 62
5
100
AcDbPolyline
 90
4
 70
1
 10
7514.619514110949
 20
306.7316641290836
 10
7514.619514110949
 20
386.7316640096719
 10
7434.619514230359
 20
386.7316640096719
 10
7434.619514230359
 20
306.7316641290836
  0
LWPOLYLINE
  5
31
330
17
100
AcDbEntity
  8
AREE LEONARDO
 62
1
100
AcDbPolyline
 90
4
 70
1
 10
6890.759062665202
 20
-14.92023059718258
 10
6890.759062665202
 20
65.07976928340577
 10
6810.759062784611
 20
65.07976928340577
 10
6810.759062784611
 20
-14.92023059718258
  0
LWPOLYLINE
  5
32
330
17
100
AcDbEntity
  8
AREE LEONARDO
 62
5
100
AcDbPolyline
 90
4
 70
1
 10
6890.759062665202
 20
135.2152071952096
 10
6890.759062665202
 20
215.2152070757979
 10
6810.759062784611
 20
215.2152070757979
 10
6810.759062784611
 20
135.2152071952096
  0
LWPOLYLINE
  5
33
330
17
100
AcDbEntity
  8
AREE LEONARDO
 62
1
100
AcDbPolyline
 90
4
 70
1
 10
5947.920570513889
 20
13.89753291207489
 10
5947.920570513889
 20
93.89753279266324
 10
5867.920570633298
 20
93.89753279266324
 10
5867.920570633298
 20
13.89753291207489
  0
LWPOLYLINE
  5
34
330
17
100
AcDbEntity
  8
AREE LEONARDO
 62
5
100
AcDbPolyline
 90
4
 70
1
 10
5910.821283037163
 20
133.0856177343466
 10
5910.821283037163
 20
213.085617614935
 10
5830.821283156573
 20
213.085617614935
 10
5830.821283156573
 20
133.0856177343466
  0
LWPOLYLINE
  5
35
330
17
100
AcDbEntity
  8
AREE LEONARDO
 62
1
100
AcDbPolyline
 90
4
 70
1
 10
5246.647171668344
 20
23.42132049372594
 10
5246.647171668344
 20
103.4213203743143
 10
5166.647171787754
 20
103.4213203743143
 10
5166.647171787754
 20
23.42132049372594
  0
LWPOLYLINE
  5
36
330
17
100
AcDbEntity
  8
AREE LEONARDO
 62
5
100
AcDbPolyline
 90
4
 70
1
 10
5253.216214480461
 20
140.7614673663938
 10
5253.216214480461
 20
220.7614672469822
 10
5173.21621459987
 20
220.7614672469822
 10
5173.21621459987
 20
140.7614673663938
  0
LWPOLYLINE
  5
37
330
17
100
AcDbEntity
  8
AREE LEONARDO
 62
5
100
AcDbPolyline
 90
4
 70
1
 10
4686.376556863862
 20
515.7288336654401
 10
4686.376556863862
 20
595.7288335460285
 10
4606.376556983272
 20
595.7288335460285
 10
4606.376556983272
 20
515.7288336654401
  0
LWPOLYLINE
  5
38
330
17
100
AcDbEntity
  8
AREE LEONARDO
 62
1
100
AcDbPolyline
 90
4
 70
1
 10
4651.785953057842
 20
656.144643241505
 10
4651.785953057842
 20
736.1446431220933
 10
4571.785953177252
 20
736.1446431220933
 10
4571.785953177252
 20
656.144643241505
  0
LWPOLYLINE
  5
39
330
17
100
AcDbEntity
  8
AREE LEONARDO
 62
1
100
AcDbPolyline
 90
4
 70
1
 10
4332.338471725278
 20
529.260796362063
 10
4332.338471725278
 20
609.2607962426513
 10
4252.338471844686
 20
609.2607962426513
 10
4252.338471844686
 20
529.260796362063
  0
LWPOLYLINE
  5
3A
330
17
100
AcDbEntity
  8
AREE LEONARDO
 62
1
100
AcDbPolyline
 90
4
 70
1
 10
4057.021965669643
 20
527.7839306453188
 10
4057.021965669643
 20
607.7839305259072
 10
3977.021965789052
 20
607.7839305259072
 10
3977.021965789052
 20
527.7839306453188
  0
LWPOLYLINE
  5
3B
330
17
100
AcDbEntity
  8
AREE LEONARDO
 62
5
100
AcDbPolyline
 90
4
 70
1
 10
3672.735518293615
 20
527.8491411110608
 10
3672.735518293615
 20
607.849140991649
 10
3592.735518413024
 20
607.849140991649
 10
3592.735518413024
 20
527.8491411110608
  0
LWPOLYLINE
  5
3C
330
17
100
AcDbEntity
  8
AREE LEONARDO
 62
1
100
AcDbPolyline
 90
4
 70
1
 10
3709.920818433689
 20
659.9937475422357
 10
3709.920818433689
 20
739.9937474228241
 10
3629.920818553099
 20
739.9937474228241
 10
3629.920818553099
 20
659.9937475422357
  0
LWPOLYLINE
  5
3D
330
17
100
AcDbEntity
  8
AREE LEONARDO
 62
1
100
AcDbPolyline
 90
4
 70
1
 10
3345.034914846084
 20
-0.1702431962662558
 10
3345.034914846084
 20
79.82975668432209
 10
3265.034914965493
 20
79.82975668432209
 10
3265.034914965493
 20
-0.1702431962662558
  0
LWPOLYLINE
  5
3E
330
17
100
AcDbEntity
  8
AREE LEONARDO
 62
5
100
AcDbPolyline
 90
4
 70
1
 10
3316.75421115414
 20
132.7353866306312
 10
3316.75421115414
 20
212.7353865112195
 10
3236.75421127355
 20
212.7353865112195
 10
3236.75421127355
 20
132.7353866306312
  0
LWPOLYLINE
  5
3F
330
17
100
AcDbEntity
  8
AREE LEONARDO
 62
1
100
AcDbPolyline
 90
4
 70
1
 10
2075.772736821629
 20
649.3599016572134
 10
2075.772736821629
 20
729.3599015378016
 10
1995.772736941038
 20
729.3599015378016
 10
1995.772736941038
 20
649.3599016572134
  0
LWPOLYLINE
  5
40
330
17
100
AcDbEntity
  8
AREE LEONARDO
 62
5
100
AcDbPolyline
 90
4
 70
1
 10
2125.137804628888
 20
447.7166305842201
 10
2125.137804628888
 20
527.7166304648085
 10
2045.137804748297
 20
527.7166304648085
 10
2045.137804748297
 20
447.7166305842201
  0
LWPOLYLINE
  5
41
330
17
100
AcDbEntity
  8
AREE LEONARDO
 62
1
100
AcDbPolyline
 90
4
 70
1
 10
1860.170007537876
 20
286.18663058422
 10
1860.170007537876
 20
366.1866304648083
 10
1780.170007657285
 20
366.1866304648083
 10
1780.170007657285
 20
286.18663058422
  0
LWPOLYLINE
  5
42
330
17
100
AcDbEntity
  8
AREE LEONARDO
 62
1
100
AcDbPolyline
 90
4
 70
1
 10
1589.468516670371
 20
338.1015057549639
 10
1589.468516670371
 20
418.1015056355522
 10
1509.46851678978
 20
418.1015056355522
 10
1509.46851678978
 20
338.1015057549639
  0
LWPOLYLINE
  5
43
330
17
100
AcDbEntity
  8
AREE LEONARDO
 62
5
100
AcDbPolyline
 90
4
 70
1
 10
1437.055185685443
 20
381.6308711206966
 10
1437.055185685443
 20
461.6308710012849
 10
1357.055185804852
 20
461.6308710012849
 10
1357.055185804852
 20
381.6308711206966
  0
LWPOLYLINE
  5
44
330
17
100
AcDbEntity
  8
AREE LEONARDO
 62
5
100
AcDbPolyline
 90
4
 70
1
 10
584.483120950157
 20
137.2056397233773
 10
584.483120950157
 20
217.2056396039657
 10
504.4831210695661
 20
217.2056396039657
 10
504.4831210695661
 20
137.2056397233773
  0
LWPOLYLINE
  5
45
330
17
100
AcDbEntity
  8
AREE LEONARDO
 62
1
100
AcDbPolyline
 90
4
 70
1
 10
591.5255987153648
 20
-10.73754338823892
 10
591.5255987153648
 20
69.26245649234941
 10
511.5255988347739
 20
69.26245649234941
 10
511.5255988347739
 20
-10.73754338823892
  0
LWPOLYLINE
  5
46
330
17
100
AcDbEntity
  8
AREE LEONARDO
 62
5
100
AcDbPolyline
 90
4
 70
1
 10
-217.8946232916972
 20
-63.77792995848176
 10
-217.8946232916972
 20
16.22206992210658
 10
-297.8946231722879
 20
16.22206992210658
 10
-297.8946231722879
 20
-63.77792995848176
  0
LWPOLYLINE
  5
47
330
17
100
AcDbEntity
  8
AREE LEONARDO
 62
1
100
AcDbPolyline
 90
4
 70
1
 10
-223.8466201089908
 20
52.55815597749642
 10
-223.8466201089908
 20
132.5581558580847
 10
-303.8466199895815
 20
132.5581558580847
 10
-303.8466199895815
 20
52.55815597749642
  0
LWPOLYLINE
  5
48
330
17
100
AcDbEntity
  8
AREE LEONARDO
 62
1
100
AcDbPolyline
 90
4
 70
1
 10
151.8939544172314
 20
409.0103587624562
 10
151.8939544172314
 20
489.0103586430446
 10
71.8939545366407
 20
489.0103586430446
 10
71.8939545366407
 20
409.0103587624562
  0
LWPOLYLINE
  5
49
330
17
100
AcDbEntity
  8
AREE LEONARDO
 62
5
100
AcDbPolyline
 90
4
 70
1
 10
126.2032670508049
 20
541.390596470419
 10
126.2032670508049
 20
621.3905963510073
 10
46.20326717021414
 20
621.3905963510073
 10
46.20326717021414
 20
541.390596470419
  0
LWPOLYLINE
  5
4A
330
17
100
AcDbEntity
  8
AREE LEONARDO
 62
5
100
AcDbPolyline
 90
4
 70
1
 10
-37.8946232916981
 20
1487.104859983368
 10
-37.8946232916981
 20
1567.104859863957
 10
-117.8946231722888
 20
1567.104859863957
 10
-117.8946231722888
 20
1487.104859983368
  0
LWPOLYLINE
  5
4B
330
17
100
AcDbEntity
  8
AREE LEONARDO
 62
1
100
AcDbPolyline
 90
4
 70
1
 10
-170.0658691218016
 20
1490.087900692837
 10
-170.0658691218016
 20
1570.087900573425
 10
-250.0658690023924
 20
1570.087900573425
 10
-250.0658690023924
 20
1490.087900692837
  0
LWPOLYLINE
  5
4C
330
17
100
AcDbEntity
  8
AREE LEONARDO
 62
1
100
AcDbPolyline
 90
4
 70
1
 10
516.789095916072
 20
1814.894070822478
 10
516.789095916072
 20
1894.894070703066
 10
436.7890960354812
 20
1894.894070703066
 10
436.7890960354812
 20
1814.894070822478
  0
LWPOLYLINE
  5
4D
330
17
100
AcDbEntity
  8
AREE LEONARDO
 62
5
100
AcDbPolyline
 90
4
 70
1
 10
401.9455856042183
 20
1813.289673245513
 10
401.9455856042183
 20
1893.289673126102
 10
321.9455857236277
 20
1893.289673126102
 10
321.9455857236277
 20
1813.289673245513
  0
LWPOLYLINE
  5
4E
330
17
100
AcDbEntity
  8
AREE LEONARDO
 62
5
100
AcDbPolyline
 90
4
 70
1
 10
-32.23252374333997
 20
2492.553251470186
 10
-32.23252374333997
 20
2572.553251350775
 10
-112.2325236239307
 20
2572.553251350775
 10
-112.2325236239307
 20
2492.553251470186
  0
LWPOLYLINE
  5
4F
330
17
100
AcDbEntity
  8
AREE LEONARDO
 62
1
100
AcDbPolyline
 90
4
 70
1
 10
-172.8197902386021
 20
2484.065744780632
 10
-172.8197902386021
 20
2564.06574466122
 10
-252.8197901191929
 20
2564.06574466122
 10
-252.8197901191929
 20
2484.065744780632
  0
LWPOLYLINE
  5
50
330
17
100
AcDbEntity
  8
AREE LEONARDO
 62
1
100
AcDbPolyline
 90
4
 70
1
 10
-162.8986446420898
 20
3164.989060054513
 10
-162.8986446420898
 20
3244.989059935102
 10
-242.8986445226805
 20
3244.989059935102
 10
-242.8986445226805
 20
3164.989060054513
  0
LWPOLYLINE
  5
51
330
17
100
AcDbEntity
  8
AREE LEONARDO
 62
5
100
AcDbPolyline
 90
4
 70
1
 10
218.2940036157353
 20
3168.567621936907
 10
218.2940036157353
 20
3248.567621817495
 10
138.2940037351446
 20
3248.567621817495
 10
138.2940037351446
 20
3168.567621936907
  0
LWPOLYLINE
  5
52
330
17
100
AcDbEntity
  8
AREE LEONARDO
 62
5
100
AcDbPolyline
 90
4
 70
1
 10
-39.15790485154075
 20
3176.222070041504
 10
-39.15790485154075
 20
3256.222069922092
 10
-119.1579047321315
 20
3256.222069922092
 10
-119.1579047321315
 20
3176.222070041504
  0
LWPOLYLINE
  5
53
330
17
100
AcDbEntity
  8
AREE LEONARDO
 62
1
100
AcDbPolyline
 90
4
 70
1
 10
215.3857128903321
 20
3356.222070041493
 10
215.3857128903321
 20
3436.222069922081
 10
135.3857130097413
 20
3436.222069922081
 10
135.3857130097413
 20
3356.222070041493
  0
LWPOLYLINE
  5
54
330
17
100
AcDbEntity
  8
AREE LEONARDO
 62
5
100
AcDbPolyline
 90
4
 70
1
 10
19.08797119094561
 20
518.8085267765528
 10
213.4333381640545
 20
518.8085267765528
 10
213.4333381640545
 20
636.381923931669
 10
19.08797119094561
 20
636.381923931669
  0
LWPOLYLINE
  5
55
330
17
100
AcDbEntity
  8
AREE LEONARDO
 62
5
100
AcDbPolyline
 90
10
 70
1
 10
7600.282400052687
 20
-29.47564191408947
 10
7619.593240071077
 20
-29.47561171296911
 10
7619.5932137379
 20
230.7799900564191
 10
7399.092563216114
 20
230.7799939664478
 10
7399.092563216114
 20
286.3568396979126
 10
7277.115768959601
 20
286.3568396979126
 10
7277.115768959639
 20
-132.1170568174857
 10
7619.593250456535
 20
-132.1170258220031
 10
7619.593243587407
 20
-64.22815391481754
 10
7600.282403920762
 20
-64.22818411593562
  0
LWPOLYLINE
  5
56
330
17
100
AcDbEntity
  8
AREE LEONARDO
 62
5
100
AcDbPolyline
 90
8
 70
1
 10
7620.599186012521
 20
420.2738435281735
 10
7414.092563216114
 20
420.2738435281735
 10
7414.092563216114
 20
245.7799939664483
 10
7622.093316453348
 20
245.7800150123744
 10
7622.093383324774
 20
278.856616860553
 10
7592.594395339097
 20
278.856432056883
 10
7592.593925483146
 20
353.8564307732099
 10
7620.599098796436
 20
353.8566155791018
  0
LWPOLYLINE
  5
57
330
17
100
AcDbEntity
  8
AREE LEONARDO
 62
5
100
AcDbPolyline
 90
14
 70
1
 10
7399.091905631528
 20
651.2448830737394
 10
7322.273763358765
 20
651.2447629342751
 10
7322.273725041393
 20
675.7451986385917
 10
6619.086652532946
 20
675.7415390022329
 10
6619.086652532946
 20
320.3477159286372
 10
7042.26748088119
 20
320.3477159286372
 10
7042.267452325434
 20
338.6064963331496
 10
7106.51522266902
 20
338.6065968132248
 10
7106.515251225353
 20
320.3477178835701
 10
7399.044699262411
 20
320.347717883571
 10
7399.092563216114
 20
420.2738435281735
 10
7219.092105603447
 20
420.2738435281735
 10
7219.092105603447
 20
435.2738435281735
 10
7399.092563216114
 20
435.2738435281735
  0
LWPOLYLINE
  5
58
330
17
100
AcDbEntity
  8
AREE LEONARDO
 62
5
100
AcDbPolyline
 90
4
 70
1
 10
6956.584918999813
 20
286.3221246335497
 10
7243.115773036127
 20
286.3221246335497
 10
7243.115773036127
 20
-132.1170568174857
 10
6956.584918999813
 20
-132.1170568174857
  0
LWPOLYLINE
  5
59
330
17
100
AcDbEntity
  8
AREE LEONARDO
 62
5
100
AcDbPolyline
 90
4
 70
1
 10
6941.584918999549
 20
123.3232716095167
 10
6748.577521327501
 20
123.3232716095167
 10
6748.577521327501
 20
286.3221246335502
 10
6941.584918999549
 20
286.3221246335502
  0
LWPOLYLINE
  5
5A
330
17
100
AcDbEntity
  8
AREE LEONARDO
 62
5
100
AcDbPolyline
 90
4
 70
1
 10
6733.577521327501
 20
286.3221246335502
 10
6311.687372702711
 20
286.3221246335502
 10
6311.687372702711
 20
-132.1172632801635
 10
6733.577521327501
 20
-132.1172632801635
  0
LWPOLYLINE
  5
5B
330
17
100
AcDbEntity
  8
AREE LEONARDO
 62
5
100
AcDbPolyline
 90
4
 70
1
 10
5984.588172609377
 20
286.3564788030403
 10
6284.158802186538
 20
286.3564788030403
 10
6284.158802186538
 20
-132.1152894310116
 10
5984.588172609377
 20
-132.1152894310116
  0
LWPOLYLINE
  5
5C
330
17
100
AcDbEntity
  8
AREE LEONARDO
 62
5
100
AcDbPolyline
 90
4
 70
1
 10
5788.594432738086
 20
286.3564788030403
 10
5969.588172607934
 20
286.3564788030403
 10
5969.588172607934
 20
123.3538007077841
 10
5788.594432738086
 20
123.3538007077841
  0
LWPOLYLINE
  5
5D
330
17
100
AcDbEntity
  8
AREE LEONARDO
 62
5
100
AcDbPolyline
 90
4
 70
1
 10
5366.29870403171
 20
286.382903992197
 10
5774.083941716445
 20
286.382903992197
 10
5774.083941716445
 20
-132.1152631899344
 10
5366.29870403171
 20
-132.1152631899344
  0
LWPOLYLINE
  5
5E
330
17
100
AcDbEntity
  8
AREE LEONARDO
 62
5
100
AcDbPolyline
 90
8
 70
1
 10
5146.745486905764
 20
286.3564812002674
 10
4621.884706221995
 20
286.3564812002678
 10
4621.884706222032
 20
-132.1152433830129
 10
5146.745505982736
 20
-132.1152433830134
 10
5146.745884458999
 20
109.8855310773847
 10
5086.745509779074
 20
109.8855310773847
 10
5086.745509779074
 20
137.3855307886624
 10
5146.745507763778
 20
137.3856246254486
  0
LWPOLYLINE
  5
5F
330
17
100
AcDbEntity
  8
AREE LEONARDO
 62
5
100
AcDbPolyline
 90
4
 70
1
 10
5161.745486905764
 20
286.3564812002674
 10
5332.29870810824
 20
286.3564812002674
 10
5332.29870810824
 20
128.111001782212
 10
5161.745486905764
 20
128.111001782212
  0
LWPOLYLINE
  5
60
330
17
100
AcDbEntity
  8
AREE LEONARDO
 62
5
100
AcDbPolyline
 90
7
 70
1
 10
4161.084581780379
 20
910.3839580407925
 10
4161.084581780379
 20
626.3053342370494
 10
4420.812938619191
 20
626.3053342370494
 10
4422.062938619192
 20
626.3053342370494
 10
4422.062938619192
 20
527.8839580407907
 10
4549.242125199412
 20
527.8839580407907
 10
4549.242125199412
 20
910.3839580407925
  0
LWPOLYLINE
  5
61
330
17
100
AcDbEntity
  8
AREE LEONARDO
 62
5
100
AcDbPolyline
 90
4
 70
1
 10
4958.594432738057
 20
910.3252423548156
 10
4751.491424244223
 20
910.3252423548156
 10
4751.491424244223
 20
499.405988261843
 10
4958.594432738057
 20
499.405988261843
  0
LWPOLYLINE
  5
62
330
17
100
AcDbEntity
  8
AREE LEONARDO
 62
5
100
AcDbPolyline
 90
6
 70
1
 10
4736.454727742174
 20
628.0796475414899
 10
4564.242125199412
 20
628.0796475414899
 10
4564.242125199413
 20
520.3839446776278
 10
4577.094403714967
 20
520.3839446776278
 10
4577.09431378792
 20
462.8838662040315
 10
4736.491424244223
 20
462.8838662040315
  0
LWPOLYLINE
  5
63
330
17
100
AcDbEntity
  8
AREE LEONARDO
 62
5
100
AcDbPolyline
 90
20
 70
1
 10
4832.763512925096
 20
484.405988261843
 10
4751.491424244223
 20
484.405988261843
 10
4751.491424244223
 20
447.8838818664339
 10
4602.884711021065
 20
447.8838701138661
 10
4602.884711021065
 20
431.8981184360636
 10
4587.884711021065
 20
431.8981184360636
 10
4587.884711021065
 20
447.8838701138661
 10
4522.094414889493
 20
447.8838701138661
 10
4522.094414889493
 20
512.8839580407907
 10
4422.065950087318
 20
512.8839580407907
 10
4422.065809931681
 20
423.2673138232476
 10
4391.195070395497
 20
423.2673621034319
 10
4391.195070395497
 20
445.3838818664335
 10
4161.084583564917
 20
445.3838818664335
 10
4161.084583564937
 20
-130.6171972063921
 10
4587.885354566104
 20
-132.1172106640842
 10
4587.884710942066
 20
344.0981184360631
 10
4602.884710942066
 20
344.0981184360631
 10
4602.884710942066
 20
320.3820797405651
 10
4832.735252542478
 20
320.3820797405651
  0
LWPOLYLINE
  5
64
330
17
100
AcDbEntity
  8
AREE LEONARDO
 62
5
100
AcDbPolyline
 90
4
 70
1
 10
3388.054766113305
 20
286.3830556540474
 10
3677.085177226609
 20
286.3830556540474
 10
3677.085177226609
 20
-132.1701832105791
 10
3388.054766113305
 20
-132.1701832105791
  0
LWPOLYLINE
  5
65
330
17
100
AcDbEntity
  8
AREE LEONARDO
 62
5
100
AcDbPolyline
 90
10
 70
1
 10
3711.085177686251
 20
-132.1445970649374
 10
4127.084581320758
 20
-132.1445970649383
 10
4127.085453269324
 20
425.3863476848868
 10
4104.587587920542
 20
425.3863828703442
 10
4104.587587920542
 20
445.3838818524709
 10
3866.006172423114
 20
445.3838818524709
 10
3866.006172423114
 20
507.883958039587
 10
3738.930048910233
 20
507.883958039587
 10
3738.930048910204
 20
447.8839580426938
 10
3712.085177686251
 20
447.8839580426938
  0
LWPOLYLINE
  5
66
330
17
100
AcDbEntity
  8
AREE LEONARDO
 62
5
100
AcDbPolyline
 90
6
 70
1
 10
3455.386537066636
 20
484.4059882618417
 10
3455.386537066636
 20
320.3830561136738
 10
3697.085177686251
 20
320.3830561136738
 10
3697.085177686251
 20
447.8839580426938
 10
3536.717446350705
 20
447.8839580426938
 10
3536.717446350705
 20
484.4059882618417
  0
LWPOLYLINE
  5
67
330
17
100
AcDbEntity
  8
AREE LEONARDO
 62
5
100
AcDbPolyline
 90
6
 70
1
 10
3738.930048910204
 20
910.383958040793
 10
3738.930048910204
 20
522.8839580395869
 10
3866.006172423114
 20
522.8839580395869
 10
3866.006172423114
 20
626.3052580499339
 10
4127.069140629283
 20
626.3052580499634
 10
4127.069140629283
 20
910.2456853560743
  0
LWPOLYLINE
  5
68
330
17
100
AcDbEntity
  8
AREE LEONARDO
 62
5
100
AcDbPolyline
 90
4
 70
1
 10
3551.717446353478
 20
637.8052690295117
 10
3723.930048910233
 20
637.8052690295117
 10
3723.930048910233
 20
462.8839580397434
 10
3551.717446353478
 20
462.8839580397434
  0
LWPOLYLINE
  5
69
330
17
100
AcDbEntity
  8
AREE LEONARDO
 62
5
100
AcDbPolyline
 90
4
 70
1
 10
3536.717446350705
 20
499.4059882618416
 10
3319.100988207969
 20
499.4059882618416
 10
3319.100988207969
 20
910.7995592528137
 10
3536.717446350705
 20
910.7995592528137
  0
LWPOLYLINE
  5
6A
330
17
100
AcDbEntity
  8
AREE LEONARDO
 62
5
100
AcDbPolyline
 90
4
 70
1
 10
3373.054766113305
 20
286.383055654047
 10
3188.054766116169
 20
286.383055654047
 10
3188.054766116169
 20
123.3472454893017
 10
3373.054766113305
 20
123.3472454893017
  0
LWPOLYLINE
  5
6B
330
17
100
AcDbEntity
  8
AREE LEONARDO
 62
5
100
AcDbPolyline
 90
6
 70
1
 10
2779.07210024122
 20
286.3854939141888
 10
2779.072139339594
 20
261.3856786121628
 10
2734.07210024122
 20
261.3856082345096
 10
2734.07210024122
 20
-132.172060277675
 10
3173.054766113305
 20
-132.172060277675
 10
3173.054766110548
 20
286.3830556540474
  0
LWPOLYLINE
  5
6C
330
17
100
AcDbEntity
  8
AREE LEONARDO
 62
5
100
AcDbPolyline
 90
10
 70
1
 10
2107.213749431571
 20
287.8854939085363
 10
2107.213749431571
 20
-132.1180443293574
 10
2700.085359471099
 20
-132.0891213668196
 10
2700.085359471099
 20
261.3856082552475
 10
2655.098580430224
 20
261.3856786121632
 10
2655.098619528603
 20
286.3854939141888
 10
2337.396788108868
 20
286.3854939141888
 10
2337.396788108868
 20
484.508105865872
 10
2178.794798190015
 20
484.508105865872
 10
2178.79479819607
 20
287.8854939085363
  0
LWPOLYLINE
  5
6D
330
17
100
AcDbEntity
  8
AREE LEONARDO
 62
5
100
AcDbPolyline
 90
6
 70
1
 10
1919.375300939192
 20
287.8854939085359
 10
1919.375300939192
 20
229.7434130186321
 10
1723.585351013398
 20
229.7434129205176
 10
1723.585351013399
 20
-132.1168505976343
 10
2092.213749431572
 20
-132.1180443293574
 10
2092.213749431572
 20
287.8854939085363
  0
LWPOLYLINE
  5
6E
330
17
100
AcDbEntity
  8
AREE LEONARDO
 62
5
100
AcDbPolyline
 90
4
 70
1
 10
2178.794798190015
 20
499.508105865872
 10
2412.085396616354
 20
499.508105865872
 10
2412.085396616354
 20
910.7929363956763
 10
2178.794798190015
 20
910.7929363956763
  0
LWPOLYLINE
  5
6F
330
17
100
AcDbEntity
  8
AREE LEONARDO
 62
5
100
AcDbPolyline
 90
6
 70
1
 10
1984.37542129437
 20
628.0796475415663
 10
1984.375436954696
 20
470.3838803682979
 10
1919.375300939192
 20
470.3838803682979
 10
1919.375300939192
 20
302.8854939085359
 10
2163.794798196069
 20
302.8854939085359
 10
2163.794798196069
 20
628.079647541771
  0
LWPOLYLINE
  5
70
330
17
100
AcDbEntity
  8
AREE LEONARDO
 62
5
100
AcDbPolyline
 90
6
 70
1
 10
1908.594477431413
 20
497.8833681663127
 10
1908.594477431413
 20
515.384276169405
 10
1969.37542129437
 20
515.384276169405
 10
1969.37542129437
 20
910.7995307673173
 10
1723.585351013399
 20
910.7995307673173
 10
1723.585351013399
 20
497.8833681663127
  0
LWPOLYLINE
  5
71
330
17
100
AcDbEntity
  8
AREE LEONARDO
 62
5
100
AcDbPolyline
 90
6
 70
1
 10
1338.742675168346
 20
910.8062866928886
 10
1338.742675168346
 20
633.0796481927046
 10
1473.455274442941
 20
633.0796481927046
 10
1473.455274442941
 20
507.883958039587
 10
1689.585355089927
 20
507.8839580395865
 10
1689.585355089928
 20
910.7995307673173
  0
LWPOLYLINE
  5
72
330
17
100
AcDbEntity
  8
AREE LEONARDO
 62
5
100
AcDbPolyline
 90
4
 70
1
 10
1338.742675168346
 20
618.0796481927046
 10
1458.455274442941
 20
618.0796481927046
 10
1458.455273363359
 20
274.7431594522168
 10
1338.742674088764
 20
274.7431594522168
  0
LWPOLYLINE
  5
73
330
17
100
AcDbEntity
  8
AREE LEONARDO
 62
5
100
AcDbPolyline
 90
8
 70
1
 10
1014.928107808748
 20
910.7995307673173
 10
1014.928107808748
 20
497.8833206831514
 10
1090.828107808723
 20
497.8833206831514
 10
1090.774079017419
 20
477.8839580395834
 10
1276.094728012058
 20
477.8863804744223
 10
1276.094493097262
 20
515.3842761694058
 10
1323.768926208169
 20
515.3845748376247
 10
1323.742675168346
 20
910.7995307673173
  0
LWPOLYLINE
  5
74
330
17
100
AcDbEntity
  8
AREE LEONARDO
 62
5
100
AcDbPolyline
 90
14
 70
1
 10
1090.774079017419
 20
462.8839580395833
 10
1090.774079017419
 20
320.3830515775185
 10
1206.085239050838
 20
320.3830515775189
 10
1206.085239050838
 20
-132.1170568328561
 10
1689.585355089926
 20
-132.1171218765648
 10
1689.585355089927
 20
204.7435272408366
 10
1644.585315991951
 20
204.7435976184902
 10
1644.585315991951
 20
229.7434129205176
 10
1458.45527336359
 20
229.7434129205176
 10
1458.455274442941
 20
259.7431594522168
 10
1338.742673009182
 20
259.7431594522168
 10
1338.742673009182
 20
229.7434129205176
 10
1323.742674088764
 20
229.7434129205176
 10
1323.587800440614
 20
462.8839580395833
  0
LWPOLYLINE
  5
75
330
17
100
AcDbEntity
  8
AREE LEONARDO
 62
5
100
AcDbPolyline
 90
4
 70
1
 10
613.1386804555196
 20
286.3830556540479
 10
1172.085243127366
 20
286.3830556540479
 10
1172.085243127366
 20
-132.1170568328561
 10
613.1386804555196
 20
-132.1170568328561
  0
LWPOLYLINE
  5
76
330
17
100
AcDbEntity
  8
AREE LEONARDO
 62
5
100
AcDbPolyline
 90
4
 70
1
 10
598.1386804555198
 20
286.3830556540479
 10
417.5854852291172
 20
286.3830556540479
 10
417.5854852291172
 20
127.8727107689078
 10
598.1386804555198
 20
127.8727107689078
  0
LWPOLYLINE
  5
77
330
17
100
AcDbEntity
  8
AREE LEONARDO
 62
3
100
AcDbPolyline
 90
6
 70
1
 10
4127.08458132076
 20
613.705334237049
 10
3881.106235220359
 20
613.705334237049
 10
3881.106819857485
 20
520.3835751353927
 10
3951.106224025746
 20
520.3840136638864
 10
3951.106224026041
 20
467.8839666782455
 10
4125.984527477388
 20
467.8839666782455
  0
LWPOLYLINE
  5
78
330
17
100
AcDbEntity
  8
AREE LEONARDO
 62
3
100
AcDbPolyline
 90
4
 70
1
 10
3188.054766116169
 20
108.3472454893017
 10
3368.054766113305
 20
108.3472454893017
 10
3368.054766113305
 20
-132.1222935653272
 10
3188.054766116169
 20
-132.1222935653272
  0
LWPOLYLINE
  5
79
330
17
100
AcDbEntity
  8
AREE LEONARDO
 62
3
100
AcDbPolyline
 90
4
 70
1
 10
3723.930048910204
 20
910.383958040793
 10
3559.217446353478
 20
910.383958040793
 10
3559.217446353478
 20
652.8052690295116
 10
3723.930048910204
 20
652.8052690295116
  0
LWPOLYLINE
  5
7A
330
17
100
AcDbEntity
  8
AREE LEONARDO
 62
3
100
AcDbPolyline
 90
4
 70
1
 10
4161.084581780379
 20
613.705334237049
 10
4407.062938619192
 20
613.705334237049
 10
4407.062938619192
 20
467.8838818664335
 10
4161.084581780379
 20
467.8838818664335
  0
LWPOLYLINE
  5
7B
330
17
100
AcDbEntity
  8
AREE LEONARDO
 62
3
100
AcDbPolyline
 90
4
 70
1
 10
4564.242125199412
 20
910.3839580407925
 10
4728.954727742174
 20
910.3839580407925
 10
4728.954727742174
 20
643.0822603445339
 10
4564.242125199412
 20
643.0822603445339
  0
LWPOLYLINE
  5
7C
330
17
100
AcDbEntity
  8
AREE LEONARDO
 62
3
100
AcDbPolyline
 90
4
 70
1
 10
5317.298705453284
 20
112.8727131143873
 10
5161.745505982736
 20
112.8727131143873
 10
5161.745505982736
 20
-132.1171907045577
 10
5317.298705453284
 20
-132.1171907045577
  0
LWPOLYLINE
  5
7D
330
17
100
AcDbEntity
  8
AREE LEONARDO
 62
3
100
AcDbPolyline
 90
4
 70
1
 10
5789.086696446995
 20
108.3538007077841
 10
5962.088609002965
 20
108.3538007077841
 10
5962.088609002965
 20
-132.1152894310121
 10
5789.086696446995
 20
-132.1152894310121
  0
LWPOLYLINE
  5
7E
330
17
100
AcDbEntity
  8
AREE LEONARDO
 62
3
100
AcDbPolyline
 90
4
 70
1
 10
6748.577540404473
 20
108.3478773075003
 10
6934.08535539458
 20
108.3478773075003
 10
6934.08535539458
 20
-132.1144529473695
 10
6748.577540404473
 20
-132.1144529473695
  0
LWPOLYLINE
  5
7F
330
17
100
AcDbEntity
  8
AREE LEONARDO
 62
3
100
AcDbPolyline
 90
4
 70
1
 10
7414.092563216114
 20
675.7449132891879
 10
7620.599142404478
 20
675.7449132891879
 10
7620.599142404478
 20
435.2738435281735
 10
7414.092563216114
 20
435.2738435281735
  0
LWPOLYLINE
  5
80
330
17
100
AcDbEntity
  8
AREE LEONARDO
 62
5
100
AcDbPolyline
 90
4
 70
1
 10
249.5858031901507
 20
1913.244718373575
 10
406.5854523695293
 20
1913.244718373575
 10
406.5854523695293
 20
1747.649360983774
 10
249.5858031901507
 20
1747.649360983774
  0
LWPOLYLINE
  5
81
330
17
100
AcDbEntity
  8
AREE LEONARDO
 62
5
100
AcDbPolyline
 90
8
 70
1
 10
383.5854893056458
 20
109.8855282993609
 10
323.5854874110173
 20
109.8855282993609
 10
323.5854874110173
 20
137.3854370135923
 10
383.5854893056458
 20
137.3854370135923
 10
383.5854893056458
 20
286.3830556540479
 10
-191.3579021392315
 20
286.3830556540479
 10
-191.3579021392315
 20
-132.1170728067031
 10
383.5854893056458
 20
-132.1170728067031
  0
LWPOLYLINE
  5
82
330
17
100
AcDbEntity
  8
AREE LEONARDO
 62
5
100
AcDbPolyline
 90
6
 70
1
 10
15.58935107183834
 20
989.5183473608326
 10
15.58935107183834
 20
1049.52064442001
 10
36.58873101713789
 20
1049.52064442001
 10
36.58873101713789
 20
1400.788483796609
 10
-381.9142015887219
 20
1400.788483796609
 10
-381.9142015887219
 20
989.5183473608326
  0
LWPOLYLINE
  5
83
330
17
100
AcDbEntity
  8
AREE LEONARDO
 62
5
100
AcDbPolyline
 90
4
 70
1
 10
-126.4431043932154
 20
1591.282632870373
 10
36.58514434322706
 20
1591.282632870373
 10
36.58514434322706
 20
1415.788483796609
 10
-126.4431043932154
 20
1415.788483796609
  0
LWPOLYLINE
  5
84
330
17
100
AcDbEntity
  8
AREE LEONARDO
 62
5
100
AcDbPolyline
 90
6
 70
1
 10
70.58566772845052
 20
1068.075264271133
 10
70.58566772845097
 20
955.5183514374185
 10
-381.9140374756585
 20
955.5183514374185
 10
-381.9140374756585
 20
651.3819239316708
 10
213.4333381640545
 20
651.3819239316708
 10
213.4333381640545
 20
1068.075264271127
  0
LWPOLYLINE
  5
85
330
17
100
AcDbEntity
  8
AREE LEONARDO
 62
5
100
AcDbPolyline
 90
4
 70
1
 10
-381.9112690616685
 20
636.3819239316708
 10
4.087971300844401
 20
636.3819239316708
 10
4.087971300844401
 20
320.3830515775189
 10
-381.9112690616685
 20
320.3830515775189
  0
LWPOLYLINE
  5
86
330
17
100
AcDbEntity
  8
AREE LEONARDO
 62
5
100
AcDbPolyline
 90
4
 70
1
 10
-381.9111071453836
 20
27.88109771262862
 10
-206.3579093720246
 20
27.88109771262862
 10
-206.3579093720246
 20
-132.1170728080042
 10
-381.9111071453836
 20
-132.1170728080042
  0
LWPOLYLINE
  5
87
330
17
100
AcDbEntity
  8
AREE LEONARDO
 62
3
100
AcDbPolyline
 90
4
 70
1
 10
-381.9142015887237
 20
3280.365772023681
 10
-145.3778546481644
 20
3280.365772023681
 10
-145.3778546481644
 20
3118.206561120926
 10
-381.9142015887237
 20
3118.206561120926
  0
LWPOLYLINE
  5
88
330
17
100
AcDbEntity
  8
AREE LEONARDO
 62
3
100
AcDbPolyline
 90
6
 70
1
 10
85.08567180498085
 20
3582.746160873958
 10
85.08567180498085
 20
3276.449443217305
 10
223.0944327380285
 20
3276.449443214467
 10
223.0944484067072
 20
3502.777270025317
 10
215.594904648377
 20
3502.777223042579
 10
215.5943996675814
 20
3583.383968778497
  0
LWPOLYLINE
  5
89
330
17
100
AcDbEntity
  8
AREE LEONARDO
 62
3
100
AcDbPolyline
 90
4
 70
1
 10
421.585452369477
 20
1913.246001807913
 10
636.0045251476477
 20
1913.246001807913
 10
636.0045251476477
 20
1755.149360983773
 10
421.585452369477
 20
1755.149360983773
  0
LWPOLYLINE
  5
8A
330
17
100
AcDbEntity
  8
AREE LEONARDO
 62
3
100
AcDbPolyline
 90
4
 70
1
 10
-381.9140952150487
 20
2643.779993966338
 10
-138.8998455340906
 20
2643.779993966338
 10
-138.8998455340906
 20
2463.033731344096
 10
-381.9140952150487
 20
2463.033731344096
  0
LWPOLYLINE
  5
8B
330
17
100
AcDbEntity
  8
AREE LEONARDO
 62
3
100
AcDbPolyline
 90
4
 70
1
 10
-381.9142015874322
 20
1583.783069265407
 10
-141.4431043931681
 20
1583.783069265407
 10
-141.4431043931681
 20
1415.78181950753
 10
-381.9142015874322
 20
1415.78181950753
  0
LWPOLYLINE
  5
8C
330
17
100
AcDbEntity
  8
AREE LEONARDO
 62
3
100
AcDbPolyline
 90
4
 70
1
 10
-206.3579021392316
 20
42.88109771551899
 10
-381.8797310471914
 20
42.88109771551899
 10
-381.8797310471914
 20
271.3830565654166
 10
-206.3579021392316
 20
271.3830565654166
  0
LWPOLYLINE
  5
8D
330
17
100
AcDbEntity
  8
AREE LEONARDO
 62
3
100
AcDbPolyline
 90
4
 70
1
 10
213.1333381485574
 20
503.8085267765527
 10
19.0879713008444
 20
503.8085267765527
 10
19.0879713008444
 20
320.3830515775194
 10
213.1333381485574
 20
320.3830515775194
  0
LWPOLYLINE
  5
8E
330
17
100
AcDbEntity
  8
AREE LEONARDO
 62
3
100
AcDbPolyline
 90
4
 70
1
 10
432.5854929786892
 20
112.8840214447809
 10
598.1386793761687
 20
112.8840214447809
 10
598.1386793761687
 20
-132.1170883474624
 10
432.5854929786892
 20
-132.1170883474624
  0
LWPOLYLINE
  5
8F
330
17
100
AcDbEntity
  8
AREE LEONARDO
 62
3
100
AcDbPolyline
 90
4
 70
1
 10
1473.481525481476
 20
492.883958039587
 10
1674.585352830952
 20
492.883958039587
 10
1674.585352830952
 20
244.7434129205176
 10
1473.481525481476
 20
244.7434129205176
  0
LWPOLYLINE
  5
90
330
17
100
AcDbEntity
  8
AREE LEONARDO
 62
3
100
AcDbPolyline
 90
4
 70
1
 10
1738.585353833952
 20
244.7434130186321
 10
1904.375300939193
 20
244.7434130186321
 10
1904.375300939193
 20
482.8833681663127
 10
1738.585353833952
 20
482.8833681663127
  0
LWPOLYLINE
  5
91
330
17
100
AcDbEntity
  8
AREE LEONARDO
 62
3
100
AcDbPolyline
 90
4
 70
1
 10
2156.295234585049
 20
910.7929361344286
 10
1984.37542129437
 20
910.7929361344286
 10
1984.37542129437
 20
643.0796475415664
 10
2156.295234585049
 20
643.0796475415664
  0
LWPOLYLINE
  5
92
330
17
100
AcDbEntity
  8
AREE LEONARDO
 62
5
100
AcDbPolyline
 90
4
 70
1
 10
1079.928107808748
 20
497.8831637859384
 10
1014.928107808748
 20
497.8831637859384
 10
1014.928107808748
 20
910.792779499823
 10
1079.928107808748
 20
910.792779499823
  0
LWPOLYLINE
  5
93
330
17
100
AcDbEntity
  8
AREE LEONARDO
 62
5
100
AcDbPolyline
 90
8
 70
1
 10
7600.282400052686
 20
-29.47564191408992
 10
7619.626200680865
 20
-29.47561166142032
 10
7619.626200680865
 20
230.7800697262646
 10
7554.626200698809
 20
230.7800697262646
 10
7554.626200698809
 20
-132.117185386016
 10
7619.626200680865
 20
-132.117185386016
 10
7619.626200680865
 20
-64.2281538632742
 10
7600.282403920764
 20
-64.22818411593607
  0
LWPOLYLINE
  5
94
330
17
100
AcDbEntity
  8
AREE LEONARDO
 62
5
100
AcDbPolyline
 90
4
 70
1
 10
238.0944327380321
 20
3261.449286317225
 10
303.0944327380321
 20
3261.449286317225
 10
303.0944327380321
 20
3156.449286320172
 10
238.0944327380321
 20
3156.449286320172
  0
LWPOLYLINE
  5
95
330
17
100
AcDbEntity
  8
AREE LEONARDO
 62
5
100
AcDbPolyline
 90
7
 70
1
 10
606.0045251213414
 20
2994.383801143579
 10
606.0045251213414
 20
3261.449286320092
 10
636.0045251213419
 20
3261.449286320092
 10
636.0045251213419
 20
2929.383801143578
 10
606.0045251213414
 20
2929.383801143578
 10
391.0045251214087
 20
2929.383801143578
 10
391.0045251214087
 20
2994.383801143579
  0
LWPOLYLINE
  5
96
330
17
100
AcDbEntity
  8
AREE LEONARDO
 62
5
100
AcDbPolyline
 90
6
 70
1
 10
238.0944327380321
 20
3276.449286320092
 10
303.0944327380284
 20
3276.449286320092
 10
303.0944275844063
 20
3583.383813350507
 10
260.594432657389
 20
3583.383547098829
 10
260.5947304870874
 20
3535.842961451554
 10
238.0963347432257
 20
3535.88380115429
  0
LWPOLYLINE
  5
97
330
17
100
AcDbEntity
  8
AREE LEONARDO
 62
5
100
AcDbPolyline
 90
4
 70
1
 10
71.9857229699478
 20
3261.449286317225
 10
136.9857229699478
 20
3261.449286317225
 10
136.9857229699478
 20
3156.449286320172
 10
71.9857229699478
 20
3156.449286320172
  0
LWPOLYLINE
  5
98
330
17
100
AcDbEntity
  8
AREE LEONARDO
 62
5
100
AcDbPolyline
 90
4
 70
1
 10
-28.41427748967135
 20
3110.706404220942
 10
36.58572251032865
 20
3110.706404220942
 10
36.58572251032865
 20
3280.350404793619
 10
-28.41427748967135
 20
3280.350404793619
  0
LWPOLYLINE
  5
99
330
17
100
AcDbEntity
  8
AREE LEONARDO
 62
5
100
AcDbPolyline
 90
4
 70
1
 10
-28.41427907517755
 20
3583.383807784269
 10
36.58572251032865
 20
3583.383807784269
 10
36.58572251032865
 20
3295.365615126467
 10
-28.41427907517755
 20
3295.365615126467
  0
LWPOLYLINE
  5
9A
330
17
100
AcDbEntity
  8
AREE LEONARDO
 62
5
100
AcDbPolyline
 90
4
 70
1
 10
-381.9142015887233
 20
3030.72736380161
 10
-125.3698479394866
 20
3030.72736380161
 10
-125.3698479394866
 20
3095.706404223767
 10
-381.9142015887233
 20
3095.706404223767
  0
LWPOLYLINE
  5
9B
330
17
100
AcDbEntity
  8
AREE LEONARDO
 62
5
100
AcDbPolyline
 90
4
 70
1
 10
-381.9142015874322
 20
2742.779838916581
 10
36.58567180501086
 20
2742.779838916581
 10
36.58567180501086
 20
2677.779837528773
 10
-381.9142015874322
 20
2677.779837528773
  0
LWPOLYLINE
  5
9C
330
17
100
AcDbEntity
  8
AREE LEONARDO
 62
5
100
AcDbPolyline
 90
4
 70
1
 10
-123.8998455319979
 20
2578.779837069125
 10
36.58567180497903
 20
2578.779837069125
 10
36.58567180497903
 20
2643.779837069125
 10
-123.8998455319979
 20
2643.779837069125
  0
LWPOLYLINE
  5
9D
330
17
100
AcDbEntity
  8
AREE LEONARDO
 62
5
100
AcDbPolyline
 90
4
 70
1
 10
36.58567180497903
 20
2578.779837069125
 10
-28.41432819502097
 20
2578.779837069125
 10
-28.41432819502097
 20
2455.533574446884
 10
36.58567180497903
 20
2455.533574446884
  0
LWPOLYLINE
  5
9E
330
17
100
AcDbEntity
  8
AREE LEONARDO
 62
5
100
AcDbPolyline
 90
4
 70
1
 10
-381.9142015887228
 20
1997.019955873367
 10
-166.9140819753415
 20
1997.019955873367
 10
-166.9140819753415
 20
1932.019955873366
 10
-381.9142015887228
 20
1932.019955873366
  0
LWPOLYLINE
  5
9F
330
17
100
AcDbEntity
  8
AREE LEONARDO
 62
5
100
AcDbPolyline
 90
4
 70
1
 10
-28.4148556567734
 20
1898.019955413747
 10
36.58514434322706
 20
1898.019955413747
 10
36.58514434322706
 20
1606.284108897257
 10
-28.4148556567734
 20
1606.284108897257
  0
LWPOLYLINE
  5
A0
330
17
100
AcDbEntity
  8
AREE LEONARDO
 62
5
100
AcDbPolyline
 90
4
 70
1
 10
314.5858031901507
 20
2250.38380114358
 10
249.5858031901507
 20
2250.38380114358
 10
249.5858031901507
 20
1928.244561476362
 10
314.5858031901507
 20
1928.244561476362
  0
LWPOLYLINE
  5
A1
330
17
100
AcDbEntity
  8
AREE LEONARDO
 62
5
100
AcDbPolyline
 90
4
 70
1
 10
314.5858031901507
 20
1913.244561479112
 10
249.5858031901507
 20
1913.244561479112
 10
249.5858031901507
 20
1747.649204086538
 10
314.5858031901507
 20
1747.649204086538
  0
LWPOLYLINE
  5
A2
330
17
100
AcDbEntity
  8
AREE LEONARDO
 62
5
100
AcDbPolyline
 90
4
 70
1
 10
636.0045249084037
 20
2250.376499043883
 10
606.0045251213414
 20
2250.376499043883
 10
606.0045251213414
 20
1928.245844910701
 10
636.0045249084037
 20
1928.245844910701
  0
LWPOLYLINE
  5
A3
330
17
100
AcDbEntity
  8
AREE LEONARDO
 62
5
100
AcDbPolyline
 90
4
 70
1
 10
636.0045251476477
 20
1732.64920408656
 10
606.0045251213414
 20
1732.64920408656
 10
606.0045251213414
 20
1300.883801143589
 10
636.0045251476477
 20
1300.883801143589
  0
LWPOLYLINE
  5
A4
330
17
100
AcDbEntity
  8
AREE LEONARDO
 62
5
100
AcDbPolyline
 90
4
 70
1
 10
606.0045251213414
 20
1365.883801143593
 10
249.5858031901498
 20
1365.883801143593
 10
249.5858031901498
 20
1300.883801143578
 10
606.0045251213414
 20
1300.883801143578
  0
LWPOLYLINE
  5
A5
330
17
100
AcDbEntity
  8
AREE LEONARDO
 62
5
100
AcDbPolyline
 90
4
 70
1
 10
636.0044873687443
 20
3583.383818940274
 10
606.0045251213414
 20
3583.383818940274
 10
606.0045251213414
 20
3276.449286320092
 10
636.0044873687443
 20
3276.449286320092
  0
LWPOLYLINE
  5
A6
330
17
100
AcDbEntity
  8
AREE LEONARDO
 62
5
100
AcDbPolyline
 90
4
 70
1
 10
-28.4148556567734
 20
1591.284108897257
 10
36.58873101713789
 20
1591.284108897257
 10
36.58873101713789
 20
1415.788326899396
 10
-28.4148556567734
 20
1415.788326899396
  0
LWPOLYLINE
  5
A7
330
17
100
AcDbEntity
  8
AREE LEONARDO
 62
5
100
AcDbPolyline
 90
4
 70
1
 10
15.51497459061465
 20
1054.518202922138
 10
-381.9142015887219
 20
1054.518202922138
 10
-381.9142015887219
 20
989.5181904636192
 10
15.51497459061465
 20
989.5181904636192
  0
LWPOLYLINE
  5
A8
330
17
100
AcDbEntity
  8
AREE LEONARDO
 62
5
100
AcDbPolyline
 90
4
 70
1
 10
148.4333381640517
 20
956.2341715310813
 10
213.4333381640381
 20
956.2341715310813
 10
213.4333381640072
 20
651.2341715310813
 10
148.4333381640213
 20
651.2341715310813
  0
LWPOLYLINE
  5
A9
330
17
100
AcDbEntity
  8
AREE LEONARDO
 62
5
100
AcDbPolyline
 90
4
 70
1
 10
4.087971300844856
 20
385.382894680306
 10
-381.9141941153907
 20
385.382894680306
 10
-381.9141941153907
 20
320.382894680306
 10
4.087971300844856
 20
320.382894680306
  0
LWPOLYLINE
  5
AA
330
17
100
AcDbEntity
  8
AREE LEONARDO
 62
5
100
AcDbPolyline
 90
4
 70
1
 10
148.4333381640249
 20
636.381767034456
 10
213.1333381485574
 20
636.381767034456
 10
213.1333381485574
 20
518.6538375640703
 10
148.4333381640249
 20
518.6538375640703
  0
LWPOLYLINE
  5
AB
330
17
100
AcDbEntity
  8
AREE LEONARDO
 62
5
100
AcDbPolyline
 90
4
 70
1
 10
-351.9141943613049
 20
3583.383802352503
 10
-381.9141943613049
 20
3583.383802352503
 10
-381.9141943613049
 20
3295.365615126467
 10
-351.9141943613049
 20
3295.365615126467
  0
LWPOLYLINE
  5
AC
330
17
100
AcDbEntity
  8
AREE LEONARDO
 62
5
100
AcDbPolyline
 90
4
 70
1
 10
-351.9141943613049
 20
3030.72736380161
 10
-381.9141943613049
 20
3030.72736380161
 10
-381.9141943613049
 20
2742.779838916581
 10
-351.9141943613049
 20
2742.779838916581
  0
LWPOLYLINE
  5
AD
330
17
100
AcDbEntity
  8
AREE LEONARDO
 62
5
100
AcDbPolyline
 90
4
 70
1
 10
-351.9141943613049
 20
2375.533574446884
 10
-381.9141943613049
 20
2375.533574446884
 10
-381.9141943613049
 20
1997.019955873367
 10
-351.9141943613049
 20
1997.019955873367
  0
LWPOLYLINE
  5
AE
330
17
100
AcDbEntity
  8
AREE LEONARDO
 62
5
100
AcDbPolyline
 90
4
 70
1
 10
-351.9141943613049
 20
1898.019955413747
 10
-381.9141943613049
 20
1898.019955413747
 10
-381.9141943613049
 20
1606.28247597316
 10
-351.9141943613049
 20
1606.28247597316
  0
LWPOLYLINE
  5
AF
330
17
100
AcDbEntity
  8
AREE LEONARDO
 62
5
100
AcDbPolyline
 90
4
 70
1
 10
-351.9141943613049
 20
1400.781662610318
 10
-381.9141943613049
 20
1400.781662610318
 10
-381.9141943613049
 20
1054.518202922138
 10
-351.9141943613049
 20
1054.518202922138
  0
LWPOLYLINE
  5
B0
330
17
100
AcDbEntity
  8
AREE LEONARDO
 62
5
100
AcDbPolyline
 90
4
 70
1
 10
-351.9141943613049
 20
955.5181945402054
 10
-381.911269061668
 20
955.5181945402054
 10
-381.911269061668
 20
651.3817670344524
 10
-351.9141943613049
 20
651.3817670344524
  0
LWPOLYLINE
  5
B1
330
17
100
AcDbEntity
  8
AREE LEONARDO
 62
5
100
AcDbPolyline
 90
4
 70
1
 10
-351.9141943613049
 20
636.3817670344579
 10
-381.9141941153907
 20
636.3817670344579
 10
-381.9141941153907
 20
385.382894680306
 10
-351.9141943613049
 20
385.382894680306
  0
LWPOLYLINE
  5
B2
330
17
100
AcDbEntity
  8
AREE LEONARDO
 62
5
100
AcDbPolyline
 90
6
 70
1
 10
-206.3579093720246
 20
-67.11722970521623
 10
-206.3579093720246
 20
-132.1172209608503
 10
-381.9141943613049
 20
-132.1172209608503
 10
-381.9111071453831
 20
27.88094081541567
 10
-316.9111071453835
 20
27.28003077102949
 10
-316.9111071453835
 20
-67.11722970521623
  0
LWPOLYLINE
  5
B3
330
17
100
AcDbEntity
  8
AREE LEONARDO
 62
5
100
AcDbPolyline
 90
4
 70
1
 10
-126.3579021392315
 20
286.3828987568358
 10
-191.3579021392315
 20
286.3828987568358
 10
-191.3579021392315
 20
16.10732358649147
 10
-126.3579021392315
 20
16.10732358649147
  0
LWPOLYLINE
  5
B4
330
17
100
AcDbEntity
  8
AREE LEONARDO
 62
5
100
AcDbPolyline
 90
4
 70
1
 10
318.5854893056294
 20
109.8853634949919
 10
383.5854893056458
 20
109.8853634949919
 10
383.5854893056458
 20
-132.1172297039156
 10
318.5854893056294
 20
-132.1172297039156
  0
LWPOLYLINE
  5
B5
330
17
100
AcDbEntity
  8
AREE LEONARDO
 62
5
100
AcDbPolyline
 90
6
 70
1
 10
598.1386804555199
 20
286.3828987568358
 10
417.5854900892963
 20
286.3828987568358
 10
417.5854929786892
 20
127.8725538716953
 10
482.5854929786892
 20
127.8725538716953
 10
482.5854929786892
 20
221.3828987568358
 10
598.1386804555198
 20
221.3828987568358
  0
LWPOLYLINE
  5
B6
330
17
100
AcDbEntity
  8
AREE LEONARDO
 62
5
100
AcDbPolyline
 90
4
 70
1
 10
-191.3579093720245
 20
-102.1172297039156
 10
318.5854893056294
 20
-102.1172297039156
 10
318.5854893056294
 20
-132.1172297039156
 10
-191.3579093720245
 20
-132.1172297039156
  0
LWPOLYLINE
  5
B7
330
17
100
AcDbEntity
  8
AREE LEONARDO
 62
5
100
AcDbPolyline
 90
4
 70
1
 10
678.1386883900116
 20
109.8853741807743
 10
613.1386793761687
 20
109.8853741807743
 10
613.1386793761687
 20
-132.1172137300691
 10
678.1386883900116
 20
-132.1172137300691
  0
LWPOLYLINE
  5
B8
330
17
100
AcDbEntity
  8
AREE LEONARDO
 62
5
100
AcDbPolyline
 90
4
 70
1
 10
1107.085240158464
 20
-132.1172137300709
 10
1172.085240158462
 20
-132.1172137300709
 10
1172.085240158462
 20
286.382898756834
 10
1107.085240158464
 20
286.382898756834
  0
LWPOLYLINE
  5
B9
330
17
100
AcDbEntity
  8
AREE LEONARDO
 62
5
100
AcDbPolyline
 90
4
 70
1
 10
1107.085240158464
 20
-102.1172297039156
 10
678.1386883900116
 20
-102.1172297039156
 10
678.1386883900116
 20
-132.1172297039156
 10
1107.085240158464
 20
-132.1172297039156
  0
LWPOLYLINE
  5
BA
330
17
100
AcDbEntity
  8
AREE LEONARDO
 62
5
100
AcDbPolyline
 90
4
 70
1
 10
1624.585355089927
 20
204.7433703346087
 10
1689.585355089926
 20
204.7433703346087
 10
1689.585355089926
 20
-132.1170074948477
 10
1624.585355089927
 20
-132.1170074948477
  0
LWPOLYLINE
  5
BB
330
17
100
AcDbEntity
  8
AREE LEONARDO
 62
5
100
AcDbPolyline
 90
4
 70
1
 10
1624.585355089927
 20
-102.1172297039156
 10
1206.085239050838
 20
-102.1172297039156
 10
1206.085239050838
 20
-132.1172297039156
 10
1624.585355089927
 20
-132.1172297039156
  0
LWPOLYLINE
  5
BC
330
17
100
AcDbEntity
  8
AREE LEONARDO
 62
5
100
AcDbPolyline
 90
4
 70
1
 10
1338.742677327511
 20
339.7430025550038
 10
1458.455276602106
 20
339.7430025550038
 10
1458.455276602106
 20
274.7430025550039
 10
1338.742677327511
 20
274.7430025550039
  0
LWPOLYLINE
  5
BD
330
17
100
AcDbEntity
  8
AREE LEONARDO
 62
5
100
AcDbPolyline
 90
4
 70
1
 10
1788.585355549554
 20
229.7432560233046
 10
1723.585351013398
 20
229.7432560233046
 10
1723.585351013398
 20
-132.1156356178017
 10
1788.585355549554
 20
-132.1156356178017
  0
LWPOLYLINE
  5
BE
330
17
100
AcDbEntity
  8
AREE LEONARDO
 62
5
100
AcDbPolyline
 90
4
 70
1
 10
1788.585355549554
 20
-102.1172297039156
 10
2092.213749431572
 20
-102.1172297039156
 10
2092.213749431572
 20
-132.1182012265708
 10
1788.585355549554
 20
-132.1182012265708
  0
LWPOLYLINE
  5
BF
330
17
100
AcDbEntity
  8
AREE LEONARDO
 62
5
100
AcDbPolyline
 90
4
 70
1
 10
1919.375300939193
 20
222.8853370113229
 10
1984.381936203049
 20
222.8853370113229
 10
1984.381936203049
 20
287.934081376623
 10
1919.375300939193
 20
287.934081376623
  0
LWPOLYLINE
  5
C0
330
17
100
AcDbEntity
  8
AREE LEONARDO
 62
5
100
AcDbPolyline
 90
4
 70
1
 10
1984.381936203049
 20
302.8365926486204
 10
1919.375285276747
 20
302.8365926486204
 10
1919.375285276747
 20
470.3840915258679
 10
1984.381936203049
 20
470.3840915258679
  0
LWPOLYLINE
  5
C1
330
17
100
AcDbEntity
  8
AREE LEONARDO
 62
5
100
AcDbPolyline
 90
4
 70
1
 10
1788.585351013399
 20
702.38154184636
 10
1723.585351013399
 20
702.38154184636
 10
1723.585351013399
 20
910.7993898469757
 10
1788.585351013399
 20
910.7993898469757
  0
LWPOLYLINE
  5
C2
330
17
100
AcDbEntity
  8
AREE LEONARDO
 62
5
100
AcDbPolyline
 90
4
 70
1
 10
1624.585355089928
 20
910.7993738701043
 10
1689.585355089927
 20
910.7993738701043
 10
1689.585355089927
 20
507.883801142374
 10
1624.585355089928
 20
507.883801142374
  0
LWPOLYLINE
  5
C3
330
17
100
AcDbEntity
  8
AREE LEONARDO
 62
5
100
AcDbPolyline
 90
4
 70
1
 10
2635.085359471098
 20
-132.1172297039156
 10
2700.085359471099
 20
-132.1172297039156
 10
2700.085359471099
 20
261.3854513372989
 10
2635.085359471098
 20
261.3854513372989
  0
LWPOLYLINE
  5
C4
330
17
100
AcDbEntity
  8
AREE LEONARDO
 62
5
100
AcDbPolyline
 90
4
 70
1
 10
2172.21374940133
 20
-132.1150302321566
 10
2107.213749431571
 20
-132.1150302321566
 10
2107.213749431571
 20
287.8853370113229
 10
2172.21374940133
 20
287.8853370113229
  0
LWPOLYLINE
  5
C5
330
17
100
AcDbEntity
  8
AREE LEONARDO
 62
5
100
AcDbPolyline
 90
4
 70
1
 10
2734.08535539457
 20
-132.1172297039156
 10
2799.08535539457
 20
-132.1172297039156
 10
2799.08535539457
 20
261.3854513372989
 10
2734.08535539457
 20
261.3854513372989
  0
LWPOLYLINE
  5
C6
330
17
100
AcDbEntity
  8
AREE LEONARDO
 62
5
100
AcDbPolyline
 90
4
 70
1
 10
2635.085359471098
 20
-102.1172297037792
 10
2172.213749399565
 20
-102.1172297037792
 10
2172.213749399565
 20
-132.1150302321566
 10
2635.085359471098
 20
-132.1150302321566
  0
LWPOLYLINE
  5
C7
330
17
100
AcDbEntity
  8
AREE LEONARDO
 62
5
100
AcDbPolyline
 90
4
 70
1
 10
2799.08535539457
 20
-102.1172297039156
 10
3173.054766113305
 20
-102.1172297039156
 10
3173.054766113305
 20
-132.1148677388482
 10
2799.08535539457
 20
-132.1148677388482
  0
LWPOLYLINE
  5
C8
330
17
100
AcDbEntity
  8
AREE LEONARDO
 62
5
100
AcDbPolyline
 90
4
 70
1
 10
3390.554329718274
 20
-102.1172297039156
 10
3677.085177226609
 20
-102.1172297039156
 10
3677.085177226609
 20
-132.1172297039156
 10
3390.554329718274
 20
-132.1172297039156
  0
LWPOLYLINE
  5
C9
330
17
100
AcDbEntity
  8
AREE LEONARDO
 62
5
100
AcDbPolyline
 90
4
 70
1
 10
3711.136946731058
 20
-102.1172297039156
 10
4062.084581320759
 20
-102.1172297039156
 10
4062.084581320759
 20
-132.1172297039156
 10
3711.136946731058
 20
-132.1172297039156
  0
LWPOLYLINE
  5
CA
330
17
100
AcDbEntity
  8
AREE LEONARDO
 62
5
100
AcDbPolyline
 90
4
 70
1
 10
4062.084581320759
 20
-132.1447539621513
 10
4127.085453269324
 20
-132.1447539621513
 10
4127.085453269324
 20
425.3861907876744
 10
4062.084581320759
 20
425.3861907876744
  0
LWPOLYLINE
  5
CB
330
17
100
AcDbEntity
  8
AREE LEONARDO
 62
5
100
AcDbPolyline
 90
4
 70
1
 10
3738.930048910204
 20
442.883801142374
 10
3866.106224022328
 20
442.883801142374
 10
3866.106224022328
 20
507.883801142374
 10
3738.930048910204
 20
507.883801142374
  0
LWPOLYLINE
  5
CC
330
17
100
AcDbEntity
  8
AREE LEONARDO
 62
5
100
AcDbPolyline
 90
4
 70
1
 10
3677.085177226609
 20
221.3828987568358
 10
3388.053420293993
 20
221.3828987568358
 10
3388.053420293993
 20
286.375384355244
 10
3677.085177226609
 20
286.375384355244
  0
LWPOLYLINE
  5
CD
330
17
100
AcDbEntity
  8
AREE LEONARDO
 62
5
100
AcDbPolyline
 90
4
 70
1
 10
3188.054766116169
 20
221.3828987568358
 10
3373.054766113305
 20
221.3828987568358
 10
3373.054766113305
 20
286.375384355244
 10
3188.054766116169
 20
286.375384355244
  0
LWPOLYLINE
  5
CE
330
17
100
AcDbEntity
  8
AREE LEONARDO
 62
5
100
AcDbPolyline
 90
4
 70
1
 10
4161.08458356493
 20
-132.1447539621476
 10
4226.085455513494
 20
-132.1447539621476
 10
4226.085455513494
 20
445.3837249692205
 10
4161.08458356493
 20
445.3837249692205
  0
LWPOLYLINE
  5
CF
330
17
100
AcDbEntity
  8
AREE LEONARDO
 62
5
100
AcDbPolyline
 90
4
 70
1
 10
4226.085455513494
 20
380.3837249692206
 10
4391.195070395497
 20
380.3837249692206
 10
4391.195070395497
 20
445.3837249692205
 10
4226.085455513494
 20
445.3837249692205
  0
LWPOLYLINE
  5
D0
330
17
100
AcDbEntity
  8
AREE LEONARDO
 62
5
100
AcDbPolyline
 90
4
 70
1
 10
4226.085455513494
 20
-102.1172297039156
 10
4587.885354566104
 20
-102.1172297039156
 10
4587.885354566104
 20
-132.1172297039156
 10
4226.085455513494
 20
-132.1172297039156
  0
LWPOLYLINE
  5
D1
330
17
100
AcDbEntity
  8
AREE LEONARDO
 62
5
100
AcDbPolyline
 90
4
 70
1
 10
4686.884706196289
 20
-132.1172297039156
 10
4621.884706221996
 20
-132.1172297039156
 10
4621.884706221996
 20
286.3563295933436
 10
4686.884706196289
 20
286.3563295933436
  0
LWPOLYLINE
  5
D2
330
17
100
AcDbEntity
  8
AREE LEONARDO
 62
5
100
AcDbPolyline
 90
4
 70
1
 10
5081.745499040851
 20
109.8853741807743
 10
5146.745505982736
 20
109.8853741807743
 10
5146.745505982736
 20
-132.1154002802268
 10
5081.745499040851
 20
-132.1154002802268
  0
LWPOLYLINE
  5
D3
330
17
100
AcDbEntity
  8
AREE LEONARDO
 62
5
100
AcDbPolyline
 90
4
 70
1
 10
5081.745499040851
 20
-102.1172297039156
 10
4686.884706196289
 20
-102.1172297039156
 10
4686.884706196289
 20
-132.1172297039156
 10
5081.745499040851
 20
-132.1172297039156
  0
LWPOLYLINE
  5
D4
330
17
100
AcDbEntity
  8
AREE LEONARDO
 62
5
100
AcDbPolyline
 90
4
 70
1
 10
5267.298708108239
 20
128.1108448849991
 10
5332.298702023718
 20
128.1108448849991
 10
5332.298702023718
 20
221.356324303053
 10
5267.298708108239
 20
221.356324303053
  0
LWPOLYLINE
  5
D5
330
17
100
AcDbEntity
  8
AREE LEONARDO
 62
5
100
AcDbPolyline
 90
4
 70
1
 10
5332.298702023717
 20
221.356324303053
 10
5161.745505979852
 20
221.356324303053
 10
5161.745505979853
 20
286.3563243030549
 10
5332.298702023718
 20
286.3563243030549
  0
LWPOLYLINE
  5
D6
330
17
100
AcDbEntity
  8
AREE LEONARDO
 62
5
100
AcDbPolyline
 90
4
 70
1
 10
5431.298704031711
 20
286.3563158753441
 10
5366.298708568085
 20
286.3563158753441
 10
5366.298708568085
 20
-132.1260844896132
 10
5431.298704031711
 20
-132.1260844896132
  0
LWPOLYLINE
  5
D7
330
17
100
AcDbEntity
  8
AREE LEONARDO
 62
5
100
AcDbPolyline
 90
4
 70
1
 10
5431.298704031711
 20
-132.1154200871478
 10
5773.730753258528
 20
-132.1154200871478
 10
5773.730753258528
 20
-102.1172297039156
 10
5431.298704031711
 20
-102.1172297039156
  0
LWPOLYLINE
  5
D8
330
17
100
AcDbEntity
  8
AREE LEONARDO
 62
5
100
AcDbPolyline
 90
4
 70
1
 10
5788.594432738086
 20
221.3563219058269
 10
5969.588172607934
 20
221.3563219058269
 10
5969.588172607934
 20
286.3563219058269
 10
5788.594432738086
 20
286.3563219058269
  0
LWPOLYLINE
  5
D9
330
17
100
AcDbEntity
  8
AREE LEONARDO
 62
5
100
AcDbPolyline
 90
4
 70
1
 10
5984.588172607933
 20
-102.1172297039156
 10
6277.687402389322
 20
-102.1172297039156
 10
6277.687402389322
 20
-132.11544632822
 10
5984.588172607933
 20
-132.11544632822
  0
LWPOLYLINE
  5
DA
330
17
100
AcDbEntity
  8
AREE LEONARDO
 62
5
100
AcDbPolyline
 90
4
 70
1
 10
6277.687402389322
 20
221.3563219058269
 10
5984.588172609377
 20
221.3563219058269
 10
5984.588172609377
 20
286.3563219058269
 10
6277.687402389322
 20
286.3563219058269
  0
LWPOLYLINE
  5
DB
330
17
100
AcDbEntity
  8
AREE LEONARDO
 62
5
100
AcDbPolyline
 90
4
 70
1
 10
6376.687402389078
 20
-132.1174201773774
 10
6311.687402389323
 20
-132.1174201773774
 10
6311.687402389323
 20
286.3563219058324
 10
6376.687402389078
 20
286.3563219058324
  0
LWPOLYLINE
  5
DC
330
17
100
AcDbEntity
  8
AREE LEONARDO
 62
5
100
AcDbPolyline
 90
4
 70
1
 10
6376.687402389078
 20
-102.1172297039156
 10
6733.577521327501
 20
-102.1172297039156
 10
6733.577521327501
 20
-132.1164911951582
 10
6376.687402389078
 20
-132.1164911951582
  0
LWPOLYLINE
  5
DD
330
17
100
AcDbEntity
  8
AREE LEONARDO
 62
5
100
AcDbPolyline
 90
4
 70
1
 10
6956.584918999813
 20
-102.1172297039156
 10
7243.115773036127
 20
-102.1172297039156
 10
7243.115773036127
 20
-132.1172297039156
 10
6956.584918999813
 20
-132.1172297039156
  0
LWPOLYLINE
  5
DE
330
17
100
AcDbEntity
  8
AREE LEONARDO
 62
5
100
AcDbPolyline
 90
4
 70
1
 10
7277.115768959601
 20
-102.1172297039156
 10
7554.593241657928
 20
-102.1172297039156
 10
7554.593241657928
 20
-132.118722446532
 10
7277.115768959601
 20
-132.118722446532
  0
LWPOLYLINE
  5
DF
330
17
100
AcDbEntity
  8
AREE LEONARDO
 62
5
100
AcDbPolyline
 90
4
 70
1
 10
7277.115768959607
 20
221.3566828007006
 10
7399.092563216114
 20
221.3566828007006
 10
7399.092563216114
 20
286.3566828007006
 10
7277.115768959607
 20
286.3566828007006
  0
LWPOLYLINE
  5
E0
330
17
100
AcDbEntity
  8
AREE LEONARDO
 62
5
100
AcDbPolyline
 90
4
 70
1
 10
7243.115773036127
 20
221.3566828007006
 10
6956.584918999813
 20
221.3566828007006
 10
6956.584918999813
 20
286.3219677363359
 10
7243.115773036127
 20
286.3219677363359
  0
LWPOLYLINE
  5
E1
330
17
100
AcDbEntity
  8
AREE LEONARDO
 62
5
100
AcDbPolyline
 90
4
 70
1
 10
6748.577521327501
 20
221.3566828007006
 10
6941.584919011494
 20
221.3566828007006
 10
6941.584919011494
 20
286.3219677363377
 10
6748.577521327501
 20
286.3219677363377
  0
LWPOLYLINE
  5
E2
330
17
100
AcDbEntity
  8
AREE LEONARDO
 62
5
100
AcDbPolyline
 90
4
 70
1
 10
4522.094414889493
 20
447.8837132166536
 10
4422.065950087318
 20
447.8837132166536
 10
4422.065950087318
 20
512.8838011435782
 10
4522.094414889493
 20
512.8838011435782
  0
LWPOLYLINE
  5
E3
330
17
100
AcDbEntity
  8
AREE LEONARDO
 62
5
100
AcDbPolyline
 90
9
 70
1
 10
7527.093355347068
 20
360.2736866309606
 10
7527.093366931779
 20
245.7798485028797
 10
7622.093316453348
 20
245.7798581861662
 10
7622.093109236836
 20
278.8564599616238
 10
7592.594395339097
 20
278.8562751596692
 10
7592.594395339097
 20
353.8562738788423
 10
7620.599098796436
 20
353.8564586818884
 10
7620.599186012521
 20
420.2736866309606
 10
7527.093349276147
 20
420.2736866309606
  0
LWPOLYLINE
  5
E4
330
17
100
AcDbEntity
  8
AREE LEONARDO
 62
5
100
AcDbPolyline
 90
6
 70
1
 10
7214.092105603477
 20
435.2736866309478
 10
7214.092105603477
 20
500.2736866309478
 10
7334.092389879535
 20
500.2736866310933
 10
7334.092153769067
 20
651.2446245203919
 10
7399.091905631235
 20
651.2448224304225
 10
7399.092574159685
 20
435.2736866309605
  0
LWPOLYLINE
  5
E5
330
17
100
AcDbEntity
  8
AREE LEONARDO
 62
5
100
AcDbPolyline
 90
4
 70
1
 10
7322.273725042865
 20
675.7441010137609
 10
6619.086652564803
 20
675.7441010137609
 10
6619.086652564803
 20
645.7441010137609
 10
7322.273725042865
 20
645.7441010137609
  0
LWPOLYLINE
  5
E6
330
17
100
AcDbEntity
  8
AREE LEONARDO
 62
5
100
AcDbPolyline
 90
6
 70
1
 10
3882.087588252491
 20
445.3837249552361
 10
3882.087588252491
 20
380.383724955258
 10
4062.084581320759
 20
380.383724955258
 10
4062.084581320759
 20
425.3861907876744
 10
4104.587587920717
 20
425.3863377720863
 10
4104.587587920542
 20
445.383724955258
  0
LWPOLYLINE
  5
E7
330
17
100
AcDbEntity
  8
AREE LEONARDO
 62
5
100
AcDbPolyline
 90
4
 70
1
 10
1338.742675168347
 20
194.7430025550038
 10
1458.455274442941
 20
194.7430025550038
 10
1458.455274442941
 20
259.743002352956
 10
1338.742675168347
 20
259.743002352956
  0
LWPOLYLINE
  5
E8
330
17
100
AcDbEntity
  8
AREE LEONARDO
 62
5
100
AcDbPolyline
 90
4
 70
1
 10
1079.928107808748
 20
880.7927794998232
 10
1323.743671221537
 20
880.7926965802161
 10
1323.743671221537
 20
910.7992909504991
 10
1079.928107808748
 20
910.7993738701043
  0
LWPOLYLINE
  5
E9
330
17
100
AcDbEntity
  8
AREE LEONARDO
 62
5
100
AcDbPolyline
 90
4
 70
1
 10
1338.742675168346
 20
880.7927794998232
 10
1624.585355089928
 20
880.7927794998232
 10
1624.585355089928
 20
910.7993738701043
 10
1338.742675168346
 20
910.7993738701043
  0
LWPOLYLINE
  5
EA
330
17
100
AcDbEntity
  8
AREE LEONARDO
 62
5
100
AcDbPolyline
 90
4
 70
1
 10
1788.585351013399
 20
880.7927794998232
 10
1969.37542129437
 20
880.7927794998232
 10
1969.37542129437
 20
910.792779499823
 10
1788.585351013399
 20
910.792779499823
  0
LWPOLYLINE
  5
EB
330
17
100
AcDbEntity
  8
AREE LEONARDO
 62
5
100
AcDbPolyline
 90
4
 70
1
 10
2178.794798190016
 20
880.7927794998232
 10
2347.085396616354
 20
880.7927794998232
 10
2347.085396616354
 20
910.7927794984626
 10
2178.794798190016
 20
910.7927794984626
  0
LWPOLYLINE
  5
EC
330
17
100
AcDbEntity
  8
AREE LEONARDO
 62
5
100
AcDbPolyline
 90
4
 70
1
 10
2412.085396616354
 20
702.38154184636
 10
2347.085396616354
 20
702.38154184636
 10
2347.085396616354
 20
910.7993898469757
 10
2412.085396616354
 20
910.7993898469757
  0
LWPOLYLINE
  5
ED
330
17
100
AcDbEntity
  8
AREE LEONARDO
 62
5
100
AcDbPolyline
 90
4
 70
1
 10
3384.100987870567
 20
910.7994023556003
 10
3319.100988207969
 20
910.7994023556003
 10
3319.100988207969
 20
741.7531190034606
 10
3384.100987870567
 20
741.7531190034606
  0
LWPOLYLINE
  5
EE
330
17
100
AcDbEntity
  8
AREE LEONARDO
 62
5
100
AcDbPolyline
 90
4
 70
1
 10
4127.08458132076
 20
910.3838011435801
 10
4062.084581658161
 20
910.3838011435801
 10
4062.084581658161
 20
626.3051773398365
 10
4127.08458132076
 20
626.3051773398365
  0
LWPOLYLINE
  5
EF
330
17
100
AcDbEntity
  8
AREE LEONARDO
 62
5
100
AcDbPolyline
 90
4
 70
1
 10
3384.100987870567
 20
880.3838011434327
 10
3536.717446353479
 20
880.3838011434327
 10
3536.717446353479
 20
910.3838011434326
 10
3384.100987870567
 20
910.3838011434326
  0
LWPOLYLINE
  5
F0
330
17
100
AcDbEntity
  8
AREE LEONARDO
 62
5
100
AcDbPolyline
 90
4
 70
1
 10
3738.930049322513
 20
910.3838011434326
 10
4062.084581658161
 20
910.3838011434326
 10
4062.084581658161
 20
880.3838011434327
 10
3738.930049322513
 20
880.3838011434327
  0
LWPOLYLINE
  5
F1
330
17
100
AcDbEntity
  8
AREE LEONARDO
 62
5
100
AcDbPolyline
 90
4
 70
1
 10
4226.084581442978
 20
910.3838011435801
 10
4161.084581780379
 20
910.3838011435801
 10
4161.084581780379
 20
626.3051773398365
 10
4226.084581442978
 20
626.3051773398365
  0
LWPOLYLINE
  5
F2
330
17
100
AcDbEntity
  8
AREE LEONARDO
 62
5
100
AcDbPolyline
 90
4
 70
1
 10
4226.084581442978
 20
880.3838011434327
 10
4549.242125199412
 20
880.3838011434327
 10
4549.242125199412
 20
910.3838011435801
 10
4226.084581442978
 20
910.3838011435801
  0
LWPOLYLINE
  5
F3
330
17
100
AcDbEntity
  8
AREE LEONARDO
 62
5
100
AcDbPolyline
 90
4
 70
1
 10
4893.594432738058
 20
910.383801143662
 10
4962.084804312357
 20
910.383801143662
 10
4962.084804312357
 20
499.405988261843
 10
4893.594432738058
 20
499.405988261843
  0
LWPOLYLINE
  5
F4
330
17
100
AcDbEntity
  8
AREE LEONARDO
 62
5
100
AcDbPolyline
 90
4
 70
1
 10
4751.491424244223
 20
910.3250854576017
 10
4893.594432738058
 20
910.3250854576017
 10
4893.594432738058
 20
880.3838011434327
 10
4751.491424244223
 20
880.3838011434327
  0
LWPOLYLINE
  5
F5
330
17
100
AcDbEntity
  8
AREE LEONARDO
 62
5
100
AcDbPolyline
 90
4
 70
1
 10
-381.9161506236478
 20
3583.383958745965
 10
36.58572251032865
 20
3583.383958745965
 10
36.58572251032865
 20
3295.365772023681
 10
-381.9161506236478
 20
3295.365772023681
  0
LWPOLYLINE
  5
F6
330
17
100
AcDbEntity
  8
AREE LEONARDO
 62
5
100
AcDbPolyline
 90
6
 70
1
 10
260.5944326557255
 20
3583.383969534118
 10
260.5947304885512
 20
3535.842884710802
 10
238.0944327380285
 20
3535.883961523826
 10
238.0944327380285
 20
3276.449443217305
 10
636.0045251213419
 20
3276.449443217305
 10
636.0045251213414
 20
3583.383975837488
  0
LWPOLYLINE
  5
F7
330
17
100
AcDbEntity
  8
AREE LEONARDO
 62
5
100
AcDbPolyline
 90
4
 70
1
 10
70.58572296994771
 20
3261.449443217305
 10
223.0944327380321
 20
3261.449443217305
 10
223.0944327380321
 20
3156.449443217378
 10
70.58572296994771
 20
3156.449443217378
  0
LWPOLYLINE
  5
F8
330
17
100
AcDbEntity
  8
AREE LEONARDO
 62
5
100
AcDbPolyline
 90
4
 70
1
 10
-130.3778183743989
 20
3280.365322960858
 10
36.58572251032865
 20
3280.365322960858
 10
36.58572251032865
 20
3110.706561118155
 10
-130.3778183743989
 20
3110.706561118155
  0
LWPOLYLINE
  5
F9
330
17
100
AcDbEntity
  8
AREE LEONARDO
 62
5
100
AcDbPolyline
 90
8
 70
1
 10
636.0045251213414
 20
3261.449443217305
 10
238.0944327380321
 20
3261.449443217305
 10
238.0944327380321
 20
3156.449443217385
 10
298.0897483200324
 20
3156.449443217385
 10
298.0897483200324
 20
3141.449443217386
 10
70.58572296994771
 20
3141.502240331658
 10
70.58572296994771
 20
2929.383958040791
 10
636.0045251213419
 20
2929.383958040791
  0
LWPOLYLINE
  5
FA
330
17
100
AcDbEntity
  8
AREE LEONARDO
 62
5
100
AcDbPolyline
 90
4
 70
1
 10
36.58572251032865
 20
3095.706561118154
 10
-381.9142015874322
 20
3095.706561118154
 10
-381.9142015874322
 20
2677.779995813794
 10
36.58572251032865
 20
2677.779995813794
  0
LWPOLYLINE
  5
FB
330
17
100
AcDbEntity
  8
AREE LEONARDO
 62
5
100
AcDbPolyline
 90
4
 70
1
 10
36.58567180497903
 20
2643.779993966338
 10
-123.8998455315404
 20
2643.779993966338
 10
-123.8998455315404
 20
2455.533731344096
 10
36.58567180497903
 20
2455.533731344096
  0
LWPOLYLINE
  5
FC
330
17
100
AcDbEntity
  8
AREE LEONARDO
 62
5
100
AcDbPolyline
 90
4
 70
1
 10
36.5851443432266
 20
1898.02011231096
 10
-381.9142015874322
 20
1898.02011231096
 10
-381.9142015874322
 20
1606.282632870373
 10
36.5851443432266
 20
1606.282632870373
  0
LWPOLYLINE
  5
FD
330
17
100
AcDbEntity
  8
AREE LEONARDO
 62
5
100
AcDbPolyline
 90
4
 70
1
 10
249.5858031901507
 20
2250.383958040791
 10
636.0045249084037
 20
2250.383958040791
 10
636.0045249084037
 20
1928.246001807914
 10
249.5858031901507
 20
1928.246001807914
  0
LWPOLYLINE
  5
FE
330
17
100
AcDbEntity
  8
AREE LEONARDO
 62
5
100
AcDbPolyline
 90
4
 70
1
 10
636.0045251476477
 20
1732.649360983774
 10
249.5858031901498
 20
1732.649360983774
 10
249.5858031901498
 20
1300.883958040792
 10
636.0045251476477
 20
1300.883958040792
  0
ENDSEC
  0
SECTION
  2
OBJECTS
  0
DICTIONARY
  5
A
330
0
100
AcDbDictionary
280
0
281
1
  3
ACAD_COLOR
350
B
  3
ACAD_GROUP
350
C
  3
ACAD_LAYOUT
350
D
  3
ACAD_MATERIAL
350
E
  3
ACAD_MLEADERSTYLE
350
F
  3
ACAD_MLINESTYLE
350
10
  3
ACAD_PLOTSETTINGS
350
11
  3
ACAD_PLOTSTYLENAME
350
12
  3
ACAD_SCALELIST
350
14
  3
ACAD_TABLESTYLE
350
15
  3
ACAD_VISUALSTYLE
350
16
  3
EZDXF_META
350
2D
  0
DICTIONARY
  5
B
330
A
100
AcDbDictionary
280
0
281
1
  0
DICTIONARY
  5
C
330
A
100
AcDbDictionary
280
0
281
1
  0
DICTIONARY
  5
D
330
A
100
AcDbDictionary
280
0
281
1
  3
Model
350
1A
  3
Layout1
350
1E
  0
DICTIONARY
  5
E
330
A
100
AcDbDictionary
280
0
281
1
  3
ByBlock
350
1F
  3
ByLayer
350
20
  3
Global
350
21
  0
DICTIONARY
  5
F
330
A
100
AcDbDictionary
280
0
281
1
  3
Standard
350
2C
  0
DICTIONARY
  5
10
330
A
100
AcDbDictionary
280
0
281
1
  3
Standard
350
22
  0
DICTIONARY
  5
11
330
A
100
AcDbDictionary
280
0
281
1
  0
ACDBDICTIONARYWDFLT
  5
12
330
A
100
AcDbDictionary
280
0
281
1
  3
Normal
350
13
100
AcDbDictionaryWithDefault
340
13
  0
ACDBPLACEHOLDER
  5
13
330
12
  0
DICTIONARY
  5
14
330
A
100
AcDbDictionary
280
0
281
1
  0
DICTIONARY
  5
15
330
A
100
AcDbDictionary
280
0
281
1
  0
DICTIONARY
  5
16
330
A
100
AcDbDictionary
280
0
281
1
  0
LAYOUT
  5
1A
330
D
100
AcDbPlotSettings
  1

  2
Adobe PDF
  4
A3
  6

 40
7.5
 41
20.0
 42
7.5
 43
20.0
 44
420.0
 45
297.0
 46
0.0
 47
0.0
 48
0.0
 49
0.0
140
0.0
141
0.0
142
1.0
143
1.0
 70
1024
 72
1
 73
0
 74
5
  7

 75
16
 76
0
 77
2
 78
300
147
1.0
148
0.0
149
0.0
100
AcDbLayout
  1
Model
 70
1
 71
0
 10
0.0
 20
0.0
 11
420.0
 21
297.0
 12
0.0
 22
0.0
 32
0.0
 14
1e+20
 24
1e+20
 34
1e+20
 15
-1e+20
 25
-1e+20
 35
-1e+20
146
0.0
 13
0.0
 23
0.0
 33
0.0
 16
1.0
 26
0.0
 36
0.0
 17
0.0
 27
1.0
 37
0.0
 76
1
330
17
  0
LAYOUT
  5
1E
330
D
100
AcDbPlotSettings
  1

  2
Adobe PDF
  4
A3
  6

 40
7.5
 41
20.0
 42
7.5
 43
20.0
 44
420.0
 45
297.0
 46
0.0
 47
0.0
 48
0.0
 49
0.0
140
0.0
141
0.0
142
1.0
143
1.0
 70
0
 72
1
 73
0
 74
5
  7

 75
16
 76
0
 77
2
 78
300
147
1.0
148
0.0
149
0.0
100
AcDbLayout
  1
Layout1
 70
1
 71
1
 10
0.0
 20
0.0
 11
420.0
 21
297.0
 12
0.0
 22
0.0
 32
0.0
 14
1e+20
 24
1e+20
 34
1e+20
 15
-1e+20
 25
-1e+20
 35
-1e+20
146
0.0
 13
0.0
 23
0.0
 33
0.0
 16
1.0
 26
0.0
 36
0.0
 17
0.0
 27
1.0
 37
0.0
 76
1
330
1B
  0
MATERIAL
  5
1F
102
{ACAD_REACTORS
330
E
102
}
330
E
100
AcDbMaterial
  1
ByBlock
  2

 70
0
 40
1.0
 71
1
 41
1.0
 91
-1023410177
 42
1.0
 72
1
  3

 73
1
 74
1
 75
1
 44
0.5
 73
0
 45
1.0
 46
1.0
 77
1
  4

 78
1
 79
1
170
1
 48
1.0
171
1
  6

172
1
173
1
174
1
140
1.0
141
1.0
175
1
  7

176
1
177
1
178
1
143
1.0
179
1
  8

270
1
271
1
272
1
145
1.0
146
1.0
273
1
  9

274
1
275
1
276
1
 42
1.0
 72
1
  3

 73
1
 74
1
 75
1
 94
63
  0
MATERIAL
  5
20
102
{ACAD_REACTORS
330
E
102
}
330
E
100
AcDbMaterial
  1
ByLayer
  2

 70
0
 40
1.0
 71
1
 41
1.0
 91
-1023410177
 42
1.0
 72
1
  3

 73
1
 74
1
 75
1
 44
0.5
 73
0
 45
1.0
 46
1.0
 77
1
  4

 78
1
 79
1
170
1
 48
1.0
171
1
  6

172
1
173
1
174
1
140
1.0
141
1.0
175
1
  7

176
1
177
1
178
1
143
1.0
179
1
  8

270
1
271
1
272
1
145
1.0
146
1.0
273
1
  9

274
1
275
1
276
1
 42
1.0
 72
1
  3

 73
1
 74
1
 75
1
 94
63
  0
MATERIAL
  5
21
102
{ACAD_REACTORS
330
E
102
}
330
E
100
AcDbMaterial
  1
Global
  2

 70
0
 40
1.0
 71
1
 41
1.0
 91
-1023410177
 42
1.0
 72
1
  3

 73
1
 74
1
 75
1
 44
0.5
 73
0
 45
1.0
 46
1.0
 77
1
  4

 78
1
 79
1
170
1
 48
1.0
171
1
  6

172
1
173
1
174
1
140
1.0
141
1.0
175
1
  7

176
1
177
1
178
1
143
1.0
179
1
  8

270
1
271
1
272
1
145
1.0
146
1.0
273
1
  9

274
1
275
1
276
1
 42
1.0
 72
1
  3

 73
1
 74
1
 75
1
 94
63
  0
MLINESTYLE
  5
22
102
{ACAD_REACTORS
330
10
102
}
330
10
100
AcDbMlineStyle
  2
Standard
 70
0
  3

 62
256
 51
90.0
 52
90.0
 71
2
 49
0.5
 62
256
  6
BYLAYER
 49
-0.5
 62
256
  6
BYLAYER
  0
MLEADERSTYLE
  5
2C
102
{ACAD_REACTORS
330
F
102
}
330
F
100
AcDbMLeaderStyle
179
2
170
2
171
1
172
0
 90
2
 40
0.0
 41
0.0
173
1
 91
-1056964608
 92
-2
290
1
 42
2.0
291
1
 43
8.0
  3
Standard
 44
4.0
300

342
29
174
1
175
1
176
0
178
1
 93
-1056964608
 45
4.0
292
0
297
0
 46
4.0
 94
-1056964608
 47
1.0
 49
1.0
140
1.0
294
1
141
0.0
177
0
142
1.0
295
0
296
0
143
3.75
271
0
272
9
273
9
  0
DICTIONARY
  5
2D
330
A
100
AcDbDictionary
281
1
  3
CREATED_BY_EZDXF
350
2E
  3
WRITTEN_BY_EZDXF
350
102
  0
DICTIONARYVAR
  5
2E
330
2D
100
DictionaryVariables
280
0
  1
1.1.2 @ 2023-11-14T21:36:06.846586+00:00
  0
DICTIONARYVAR
  5
102
330
2D
100
DictionaryVariables
280
0
  1
1.1.2 @ 2023-11-14T21:36:06.864330+00:00
  0
ENDSEC
  0
EOF
