  0
SECTION
  2
HEADER
  9
$ACADVER
  1
AC1032
  9
$ACADMAINTVER
 90
4
  9
$DWGCODEPAGE
  3
ANSI_1252
  9
$LASTSAVEDBY
  1
ezdxf
  9
$REQUIREDVERSIONS
160
0
  9
$INSBASE
 10
0.0
 20
0.0
 30
0.0
  9
$EXTMIN
 10
1e+20
 20
1e+20
 30
1e+20
  9
$EXTMAX
 10
-1e+20
 20
-1e+20
 30
-1e+20
  9
$LIMMIN
 10
0.0
 20
0.0
  9
$LIMMAX
 10
420.0
 20
297.0
  9
$ORTHOMODE
 70
0
  9
$REGENMODE
 70
1
  9
$FILLMODE
 70
1
  9
$QTEXTMODE
 70
0
  9
$MIRRTEXT
 70
1
  9
$LTSCALE
 40
1.0
  9
$ATTMODE
 70
1
  9
$TEXTSIZE
 40
2.5
  9
$TRACEWID
 40
1.0
  9
$TEXTSTYLE
  7
Standard
  9
$CLAYER
  8
0
  9
$CELTYPE
  6
ByLayer
  9
$CECOLOR
 62
256
  9
$CELTSCALE
 40
1.0
  9
$DISPSILH
 70
0
  9
$DIMSCALE
 40
1.0
  9
$DIMASZ
 40
2.5
  9
$DIMEXO
 40
0.625
  9
$DIMDLI
 40
3.75
  9
$DIMRND
 40
0.0
  9
$DIMDLE
 40
0.0
  9
$DIMEXE
 40
1.25
  9
$DIMTP
 40
0.0
  9
$DIMTM
 40
0.0
  9
$DIMTXT
 40
2.5
  9
$DIMCEN
 40
2.5
  9
$DIMTSZ
 40
0.0
  9
$DIMTOL
 70
0
  9
$DIMLIM
 70
0
  9
$DIMTIH
 70
0
  9
$DIMTOH
 70
0
  9
$DIMSE1
 70
0
  9
$DIMSE2
 70
0
  9
$DIMTAD
 70
1
  9
$DIMZIN
 70
8
  9
$DIMBLK
  1

  9
$DIMASO
 70
1
  9
$DIMSHO
 70
1
  9
$DIMPOST
  1

  9
$DIMAPOST
  1

  9
$DIMALT
 70
0
  9
$DIMALTD
 70
3
  9
$DIMALTF
 40
0.03937007874
  9
$DIMLFAC
 40
1.0
  9
$DIMTOFL
 70
1
  9
$DIMTVP
 40
0.0
  9
$DIMTIX
 70
0
  9
$DIMSOXD
 70
0
  9
$DIMSAH
 70
0
  9
$DIMBLK1
  1

  9
$DIMBLK2
  1

  9
$DIMSTYLE
  2
ISO-25
  9
$DIMCLRD
 70
0
  9
$DIMCLRE
 70
0
  9
$DIMCLRT
 70
0
  9
$DIMTFAC
 40
1.0
  9
$DIMGAP
 40
0.625
  9
$DIMJUST
 70
0
  9
$DIMSD1
 70
0
  9
$DIMSD2
 70
0
  9
$DIMTOLJ
 70
0
  9
$DIMTZIN
 70
8
  9
$DIMALTZ
 70
0
  9
$DIMALTTZ
 70
0
  9
$DIMUPT
 70
0
  9
$DIMDEC
 70
2
  9
$DIMTDEC
 70
2
  9
$DIMALTU
 70
2
  9
$DIMALTTD
 70
3
  9
$DIMTXSTY
  7
Standard
  9
$DIMAUNIT
 70
0
  9
$DIMADEC
 70
0
  9
$DIMALTRND
 40
0.0
  9
$DIMAZIN
 70
0
  9
$DIMDSEP
 70
44
  9
$DIMATFIT
 70
3
  9
$DIMFRAC
 70
0
  9
$DIMLDRBLK
  1

  9
$DIMLUNIT
 70
2
  9
$DIMLWD
 70
-2
  9
$DIMLWE
 70
-2
  9
$DIMTMOVE
 70
0
  9
$DIMFXL
 40
1.0
  9
$DIMFXLON
 70
0
  9
$DIMJOGANG
 40
0.785398163397
  9
$DIMTFILL
 70
0
  9
$DIMTFILLCLR
 70
0
  9
$DIMARCSYM
 70
0
  9
$DIMLTYPE
  6

  9
$DIMLTEX1
  6

  9
$DIMLTEX2
  6

  9
$DIMTXTDIRECTION
 70
0
  9
$LUNITS
 70
2
  9
$LUPREC
 70
4
  9
$SKETCHINC
 40
1.0
  9
$FILLETRAD
 40
10.0
  9
$AUNITS
 70
0
  9
$AUPREC
 70
2
  9
$MENU
  1
.
  9
$ELEVATION
 40
0.0
  9
$PELEVATION
 40
0.0
  9
$THICKNESS
 40
0.0
  9
$LIMCHECK
 70
0
  9
$CHAMFERA
 40
0.0
  9
$CHAMFERB
 40
0.0
  9
$CHAMFERC
 40
0.0
  9
$CHAMFERD
 40
0.0
  9
$SKPOLY
 70
0
  9
$TDCREATE
 40
2460263.899965278
  9
$TDUCREATE
 40
2458532.153996898
  9
$TDUPDATE
 40
2460263.899965278
  9
$TDUUPDATE
 40
2458532.1544311
  9
$TDINDWG
 40
0.0
  9
$TDUSRTIMER
 40
0.0
  9
$USRTIMER
 70
1
  9
$ANGBASE
 50
0.0
  9
$ANGDIR
 70
0
  9
$PDMODE
 70
0
  9
$PDSIZE
 40
0.0
  9
$PLINEWID
 40
0.0
  9
$SPLFRAME
 70
0
  9
$SPLINETYPE
 70
6
  9
$SPLINESEGS
 70
8
  9
$HANDSEED
  5
7F
  9
$SURFTAB1
 70
6
  9
$SURFTAB2
 70
6
  9
$SURFTYPE
 70
6
  9
$SURFU
 70
6
  9
$SURFV
 70
6
  9
$UCSBASE
  2

  9
$UCSNAME
  2

  9
$UCSORG
 10
0.0
 20
0.0
 30
0.0
  9
$UCSXDIR
 10
1.0
 20
0.0
 30
0.0
  9
$UCSYDIR
 10
0.0
 20
1.0
 30
0.0
  9
$UCSORTHOREF
  2

  9
$UCSORTHOVIEW
 70
0
  9
$UCSORGTOP
 10
0.0
 20
0.0
 30
0.0
  9
$UCSORGBOTTOM
 10
0.0
 20
0.0
 30
0.0
  9
$UCSORGLEFT
 10
0.0
 20
0.0
 30
0.0
  9
$UCSORGRIGHT
 10
0.0
 20
0.0
 30
0.0
  9
$UCSORGFRONT
 10
0.0
 20
0.0
 30
0.0
  9
$UCSORGBACK
 10
0.0
 20
0.0
 30
0.0
  9
$PUCSBASE
  2

  9
$PUCSNAME
  2

  9
$PUCSORG
 10
0.0
 20
0.0
 30
0.0
  9
$PUCSXDIR
 10
1.0
 20
0.0
 30
0.0
  9
$PUCSYDIR
 10
0.0
 20
1.0
 30
0.0
  9
$PUCSORTHOREF
  2

  9
$PUCSORTHOVIEW
 70
0
  9
$PUCSORGTOP
 10
0.0
 20
0.0
 30
0.0
  9
$PUCSORGBOTTOM
 10
0.0
 20
0.0
 30
0.0
  9
$PUCSORGLEFT
 10
0.0
 20
0.0
 30
0.0
  9
$PUCSORGRIGHT
 10
0.0
 20
0.0
 30
0.0
  9
$PUCSORGFRONT
 10
0.0
 20
0.0
 30
0.0
  9
$PUCSORGBACK
 10
0.0
 20
0.0
 30
0.0
  9
$USERI1
 70
0
  9
$USERI2
 70
0
  9
$USERI3
 70
0
  9
$USERI4
 70
0
  9
$USERI5
 70
0
  9
$USERR1
 40
0.0
  9
$USERR2
 40
0.0
  9
$USERR3
 40
0.0
  9
$USERR4
 40
0.0
  9
$USERR5
 40
0.0
  9
$WORLDVIEW
 70
1
  9
$SHADEDGE
 70
3
  9
$SHADEDIF
 70
70
  9
$TILEMODE
 70
1
  9
$MAXACTVP
 70
64
  9
$PINSBASE
 10
0.0
 20
0.0
 30
0.0
  9
$PLIMCHECK
 70
0
  9
$PEXTMIN
 10
1e+20
 20
1e+20
 30
1e+20
  9
$PEXTMAX
 10
-1e+20
 20
-1e+20
 30
-1e+20
  9
$PLIMMIN
 10
0.0
 20
0.0
  9
$PLIMMAX
 10
420.0
 20
297.0
  9
$UNITMODE
 70
0
  9
$VISRETAIN
 70
1
  9
$PLINEGEN
 70
0
  9
$PSLTSCALE
 70
1
  9
$TREEDEPTH
 70
3020
  9
$CMLSTYLE
  2
Standard
  9
$CMLJUST
 70
0
  9
$CMLSCALE
 40
20.0
  9
$PROXYGRAPHICS
 70
1
  9
$MEASUREMENT
 70
1
  9
$CELWEIGHT
370
-1
  9
$ENDCAPS
280
0
  9
$JOINSTYLE
280
0
  9
$LWDISPLAY
290
0
  9
$INSUNITS
 70
6
  9
$HYPERLINKBASE
  1

  9
$STYLESHEET
  1

  9
$XEDIT
290
1
  9
$CEPSNTYPE
380
0
  9
$PSTYLEMODE
290
1
  9
$FINGERPRINTGUID
  2
{97682295-5CA4-4F81-96A3-2BCB50FB21DE}
  9
$VERSIONGUID
  2
{24A11442-0B26-4D26-AFDE-C65A7043B8BA}
  9
$EXTNAMES
290
1
  9
$PSVPSCALE
 40
0.0
  9
$OLESTARTUP
290
0
  9
$SORTENTS
280
127
  9
$INDEXCTL
280
0
  9
$HIDETEXT
280
1
  9
$XCLIPFRAME
280
0
  9
$HALOGAP
280
0
  9
$OBSCOLOR
 70
257
  9
$OBSLTYPE
280
0
  9
$INTERSECTIONDISPLAY
280
0
  9
$INTERSECTIONCOLOR
 70
257
  9
$DIMASSOC
280
2
  9
$PROJECTNAME
  1

  9
$CAMERADISPLAY
290
0
  9
$LENSLENGTH
 40
50.0
  9
$CAMERAHEIGHT
 40
0.0
  9
$STEPSPERSEC
 40
24.0
  9
$STEPSIZE
 40
100.0
  9
$3DDWFPREC
 40
2.0
  9
$PSOLWIDTH
 40
0.005
  9
$PSOLHEIGHT
 40
0.08
  9
$LOFTANG1
 40
1.570796326795
  9
$LOFTANG2
 40
1.570796326795
  9
$LOFTMAG1
 40
0.0
  9
$LOFTMAG2
 40
0.0
  9
$LOFTPARAM
 70
7
  9
$LOFTNORMALS
280
1
  9
$LATITUDE
 40
37.795
  9
$LONGITUDE
 40
-122.394
  9
$NORTHDIRECTION
 40
0.0
  9
$TIMEZONE
 70
-8000
  9
$LIGHTGLYPHDISPLAY
280
1
  9
$TILEMODELIGHTSYNCH
280
1
  9
$CMATERIAL
347
20
  9
$SOLIDHIST
280
0
  9
$SHOWHIST
280
1
  9
$DWFFRAME
280
2
  9
$DGNFRAME
280
2
  9
$REALWORLDSCALE
290
1
  9
$INTERFERECOLOR
 62
256
  9
$CSHADOW
280
0
  9
$SHADOWPLANELOCATION
 40
0.0
  0
ENDSEC
  0
SECTION
  2
CLASSES
  0
CLASS
  1
ACDBDICTIONARYWDFLT
  2
AcDbDictionaryWithDefault
  3
ObjectDBX Classes
 90
0
 91
0
280
0
281
0
  0
CLASS
  1
SUN
  2
AcDbSun
  3
SCENEOE
 90
1153
 91
0
280
0
281
0
  0
CLASS
  1
VISUALSTYLE
  2
AcDbVisualStyle
  3
ObjectDBX Classes
 90
4095
 91
0
280
0
281
0
  0
CLASS
  1
MATERIAL
  2
AcDbMaterial
  3
ObjectDBX Classes
 90
1153
 91
0
280
0
281
0
  0
CLASS
  1
SCALE
  2
AcDbScale
  3
ObjectDBX Classes
 90
1153
 91
0
280
0
281
0
  0
CLASS
  1
TABLESTYLE
  2
AcDbTableStyle
  3
ObjectDBX Classes
 90
4095
 91
0
280
0
281
0
  0
CLASS
  1
MLEADERSTYLE
  2
AcDbMLeaderStyle
  3
ACDB_MLEADERSTYLE_CLASS
 90
4095
 91
0
280
0
281
0
  0
CLASS
  1
DICTIONARYVAR
  2
AcDbDictionaryVar
  3
ObjectDBX Classes
 90
0
 91
0
280
0
281
0
  0
CLASS
  1
CELLSTYLEMAP
  2
AcDbCellStyleMap
  3
ObjectDBX Classes
 90
1152
 91
0
280
0
281
0
  0
CLASS
  1
MENTALRAYRENDERSETTINGS
  2
AcDbMentalRayRenderSettings
  3
SCENEOE
 90
1024
 91
0
280
0
281
0
  0
CLASS
  1
ACDBDETAILVIEWSTYLE
  2
AcDbDetailViewStyle
  3
ObjectDBX Classes
 90
1025
 91
0
280
0
281
0
  0
CLASS
  1
ACDBSECTIONVIEWSTYLE
  2
AcDbSectionViewStyle
  3
ObjectDBX Classes
 90
1025
 91
0
280
0
281
0
  0
CLASS
  1
RASTERVARIABLES
  2
AcDbRasterVariables
  3
ISM
 90
0
 91
0
280
0
281
0
  0
CLASS
  1
LAYOUT
  2
AcDbLayout
  3
ObjectDBX Classes
 90
0
 91
0
280
0
281
0
  0
CLASS
  1
ACDBPLACEHOLDER
  2
AcDbPlaceHolder
  3
ObjectDBX Classes
 90
0
 91
0
280
0
281
0
  0
ENDSEC
  0
SECTION
  2
TABLES
  0
TABLE
  2
VPORT
  5
8
330
0
100
AcDbSymbolTable
 70
1
  0
VPORT
  5
23
330
8
100
AcDbSymbolTableRecord
100
AcDbViewportTableRecord
  2
*Active
 70
0
 10
0.0
 20
0.0
 11
1.0
 21
1.0
 12
0.0
 22
0.0
 13
0.0
 23
0.0
 14
0.5
 24
0.5
 15
0.5
 25
0.5
 16
0.0
 26
0.0
 36
1.0
 17
0.0
 27
0.0
 37
0.0
 40
1000.0
 41
1.34
 42
50.0
 43
0.0
 44
0.0
 50
0.0
 51
0.0
 71
0
 72
1000
 73
1
 74
3
 75
0
 76
0
 77
0
 78
0
281
0
 65
0
146
0.0
  0
ENDTAB
  0
TABLE
  2
LTYPE
  5
2
330
0
100
AcDbSymbolTable
 70
3
  0
LTYPE
  5
24
330
2
100
AcDbSymbolTableRecord
100
AcDbLinetypeTableRecord
  2
ByBlock
 70
0
  3

 72
65
 73
0
 40
0.0
  0
LTYPE
  5
25
330
2
100
AcDbSymbolTableRecord
100
AcDbLinetypeTableRecord
  2
ByLayer
 70
0
  3

 72
65
 73
0
 40
0.0
  0
LTYPE
  5
26
330
2
100
AcDbSymbolTableRecord
100
AcDbLinetypeTableRecord
  2
Continuous
 70
0
  3

 72
65
 73
0
 40
0.0
  0
ENDTAB
  0
TABLE
  2
LAYER
  5
1
330
0
100
AcDbSymbolTable
 70
3
  0
LAYER
  5
27
330
1
100
AcDbSymbolTableRecord
100
AcDbLayerTableRecord
  2
0
 70
0
 62
7
  6
Continuous
370
-3
390
13
347
21
  0
LAYER
  5
28
330
1
100
AcDbSymbolTableRecord
100
AcDbLayerTableRecord
  2
Defpoints
 70
0
 62
7
  6
Continuous
290
0
370
-3
390
13
347
21
  0
LAYER
  5
7B
330
1
100
AcDbSymbolTableRecord
100
AcDbLayerTableRecord
  2
AREE LEONARDO
 70
0
 62
5
  6
Continuous
370
-3
390
F
347
EE
  0
ENDTAB
  0
TABLE
  2
STYLE
  5
5
330
0
100
AcDbSymbolTable
 70
1
  0
STYLE
  5
29
330
5
100
AcDbSymbolTableRecord
100
AcDbTextStyleTableRecord
  2
Standard
 70
0
 40
0.0
 41
1.0
 50
0.0
 71
0
 42
2.5
  3
txt
  4

  0
ENDTAB
  0
TABLE
  2
VIEW
  5
7
330
0
100
AcDbSymbolTable
 70
0
  0
ENDTAB
  0
TABLE
  2
UCS
  5
6
330
0
100
AcDbSymbolTable
 70
0
  0
ENDTAB
  0
TABLE
  2
APPID
  5
3
330
0
100
AcDbSymbolTable
 70
3
  0
APPID
  5
2A
330
3
100
AcDbSymbolTableRecord
100
AcDbRegAppTableRecord
  2
ACAD
 70
0
  0
APPID
  5
7C
330
3
100
AcDbSymbolTableRecord
100
AcDbRegAppTableRecord
  2
HATCHBACKGROUNDCOLOR
 70
0
  0
APPID
  5
7D
330
3
100
AcDbSymbolTableRecord
100
AcDbRegAppTableRecord
  2
EZDXF
 70
0
  0
ENDTAB
  0
TABLE
  2
DIMSTYLE
  5
4
330
0
100
AcDbSymbolTable
 70
1
100
AcDbDimStyleTable
  0
DIMSTYLE
105
2B
330
4
100
AcDbSymbolTableRecord
100
AcDbDimStyleTableRecord
  2
Standard
 70
0
 40
1.0
 41
2.5
 42
0.625
 43
3.75
 44
1.25
 45
0.0
 46
0.0
 47
0.0
 48
0.0
 49
2.5
140
2.5
141
2.5
142
0.0
143
0.03937007874
144
1.0
145
0.0
146
1.0
147
0.625
148
0.0
 69
0
 70
0
 71
0
 72
0
 73
0
 74
0
 75
0
 76
0
 77
1
 78
8
 79
3
170
0
171
3
172
1
173
0
174
0
175
0
176
0
177
0
178
0
179
2
271
2
272
2
273
2
274
3
275
0
276
0
277
2
278
44
279
0
280
0
281
0
282
0
283
0
284
8
285
0
286
0
288
0
289
3
290
0
371
-2
372
-2
  0
ENDTAB
  0
TABLE
  2
BLOCK_RECORD
  5
9
330
0
100
AcDbSymbolTable
 70
2
  0
BLOCK_RECORD
  5
17
330
9
100
AcDbSymbolTableRecord
100
AcDbBlockTableRecord
  2
*Model_Space
340
1A
 70
0
280
1
281
0
  0
BLOCK_RECORD
  5
1B
330
9
100
AcDbSymbolTableRecord
100
AcDbBlockTableRecord
  2
*Paper_Space
340
1E
 70
0
280
1
281
0
  0
ENDTAB
  0
ENDSEC
  0
SECTION
  2
BLOCKS
  0
BLOCK
  5
18
330
17
100
AcDbEntity
  8
0
100
AcDbBlockBegin
  2
*Model_Space
 70
0
 10
0.0
 20
0.0
 30
0.0
  3
*Model_Space
  1

  0
ENDBLK
  5
19
330
17
100
AcDbEntity
  8
0
100
AcDbBlockEnd
  0
BLOCK
  5
1C
330
1B
100
AcDbEntity
  8
0
100
AcDbBlockBegin
  2
*Paper_Space
 70
0
 10
0.0
 20
0.0
 30
0.0
  3
*Paper_Space
  1

  0
ENDBLK
  5
1D
330
1B
100
AcDbEntity
  8
0
100
AcDbBlockEnd
  0
ENDSEC
  0
SECTION
  2
ENTITIES
  0
LWPOLYLINE
  5
2F
330
17
100
AcDbEntity
  8
AREE LEONARDO
 62
5
100
AcDbPolyline
 90
7
 70
1
 10
23713.82026046814
 20
26893.62134539326
 10
23713.82026046696
 20
19864.62134539331
 10
28133.32026046811
 20
19856.62134539328
 10
28125.32026046811
 20
20364.62134539329
 10
30113.32026046811
 20
20356.62134539425
 10
30115.32026046812
 20
26893.62134539326
 10
23713.82026046814
 20
26893.62134539326
  0
LWPOLYLINE
  5
30
330
17
100
AcDbEntity
  8
AREE LEONARDO
 62
5
100
AcDbPolyline
 90
7
 70
1
 10
30426.49507098169
 20
26893.62134539326
 10
33995.32026046813
 20
26893.62134539326
 10
33995.8202604681
 20
20356.62134539425
 10
32002.82026046813
 20
20364.62134539329
 10
32002.82026046813
 20
19864.62134539328
 10
30426.49507098168
 20
19864.62134539328
 10
30426.49507098169
 20
26893.62134539326
  0
LWPOLYLINE
  5
31
330
17
100
AcDbEntity
  8
AREE LEONARDO
 62
5
100
AcDbPolyline
 90
11
 70
1
 10
34303.82026046814
 20
26893.6213453933
 10
34303.82026046813
 20
19864.62134539327
 10
35902.82026046813
 20
19864.62134539327
 10
35902.82026046813
 20
20364.62134539326
 10
38178.82794392185
 20
20364.62134539326
 10
38178.82794392185
 20
19864.62134539324
 10
39802.81257701439
 20
19864.62134539324
 10
39802.81257701439
 20
20364.62134539326
 10
41792.82026046812
 20
20364.62134539326
 10
41792.82026046813
 20
26893.62134539319
 10
34303.82026046814
 20
26893.6213453933
  0
LWPOLYLINE
  5
32
330
17
100
AcDbEntity
  8
AREE LEONARDO
 62
5
100
AcDbPolyline
 90
13
 70
1
 10
32248.82026046808
 20
3849.654258795942
 10
41770.32026046807
 20
3849.654258795942
 10
41770.32026046807
 20
10331.62134539313
 10
39678.70030735062
 20
10331.62134539313
 10
39678.70030735062
 20
10911.62134539313
 10
38210.82026046809
 20
10911.62134539313
 10
38210.82026046809
 20
10331.62134539313
 10
37860.82026046809
 20
10331.62134539313
 10
37860.82026046808
 20
11156.62134539311
 10
34318.82026046809
 20
11156.62134539311
 10
34318.82026046809
 20
10323.62134539315
 10
32248.82026046809
 20
10331.62134539315
 10
32248.82026046808
 20
3849.654258795942
  0
LWPOLYLINE
  5
33
330
17
100
AcDbEntity
  8
AREE LEONARDO
 62
5
100
AcDbPolyline
 90
7
 70
1
 10
44205.70669669951
 20
10881.12134539315
 10
44205.70669669951
 20
10323.62134539315
 10
42078.82026046809
 20
10323.62134539315
 10
42078.82026046809
 20
3849.621345393121
 10
49617.82026046823
 20
3849.621345393084
 10
49617.82026046825
 20
10881.12134539313
 10
44205.70669669951
 20
10881.12134539315
  0
LWPOLYLINE
  5
34
330
17
100
AcDbEntity
  8
AREE LEONARDO
 62
6
100
AcDbPolyline
 90
60
 70
1
 10
23402.82026046811
 20
19553.62134539333
 10
23402.8202604681
 20
22026.12134539332
 10
21918.82026046811
 20
22026.12134539332
 10
21918.8202604681
 20
19553.62134539331
 10
20535.82026046812
 20
19553.62134539332
 10
20535.82026046812
 20
17592.12134539331
 10
28768.82026046811
 20
17592.12134539321
 10
28768.82026046811
 20
17511.62134539333
 10
28773.3202604681
 20
17511.62134539333
 10
28773.32026046817
 20
17486.62134539342
 10
28863.3202604681
 20
17486.62134539338
 10
28863.3202604681
 20
17389.12134539329
 10
29060.82026046811
 20
17386.6213453933
 10
29060.82026046811
 20
15826.62134539329
 10
28760.82026046812
 20
15826.62134539329
 10
28760.82026046812
 20
11214.62134539315
 10
32248.82026046809
 20
11214.62134539314
 10
32253.32026046809
 20
10456.62134539315
 10
33952.82026046809
 20
10456.62134539314
 10
33952.82026046809
 20
11214.62134539314
 10
40061.32026046808
 20
11214.62134539312
 10
40061.32026046808
 20
10456.62134539313
 10
41770.32026046809
 20
10456.62134539313
 10
41770.32026046809
 20
11214.6542587959
 10
42078.82026046809
 20
11214.6542587959
 10
42078.82026046809
 20
10456.62134539316
 10
43785.3202604681
 20
10456.62134539315
 10
43785.3202604681
 20
11214.62134539314
 10
44685.32026046807
 20
11214.62134539314
 10
44685.32026046806
 20
12293.62134539311
 10
43785.3202604681
 20
12293.62134539311
 10
43785.3202604681
 20
15289.62134539307
 10
44685.32026046809
 20
15297.62134539307
 10
44685.32026046809
 20
15421.62134539324
 10
44685.32026046809
 20
16401.57377740946
 10
43782.87841518831
 20
16399.6356944682
 10
43790.3202604681
 20
19864.62134539318
 10
49617.82026046823
 20
19864.62134539318
 10
49617.82026046823
 20
21348.62134539316
 10
42103.8202604681
 20
21348.62134539318
 10
42103.8202604681
 20
19839.62134539323
 10
42306.32026046809
 20
19839.62134539323
 10
42306.32026046809
 20
19553.62134539323
 10
41792.82026046812
 20
19553.62134539323
 10
41792.82026046812
 20
20231.62134539326
 10
40088.82026046812
 20
20231.62134539326
 10
40088.82026046812
 20
19553.62134539324
 10
37892.82026046812
 20
19553.62134539324
 10
37900.82026046812
 20
20231.62134539326
 10
36180.82026046812
 20
20229.12134539327
 10
36188.82026046812
 20
19553.62134539327
 10
33995.32026046812
 20
19553.62134539327
 10
33995.8202604681
 20
20231.6213453933
 10
32291.32026046812
 20
20231.6213453933
 10
32291.32026046812
 20
19553.62134539329
 10
30115.32026046811
 20
19553.62134539329
 10
30115.32026046811
 20
20231.6213453933
 10
28411.32026046811
 20
20231.6213453933
 10
28411.32026046811
 20
19553.62134539331
 10
23402.82026046811
 20
19553.62134539333
  0
LWPOLYLINE
  5
35
330
17
100
AcDbEntity
  8
AREE LEONARDO
 62
2
100
AcDbPolyline
 90
6
 70
1
 10
25366.99122194827
 20
26357.84604181782
 10
25366.99122194827
 20
25752.19241679211
 10
25973.58821109799
 20
25752.19241679211
 10
25973.58821109799
 20
26359.01101441219
 10
25366.98750801748
 20
26359.01101441219
 10
25366.99122194827
 20
26357.84604181782
  0
LWPOLYLINE
  5
36
330
17
100
AcDbEntity
  8
AREE LEONARDO
 62
2
100
AcDbPolyline
 90
6
 70
1
 10
32034.49122194821
 20
26357.84604181782
 10
32034.49122194821
 20
25752.19241679211
 10
32641.08821109794
 20
25752.19241679211
 10
32641.08821109794
 20
26359.01101441219
 10
32034.48750801743
 20
26359.01101441219
 10
32034.49122194821
 20
26357.84604181782
  0
LWPOLYLINE
  5
37
330
17
100
AcDbEntity
  8
AREE LEONARDO
 62
2
100
AcDbPolyline
 90
6
 70
1
 10
39834.49122194821
 20
26357.84604181782
 10
39834.49122194821
 20
25752.19241679211
 10
40441.08821109793
 20
25752.19241679211
 10
40441.08821109793
 20
26359.01101441219
 10
39834.48750801743
 20
26359.01101441219
 10
39834.49122194821
 20
26357.84604181782
  0
LWPOLYLINE
  5
38
330
17
100
AcDbEntity
  8
AREE LEONARDO
 62
2
100
AcDbPolyline
 90
6
 70
1
 10
35034.49122194819
 20
21557.84604181781
 10
35034.49122194819
 20
20952.19241679209
 10
35641.08821109792
 20
20952.19241679209
 10
35641.08821109792
 20
21559.01101441218
 10
35034.48750801741
 20
21559.01101441218
 10
35034.49122194819
 20
21557.84604181781
  0
LWPOLYLINE
  5
39
330
17
100
AcDbEntity
  8
AREE LEONARDO
 62
2
100
AcDbPolyline
 90
6
 70
1
 10
33234.49122194819
 20
21557.84604181781
 10
33234.49122194819
 20
20952.19241679209
 10
33841.08821109792
 20
20952.19241679209
 10
33841.08821109792
 20
21559.01101441218
 10
33234.48750801741
 20
21559.01101441218
 10
33234.49122194819
 20
21557.84604181781
  0
LWPOLYLINE
  5
3A
330
17
100
AcDbEntity
  8
AREE LEONARDO
 62
2
100
AcDbPolyline
 90
6
 70
1
 10
28971.99122194825
 20
21557.84604181781
 10
28971.99122194825
 20
20952.19241679209
 10
29578.58821109797
 20
20952.19241679209
 10
29578.58821109797
 20
21559.01101441218
 10
28971.98750801747
 20
21559.01101441218
 10
28971.99122194825
 20
21557.84604181781
  0
LWPOLYLINE
  5
3B
330
17
100
AcDbEntity
  8
AREE LEONARDO
 62
2
100
AcDbPolyline
 90
6
 70
1
 10
33208.21499074242
 20
5572.846041815967
 10
33208.21499074242
 20
4967.192416790247
 10
33814.81197989215
 20
4967.192416790247
 10
33814.81197989215
 20
5574.011014410338
 10
33208.21127681164
 20
5574.011014410338
 10
33208.21499074242
 20
5572.846041815967
  0
LWPOLYLINE
  5
3C
330
17
100
AcDbEntity
  8
AREE LEONARDO
 62
2
100
AcDbPolyline
 90
6
 70
1
 10
41008.21499074256
 20
9772.846041815705
 10
41008.21499074256
 20
9167.192416789985
 10
41614.81197989228
 20
9167.192416789985
 10
41614.81197989228
 20
9774.011014410078
 10
41008.21127681178
 20
9774.011014410078
 10
41008.21499074256
 20
9772.846041815705
  0
LINE
  5
3D
330
17
100
AcDbEntity
  8
AREE LEONARDO
 62
7
100
AcDbLine
 10
32661.78179312145
 20
20861.69335657245
 30
0.0
 11
32661.78179312145
 21
19976.47212010768
 31
0.0
  0
LINE
  5
3E
330
17
100
AcDbEntity
  8
AREE LEONARDO
 62
7
100
AcDbLine
 10
40370.2073530782
 20
20824.92845687106
 30
0.0
 11
40370.2073530782
 21
19939.70722040629
 31
0.0
  0
LINE
  5
3F
330
17
100
AcDbEntity
  8
AREE LEONARDO
 62
7
100
AcDbLine
 10
40388.01514471124
 20
10883.11649772803
 30
0.0
 11
40388.01514471124
 21
9997.895261263264
 31
0.0
  0
LINE
  5
40
330
17
100
AcDbEntity
  8
AREE LEONARDO
 62
7
100
AcDbLine
 10
43454.05863238562
 20
10897.63586991007
 30
0.0
 11
43454.05863238562
 21
10012.4146334453
 31
0.0
  0
LWPOLYLINE
  5
41
330
17
100
AcDbEntity
  8
AREE LEONARDO
 62
5
100
AcDbPolyline
 90
7
 70
1
 10
10584.79507021831
 20
64207.8432117224
 10
10584.7950702183
 20
57178.84321172246
 10
16276.29507021826
 20
57178.84321172246
 10
16276.29507021826
 20
57681.34321172244
 10
18088.5228700971
 20
57681.34321172244
 10
18088.79507021831
 20
64207.84321172237
 10
10584.79507021831
 20
64207.8432117224
  0
LWPOLYLINE
  5
42
330
17
100
AcDbEntity
  8
AREE LEONARDO
 62
5
100
AcDbPolyline
 90
7
 70
1
 10
18399.79507021891
 20
64207.84321172241
 10
18399.79507021891
 20
57178.84321172244
 10
24041.2950702183
 20
57178.84321172243
 10
24041.2950702183
 20
57681.34321172237
 10
25894.29507021831
 20
57681.34321172237
 10
25886.2950702183
 20
64207.8432117224
 10
18399.79507021891
 20
64207.84321172241
  0
LWPOLYLINE
  5
43
330
17
100
AcDbEntity
  8
AREE LEONARDO
 62
5
100
AcDbPolyline
 90
7
 70
1
 10
26102.29507021789
 20
64207.8432117224
 10
26102.29507021834
 20
57178.84321172243
 10
31866.29507021831
 20
57178.8432117224
 10
31866.29507021831
 20
57681.34321172237
 10
33713.7950702183
 20
57681.34321172238
 10
33713.79507021832
 20
64207.84321172237
 10
26102.29507021789
 20
64207.8432117224
  0
LWPOLYLINE
  5
44
330
17
100
AcDbEntity
  8
AREE LEONARDO
 62
5
100
AcDbPolyline
 90
7
 70
1
 10
34024.79507021832
 20
64207.84321172225
 10
34024.79507021829
 20
57178.84321172236
 10
39641.29507021827
 20
57178.84321172236
 10
39641.29507021827
 20
57681.34321172236
 10
41548.80403424766
 20
57681.3432117223
 10
41548.80403424766
 20
64207.84321172237
 10
34024.79507021832
 20
64207.84321172225
  0
LWPOLYLINE
  5
45
330
17
100
AcDbEntity
  8
AREE LEONARDO
 62
5
100
AcDbPolyline
 90
9
 70
1
 10
41764.80403424767
 20
64207.84321172234
 10
41764.80403424763
 20
57681.3432117223
 10
43947.33266940124
 20
57681.34321172234
 10
43947.33266940124
 20
57178.84321172228
 10
47835.68150644967
 20
57178.84321172227
 10
47835.68150644967
 20
57428.84321172228
 10
49338.79507021845
 20
57428.84321172227
 10
49338.79507021845
 20
64207.84321172231
 10
41764.80403424767
 20
64207.84321172234
  0
LWPOLYLINE
  5
46
330
17
100
AcDbEntity
  8
AREE LEONARDO
 62
5
100
AcDbPolyline
 90
9
 70
1
 10
10584.79507021829
 20
47637.84321172225
 10
10584.79507021828
 20
41163.8761251251
 10
18231.79507021827
 20
41163.8761251251
 10
18231.79507021828
 20
47637.8761251251
 10
16276.29507021826
 20
47637.84321172276
 10
16276.29507021826
 20
48217.84321172233
 10
14662.29507021828
 20
48217.84321172233
 10
14662.29507021828
 20
47637.84321172262
 10
10584.79507021829
 20
47637.84321172225
  0
LWPOLYLINE
  5
47
330
17
100
AcDbEntity
  8
AREE LEONARDO
 62
5
100
AcDbPolyline
 90
7
 70
1
 10
18337.29507021828
 20
48192.84321172231
 10
18337.29507021828
 20
41163.87612512509
 10
25888.79507021828
 20
41163.8761251251
 10
25888.79507021828
 20
47645.84321172223
 10
24041.2950702183
 20
47645.84321172223
 10
24041.2950702183
 20
48192.84321172229
 10
18337.29507021828
 20
48192.84321172231
  0
LWPOLYLINE
  5
48
330
17
100
AcDbEntity
  8
AREE LEONARDO
 62
5
100
AcDbPolyline
 90
7
 70
1
 10
26199.79507021827
 20
48192.84321172228
 10
26199.79507021827
 20
41163.84321172236
 10
33748.79507021829
 20
41163.84321172235
 10
33748.79507021829
 20
47637.84321172035
 10
31853.79507021828
 20
47637.84321172035
 10
31853.79507021828
 20
48192.84321172228
 10
26199.79507021827
 20
48192.84321172228
  0
LWPOLYLINE
  5
49
330
17
100
AcDbEntity
  8
AREE LEONARDO
 62
5
100
AcDbPolyline
 90
9
 70
1
 10
34064.79507021829
 20
48192.84321172227
 10
34064.79507021829
 20
47637.84321172225
 10
33964.7950702183
 20
47637.84321172225
 10
33964.79507021827
 20
41163.84321172235
 10
41488.79507021827
 20
41163.84321172231
 10
41488.79507021827
 20
47645.84321172225
 10
39416.29507021827
 20
47645.84321172225
 10
39416.29507021827
 20
48192.84321172225
 10
34064.79507021829
 20
48192.84321172227
  0
LWPOLYLINE
  5
4A
330
17
100
AcDbEntity
  8
AREE LEONARDO
 62
5
100
AcDbPolyline
 90
7
 70
1
 10
41806.68150644963
 20
47637.84321172225
 10
41806.68150644963
 20
41163.84321172223
 10
49338.79507021841
 20
41163.8432117222
 10
49338.79507021841
 20
48192.84321172224
 10
43897.29507021829
 20
48192.84321172225
 10
43897.29507021829
 20
47637.84321172225
 10
41806.68150644963
 20
47637.84321172225
  0
LWPOLYLINE
  5
4B
330
17
100
AcDbEntity
  8
AREE LEONARDO
 62
6
100
AcDbPolyline
 90
61
 70
1
 10
16417.29507021828
 20
57548.3432117224
 10
16417.29507021827
 20
53590.34321172243
 10
10371.7950702183
 20
53590.34321172247
 10
10371.7950702183
 20
51606.34321172244
 10
16417.29507021827
 20
51606.34321172244
 10
16416.79507021827
 20
47770.84321172224
 10
18116.79507021827
 20
47770.84321172225
 10
18116.79507021827
 20
48495.84321172232
 10
24182.29507021828
 20
48495.84321172232
 10
24185.29507021828
 20
47770.84321172222
 10
25888.79507021828
 20
47770.84321172222
 10
25888.79507021828
 20
48503.84321172227
 10
31986.79507021827
 20
48503.84321172227
 10
31986.79507021827
 20
47770.84321172219
 10
33696.79507021827
 20
47770.84321172221
 10
33696.79507021827
 20
48503.84321172226
 10
39782.29507021827
 20
48503.84321172226
 10
39782.29507021827
 20
47770.84321172225
 10
41488.79507021827
 20
47770.84321172225
 10
41488.79507021827
 20
48503.84321172219
 10
41806.68150644963
 20
48503.84321172219
 10
41806.68150644963
 20
47770.84321172226
 10
43510.68150644967
 20
47770.84321172226
 10
43510.68150644967
 20
48503.84321172223
 10
44406.28150644964
 20
48503.84321172209
 10
44406.28150644964
 20
49610.34321172222
 10
43506.29507021827
 20
49610.34321172222
 10
43506.29507021827
 20
57548.34321172234
 10
41764.80403424763
 20
57548.34321172234
 10
41764.80403424762
 20
56865.34321172228
 10
41548.81759801628
 20
56865.34321172244
 10
41548.81759801628
 20
57548.34321172237
 10
39784.29507021831
 20
57548.34321172234
 10
39784.29507021831
 20
56875.84321172237
 10
33721.79507021829
 20
56875.84321172237
 10
33721.79507021829
 20
57548.3432117224
 10
32011.7950702183
 20
57548.3432117224
 10
32011.7950702183
 20
56867.84321172241
 10
25886.29507021829
 20
56867.84321172241
 10
25886.29507021829
 20
57548.3432117224
 10
24182.2950702183
 20
57548.3432117224
 10
24182.2950702183
 20
56875.84321172241
 10
20243.55724632371
 20
56888.34321172243
 10
20243.55724632371
 20
54883.8432117224
 10
39397.83983974526
 20
54883.8432117224
 10
39397.83983974526
 20
50485.84321172228
 10
20223.79507021829
 20
50485.84321172228
 10
20221.7950702183
 20
52793.34321172202
 10
20131.7950702183
 20
52793.34321172202
 10
20131.7950702183
 20
53098.34321172196
 10
20231.79507021829
 20
53098.34321172196
 10
20231.79507021829
 20
54542.5912837849
 10
20161.04314268029
 20
54542.5912837849
 10
20161.04314228068
 20
54715.8432117224
 10
20189.29507021828
 20
54715.84321172047
 10
20189.29507021828
 20
54720.84321172247
 10
20223.79507021829
 20
54720.84321172247
 10
20223.79507021829
 20
56875.59864724483
 10
18088.79507021829
 20
56867.84321172243
 10
18088.79507021829
 20
57548.34321172241
 10
16409.29507021828
 20
57548.3432117224
  0
LWPOLYLINE
  5
4C
330
17
100
AcDbEntity
  8
AREE LEONARDO
 62
2
100
AcDbPolyline
 90
6
 70
1
 10
10755.46603169836
 20
46487.06790814689
 10
10755.46603169836
 20
45881.41428312116
 10
11362.06302084808
 20
45881.41428312116
 10
11362.06302084808
 20
46488.23288074125
 10
10755.46231776758
 20
46488.23288074125
 10
10755.46603169836
 20
46487.06790814689
  0
LWPOLYLINE
  5
4D
330
17
100
AcDbEntity
  8
AREE LEONARDO
 62
2
100
AcDbPolyline
 90
6
 70
1
 10
16755.46603169835
 20
46487.06790814687
 10
16755.46603169835
 20
45881.41428312114
 10
17362.06302084807
 20
45881.41428312114
 10
17362.06302084807
 20
46488.23288074124
 10
16755.46231776757
 20
46488.23288074124
 10
16755.46603169835
 20
46487.06790814687
  0
LWPOLYLINE
  5
4E
330
17
100
AcDbEntity
  8
AREE LEONARDO
 62
2
100
AcDbPolyline
 90
6
 70
1
 10
16755.46603169834
 20
42282.06790814687
 10
16755.46603169834
 20
41676.41428312116
 10
17362.06302084806
 20
41676.41428312116
 10
17362.06302084806
 20
42283.23288074125
 10
16755.46231776756
 20
42283.23288074125
 10
16755.46603169834
 20
42282.06790814687
  0
LWPOLYLINE
  5
4F
330
17
100
AcDbEntity
  8
AREE LEONARDO
 62
2
100
AcDbPolyline
 90
6
 70
1
 10
10755.4660316984
 20
42287.06790814689
 10
10755.4660316984
 20
41681.41428312117
 10
11362.06302084812
 20
41681.41428312117
 10
11362.06302084812
 20
42288.23288074126
 10
10755.46231776761
 20
42288.23288074126
 10
10755.4660316984
 20
42287.06790814689
  0
LWPOLYLINE
  5
50
330
17
100
AcDbEntity
  8
AREE LEONARDO
 62
2
100
AcDbPolyline
 90
6
 70
1
 10
19755.46603169833
 20
42282.06790814687
 10
19755.46603169833
 20
41676.41428312116
 10
20362.06302084806
 20
41676.41428312116
 10
20362.06302084806
 20
42283.23288074125
 10
19755.46231776755
 20
42283.23288074125
 10
19755.46603169833
 20
42282.06790814687
  0
LWPOLYLINE
  5
51
330
17
100
AcDbEntity
  8
AREE LEONARDO
 62
2
100
AcDbPolyline
 90
6
 70
1
 10
23355.46603169835
 20
42287.06790814682
 10
23355.46603169835
 20
41681.4142831211
 10
23962.06302084807
 20
41681.4142831211
 10
23962.06302084807
 20
42288.23288074119
 10
23355.46231776757
 20
42288.23288074119
 10
23355.46603169835
 20
42287.06790814682
  0
LWPOLYLINE
  5
52
330
17
100
AcDbEntity
  8
AREE LEONARDO
 62
2
100
AcDbPolyline
 90
6
 70
1
 10
27555.46603169834
 20
42282.06790814684
 10
27555.46603169834
 20
41676.41428312113
 10
28162.06302084807
 20
41676.41428312113
 10
28162.06302084807
 20
42283.23288074122
 10
27555.46231776756
 20
42283.23288074122
 10
27555.46603169834
 20
42282.06790814684
  0
LWPOLYLINE
  5
53
330
17
100
AcDbEntity
  8
AREE LEONARDO
 62
2
100
AcDbPolyline
 90
6
 70
1
 10
19755.46603169835
 20
47082.06790814683
 10
19755.46603169835
 20
46476.41428312111
 10
20362.06302084807
 20
46476.41428312111
 10
20362.06302084807
 20
47083.23288074121
 10
19755.46231776757
 20
47083.23288074121
 10
19755.46603169835
 20
47082.06790814683
  0
LWPOLYLINE
  5
54
330
17
100
AcDbEntity
  8
AREE LEONARDO
 62
2
100
AcDbPolyline
 90
6
 70
1
 10
27555.46603169835
 20
47082.0679081468
 10
27555.46603169835
 20
46476.41428312108
 10
28162.06302084808
 20
46476.41428312108
 10
28162.06302084808
 20
47083.23288074117
 10
27555.46231776757
 20
47083.23288074117
 10
27555.46603169835
 20
47082.0679081468
  0
LWPOLYLINE
  5
55
330
17
100
AcDbEntity
  8
AREE LEONARDO
 62
2
100
AcDbPolyline
 90
6
 70
1
 10
23355.46603169836
 20
47087.0679081468
 10
23355.46603169836
 20
46481.41428312108
 10
23962.06302084809
 20
46481.41428312108
 10
23962.06302084809
 20
47088.23288074118
 10
23355.46231776758
 20
47088.23288074118
 10
23355.46603169836
 20
47087.0679081468
  0
LWPOLYLINE
  5
56
330
17
100
AcDbEntity
  8
AREE LEONARDO
 62
2
100
AcDbPolyline
 90
6
 70
1
 10
31755.46603169836
 20
47087.06790814678
 10
31755.46603169836
 20
46481.41428312107
 10
32362.06302084808
 20
46481.41428312107
 10
32362.06302084808
 20
47088.23288074116
 10
31755.46231776758
 20
47088.23288074116
 10
31755.46603169836
 20
47087.06790814678
  0
LWPOLYLINE
  5
57
330
17
100
AcDbEntity
  8
AREE LEONARDO
 62
2
100
AcDbPolyline
 90
6
 70
1
 10
31755.46603169834
 20
42287.0679081468
 10
31755.46603169834
 20
41681.41428312107
 10
32362.06302084807
 20
41681.41428312107
 10
32362.06302084807
 20
42288.23288074116
 10
31755.46231776756
 20
42288.23288074116
 10
31755.46603169834
 20
42287.0679081468
  0
LWPOLYLINE
  5
58
330
17
100
AcDbEntity
  8
AREE LEONARDO
 62
2
100
AcDbPolyline
 90
6
 70
1
 10
35355.46603169835
 20
42282.06790814682
 10
35355.46603169835
 20
41676.41428312109
 10
35962.06302084806
 20
41676.41428312109
 10
35962.06302084806
 20
42283.23288074118
 10
35355.46231776756
 20
42283.23288074118
 10
35355.46603169835
 20
42282.06790814682
  0
LWPOLYLINE
  5
59
330
17
100
AcDbEntity
  8
AREE LEONARDO
 62
2
100
AcDbPolyline
 90
6
 70
1
 10
39555.46603169836
 20
42287.06790814676
 10
39555.46603169836
 20
41681.41428312105
 10
40162.06302084808
 20
41681.41428312105
 10
40162.06302084808
 20
42288.23288074114
 10
39555.46231776758
 20
42288.23288074114
 10
39555.46603169836
 20
42287.06790814676
  0
LWPOLYLINE
  5
5A
330
17
100
AcDbEntity
  8
AREE LEONARDO
 62
2
100
AcDbPolyline
 90
6
 70
1
 10
35355.46603169838
 20
47082.06790814677
 10
35355.46603169838
 20
46476.41428312105
 10
35962.0630208481
 20
46476.41428312105
 10
35962.0630208481
 20
47083.23288074114
 10
35355.4623177676
 20
47083.23288074114
 10
35355.46603169838
 20
47082.06790814677
  0
LWPOLYLINE
  5
5B
330
17
100
AcDbEntity
  8
AREE LEONARDO
 62
2
100
AcDbPolyline
 90
6
 70
1
 10
39555.46603169838
 20
47087.06790814676
 10
39555.46603169838
 20
46481.41428312104
 10
40162.06302084809
 20
46481.41428312104
 10
40162.06302084809
 20
47088.23288074113
 10
39555.4623177676
 20
47088.23288074113
 10
39555.46603169838
 20
47087.06790814676
  0
LWPOLYLINE
  5
5C
330
17
100
AcDbEntity
  8
AREE LEONARDO
 62
2
100
AcDbPolyline
 90
6
 70
1
 10
43150.46603169849
 20
47087.06790814673
 10
43150.46603169849
 20
46481.41428312101
 10
43757.06302084822
 20
46481.41428312101
 10
43757.06302084822
 20
47088.2328807411
 10
43150.46231776771
 20
47088.2328807411
 10
43150.46603169849
 20
47087.06790814673
  0
LWPOLYLINE
  5
5D
330
17
100
AcDbEntity
  8
AREE LEONARDO
 62
2
100
AcDbPolyline
 90
6
 70
1
 10
46755.46603169835
 20
47082.06790814677
 10
46755.46603169835
 20
46476.41428312105
 10
47362.06302084807
 20
46476.41428312105
 10
47362.06302084807
 20
47083.23288074114
 10
46755.46231776757
 20
47083.23288074114
 10
46755.46603169835
 20
47082.06790814677
  0
LWPOLYLINE
  5
5E
330
17
100
AcDbEntity
  8
AREE LEONARDO
 62
2
100
AcDbPolyline
 90
6
 70
1
 10
46755.46603169835
 20
42282.06790814682
 10
46755.46603169835
 20
41676.41428312109
 10
47362.06302084807
 20
41676.41428312109
 10
47362.06302084807
 20
42283.23288074118
 10
46755.46231776757
 20
42283.23288074118
 10
46755.46603169835
 20
42282.06790814682
  0
LWPOLYLINE
  5
5F
330
17
100
AcDbEntity
  8
AREE LEONARDO
 62
2
100
AcDbPolyline
 90
6
 70
1
 10
43150.46603169849
 20
42287.06790814674
 10
43150.46603169849
 20
41681.41428312102
 10
43757.06302084822
 20
41681.41428312102
 10
43757.06302084822
 20
42288.23288074112
 10
43150.46231776771
 20
42288.23288074112
 10
43150.46603169849
 20
42287.06790814674
  0
LWPOLYLINE
  5
60
330
17
100
AcDbEntity
  8
AREE LEONARDO
 62
2
100
AcDbPolyline
 90
6
 70
1
 10
41955.46603169837
 20
58874.56790814669
 10
41955.46603169837
 20
58268.91428312097
 10
42562.0630208481
 20
58268.91428312097
 10
42562.0630208481
 20
58875.73288074107
 10
41955.46231776759
 20
58875.73288074107
 10
41955.46603169837
 20
58874.56790814669
  0
LWPOLYLINE
  5
61
330
17
100
AcDbEntity
  8
AREE LEONARDO
 62
2
100
AcDbPolyline
 90
6
 70
1
 10
38955.46603169839
 20
58874.56790814673
 10
38955.46603169839
 20
58268.91428312101
 10
39562.06302084812
 20
58268.91428312101
 10
39562.06302084812
 20
58875.7328807411
 10
38955.46231776761
 20
58875.7328807411
 10
38955.46603169839
 20
58874.56790814673
  0
LWPOLYLINE
  5
62
330
17
100
AcDbEntity
  8
AREE LEONARDO
 62
2
100
AcDbPolyline
 90
6
 70
1
 10
35355.46603169836
 20
58874.56790814677
 10
35355.46603169836
 20
58268.91428312104
 10
35962.06302084808
 20
58268.91428312104
 10
35962.06302084808
 20
58875.73288074114
 10
35355.46231776758
 20
58875.73288074114
 10
35355.46603169836
 20
58874.56790814677
  0
LWPOLYLINE
  5
63
330
17
100
AcDbEntity
  8
AREE LEONARDO
 62
2
100
AcDbPolyline
 90
6
 70
1
 10
38955.46603169841
 20
63674.56790814689
 10
38955.46603169841
 20
63068.91428312117
 10
39562.06302084813
 20
63068.91428312117
 10
39562.06302084813
 20
63675.73288074126
 10
38955.46231776762
 20
63675.73288074126
 10
38955.46603169841
 20
63674.56790814689
  0
LWPOLYLINE
  5
64
330
17
100
AcDbEntity
  8
AREE LEONARDO
 62
2
100
AcDbPolyline
 90
6
 70
1
 10
43160.46603169839
 20
63674.56790814689
 10
43160.46603169839
 20
63068.91428312117
 10
43767.06302084811
 20
63068.91428312117
 10
43767.06302084811
 20
63675.73288074126
 10
43160.46231776761
 20
63675.73288074126
 10
43160.46603169839
 20
63674.56790814689
  0
LWPOLYLINE
  5
65
330
17
100
AcDbEntity
  8
AREE LEONARDO
 62
2
100
AcDbPolyline
 90
6
 70
1
 10
31555.46603169834
 20
63674.56790814689
 10
31555.46603169834
 20
63068.91428312117
 10
32162.06302084807
 20
63068.91428312117
 10
32162.06302084807
 20
63675.73288074126
 10
31555.46231776756
 20
63675.73288074126
 10
31555.46603169834
 20
63674.56790814689
  0
LWPOLYLINE
  5
66
330
17
100
AcDbEntity
  8
AREE LEONARDO
 62
2
100
AcDbPolyline
 90
6
 70
1
 10
27355.46603169836
 20
63674.56790814689
 10
27355.46603169836
 20
63068.91428312117
 10
27962.06302084808
 20
63068.91428312117
 10
27962.06302084808
 20
63675.73288074126
 10
27355.46231776758
 20
63675.73288074126
 10
27355.46603169836
 20
63674.56790814689
  0
LWPOLYLINE
  5
67
330
17
100
AcDbEntity
  8
AREE LEONARDO
 62
2
100
AcDbPolyline
 90
6
 70
1
 10
22355.46603169835
 20
63674.56790814689
 10
22355.46603169835
 20
63068.91428312117
 10
22962.06302084807
 20
63068.91428312117
 10
22962.06302084807
 20
63675.73288074126
 10
22355.46231776757
 20
63675.73288074126
 10
22355.46603169835
 20
63674.56790814689
  0
LWPOLYLINE
  5
68
330
17
100
AcDbEntity
  8
AREE LEONARDO
 62
2
100
AcDbPolyline
 90
6
 70
1
 10
19355.46603169836
 20
63674.56790814689
 10
19355.46603169836
 20
63068.91428312117
 10
19962.06302084808
 20
63068.91428312117
 10
19962.06302084808
 20
63675.73288074126
 10
19355.46231776758
 20
63675.73288074126
 10
19355.46603169836
 20
63674.56790814689
  0
LWPOLYLINE
  5
69
330
17
100
AcDbEntity
  8
AREE LEONARDO
 62
2
100
AcDbPolyline
 90
6
 70
1
 10
16755.46603169852
 20
63674.56790814689
 10
16755.46603169852
 20
63068.91428312117
 10
17362.06302084825
 20
63068.91428312117
 10
17362.06302084825
 20
63675.73288074126
 10
16755.46231776774
 20
63675.73288074126
 10
16755.46603169852
 20
63674.56790814689
  0
LWPOLYLINE
  5
6A
330
17
100
AcDbEntity
  8
AREE LEONARDO
 62
2
100
AcDbPolyline
 90
6
 70
1
 10
11355.46603169848
 20
63674.56790814689
 10
11355.46603169848
 20
63068.91428312117
 10
11962.06302084821
 20
63068.91428312117
 10
11962.06302084821
 20
63675.73288074126
 10
11355.4623177677
 20
63675.73288074126
 10
11355.46603169848
 20
63674.56790814689
  0
LWPOLYLINE
  5
6B
330
17
100
AcDbEntity
  8
AREE LEONARDO
 62
2
100
AcDbPolyline
 90
6
 70
1
 10
11355.46603169845
 20
58874.56790814699
 10
11355.46603169845
 20
58268.91428312127
 10
11962.06302084817
 20
58268.91428312127
 10
11962.06302084817
 20
58875.73288074136
 10
11355.46231776767
 20
58875.73288074136
 10
11355.46603169845
 20
58874.56790814699
  0
LWPOLYLINE
  5
6C
330
17
100
AcDbEntity
  8
AREE LEONARDO
 62
2
100
AcDbPolyline
 90
6
 70
1
 10
16755.4660316985
 20
58874.56790814694
 10
16755.4660316985
 20
58268.91428312123
 10
17362.06302084822
 20
58268.91428312123
 10
17362.06302084822
 20
58875.73288074132
 10
16755.46231776772
 20
58875.73288074132
 10
16755.4660316985
 20
58874.56790814694
  0
LWPOLYLINE
  5
6D
330
17
100
AcDbEntity
  8
AREE LEONARDO
 62
2
100
AcDbPolyline
 90
6
 70
1
 10
19355.46603169835
 20
58874.56790814693
 10
19355.46603169835
 20
58268.9142831212
 10
19962.06302084807
 20
58268.9142831212
 10
19962.06302084807
 20
58875.7328807413
 10
19355.46231776757
 20
58875.7328807413
 10
19355.46603169835
 20
58874.56790814693
  0
LWPOLYLINE
  5
6E
330
17
100
AcDbEntity
  8
AREE LEONARDO
 62
2
100
AcDbPolyline
 90
6
 70
1
 10
22355.46603169835
 20
58874.56790814688
 10
22355.46603169835
 20
58268.91428312117
 10
22962.06302084807
 20
58268.91428312117
 10
22962.06302084807
 20
58875.73288074126
 10
22355.46231776757
 20
58875.73288074126
 10
22355.46603169835
 20
58874.56790814688
  0
LWPOLYLINE
  5
6F
330
17
100
AcDbEntity
  8
AREE LEONARDO
 62
2
100
AcDbPolyline
 90
6
 70
1
 10
27355.46603169835
 20
58874.56790814683
 10
27355.46603169835
 20
58268.91428312111
 10
27962.06302084808
 20
58268.91428312111
 10
27962.06302084808
 20
58875.7328807412
 10
27355.46231776757
 20
58875.7328807412
 10
27355.46603169835
 20
58874.56790814683
  0
LWPOLYLINE
  5
70
330
17
100
AcDbEntity
  8
AREE LEONARDO
 62
2
100
AcDbPolyline
 90
6
 70
1
 10
31555.46603169839
 20
58874.56790814679
 10
31555.46603169839
 20
58268.91428312108
 10
32162.06302084811
 20
58268.91428312108
 10
32162.06302084811
 20
58875.73288074117
 10
31555.46231776761
 20
58875.73288074117
 10
31555.46603169839
 20
58874.56790814679
  0
LINE
  5
71
330
17
100
AcDbEntity
  8
AREE LEONARDO
 62
7
100
AcDbLine
 10
16725.07820864132
 20
58073.76402205373
 30
0.0
 11
16725.07820864132
 21
57188.54278558897
 31
0.0
  0
LINE
  5
72
330
17
100
AcDbEntity
  8
AREE LEONARDO
 62
7
100
AcDbLine
 10
25618.88100386411
 20
57996.09832426561
 30
0.0
 11
25618.88100386411
 21
57110.87708780084
 31
0.0
  0
LINE
  5
73
330
17
100
AcDbEntity
  8
AREE LEONARDO
 62
7
100
AcDbLine
 10
33431.42421844596
 20
57975.52171025538
 30
0.0
 11
33431.42421844596
 21
57090.3004737906
 31
0.0
  0
LINE
  5
74
330
17
100
AcDbEntity
  8
AREE LEONARDO
 62
7
100
AcDbLine
 10
41194.59659368859
 20
58088.12838758289
 30
0.0
 11
41194.59659368859
 21
57202.90715111811
 31
0.0
  0
LINE
  5
75
330
17
100
AcDbEntity
  8
AREE LEONARDO
 62
7
100
AcDbLine
 10
42215.0158307866
 20
58125.266218183
 30
0.0
 11
42215.0158307866
 21
57240.04498171823
 31
0.0
  0
LINE
  5
76
330
17
100
AcDbEntity
  8
AREE LEONARDO
 62
7
100
AcDbLine
 10
42155.55316774134
 20
48159.73271783565
 30
0.0
 11
42155.55316774134
 21
47274.51148137088
 31
0.0
  0
LINE
  5
77
330
17
100
AcDbEntity
  8
AREE LEONARDO
 62
7
100
AcDbLine
 10
41159.56833422766
 20
48043.52277094975
 30
0.0
 11
41159.56833422766
 21
47158.30153448497
 31
0.0
  0
LINE
  5
78
330
17
100
AcDbEntity
  8
AREE LEONARDO
 62
7
100
AcDbLine
 10
33398.51389266463
 20
48079.97862368731
 30
0.0
 11
33398.51389266463
 21
47194.75738722254
 31
0.0
  0
LINE
  5
79
330
17
100
AcDbEntity
  8
AREE LEONARDO
 62
7
100
AcDbLine
 10
25563.97292183584
 20
48057.67592554518
 30
0.0
 11
25563.97292183584
 21
47172.45468908041
 31
0.0
  0
LINE
  5
7A
330
17
100
AcDbEntity
  8
AREE LEONARDO
 62
7
100
AcDbLine
 10
17848.1134727812
 20
48087.49490207593
 30
0.0
 11
17848.1134727812
 21
47202.27366561116
 31
0.0
  0
ENDSEC
  0
SECTION
  2
OBJECTS
  0
DICTIONARY
  5
A
330
0
100
AcDbDictionary
280
0
281
1
  3
ACAD_COLOR
350
B
  3
ACAD_GROUP
350
C
  3
ACAD_LAYOUT
350
D
  3
ACAD_MATERIAL
350
E
  3
ACAD_MLEADERSTYLE
350
F
  3
ACAD_MLINESTYLE
350
10
  3
ACAD_PLOTSETTINGS
350
11
  3
ACAD_PLOTSTYLENAME
350
12
  3
ACAD_SCALELIST
350
14
  3
ACAD_TABLESTYLE
350
15
  3
ACAD_VISUALSTYLE
350
16
  3
EZDXF_META
350
2D
  0
DICTIONARY
  5
B
330
A
100
AcDbDictionary
280
0
281
1
  0
DICTIONARY
  5
C
330
A
100
AcDbDictionary
280
0
281
1
  0
DICTIONARY
  5
D
330
A
100
AcDbDictionary
280
0
281
1
  3
Model
350
1A
  3
Layout1
350
1E
  0
DICTIONARY
  5
E
330
A
100
AcDbDictionary
280
0
281
1
  3
ByBlock
350
1F
  3
ByLayer
350
20
  3
Global
350
21
  0
DICTIONARY
  5
F
330
A
100
AcDbDictionary
280
0
281
1
  3
Standard
350
2C
  0
DICTIONARY
  5
10
330
A
100
AcDbDictionary
280
0
281
1
  3
Standard
350
22
  0
DICTIONARY
  5
11
330
A
100
AcDbDictionary
280
0
281
1
  0
ACDBDICTIONARYWDFLT
  5
12
330
A
100
AcDbDictionary
280
0
281
1
  3
Normal
350
13
100
AcDbDictionaryWithDefault
340
13
  0
ACDBPLACEHOLDER
  5
13
330
12
  0
DICTIONARY
  5
14
330
A
100
AcDbDictionary
280
0
281
1
  0
DICTIONARY
  5
15
330
A
100
AcDbDictionary
280
0
281
1
  0
DICTIONARY
  5
16
330
A
100
AcDbDictionary
280
0
281
1
  0
LAYOUT
  5
1A
330
D
100
AcDbPlotSettings
  1

  2
Adobe PDF
  4
A3
  6

 40
7.5
 41
20.0
 42
7.5
 43
20.0
 44
420.0
 45
297.0
 46
0.0
 47
0.0
 48
0.0
 49
0.0
140
0.0
141
0.0
142
1.0
143
1.0
 70
1024
 72
1
 73
0
 74
5
  7

 75
16
 76
0
 77
2
 78
300
147
1.0
148
0.0
149
0.0
100
AcDbLayout
  1
Model
 70
1
 71
0
 10
0.0
 20
0.0
 11
420.0
 21
297.0
 12
0.0
 22
0.0
 32
0.0
 14
1e+20
 24
1e+20
 34
1e+20
 15
-1e+20
 25
-1e+20
 35
-1e+20
146
0.0
 13
0.0
 23
0.0
 33
0.0
 16
1.0
 26
0.0
 36
0.0
 17
0.0
 27
1.0
 37
0.0
 76
1
330
17
  0
LAYOUT
  5
1E
330
D
100
AcDbPlotSettings
  1

  2
Adobe PDF
  4
A3
  6

 40
7.5
 41
20.0
 42
7.5
 43
20.0
 44
420.0
 45
297.0
 46
0.0
 47
0.0
 48
0.0
 49
0.0
140
0.0
141
0.0
142
1.0
143
1.0
 70
0
 72
1
 73
0
 74
5
  7

 75
16
 76
0
 77
2
 78
300
147
1.0
148
0.0
149
0.0
100
AcDbLayout
  1
Layout1
 70
1
 71
1
 10
0.0
 20
0.0
 11
420.0
 21
297.0
 12
0.0
 22
0.0
 32
0.0
 14
1e+20
 24
1e+20
 34
1e+20
 15
-1e+20
 25
-1e+20
 35
-1e+20
146
0.0
 13
0.0
 23
0.0
 33
0.0
 16
1.0
 26
0.0
 36
0.0
 17
0.0
 27
1.0
 37
0.0
 76
1
330
1B
  0
MATERIAL
  5
1F
102
{ACAD_REACTORS
330
E
102
}
330
E
100
AcDbMaterial
  1
ByBlock
  2

 70
0
 40
1.0
 71
1
 41
1.0
 91
-1023410177
 42
1.0
 72
1
  3

 73
1
 74
1
 75
1
 44
0.5
 73
0
 45
1.0
 46
1.0
 77
1
  4

 78
1
 79
1
170
1
 48
1.0
171
1
  6

172
1
173
1
174
1
140
1.0
141
1.0
175
1
  7

176
1
177
1
178
1
143
1.0
179
1
  8

270
1
271
1
272
1
145
1.0
146
1.0
273
1
  9

274
1
275
1
276
1
 42
1.0
 72
1
  3

 73
1
 74
1
 75
1
 94
63
  0
MATERIAL
  5
20
102
{ACAD_REACTORS
330
E
102
}
330
E
100
AcDbMaterial
  1
ByLayer
  2

 70
0
 40
1.0
 71
1
 41
1.0
 91
-1023410177
 42
1.0
 72
1
  3

 73
1
 74
1
 75
1
 44
0.5
 73
0
 45
1.0
 46
1.0
 77
1
  4

 78
1
 79
1
170
1
 48
1.0
171
1
  6

172
1
173
1
174
1
140
1.0
141
1.0
175
1
  7

176
1
177
1
178
1
143
1.0
179
1
  8

270
1
271
1
272
1
145
1.0
146
1.0
273
1
  9

274
1
275
1
276
1
 42
1.0
 72
1
  3

 73
1
 74
1
 75
1
 94
63
  0
MATERIAL
  5
21
102
{ACAD_REACTORS
330
E
102
}
330
E
100
AcDbMaterial
  1
Global
  2

 70
0
 40
1.0
 71
1
 41
1.0
 91
-1023410177
 42
1.0
 72
1
  3

 73
1
 74
1
 75
1
 44
0.5
 73
0
 45
1.0
 46
1.0
 77
1
  4

 78
1
 79
1
170
1
 48
1.0
171
1
  6

172
1
173
1
174
1
140
1.0
141
1.0
175
1
  7

176
1
177
1
178
1
143
1.0
179
1
  8

270
1
271
1
272
1
145
1.0
146
1.0
273
1
  9

274
1
275
1
276
1
 42
1.0
 72
1
  3

 73
1
 74
1
 75
1
 94
63
  0
MLINESTYLE
  5
22
102
{ACAD_REACTORS
330
10
102
}
330
10
100
AcDbMlineStyle
  2
Standard
 70
0
  3

 62
256
 51
90.0
 52
90.0
 71
2
 49
0.5
 62
256
  6
BYLAYER
 49
-0.5
 62
256
  6
BYLAYER
  0
MLEADERSTYLE
  5
2C
102
{ACAD_REACTORS
330
F
102
}
330
F
100
AcDbMLeaderStyle
179
2
170
2
171
1
172
0
 90
2
 40
0.0
 41
0.0
173
1
 91
-1056964608
 92
-2
290
1
 42
2.0
291
1
 43
8.0
  3
Standard
 44
4.0
300

342
29
174
1
175
1
176
0
178
1
 93
-1056964608
 45
4.0
292
0
297
0
 46
4.0
 94
-1056964608
 47
1.0
 49
1.0
140
1.0
294
1
141
0.0
177
0
142
1.0
295
0
296
0
143
3.75
271
0
272
9
273
9
  0
DICTIONARY
  5
2D
330
A
100
AcDbDictionary
281
1
  3
CREATED_BY_EZDXF
350
2E
  3
WRITTEN_BY_EZDXF
350
7E
  0
DICTIONARYVAR
  5
2E
330
2D
100
DictionaryVariables
280
0
  1
1.1.2 @ 2023-11-14T21:35:57.380040+00:00
  0
DICTIONARYVAR
  5
7E
330
2D
100
DictionaryVariables
280
0
  1
1.1.2 @ 2023-11-14T21:35:57.391803+00:00
  0
ENDSEC
  0
EOF
