  0
SECTION
  2
HEADER
  9
$ACADVER
  1
AC1032
  9
$ACADMAINTVER
 90
4
  9
$DWGCODEPAGE
  3
ANSI_1252
  9
$LASTSAVEDBY
  1
ezdxf
  9
$REQUIREDVERSIONS
160
0
  9
$INSBASE
 10
0.0
 20
0.0
 30
0.0
  9
$EXTMIN
 10
1e+20
 20
1e+20
 30
1e+20
  9
$EXTMAX
 10
-1e+20
 20
-1e+20
 30
-1e+20
  9
$LIMMIN
 10
0.0
 20
0.0
  9
$LIMMAX
 10
420.0
 20
297.0
  9
$ORTHOMODE
 70
0
  9
$REGENMODE
 70
1
  9
$FILLMODE
 70
1
  9
$QTEXTMODE
 70
0
  9
$MIRRTEXT
 70
1
  9
$LTSCALE
 40
1.0
  9
$ATTMODE
 70
1
  9
$TEXTSIZE
 40
2.5
  9
$TRACEWID
 40
1.0
  9
$TEXTSTYLE
  7
Standard
  9
$CLAYER
  8
0
  9
$CELTYPE
  6
ByLayer
  9
$CECOLOR
 62
256
  9
$CELTSCALE
 40
1.0
  9
$DISPSILH
 70
0
  9
$DIMSCALE
 40
1.0
  9
$DIMASZ
 40
2.5
  9
$DIMEXO
 40
0.625
  9
$DIMDLI
 40
3.75
  9
$DIMRND
 40
0.0
  9
$DIMDLE
 40
0.0
  9
$DIMEXE
 40
1.25
  9
$DIMTP
 40
0.0
  9
$DIMTM
 40
0.0
  9
$DIMTXT
 40
2.5
  9
$DIMCEN
 40
2.5
  9
$DIMTSZ
 40
0.0
  9
$DIMTOL
 70
0
  9
$DIMLIM
 70
0
  9
$DIMTIH
 70
0
  9
$DIMTOH
 70
0
  9
$DIMSE1
 70
0
  9
$DIMSE2
 70
0
  9
$DIMTAD
 70
1
  9
$DIMZIN
 70
8
  9
$DIMBLK
  1

  9
$DIMASO
 70
1
  9
$DIMSHO
 70
1
  9
$DIMPOST
  1

  9
$DIMAPOST
  1

  9
$DIMALT
 70
0
  9
$DIMALTD
 70
3
  9
$DIMALTF
 40
0.03937007874
  9
$DIMLFAC
 40
1.0
  9
$DIMTOFL
 70
1
  9
$DIMTVP
 40
0.0
  9
$DIMTIX
 70
0
  9
$DIMSOXD
 70
0
  9
$DIMSAH
 70
0
  9
$DIMBLK1
  1

  9
$DIMBLK2
  1

  9
$DIMSTYLE
  2
ISO-25
  9
$DIMCLRD
 70
0
  9
$DIMCLRE
 70
0
  9
$DIMCLRT
 70
0
  9
$DIMTFAC
 40
1.0
  9
$DIMGAP
 40
0.625
  9
$DIMJUST
 70
0
  9
$DIMSD1
 70
0
  9
$DIMSD2
 70
0
  9
$DIMTOLJ
 70
0
  9
$DIMTZIN
 70
8
  9
$DIMALTZ
 70
0
  9
$DIMALTTZ
 70
0
  9
$DIMUPT
 70
0
  9
$DIMDEC
 70
2
  9
$DIMTDEC
 70
2
  9
$DIMALTU
 70
2
  9
$DIMALTTD
 70
3
  9
$DIMTXSTY
  7
Standard
  9
$DIMAUNIT
 70
0
  9
$DIMADEC
 70
0
  9
$DIMALTRND
 40
0.0
  9
$DIMAZIN
 70
0
  9
$DIMDSEP
 70
44
  9
$DIMATFIT
 70
3
  9
$DIMFRAC
 70
0
  9
$DIMLDRBLK
  1

  9
$DIMLUNIT
 70
2
  9
$DIMLWD
 70
-2
  9
$DIMLWE
 70
-2
  9
$DIMTMOVE
 70
0
  9
$DIMFXL
 40
1.0
  9
$DIMFXLON
 70
0
  9
$DIMJOGANG
 40
0.785398163397
  9
$DIMTFILL
 70
0
  9
$DIMTFILLCLR
 70
0
  9
$DIMARCSYM
 70
0
  9
$DIMLTYPE
  6

  9
$DIMLTEX1
  6

  9
$DIMLTEX2
  6

  9
$DIMTXTDIRECTION
 70
0
  9
$LUNITS
 70
2
  9
$LUPREC
 70
4
  9
$SKETCHINC
 40
1.0
  9
$FILLETRAD
 40
10.0
  9
$AUNITS
 70
0
  9
$AUPREC
 70
2
  9
$MENU
  1
.
  9
$ELEVATION
 40
0.0
  9
$PELEVATION
 40
0.0
  9
$THICKNESS
 40
0.0
  9
$LIMCHECK
 70
0
  9
$CHAMFERA
 40
0.0
  9
$CHAMFERB
 40
0.0
  9
$CHAMFERC
 40
0.0
  9
$CHAMFERD
 40
0.0
  9
$SKPOLY
 70
0
  9
$TDCREATE
 40
2460263.89994213
  9
$TDUCREATE
 40
2458532.153996898
  9
$TDUPDATE
 40
2460263.89994213
  9
$TDUUPDATE
 40
2458532.1544311
  9
$TDINDWG
 40
0.0
  9
$TDUSRTIMER
 40
0.0
  9
$USRTIMER
 70
1
  9
$ANGBASE
 50
0.0
  9
$ANGDIR
 70
0
  9
$PDMODE
 70
0
  9
$PDSIZE
 40
0.0
  9
$PLINEWID
 40
0.0
  9
$SPLFRAME
 70
0
  9
$SPLINETYPE
 70
6
  9
$SPLINESEGS
 70
8
  9
$HANDSEED
  5
A8
  9
$SURFTAB1
 70
6
  9
$SURFTAB2
 70
6
  9
$SURFTYPE
 70
6
  9
$SURFU
 70
6
  9
$SURFV
 70
6
  9
$UCSBASE
  2

  9
$UCSNAME
  2

  9
$UCSORG
 10
0.0
 20
0.0
 30
0.0
  9
$UCSXDIR
 10
1.0
 20
0.0
 30
0.0
  9
$UCSYDIR
 10
0.0
 20
1.0
 30
0.0
  9
$UCSORTHOREF
  2

  9
$UCSORTHOVIEW
 70
0
  9
$UCSORGTOP
 10
0.0
 20
0.0
 30
0.0
  9
$UCSORGBOTTOM
 10
0.0
 20
0.0
 30
0.0
  9
$UCSORGLEFT
 10
0.0
 20
0.0
 30
0.0
  9
$UCSORGRIGHT
 10
0.0
 20
0.0
 30
0.0
  9
$UCSORGFRONT
 10
0.0
 20
0.0
 30
0.0
  9
$UCSORGBACK
 10
0.0
 20
0.0
 30
0.0
  9
$PUCSBASE
  2

  9
$PUCSNAME
  2

  9
$PUCSORG
 10
0.0
 20
0.0
 30
0.0
  9
$PUCSXDIR
 10
1.0
 20
0.0
 30
0.0
  9
$PUCSYDIR
 10
0.0
 20
1.0
 30
0.0
  9
$PUCSORTHOREF
  2

  9
$PUCSORTHOVIEW
 70
0
  9
$PUCSORGTOP
 10
0.0
 20
0.0
 30
0.0
  9
$PUCSORGBOTTOM
 10
0.0
 20
0.0
 30
0.0
  9
$PUCSORGLEFT
 10
0.0
 20
0.0
 30
0.0
  9
$PUCSORGRIGHT
 10
0.0
 20
0.0
 30
0.0
  9
$PUCSORGFRONT
 10
0.0
 20
0.0
 30
0.0
  9
$PUCSORGBACK
 10
0.0
 20
0.0
 30
0.0
  9
$USERI1
 70
0
  9
$USERI2
 70
0
  9
$USERI3
 70
0
  9
$USERI4
 70
0
  9
$USERI5
 70
0
  9
$USERR1
 40
0.0
  9
$USERR2
 40
0.0
  9
$USERR3
 40
0.0
  9
$USERR4
 40
0.0
  9
$USERR5
 40
0.0
  9
$WORLDVIEW
 70
1
  9
$SHADEDGE
 70
3
  9
$SHADEDIF
 70
70
  9
$TILEMODE
 70
1
  9
$MAXACTVP
 70
64
  9
$PINSBASE
 10
0.0
 20
0.0
 30
0.0
  9
$PLIMCHECK
 70
0
  9
$PEXTMIN
 10
1e+20
 20
1e+20
 30
1e+20
  9
$PEXTMAX
 10
-1e+20
 20
-1e+20
 30
-1e+20
  9
$PLIMMIN
 10
0.0
 20
0.0
  9
$PLIMMAX
 10
420.0
 20
297.0
  9
$UNITMODE
 70
0
  9
$VISRETAIN
 70
1
  9
$PLINEGEN
 70
0
  9
$PSLTSCALE
 70
1
  9
$TREEDEPTH
 70
3020
  9
$CMLSTYLE
  2
Standard
  9
$CMLJUST
 70
0
  9
$CMLSCALE
 40
20.0
  9
$PROXYGRAPHICS
 70
1
  9
$MEASUREMENT
 70
1
  9
$CELWEIGHT
370
-1
  9
$ENDCAPS
280
0
  9
$JOINSTYLE
280
0
  9
$LWDISPLAY
290
0
  9
$INSUNITS
 70
6
  9
$HYPERLINKBASE
  1

  9
$STYLESHEET
  1

  9
$XEDIT
290
1
  9
$CEPSNTYPE
380
0
  9
$PSTYLEMODE
290
1
  9
$FINGERPRINTGUID
  2
{8A0C6EF9-678F-498E-A799-7F6E781DC4DD}
  9
$VERSIONGUID
  2
{90F5A31F-93C7-48E2-9604-BE66DFB51296}
  9
$EXTNAMES
290
1
  9
$PSVPSCALE
 40
0.0
  9
$OLESTARTUP
290
0
  9
$SORTENTS
280
127
  9
$INDEXCTL
280
0
  9
$HIDETEXT
280
1
  9
$XCLIPFRAME
280
0
  9
$HALOGAP
280
0
  9
$OBSCOLOR
 70
257
  9
$OBSLTYPE
280
0
  9
$INTERSECTIONDISPLAY
280
0
  9
$INTERSECTIONCOLOR
 70
257
  9
$DIMASSOC
280
2
  9
$PROJECTNAME
  1

  9
$CAMERADISPLAY
290
0
  9
$LENSLENGTH
 40
50.0
  9
$CAMERAHEIGHT
 40
0.0
  9
$STEPSPERSEC
 40
24.0
  9
$STEPSIZE
 40
100.0
  9
$3DDWFPREC
 40
2.0
  9
$PSOLWIDTH
 40
0.005
  9
$PSOLHEIGHT
 40
0.08
  9
$LOFTANG1
 40
1.570796326795
  9
$LOFTANG2
 40
1.570796326795
  9
$LOFTMAG1
 40
0.0
  9
$LOFTMAG2
 40
0.0
  9
$LOFTPARAM
 70
7
  9
$LOFTNORMALS
280
1
  9
$LATITUDE
 40
37.795
  9
$LONGITUDE
 40
-122.394
  9
$NORTHDIRECTION
 40
0.0
  9
$TIMEZONE
 70
-8000
  9
$LIGHTGLYPHDISPLAY
280
1
  9
$TILEMODELIGHTSYNCH
280
1
  9
$CMATERIAL
347
20
  9
$SOLIDHIST
280
0
  9
$SHOWHIST
280
1
  9
$DWFFRAME
280
2
  9
$DGNFRAME
280
2
  9
$REALWORLDSCALE
290
1
  9
$INTERFERECOLOR
 62
256
  9
$CSHADOW
280
0
  9
$SHADOWPLANELOCATION
 40
0.0
  0
ENDSEC
  0
SECTION
  2
CLASSES
  0
CLASS
  1
ACDBDICTIONARYWDFLT
  2
AcDbDictionaryWithDefault
  3
ObjectDBX Classes
 90
0
 91
0
280
0
281
0
  0
CLASS
  1
SUN
  2
AcDbSun
  3
SCENEOE
 90
1153
 91
0
280
0
281
0
  0
CLASS
  1
VISUALSTYLE
  2
AcDbVisualStyle
  3
ObjectDBX Classes
 90
4095
 91
0
280
0
281
0
  0
CLASS
  1
MATERIAL
  2
AcDbMaterial
  3
ObjectDBX Classes
 90
1153
 91
0
280
0
281
0
  0
CLASS
  1
SCALE
  2
AcDbScale
  3
ObjectDBX Classes
 90
1153
 91
0
280
0
281
0
  0
CLASS
  1
TABLESTYLE
  2
AcDbTableStyle
  3
ObjectDBX Classes
 90
4095
 91
0
280
0
281
0
  0
CLASS
  1
MLEADERSTYLE
  2
AcDbMLeaderStyle
  3
ACDB_MLEADERSTYLE_CLASS
 90
4095
 91
0
280
0
281
0
  0
CLASS
  1
DICTIONARYVAR
  2
AcDbDictionaryVar
  3
ObjectDBX Classes
 90
0
 91
0
280
0
281
0
  0
CLASS
  1
CELLSTYLEMAP
  2
AcDbCellStyleMap
  3
ObjectDBX Classes
 90
1152
 91
0
280
0
281
0
  0
CLASS
  1
MENTALRAYRENDERSETTINGS
  2
AcDbMentalRayRenderSettings
  3
SCENEOE
 90
1024
 91
0
280
0
281
0
  0
CLASS
  1
ACDBDETAILVIEWSTYLE
  2
AcDbDetailViewStyle
  3
ObjectDBX Classes
 90
1025
 91
0
280
0
281
0
  0
CLASS
  1
ACDBSECTIONVIEWSTYLE
  2
AcDbSectionViewStyle
  3
ObjectDBX Classes
 90
1025
 91
0
280
0
281
0
  0
CLASS
  1
RASTERVARIABLES
  2
AcDbRasterVariables
  3
ISM
 90
0
 91
0
280
0
281
0
  0
CLASS
  1
LAYOUT
  2
AcDbLayout
  3
ObjectDBX Classes
 90
0
 91
0
280
0
281
0
  0
CLASS
  1
ACDBPLACEHOLDER
  2
AcDbPlaceHolder
  3
ObjectDBX Classes
 90
0
 91
0
280
0
281
0
  0
ENDSEC
  0
SECTION
  2
TABLES
  0
TABLE
  2
VPORT
  5
8
330
0
100
AcDbSymbolTable
 70
1
  0
VPORT
  5
23
330
8
100
AcDbSymbolTableRecord
100
AcDbViewportTableRecord
  2
*Active
 70
0
 10
0.0
 20
0.0
 11
1.0
 21
1.0
 12
0.0
 22
0.0
 13
0.0
 23
0.0
 14
0.5
 24
0.5
 15
0.5
 25
0.5
 16
0.0
 26
0.0
 36
1.0
 17
0.0
 27
0.0
 37
0.0
 40
1000.0
 41
1.34
 42
50.0
 43
0.0
 44
0.0
 50
0.0
 51
0.0
 71
0
 72
1000
 73
1
 74
3
 75
0
 76
0
 77
0
 78
0
281
0
 65
0
146
0.0
  0
ENDTAB
  0
TABLE
  2
LTYPE
  5
2
330
0
100
AcDbSymbolTable
 70
3
  0
LTYPE
  5
24
330
2
100
AcDbSymbolTableRecord
100
AcDbLinetypeTableRecord
  2
ByBlock
 70
0
  3

 72
65
 73
0
 40
0.0
  0
LTYPE
  5
25
330
2
100
AcDbSymbolTableRecord
100
AcDbLinetypeTableRecord
  2
ByLayer
 70
0
  3

 72
65
 73
0
 40
0.0
  0
LTYPE
  5
26
330
2
100
AcDbSymbolTableRecord
100
AcDbLinetypeTableRecord
  2
Continuous
 70
0
  3

 72
65
 73
0
 40
0.0
  0
ENDTAB
  0
TABLE
  2
LAYER
  5
1
330
0
100
AcDbSymbolTable
 70
3
  0
LAYER
  5
27
330
1
100
AcDbSymbolTableRecord
100
AcDbLayerTableRecord
  2
0
 70
0
 62
7
  6
Continuous
370
-3
390
13
347
21
  0
LAYER
  5
28
330
1
100
AcDbSymbolTableRecord
100
AcDbLayerTableRecord
  2
Defpoints
 70
0
 62
7
  6
Continuous
290
0
370
-3
390
13
347
21
  0
LAYER
  5
A4
330
1
100
AcDbSymbolTableRecord
100
AcDbLayerTableRecord
  2
AREE LEONARDO
 70
0
 62
6
  6
Continuous
370
-3
390
7
347
A
  0
ENDTAB
  0
TABLE
  2
STYLE
  5
5
330
0
100
AcDbSymbolTable
 70
1
  0
STYLE
  5
29
330
5
100
AcDbSymbolTableRecord
100
AcDbTextStyleTableRecord
  2
Standard
 70
0
 40
0.0
 41
1.0
 50
0.0
 71
0
 42
2.5
  3
txt
  4

  0
ENDTAB
  0
TABLE
  2
VIEW
  5
7
330
0
100
AcDbSymbolTable
 70
0
  0
ENDTAB
  0
TABLE
  2
UCS
  5
6
330
0
100
AcDbSymbolTable
 70
0
  0
ENDTAB
  0
TABLE
  2
APPID
  5
3
330
0
100
AcDbSymbolTable
 70
3
  0
APPID
  5
2A
330
3
100
AcDbSymbolTableRecord
100
AcDbRegAppTableRecord
  2
ACAD
 70
0
  0
APPID
  5
A5
330
3
100
AcDbSymbolTableRecord
100
AcDbRegAppTableRecord
  2
HATCHBACKGROUNDCOLOR
 70
0
  0
APPID
  5
A6
330
3
100
AcDbSymbolTableRecord
100
AcDbRegAppTableRecord
  2
EZDXF
 70
0
  0
ENDTAB
  0
TABLE
  2
DIMSTYLE
  5
4
330
0
100
AcDbSymbolTable
 70
1
100
AcDbDimStyleTable
  0
DIMSTYLE
105
2B
330
4
100
AcDbSymbolTableRecord
100
AcDbDimStyleTableRecord
  2
Standard
 70
0
 40
1.0
 41
2.5
 42
0.625
 43
3.75
 44
1.25
 45
0.0
 46
0.0
 47
0.0
 48
0.0
 49
2.5
140
2.5
141
2.5
142
0.0
143
0.03937007874
144
1.0
145
0.0
146
1.0
147
0.625
148
0.0
 69
0
 70
0
 71
0
 72
0
 73
0
 74
0
 75
0
 76
0
 77
1
 78
8
 79
3
170
0
171
3
172
1
173
0
174
0
175
0
176
0
177
0
178
0
179
2
271
2
272
2
273
2
274
3
275
0
276
0
277
2
278
44
279
0
280
0
281
0
282
0
283
0
284
8
285
0
286
0
288
0
289
3
290
0
371
-2
372
-2
  0
ENDTAB
  0
TABLE
  2
BLOCK_RECORD
  5
9
330
0
100
AcDbSymbolTable
 70
2
  0
BLOCK_RECORD
  5
17
330
9
100
AcDbSymbolTableRecord
100
AcDbBlockTableRecord
  2
*Model_Space
340
1A
 70
0
280
1
281
0
  0
BLOCK_RECORD
  5
1B
330
9
100
AcDbSymbolTableRecord
100
AcDbBlockTableRecord
  2
*Paper_Space
340
1E
 70
0
280
1
281
0
  0
ENDTAB
  0
ENDSEC
  0
SECTION
  2
BLOCKS
  0
BLOCK
  5
18
330
17
100
AcDbEntity
  8
0
100
AcDbBlockBegin
  2
*Model_Space
 70
0
 10
0.0
 20
0.0
 30
0.0
  3
*Model_Space
  1

  0
ENDBLK
  5
19
330
17
100
AcDbEntity
  8
0
100
AcDbBlockEnd
  0
BLOCK
  5
1C
330
1B
100
AcDbEntity
  8
0
100
AcDbBlockBegin
  2
*Paper_Space
 70
0
 10
0.0
 20
0.0
 30
0.0
  3
*Paper_Space
  1

  0
ENDBLK
  5
1D
330
1B
100
AcDbEntity
  8
0
100
AcDbBlockEnd
  0
ENDSEC
  0
SECTION
  2
ENTITIES
  0
LWPOLYLINE
  5
2F
330
17
100
AcDbEntity
  8
AREE LEONARDO
 62
1
100
AcDbPolyline
 90
4
 70
1
 10
2868.297930993429
 20
1468.741099001124
 10
2868.897930993429
 20
1468.741099001124
 10
2868.897930993429
 20
1468.141099001124
 10
2868.297930993429
 20
1468.141099001124
  0
LWPOLYLINE
  5
30
330
17
100
AcDbEntity
  8
AREE LEONARDO
 62
1
100
AcDbPolyline
 90
4
 70
1
 10
2870.673047287477
 20
1468.56973116641
 10
2871.273047287477
 20
1468.56973116641
 10
2871.273047287477
 20
1467.969731166411
 10
2870.673047287477
 20
1467.969731166411
  0
LWPOLYLINE
  5
31
330
17
100
AcDbEntity
  8
AREE LEONARDO
 62
1
100
AcDbPolyline
 90
4
 70
1
 10
2878.092882113585
 20
1460.579982033212
 10
2878.692882113585
 20
1460.579982033212
 10
2878.692882113585
 20
1459.979982033212
 10
2878.092882113585
 20
1459.979982033212
  0
LWPOLYLINE
  5
32
330
17
100
AcDbEntity
  8
AREE LEONARDO
 62
1
100
AcDbPolyline
 90
4
 70
1
 10
2866.979369253382
 20
1456.122064930047
 10
2867.579369253382
 20
1456.122064930047
 10
2867.579369253382
 20
1455.522064930047
 10
2866.979369253382
 20
1455.522064930047
  0
LWPOLYLINE
  5
33
330
17
100
AcDbEntity
  8
AREE LEONARDO
 62
4
100
AcDbPolyline
 90
4
 70
1
 10
2863.852972204662
 20
1456.326195304901
 10
2864.655972204662
 20
1456.326195304901
 10
2864.655972204662
 20
1455.570195304901
 10
2863.852972204662
 20
1455.570195304901
  0
LWPOLYLINE
  5
34
330
17
100
AcDbEntity
  8
AREE LEONARDO
 62
4
100
AcDbPolyline
 90
4
 70
1
 10
2865.879088412015
 20
1456.250469194312
 10
2866.682088412015
 20
1456.250469194312
 10
2866.682088412015
 20
1455.494469194312
 10
2865.879088412015
 20
1455.494469194312
  0
LWPOLYLINE
  5
35
330
17
100
AcDbEntity
  8
AREE LEONARDO
 62
4
100
AcDbPolyline
 90
4
 70
1
 10
2877.709653584871
 20
1463.931176719755
 10
2878.465653584871
 20
1463.931176719755
 10
2878.465653584871
 20
1463.128176719755
 10
2877.709653584871
 20
1463.128176719755
  0
LWPOLYLINE
  5
36
330
17
100
AcDbEntity
  8
AREE LEONARDO
 62
4
100
AcDbPolyline
 90
4
 70
1
 10
2869.111126555266
 20
1459.07040590377
 10
2869.26392985306
 20
1459.07040590377
 10
2869.26392985306
 20
1458.917602605975
 10
2869.111126555266
 20
1458.917602605975
  0
LWPOLYLINE
  5
37
330
17
100
AcDbEntity
  8
AREE LEONARDO
 62
4
100
AcDbPolyline
 90
4
 70
1
 10
2869.109939659624
 20
1459.270402381937
 10
2869.262742957419
 20
1459.270402381937
 10
2869.262742957419
 20
1459.117599084142
 10
2869.109939659624
 20
1459.117599084142
  0
LWPOLYLINE
  5
38
330
17
100
AcDbEntity
  8
AREE LEONARDO
 62
4
100
AcDbPolyline
 90
4
 70
1
 10
2862.906664851778
 20
1452.647723127377
 10
2863.059468149574
 20
1452.647723127377
 10
2863.059468149574
 20
1452.494919829582
 10
2862.906664851778
 20
1452.494919829582
  0
LWPOLYLINE
  5
39
330
17
100
AcDbEntity
  8
AREE LEONARDO
 62
4
100
AcDbPolyline
 90
4
 70
1
 10
2861.193781218453
 20
1452.543244146247
 10
2861.346584516248
 20
1452.543244146247
 10
2861.346584516248
 20
1452.390440848452
 10
2861.193781218453
 20
1452.390440848452
  0
LWPOLYLINE
  5
3A
330
17
100
AcDbEntity
  8
AREE LEONARDO
 62
4
100
AcDbPolyline
 90
4
 70
1
 10
2860.059094335322
 20
1452.539291276591
 10
2860.211897633117
 20
1452.539291276591
 10
2860.211897633117
 20
1452.386487978796
 10
2860.059094335322
 20
1452.386487978796
  0
LWPOLYLINE
  5
3B
330
17
100
AcDbEntity
  8
AREE LEONARDO
 62
4
100
AcDbPolyline
 90
4
 70
1
 10
2858.940125835264
 20
1452.535338406933
 10
2859.09292913306
 20
1452.535338406933
 10
2859.09292913306
 20
1452.382535109138
 10
2858.940125835264
 20
1452.382535109138
  0
LWPOLYLINE
  5
3C
330
17
100
AcDbEntity
  8
AREE LEONARDO
 62
4
100
AcDbPolyline
 90
4
 70
1
 10
2862.60031882527
 20
1454.547349062544
 10
2862.753122123065
 20
1454.547349062544
 10
2862.753122123065
 20
1454.394545764749
 10
2862.60031882527
 20
1454.394545764749
  0
LWPOLYLINE
  5
3D
330
17
100
AcDbEntity
  8
AREE LEONARDO
 62
4
100
AcDbPolyline
 90
4
 70
1
 10
2860.275157119492
 20
1457.209332132954
 10
2860.427960417286
 20
1457.209332132954
 10
2860.427960417286
 20
1457.056528835159
 10
2860.275157119492
 20
1457.056528835159
  0
LWPOLYLINE
  5
3E
330
17
100
AcDbEntity
  8
AREE LEONARDO
 62
4
100
AcDbPolyline
 90
4
 70
1
 10
2863.2395585338
 20
1459.811706548748
 10
2863.392361831595
 20
1459.811706548748
 10
2863.392361831595
 20
1459.658903250953
 10
2863.2395585338
 20
1459.658903250953
  0
LWPOLYLINE
  5
3F
330
17
100
AcDbEntity
  8
AREE LEONARDO
 62
4
100
AcDbPolyline
 90
4
 70
1
 10
2863.238371638157
 20
1460.011703026913
 10
2863.391174935951
 20
1460.011703026913
 10
2863.391174935951
 20
1459.858899729118
 10
2863.238371638157
 20
1459.858899729118
  0
LWPOLYLINE
  5
40
330
17
100
AcDbEntity
  8
AREE LEONARDO
 62
4
100
AcDbPolyline
 90
4
 70
1
 10
2866.156667415597
 20
1458.775437269826
 10
2866.309470713392
 20
1458.775437269826
 10
2866.309470713392
 20
1458.622633972031
 10
2866.156667415597
 20
1458.622633972031
  0
LWPOLYLINE
  5
41
330
17
100
AcDbEntity
  8
AREE LEONARDO
 62
4
100
AcDbPolyline
 90
4
 70
1
 10
2864.655972204662
 20
1456.041480413198
 10
2864.808775502457
 20
1456.041480413198
 10
2864.808775502457
 20
1455.888677115403
 10
2864.655972204662
 20
1455.888677115403
  0
LWPOLYLINE
  5
42
330
17
100
AcDbEntity
  8
AREE LEONARDO
 62
4
100
AcDbPolyline
 90
4
 70
1
 10
2863.605921319026
 20
1456.041480413198
 10
2863.75872461682
 20
1456.041480413198
 10
2863.75872461682
 20
1455.888677115403
 10
2863.605921319026
 20
1455.888677115403
  0
LWPOLYLINE
  5
43
330
17
100
AcDbEntity
  8
AREE LEONARDO
 62
4
100
AcDbPolyline
 90
4
 70
1
 10
2863.2395585338
 20
1457.13135210309
 10
2863.392361831595
 20
1457.13135210309
 10
2863.392361831595
 20
1456.978548805295
 10
2863.2395585338
 20
1456.978548805295
  0
LWPOLYLINE
  5
44
330
17
100
AcDbEntity
  8
AREE LEONARDO
 62
4
100
AcDbPolyline
 90
4
 70
1
 10
2863.238371638157
 20
1457.331348581257
 10
2863.391174935951
 20
1457.331348581257
 10
2863.391174935951
 20
1457.178545283462
 10
2863.238371638157
 20
1457.178545283462
  0
LWPOLYLINE
  5
45
330
17
100
AcDbEntity
  8
AREE LEONARDO
 62
4
100
AcDbPolyline
 90
4
 70
1
 10
2866.082456033202
 20
1457.182554325076
 10
2866.235259330997
 20
1457.182554325076
 10
2866.235259330997
 20
1457.029751027281
 10
2866.082456033202
 20
1457.029751027281
  0
LWPOLYLINE
  5
46
330
17
100
AcDbEntity
  8
AREE LEONARDO
 62
4
100
AcDbPolyline
 90
4
 70
1
 10
2866.698920784913
 20
1456.041480413198
 10
2866.851724082708
 20
1456.041480413198
 10
2866.851724082708
 20
1455.888677115403
 10
2866.698920784913
 20
1455.888677115403
  0
LWPOLYLINE
  5
47
330
17
100
AcDbEntity
  8
AREE LEONARDO
 62
4
100
AcDbPolyline
 90
4
 70
1
 10
2865.667920962949
 20
1456.0414804132
 10
2865.820724260744
 20
1456.0414804132
 10
2865.820724260744
 20
1455.888677115405
 10
2865.667920962949
 20
1455.888677115405
  0
LWPOLYLINE
  5
48
330
17
100
AcDbEntity
  8
AREE LEONARDO
 62
4
100
AcDbPolyline
 90
4
 70
1
 10
2869.107565868338
 20
1453.996156809821
 10
2869.260369166133
 20
1453.996156809821
 10
2869.260369166133
 20
1453.843353512026
 10
2869.107565868338
 20
1453.843353512026
  0
LWPOLYLINE
  5
49
330
17
100
AcDbEntity
  8
AREE LEONARDO
 62
4
100
AcDbPolyline
 90
4
 70
1
 10
2869.108752763981
 20
1453.796160331654
 10
2869.261556061776
 20
1453.796160331654
 10
2869.261556061776
 20
1453.64335703386
 10
2869.108752763981
 20
1453.64335703386
  0
LWPOLYLINE
  5
4A
330
17
100
AcDbEntity
  8
AREE LEONARDO
 62
4
100
AcDbPolyline
 90
4
 70
1
 10
2870.752525987706
 20
1453.796160331656
 10
2870.905329285501
 20
1453.796160331656
 10
2870.905329285501
 20
1453.643357033861
 10
2870.752525987706
 20
1453.643357033861
  0
LWPOLYLINE
  5
4B
330
17
100
AcDbEntity
  8
AREE LEONARDO
 62
4
100
AcDbPolyline
 90
4
 70
1
 10
2870.751339092063
 20
1453.996156809821
 10
2870.904142389858
 20
1453.996156809821
 10
2870.904142389858
 20
1453.843353512026
 10
2870.751339092063
 20
1453.843353512026
  0
LWPOLYLINE
  5
4C
330
17
100
AcDbEntity
  8
AREE LEONARDO
 62
4
100
AcDbPolyline
 90
4
 70
1
 10
2869.111126555266
 20
1457.786464428176
 10
2869.263929853061
 20
1457.786464428176
 10
2869.263929853061
 20
1457.633661130381
 10
2869.111126555266
 20
1457.633661130381
  0
LWPOLYLINE
  5
4D
330
17
100
AcDbEntity
  8
AREE LEONARDO
 62
4
100
AcDbPolyline
 90
4
 70
1
 10
2869.109939659624
 20
1457.986460906341
 10
2869.262742957419
 20
1457.986460906341
 10
2869.262742957419
 20
1457.833657608546
 10
2869.109939659624
 20
1457.833657608546
  0
LWPOLYLINE
  5
4E
330
17
100
AcDbEntity
  8
AREE LEONARDO
 62
4
100
AcDbPolyline
 90
4
 70
1
 10
2869.109939659624
 20
1456.27121546176
 10
2869.262742957419
 20
1456.27121546176
 10
2869.262742957419
 20
1456.118412163965
 10
2869.109939659624
 20
1456.118412163965
  0
LWPOLYLINE
  5
4F
330
17
100
AcDbEntity
  8
AREE LEONARDO
 62
4
100
AcDbPolyline
 90
4
 70
1
 10
2869.108752763981
 20
1456.471211939927
 10
2869.261556061776
 20
1456.471211939927
 10
2869.261556061776
 20
1456.318408642132
 10
2869.108752763981
 20
1456.318408642132
  0
LWPOLYLINE
  5
50
330
17
100
AcDbEntity
  8
AREE LEONARDO
 62
4
100
AcDbPolyline
 90
4
 70
1
 10
2870.753712883348
 20
1456.271215461758
 10
2870.906516181143
 20
1456.271215461758
 10
2870.906516181143
 20
1456.118412163964
 10
2870.753712883348
 20
1456.118412163964
  0
LWPOLYLINE
  5
51
330
17
100
AcDbEntity
  8
AREE LEONARDO
 62
4
100
AcDbPolyline
 90
4
 70
1
 10
2870.752525987706
 20
1456.471211939927
 10
2870.905329285501
 20
1456.471211939927
 10
2870.905329285501
 20
1456.318408642132
 10
2870.752525987706
 20
1456.318408642132
  0
LWPOLYLINE
  5
52
330
17
100
AcDbEntity
  8
AREE LEONARDO
 62
4
100
AcDbPolyline
 90
4
 70
1
 10
2879.344390815552
 20
1457.782217004822
 10
2879.497194113346
 20
1457.782217004822
 10
2879.497194113346
 20
1457.629413707027
 10
2879.344390815552
 20
1457.629413707027
  0
LWPOLYLINE
  5
53
330
17
100
AcDbEntity
  8
AREE LEONARDO
 62
4
100
AcDbPolyline
 90
4
 70
1
 10
2874.688869086851
 20
1459.703068183753
 10
2874.841672384646
 20
1459.703068183753
 10
2874.841672384646
 20
1459.550264885958
 10
2874.688869086851
 20
1459.550264885958
  0
LWPOLYLINE
  5
54
330
17
100
AcDbEntity
  8
AREE LEONARDO
 62
4
100
AcDbPolyline
 90
4
 70
1
 10
2874.888865565017
 20
1459.704255079396
 10
2875.041668862812
 20
1459.704255079396
 10
2875.041668862812
 20
1459.551451781601
 10
2874.888865565017
 20
1459.551451781601
  0
LWPOLYLINE
  5
55
330
17
100
AcDbEntity
  8
AREE LEONARDO
 62
4
100
AcDbPolyline
 90
4
 70
1
 10
2876.254909630136
 20
1459.703068183753
 10
2876.40771292793
 20
1459.703068183753
 10
2876.40771292793
 20
1459.550264885958
 10
2876.254909630136
 20
1459.550264885958
  0
LWPOLYLINE
  5
56
330
17
100
AcDbEntity
  8
AREE LEONARDO
 62
4
100
AcDbPolyline
 90
4
 70
1
 10
2876.454906108304
 20
1459.704255079396
 10
2876.607709406099
 20
1459.704255079396
 10
2876.607709406099
 20
1459.551451781601
 10
2876.454906108304
 20
1459.551451781601
  0
LWPOLYLINE
  5
57
330
17
100
AcDbEntity
  8
AREE LEONARDO
 62
4
100
AcDbPolyline
 90
4
 70
1
 10
2878.788790285355
 20
1460.353315242395
 10
2878.94159358315
 20
1460.353315242395
 10
2878.94159358315
 20
1460.2005119446
 10
2878.788790285355
 20
1460.2005119446
  0
LWPOLYLINE
  5
58
330
17
100
AcDbEntity
  8
AREE LEONARDO
 62
4
100
AcDbPolyline
 90
4
 70
1
 10
2878.988786763521
 20
1460.354502138038
 10
2879.141590061316
 20
1460.354502138038
 10
2879.141590061316
 20
1460.201698840243
 10
2878.988786763521
 20
1460.201698840243
  0
LWPOLYLINE
  5
59
330
17
100
AcDbEntity
  8
AREE LEONARDO
 62
4
100
AcDbPolyline
 90
4
 70
1
 10
2874.633388515524
 20
1465.689569028886
 10
2874.786191813319
 20
1465.689569028886
 10
2874.786191813319
 20
1465.536765731091
 10
2874.633388515524
 20
1465.536765731091
  0
LWPOLYLINE
  5
5A
330
17
100
AcDbEntity
  8
AREE LEONARDO
 62
4
100
AcDbPolyline
 90
4
 70
1
 10
2874.632201619881
 20
1465.889565507054
 10
2874.785004917676
 20
1465.889565507054
 10
2874.785004917676
 20
1465.736762209259
 10
2874.632201619881
 20
1465.736762209259
  0
LWPOLYLINE
  5
5B
330
17
100
AcDbEntity
  8
AREE LEONARDO
 62
4
100
AcDbPolyline
 90
4
 70
1
 10
2881.367552860049
 20
1463.777114421784
 10
2881.520356157844
 20
1463.777114421784
 10
2881.520356157844
 20
1463.624311123989
 10
2881.367552860049
 20
1463.624311123989
  0
LWPOLYLINE
  5
5C
330
17
100
AcDbEntity
  8
AREE LEONARDO
 62
4
100
AcDbPolyline
 90
4
 70
1
 10
2881.366365964407
 20
1463.977110899948
 10
2881.519169262201
 20
1463.977110899948
 10
2881.519169262201
 20
1463.824307602154
 10
2881.366365964407
 20
1463.824307602154
  0
LWPOLYLINE
  5
5D
330
17
100
AcDbEntity
  8
AREE LEONARDO
 62
4
100
AcDbPolyline
 90
4
 70
1
 10
2881.367552860049
 20
1464.951487291561
 10
2881.520356157844
 20
1464.951487291561
 10
2881.520356157844
 20
1464.798683993766
 10
2881.367552860049
 20
1464.798683993766
  0
LWPOLYLINE
  5
5E
330
17
100
AcDbEntity
  8
AREE LEONARDO
 62
4
100
AcDbPolyline
 90
4
 70
1
 10
2881.366365964407
 20
1465.151483769725
 10
2881.519169262201
 20
1465.151483769725
 10
2881.519169262201
 20
1464.99868047193
 10
2881.366365964407
 20
1464.99868047193
  0
LWPOLYLINE
  5
5F
330
17
100
AcDbEntity
  8
AREE LEONARDO
 62
4
100
AcDbPolyline
 90
4
 70
1
 10
2881.367552860049
 20
1466.14012755025
 10
2881.520356157844
 20
1466.14012755025
 10
2881.520356157844
 20
1465.987324252455
 10
2881.367552860049
 20
1465.987324252455
  0
LWPOLYLINE
  5
60
330
17
100
AcDbEntity
  8
AREE LEONARDO
 62
4
100
AcDbPolyline
 90
4
 70
1
 10
2881.366365964407
 20
1466.340124028417
 10
2881.519169262201
 20
1466.340124028417
 10
2881.519169262201
 20
1466.187320730622
 10
2881.366365964407
 20
1466.187320730622
  0
LWPOLYLINE
  5
61
330
17
100
AcDbEntity
  8
AREE LEONARDO
 62
4
100
AcDbPolyline
 90
4
 70
1
 10
2879.577460938357
 20
1465.746322910627
 10
2879.730264236152
 20
1465.746322910627
 10
2879.730264236152
 20
1465.593519612832
 10
2879.577460938357
 20
1465.593519612832
  0
LWPOLYLINE
  5
62
330
17
100
AcDbEntity
  8
AREE LEONARDO
 62
4
100
AcDbPolyline
 90
4
 70
1
 10
2877.419661924088
 20
1466.287063127041
 10
2877.572465221883
 20
1466.287063127041
 10
2877.572465221883
 20
1466.134259829246
 10
2877.419661924088
 20
1466.134259829246
  0
LWPOLYLINE
  5
63
330
17
100
AcDbEntity
  8
AREE LEONARDO
 62
4
100
AcDbPolyline
 90
4
 70
1
 10
2873.254115694057
 20
1461.813653526446
 10
2873.406918991852
 20
1461.813653526446
 10
2873.406918991852
 20
1461.660850228651
 10
2873.254115694057
 20
1461.660850228651
  0
LWPOLYLINE
  5
64
330
17
100
AcDbEntity
  8
AREE LEONARDO
 62
4
100
AcDbPolyline
 90
4
 70
1
 10
2873.454112172223
 20
1461.814840422088
 10
2873.606915470018
 20
1461.814840422088
 10
2873.606915470018
 20
1461.662037124293
 10
2873.454112172223
 20
1461.662037124293
  0
LWPOLYLINE
  5
65
330
17
100
AcDbEntity
  8
AREE LEONARDO
 62
4
100
AcDbPolyline
 90
4
 70
1
 10
2874.688869086851
 20
1461.813653526446
 10
2874.841672384646
 20
1461.813653526446
 10
2874.841672384646
 20
1461.660850228651
 10
2874.688869086851
 20
1461.660850228651
  0
LWPOLYLINE
  5
66
330
17
100
AcDbEntity
  8
AREE LEONARDO
 62
4
100
AcDbPolyline
 90
4
 70
1
 10
2874.888865565017
 20
1461.814840422088
 10
2875.041668862812
 20
1461.814840422088
 10
2875.041668862812
 20
1461.662037124293
 10
2874.888865565017
 20
1461.662037124293
  0
LWPOLYLINE
  5
67
330
17
100
AcDbEntity
  8
AREE LEONARDO
 62
4
100
AcDbPolyline
 90
4
 70
1
 10
2876.254909630138
 20
1461.813653526446
 10
2876.407712927932
 20
1461.813653526446
 10
2876.407712927932
 20
1461.660850228651
 10
2876.254909630138
 20
1461.660850228651
  0
LWPOLYLINE
  5
68
330
17
100
AcDbEntity
  8
AREE LEONARDO
 62
4
100
AcDbPolyline
 90
4
 70
1
 10
2876.454906108304
 20
1461.814840422088
 10
2876.607709406099
 20
1461.814840422088
 10
2876.607709406099
 20
1461.662037124293
 10
2876.454906108304
 20
1461.662037124293
  0
LWPOLYLINE
  5
69
330
17
100
AcDbEntity
  8
AREE LEONARDO
 62
4
100
AcDbPolyline
 90
4
 70
1
 10
2879.234619812448
 20
1461.852808061688
 10
2879.387423110243
 20
1461.852808061688
 10
2879.387423110243
 20
1461.700004763893
 10
2879.234619812448
 20
1461.700004763893
  0
LWPOLYLINE
  5
6A
330
17
100
AcDbEntity
  8
AREE LEONARDO
 62
4
100
AcDbPolyline
 90
4
 70
1
 10
2879.558006218305
 20
1463.833751632337
 10
2879.710809516101
 20
1463.833751632337
 10
2879.710809516101
 20
1463.680948334542
 10
2879.558006218305
 20
1463.680948334542
  0
LWPOLYLINE
  5
6B
330
17
100
AcDbEntity
  8
AREE LEONARDO
 62
4
100
AcDbPolyline
 90
4
 70
1
 10
2878.527006396342
 20
1463.833751632337
 10
2878.679809694137
 20
1463.833751632337
 10
2878.679809694137
 20
1463.680948334542
 10
2878.527006396342
 20
1463.680948334542
  0
LWPOLYLINE
  5
6C
330
17
100
AcDbEntity
  8
AREE LEONARDO
 62
4
100
AcDbPolyline
 90
4
 70
1
 10
2877.496006574382
 20
1463.833751632337
 10
2877.648809872177
 20
1463.833751632337
 10
2877.648809872177
 20
1463.680948334542
 10
2877.496006574382
 20
1463.680948334542
  0
LWPOLYLINE
  5
6D
330
17
100
AcDbEntity
  8
AREE LEONARDO
 62
4
100
AcDbPolyline
 90
4
 70
1
 10
2874.643305884083
 20
1463.670881049735
 10
2874.796109181878
 20
1463.670881049735
 10
2874.796109181878
 20
1463.51807775194
 10
2874.643305884083
 20
1463.51807775194
  0
LWPOLYLINE
  5
6E
330
17
100
AcDbEntity
  8
AREE LEONARDO
 62
4
100
AcDbPolyline
 90
4
 70
1
 10
2874.642118988441
 20
1463.870877527903
 10
2874.794922286235
 20
1463.870877527903
 10
2874.794922286235
 20
1463.718074230108
 10
2874.642118988441
 20
1463.718074230108
  0
LWPOLYLINE
  5
6F
330
17
100
AcDbEntity
  8
AREE LEONARDO
 62
4
100
AcDbPolyline
 90
4
 70
1
 10
2873.195282053077
 20
1463.670881049737
 10
2873.348085350872
 20
1463.670881049737
 10
2873.348085350872
 20
1463.518077751942
 10
2873.195282053077
 20
1463.518077751942
  0
LWPOLYLINE
  5
70
330
17
100
AcDbEntity
  8
AREE LEONARDO
 62
4
100
AcDbPolyline
 90
4
 70
1
 10
2873.194095157435
 20
1463.870877527901
 10
2873.346898455229
 20
1463.870877527901
 10
2873.346898455229
 20
1463.718074230106
 10
2873.194095157435
 20
1463.718074230106
  0
LWPOLYLINE
  5
71
330
17
100
AcDbEntity
  8
AREE LEONARDO
 62
4
100
AcDbPolyline
 90
4
 70
1
 10
2873.185364684517
 20
1465.689569028887
 10
2873.338167982312
 20
1465.689569028887
 10
2873.338167982312
 20
1465.536765731092
 10
2873.185364684517
 20
1465.536765731092
  0
LWPOLYLINE
  5
72
330
17
100
AcDbEntity
  8
AREE LEONARDO
 62
4
100
AcDbPolyline
 90
4
 70
1
 10
2873.184177788874
 20
1465.889565507053
 10
2873.336981086669
 20
1465.889565507053
 10
2873.336981086669
 20
1465.736762209258
 10
2873.184177788874
 20
1465.736762209258
  0
LWPOLYLINE
  5
73
330
17
100
AcDbEntity
  8
AREE LEONARDO
 62
4
100
AcDbPolyline
 90
4
 70
1
 10
2873.195282053077
 20
1467.869013916648
 10
2873.348085350872
 20
1467.869013916648
 10
2873.348085350872
 20
1467.716210618853
 10
2873.195282053077
 20
1467.716210618853
  0
LWPOLYLINE
  5
74
330
17
100
AcDbEntity
  8
AREE LEONARDO
 62
4
100
AcDbPolyline
 90
4
 70
1
 10
2873.194095157435
 20
1468.069010394815
 10
2873.346898455229
 20
1468.069010394815
 10
2873.346898455229
 20
1467.91620709702
 10
2873.194095157435
 20
1467.91620709702
  0
LWPOLYLINE
  5
75
330
17
100
AcDbEntity
  8
AREE LEONARDO
 62
4
100
AcDbPolyline
 90
4
 70
1
 10
2874.643305884082
 20
1467.869013916649
 10
2874.796109181877
 20
1467.869013916649
 10
2874.796109181877
 20
1467.716210618855
 10
2874.643305884082
 20
1467.716210618855
  0
LWPOLYLINE
  5
76
330
17
100
AcDbEntity
  8
AREE LEONARDO
 62
4
100
AcDbPolyline
 90
4
 70
1
 10
2874.642118988441
 20
1468.069010394815
 10
2874.794922286235
 20
1468.069010394815
 10
2874.794922286235
 20
1467.91620709702
 10
2874.642118988441
 20
1467.91620709702
  0
LWPOLYLINE
  5
77
330
17
100
AcDbEntity
  8
AREE LEONARDO
 62
4
100
AcDbPolyline
 90
4
 70
1
 10
2871.422712263351
 20
1469.978302223977
 10
2871.575515561146
 20
1469.978302223977
 10
2871.575515561146
 20
1469.825498926182
 10
2871.422712263351
 20
1469.825498926182
  0
LWPOLYLINE
  5
78
330
17
100
AcDbEntity
  8
AREE LEONARDO
 62
4
100
AcDbPolyline
 90
4
 70
1
 10
2869.614840531305
 20
1470.73441207313
 10
2869.7676438291
 20
1470.73441207313
 10
2869.7676438291
 20
1470.581608775336
 10
2869.614840531305
 20
1470.581608775336
  0
LWPOLYLINE
  5
79
330
17
100
AcDbEntity
  8
AREE LEONARDO
 62
4
100
AcDbPolyline
 90
4
 70
1
 10
2868.5401778894
 20
1470.829054762293
 10
2868.692981187194
 20
1470.829054762293
 10
2868.692981187194
 20
1470.676251464498
 10
2868.5401778894
 20
1470.676251464498
  0
LWPOLYLINE
  5
7A
330
17
100
AcDbEntity
  8
AREE LEONARDO
 62
4
100
AcDbPolyline
 90
4
 70
1
 10
2868.5401778894
 20
1470.052007056667
 10
2868.692981187194
 20
1470.052007056667
 10
2868.692981187194
 20
1469.899203758872
 10
2868.5401778894
 20
1469.899203758872
  0
LWPOLYLINE
  5
7B
330
17
100
AcDbEntity
  8
AREE LEONARDO
 62
4
100
AcDbPolyline
 90
4
 70
1
 10
2868.540177889398
 20
1469.21869272202
 10
2868.692981187193
 20
1469.21869272202
 10
2868.692981187193
 20
1469.065889424225
 10
2868.540177889398
 20
1469.065889424225
  0
LWPOLYLINE
  5
7C
330
17
100
AcDbEntity
  8
AREE LEONARDO
 62
4
100
AcDbPolyline
 90
4
 70
1
 10
2871.386250768168
 20
1468.262015629613
 10
2871.539054065963
 20
1468.262015629613
 10
2871.539054065963
 20
1468.109212331818
 10
2871.386250768168
 20
1468.109212331818
  0
LWPOLYLINE
  5
7D
330
17
100
AcDbEntity
  8
AREE LEONARDO
 62
4
100
AcDbPolyline
 90
4
 70
1
 10
2867.946243980454
 20
1464.146090098862
 10
2868.099047278249
 20
1464.146090098862
 10
2868.099047278249
 20
1463.993286801067
 10
2867.946243980454
 20
1463.993286801067
  0
LWPOLYLINE
  5
7E
330
17
100
AcDbEntity
  8
AREE LEONARDO
 62
4
100
AcDbPolyline
 90
4
 70
1
 10
2867.746247502288
 20
1464.14490320322
 10
2867.899050800083
 20
1464.14490320322
 10
2867.899050800083
 20
1463.992099905425
 10
2867.746247502288
 20
1463.992099905425
  0
LWPOLYLINE
  5
7F
330
17
100
AcDbEntity
  8
AREE LEONARDO
 62
4
100
AcDbPolyline
 90
4
 70
1
 10
2865.630321229819
 20
1464.14490320322
 10
2865.783124527614
 20
1464.14490320322
 10
2865.783124527614
 20
1463.992099905425
 10
2865.630321229819
 20
1463.992099905425
  0
LWPOLYLINE
  5
80
330
17
100
AcDbEntity
  8
AREE LEONARDO
 62
4
100
AcDbPolyline
 90
4
 70
1
 10
2865.830317707985
 20
1464.146090098862
 10
2865.98312100578
 20
1464.146090098862
 10
2865.98312100578
 20
1463.993286801067
 10
2865.830317707985
 20
1463.993286801067
  0
LWPOLYLINE
  5
81
330
17
100
AcDbEntity
  8
AREE LEONARDO
 62
4
100
AcDbPolyline
 90
4
 70
1
 10
2865.830317707985
 20
1465.851073956556
 10
2865.98312100578
 20
1465.851073956556
 10
2865.98312100578
 20
1465.698270658761
 10
2865.830317707985
 20
1465.698270658761
  0
LWPOLYLINE
  5
82
330
17
100
AcDbEntity
  8
AREE LEONARDO
 62
4
100
AcDbPolyline
 90
4
 70
1
 10
2865.630321229819
 20
1465.849887060913
 10
2865.783124527614
 20
1465.849887060913
 10
2865.783124527614
 20
1465.697083763118
 10
2865.630321229819
 20
1465.697083763118
  0
LWPOLYLINE
  5
83
330
17
100
AcDbEntity
  8
AREE LEONARDO
 62
4
100
AcDbPolyline
 90
4
 70
1
 10
2867.746247502286
 20
1465.849887060913
 10
2867.899050800081
 20
1465.849887060913
 10
2867.899050800081
 20
1465.697083763118
 10
2867.746247502286
 20
1465.697083763118
  0
LWPOLYLINE
  5
84
330
17
100
AcDbEntity
  8
AREE LEONARDO
 62
4
100
AcDbPolyline
 90
4
 70
1
 10
2867.946243980454
 20
1465.851073956556
 10
2868.099047278249
 20
1465.851073956556
 10
2868.099047278249
 20
1465.698270658761
 10
2867.946243980454
 20
1465.698270658761
  0
LWPOLYLINE
  5
85
330
17
100
AcDbEntity
  8
AREE LEONARDO
 62
4
100
AcDbPolyline
 90
4
 70
1
 10
2867.746247502288
 20
1467.56845890805
 10
2867.899050800083
 20
1467.56845890805
 10
2867.899050800083
 20
1467.415655610255
 10
2867.746247502288
 20
1467.415655610255
  0
LWPOLYLINE
  5
86
330
17
100
AcDbEntity
  8
AREE LEONARDO
 62
4
100
AcDbPolyline
 90
4
 70
1
 10
2867.946243980454
 20
1467.569645803693
 10
2868.099047278249
 20
1467.569645803693
 10
2868.099047278249
 20
1467.416842505898
 10
2867.946243980454
 20
1467.416842505898
  0
LWPOLYLINE
  5
87
330
17
100
AcDbEntity
  8
AREE LEONARDO
 62
4
100
AcDbPolyline
 90
4
 70
1
 10
2865.830317707985
 20
1467.569645803693
 10
2865.98312100578
 20
1467.569645803693
 10
2865.98312100578
 20
1467.416842505898
 10
2865.830317707985
 20
1467.416842505898
  0
LWPOLYLINE
  5
88
330
17
100
AcDbEntity
  8
AREE LEONARDO
 62
4
100
AcDbPolyline
 90
4
 70
1
 10
2865.630321229819
 20
1467.56845890805
 10
2865.783124527614
 20
1467.56845890805
 10
2865.783124527614
 20
1467.415655610255
 10
2865.630321229819
 20
1467.415655610255
  0
LWPOLYLINE
  5
89
330
17
100
AcDbEntity
  8
AREE LEONARDO
 62
4
100
AcDbPolyline
 90
4
 70
1
 10
2866.613200866576
 20
1470.296417829066
 10
2866.76600416437
 20
1470.296417829066
 10
2866.76600416437
 20
1470.143614531271
 10
2866.613200866576
 20
1470.143614531271
  0
LWPOLYLINE
  5
8A
330
17
100
AcDbEntity
  8
AREE LEONARDO
 62
4
100
AcDbPolyline
 90
4
 70
1
 10
2869.644344709368
 20
1473.262951618506
 10
2869.797148007163
 20
1473.262951618506
 10
2869.797148007163
 20
1473.110148320711
 10
2869.644344709368
 20
1473.110148320711
  0
LWPOLYLINE
  5
8B
330
17
100
AcDbEntity
  8
AREE LEONARDO
 62
5
100
AcDbPolyline
 90
4
 70
1
 43
0.02
 10
2876.02636539376
 20
1464.232160334657
 10
2880.486378569413
 20
1464.232160334657
 10
2880.486378569406
 20
1462.763810792931
 10
2876.02636539376
 20
1462.763810810351
  0
LWPOLYLINE
  5
8C
330
17
100
AcDbEntity
  8
AREE LEONARDO
 62
5
100
AcDbPolyline
 90
6
 70
1
 43
0.02
 10
2869.156900006865
 20
1474.861458882413
 10
2870.206348668495
 20
1474.861461678793
 10
2870.206348668495
 20
1474.73146167875
 10
2870.556638557683
 20
1474.73141431606
 10
2870.556638557683
 20
1471.939136928529
 10
2869.156900006869
 20
1471.939132667381
  0
LWPOLYLINE
  5
8D
330
17
100
AcDbEntity
  8
AREE LEONARDO
 62
5
100
AcDbPolyline
 90
14
 70
1
 43
0.02
 10
2862.056323145966
 20
1459.113880371821
 10
2858.972146635204
 20
1459.113880371826
 10
2858.972146635204
 20
1458.926375210085
 10
2858.536323145965
 20
1458.926375210085
 10
2858.536323145965
 20
1458.80198059629
 10
2858.456614530084
 20
1458.80198059629
 10
2858.45662455373
 20
1455.95198059629
 10
2858.536323145965
 20
1455.95198059629
 10
2858.536578353559
 20
1455.151980674532
 10
2862.201582159012
 20
1455.153149845649
 10
2862.201582159012
 20
1456.615078764304
 10
2862.246323145964
 20
1456.615078764304
 10
2862.246323145964
 20
1458.96198059629
 10
2862.056323145966
 20
1458.96198059629
  0
LWPOLYLINE
  5
8E
330
17
100
AcDbEntity
  8
AREE LEONARDO
 62
5
100
AcDbPolyline
 90
8
 70
1
 43
0.02
 10
2865.415829935131
 20
1460.314057046606
 10
2862.606492049808
 20
1460.313872117191
 10
2862.606492049808
 20
1459.471980596291
 10
2862.856323145965
 20
1459.471980596291
 10
2862.856323145965
 20
1458.96198059629
 10
2862.340075726375
 20
1458.96198059629
 10
2862.340088312274
 20
1456.647243569099
 10
2865.416019454182
 20
1456.647402555322
  0
LWPOLYLINE
  5
8F
330
17
100
AcDbEntity
  8
AREE LEONARDO
 62
5
100
AcDbPolyline
 90
14
 70
1
 43
0.02
 10
2866.693562419374
 20
1460.182005369523
 10
2866.119179225289
 20
1460.182005369523
 10
2866.119179225289
 20
1460.313091312504
 10
2865.509582515543
 20
1460.314056915147
 10
2865.509771950789
 20
1457.575713944469
 10
2865.99041806628
 20
1457.575713944469
 10
2865.990417689618
 20
1457.481961364058
 10
2865.509773400272
 20
1457.481962031054
 10
2865.509772174943
 20
1456.645866921794
 10
2866.693562419374
 20
1456.645866921794
 10
2866.693562419374
 20
1457.481958350778
 10
2866.64668575251
 20
1457.481958539109
 10
2866.646686128718
 20
1457.575711307853
 10
2866.693562419374
 20
1457.575710931193
  0
LWPOLYLINE
  5
90
330
17
100
AcDbEntity
  8
AREE LEONARDO
 62
5
100
AcDbPolyline
 90
8
 70
1
 43
0.02
 10
2861.925506300942
 20
1453.8337880813
 10
2863.801193876776
 20
1453.8337880813
 10
2863.801193876776
 20
1453.037405681554
 10
2864.012692111357
 20
1453.037405681554
 10
2864.010484748634
 20
1451.85349145078
 10
2862.791322255768
 20
1451.85349145078
 10
2862.791322255768
 20
1452.10349145074
 10
2861.925506300942
 20
1452.10349145074
  0
LWPOLYLINE
  5
91
330
17
100
AcDbEntity
  8
AREE LEONARDO
 62
5
100
AcDbPolyline
 90
8
 70
1
 43
0.02
 10
2858.456794390813
 20
1455.058193750425
 10
2858.456636115998
 20
1452.05198059629
 10
2858.586323145964
 20
1452.05198059629
 10
2858.586325895903
 20
1451.853458619004
 10
2861.831755595225
 20
1451.853515430623
 10
2861.831910572315
 20
1453.927631751203
 10
2863.800577586264
 20
1453.92754067902
 10
2863.800637627208
 20
1455.048424901843
  0
LWPOLYLINE
  5
92
330
17
100
AcDbEntity
  8
AREE LEONARDO
 62
5
100
AcDbPolyline
 90
39
 70
1
 43
0.02
 10
2870.716527615323
 20
1460.263517798618
 10
2870.260279102511
 20
1460.263517798618
 10
2870.260279102511
 20
1460.313876251055
 10
2867.219180610044
 20
1460.313876251055
 10
2867.219180610044
 20
1460.182005369523
 10
2866.757314798275
 20
1460.182005449875
 10
2866.757305777357
 20
1456.552110194043
 10
2862.651323145959
 20
1456.553491450781
 10
2862.651323145959
 20
1455.965078764302
 10
2862.201323145955
 20
1455.965078764302
 10
2862.201582159012
 20
1455.153149845649
 10
2863.801211970711
 20
1455.151914391854
 10
2863.801115505657
 20
1455.44219049887
 10
2867.806322255774
 20
1455.442189066904
 10
2867.806322255774
 20
1456.171980596291
 10
2867.606323145965
 20
1456.171980596291
 10
2867.606323145965
 20
1456.63198059629
 10
2868.506323145963
 20
1456.63198059629
 10
2868.506323145963
 20
1456.171980596291
 10
2867.900074836185
 20
1456.171980596289
 10
2867.900074836189
 20
1455.348435648452
 10
2863.894868086072
 20
1455.348437872792
 10
2863.894868086069
 20
1453.280984326424
 10
2864.457383568554
 20
1453.280984326424
 10
2864.457391138929
 20
1453.037405681554
 10
2864.80041916438
 20
1453.037405681554
 10
2864.80041916438
 20
1452.960953485605
 10
2867.656323145964
 20
1452.960953485605
 10
2867.656323145964
 20
1453.039421026251
 10
2868.506323145963
 20
1453.039421026251
 10
2868.506323145963
 20
1452.960953485605
 10
2871.576322255775
 20
1452.960953485605
 10
2871.576322255775
 20
1453.257397817857
 10
2871.656235243581
 20
1453.257397817857
 10
2871.656235446276
 20
1457.643479898147
 10
2870.576299779265
 20
1457.643479948054
 10
2870.576299779265
 20
1459.265089293555
 10
2870.716527548537
 20
1459.265089188928
 10
2870.716527548537
 20
1460.263517798618
  0
LWPOLYLINE
  5
93
330
17
100
AcDbEntity
  8
AREE LEONARDO
 62
5
100
AcDbPolyline
 90
16
 70
1
 43
0.02
 10
2877.864207288831
 20
1458.200828036663
 10
2877.864207288831
 20
1462.563810919719
 10
2876.606221643701
 20
1462.563810919719
 10
2876.606221643701
 20
1462.363513657938
 10
2876.006372557686
 20
1462.363513657938
 10
2876.006372557686
 20
1462.563810919719
 10
2872.156312912657
 20
1462.563810919719
 10
2872.156286206161
 20
1459.065087369527
 10
2871.975863733735
 20
1459.065087802079
 10
2871.975863912028
 20
1458.26889487149
 10
2872.256323145963
 20
1458.26889487149
 10
2872.256323760355
 20
1458.200828071664
 10
2876.226322255776
 20
1458.200828036661
 10
2876.226322255776
 20
1458.34040572598
 10
2876.733842139218
 20
1458.34040572598
 10
2876.733842139218
 20
1458.200828036663
  0
LWPOLYLINE
  5
94
330
17
100
AcDbEntity
  8
AREE LEONARDO
 62
5
100
AcDbPolyline
 90
6
 70
1
 43
0.02
 10
2876.941944085573
 20
1458.100828036662
 10
2876.941944085573
 20
1457.011465836937
 10
2879.955359879909
 20
1457.011465836937
 10
2879.955359879909
 20
1458.644785071529
 10
2877.964207288833
 20
1458.644785071529
 10
2877.964207288833
 20
1458.100828036662
  0
LWPOLYLINE
  5
95
330
17
100
AcDbEntity
  8
AREE LEONARDO
 62
5
100
AcDbPolyline
 90
8
 70
1
 43
0.02
 10
2884.155895090344
 20
1459.494736540844
 10
2884.155891133758
 20
1457.259930534374
 10
2883.976322255776
 20
1457.259930534374
 10
2883.975470660263
 20
1457.012085759908
 10
2880.756359879908
 20
1457.014620274264
 10
2880.756359879908
 20
1457.139950853903
 10
2880.06892886706
 20
1457.139950853903
 10
2880.068928867061
 20
1459.494736540846
  0
LWPOLYLINE
  5
96
330
17
100
AcDbEntity
  8
AREE LEONARDO
 62
5
100
AcDbPolyline
 90
6
 70
1
 43
0.02
 10
2877.964484103848
 20
1460.758187212279
 10
2879.956274949638
 20
1460.758187214728
 10
2879.955178706993
 20
1458.744785071529
 10
2879.055178706995
 20
1458.744785071529
 10
2879.055178706995
 20
1459.749674001425
 10
2877.964207288833
 20
1459.749674001425
  0
LWPOLYLINE
  5
97
330
17
100
AcDbEntity
  8
AREE LEONARDO
 62
5
100
AcDbPolyline
 90
4
 70
1
 43
0.02
 10
2879.956072694133
 20
1462.563810862603
 10
2877.964498630065
 20
1462.563810862603
 10
2877.964498630065
 20
1460.85818721228
 10
2879.956274949475
 20
1460.85818721228
  0
LWPOLYLINE
  5
98
330
17
100
AcDbEntity
  8
AREE LEONARDO
 62
5
100
AcDbPolyline
 90
8
 70
1
 43
0.02
 10
2884.076350967733
 20
1462.563687358534
 10
2884.076350967733
 20
1461.862002803493
 10
2884.155895090671
 20
1461.862002803493
 10
2884.155895090344
 20
1459.594736540845
 10
2880.055998134622
 20
1459.594736540847
 10
2880.05603168101
 20
1462.112447729303
 10
2880.606298015844
 20
1462.112447729303
 10
2880.606305786353
 20
1462.563747106052
  0
LWPOLYLINE
  5
99
330
17
100
AcDbEntity
  8
AREE LEONARDO
 62
5
100
AcDbPolyline
 90
8
 70
1
 43
0.02
 10
2880.586378569411
 20
1466.624038781776
 10
2883.806373447873
 20
1466.624041851513
 10
2883.806373447873
 20
1466.432002803389
 10
2884.155895090671
 20
1466.432002803389
 10
2884.155895090671
 20
1462.912002511968
 10
2884.076350967733
 20
1462.912002511968
 10
2884.076348415083
 20
1462.763748475546
 10
2880.586363618096
 20
1462.763810810357
  0
LWPOLYLINE
  5
9A
330
17
100
AcDbEntity
  8
AREE LEONARDO
 62
5
100
AcDbPolyline
 90
6
 70
1
 43
0.02
 10
2880.076377313601
 20
1467.597063313006
 10
2879.164196511918
 20
1467.597063229455
 10
2879.164196850414
 20
1464.332160262084
 10
2880.486378569413
 20
1464.332160334658
 10
2880.486378569413
 20
1466.213835070488
 10
2880.076377313601
 20
1466.213835070488
  0
LWPOLYLINE
  5
9B
330
17
100
AcDbEntity
  8
AREE LEONARDO
 62
5
100
AcDbPolyline
 90
6
 70
1
 43
0.02
 10
2876.436475269859
 20
1467.597069367002
 10
2879.064196511916
 20
1467.597063313006
 10
2879.064196511916
 20
1464.332160746512
 10
2876.02636539376
 20
1464.332160746512
 10
2876.02636539376
 20
1466.959950853951
 10
2876.436475269859
 20
1466.959950853951
  0
LWPOLYLINE
  5
9C
330
17
100
AcDbEntity
  8
AREE LEONARDO
 62
5
100
AcDbPolyline
 90
6
 70
1
 43
0.02
 10
2870.55405010129
 20
1468.620510266839
 10
2870.556096081671
 20
1467.886727286446
 10
2871.178998844882
 20
1467.888464103555
 10
2871.181240265766
 20
1467.681625763975
 10
2872.055996873926
 20
1467.681940734604
 10
2872.05629805623
 20
1468.620510266839
  0
LWPOLYLINE
  5
9D
330
17
100
AcDbEntity
  8
AREE LEONARDO
 62
5
100
AcDbPolyline
 90
6
 70
1
 43
0.02
 10
2871.376358119777
 20
1471.560511446754
 10
2872.056298790673
 20
1471.560530846802
 10
2872.05629805623
 20
1468.720510266839
 10
2870.55405010129
 20
1468.720510266839
 10
2870.55405010129
 20
1471.381822637459
 10
2871.376349558681
 20
1471.381822637459
  0
LWPOLYLINE
  5
9E
330
17
100
AcDbEntity
  8
AREE LEONARDO
 62
5
100
AcDbPolyline
 90
10
 70
1
 43
0.02
 10
2872.156298165899
 20
1471.360762504906
 10
2872.828278597839
 20
1471.360843569541
 10
2872.828278670493
 20
1471.560613702677
 10
2875.456474051693
 20
1471.560730741652
 10
2875.456474051693
 20
1471.380619158839
 10
2876.056272758264
 20
1471.380619158839
 10
2876.056272758275
 20
1468.059950853951
 10
2875.926372557684
 20
1468.059950853951
 10
2875.926365393758
 20
1462.76381091972
 10
2872.156299256438
 20
1462.76381091972
  0
LWPOLYLINE
  5
9F
330
17
100
AcDbEntity
  8
AREE LEONARDO
 62
5
100
AcDbPolyline
 90
6
 70
1
 43
0.02
 10
2869.156900006869
 20
1471.839132667383
 10
2870.326349571902
 20
1471.839132667383
 10
2870.326349571902
 20
1471.381822637459
 10
2870.335307326694
 20
1471.381822637459
 10
2870.334921248914
 20
1469.220689903919
 10
2869.157604835067
 20
1469.219933000026
  0
LWPOLYLINE
  5
A0
330
17
100
AcDbEntity
  8
AREE LEONARDO
100
AcDbPolyline
 90
4
 70
1
 43
0.02
 10
2868.161033344355
 20
1471.023404301297
 10
2869.05633584297
 20
1471.023404284644
 10
2869.05739713878
 20
1467.952298790804
 10
2868.161033328533
 20
1467.952298790804
  0
LWPOLYLINE
  5
A1
330
17
100
AcDbEntity
  8
AREE LEONARDO
 62
5
100
AcDbPolyline
 90
18
 70
1
 43
0.02
 10
2868.059450411185
 20
1468.472272062198
 10
2865.357134256117
 20
1468.471917147301
 10
2865.357134256117
 20
1467.872641403428
 10
2865.292085918025
 20
1467.872641403428
 10
2865.292085918025
 20
1467.059950853949
 10
2865.156487990809
 20
1467.060540969513
 10
2865.162919137644
 20
1463.311471451884
 10
2865.903343738088
 20
1463.312741574859
 10
2865.903343738088
 20
1463.39200564889
 10
2866.88334512284
 20
1463.39200564889
 10
2866.88334512284
 20
1463.31380597518
 10
2868.756348799014
 20
1463.31380597518
 10
2868.756348799014
 20
1464.91351650338
 10
2870.456175932016
 20
1464.91351650338
 10
2870.456963833442
 20
1465.883094575322
 10
2870.33506916891
 20
1465.883193629728
 10
2870.335087739352
 20
1467.852234610413
 10
2868.059450411185
 20
1467.852234610413
  0
LWPOLYLINE
  5
A2
330
17
100
AcDbEntity
  8
AREE LEONARDO
 62
5
100
AcDbPolyline
 90
6
 70
1
 43
0.02
 10
2865.23634974913
 20
1471.614695593749
 10
2868.061033351614
 20
1471.61475859344
 10
2868.060553044401
 20
1468.572189016821
 10
2865.155794637272
 20
1468.572434096577
 10
2865.154490680862
 20
1471.160648721218
 10
2865.242166203285
 20
1471.160675915928
  0
LWPOLYLINE
  5
A3
330
17
100
AcDbEntity
  8
AREE LEONARDO
 62
5
100
AcDbPolyline
 90
10
 70
1
 43
0.02
 10
2865.206348799015
 20
1474.861461678794
 10
2869.056322540148
 20
1474.861459088886
 10
2869.056335699823
 20
1471.123404284643
 10
2868.161033346214
 20
1471.1234043013
 10
2868.161033355076
 20
1471.71475859344
 10
2865.23634974913
 20
1471.714675454719
 10
2865.242166203285
 20
1472.059163172009
 10
2865.15395541151
 20
1472.059163172009
 10
2865.156324256217
 20
1474.811461678748
 10
2865.206348799015
 20
1474.811461678748
  0
ENDSEC
  0
SECTION
  2
OBJECTS
  0
DICTIONARY
  5
A
330
0
100
AcDbDictionary
280
0
281
1
  3
ACAD_COLOR
350
B
  3
ACAD_GROUP
350
C
  3
ACAD_LAYOUT
350
D
  3
ACAD_MATERIAL
350
E
  3
ACAD_MLEADERSTYLE
350
F
  3
ACAD_MLINESTYLE
350
10
  3
ACAD_PLOTSETTINGS
350
11
  3
ACAD_PLOTSTYLENAME
350
12
  3
ACAD_SCALELIST
350
14
  3
ACAD_TABLESTYLE
350
15
  3
ACAD_VISUALSTYLE
350
16
  3
EZDXF_META
350
2D
  0
DICTIONARY
  5
B
330
A
100
AcDbDictionary
280
0
281
1
  0
DICTIONARY
  5
C
330
A
100
AcDbDictionary
280
0
281
1
  0
DICTIONARY
  5
D
330
A
100
AcDbDictionary
280
0
281
1
  3
Model
350
1A
  3
Layout1
350
1E
  0
DICTIONARY
  5
E
330
A
100
AcDbDictionary
280
0
281
1
  3
ByBlock
350
1F
  3
ByLayer
350
20
  3
Global
350
21
  0
DICTIONARY
  5
F
330
A
100
AcDbDictionary
280
0
281
1
  3
Standard
350
2C
  0
DICTIONARY
  5
10
330
A
100
AcDbDictionary
280
0
281
1
  3
Standard
350
22
  0
DICTIONARY
  5
11
330
A
100
AcDbDictionary
280
0
281
1
  0
ACDBDICTIONARYWDFLT
  5
12
330
A
100
AcDbDictionary
280
0
281
1
  3
Normal
350
13
100
AcDbDictionaryWithDefault
340
13
  0
ACDBPLACEHOLDER
  5
13
330
12
  0
DICTIONARY
  5
14
330
A
100
AcDbDictionary
280
0
281
1
  0
DICTIONARY
  5
15
330
A
100
AcDbDictionary
280
0
281
1
  0
DICTIONARY
  5
16
330
A
100
AcDbDictionary
280
0
281
1
  0
LAYOUT
  5
1A
330
D
100
AcDbPlotSettings
  1

  2
Adobe PDF
  4
A3
  6

 40
7.5
 41
20.0
 42
7.5
 43
20.0
 44
420.0
 45
297.0
 46
0.0
 47
0.0
 48
0.0
 49
0.0
140
0.0
141
0.0
142
1.0
143
1.0
 70
1024
 72
1
 73
0
 74
5
  7

 75
16
 76
0
 77
2
 78
300
147
1.0
148
0.0
149
0.0
100
AcDbLayout
  1
Model
 70
1
 71
0
 10
0.0
 20
0.0
 11
420.0
 21
297.0
 12
0.0
 22
0.0
 32
0.0
 14
1e+20
 24
1e+20
 34
1e+20
 15
-1e+20
 25
-1e+20
 35
-1e+20
146
0.0
 13
0.0
 23
0.0
 33
0.0
 16
1.0
 26
0.0
 36
0.0
 17
0.0
 27
1.0
 37
0.0
 76
1
330
17
  0
LAYOUT
  5
1E
330
D
100
AcDbPlotSettings
  1

  2
Adobe PDF
  4
A3
  6

 40
7.5
 41
20.0
 42
7.5
 43
20.0
 44
420.0
 45
297.0
 46
0.0
 47
0.0
 48
0.0
 49
0.0
140
0.0
141
0.0
142
1.0
143
1.0
 70
0
 72
1
 73
0
 74
5
  7

 75
16
 76
0
 77
2
 78
300
147
1.0
148
0.0
149
0.0
100
AcDbLayout
  1
Layout1
 70
1
 71
1
 10
0.0
 20
0.0
 11
420.0
 21
297.0
 12
0.0
 22
0.0
 32
0.0
 14
1e+20
 24
1e+20
 34
1e+20
 15
-1e+20
 25
-1e+20
 35
-1e+20
146
0.0
 13
0.0
 23
0.0
 33
0.0
 16
1.0
 26
0.0
 36
0.0
 17
0.0
 27
1.0
 37
0.0
 76
1
330
1B
  0
MATERIAL
  5
1F
102
{ACAD_REACTORS
330
E
102
}
330
E
100
AcDbMaterial
  1
ByBlock
  2

 70
0
 40
1.0
 71
1
 41
1.0
 91
-1023410177
 42
1.0
 72
1
  3

 73
1
 74
1
 75
1
 44
0.5
 73
0
 45
1.0
 46
1.0
 77
1
  4

 78
1
 79
1
170
1
 48
1.0
171
1
  6

172
1
173
1
174
1
140
1.0
141
1.0
175
1
  7

176
1
177
1
178
1
143
1.0
179
1
  8

270
1
271
1
272
1
145
1.0
146
1.0
273
1
  9

274
1
275
1
276
1
 42
1.0
 72
1
  3

 73
1
 74
1
 75
1
 94
63
  0
MATERIAL
  5
20
102
{ACAD_REACTORS
330
E
102
}
330
E
100
AcDbMaterial
  1
ByLayer
  2

 70
0
 40
1.0
 71
1
 41
1.0
 91
-1023410177
 42
1.0
 72
1
  3

 73
1
 74
1
 75
1
 44
0.5
 73
0
 45
1.0
 46
1.0
 77
1
  4

 78
1
 79
1
170
1
 48
1.0
171
1
  6

172
1
173
1
174
1
140
1.0
141
1.0
175
1
  7

176
1
177
1
178
1
143
1.0
179
1
  8

270
1
271
1
272
1
145
1.0
146
1.0
273
1
  9

274
1
275
1
276
1
 42
1.0
 72
1
  3

 73
1
 74
1
 75
1
 94
63
  0
MATERIAL
  5
21
102
{ACAD_REACTORS
330
E
102
}
330
E
100
AcDbMaterial
  1
Global
  2

 70
0
 40
1.0
 71
1
 41
1.0
 91
-1023410177
 42
1.0
 72
1
  3

 73
1
 74
1
 75
1
 44
0.5
 73
0
 45
1.0
 46
1.0
 77
1
  4

 78
1
 79
1
170
1
 48
1.0
171
1
  6

172
1
173
1
174
1
140
1.0
141
1.0
175
1
  7

176
1
177
1
178
1
143
1.0
179
1
  8

270
1
271
1
272
1
145
1.0
146
1.0
273
1
  9

274
1
275
1
276
1
 42
1.0
 72
1
  3

 73
1
 74
1
 75
1
 94
63
  0
MLINESTYLE
  5
22
102
{ACAD_REACTORS
330
10
102
}
330
10
100
AcDbMlineStyle
  2
Standard
 70
0
  3

 62
256
 51
90.0
 52
90.0
 71
2
 49
0.5
 62
256
  6
BYLAYER
 49
-0.5
 62
256
  6
BYLAYER
  0
MLEADERSTYLE
  5
2C
102
{ACAD_REACTORS
330
F
102
}
330
F
100
AcDbMLeaderStyle
179
2
170
2
171
1
172
0
 90
2
 40
0.0
 41
0.0
173
1
 91
-1056964608
 92
-2
290
1
 42
2.0
291
1
 43
8.0
  3
Standard
 44
4.0
300

342
29
174
1
175
1
176
0
178
1
 93
-1056964608
 45
4.0
292
0
297
0
 46
4.0
 94
-1056964608
 47
1.0
 49
1.0
140
1.0
294
1
141
0.0
177
0
142
1.0
295
0
296
0
143
3.75
271
0
272
9
273
9
  0
DICTIONARY
  5
2D
330
A
100
AcDbDictionary
281
1
  3
CREATED_BY_EZDXF
350
2E
  3
WRITTEN_BY_EZDXF
350
A7
  0
DICTIONARYVAR
  5
2E
330
2D
100
DictionaryVariables
280
0
  1
1.1.2 @ 2023-11-14T21:35:55.075357+00:00
  0
DICTIONARYVAR
  5
A7
330
2D
100
DictionaryVariables
280
0
  1
1.1.2 @ 2023-11-14T21:35:55.082987+00:00
  0
ENDSEC
  0
EOF
