999
dxfrw 0.6.3
  0
SECTION
  2
HEADER
  9
$ACADVER
  1
AC1021
  9
$DWGCODEPAGE
  3
ANSI_1252
  9
$INSBASE
 10
0
 20
0
 30
0
  9
$EXTMIN
 10
50348.63602212337
 20
2597.577529610833
 30
0
  9
$EXTMAX
 10
53262.60384036639
 20
3992.663016456826
 30
0
  9
$LIMMIN
 10
0
 20
0
  9
$LIMMAX
 10
420
 20
297
  9
$ORTHOMODE
 70
    1
  9
$REGENMODE
 70
    1
  9
$FILLMODE
 70
    1
  9
$QTEXTMODE
 70
    0
  9
$MIRRTEXT
 70
    1
  9
$LTSCALE
 40
1
  9
$ATTMODE
 70
    1
  9
$TEXTSIZE
 40
0.2
  9
$TRACEWID
 40
1
  9
$TEXTSTYLE
  7
STANDARD
  9
$CLAYER
  8
AREE LEONARDO
  9
$CELTYPE
  6
BYLAYER
  9
$CECOLOR
 62
  256
  9
$CELTSCALE
 40
1
  9
$DISPSILH
 70
    0
  9
$DIMSCALE
 40
0
  9
$DIMASZ
 40
1
  9
$DIMEXO
 40
0.625
  9
$DIMDLI
 40
10000000
  9
$DIMRND
 40
0
  9
$DIMDLE
 40
0
  9
$DIMEXE
 40
1.25
  9
$DIMTP
 40
0
  9
$DIMTM
 40
0
  9
$DIMTXT
 40
20
  9
$DIMCEN
 40
0
  9
$DIMTSZ
 40
0
  9
$DIMTOL
 70
    0
  9
$DIMLIM
 70
    0
  9
$DIMTIH
 70
    0
  9
$DIMTOH
 70
    0
  9
$DIMSE1
 70
    1
  9
$DIMSE2
 70
    1
  9
$DIMTAD
 70
    1
  9
$DIMZIN
 70
    8
  9
$DIMBLK
  1

  9
$DIMASO
 70
    1
  9
$DIMSHO
 70
    1
  9
$DIMPOST
  1

  9
$DIMAPOST
  1

  9
$DIMALT
 70
    0
  9
$DIMALTD
 70
    4
  9
$DIMALTF
 40
0.0394
  9
$DIMLFAC
 40
1
  9
$DIMTOFL
 70
    1
  9
$DIMTVP
 40
0
  9
$DIMTIX
 70
    1
  9
$DIMSOXD
 70
    0
  9
$DIMSAH
 70
    1
  9
$DIMBLK1
  1
PUNTO
  9
$DIMBLK2
  1
PUNTO
  9
$DIMSTYLE
  2
Quote 1 100
  9
$DIMCLRD
 70
  256
  9
$DIMCLRE
 70
  256
  9
$DIMCLRT
 70
  256
  9
$DIMTFAC
 40
1
  9
$DIMGAP
 40
8
  9
$DIMJUST
 70
    0
  9
$DIMSD1
 70
    0
  9
$DIMSD2
 70
    0
  9
$DIMTOLJ
 70
    1
  9
$DIMTZIN
 70
    0
  9
$DIMALTZ
 70
    0
  9
$DIMALTTZ
 70
    0
  9
$DIMUPT
 70
    0
  9
$DIMDEC
 70
    0
  9
$DIMTDEC
 70
    0
  9
$DIMALTU
 70
    8
  9
$DIMALTTD
 70
    4
  9
$DIMTXSTY
  7
ROMANS
  9
$DIMAUNIT
 70
    0
  9
$DIMADEC
 70
    0
  9
$DIMALTRND
 40
0
  9
$DIMAZIN
 70
    0
  9
$DIMDSEP
 70
   46
  9
$DIMATFIT
 70
    3
  9
$DIMFRAC
 70
    0
  9
$DIMLDRBLK
  1
PUNTO
  9
$DIMLUNIT
 70
    2
  9
$DIMLWD
 70
   -2
  9
$DIMLWE
 70
   -2
  9
$DIMTMOVE
 70
    2
  9
$DIMFXL
 40
1
  9
$DIMFXLON
 70
    0
  9
$DIMJOGANG
 40
0.7854
  9
$DIMTFILL
 70
    0
  9
$DIMTFILLCLR
 70
    0
  9
$DIMARCSYM
 70
    0
  9
$DIMLTYPE
  6

  9
$DIMLTEX1
  6

  9
$DIMLTEX2
  6

  9
$LUNITS
 70
    2
  9
$LUPREC
 70
    4
  9
$SKETCHINC
 40
1
  9
$FILLETRAD
 40
20
  9
$AUNITS
 70
    0
  9
$AUPREC
 70
    0
  9
$MENU
  1
.
  9
$ELEVATION
 40
0
  9
$PELEVATION
 40
0
  9
$THICKNESS
 40
0
  9
$LIMCHECK
 70
    0
  9
$CHAMFERA
 40
0
  9
$CHAMFERB
 40
0
  9
$CHAMFERC
 40
20
  9
$CHAMFERD
 40
0
  9
$SKPOLY
 70
    0
  9
$USRTIMER
 70
    1
  9
$ANGBASE
 50
0
  9
$ANGDIR
 70
    0
  9
$PDMODE
 70
    0
  9
$PDSIZE
 40
0
  9
$PLINEWID
 40
0
  9
$SPLFRAME
 70
    0
  9
$SPLINETYPE
 70
    6
  9
$SPLINESEGS
 70
    8
  9
$HANDSEED
  5
20000
  9
$SURFTAB1
 70
    6
  9
$SURFTAB2
 70
    6
  9
$SURFTYPE
 70
    6
  9
$SURFU
 70
    6
  9
$SURFV
 70
    6
  9
$UCSBASE
  2

  9
$UCSNAME
  2

  9
$UCSORG
 10
0
 20
0
 30
0
  9
$UCSXDIR
 10
1
 20
0
 30
0
  9
$UCSYDIR
 10
0
 20
1
 30
0
  9
$UCSORTHOREF
  2

  9
$UCSORTHOVIEW
 70
    0
  9
$UCSORGTOP
 10
0
 20
0
 30
0
  9
$UCSORGBOTTOM
 10
0
 20
0
 30
0
  9
$UCSORGLEFT
 10
0
 20
0
 30
0
  9
$UCSORGRIGHT
 10
0
 20
0
 30
0
  9
$UCSORGFRONT
 10
0
 20
0
 30
0
  9
$UCSORGBACK
 10
0
 20
0
 30
0
  9
$PUCSBASE
  2

  9
$PUCSNAME
  2

  9
$PUCSORG
 10
0
 20
0
 30
0
  9
$PUCSXDIR
 10
1
 20
0
 30
0
  9
$PUCSYDIR
 10
0
 20
1
 30
0
  9
$PUCSORTHOREF
  2

  9
$PUCSORTHOVIEW
 70
    0
  9
$PUCSORGTOP
 10
0
 20
0
 30
0
  9
$PUCSORGBOTTOM
 10
0
 20
0
 30
0
  9
$PUCSORGLEFT
 10
0
 20
0
 30
0
  9
$PUCSORGRIGHT
 10
0
 20
0
 30
0
  9
$PUCSORGFRONT
 10
0
 20
0
 30
0
  9
$PUCSORGBACK
 10
0
 20
0
 30
0
  9
$USERI1
 70
    0
  9
$USERI2
 70
    0
  9
$USERI3
 70
    0
  9
$USERI4
 70
    0
  9
$USERI5
 70
    0
  9
$USERR1
 40
0
  9
$USERR2
 40
0
  9
$USERR3
 40
0
  9
$USERR4
 40
0
  9
$USERR5
 40
0
  9
$WORLDVIEW
 70
    1
  9
$SHADEDGE
 70
    3
  9
$SHADEDIF
 70
   70
  9
$TILEMODE
 70
    1
  9
$MAXACTVP
 70
   48
  9
$PINSBASE
 10
0
 20
0
 30
0
  9
$PLIMCHECK
 70
    0
  9
$PEXTMIN
 10
1e+20
 20
1e+20
 30
1e+20
  9
$PEXTMAX
 10
-1e+20
 20
-1e+20
 30
-1e+20
  9
$GRIDMODE
 70
    0
  9
$SNAPSTYLE
 70
    0
  9
$PLIMMIN
 10
0
 20
0
  9
$PLIMMAX
 10
420
 20
297
  9
$UNITMODE
 70
    0
  9
$VISRETAIN
 70
    1
  9
$PLINEGEN
 70
    0
  9
$PSLTSCALE
 70
    1
  9
$TREEDEPTH
 70
 3020
  9
$CMLSTYLE
  2
STANDARD
  9
$CMLJUST
 70
    0
  9
$CMLSCALE
 40
43
  9
$PROXYGRAPHICS
 70
    1
  9
$MEASUREMENT
 70
    0
  9
$CELWEIGHT
370
   -1
  9
$ENDCAPS
280
    0
  9
$JOINSTYLE
280
    0
  9
$LWDISPLAY
290
    0
  9
$INSUNITS
 70
    0
  9
$HYPERLINKBASE
  1

  9
$STYLESHEET
  1

  9
$XEDIT
290
    1
  9
$CEPSNTYPE
380
    0
  9
$PSTYLEMODE
290
    1
  9
$EXTNAMES
290
    1
  9
$PSVPSCALE
 40
0
  9
$OLESTARTUP
290
    0
  9
$SORTENTS
280
  127
  9
$INDEXCTL
280
    0
  9
$HIDETEXT
280
    1
  9
$XCLIPFRAME
290
    0
  9
$HALOGAP
280
    0
  9
$OBSCOLOR
 70
  257
  9
$OBSLTYPE
280
    0
  9
$INTERSECTIONDISPLAY
280
    0
  9
$INTERSECTIONCOLOR
 70
  257
  9
$DIMASSOC
280
    1
  9
$PROJECTNAME
  1

  9
$CAMERADISPLAY
290
    0
  9
$LENSLENGTH
 40
50
  9
$CAMERAHEIGHT
 40
0
  9
$STEPSPERSEC
 40
2
  9
$STEPSIZE
 40
50
  9
$3DDWFPREC
 40
2
  9
$PSOLWIDTH
 40
5
  9
$PSOLHEIGHT
 40
80
  9
$LOFTANG1
 40
1.570796326794897
  9
$LOFTANG2
 40
1.570796326794897
  9
$LOFTMAG1
 40
0
  9
$LOFTMAG2
 40
0
  9
$LOFTPARAM
 70
    7
  9
$LOFTNORMALS
280
    1
  9
$LATITUDE
 40
1
  9
$LONGITUDE
 40
1
  9
$NORTHDIRECTION
 40
0
  9
$TIMEZONE
 70
-8000
  9
$LIGHTGLYPHDISPLAY
280
    1
  9
$TILEMODELIGHTSYNCH
280
    1
  9
$SOLIDHIST
280
    1
  9
$SHOWHIST
280
    1
  9
$DWFFRAME
280
    2
  9
$DGNFRAME
280
    0
  9
$REALWORLDSCALE
290
    1
  9
$INTERFERECOLOR
 62
    1
  9
$CSHADOW
280
    0
  9
$SHADOWPLANELOCATION
 40
0
  0
ENDSEC
  0
SECTION
  2
CLASSES
  0
ENDSEC
  0
SECTION
  2
TABLES
  0
TABLE
  2
VPORT
  5
8
330
0
100
AcDbSymbolTable
 70
    1
  0
VPORT
  5
31
330
2
100
AcDbSymbolTableRecord
100
AcDbViewportTableRecord
  2
*ACTIVE
 70
    0
 10
0
 20
0
 11
1
 21
1
 12
26979.25872992393
 22
2075.042051462228
 13
0
 23
0
 14
10
 24
10
 15
10
 25
10
 16
0
 26
0
 36
1
 17
0
 27
0
 37
0
 40
1714.97214271118
 41
2.127705627705628
 42
50
 43
0
 44
0
 50
0
 51
0
 71
    0
 72
  100
 73
    1
 74
    3
 75
    0
 76
    0
 77
    0
 78
    0
281
    0
 65
    1
110
0
120
0
130
0
111
1
121
0
131
0
112
0
122
1
132
0
 79
    0
146
0
348
10020
 60
    7
 61
    5
292
1
282
    1
141
0
142
0
 63
  250
421
3358443
  0
ENDTAB
  0
TABLE
  2
LTYPE
  5
5
330
0
100
AcDbSymbolTable
 70
    4
  0
LTYPE
  5
14
330
5
100
AcDbSymbolTableRecord
100
AcDbLinetypeTableRecord
  2
ByBlock
 70
    0
  3

 72
   65
 73
    0
 40
0
  0
LTYPE
  5
15
330
5
100
AcDbSymbolTableRecord
100
AcDbLinetypeTableRecord
  2
ByLayer
 70
    0
  3

 72
   65
 73
    0
 40
0
  0
LTYPE
  5
16
330
5
100
AcDbSymbolTableRecord
100
AcDbLinetypeTableRecord
  2
Continuous
 70
    0
  3
Solid line
 72
   65
 73
    0
 40
0
  0
LTYPE
  5
32
330
5
100
AcDbSymbolTableRecord
100
AcDbLinetypeTableRecord
  2
DOT
 70
    0
  3
Dot . . . . . . . . . . . . . . . . . . . . . .
 72
   65
 73
    2
 40
6.35
 49
0
 74
    0
 49
-6.35
 74
    0
  0
LTYPE
  5
33
330
5
100
AcDbSymbolTableRecord
100
AcDbLinetypeTableRecord
  2
DOTTINY
 70
    0
  3
Dot (.15x) .....................................
 72
   65
 73
    2
 40
0.9525
 49
0
 74
    0
 49
-0.9525
 74
    0
  0
LTYPE
  5
34
330
5
100
AcDbSymbolTableRecord
100
AcDbLinetypeTableRecord
  2
DOT2
 70
    0
  3
Dot (.5x) .....................................
 72
   65
 73
    2
 40
3.175
 49
0
 74
    0
 49
-3.175
 74
    0
  0
LTYPE
  5
35
330
5
100
AcDbSymbolTableRecord
100
AcDbLinetypeTableRecord
  2
DOTX2
 70
    0
  3
Dot (2x) .  .  .  .  .  .  .  .  .  .  .  .  .
 72
   65
 73
    2
 40
12.7
 49
0
 74
    0
 49
-12.7
 74
    0
  0
LTYPE
  5
36
330
5
100
AcDbSymbolTableRecord
100
AcDbLinetypeTableRecord
  2
DASHED
 70
    0
  3
Dashed _ _ _ _ _ _ _ _ _ _ _ _ _ _ _ _ _
 72
   65
 73
    2
 40
19.05
 49
12.7
 74
    0
 49
-6.35
 74
    0
  0
LTYPE
  5
37
330
5
100
AcDbSymbolTableRecord
100
AcDbLinetypeTableRecord
  2
DASHEDTINY
 70
    0
  3
Dashed (.15x) _ _ _ _ _ _ _ _ _ _ _ _ _ _ _ _ _
 72
   65
 73
    2
 40
2.8575
 49
1.905
 74
    0
 49
-0.9525
 74
    0
  0
LTYPE
  5
38
330
5
100
AcDbSymbolTableRecord
100
AcDbLinetypeTableRecord
  2
DASHED2
 70
    0
  3
Dashed (.5x) _ _ _ _ _ _ _ _ _ _ _ _ _ _ _ _ _
 72
   65
 73
    2
 40
9.524999999999999
 49
6.35
 74
    0
 49
-3.175
 74
    0
  0
LTYPE
  5
39
330
5
100
AcDbSymbolTableRecord
100
AcDbLinetypeTableRecord
  2
DASHEDX2
 70
    0
  3
Dashed (2x) ____  ____  ____  ____  ____  ___
 72
   65
 73
    2
 40
38.09999999999999
 49
25.4
 74
    0
 49
-12.7
 74
    0
  0
LTYPE
  5
3A
330
5
100
AcDbSymbolTableRecord
100
AcDbLinetypeTableRecord
  2
DASHDOT
 70
    0
  3
Dash dot __ . __ . __ . __ . __ . __ . __ . __
 72
   65
 73
    4
 40
25.4
 49
12.7
 74
    0
 49
-6.35
 74
    0
 49
0
 74
    0
 49
-6.35
 74
    0
  0
LTYPE
  5
3B
330
5
100
AcDbSymbolTableRecord
100
AcDbLinetypeTableRecord
  2
DASHDOTTINY
 70
    0
  3
Dash dot (.15x) _._._._._._._._._._._._._._._.
 72
   65
 73
    4
 40
3.81
 49
1.905
 74
    0
 49
-0.9525
 74
    0
 49
0
 74
    0
 49
-0.9525
 74
    0
  0
LTYPE
  5
3C
330
5
100
AcDbSymbolTableRecord
100
AcDbLinetypeTableRecord
  2
DASHDOT2
 70
    0
  3
Dash dot (.5x) _._._._._._._._._._._._._._._.
 72
   65
 73
    4
 40
12.7
 49
6.35
 74
    0
 49
-3.175
 74
    0
 49
0
 74
    0
 49
-3.175
 74
    0
  0
LTYPE
  5
3D
330
5
100
AcDbSymbolTableRecord
100
AcDbLinetypeTableRecord
  2
DASHDOTX2
 70
    0
  3
Dash dot (2x) ____  .  ____  .  ____  .  ___
 72
   65
 73
    4
 40
50.8
 49
25.4
 74
    0
 49
-12.7
 74
    0
 49
0
 74
    0
 49
-12.7
 74
    0
  0
LTYPE
  5
3E
330
5
100
AcDbSymbolTableRecord
100
AcDbLinetypeTableRecord
  2
DIVIDE
 70
    0
  3
Divide ____ . . ____ . . ____ . . ____ . . ____
 72
   65
 73
    6
 40
31.75
 49
12.7
 74
    0
 49
-6.35
 74
    0
 49
0
 74
    0
 49
-6.35
 74
    0
 49
0
 74
    0
 49
-6.35
 74
    0
  0
LTYPE
  5
3F
330
5
100
AcDbSymbolTableRecord
100
AcDbLinetypeTableRecord
  2
DIVIDETINY
 70
    0
  3
Divide (.15x) __..__..__..__..__..__..__..__.._
 72
   65
 73
    6
 40
4.7625
 49
1.905
 74
    0
 49
-0.9525
 74
    0
 49
0
 74
    0
 49
-0.9525
 74
    0
 49
0
 74
    0
 49
-0.9525
 74
    0
  0
LTYPE
  5
40
330
5
100
AcDbSymbolTableRecord
100
AcDbLinetypeTableRecord
  2
DIVIDE2
 70
    0
  3
Divide (.5x) __..__..__..__..__..__..__..__.._
 72
   65
 73
    6
 40
15.875
 49
6.35
 74
    0
 49
-3.175
 74
    0
 49
0
 74
    0
 49
-3.175
 74
    0
 49
0
 74
    0
 49
-3.175
 74
    0
  0
LTYPE
  5
41
330
5
100
AcDbSymbolTableRecord
100
AcDbLinetypeTableRecord
  2
DIVIDEX2
 70
    0
  3
Divide (2x) ________  .  .  ________  .  .  _
 72
   65
 73
    6
 40
63.5
 49
25.4
 74
    0
 49
-12.7
 74
    0
 49
0
 74
    0
 49
-12.7
 74
    0
 49
0
 74
    0
 49
-12.7
 74
    0
  0
LTYPE
  5
42
330
5
100
AcDbSymbolTableRecord
100
AcDbLinetypeTableRecord
  2
BORDER
 70
    0
  3
Border __ __ . __ __ . __ __ . __ __ . __ __ .
 72
   65
 73
    6
 40
44.45
 49
12.7
 74
    0
 49
-6.35
 74
    0
 49
12.7
 74
    0
 49
-6.35
 74
    0
 49
0
 74
    0
 49
-6.35
 74
    0
  0
LTYPE
  5
43
330
5
100
AcDbSymbolTableRecord
100
AcDbLinetypeTableRecord
  2
BORDERTINY
 70
    0
  3
Border (.15x) __.__.__.__.__.__.__.__.__.__.__.
 72
   65
 73
    6
 40
6.6675
 49
1.905
 74
    0
 49
-0.9525
 74
    0
 49
1.905
 74
    0
 49
-0.9525
 74
    0
 49
0
 74
    0
 49
-0.9525
 74
    0
  0
LTYPE
  5
44
330
5
100
AcDbSymbolTableRecord
100
AcDbLinetypeTableRecord
  2
BORDER2
 70
    0
  3
Border (.5x) __.__.__.__.__.__.__.__.__.__.__.
 72
   65
 73
    6
 40
22.225
 49
6.35
 74
    0
 49
-3.175
 74
    0
 49
6.35
 74
    0
 49
-3.175
 74
    0
 49
0
 74
    0
 49
-3.175
 74
    0
  0
LTYPE
  5
45
330
5
100
AcDbSymbolTableRecord
100
AcDbLinetypeTableRecord
  2
BORDERX2
 70
    0
  3
Border (2x) ____  ____  .  ____  ____  .  ___
 72
   65
 73
    6
 40
88.89999999999999
 49
25.4
 74
    0
 49
-12.7
 74
    0
 49
25.4
 74
    0
 49
-12.7
 74
    0
 49
0
 74
    0
 49
-12.7
 74
    0
  0
LTYPE
  5
46
330
5
100
AcDbSymbolTableRecord
100
AcDbLinetypeTableRecord
  2
CENTER
 70
    0
  3
Center ____ _ ____ _ ____ _ ____ _ ____ _ ____
 72
   65
 73
    4
 40
50.8
 49
31.75
 74
    0
 49
-6.35
 74
    0
 49
6.35
 74
    0
 49
-6.35
 74
    0
  0
LTYPE
  5
47
330
5
100
AcDbSymbolTableRecord
100
AcDbLinetypeTableRecord
  2
CENTERTINY
 70
    0
  3
Center (.15x) ___ _ ___ _ ___ _ ___ _ ___ _ ___
 72
   65
 73
    4
 40
7.619999999999999
 49
4.7625
 74
    0
 49
-0.9525
 74
    0
 49
0.9525
 74
    0
 49
-0.9525
 74
    0
  0
LTYPE
  5
48
330
5
100
AcDbSymbolTableRecord
100
AcDbLinetypeTableRecord
  2
CENTER2
 70
    0
  3
Center (.5x) ___ _ ___ _ ___ _ ___ _ ___ _ ___
 72
   65
 73
    4
 40
28.575
 49
19.05
 74
    0
 49
-3.175
 74
    0
 49
3.175
 74
    0
 49
-3.175
 74
    0
  0
LTYPE
  5
49
330
5
100
AcDbSymbolTableRecord
100
AcDbLinetypeTableRecord
  2
CENTERX2
 70
    0
  3
Center (2x) ________  __  ________  __  _____
 72
   65
 73
    4
 40
101.6
 49
63.5
 74
    0
 49
-12.7
 74
    0
 49
12.7
 74
    0
 49
-12.7
 74
    0
  0
ENDTAB
  0
TABLE
  2
LAYER
  5
2
330
0
100
AcDbSymbolTable
 70
    1
  0
LAYER
  5
10
330
2
100
AcDbSymbolTableRecord
100
AcDbLayerTableRecord
  2
0
 70
    1
 62
    7
  6
CONTINUOUS
370
   -3
390
F
  0
LAYER
  5
4A
330
2
100
AcDbSymbolTableRecord
100
AcDbLayerTableRecord
  2
AREE LEONARDO
 70
    0
 62
    5
  6
CONTINUOUS
370
   -3
390
F
  0
LAYER
  5
4B
330
2
100
AcDbSymbolTableRecord
100
AcDbLayerTableRecord
  2
QUOTE
 70
    1
 62
    1
  6
CONTINUOUS
370
   -3
390
F
  0
LAYER
  5
4C
330
2
100
AcDbSymbolTableRecord
100
AcDbLayerTableRecord
  2
SCALE-PORTE-FINESTRE
 70
    1
 62
    6
  6
CONTINUOUS
370
   -3
390
F
  0
LAYER
  5
4D
330
2
100
AcDbSymbolTableRecord
100
AcDbLayerTableRecord
  2
TESTI
 70
    1
 62
    3
  6
CONTINUOUS
370
   -3
390
F
  0
LAYER
  5
4E
330
2
100
AcDbSymbolTableRecord
100
AcDbLayerTableRecord
  2
sezioni
 70
    1
 62
    2
  6
CONTINUOUS
370
   -3
390
F
  0
ENDTAB
  0
TABLE
  2
STYLE
  5
3
330
0
100
AcDbSymbolTable
 70
    3
  0
STYLE
  5
4F
330
2
100
AcDbSymbolTableRecord
100
AcDbTextStyleTableRecord
  2
romans
 70
    0
 40
0
 41
1
 50
0
 71
    0
 42
1
  3
romans
  4

  0
STYLE
  5
50
330
2
100
AcDbSymbolTableRecord
100
AcDbTextStyleTableRecord
  2
Standard
 70
    0
 40
0
 41
1
 50
0
 71
    0
 42
1
  3
txt
  4

  0
ENDTAB
  0
TABLE
  2
VIEW
  5
6
330
0
100
AcDbSymbolTable
 70
    0
  0
ENDTAB
  0
TABLE
  2
UCS
  5
7
330
0
100
AcDbSymbolTable
 70
    0
  0
ENDTAB
  0
TABLE
  2
APPID
  5
9
330
0
100
AcDbSymbolTable
 70
    1
  0
APPID
  5
12
330
9
100
AcDbSymbolTableRecord
100
AcDbRegAppTableRecord
  2
ACAD
 70
    0
  0
APPID
  5
51
330
9
100
AcDbSymbolTableRecord
100
AcDbRegAppTableRecord
  2
LibreCad
 70
    0
  0
ENDTAB
  0
TABLE
  2
DIMSTYLE
  5
A
330
0
100
AcDbSymbolTable
 70
    1
100
AcDbDimStyleTable
 71
    1
  0
DIMSTYLE
105
52
330
A
100
AcDbSymbolTableRecord
100
AcDbDimStyleTableRecord
  2
Standard
 70
    0
 40
0
 41
1
 42
0.625
 43
0.38
 44
1.25
 45
0
 46
0
 47
0
 48
0
 49
1
140
20
141
0.09
142
0
143
25.4
144
1
145
0
146
1
147
8
148
0
 71
    0
 72
    0
 73
    0
 74
    1
 75
    0
 76
    0
 77
    0
 78
    8
 79
    0
170
    0
171
    2
172
    0
173
    0
174
    0
175
    0
176
  256
177
  256
178
  256
179
    0
271
    0
272
    4
273
    2
274
    2
275
    0
276
    0
277
    2
278
   46
279
    0
280
    0
281
    0
282
    0
283
    1
284
    0
285
    0
286
    0
288
    0
289
    3
340
ROMANS
341

371
   -2
372
   -2
  0
ENDTAB
  0
TABLE
  2
BLOCK_RECORD
  5
1
330
0
100
AcDbSymbolTable
 70
    2
  0
BLOCK_RECORD
  5
1F
330
1
100
AcDbSymbolTableRecord
100
AcDbBlockTableRecord
  2
*Model_Space
 70
    0
280
    1
281
    0
  0
BLOCK_RECORD
  5
1E
330
1
100
AcDbSymbolTableRecord
100
AcDbBlockTableRecord
  2
*Paper_Space
 70
    0
280
    1
281
    0
  0
BLOCK_RECORD
  5
53
330
1
100
AcDbSymbolTableRecord
100
AcDbBlockTableRecord
  2
PUNTO
 70
    0
280
    1
281
    0
  0
ENDTAB
  0
ENDSEC
  0
SECTION
  2
BLOCKS
  0
BLOCK
  5
20
330
1F
100
AcDbEntity
  8
0
100
AcDbBlockBegin
  2
*Model_Space
 70
    0
 10
0
 20
0
 30
0
  3
*Model_Space
  1

  0
ENDBLK
  5
21
330
1F
100
AcDbEntity
  8
0
100
AcDbBlockEnd
  0
BLOCK
  5
1C
330
1B
100
AcDbEntity
  8
0
100
AcDbBlockBegin
  2
*Paper_Space
 70
    0
 10
0
 20
0
 30
0
  3
*Paper_Space
  1

  0
ENDBLK
  5
1D
330
1F
100
AcDbEntity
  8
0
100
AcDbBlockEnd
  0
BLOCK
  5
54
330
53
100
AcDbEntity
  8
0
100
AcDbBlockBegin
  2
PUNTO
 70
    0
 10
0
 20
0
  3
PUNTO
  1

  0
LWPOLYLINE
  5
56
100
AcDbEntity
  8
QUOTE
  6
ByLayer
 62
  256
370
   -1
100
AcDbPolyline
 90
    2
 70
    1
 43
0
 10
-1.625
 20
1.018905165185984e-15
 42
0.9999999999999999
 10
1.625
 20
8.597035105583624e-16
 42
0.9999999999999999
  0
LINE
  5
57
100
AcDbEntity
  8
QUOTE
  6
ByLayer
 62
  256
370
   -1
100
AcDbLine
 10
0
 20
-7.5
 11
0
 21
7.5
  0
LINE
  5
58
100
AcDbEntity
  8
QUOTE
  6
ByLayer
 62
  256
370
   -1
100
AcDbLine
 10
-7.5
 20
0
 11
7.5
 21
0
  0
ENDBLK
  5
55
330
53
100
AcDbEntity
  8
0
100
AcDbBlockEnd
  0
ENDSEC
  0
SECTION
  2
ENTITIES
  0
LWPOLYLINE
  5
59
100
AcDbEntity
  8
AREE LEONARDO
  6
ByLayer
 62
    1
370
   -1
100
AcDbPolyline
 90
    4
 70
    1
 43
0
 10
52236.66606426887
 20
3402.727307801353
 10
52296.66606426887
 20
3402.727307801353
 10
52296.66606426887
 20
3342.727307801354
 10
52236.66606426887
 20
3342.727307801354
  0
LWPOLYLINE
  5
5A
100
AcDbEntity
  8
AREE LEONARDO
  6
ByLayer
 62
    1
370
   -1
100
AcDbPolyline
 90
    4
 70
    1
 43
0
 10
52025.41091583379
 20
3402.727307801353
 10
52085.41091583379
 20
3402.727307801353
 10
52085.41091583379
 20
3342.727307801354
 10
52025.41091583379
 20
3342.727307801354
  0
LWPOLYLINE
  5
5B
100
AcDbEntity
  8
AREE LEONARDO
  6
ByLayer
 62
  256
370
   -1
100
AcDbPolyline
 90
   10
 70
    1
 43
0
 10
52183.60384036641
 20
3459.577529610833
 10
52351.60384036639
 20
3459.577529610834
 10
52351.60384036639
 20
3554.577529610833
 10
52832.60384036639
 20
3554.577529610833
 10
52832.60384036639
 20
2597.577529610833
 10
52302.60384036639
 20
2597.577529610833
 10
52302.60384036639
 20
2876.577529610834
 10
52351.60384036639
 20
2876.577529610833
 10
52351.6038403664
 20
3299.577529610834
 10
52183.60384036639
 20
3299.577529610833
  0
LWPOLYLINE
  5
5C
100
AcDbEntity
  8
AREE LEONARDO
  6
ByLayer
 62
  256
370
   -1
100
AcDbPolyline
 90
    6
 70
    1
 43
0
 10
51525.60384036639
 20
3587.577529610833
 10
51728.60384036639
 20
3587.577529610833
 10
51728.60384036639
 20
3459.577529610834
 10
52172.60384036639
 20
3459.577529610833
 10
52172.60384036639
 20
3299.577529610833
 10
51525.60384036639
 20
3299.577529610834
  0
LWPOLYLINE
  5
5D
100
AcDbEntity
  8
AREE LEONARDO
  6
ByLayer
 62
    3
370
   -1
100
AcDbPolyline
 90
    6
 70
    1
 43
0
 10
52372.60384036638
 20
3679.577529610833
 10
52372.60384036638
 20
3599.577529610833
 10
52322.60384036639
 20
3599.577529610833
 10
52322.60384036639
 20
3488.577529610834
 10
52192.60384036639
 20
3488.577529610834
 10
52192.60384036639
 20
3679.577529610833
  0
LWPOLYLINE
  5
5E
100
AcDbEntity
  8
AREE LEONARDO
  6
ByLayer
 62
  256
370
   -1
100
AcDbPolyline
 90
    4
 70
    1
 43
0
 10
53262.60384036639
 20
2745.577529610833
 10
52856.60384036639
 20
2745.577529610833
 10
52856.60384036639
 20
3333.577529610832
 10
53262.60384036639
 20
3333.577529610832
  0
LWPOLYLINE
  5
5F
100
AcDbEntity
  8
AREE LEONARDO
  6
ByLayer
 62
    3
370
   -1
100
AcDbPolyline
 90
    4
 70
    1
 43
0
 10
52282.60384036639
 20
2597.577529610833
 10
52092.6038403664
 20
2597.577529610833
 10
52092.6038403664
 20
2876.577529610833
 10
52282.60384036639
 20
2876.577529610833
  0
LWPOLYLINE
  5
60
100
AcDbEntity
  8
AREE LEONARDO
  6
ByLayer
 62
  256
370
   -1
100
AcDbPolyline
 90
    4
 70
    1
 43
0
 10
52322.60384036639
 20
2886.577529610834
 10
51892.60384036639
 20
2886.577529610834
 10
51892.60384036639
 20
3288.577529610833
 10
52322.60384036639
 20
3288.577529610833
  0
LWPOLYLINE
  5
61
100
AcDbEntity
  8
AREE LEONARDO
  6
ByLayer
 62
    3
370
   -1
100
AcDbPolyline
 90
    4
 70
    1
 43
0
 10
51282.60384036638
 20
2886.577529610833
 10
51502.60384036639
 20
2886.577529610833
 10
51502.60384036639
 20
3100.536649968817
 10
51282.60384036638
 20
3100.536649968817
  0
LWPOLYLINE
  5
62
100
AcDbEntity
  8
AREE LEONARDO
  6
ByLayer
 62
    3
370
   -1
100
AcDbPolyline
 90
    4
 70
    1
 43
0
 10
51502.60384036639
 20
3334.495770326801
 10
51282.60384036638
 20
3334.495770326801
 10
51282.60384036638
 20
3120.536649968816
 10
51502.60384036639
 20
3120.536649968816
  0
LWPOLYLINE
  5
63
100
AcDbEntity
  8
AREE LEONARDO
  6
ByLayer
 62
    3
370
   -1
100
AcDbPolyline
 90
    4
 70
    1
 43
0
 10
52372.60384036638
 20
3692.577529610833
 10
52192.60384036639
 20
3692.577529610833
 10
52192.60384036639
 20
3888.577529610834
 10
52372.60384036638
 20
3888.577529610834
  0
LWPOLYLINE
  5
64
100
AcDbEntity
  8
AREE LEONARDO
  6
ByLayer
 62
  256
370
   -1
100
AcDbPolyline
 90
    4
 70
    1
 43
0
 10
51752.60384036639
 20
3488.577529610834
 10
52172.60384036639
 20
3488.577529610834
 10
52172.60384036639
 20
3888.577529610834
 10
51752.60384036639
 20
3888.577529610834
  0
LWPOLYLINE
  5
65
100
AcDbEntity
  8
AREE LEONARDO
  6
ByLayer
 62
    3
370
   -1
100
AcDbPolyline
 90
    4
 70
    1
 43
0
 10
51515.60384036639
 20
3613.577529610834
 10
51728.60384036639
 20
3613.577529610834
 10
51728.60384036639
 20
3888.577529610834
 10
51515.60384036639
 20
3888.577529610834
  0
LWPOLYLINE
  5
66
100
AcDbEntity
  8
AREE LEONARDO
  6
ByLayer
 62
    3
370
   -1
100
AcDbPolyline
 90
    4
 70
    1
 43
0
 10
51282.60384036638
 20
3888.577529610834
 10
51498.60384036639
 20
3888.577529610834
 10
51498.60384036639
 20
3613.577529610831
 10
51282.60384036638
 20
3613.577529610831
  0
TEXT
  5
67
100
AcDbEntity
  8
TESTI
  6
ByLayer
 62
  256
370
   -1
100
AcDbText
 10
52473.74961308356
 20
2720.054271207075
 30
0
 40
20
  1
ingresso
 50
0
 41
1
 51
0
  7
romans
 71
    0
 72
    1
 11
52473.74961308356
 21
2720.054271207075
 31
0
210
0
220
0
230
1
100
AcDbText
  0
LINE
  5
68
100
AcDbEntity
  8
sezioni
  6
ByLayer
 62
  256
370
   -1
100
AcDbLine
 10
53252.60384036639
 20
3343.577529610833
 11
53252.60384036639
 21
3333.577529610832
  0
LINE
  5
69
100
AcDbEntity
  8
sezioni
  6
ByLayer
 62
  256
370
   -1
100
AcDbLine
 10
53172.60384036639
 20
3343.577529610833
 11
53172.60384036639
 21
3333.577529610832
  0
LINE
  5
6A
100
AcDbEntity
  8
sezioni
  6
ByLayer
 62
  256
370
   -1
100
AcDbLine
 10
53252.60384036639
 20
3343.577529610833
 11
53262.60384036639
 21
3343.577529610833
  0
LINE
  5
6B
100
AcDbEntity
  8
sezioni
  6
ByLayer
 62
  256
370
   -1
100
AcDbLine
 10
52856.60384036637
 20
3343.577529610832
 11
53172.60384036639
 21
3343.577529610833
  0
LINE
  5
6C
100
AcDbEntity
  8
sezioni
  6
ByLayer
 62
  256
370
   -1
100
AcDbLine
 10
53252.60384036639
 20
3333.577529610832
 11
53262.60384036639
 21
3333.577529610833
  0
LINE
  5
6D
100
AcDbEntity
  8
sezioni
  6
ByLayer
 62
  256
370
   -1
100
AcDbLine
 10
52856.60384036639
 20
3333.577529610832
 11
53172.60384036639
 21
3333.577529610832
  0
TEXT
  5
6E
100
AcDbEntity
  8
TESTI
  6
ByLayer
 62
  256
370
   -1
100
AcDbText
 10
52183.78747432307
 20
2667.163296527419
 30
0
 40
20
  1
bagno
 50
0
 41
1
 51
0
  7
romans
 71
    0
 72
    1
 11
52183.78747432307
 21
2667.163296527419
 31
0
210
0
220
0
230
1
100
AcDbText
  0
TEXT
  5
6F
100
AcDbEntity
  8
TESTI
  6
ByLayer
 62
  256
370
   -1
100
AcDbText
 10
52183.78747432307
 20
2633.55967004248
 30
0
 40
20
  1
mq. 5.30
 50
0
 41
1
 51
0
  7
romans
 71
    0
 72
    1
 11
52183.78747432307
 21
2633.55967004248
 31
0
210
0
220
0
230
1
100
AcDbText
  0
LINE
  5
70
100
AcDbEntity
  8
sezioni
  6
ByLayer
 62
  256
370
   -1
100
AcDbLine
 10
52302.60384036639
 20
2876.577529610833
 11
52351.60384036639
 21
2876.577529610833
  0
LINE
  5
71
100
AcDbEntity
  8
sezioni
  6
ByLayer
 62
  256
370
   -1
100
AcDbLine
 10
52042.60384036639
 20
2886.577529610833
 11
52102.60384036638
 21
2886.577529610833
  0
LINE
  5
72
100
AcDbEntity
  8
sezioni
  6
ByLayer
 62
  256
370
   -1
100
AcDbLine
 10
52182.60384036638
 20
2886.577529610834
 11
52182.60384036638
 21
2876.577529610833
  0
LINE
  5
73
100
AcDbEntity
  8
sezioni
  6
ByLayer
 62
  256
370
   -1
100
AcDbLine
 10
52102.60384036638
 20
2886.577529610833
 11
52102.60384036638
 21
2876.577529610833
  0
LINE
  5
74
100
AcDbEntity
  8
sezioni
  6
ByLayer
 62
  256
370
   -1
100
AcDbLine
 10
52282.60384036639
 20
2597.577529610833
 11
52282.60384036639
 21
2876.577529610833
  0
LINE
  5
75
100
AcDbEntity
  8
sezioni
  6
ByLayer
 62
  256
370
   -1
100
AcDbLine
 10
52302.60384036639
 20
2597.577529610833
 11
52302.60384036639
 21
2876.577529610834
  0
LINE
  5
76
100
AcDbEntity
  8
sezioni
  6
ByLayer
 62
  256
370
   -1
100
AcDbLine
 10
52182.60384036638
 20
2876.577529610833
 11
52282.60384036639
 21
2876.577529610833
  0
LINE
  5
77
100
AcDbEntity
  8
sezioni
  6
ByLayer
 62
  256
370
   -1
100
AcDbLine
 10
52092.6038403664
 20
2876.577529610833
 11
52102.60384036638
 21
2876.577529610833
  0
LINE
  5
78
100
AcDbEntity
  8
sezioni
  6
ByLayer
 62
  256
370
   -1
100
AcDbLine
 10
52182.60384036638
 20
2886.577529610833
 11
52322.60384036639
 21
2886.577529610834
  0
TEXT
  5
79
100
AcDbEntity
  8
TESTI
  6
ByLayer
 62
  256
370
   -1
100
AcDbText
 10
51394.42263971316
 20
2977.80407144253
 30
0
 40
20
  1
bagno
 50
0
 41
1
 51
0
  7
romans
 71
    0
 72
    1
 11
51394.42263971316
 21
2977.80407144253
 31
0
210
0
220
0
230
1
100
AcDbText
  0
TEXT
  5
7A
100
AcDbEntity
  8
TESTI
  6
ByLayer
 62
  256
370
   -1
100
AcDbText
 10
51394.42263971316
 20
2944.200444957591
 30
0
 40
20
  1
mq. 4.71
 50
0
 41
1
 51
0
  7
romans
 71
    0
 72
    1
 11
51394.42263971316
 21
2944.200444957591
 31
0
210
0
220
0
230
1
100
AcDbText
  0
TEXT
  5
7B
100
AcDbEntity
  8
TESTI
  6
ByLayer
 62
  256
370
   -1
100
AcDbText
 10
51394.42263971316
 20
3245.780632365626
 30
0
 40
20
  1
bagno
 50
0
 41
1
 51
0
  7
romans
 71
    0
 72
    1
 11
51394.42263971316
 21
3245.780632365626
 31
0
210
0
220
0
230
1
100
AcDbText
  0
TEXT
  5
7C
100
AcDbEntity
  8
TESTI
  6
ByLayer
 62
  256
370
   -1
100
AcDbText
 10
51394.42263971316
 20
3212.177005880687
 30
0
 40
20
  1
mq. 4.71
 50
0
 41
1
 51
0
  7
romans
 71
    0
 72
    1
 11
51394.42263971316
 21
3212.177005880687
 31
0
210
0
220
0
230
1
100
AcDbText
  0
LINE
  5
7D
100
AcDbEntity
  8
sezioni
  6
ByLayer
 62
  256
370
   -1
100
AcDbLine
 10
51502.60384036639
 20
3120.536649968817
 11
51282.60384036638
 21
3120.536649968816
  0
LINE
  5
7E
100
AcDbEntity
  8
sezioni
  6
ByLayer
 62
  256
370
   -1
100
AcDbLine
 10
51502.60384036639
 20
3100.536649968817
 11
51282.60384036638
 21
3100.536649968817
  0
LINE
  5
7F
100
AcDbEntity
  8
sezioni
  6
ByLayer
 62
  256
370
   -1
100
AcDbLine
 10
51282.60384036638
 20
3334.4957703268
 11
51502.60384036639
 21
3334.495770326801
  0
LINE
  5
80
100
AcDbEntity
  8
sezioni
  6
ByLayer
 62
  256
370
   -1
100
AcDbLine
 10
51259.6038403664
 20
3356.577529610833
 11
51513.60384036639
 21
3356.577529610832
  0
LINE
  5
81
100
AcDbEntity
  8
sezioni
  6
ByLayer
 62
  256
370
   -1
100
AcDbLine
 10
51525.60384036639
 20
3130.536649968817
 11
51502.60384036639
 21
3130.536649968817
  0
LINE
  5
82
100
AcDbEntity
  8
sezioni
  6
ByLayer
 62
  256
370
   -1
100
AcDbLine
 10
51525.60384036639
 20
3200.536649968817
 11
51502.60384036639
 21
3200.536649968817
  0
LINE
  5
83
100
AcDbEntity
  8
sezioni
  6
ByLayer
 62
  256
370
   -1
100
AcDbLine
 10
51259.60384036639
 20
3090.536649968817
 11
51282.60384036638
 21
3090.536649968817
  0
LINE
  5
84
100
AcDbEntity
  8
sezioni
  6
ByLayer
 62
  256
370
   -1
100
AcDbLine
 10
51259.60384036639
 20
3020.536649968818
 11
51282.60384036638
 21
3020.536649968817
  0
LINE
  5
85
100
AcDbEntity
  8
sezioni
  6
ByLayer
 62
  256
370
   -1
100
AcDbLine
 10
51292.6038403664
 20
3613.577529610834
 11
51292.60384036641
 21
3587.577529610833
  0
LINE
  5
86
100
AcDbEntity
  8
sezioni
  6
ByLayer
 62
  256
370
   -1
100
AcDbLine
 10
51362.60384036639
 20
3613.577529610834
 11
51362.6038403664
 21
3587.577529610833
  0
LINE
  5
87
100
AcDbEntity
  8
sezioni
  6
ByLayer
 62
  256
370
   -1
100
AcDbLine
 10
51362.6038403664
 20
3587.577529610833
 11
51513.60384036639
 21
3587.577529610833
  0
LINE
  5
88
100
AcDbEntity
  8
sezioni
  6
ByLayer
 62
  256
370
   -1
100
AcDbLine
 10
51259.60384036639
 20
3587.577529610833
 11
51292.60384036641
 21
3587.577529610833
  0
TEXT
  5
89
100
AcDbEntity
  8
TESTI
  6
ByLayer
 62
  256
370
   -1
100
AcDbText
 10
53024.48835269584
 20
3073.607225976593
 30
0
 40
20
  1
mq. 23.87
 50
0
 41
1
 51
0
  7
romans
 71
    0
 72
    1
 11
53024.48835269584
 21
3073.607225976593
 31
0
210
0
220
0
230
1
100
AcDbText
  0
TEXT
  5
8A
100
AcDbEntity
  8
TESTI
  6
ByLayer
 62
  256
370
   -1
100
AcDbText
 10
53063.38638941409
 20
3475.327769632801
 30
0
 40
20
  1
cucina
 50
0
 41
1
 51
0
  7
romans
 71
    0
 72
    1
 11
53063.38638941409
 21
3475.327769632801
 31
0
210
0
220
0
230
1
100
AcDbText
  0
TEXT
  5
8B
100
AcDbEntity
  8
TESTI
  6
ByLayer
 62
  256
370
   -1
100
AcDbText
 10
53063.38638941409
 20
3441.724143147862
 30
0
 40
20
  1
mq. 9.01
 50
0
 41
1
 51
0
  7
romans
 71
    0
 72
    1
 11
53063.38638941409
 21
3441.724143147862
 31
0
210
0
220
0
230
1
100
AcDbText
  0
TEXT
  5
8C
100
AcDbEntity
  8
TESTI
  6
ByLayer
 62
  256
370
   -1
100
AcDbText
 10
52044.99495963939
 20
3105.99479265757
 30
0
 40
20
  1
camera
 50
0
 41
1
 51
0
  7
romans
 71
    0
 72
    1
 11
52044.99495963939
 21
3105.99479265757
 31
0
210
0
220
0
230
1
100
AcDbText
  0
TEXT
  5
8D
100
AcDbEntity
  8
TESTI
  6
ByLayer
 62
  256
370
   -1
100
AcDbText
 10
52044.99495963939
 20
3072.391166172631
 30
0
 40
20
  1
mq. 17.28
 50
0
 41
1
 51
0
  7
romans
 71
    0
 72
    1
 11
52044.99495963939
 21
3072.391166172631
 31
0
210
0
220
0
230
1
100
AcDbText
  0
TEXT
  5
8E
100
AcDbEntity
  8
TESTI
  6
ByLayer
 62
  256
370
   -1
100
AcDbText
 10
52257.12380973192
 20
3615.069882257973
 30
0
 40
20
  1
anti
 50
0
 41
1
 51
0
  7
romans
 71
    0
 72
    1
 11
52257.12380973192
 21
3615.069882257973
 31
0
210
0
220
0
230
1
100
AcDbText
  0
TEXT
  5
8F
100
AcDbEntity
  8
TESTI
  6
ByLayer
 62
  256
370
   -1
100
AcDbText
 10
52257.12380973192
 20
3581.466255773034
 30
0
 40
20
  1
mq. 2.88
 50
0
 41
1
 51
0
  7
romans
 71
    0
 72
    1
 11
52257.12380973192
 21
3581.466255773034
 31
0
210
0
220
0
230
1
100
AcDbText
  0
TEXT
  5
90
100
AcDbEntity
  8
TESTI
  6
ByLayer
 62
  256
370
   -1
100
AcDbText
 10
52282.89772586304
 20
3760.701553856794
 30
0
 40
20
  1
s.i.
 50
0
 41
1
 51
0
  7
romans
 71
    0
 72
    1
 11
52282.89772586304
 21
3760.701553856794
 31
0
210
0
220
0
230
1
100
AcDbText
  0
TEXT
  5
91
100
AcDbEntity
  8
TESTI
  6
ByLayer
 62
  256
370
   -1
100
AcDbText
 10
52282.89772586304
 20
3727.097927371855
 30
0
 40
20
  1
mq. 3.52
 50
0
 41
1
 51
0
  7
romans
 71
    0
 72
    1
 11
52282.89772586304
 21
3727.097927371855
 31
0
210
0
220
0
230
1
100
AcDbText
  0
TEXT
  5
92
100
AcDbEntity
  8
TESTI
  6
ByLayer
 62
  256
370
   -1
100
AcDbText
 10
51616.83371997881
 20
3822.450922644072
 30
0
 40
20
  1
bagno
 50
0
 41
1
 51
0
  7
romans
 71
    0
 72
    1
 11
51616.83371997881
 21
3822.450922644072
 31
0
210
0
220
0
230
1
100
AcDbText
  0
TEXT
  5
93
100
AcDbEntity
  8
TESTI
  6
ByLayer
 62
  256
370
   -1
100
AcDbText
 10
51616.83371997881
 20
3788.847296159133
 30
0
 40
20
  1
mq. 5.86
 50
0
 41
1
 51
0
  7
romans
 71
    0
 72
    1
 11
51616.83371997881
 21
3788.847296159133
 31
0
210
0
220
0
230
1
100
AcDbText
  0
TEXT
  5
94
100
AcDbEntity
  8
TESTI
  6
ByLayer
 62
  256
370
   -1
100
AcDbText
 10
51394.42263971316
 20
3779.618267936065
 30
0
 40
20
  1
bagno
 50
0
 41
1
 51
0
  7
romans
 71
    0
 72
    1
 11
51394.42263971316
 21
3779.618267936065
 31
0
210
0
220
0
230
1
100
AcDbText
  0
TEXT
  5
95
100
AcDbEntity
  8
TESTI
  6
ByLayer
 62
  256
370
   -1
100
AcDbText
 10
51394.42263971316
 20
3746.014641451126
 30
0
 40
20
  1
mq. 5.94
 50
0
 41
1
 51
0
  7
romans
 71
    0
 72
    1
 11
51394.42263971316
 21
3746.014641451126
 31
0
210
0
220
0
230
1
100
AcDbText
  0
TEXT
  5
96
100
AcDbEntity
  8
TESTI
  6
ByLayer
 62
  256
370
   -1
100
AcDbText
 10
51052.67043136456
 20
3646.558615218383
 30
0
 40
20
  1
camera
 50
0
 41
1
 51
0
  7
romans
 71
    0
 72
    1
 11
51052.67043136456
 21
3646.558615218383
 31
0
210
0
220
0
230
1
100
AcDbText
  0
TEXT
  5
97
100
AcDbEntity
  8
TESTI
  6
ByLayer
 62
  256
370
   -1
100
AcDbText
 10
51052.67043136456
 20
3612.954988733444
 30
0
 40
20
  1
mq. 19.23
 50
0
 41
1
 51
0
  7
romans
 71
    0
 72
    1
 11
51052.67043136456
 21
3612.954988733444
 31
0
210
0
220
0
230
1
100
AcDbText
  0
TEXT
  5
98
100
AcDbEntity
  8
TESTI
  6
ByLayer
 62
  256
370
   -1
100
AcDbText
 10
51883.54378203023
 20
3697.653081635246
 30
0
 40
20
  1
camera
 50
0
 41
1
 51
0
  7
romans
 71
    0
 72
    1
 11
51883.54378203023
 21
3697.653081635246
 31
0
210
0
220
0
230
1
100
AcDbText
  0
TEXT
  5
99
100
AcDbEntity
  8
TESTI
  6
ByLayer
 62
  256
370
   -1
100
AcDbText
 10
51883.54378203023
 20
3664.049455150307
 30
0
 40
20
  1
mq. 16.80
 50
0
 41
1
 51
0
  7
romans
 71
    0
 72
    1
 11
51883.54378203023
 21
3664.049455150307
 31
0
210
0
220
0
230
1
100
AcDbText
  0
TEXT
  5
9A
100
AcDbEntity
  8
TESTI
  6
ByLayer
 62
  256
370
   -1
100
AcDbText
 10
51692.41717873596
 20
3185.068114093097
 30
0
 40
20
  1
camera
 50
0
 41
1
 51
0
  7
romans
 71
    0
 72
    1
 11
51692.41717873596
 21
3185.068114093097
 31
0
210
0
220
0
230
1
100
AcDbText
  0
TEXT
  5
9B
100
AcDbEntity
  8
TESTI
  6
ByLayer
 62
  256
370
   -1
100
AcDbText
 10
51692.41717873596
 20
3151.464487608159
 30
0
 40
20
  1
mq. 14.00
 50
0
 41
1
 51
0
  7
romans
 71
    0
 72
    1
 11
51692.41717873596
 21
3151.464487608159
 31
0
210
0
220
0
230
1
100
AcDbText
  0
TEXT
  5
9C
100
AcDbEntity
  8
TESTI
  6
ByLayer
 62
  256
370
   -1
100
AcDbText
 10
51120.67213248217
 20
3298.248744550626
 30
0
 40
20
  1
camera
 50
0
 41
1
 51
0
  7
romans
 71
    0
 72
    1
 11
51120.67213248217
 21
3298.248744550626
 31
0
210
0
220
0
230
1
100
AcDbText
  0
TEXT
  5
9D
100
AcDbEntity
  8
TESTI
  6
ByLayer
 62
  256
370
   -1
100
AcDbText
 10
51120.67213248217
 20
3264.645118065688
 30
0
 40
20
  1
mq. 21.43
 50
0
 41
1
 51
0
  7
romans
 71
    0
 72
    1
 11
51120.67213248217
 21
3264.645118065688
 31
0
210
0
220
0
230
1
100
AcDbText
  0
LINE
  5
9E
100
AcDbEntity
  8
sezioni
  6
ByLayer
 62
    1
370
   -1
100
AcDbLine
 10
50787.60384036639
 20
3255.577529610833
 11
50819.60384036639
 21
3233.577529610833
  0
LWPOLYLINE
  5
9F
100
AcDbEntity
  8
sezioni
  6
ByLayer
 62
    1
370
   -1
100
AcDbPolyline
 90
    4
 70
    1
 43
0
 10
50787.60384036639
 20
3233.577529610833
 10
50787.60384036639
 20
3255.577529610833
 10
50819.60384036639
 20
3255.577529610833
 10
50819.60384036639
 20
3233.577529610833
  0
LWPOLYLINE
  5
A0
100
AcDbEntity
  8
sezioni
  6
ByLayer
 62
    1
370
   -1
100
AcDbPolyline
 90
    4
 70
    1
 43
0
 10
50783.60384036639
 20
3229.577529610833
 10
50783.60384036639
 20
3259.577529610833
 10
50823.60384036639
 20
3259.577529610833
 10
50823.60384036639
 20
3229.577529610833
  0
LINE
  5
A1
100
AcDbEntity
  8
sezioni
  6
ByLayer
 62
    1
370
   -1
100
AcDbLine
 10
50787.60384036639
 20
3225.577529610833
 11
50819.60384036639
 21
3203.577529610833
  0
LWPOLYLINE
  5
A2
100
AcDbEntity
  8
sezioni
  6
ByLayer
 62
    1
370
   -1
100
AcDbPolyline
 90
    4
 70
    1
 43
0
 10
50787.60384036639
 20
3203.577529610833
 10
50787.60384036639
 20
3225.577529610833
 10
50819.60384036639
 20
3225.577529610833
 10
50819.60384036639
 20
3203.577529610833
  0
LWPOLYLINE
  5
A3
100
AcDbEntity
  8
sezioni
  6
ByLayer
 62
    1
370
   -1
100
AcDbPolyline
 90
    4
 70
    1
 43
0
 10
50783.60384036639
 20
3199.577529610833
 10
50783.60384036639
 20
3229.577529610833
 10
50823.60384036639
 20
3229.577529610833
 10
50823.60384036639
 20
3199.577529610833
  0
LINE
  5
A4
100
AcDbEntity
  8
sezioni
  6
ByLayer
 62
    1
370
   -1
100
AcDbLine
 10
53315.60384036639
 20
3143.577529610833
 11
53283.60384036639
 21
3165.577529610833
  0
LWPOLYLINE
  5
A5
100
AcDbEntity
  8
sezioni
  6
ByLayer
 62
    1
370
   -1
100
AcDbPolyline
 90
    4
 70
    1
 43
0
 10
53315.60384036639
 20
3165.577529610833
 10
53315.60384036639
 20
3143.577529610833
 10
53283.60384036639
 20
3143.577529610833
 10
53283.60384036639
 20
3165.577529610833
  0
LWPOLYLINE
  5
A6
100
AcDbEntity
  8
sezioni
  6
ByLayer
 62
    1
370
   -1
100
AcDbPolyline
 90
    4
 70
    1
 43
0
 10
53319.60384036639
 20
3169.577529610834
 10
53319.60384036639
 20
3139.577529610833
 10
53279.60384036639
 20
3139.577529610833
 10
53279.60384036639
 20
3169.577529610834
  0
LINE
  5
A7
100
AcDbEntity
  8
sezioni
  6
ByLayer
 62
    1
370
   -1
100
AcDbLine
 10
52189.60384036638
 20
3941.577529610833
 11
52167.60384036638
 21
3909.577529610834
  0
LWPOLYLINE
  5
A8
100
AcDbEntity
  8
sezioni
  6
ByLayer
 62
    1
370
   -1
100
AcDbPolyline
 90
    4
 70
    1
 43
0
 10
52167.60384036638
 20
3941.577529610833
 10
52189.60384036638
 20
3941.577529610833
 10
52189.60384036638
 20
3909.577529610834
 10
52167.60384036638
 20
3909.577529610834
  0
LWPOLYLINE
  5
A9
100
AcDbEntity
  8
sezioni
  6
ByLayer
 62
    1
370
   -1
100
AcDbPolyline
 90
    4
 70
    1
 43
0
 10
52163.60384036638
 20
3945.577529610833
 10
52193.60384036638
 20
3945.577529610833
 10
52193.60384036638
 20
3905.577529610833
 10
52163.60384036638
 20
3905.577529610833
  0
LINE
  5
AA
100
AcDbEntity
  8
sezioni
  6
ByLayer
 62
    1
370
   -1
100
AcDbLine
 10
52159.60384036638
 20
3941.577529610833
 11
52137.60384036638
 21
3909.577529610834
  0
LWPOLYLINE
  5
AB
100
AcDbEntity
  8
sezioni
  6
ByLayer
 62
    1
370
   -1
100
AcDbPolyline
 90
    4
 70
    1
 43
0
 10
52137.60384036638
 20
3941.577529610833
 10
52159.60384036638
 20
3941.577529610833
 10
52159.60384036638
 20
3909.577529610834
 10
52137.60384036638
 20
3909.577529610834
  0
LWPOLYLINE
  5
AC
100
AcDbEntity
  8
sezioni
  6
ByLayer
 62
    1
370
   -1
100
AcDbPolyline
 90
    4
 70
    1
 43
0
 10
52133.60384036638
 20
3945.577529610833
 10
52163.60384036638
 20
3945.577529610833
 10
52163.60384036638
 20
3905.577529610833
 10
52133.60384036638
 20
3905.577529610833
  0
LINE
  5
AD
100
AcDbEntity
  8
sezioni
  6
ByLayer
 62
    1
370
   -1
100
AcDbLine
 10
51054.60384036638
 20
3941.577529610833
 11
51032.60384036638
 21
3909.577529610834
  0
LWPOLYLINE
  5
AE
100
AcDbEntity
  8
sezioni
  6
ByLayer
 62
    1
370
   -1
100
AcDbPolyline
 90
    4
 70
    1
 43
0
 10
51032.60384036638
 20
3941.577529610833
 10
51054.60384036638
 20
3941.577529610833
 10
51054.60384036638
 20
3909.577529610834
 10
51032.60384036638
 20
3909.577529610834
  0
LWPOLYLINE
  5
AF
100
AcDbEntity
  8
sezioni
  6
ByLayer
 62
    1
370
   -1
100
AcDbPolyline
 90
    4
 70
    1
 43
0
 10
51028.60384036638
 20
3945.577529610833
 10
51058.60384036638
 20
3945.577529610833
 10
51058.60384036638
 20
3905.577529610833
 10
51028.60384036638
 20
3905.577529610833
  0
LINE
  5
B0
100
AcDbEntity
  8
sezioni
  6
ByLayer
 62
    1
370
   -1
100
AcDbLine
 10
51024.60384036638
 20
3941.577529610833
 11
51002.60384036638
 21
3909.577529610834
  0
LWPOLYLINE
  5
B1
100
AcDbEntity
  8
sezioni
  6
ByLayer
 62
    1
370
   -1
100
AcDbPolyline
 90
    4
 70
    1
 43
0
 10
51002.60384036638
 20
3941.577529610833
 10
51024.60384036638
 20
3941.577529610833
 10
51024.60384036638
 20
3909.577529610834
 10
51002.60384036638
 20
3909.577529610834
  0
LWPOLYLINE
  5
B2
100
AcDbEntity
  8
sezioni
  6
ByLayer
 62
    1
370
   -1
100
AcDbPolyline
 90
    4
 70
    1
 43
0
 10
50998.60384036638
 20
3945.577529610833
 10
51028.60384036638
 20
3945.577529610833
 10
51028.60384036638
 20
3905.577529610833
 10
50998.60384036638
 20
3905.577529610833
  0
LWPOLYLINE
  5
B3
100
AcDbEntity
  8
SCALE-PORTE-FINESTRE
  6
ByLayer
 62
  256
370
   -1
100
AcDbPolyline
 90
    4
 70
    1
 43
0
 10
52699.60384036639
 20
3586.577529610826
 10
52694.60384036639
 20
3586.577529610826
 10
52694.60384036639
 20
3567.577529610826
 10
52699.60384036639
 20
3567.577529610826
  0
LINE
  5
B4
100
AcDbEntity
  8
SCALE-PORTE-FINESTRE
  6
ByLayer
 62
  256
370
   -1
100
AcDbLine
 10
52490.60384036638
 20
3554.577529610833
 11
52699.60384036638
 21
3554.577529610833
  0
LINE
  5
B5
100
AcDbEntity
  8
SCALE-PORTE-FINESTRE
  6
ByLayer
 62
    7
370
   -1
100
AcDbLine
 10
52850.60384036639
 20
3714.577529610834
 11
52850.60384036639
 21
3594.577529610833
  0
LINE
  5
B6
100
AcDbEntity
  8
SCALE-PORTE-FINESTRE
  6
ByLayer
 62
    7
370
   -1
100
AcDbLine
 10
52878.60384036639
 20
3714.577529610834
 11
52878.60384036639
 21
3594.577529610833
  0
LINE
  5
B7
100
AcDbEntity
  8
SCALE-PORTE-FINESTRE
  6
ByLayer
 62
    7
370
   -1
100
AcDbLine
 10
52906.60384036639
 20
3714.577529610834
 11
52906.60384036639
 21
3594.577529610833
  0
LINE
  5
B8
100
AcDbEntity
  8
SCALE-PORTE-FINESTRE
  6
ByLayer
 62
    7
370
   -1
100
AcDbLine
 10
52934.60384036639
 20
3714.577529610834
 11
52934.60384036639
 21
3594.577529610833
  0
LINE
  5
B9
100
AcDbEntity
  8
SCALE-PORTE-FINESTRE
  6
ByLayer
 62
    7
370
   -1
100
AcDbLine
 10
52962.60384036639
 20
3714.577529610834
 11
52962.60384036639
 21
3594.577529610833
  0
LINE
  5
BA
100
AcDbEntity
  8
SCALE-PORTE-FINESTRE
  6
ByLayer
 62
    7
370
   -1
100
AcDbLine
 10
52990.60384036639
 20
3714.577529610834
 11
52990.60384036639
 21
3594.577529610833
  0
LINE
  5
BB
100
AcDbEntity
  8
SCALE-PORTE-FINESTRE
  6
ByLayer
 62
    7
370
   -1
100
AcDbLine
 10
53018.60384036639
 20
3714.577529610834
 11
53018.60384036639
 21
3594.577529610833
  0
LINE
  5
BC
100
AcDbEntity
  8
SCALE-PORTE-FINESTRE
  6
ByLayer
 62
    7
370
   -1
100
AcDbLine
 10
53046.60384036639
 20
3714.577529610834
 11
53046.60384036639
 21
3594.577529610833
  0
LINE
  5
BD
100
AcDbEntity
  8
SCALE-PORTE-FINESTRE
  6
ByLayer
 62
  256
370
   -1
100
AcDbLine
 10
52699.60384036639
 20
3597.577529610833
 11
52699.60384036638
 21
3554.577529610833
  0
LINE
  5
BE
100
AcDbEntity
  8
sezioni
  6
ByLayer
 62
  256
370
   -1
100
AcDbLine
 10
52832.60384036638
 20
3453.577529610833
 11
52856.60384036638
 21
3453.577529610833
  0
LINE
  5
BF
100
AcDbEntity
  8
sezioni
  6
ByLayer
 62
  256
370
   -1
100
AcDbLine
 10
52832.60384036638
 20
3533.577529610833
 11
52856.60384036638
 21
3533.577529610833
  0
LINE
  5
C0
100
AcDbEntity
  8
sezioni
  6
ByLayer
 62
  256
370
   -1
100
AcDbLine
 10
50986.60384036639
 20
3957.577529610833
 11
50986.60384036639
 21
3931.577529610834
  0
LINE
  5
C1
100
AcDbEntity
  8
sezioni
  6
ByLayer
 62
  256
370
   -1
100
AcDbLine
 10
51070.60384036639
 20
3957.577529610833
 11
50986.60384036639
 21
3957.577529610833
  0
LINE
  5
C2
100
AcDbEntity
  8
sezioni
  6
ByLayer
 62
  256
370
   -1
100
AcDbLine
 10
51070.60384036639
 20
3931.577529610834
 11
51070.60384036639
 21
3957.577529610833
  0
LINE
  5
C3
100
AcDbEntity
  8
sezioni
  6
ByLayer
 62
    1
370
   -1
100
AcDbLine
 10
51528.60384036639
 20
3917.577529610833
 11
51516.60384036639
 21
3905.577529610833
  0
LWPOLYLINE
  5
C4
100
AcDbEntity
  8
sezioni
  6
ByLayer
 62
    1
370
   -1
100
AcDbPolyline
 90
    4
 70
    1
 43
0
 10
51516.60384036639
 20
3917.577529610833
 10
51516.60384036639
 20
3905.577529610833
 10
51528.60384036639
 20
3905.577529610833
 10
51528.60384036639
 20
3917.577529610833
  0
LWPOLYLINE
  5
C5
100
AcDbEntity
  8
sezioni
  6
ByLayer
 62
    1
370
   -1
100
AcDbPolyline
 90
    4
 70
    1
 43
0
 10
51512.60384036639
 20
3921.577529610834
 10
51512.60384036639
 20
3898.577529610833
 10
51532.60384036639
 20
3898.577529610833
 10
51532.60384036639
 20
3921.577529610834
  0
LINE
  5
C6
100
AcDbEntity
  8
sezioni
  6
ByLayer
 62
    1
370
   -1
100
AcDbLine
 10
51508.60384036639
 20
3917.577529610833
 11
51496.60384036639
 21
3905.577529610833
  0
LWPOLYLINE
  5
C7
100
AcDbEntity
  8
sezioni
  6
ByLayer
 62
    1
370
   -1
100
AcDbPolyline
 90
    4
 70
    1
 43
0
 10
51496.60384036639
 20
3917.577529610833
 10
51496.60384036639
 20
3905.577529610833
 10
51508.60384036639
 20
3905.577529610833
 10
51508.60384036639
 20
3917.577529610833
  0
LWPOLYLINE
  5
C8
100
AcDbEntity
  8
sezioni
  6
ByLayer
 62
    1
370
   -1
100
AcDbPolyline
 90
    4
 70
    1
 43
0
 10
51492.60384036639
 20
3921.577529610834
 10
51492.60384036639
 20
3898.577529610833
 10
51512.60384036639
 20
3898.577529610833
 10
51512.60384036639
 20
3921.577529610834
  0
LINE
  5
C9
100
AcDbEntity
  8
sezioni
  6
ByLayer
 62
    1
370
   -1
100
AcDbLine
 10
51498.60384036639
 20
2870.577529610833
 11
51486.60384036639
 21
2858.577529610833
  0
LINE
  5
CA
100
AcDbEntity
  8
sezioni
  6
ByLayer
 62
  256
370
   -1
100
AcDbLine
 10
52832.60384036639
 20
2975.577529610833
 11
52856.60384036639
 21
2975.577529610833
  0
LINE
  5
CB
100
AcDbEntity
  8
sezioni
  6
ByLayer
 62
  256
370
   -1
100
AcDbLine
 10
52832.60384036639
 20
3055.577529610833
 11
52856.60384036639
 21
3055.577529610833
  0
LINE
  5
CC
100
AcDbEntity
  8
sezioni
  6
ByLayer
 62
  256
370
   -1
100
AcDbLine
 10
52290.60384036639
 20
3459.577529610834
 11
52290.60384036639
 21
3488.577529610834
  0
LINE
  5
CD
100
AcDbEntity
  8
sezioni
  6
ByLayer
 62
  256
370
   -1
100
AcDbLine
 10
52220.60384036639
 20
3459.577529610834
 11
52220.60384036639
 21
3488.577529610834
  0
LINE
  5
CE
100
AcDbEntity
  8
sezioni
  6
ByLayer
 62
  256
370
   -1
100
AcDbLine
 10
52272.60384036639
 20
3679.577529610833
 11
52272.60384036639
 21
3692.577529610833
  0
LINE
  5
CF
100
AcDbEntity
  8
sezioni
  6
ByLayer
 62
  256
370
   -1
100
AcDbLine
 10
52202.60384036639
 20
3679.577529610833
 11
52202.60384036639
 21
3692.577529610833
  0
LINE
  5
D0
100
AcDbEntity
  8
sezioni
  6
ByLayer
 62
  256
370
   -1
100
AcDbLine
 10
51982.60384036638
 20
3299.577529610834
 11
51982.60384036638
 21
3288.577529610833
  0
LINE
  5
D1
100
AcDbEntity
  8
sezioni
  6
ByLayer
 62
  256
370
   -1
100
AcDbLine
 10
51902.60384036638
 20
3299.577529610834
 11
51902.60384036638
 21
3288.577529610833
  0
LINE
  5
D2
100
AcDbEntity
  8
sezioni
  6
ByLayer
 62
  256
370
   -1
100
AcDbLine
 10
51715.60384036639
 20
3299.577529610834
 11
51715.60384036639
 21
3288.577529610833
  0
LINE
  5
D3
100
AcDbEntity
  8
sezioni
  6
ByLayer
 62
  256
370
   -1
100
AcDbLine
 10
51635.60384036639
 20
3299.577529610834
 11
51635.60384036639
 21
3288.577529610833
  0
LINE
  5
D4
100
AcDbEntity
  8
sezioni
  6
ByLayer
 62
  256
370
   -1
100
AcDbLine
 10
52183.60384033553
 20
3449.577529610833
 11
52183.6038403664
 21
3459.577529610834
  0
LINE
  5
D5
100
AcDbEntity
  8
sezioni
  6
ByLayer
 62
  256
370
   -1
100
AcDbLine
 10
52183.60384033553
 20
3449.577529610833
 11
52172.60384033554
 21
3449.577529610833
  0
LINE
  5
D6
100
AcDbEntity
  8
sezioni
  6
ByLayer
 62
  256
370
   -1
100
AcDbLine
 10
52183.6038403664
 20
3309.577529610834
 11
52172.60384033554
 21
3309.577529610834
  0
LINE
  5
D7
100
AcDbEntity
  8
sezioni
  6
ByLayer
 62
  256
370
   -1
100
AcDbLine
 10
51752.60384036639
 20
3690.577529610833
 11
51728.60384036639
 21
3690.577529610833
  0
LINE
  5
D8
100
AcDbEntity
  8
sezioni
  6
ByLayer
 62
  256
370
   -1
100
AcDbLine
 10
51752.60384036639
 20
3620.577529610834
 11
51728.60384036639
 21
3620.577529610834
  0
LINE
  5
D9
100
AcDbEntity
  8
sezioni
  6
ByLayer
 62
  256
370
   -1
100
AcDbLine
 10
51728.60384036639
 20
3579.577529610833
 11
51752.60384036639
 21
3579.577529610833
  0
LINE
  5
DA
100
AcDbEntity
  8
sezioni
  6
ByLayer
 62
  256
370
   -1
100
AcDbLine
 10
51728.60384036639
 20
3499.577529610834
 11
51752.60384036639
 21
3499.577529610834
  0
LINE
  5
DB
100
AcDbEntity
  8
sezioni
  6
ByLayer
 62
  256
370
   -1
100
AcDbLine
 10
51525.60384036639
 20
3369.577529610833
 11
51513.60384036639
 21
3369.577529610833
  0
LINE
  5
DC
100
AcDbEntity
  8
sezioni
  6
ByLayer
 62
  256
370
   -1
100
AcDbLine
 10
51525.60384036639
 20
3449.577529610833
 11
51513.60384036639
 21
3449.577529610833
  0
LINE
  5
DD
100
AcDbEntity
  8
sezioni
  6
ByLayer
 62
  256
370
   -1
100
AcDbLine
 10
51525.60384036639
 20
3574.577529610833
 11
51513.60384036639
 21
3574.577529610833
  0
LINE
  5
DE
100
AcDbEntity
  8
sezioni
  6
ByLayer
 62
  256
370
   -1
100
AcDbLine
 10
51525.60384036639
 20
3494.577529610833
 11
51513.60384036639
 21
3494.577529610833
  0
LINE
  5
DF
100
AcDbEntity
  8
SCALE-PORTE-FINESTRE
  6
ByLayer
 62
  256
370
   -1
100
AcDbLine
 10
52490.60384036638
 20
3597.577529610833
 11
52781.60384036639
 21
3597.57752961084
  0
LINE
  5
E0
100
AcDbEntity
  8
SCALE-PORTE-FINESTRE
  6
ByLayer
 62
  256
370
   -1
100
AcDbLine
 10
52699.60384036639
 20
3579.577529610833
 11
52699.60384036639
 21
3586.577529610833
  0
LINE
  5
E1
100
AcDbEntity
  8
SCALE-PORTE-FINESTRE
  6
ByLayer
 62
  256
370
   -1
100
AcDbLine
 10
52773.60384036638
 20
3583.077529610834
 11
52707.60384036639
 21
3583.077529610834
  0
LINE
  5
E2
100
AcDbEntity
  8
SCALE-PORTE-FINESTRE
  6
ByLayer
 62
  256
370
   -1
100
AcDbLine
 10
52773.60384036638
 20
3579.577529610833
 11
52773.60384036638
 21
3586.577529610833
  0
LINE
  5
E3
100
AcDbEntity
  8
SCALE-PORTE-FINESTRE
  6
ByLayer
 62
  256
370
   -1
100
AcDbLine
 10
52707.60384036639
 20
3579.577529610833
 11
52707.60384036639
 21
3586.577529610833
  0
LINE
  5
E4
100
AcDbEntity
  8
SCALE-PORTE-FINESTRE
  6
ByLayer
 62
  256
370
   -1
100
AcDbLine
 10
52498.60384036639
 20
3571.077529610833
 11
52686.60384036639
 21
3571.077529610826
  0
LINE
  5
E5
100
AcDbEntity
  8
SCALE-PORTE-FINESTRE
  6
ByLayer
 62
  256
370
   -1
100
AcDbLine
 10
52498.60384036639
 20
3567.577529610833
 11
52498.60384036639
 21
3574.577529610833
  0
LINE
  5
E6
100
AcDbEntity
  8
SCALE-PORTE-FINESTRE
  6
ByLayer
 62
  256
370
   -1
100
AcDbLine
 10
52686.60384036639
 20
3567.577529610826
 11
52686.60384036639
 21
3574.577529610826
  0
LINE
  5
E7
100
AcDbEntity
  8
SCALE-PORTE-FINESTRE
  6
ByLayer
 62
  256
370
   -1
100
AcDbLine
 10
52699.60384036639
 20
3586.577529610826
 11
52781.60384036639
 21
3586.577529610826
  0
LINE
  5
E8
100
AcDbEntity
  8
SCALE-PORTE-FINESTRE
  6
ByLayer
 62
  256
370
   -1
100
AcDbLine
 10
52490.60384036638
 20
3574.577529610833
 11
52694.60384036639
 21
3574.577529610826
  0
LINE
  5
E9
100
AcDbEntity
  8
SCALE-PORTE-FINESTRE
  6
ByLayer
 62
  256
370
   -1
100
AcDbLine
 10
52699.60384036639
 20
3579.577529610826
 11
52781.60384036639
 21
3579.577529610826
  0
LINE
  5
EA
100
AcDbEntity
  8
SCALE-PORTE-FINESTRE
  6
ByLayer
 62
  256
370
   -1
100
AcDbLine
 10
52490.60384036638
 20
3567.577529610833
 11
52694.60384036639
 21
3567.577529610826
  0
LWPOLYLINE
  5
EB
100
AcDbEntity
  8
SCALE-PORTE-FINESTRE
  6
ByLayer
 62
  256
370
   -1
100
AcDbPolyline
 90
    4
 70
    0
 43
0
 10
52682.60384036639
 20
2555.577529610833
 10
52682.60384036638
 20
2550.577529610833
 10
52802.60384036639
 20
2550.577529610833
 10
52802.60384036639
 20
2555.577529610833
  0
LINE
  5
EC
100
AcDbEntity
  8
SCALE-PORTE-FINESTRE
  6
ByLayer
 62
  256
370
   -1
100
AcDbLine
 10
52742.60384036639
 20
2597.577529610833
 11
52742.60384036639
 21
2590.577529610833
  0
LINE
  5
ED
100
AcDbEntity
  8
SCALE-PORTE-FINESTRE
  6
ByLayer
 62
  256
370
   -1
100
AcDbLine
 10
52794.60384036639
 20
2594.077529610826
 11
52750.60384036639
 21
2594.077529610833
  0
LINE
  5
EE
100
AcDbEntity
  8
SCALE-PORTE-FINESTRE
  6
ByLayer
 62
  256
370
   -1
100
AcDbLine
 10
52794.60384036639
 20
2597.577529610826
 11
52794.60384036639
 21
2590.577529610826
  0
LINE
  5
EF
100
AcDbEntity
  8
SCALE-PORTE-FINESTRE
  6
ByLayer
 62
  256
370
   -1
100
AcDbLine
 10
52750.60384036639
 20
2597.577529610833
 11
52750.60384036639
 21
2590.577529610833
  0
LINE
  5
F0
100
AcDbEntity
  8
SCALE-PORTE-FINESTRE
  6
ByLayer
 62
  256
370
   -1
100
AcDbLine
 10
52690.60384036639
 20
2594.077529610826
 11
52734.60384036638
 21
2594.077529610833
  0
LINE
  5
F1
100
AcDbEntity
  8
SCALE-PORTE-FINESTRE
  6
ByLayer
 62
  256
370
   -1
100
AcDbLine
 10
52690.60384036639
 20
2597.577529610826
 11
52690.60384036639
 21
2590.577529610826
  0
LINE
  5
F2
100
AcDbEntity
  8
SCALE-PORTE-FINESTRE
  6
ByLayer
 62
  256
370
   -1
100
AcDbLine
 10
52734.60384036638
 20
2597.577529610833
 11
52734.60384036638
 21
2590.577529610833
  0
LINE
  5
F3
100
AcDbEntity
  8
SCALE-PORTE-FINESTRE
  6
ByLayer
 62
  256
370
   -1
100
AcDbLine
 10
52682.60384036639
 20
2590.577529610826
 11
52802.60384036639
 21
2590.577529610833
  0
LINE
  5
F4
100
AcDbEntity
  8
SCALE-PORTE-FINESTRE
  6
ByLayer
 62
  256
370
   -1
100
AcDbLine
 10
52682.60384036639
 20
2597.577529610826
 11
52802.60384036639
 21
2597.577529610833
  0
LWPOLYLINE
  5
F5
100
AcDbEntity
  8
SCALE-PORTE-FINESTRE
  6
ByLayer
 62
  256
370
   -1
100
AcDbPolyline
 90
    4
 70
    0
 43
0
 10
52122.60384036639
 20
2555.577529610833
 10
52122.60384036638
 20
2550.577529610833
 10
52242.60384036639
 20
2550.577529610833
 10
52242.60384036639
 20
2555.577529610833
  0
LINE
  5
F6
100
AcDbEntity
  8
SCALE-PORTE-FINESTRE
  6
ByLayer
 62
  256
370
   -1
100
AcDbLine
 10
52182.60384036639
 20
2597.577529610833
 11
52182.60384036639
 21
2590.577529610833
  0
LINE
  5
F7
100
AcDbEntity
  8
SCALE-PORTE-FINESTRE
  6
ByLayer
 62
  256
370
   -1
100
AcDbLine
 10
52234.60384036639
 20
2594.077529610826
 11
52190.60384036639
 21
2594.077529610833
  0
LINE
  5
F8
100
AcDbEntity
  8
SCALE-PORTE-FINESTRE
  6
ByLayer
 62
  256
370
   -1
100
AcDbLine
 10
52234.60384036639
 20
2597.577529610826
 11
52234.60384036639
 21
2590.577529610826
  0
LINE
  5
F9
100
AcDbEntity
  8
SCALE-PORTE-FINESTRE
  6
ByLayer
 62
  256
370
   -1
100
AcDbLine
 10
52190.60384036639
 20
2597.577529610833
 11
52190.60384036639
 21
2590.577529610833
  0
LINE
  5
FA
100
AcDbEntity
  8
SCALE-PORTE-FINESTRE
  6
ByLayer
 62
  256
370
   -1
100
AcDbLine
 10
52130.60384036639
 20
2594.077529610826
 11
52174.60384036639
 21
2594.077529610833
  0
LINE
  5
FB
100
AcDbEntity
  8
SCALE-PORTE-FINESTRE
  6
ByLayer
 62
  256
370
   -1
100
AcDbLine
 10
52130.60384036639
 20
2597.577529610826
 11
52130.60384036639
 21
2590.577529610826
  0
LINE
  5
FC
100
AcDbEntity
  8
SCALE-PORTE-FINESTRE
  6
ByLayer
 62
  256
370
   -1
100
AcDbLine
 10
52174.60384036639
 20
2597.577529610833
 11
52174.60384036639
 21
2590.577529610833
  0
LINE
  5
FD
100
AcDbEntity
  8
SCALE-PORTE-FINESTRE
  6
ByLayer
 62
  256
370
   -1
100
AcDbLine
 10
52122.60384036639
 20
2590.577529610826
 11
52242.60384036639
 21
2590.577529610833
  0
LINE
  5
FE
100
AcDbEntity
  8
SCALE-PORTE-FINESTRE
  6
ByLayer
 62
  256
370
   -1
100
AcDbLine
 10
52122.60384036639
 20
2597.577529610826
 11
52242.60384036639
 21
2597.577529610833
  0
LINE
  5
FF
100
AcDbEntity
  8
SCALE-PORTE-FINESTRE
  6
ByLayer
 62
  256
370
   -1
100
AcDbLine
 10
52391.10384036639
 20
2555.57752961084
 11
52539.10384036639
 21
2555.577529610833
  0
LINE
  5
100
100
AcDbEntity
  8
SCALE-PORTE-FINESTRE
  6
ByLayer
 62
  256
370
   -1
100
AcDbLine
 10
52465.10384036639
 20
2597.577529610833
 11
52465.10384036639
 21
2590.577529610833
  0
LINE
  5
101
100
AcDbEntity
  8
SCALE-PORTE-FINESTRE
  6
ByLayer
 62
  256
370
   -1
100
AcDbLine
 10
52531.10384036639
 20
2594.077529610826
 11
52473.10384036639
 21
2594.077529610833
  0
LINE
  5
102
100
AcDbEntity
  8
SCALE-PORTE-FINESTRE
  6
ByLayer
 62
  256
370
   -1
100
AcDbLine
 10
52531.10384036639
 20
2597.577529610826
 11
52531.10384036639
 21
2590.577529610826
  0
LINE
  5
103
100
AcDbEntity
  8
SCALE-PORTE-FINESTRE
  6
ByLayer
 62
  256
370
   -1
100
AcDbLine
 10
52473.10384036639
 20
2597.577529610833
 11
52473.10384036639
 21
2590.577529610833
  0
LINE
  5
104
100
AcDbEntity
  8
SCALE-PORTE-FINESTRE
  6
ByLayer
 62
  256
370
   -1
100
AcDbLine
 10
52399.10384036639
 20
2594.077529610826
 11
52457.10384036639
 21
2594.077529610833
  0
LINE
  5
105
100
AcDbEntity
  8
SCALE-PORTE-FINESTRE
  6
ByLayer
 62
  256
370
   -1
100
AcDbLine
 10
52399.10384036639
 20
2597.577529610826
 11
52399.10384036639
 21
2590.577529610826
  0
LINE
  5
106
100
AcDbEntity
  8
SCALE-PORTE-FINESTRE
  6
ByLayer
 62
  256
370
   -1
100
AcDbLine
 10
52457.10384036639
 20
2597.577529610833
 11
52457.10384036639
 21
2590.577529610833
  0
LINE
  5
107
100
AcDbEntity
  8
SCALE-PORTE-FINESTRE
  6
ByLayer
 62
  256
370
   -1
100
AcDbLine
 10
52391.10384036639
 20
2590.577529610826
 11
52539.10384036639
 21
2590.577529610833
  0
LINE
  5
108
100
AcDbEntity
  8
SCALE-PORTE-FINESTRE
  6
ByLayer
 62
  256
370
   -1
100
AcDbLine
 10
52391.10384036639
 20
2597.577529610826
 11
52539.10384036639
 21
2597.577529610833
  0
LINE
  5
109
100
AcDbEntity
  8
SCALE-PORTE-FINESTRE
  6
ByLayer
 62
  256
370
   -1
100
AcDbLine
 10
51902.60384036639
 20
2844.577529610841
 11
52042.60384036639
 21
2844.577529610834
  0
LINE
  5
10A
100
AcDbEntity
  8
SCALE-PORTE-FINESTRE
  6
ByLayer
 62
  256
370
   -1
100
AcDbLine
 10
51972.60384036639
 20
2886.577529610833
 11
51972.60384036639
 21
2879.577529610833
  0
LINE
  5
10B
100
AcDbEntity
  8
SCALE-PORTE-FINESTRE
  6
ByLayer
 62
  256
370
   -1
100
AcDbLine
 10
52034.60384036638
 20
2883.077529610826
 11
51980.60384036639
 21
2883.077529610833
  0
LINE
  5
10C
100
AcDbEntity
  8
SCALE-PORTE-FINESTRE
  6
ByLayer
 62
  256
370
   -1
100
AcDbLine
 10
52034.60384036638
 20
2886.577529610826
 11
52034.60384036638
 21
2879.577529610826
  0
LINE
  5
10D
100
AcDbEntity
  8
SCALE-PORTE-FINESTRE
  6
ByLayer
 62
  256
370
   -1
100
AcDbLine
 10
51980.60384036639
 20
2886.577529610833
 11
51980.60384036639
 21
2879.577529610833
  0
LINE
  5
10E
100
AcDbEntity
  8
SCALE-PORTE-FINESTRE
  6
ByLayer
 62
  256
370
   -1
100
AcDbLine
 10
51910.60384036639
 20
2883.077529610826
 11
51964.60384036639
 21
2883.077529610833
  0
LINE
  5
10F
100
AcDbEntity
  8
SCALE-PORTE-FINESTRE
  6
ByLayer
 62
  256
370
   -1
100
AcDbLine
 10
51910.60384036639
 20
2886.577529610826
 11
51910.60384036639
 21
2879.577529610826
  0
LINE
  5
110
100
AcDbEntity
  8
SCALE-PORTE-FINESTRE
  6
ByLayer
 62
  256
370
   -1
100
AcDbLine
 10
51964.60384036639
 20
2886.577529610833
 11
51964.60384036639
 21
2879.577529610833
  0
LINE
  5
111
100
AcDbEntity
  8
SCALE-PORTE-FINESTRE
  6
ByLayer
 62
  256
370
   -1
100
AcDbLine
 10
51902.60384036639
 20
2879.577529610826
 11
52042.60384036639
 21
2879.577529610833
  0
LINE
  5
112
100
AcDbEntity
  8
SCALE-PORTE-FINESTRE
  6
ByLayer
 62
  256
370
   -1
100
AcDbLine
 10
51902.60384036639
 20
2886.577529610826
 11
52042.60384036639
 21
2886.577529610833
  0
LWPOLYLINE
  5
113
100
AcDbEntity
  8
SCALE-PORTE-FINESTRE
  6
ByLayer
 62
  256
370
   -1
100
AcDbPolyline
 90
    4
 70
    0
 43
0
 10
53304.60384036639
 20
3515.577529610833
 10
53309.60384036639
 20
3515.577529610833
 10
53309.60384036639
 20
3425.577529610833
 10
53304.60384036639
 20
3425.577529610833
  0
LINE
  5
114
100
AcDbEntity
  8
SCALE-PORTE-FINESTRE
  6
ByLayer
 62
  256
370
   -1
100
AcDbLine
 10
53266.10384036639
 20
3507.577529610833
 11
53266.10384036639
 21
3433.577529610833
  0
LINE
  5
115
100
AcDbEntity
  8
SCALE-PORTE-FINESTRE
  6
ByLayer
 62
  256
370
   -1
100
AcDbLine
 10
53262.60384036639
 20
3507.577529610833
 11
53269.60384036639
 21
3507.577529610833
  0
LINE
  5
116
100
AcDbEntity
  8
SCALE-PORTE-FINESTRE
  6
ByLayer
 62
  256
370
   -1
100
AcDbLine
 10
53262.60384036639
 20
3433.577529610833
 11
53269.60384036639
 21
3433.577529610833
  0
LINE
  5
117
100
AcDbEntity
  8
SCALE-PORTE-FINESTRE
  6
ByLayer
 62
  256
370
   -1
100
AcDbLine
 10
53269.60384036639
 20
3515.577529610833
 11
53269.60384036639
 21
3425.577529610833
  0
LINE
  5
118
100
AcDbEntity
  8
SCALE-PORTE-FINESTRE
  6
ByLayer
 62
  256
370
   -1
100
AcDbLine
 10
53262.60384036639
 20
3515.577529610833
 11
53262.60384036639
 21
3425.577529610833
  0
LWPOLYLINE
  5
119
100
AcDbEntity
  8
SCALE-PORTE-FINESTRE
  6
ByLayer
 62
  256
370
   -1
100
AcDbPolyline
 90
    4
 70
    0
 43
0
 10
53304.60384036639
 20
3325.577529610833
 10
53309.60384036639
 20
3325.577529610833
 10
53309.60384036639
 20
3235.577529610834
 10
53304.60384036639
 20
3235.577529610834
  0
LINE
  5
11A
100
AcDbEntity
  8
SCALE-PORTE-FINESTRE
  6
ByLayer
 62
  256
370
   -1
100
AcDbLine
 10
53266.10384036639
 20
3317.577529610833
 11
53266.10384036639
 21
3243.577529610834
  0
LINE
  5
11B
100
AcDbEntity
  8
SCALE-PORTE-FINESTRE
  6
ByLayer
 62
  256
370
   -1
100
AcDbLine
 10
53262.60384036639
 20
3317.577529610833
 11
53269.60384036639
 21
3317.577529610833
  0
LINE
  5
11C
100
AcDbEntity
  8
SCALE-PORTE-FINESTRE
  6
ByLayer
 62
  256
370
   -1
100
AcDbLine
 10
53262.60384036639
 20
3243.577529610834
 11
53269.60384036639
 21
3243.577529610834
  0
LINE
  5
11D
100
AcDbEntity
  8
SCALE-PORTE-FINESTRE
  6
ByLayer
 62
  256
370
   -1
100
AcDbLine
 10
53269.60384036639
 20
3325.577529610833
 11
53269.60384036639
 21
3235.577529610834
  0
LINE
  5
11E
100
AcDbEntity
  8
SCALE-PORTE-FINESTRE
  6
ByLayer
 62
  256
370
   -1
100
AcDbLine
 10
53262.60384036639
 20
3325.577529610833
 11
53262.60384036639
 21
3235.577529610834
  0
LWPOLYLINE
  5
11F
100
AcDbEntity
  8
SCALE-PORTE-FINESTRE
  6
ByLayer
 62
  256
370
   -1
100
AcDbPolyline
 90
    4
 70
    0
 43
0
 10
53129.60384036639
 20
3748.577529610833
 10
53129.60384036639
 20
3753.577529610833
 10
53219.60384036639
 20
3753.577529610833
 10
53219.60384036639
 20
3748.577529610833
  0
LINE
  5
120
100
AcDbEntity
  8
SCALE-PORTE-FINESTRE
  6
ByLayer
 62
  256
370
   -1
100
AcDbLine
 10
53137.60384036639
 20
3718.077529610833
 11
53211.60384036639
 21
3718.077529610833
  0
LINE
  5
121
100
AcDbEntity
  8
SCALE-PORTE-FINESTRE
  6
ByLayer
 62
  256
370
   -1
100
AcDbLine
 10
53137.60384036639
 20
3714.577529610834
 11
53137.60384036639
 21
3721.577529610833
  0
LINE
  5
122
100
AcDbEntity
  8
SCALE-PORTE-FINESTRE
  6
ByLayer
 62
  256
370
   -1
100
AcDbLine
 10
53211.60384036639
 20
3714.577529610834
 11
53211.60384036639
 21
3721.577529610833
  0
LINE
  5
123
100
AcDbEntity
  8
SCALE-PORTE-FINESTRE
  6
ByLayer
 62
  256
370
   -1
100
AcDbLine
 10
53129.60384036639
 20
3721.577529610833
 11
53219.60384036639
 21
3721.577529610833
  0
LINE
  5
124
100
AcDbEntity
  8
SCALE-PORTE-FINESTRE
  6
ByLayer
 62
  256
370
   -1
100
AcDbLine
 10
53129.60384036639
 20
3714.577529610834
 11
53219.60384036639
 21
3714.577529610834
  0
LWPOLYLINE
  5
125
100
AcDbEntity
  8
SCALE-PORTE-FINESTRE
  6
ByLayer
 62
  256
370
   -1
100
AcDbPolyline
 90
    4
 70
    0
 43
0
 10
52255.60384036639
 20
3931.577529610834
 10
52255.60384036639
 20
3936.577529610833
 10
52345.60384036639
 20
3936.577529610833
 10
52345.60384036639
 20
3931.577529610834
  0
LINE
  5
126
100
AcDbEntity
  8
SCALE-PORTE-FINESTRE
  6
ByLayer
 62
  256
370
   -1
100
AcDbLine
 10
52263.60384036639
 20
3892.077529610833
 11
52337.60384036639
 21
3892.077529610833
  0
LINE
  5
127
100
AcDbEntity
  8
SCALE-PORTE-FINESTRE
  6
ByLayer
 62
  256
370
   -1
100
AcDbLine
 10
52263.60384036639
 20
3888.577529610834
 11
52263.60384036639
 21
3895.577529610834
  0
LINE
  5
128
100
AcDbEntity
  8
SCALE-PORTE-FINESTRE
  6
ByLayer
 62
  256
370
   -1
100
AcDbLine
 10
52337.60384036639
 20
3888.577529610834
 11
52337.60384036639
 21
3895.577529610834
  0
LINE
  5
129
100
AcDbEntity
  8
SCALE-PORTE-FINESTRE
  6
ByLayer
 62
  256
370
   -1
100
AcDbLine
 10
52255.60384036639
 20
3895.577529610834
 11
52345.60384036639
 21
3895.577529610834
  0
LINE
  5
12A
100
AcDbEntity
  8
SCALE-PORTE-FINESTRE
  6
ByLayer
 62
  256
370
   -1
100
AcDbLine
 10
52255.60384036639
 20
3888.577529610834
 11
52345.60384036639
 21
3888.577529610834
  0
LWPOLYLINE
  5
12B
100
AcDbEntity
  8
SCALE-PORTE-FINESTRE
  6
ByLayer
 62
  256
370
   -1
100
AcDbPolyline
 90
    4
 70
    0
 43
0
 10
52015.60384036638
 20
3931.577529610834
 10
52015.60384036638
 20
3936.577529610833
 10
52105.60384036639
 20
3936.577529610833
 10
52105.60384036639
 20
3931.577529610834
  0
LINE
  5
12C
100
AcDbEntity
  8
SCALE-PORTE-FINESTRE
  6
ByLayer
 62
  256
370
   -1
100
AcDbLine
 10
52023.60384036638
 20
3892.077529610833
 11
52097.60384036639
 21
3892.077529610833
  0
LINE
  5
12D
100
AcDbEntity
  8
SCALE-PORTE-FINESTRE
  6
ByLayer
 62
  256
370
   -1
100
AcDbLine
 10
52023.60384036638
 20
3888.577529610834
 11
52023.60384036638
 21
3895.577529610834
  0
LINE
  5
12E
100
AcDbEntity
  8
SCALE-PORTE-FINESTRE
  6
ByLayer
 62
  256
370
   -1
100
AcDbLine
 10
52097.60384036639
 20
3888.577529610834
 11
52097.60384036639
 21
3895.577529610834
  0
LINE
  5
12F
100
AcDbEntity
  8
SCALE-PORTE-FINESTRE
  6
ByLayer
 62
  256
370
   -1
100
AcDbLine
 10
52015.60384036638
 20
3895.577529610834
 11
52105.60384036639
 21
3895.577529610834
  0
LINE
  5
130
100
AcDbEntity
  8
SCALE-PORTE-FINESTRE
  6
ByLayer
 62
  256
370
   -1
100
AcDbLine
 10
52015.60384036638
 20
3888.577529610834
 11
52105.60384036639
 21
3888.577529610834
  0
LWPOLYLINE
  5
131
100
AcDbEntity
  8
SCALE-PORTE-FINESTRE
  6
ByLayer
 62
  256
370
   -1
100
AcDbPolyline
 90
    4
 70
    0
 43
0
 10
51818.60384036638
 20
3931.577529610834
 10
51818.60384036638
 20
3936.577529610833
 10
51908.60384036638
 20
3936.577529610833
 10
51908.60384036638
 20
3931.577529610834
  0
LINE
  5
132
100
AcDbEntity
  8
SCALE-PORTE-FINESTRE
  6
ByLayer
 62
  256
370
   -1
100
AcDbLine
 10
51826.60384036638
 20
3892.077529610833
 11
51900.60384036638
 21
3892.077529610833
  0
LINE
  5
133
100
AcDbEntity
  8
SCALE-PORTE-FINESTRE
  6
ByLayer
 62
  256
370
   -1
100
AcDbLine
 10
51826.60384036638
 20
3888.577529610834
 11
51826.60384036638
 21
3895.577529610834
  0
LINE
  5
134
100
AcDbEntity
  8
SCALE-PORTE-FINESTRE
  6
ByLayer
 62
  256
370
   -1
100
AcDbLine
 10
51900.60384036638
 20
3888.577529610834
 11
51900.60384036638
 21
3895.577529610834
  0
LINE
  5
135
100
AcDbEntity
  8
SCALE-PORTE-FINESTRE
  6
ByLayer
 62
  256
370
   -1
100
AcDbLine
 10
51818.60384036638
 20
3895.577529610834
 11
51908.60384036638
 21
3895.577529610834
  0
LINE
  5
136
100
AcDbEntity
  8
SCALE-PORTE-FINESTRE
  6
ByLayer
 62
  256
370
   -1
100
AcDbLine
 10
51818.60384036638
 20
3888.577529610834
 11
51908.60384036638
 21
3888.577529610834
  0
LWPOLYLINE
  5
137
100
AcDbEntity
  8
SCALE-PORTE-FINESTRE
  6
ByLayer
 62
  256
370
   -1
100
AcDbPolyline
 90
    4
 70
    0
 43
0
 10
51557.60384036639
 20
3931.577529610834
 10
51557.60384036639
 20
3936.577529610833
 10
51647.60384036639
 20
3936.577529610833
 10
51647.60384036639
 20
3931.577529610834
  0
LINE
  5
138
100
AcDbEntity
  8
SCALE-PORTE-FINESTRE
  6
ByLayer
 62
  256
370
   -1
100
AcDbLine
 10
51565.60384036639
 20
3892.077529610833
 11
51639.60384036639
 21
3892.077529610833
  0
LINE
  5
139
100
AcDbEntity
  8
SCALE-PORTE-FINESTRE
  6
ByLayer
 62
  256
370
   -1
100
AcDbLine
 10
51565.60384036639
 20
3888.577529610834
 11
51565.60384036639
 21
3895.577529610834
  0
LINE
  5
13A
100
AcDbEntity
  8
SCALE-PORTE-FINESTRE
  6
ByLayer
 62
  256
370
   -1
100
AcDbLine
 10
51639.60384036639
 20
3888.577529610834
 11
51639.60384036639
 21
3895.577529610834
  0
LINE
  5
13B
100
AcDbEntity
  8
SCALE-PORTE-FINESTRE
  6
ByLayer
 62
  256
370
   -1
100
AcDbLine
 10
51557.60384036639
 20
3895.577529610834
 11
51647.60384036639
 21
3895.577529610834
  0
LINE
  5
13C
100
AcDbEntity
  8
SCALE-PORTE-FINESTRE
  6
ByLayer
 62
  256
370
   -1
100
AcDbLine
 10
51557.60384036639
 20
3888.577529610834
 11
51647.60384036639
 21
3888.577529610834
  0
LWPOLYLINE
  5
13D
100
AcDbEntity
  8
SCALE-PORTE-FINESTRE
  6
ByLayer
 62
  256
370
   -1
100
AcDbPolyline
 90
    4
 70
    0
 43
0
 10
51367.60384036639
 20
3931.577529610834
 10
51367.60384036639
 20
3936.577529610833
 10
51457.60384036639
 20
3936.577529610833
 10
51457.60384036639
 20
3931.577529610834
  0
LINE
  5
13E
100
AcDbEntity
  8
SCALE-PORTE-FINESTRE
  6
ByLayer
 62
  256
370
   -1
100
AcDbLine
 10
51375.60384036639
 20
3892.077529610833
 11
51449.60384036639
 21
3892.077529610833
  0
LINE
  5
13F
100
AcDbEntity
  8
SCALE-PORTE-FINESTRE
  6
ByLayer
 62
  256
370
   -1
100
AcDbLine
 10
51375.60384036639
 20
3888.577529610834
 11
51375.60384036639
 21
3895.577529610834
  0
LINE
  5
140
100
AcDbEntity
  8
SCALE-PORTE-FINESTRE
  6
ByLayer
 62
  256
370
   -1
100
AcDbLine
 10
51449.60384036639
 20
3888.577529610834
 11
51449.60384036639
 21
3895.577529610834
  0
LINE
  5
141
100
AcDbEntity
  8
SCALE-PORTE-FINESTRE
  6
ByLayer
 62
  256
370
   -1
100
AcDbLine
 10
51367.60384036639
 20
3895.577529610834
 11
51457.60384036639
 21
3895.577529610834
  0
LINE
  5
142
100
AcDbEntity
  8
SCALE-PORTE-FINESTRE
  6
ByLayer
 62
  256
370
   -1
100
AcDbLine
 10
51367.60384036639
 20
3888.577529610834
 11
51457.60384036639
 21
3888.577529610834
  0
LINE
  5
143
100
AcDbEntity
  8
SCALE-PORTE-FINESTRE
  6
ByLayer
 62
  256
370
   -1
100
AcDbLine
 10
50799.60384036639
 20
3634.577529610834
 11
50799.60384036639
 21
3544.577529610833
  0
LINE
  5
144
100
AcDbEntity
  8
SCALE-PORTE-FINESTRE
  6
ByLayer
 62
  256
370
   -1
100
AcDbLine
 10
50838.10384036639
 20
3626.577529610833
 11
50838.10384036639
 21
3552.577529610834
  0
LINE
  5
145
100
AcDbEntity
  8
SCALE-PORTE-FINESTRE
  6
ByLayer
 62
  256
370
   -1
100
AcDbLine
 10
50841.60384036639
 20
3626.577529610833
 11
50834.60384036639
 21
3626.577529610833
  0
LINE
  5
146
100
AcDbEntity
  8
SCALE-PORTE-FINESTRE
  6
ByLayer
 62
  256
370
   -1
100
AcDbLine
 10
50841.60384036639
 20
3552.577529610834
 11
50834.60384036639
 21
3552.577529610834
  0
LINE
  5
147
100
AcDbEntity
  8
SCALE-PORTE-FINESTRE
  6
ByLayer
 62
  256
370
   -1
100
AcDbLine
 10
50834.60384036639
 20
3634.577529610834
 11
50834.60384036639
 21
3544.577529610833
  0
LINE
  5
148
100
AcDbEntity
  8
SCALE-PORTE-FINESTRE
  6
ByLayer
 62
  256
370
   -1
100
AcDbLine
 10
50841.60384036639
 20
3634.577529610834
 11
50841.60384036639
 21
3544.577529610833
  0
LWPOLYLINE
  5
149
100
AcDbEntity
  8
SCALE-PORTE-FINESTRE
  6
ByLayer
 62
  256
370
   -1
100
AcDbPolyline
 90
    4
 70
    0
 43
0
 10
50799.60384036639
 20
3834.577529610834
 10
50794.60384036639
 20
3834.577529610834
 10
50794.60384036639
 20
3744.577529610833
 10
50799.60384036639
 20
3744.577529610833
  0
LINE
  5
14A
100
AcDbEntity
  8
SCALE-PORTE-FINESTRE
  6
ByLayer
 62
  256
370
   -1
100
AcDbLine
 10
50838.10384036639
 20
3826.577529610833
 11
50838.10384036639
 21
3752.577529610834
  0
LINE
  5
14B
100
AcDbEntity
  8
SCALE-PORTE-FINESTRE
  6
ByLayer
 62
  256
370
   -1
100
AcDbLine
 10
50841.60384036639
 20
3826.577529610833
 11
50834.60384036639
 21
3826.577529610833
  0
LINE
  5
14C
100
AcDbEntity
  8
SCALE-PORTE-FINESTRE
  6
ByLayer
 62
  256
370
   -1
100
AcDbLine
 10
50841.60384036639
 20
3752.577529610834
 11
50834.60384036639
 21
3752.577529610834
  0
LINE
  5
14D
100
AcDbEntity
  8
SCALE-PORTE-FINESTRE
  6
ByLayer
 62
  256
370
   -1
100
AcDbLine
 10
50834.60384036639
 20
3834.577529610834
 11
50834.60384036639
 21
3744.577529610833
  0
LINE
  5
14E
100
AcDbEntity
  8
SCALE-PORTE-FINESTRE
  6
ByLayer
 62
  256
370
   -1
100
AcDbLine
 10
50841.60384036639
 20
3834.577529610834
 11
50841.60384036639
 21
3744.577529610833
  0
LWPOLYLINE
  5
14F
100
AcDbEntity
  8
SCALE-PORTE-FINESTRE
  6
ByLayer
 62
  256
370
   -1
100
AcDbPolyline
 90
    4
 70
    0
 43
0
 10
53117.60384036639
 20
2703.577529610833
 10
53117.60384036639
 20
2698.577529610834
 10
53207.60384036639
 20
2698.577529610834
 10
53207.60384036639
 20
2703.577529610833
  0
LINE
  5
150
100
AcDbEntity
  8
SCALE-PORTE-FINESTRE
  6
ByLayer
 62
  256
370
   -1
100
AcDbLine
 10
53125.60384036639
 20
2742.077529610833
 11
53199.60384036639
 21
2742.077529610833
  0
LINE
  5
151
100
AcDbEntity
  8
SCALE-PORTE-FINESTRE
  6
ByLayer
 62
  256
370
   -1
100
AcDbLine
 10
53125.60384036639
 20
2745.577529610833
 11
53125.60384036639
 21
2738.577529610833
  0
LINE
  5
152
100
AcDbEntity
  8
SCALE-PORTE-FINESTRE
  6
ByLayer
 62
  256
370
   -1
100
AcDbLine
 10
53199.60384036639
 20
2745.577529610833
 11
53199.60384036639
 21
2738.577529610833
  0
LINE
  5
153
100
AcDbEntity
  8
SCALE-PORTE-FINESTRE
  6
ByLayer
 62
  256
370
   -1
100
AcDbLine
 10
53117.60384036639
 20
2738.577529610833
 11
53207.60384036639
 21
2738.577529610833
  0
LINE
  5
154
100
AcDbEntity
  8
SCALE-PORTE-FINESTRE
  6
ByLayer
 62
  256
370
   -1
100
AcDbLine
 10
53117.60384036639
 20
2745.577529610833
 11
53207.60384036639
 21
2745.577529610833
  0
LWPOLYLINE
  5
155
100
AcDbEntity
  8
SCALE-PORTE-FINESTRE
  6
ByLayer
 62
  256
370
   -1
100
AcDbPolyline
 90
    4
 70
    0
 43
0
 10
52927.60384036639
 20
2703.577529610833
 10
52927.60384036639
 20
2698.577529610834
 10
53017.60384036639
 20
2698.577529610834
 10
53017.60384036639
 20
2703.577529610833
  0
LINE
  5
156
100
AcDbEntity
  8
SCALE-PORTE-FINESTRE
  6
ByLayer
 62
  256
370
   -1
100
AcDbLine
 10
52935.60384036639
 20
2742.077529610833
 11
53009.60384036639
 21
2742.077529610833
  0
LINE
  5
157
100
AcDbEntity
  8
SCALE-PORTE-FINESTRE
  6
ByLayer
 62
  256
370
   -1
100
AcDbLine
 10
52935.60384036639
 20
2745.577529610833
 11
52935.60384036639
 21
2738.577529610833
  0
LINE
  5
158
100
AcDbEntity
  8
SCALE-PORTE-FINESTRE
  6
ByLayer
 62
  256
370
   -1
100
AcDbLine
 10
53009.60384036639
 20
2745.577529610833
 11
53009.60384036639
 21
2738.577529610833
  0
LINE
  5
159
100
AcDbEntity
  8
SCALE-PORTE-FINESTRE
  6
ByLayer
 62
  256
370
   -1
100
AcDbLine
 10
52927.60384036639
 20
2738.577529610833
 11
53017.60384036639
 21
2738.577529610833
  0
LINE
  5
15A
100
AcDbEntity
  8
SCALE-PORTE-FINESTRE
  6
ByLayer
 62
  256
370
   -1
100
AcDbLine
 10
52927.60384036639
 20
2745.577529610833
 11
53017.60384036639
 21
2745.577529610833
  0
LWPOLYLINE
  5
15B
100
AcDbEntity
  8
SCALE-PORTE-FINESTRE
  6
ByLayer
 62
  256
370
   -1
100
AcDbPolyline
 90
    4
 70
    0
 43
0
 10
51732.60384036639
 20
2844.577529610834
 10
51732.60384036639
 20
2839.577529610834
 10
51822.60384036639
 20
2839.577529610834
 10
51822.60384036639
 20
2844.577529610834
  0
LINE
  5
15C
100
AcDbEntity
  8
SCALE-PORTE-FINESTRE
  6
ByLayer
 62
  256
370
   -1
100
AcDbLine
 10
51740.60384036639
 20
2883.077529610833
 11
51814.60384036639
 21
2883.077529610833
  0
LINE
  5
15D
100
AcDbEntity
  8
SCALE-PORTE-FINESTRE
  6
ByLayer
 62
  256
370
   -1
100
AcDbLine
 10
51740.60384036639
 20
2886.577529610833
 11
51740.60384036639
 21
2879.577529610833
  0
LINE
  5
15E
100
AcDbEntity
  8
SCALE-PORTE-FINESTRE
  6
ByLayer
 62
  256
370
   -1
100
AcDbLine
 10
51814.60384036639
 20
2886.577529610833
 11
51814.60384036639
 21
2879.577529610833
  0
LINE
  5
15F
100
AcDbEntity
  8
SCALE-PORTE-FINESTRE
  6
ByLayer
 62
  256
370
   -1
100
AcDbLine
 10
51732.60384036639
 20
2879.577529610833
 11
51822.60384036639
 21
2879.577529610833
  0
LINE
  5
160
100
AcDbEntity
  8
SCALE-PORTE-FINESTRE
  6
ByLayer
 62
  256
370
   -1
100
AcDbLine
 10
51732.60384036639
 20
2886.577529610833
 11
51822.60384036639
 21
2886.577529610833
  0
LWPOLYLINE
  5
161
100
AcDbEntity
  8
SCALE-PORTE-FINESTRE
  6
ByLayer
 62
  256
370
   -1
100
AcDbPolyline
 90
    4
 70
    0
 43
0
 10
51547.60384036639
 20
2844.577529610834
 10
51547.60384036639
 20
2839.577529610834
 10
51637.60384036639
 20
2839.577529610834
 10
51637.60384036639
 20
2844.577529610834
  0
LINE
  5
162
100
AcDbEntity
  8
SCALE-PORTE-FINESTRE
  6
ByLayer
 62
  256
370
   -1
100
AcDbLine
 10
51555.60384036639
 20
2883.077529610833
 11
51629.60384036639
 21
2883.077529610833
  0
LINE
  5
163
100
AcDbEntity
  8
SCALE-PORTE-FINESTRE
  6
ByLayer
 62
  256
370
   -1
100
AcDbLine
 10
51555.60384036639
 20
2886.577529610833
 11
51555.60384036639
 21
2879.577529610833
  0
LINE
  5
164
100
AcDbEntity
  8
SCALE-PORTE-FINESTRE
  6
ByLayer
 62
  256
370
   -1
100
AcDbLine
 10
51629.60384036639
 20
2886.577529610833
 11
51629.60384036639
 21
2879.577529610833
  0
LINE
  5
165
100
AcDbEntity
  8
SCALE-PORTE-FINESTRE
  6
ByLayer
 62
  256
370
   -1
100
AcDbLine
 10
51547.60384036639
 20
2879.577529610833
 11
51637.60384036639
 21
2879.577529610833
  0
LINE
  5
166
100
AcDbEntity
  8
SCALE-PORTE-FINESTRE
  6
ByLayer
 62
  256
370
   -1
100
AcDbLine
 10
51547.60384036639
 20
2886.577529610833
 11
51637.60384036639
 21
2886.577529610833
  0
LWPOLYLINE
  5
167
100
AcDbEntity
  8
SCALE-PORTE-FINESTRE
  6
ByLayer
 62
  256
370
   -1
100
AcDbPolyline
 90
    4
 70
    0
 43
0
 10
51362.60384036638
 20
2844.577529610834
 10
51362.60384036638
 20
2839.577529610834
 10
51452.60384036639
 20
2839.577529610834
 10
51452.60384036639
 20
2844.577529610834
  0
LINE
  5
168
100
AcDbEntity
  8
SCALE-PORTE-FINESTRE
  6
ByLayer
 62
  256
370
   -1
100
AcDbLine
 10
51370.60384036639
 20
2883.077529610833
 11
51444.60384036639
 21
2883.077529610833
  0
LINE
  5
169
100
AcDbEntity
  8
SCALE-PORTE-FINESTRE
  6
ByLayer
 62
  256
370
   -1
100
AcDbLine
 10
51370.60384036639
 20
2886.577529610833
 11
51370.60384036639
 21
2879.577529610833
  0
LINE
  5
16A
100
AcDbEntity
  8
SCALE-PORTE-FINESTRE
  6
ByLayer
 62
  256
370
   -1
100
AcDbLine
 10
51444.60384036639
 20
2886.577529610833
 11
51444.60384036639
 21
2879.577529610833
  0
LINE
  5
16B
100
AcDbEntity
  8
SCALE-PORTE-FINESTRE
  6
ByLayer
 62
  256
370
   -1
100
AcDbLine
 10
51362.60384036638
 20
2879.577529610833
 11
51452.60384036639
 21
2879.577529610833
  0
LINE
  5
16C
100
AcDbEntity
  8
SCALE-PORTE-FINESTRE
  6
ByLayer
 62
  256
370
   -1
100
AcDbLine
 10
51362.60384036638
 20
2886.577529610833
 11
51452.60384036639
 21
2886.577529610833
  0
LINE
  5
16D
100
AcDbEntity
  8
SCALE-PORTE-FINESTRE
  6
ByLayer
 62
  256
370
   -1
100
AcDbLine
 10
51094.60384036639
 20
2967.577529610833
 11
51184.60384036639
 21
2967.577529610833
  0
LINE
  5
16E
100
AcDbEntity
  8
SCALE-PORTE-FINESTRE
  6
ByLayer
 62
  256
370
   -1
100
AcDbLine
 10
51102.60384036639
 20
3006.077529610833
 11
51176.60384036639
 21
3006.077529610833
  0
LINE
  5
16F
100
AcDbEntity
  8
SCALE-PORTE-FINESTRE
  6
ByLayer
 62
  256
370
   -1
100
AcDbLine
 10
51102.60384036639
 20
3009.577529610834
 11
51102.60384036639
 21
3002.577529610833
  0
LINE
  5
170
100
AcDbEntity
  8
SCALE-PORTE-FINESTRE
  6
ByLayer
 62
  256
370
   -1
100
AcDbLine
 10
51176.60384036639
 20
3009.577529610834
 11
51176.60384036639
 21
3002.577529610833
  0
LINE
  5
171
100
AcDbEntity
  8
SCALE-PORTE-FINESTRE
  6
ByLayer
 62
  256
370
   -1
100
AcDbLine
 10
51094.60384036639
 20
3002.577529610833
 11
51184.60384036639
 21
3002.577529610833
  0
LINE
  5
172
100
AcDbEntity
  8
SCALE-PORTE-FINESTRE
  6
ByLayer
 62
  256
370
   -1
100
AcDbLine
 10
51094.60384036639
 20
3009.577529610834
 11
51184.60384036639
 21
3009.577529610834
  0
LWPOLYLINE
  5
173
100
AcDbEntity
  8
SCALE-PORTE-FINESTRE
  6
ByLayer
 62
  256
370
   -1
100
AcDbPolyline
 90
    4
 70
    0
 43
0
 10
50899.60384036639
 20
2967.577529610833
 10
50899.60384036639
 20
2962.577529610833
 10
50989.60384036639
 20
2962.577529610833
 10
50989.60384036639
 20
2967.577529610833
  0
LINE
  5
174
100
AcDbEntity
  8
SCALE-PORTE-FINESTRE
  6
ByLayer
 62
  256
370
   -1
100
AcDbLine
 10
50907.60384036639
 20
3006.077529610833
 11
50981.60384036638
 21
3006.077529610833
  0
LINE
  5
175
100
AcDbEntity
  8
SCALE-PORTE-FINESTRE
  6
ByLayer
 62
  256
370
   -1
100
AcDbLine
 10
50907.60384036639
 20
3009.577529610834
 11
50907.60384036639
 21
3002.577529610833
  0
LINE
  5
176
100
AcDbEntity
  8
SCALE-PORTE-FINESTRE
  6
ByLayer
 62
  256
370
   -1
100
AcDbLine
 10
50981.60384036638
 20
3009.577529610834
 11
50981.60384036638
 21
3002.577529610833
  0
LINE
  5
177
100
AcDbEntity
  8
SCALE-PORTE-FINESTRE
  6
ByLayer
 62
  256
370
   -1
100
AcDbLine
 10
50899.60384036639
 20
3002.577529610833
 11
50989.60384036639
 21
3002.577529610833
  0
LINE
  5
178
100
AcDbEntity
  8
SCALE-PORTE-FINESTRE
  6
ByLayer
 62
  256
370
   -1
100
AcDbLine
 10
50899.60384036639
 20
3009.577529610834
 11
50989.60384036639
 21
3009.577529610834
  0
LINE
  5
179
100
AcDbEntity
  8
SCALE-PORTE-FINESTRE
  6
ByLayer
 62
    7
370
   -1
100
AcDbLine
 10
53149.8538403664
 20
3669.732974177067
 11
53149.8538403664
 21
3639.422085044615
  0
LINE
  5
17A
100
AcDbEntity
  8
SCALE-PORTE-FINESTRE
  6
ByLayer
 62
    7
370
   -1
100
AcDbLine
 10
53158.6038403664
 20
3654.577529610833
 11
53149.8538403664
 21
3639.422085044615
  0
LINE
  5
17B
100
AcDbEntity
  8
SCALE-PORTE-FINESTRE
  6
ByLayer
 62
    7
370
   -1
100
AcDbLine
 10
53158.6038403664
 20
3654.577529610811
 11
53149.8538403664
 21
3669.73297417703
  0
LINE
  5
17C
100
AcDbEntity
  8
SCALE-PORTE-FINESTRE
  6
ByLayer
 62
    7
370
   -1
100
AcDbLine
 10
52828.60384036639
 20
3654.577529610804
 11
53158.6038403664
 21
3654.577529610833
  0
LWPOLYLINE
  5
17D
100
AcDbEntity
  8
sezioni
  6
ByLayer
 62
    1
370
   -1
100
AcDbPolyline
 90
    4
 70
    1
 43
0
 10
51486.60384036639
 20
2870.577529610833
 10
51486.60384036639
 20
2858.577529610833
 10
51498.60384036639
 20
2858.577529610833
 10
51498.60384036639
 20
2870.577529610833
  0
LWPOLYLINE
  5
17E
100
AcDbEntity
  8
sezioni
  6
ByLayer
 62
    1
370
   -1
100
AcDbPolyline
 90
    4
 70
    1
 43
0
 10
51482.60384036639
 20
2874.577529610833
 10
51482.60384036639
 20
2854.577529610833
 10
51502.60384036639
 20
2854.577529610833
 10
51502.60384036639
 20
2874.577529610833
  0
LINE
  5
17F
100
AcDbEntity
  8
sezioni
  6
ByLayer
 62
  256
370
   -1
100
AcDbLine
 10
50771.60384036639
 20
3270.577529610834
 11
50799.60384036639
 21
3270.577529610834
  0
LINE
  5
180
100
AcDbEntity
  8
sezioni
  6
ByLayer
 62
  256
370
   -1
100
AcDbLine
 10
50771.60384036639
 20
3187.577529610833
 11
50771.60384036639
 21
3270.577529610834
  0
LINE
  5
181
100
AcDbEntity
  8
sezioni
  6
ByLayer
 62
  256
370
   -1
100
AcDbLine
 10
50799.60384036639
 20
3187.577529610833
 11
50771.60384036639
 21
3187.577529610833
  0
LINE
  5
182
100
AcDbEntity
  8
sezioni
  6
ByLayer
 62
    1
370
   -1
100
AcDbLine
 10
53315.60384036639
 20
3113.577529610833
 11
53283.60384036639
 21
3135.577529610833
  0
LWPOLYLINE
  5
183
100
AcDbEntity
  8
sezioni
  6
ByLayer
 62
    1
370
   -1
100
AcDbPolyline
 90
    4
 70
    1
 43
0
 10
53315.60384036639
 20
3135.577529610833
 10
53315.60384036639
 20
3113.577529610833
 10
53283.60384036639
 20
3113.577529610833
 10
53283.60384036639
 20
3135.577529610833
  0
LWPOLYLINE
  5
184
100
AcDbEntity
  8
sezioni
  6
ByLayer
 62
    1
370
   -1
100
AcDbPolyline
 90
    4
 70
    1
 43
0
 10
53319.60384036639
 20
3139.577529610833
 10
53319.60384036639
 20
3109.577529610833
 10
53279.60384036639
 20
3109.577529610833
 10
53279.60384036639
 20
3139.577529610833
  0
LINE
  5
185
100
AcDbEntity
  8
sezioni
  6
ByLayer
 62
  256
370
   -1
100
AcDbLine
 10
53331.60384036639
 20
3181.577529610833
 11
53304.60384036639
 21
3181.577529610833
  0
LINE
  5
186
100
AcDbEntity
  8
sezioni
  6
ByLayer
 62
  256
370
   -1
100
AcDbLine
 10
53331.60384036639
 20
3097.577529610833
 11
53331.60384036639
 21
3181.577529610833
  0
LINE
  5
187
100
AcDbEntity
  8
sezioni
  6
ByLayer
 62
  256
370
   -1
100
AcDbLine
 10
53304.60384036639
 20
3097.577529610833
 11
53331.60384036639
 21
3097.577529610833
  0
LINE
  5
188
100
AcDbEntity
  8
sezioni
  6
ByLayer
 62
  256
370
   -1
100
AcDbLine
 10
52121.60384036639
 20
3957.577529610833
 11
52121.60384036639
 21
3931.577529610834
  0
LINE
  5
189
100
AcDbEntity
  8
sezioni
  6
ByLayer
 62
  256
370
   -1
100
AcDbLine
 10
52204.60384036639
 20
3957.577529610833
 11
52121.60384036639
 21
3957.577529610833
  0
LINE
  5
18A
100
AcDbEntity
  8
sezioni
  6
ByLayer
 62
  256
370
   -1
100
AcDbLine
 10
52204.60384036639
 20
3931.577529610834
 11
52204.60384036639
 21
3957.577529610833
  0
LINE
  5
18B
100
AcDbEntity
  8
sezioni
  6
ByLayer
 62
  256
370
   -1
100
AcDbLine
 10
53184.60384036639
 20
3565.577529610833
 11
53184.60384036639
 21
3594.577529610833
  0
LINE
  5
18C
100
AcDbEntity
  8
sezioni
  6
ByLayer
 62
  256
370
   -1
100
AcDbLine
 10
53256.60384036638
 20
3565.577529610833
 11
53256.60384036638
 21
3594.577529610833
  0
LINE
  5
18D
100
AcDbEntity
  8
sezioni
  6
ByLayer
 62
  256
370
   -1
100
AcDbLine
 10
53129.60384036639
 20
3748.577529610833
 11
53129.60384036639
 21
3714.577529610834
  0
LINE
  5
18E
100
AcDbEntity
  8
sezioni
  6
ByLayer
 62
  256
370
   -1
100
AcDbLine
 10
53219.60384036639
 20
3748.577529610833
 11
53219.60384036639
 21
3714.577529610834
  0
LINE
  5
18F
100
AcDbEntity
  8
sezioni
  6
ByLayer
 62
  256
370
   -1
100
AcDbLine
 10
52490.60384036638
 20
3554.577529610833
 11
52490.60384036638
 21
3597.577529610833
  0
LINE
  5
190
100
AcDbEntity
  8
sezioni
  6
ByLayer
 62
  256
370
   -1
100
AcDbLine
 10
52781.60384036639
 20
3554.577529610833
 11
52781.60384036639
 21
3597.577529610833
  0
LINE
  5
191
100
AcDbEntity
  8
sezioni
  6
ByLayer
 62
  256
370
   -1
100
AcDbLine
 10
51367.60384036639
 20
3888.577529610834
 11
51367.60384036639
 21
3931.577529610834
  0
LINE
  5
192
100
AcDbEntity
  8
sezioni
  6
ByLayer
 62
  256
370
   -1
100
AcDbLine
 10
51457.60384036639
 20
3888.577529610834
 11
51457.60384036639
 21
3931.577529610834
  0
LINE
  5
193
100
AcDbEntity
  8
sezioni
  6
ByLayer
 62
  256
370
   -1
100
AcDbLine
 10
51557.60384036639
 20
3888.577529610834
 11
51557.60384036639
 21
3931.577529610834
  0
LINE
  5
194
100
AcDbEntity
  8
sezioni
  6
ByLayer
 62
  256
370
   -1
100
AcDbLine
 10
51647.60384036639
 20
3888.577529610834
 11
51647.60384036639
 21
3931.577529610834
  0
LINE
  5
195
100
AcDbEntity
  8
sezioni
  6
ByLayer
 62
  256
370
   -1
100
AcDbLine
 10
51818.60384036638
 20
3888.577529610834
 11
51818.60384036638
 21
3931.577529610834
  0
LINE
  5
196
100
AcDbEntity
  8
sezioni
  6
ByLayer
 62
  256
370
   -1
100
AcDbLine
 10
51908.60384036638
 20
3888.577529610834
 11
51908.60384036638
 21
3931.577529610834
  0
LINE
  5
197
100
AcDbEntity
  8
sezioni
  6
ByLayer
 62
  256
370
   -1
100
AcDbLine
 10
52015.60384036638
 20
3888.577529610834
 11
52015.60384036638
 21
3931.577529610834
  0
LINE
  5
198
100
AcDbEntity
  8
sezioni
  6
ByLayer
 62
  256
370
   -1
100
AcDbLine
 10
52105.60384036639
 20
3888.577529610834
 11
52105.60384036639
 21
3931.577529610834
  0
LINE
  5
199
100
AcDbEntity
  8
sezioni
  6
ByLayer
 62
  256
370
   -1
100
AcDbLine
 10
52255.60384036639
 20
3888.577529610834
 11
52255.60384036639
 21
3931.577529610834
  0
LINE
  5
19A
100
AcDbEntity
  8
sezioni
  6
ByLayer
 62
  256
370
   -1
100
AcDbLine
 10
52345.60384036639
 20
3888.577529610834
 11
52345.60384036639
 21
3931.577529610834
  0
LINE
  5
19B
100
AcDbEntity
  8
sezioni
  6
ByLayer
 62
  256
370
   -1
100
AcDbLine
 10
50799.60384036639
 20
3544.577529610833
 11
50841.60384036639
 21
3544.577529610833
  0
LINE
  5
19C
100
AcDbEntity
  8
sezioni
  6
ByLayer
 62
  256
370
   -1
100
AcDbLine
 10
50799.60384036639
 20
3634.577529610834
 11
50841.60384036639
 21
3634.577529610834
  0
LINE
  5
19D
100
AcDbEntity
  8
sezioni
  6
ByLayer
 62
  256
370
   -1
100
AcDbLine
 10
50799.60384036639
 20
3744.577529610833
 11
50841.60384036639
 21
3744.577529610833
  0
LINE
  5
19E
100
AcDbEntity
  8
sezioni
  6
ByLayer
 62
  256
370
   -1
100
AcDbLine
 10
50799.60384036639
 20
3834.577529610834
 11
50841.60384036639
 21
3834.577529610834
  0
LINE
  5
19F
100
AcDbEntity
  8
sezioni
  6
ByLayer
 62
  256
370
   -1
100
AcDbLine
 10
50899.60384036639
 20
3009.577529610834
 11
50899.60384036639
 21
2967.577529610833
  0
LINE
  5
1A0
100
AcDbEntity
  8
sezioni
  6
ByLayer
 62
  256
370
   -1
100
AcDbLine
 10
50989.60384036639
 20
3009.577529610834
 11
50989.60384036639
 21
2967.577529610833
  0
LINE
  5
1A1
100
AcDbEntity
  8
sezioni
  6
ByLayer
 62
  256
370
   -1
100
AcDbLine
 10
51094.60384036639
 20
3009.577529610834
 11
51094.60384036639
 21
2967.577529610833
  0
LINE
  5
1A2
100
AcDbEntity
  8
sezioni
  6
ByLayer
 62
  256
370
   -1
100
AcDbLine
 10
51184.60384036639
 20
3009.577529610834
 11
51184.60384036639
 21
2967.577529610833
  0
LINE
  5
1A3
100
AcDbEntity
  8
sezioni
  6
ByLayer
 62
  256
370
   -1
100
AcDbLine
 10
51362.60384036638
 20
2886.577529610833
 11
51362.60384036638
 21
2844.577529610834
  0
LINE
  5
1A4
100
AcDbEntity
  8
sezioni
  6
ByLayer
 62
  256
370
   -1
100
AcDbLine
 10
51452.60384036639
 20
2886.577529610833
 11
51452.60384036639
 21
2844.577529610834
  0
LINE
  5
1A5
100
AcDbEntity
  8
sezioni
  6
ByLayer
 62
  256
370
   -1
100
AcDbLine
 10
51547.60384036639
 20
2886.577529610833
 11
51547.60384036639
 21
2844.577529610834
  0
LINE
  5
1A6
100
AcDbEntity
  8
sezioni
  6
ByLayer
 62
  256
370
   -1
100
AcDbLine
 10
51637.60384036639
 20
2886.577529610833
 11
51637.60384036639
 21
2844.577529610834
  0
LINE
  5
1A7
100
AcDbEntity
  8
sezioni
  6
ByLayer
 62
  256
370
   -1
100
AcDbLine
 10
51732.60384036639
 20
2886.577529610833
 11
51732.60384036639
 21
2844.577529610834
  0
LINE
  5
1A8
100
AcDbEntity
  8
sezioni
  6
ByLayer
 62
  256
370
   -1
100
AcDbLine
 10
51822.60384036639
 20
2886.577529610833
 11
51822.60384036638
 21
2844.577529610834
  0
LINE
  5
1A9
100
AcDbEntity
  8
sezioni
  6
ByLayer
 62
  256
370
   -1
100
AcDbLine
 10
51902.60384036639
 20
2886.577529610833
 11
51902.60384036638
 21
2844.577529610834
  0
LINE
  5
1AA
100
AcDbEntity
  8
sezioni
  6
ByLayer
 62
  256
370
   -1
100
AcDbLine
 10
52042.60384036639
 20
2886.577529610833
 11
52042.60384036638
 21
2844.577529610834
  0
LINE
  5
1AB
100
AcDbEntity
  8
sezioni
  6
ByLayer
 62
  256
370
   -1
100
AcDbLine
 10
52122.60384036639
 20
2597.577529610833
 11
52122.60384036639
 21
2555.577529610833
  0
LINE
  5
1AC
100
AcDbEntity
  8
sezioni
  6
ByLayer
 62
  256
370
   -1
100
AcDbLine
 10
52242.60384036639
 20
2597.577529610833
 11
52242.60384036639
 21
2555.577529610833
  0
LINE
  5
1AD
100
AcDbEntity
  8
sezioni
  6
ByLayer
 62
  256
370
   -1
100
AcDbLine
 10
52391.10384036639
 20
2597.577529610833
 11
52391.10384036639
 21
2555.577529610833
  0
LINE
  5
1AE
100
AcDbEntity
  8
sezioni
  6
ByLayer
 62
  256
370
   -1
100
AcDbLine
 10
52539.10384036639
 20
2597.577529610833
 11
52539.10384036639
 21
2555.577529610833
  0
LINE
  5
1AF
100
AcDbEntity
  8
sezioni
  6
ByLayer
 62
  256
370
   -1
100
AcDbLine
 10
52682.60384036639
 20
2597.577529610833
 11
52682.60384036639
 21
2555.577529610833
  0
LINE
  5
1B0
100
AcDbEntity
  8
sezioni
  6
ByLayer
 62
  256
370
   -1
100
AcDbLine
 10
52802.60384036639
 20
2597.577529610833
 11
52802.60384036639
 21
2555.577529610833
  0
LINE
  5
1B1
100
AcDbEntity
  8
sezioni
  6
ByLayer
 62
  256
370
   -1
100
AcDbLine
 10
52927.60384036639
 20
2745.577529610833
 11
52927.60384036639
 21
2703.577529610833
  0
LINE
  5
1B2
100
AcDbEntity
  8
sezioni
  6
ByLayer
 62
  256
370
   -1
100
AcDbLine
 10
53017.60384036639
 20
2745.577529610833
 11
53017.60384036639
 21
2703.577529610833
  0
LINE
  5
1B3
100
AcDbEntity
  8
sezioni
  6
ByLayer
 62
  256
370
   -1
100
AcDbLine
 10
53117.60384036639
 20
2745.577529610833
 11
53117.60384036639
 21
2703.577529610833
  0
LINE
  5
1B4
100
AcDbEntity
  8
sezioni
  6
ByLayer
 62
  256
370
   -1
100
AcDbLine
 10
53207.60384036639
 20
2745.577529610833
 11
53207.60384036639
 21
2703.577529610833
  0
LINE
  5
1B5
100
AcDbEntity
  8
sezioni
  6
ByLayer
 62
  256
370
   -1
100
AcDbLine
 10
53304.60384036639
 20
3235.577529610834
 11
53262.60384036639
 21
3235.577529610834
  0
LINE
  5
1B6
100
AcDbEntity
  8
sezioni
  6
ByLayer
 62
  256
370
   -1
100
AcDbLine
 10
53304.60384036639
 20
3325.577529610833
 11
53262.60384036639
 21
3325.577529610833
  0
LINE
  5
1B7
100
AcDbEntity
  8
sezioni
  6
ByLayer
 62
  256
370
   -1
100
AcDbLine
 10
53304.60384036639
 20
3425.577529610833
 11
53262.60384036639
 21
3425.577529610833
  0
LINE
  5
1B8
100
AcDbEntity
  8
sezioni
  6
ByLayer
 62
  256
370
   -1
100
AcDbLine
 10
53304.60384036639
 20
3515.577529610833
 11
53262.60384036639
 21
3515.577529610833
  0
LINE
  5
1B9
100
AcDbEntity
  8
sezioni
  6
ByLayer
 62
  256
370
   -1
100
AcDbLine
 10
52272.60384036639
 20
3679.577529610833
 11
52372.60384036638
 21
3679.577529610833
  0
LINE
  5
1BA
100
AcDbEntity
  8
sezioni
  6
ByLayer
 62
  256
370
   -1
100
AcDbLine
 10
52192.60384036639
 20
3679.577529610833
 11
52202.60384036639
 21
3679.577529610833
  0
LINE
  5
1BB
100
AcDbEntity
  8
sezioni
  6
ByLayer
 62
  256
370
   -1
100
AcDbLine
 10
52272.60384036639
 20
3692.577529610833
 11
52372.60384036638
 21
3692.577529610833
  0
LINE
  5
1BC
100
AcDbEntity
  8
sezioni
  6
ByLayer
 62
  256
370
   -1
100
AcDbLine
 10
52192.60384036639
 20
3692.577529610833
 11
52202.60384036639
 21
3692.577529610833
  0
LINE
  5
1BD
100
AcDbEntity
  8
sezioni
  6
ByLayer
 62
  256
370
   -1
100
AcDbLine
 10
52372.60384036638
 20
3692.577529610833
 11
52372.60384036638
 21
3888.577529610834
  0
LINE
  5
1BE
100
AcDbEntity
  8
sezioni
  6
ByLayer
 62
  256
370
   -1
100
AcDbLine
 10
52372.60384036638
 20
3599.577529610833
 11
52372.60384036638
 21
3679.577529610833
  0
LINE
  5
1BF
100
AcDbEntity
  8
sezioni
  6
ByLayer
 62
  256
370
   -1
100
AcDbLine
 10
52192.60384036639
 20
3692.577529610833
 11
52192.60384036639
 21
3888.577529610834
  0
LINE
  5
1C0
100
AcDbEntity
  8
sezioni
  6
ByLayer
 62
  256
370
   -1
100
AcDbLine
 10
52192.60384036639
 20
3488.577529610834
 11
52192.60384036639
 21
3679.577529610833
  0
LINE
  5
1C1
100
AcDbEntity
  8
sezioni
  6
ByLayer
 62
  256
370
   -1
100
AcDbLine
 10
52172.60384036639
 20
3488.577529610834
 11
52172.60384036639
 21
3888.577529610834
  0
LINE
  5
1C2
100
AcDbEntity
  8
sezioni
  6
ByLayer
 62
  256
370
   -1
100
AcDbLine
 10
52351.60384036639
 20
3459.577529610834
 11
52351.60384036639
 21
3554.577529610833
  0
LINE
  5
1C3
100
AcDbEntity
  8
sezioni
  6
ByLayer
 62
  256
370
   -1
100
AcDbLine
 10
52351.60384036639
 20
2876.577529610833
 11
52351.6038403664
 21
3299.577529610834
  0
LINE
  5
1C4
100
AcDbEntity
  8
sezioni
  6
ByLayer
 62
  256
370
   -1
100
AcDbLine
 10
52322.60384036639
 20
3488.577529610834
 11
52322.60384036639
 21
3599.577529610833
  0
LINE
  5
1C5
100
AcDbEntity
  8
sezioni
  6
ByLayer
 62
  256
370
   -1
100
AcDbLine
 10
52322.60384036639
 20
2886.577529610834
 11
52322.60384036639
 21
3288.577529610833
  0
LINE
  5
1C6
100
AcDbEntity
  8
sezioni
  6
ByLayer
 62
  256
370
   -1
100
AcDbLine
 10
52183.6038403664
 20
3299.577529610834
 11
52183.6038403664
 21
3309.577529610834
  0
LINE
  5
1C7
100
AcDbEntity
  8
sezioni
  6
ByLayer
 62
  256
370
   -1
100
AcDbLine
 10
51892.60384036638
 20
2886.577529610833
 11
51892.60384036639
 21
3288.577529610833
  0
LINE
  5
1C8
100
AcDbEntity
  8
sezioni
  6
ByLayer
 62
  256
370
   -1
100
AcDbLine
 10
52172.60384036639
 20
3449.577529610833
 11
52172.60384036639
 21
3459.577529610834
  0
LINE
  5
1C9
100
AcDbEntity
  8
sezioni
  6
ByLayer
 62
  256
370
   -1
100
AcDbLine
 10
52172.60384036639
 20
3299.577529610834
 11
52172.60384036639
 21
3309.577529610834
  0
LINE
  5
1CA
100
AcDbEntity
  8
sezioni
  6
ByLayer
 62
  256
370
   -1
100
AcDbLine
 10
51873.60384036638
 20
2886.577529610833
 11
51873.60384036638
 21
3288.577529610833
  0
LINE
  5
1CB
100
AcDbEntity
  8
sezioni
  6
ByLayer
 62
  256
370
   -1
100
AcDbLine
 10
51982.60384036638
 20
3288.577529610833
 11
52322.60384036639
 21
3288.577529610833
  0
LINE
  5
1CC
100
AcDbEntity
  8
sezioni
  6
ByLayer
 62
  256
370
   -1
100
AcDbLine
 10
51892.60384036638
 20
3288.577529610833
 11
51902.60384036638
 21
3288.577529610833
  0
LINE
  5
1CD
100
AcDbEntity
  8
sezioni
  6
ByLayer
 62
  256
370
   -1
100
AcDbLine
 10
51715.60384036639
 20
3288.577529610833
 11
51873.60384036638
 21
3288.577529610833
  0
LINE
  5
1CE
100
AcDbEntity
  8
sezioni
  6
ByLayer
 62
  256
370
   -1
100
AcDbLine
 10
51525.60384036639
 20
3288.577529610833
 11
51635.60384036639
 21
3288.577529610833
  0
LINE
  5
1CF
100
AcDbEntity
  8
sezioni
  6
ByLayer
 62
  256
370
   -1
100
AcDbLine
 10
52183.60384036639
 20
3299.577529610833
 11
52351.6038403664
 21
3299.577529610834
  0
LINE
  5
1D0
100
AcDbEntity
  8
sezioni
  6
ByLayer
 62
  256
370
   -1
100
AcDbLine
 10
51982.60384036638
 20
3299.577529610834
 11
52172.6038403664
 21
3299.577529610833
  0
LINE
  5
1D1
100
AcDbEntity
  8
sezioni
  6
ByLayer
 62
  256
370
   -1
100
AcDbLine
 10
51715.60384036639
 20
3299.577529610834
 11
51902.60384036638
 21
3299.577529610834
  0
LINE
  5
1D2
100
AcDbEntity
  8
sezioni
  6
ByLayer
 62
  256
370
   -1
100
AcDbLine
 10
51525.60384036639
 20
3299.577529610834
 11
51635.60384036639
 21
3299.577529610834
  0
LINE
  5
1D3
100
AcDbEntity
  8
sezioni
  6
ByLayer
 62
  256
370
   -1
100
AcDbLine
 10
50899.60384036639
 20
3009.577529610834
 11
50841.60384036639
 21
3009.577529610834
  0
LINE
  5
1D4
100
AcDbEntity
  8
sezioni
  6
ByLayer
 62
  256
370
   -1
100
AcDbLine
 10
51094.60384036639
 20
3009.577529610834
 11
50989.60384036639
 21
3009.577529610834
  0
LINE
  5
1D5
100
AcDbEntity
  8
sezioni
  6
ByLayer
 62
  256
370
   -1
100
AcDbLine
 10
51259.60384036639
 20
3009.577529610834
 11
51184.60384036639
 21
3009.577529610834
  0
LINE
  5
1D6
100
AcDbEntity
  8
sezioni
  6
ByLayer
 62
  256
370
   -1
100
AcDbLine
 10
50899.60384036639
 20
2967.577529610833
 11
50799.60384036639
 21
2967.577529610833
  0
LINE
  5
1D7
100
AcDbEntity
  8
sezioni
  6
ByLayer
 62
  256
370
   -1
100
AcDbLine
 10
51094.60384036639
 20
2967.577529610833
 11
50989.60384036639
 21
2967.577529610833
  0
LINE
  5
1D8
100
AcDbEntity
  8
sezioni
  6
ByLayer
 62
  256
370
   -1
100
AcDbLine
 10
51240.60384036638
 20
2967.577529610833
 11
51184.60384036639
 21
2967.577529610833
  0
LINE
  5
1D9
100
AcDbEntity
  8
sezioni
  6
ByLayer
 62
  256
370
   -1
100
AcDbLine
 10
51752.60384036639
 20
3690.577529610833
 11
51752.60384036639
 21
3888.577529610834
  0
LINE
  5
1DA
100
AcDbEntity
  8
sezioni
  6
ByLayer
 62
  256
370
   -1
100
AcDbLine
 10
51752.60384036639
 20
3579.577529610833
 11
51752.60384036639
 21
3620.577529610834
  0
LINE
  5
1DB
100
AcDbEntity
  8
sezioni
  6
ByLayer
 62
  256
370
   -1
100
AcDbLine
 10
51752.60384036639
 20
3488.577529610834
 11
51752.60384036639
 21
3499.577529610834
  0
LINE
  5
1DC
100
AcDbEntity
  8
sezioni
  6
ByLayer
 62
  256
370
   -1
100
AcDbLine
 10
51728.60384036639
 20
3690.577529610833
 11
51728.60384036639
 21
3888.577529610834
  0
LINE
  5
1DD
100
AcDbEntity
  8
sezioni
  6
ByLayer
 62
  256
370
   -1
100
AcDbLine
 10
51728.60384036639
 20
3613.577529610834
 11
51728.60384036639
 21
3620.577529610834
  0
LINE
  5
1DE
100
AcDbEntity
  8
sezioni
  6
ByLayer
 62
  256
370
   -1
100
AcDbLine
 10
51728.60384036639
 20
3579.577529610833
 11
51728.60384036639
 21
3587.577529610833
  0
LINE
  5
1DF
100
AcDbEntity
  8
sezioni
  6
ByLayer
 62
  256
370
   -1
100
AcDbLine
 10
51728.60384036639
 20
3459.577529610834
 11
51728.60384036639
 21
3499.577529610834
  0
LINE
  5
1E0
100
AcDbEntity
  8
sezioni
  6
ByLayer
 62
  256
370
   -1
100
AcDbLine
 10
51515.60384036639
 20
3613.577529610834
 11
51515.60384036639
 21
3888.577529610834
  0
LINE
  5
1E1
100
AcDbEntity
  8
sezioni
  6
ByLayer
 62
  256
370
   -1
100
AcDbLine
 10
51525.60384036639
 20
3200.536649968816
 11
51525.60384036639
 21
3288.577529610833
  0
LINE
  5
1E2
100
AcDbEntity
  8
sezioni
  6
ByLayer
 62
  256
370
   -1
100
AcDbLine
 10
51525.60384036639
 20
2886.577529610833
 11
51525.60384036639
 21
3130.536649968818
  0
LINE
  5
1E3
100
AcDbEntity
  8
sezioni
  6
ByLayer
 62
  256
370
   -1
100
AcDbLine
 10
51498.60384036639
 20
3613.577529610831
 11
51498.60384036639
 21
3888.577529610834
  0
LINE
  5
1E4
100
AcDbEntity
  8
sezioni
  6
ByLayer
 62
  256
370
   -1
100
AcDbLine
 10
51502.60384036639
 20
3200.536649968817
 11
51502.60384036639
 21
3334.495770326801
  0
LINE
  5
1E5
100
AcDbEntity
  8
sezioni
  6
ByLayer
 62
  256
370
   -1
100
AcDbLine
 10
51502.60384036639
 20
3120.536649968816
 11
51502.60384036639
 21
3130.536649968817
  0
LINE
  5
1E6
100
AcDbEntity
  8
sezioni
  6
ByLayer
 62
  256
370
   -1
100
AcDbLine
 10
51502.60384036639
 20
2886.577529610833
 11
51502.60384036639
 21
3100.536649968817
  0
LINE
  5
1E7
100
AcDbEntity
  8
sezioni
  6
ByLayer
 62
  256
370
   -1
100
AcDbLine
 10
51282.60384036639
 20
3613.577529610834
 11
51282.60384036638
 21
3888.577529610834
  0
LINE
  5
1E8
100
AcDbEntity
  8
sezioni
  6
ByLayer
 62
  256
370
   -1
100
AcDbLine
 10
51525.60384036639
 20
3574.577529610833
 11
51525.60384036639
 21
3587.577529610833
  0
LINE
  5
1E9
100
AcDbEntity
  8
sezioni
  6
ByLayer
 62
  256
370
   -1
100
AcDbLine
 10
51525.60384036639
 20
3449.577529610833
 11
51525.60384036639
 21
3494.577529610833
  0
LINE
  5
1EA
100
AcDbEntity
  8
sezioni
  6
ByLayer
 62
  256
370
   -1
100
AcDbLine
 10
51525.60384036639
 20
3299.577529610834
 11
51525.60384036639
 21
3369.577529610833
  0
LINE
  5
1EB
100
AcDbEntity
  8
sezioni
  6
ByLayer
 62
  256
370
   -1
100
AcDbLine
 10
51282.60384036638
 20
3120.536649968816
 11
51282.60384036638
 21
3334.4957703268
  0
LINE
  5
1EC
100
AcDbEntity
  8
sezioni
  6
ByLayer
 62
  256
370
   -1
100
AcDbLine
 10
51282.60384036638
 20
3090.536649968817
 11
51282.60384036638
 21
3100.536649968817
  0
LINE
  5
1ED
100
AcDbEntity
  8
sezioni
  6
ByLayer
 62
  256
370
   -1
100
AcDbLine
 10
51282.60384036638
 20
2886.577529610833
 11
51282.60384036638
 21
3020.536649968817
  0
LINE
  5
1EE
100
AcDbEntity
  8
sezioni
  6
ByLayer
 62
  256
370
   -1
100
AcDbLine
 10
51240.60384036638
 20
2844.577529610834
 11
51240.60384036638
 21
2967.577529610833
  0
LINE
  5
1EF
100
AcDbEntity
  8
sezioni
  6
ByLayer
 62
  256
370
   -1
100
AcDbLine
 10
51362.60384036638
 20
2886.577529610833
 11
51282.60384036638
 21
2886.577529610833
  0
LINE
  5
1F0
100
AcDbEntity
  8
sezioni
  6
ByLayer
 62
  256
370
   -1
100
AcDbLine
 10
51502.60384036639
 20
2886.577529610833
 11
51452.60384036639
 21
2886.577529610833
  0
LINE
  5
1F1
100
AcDbEntity
  8
sezioni
  6
ByLayer
 62
  256
370
   -1
100
AcDbLine
 10
51547.60384036639
 20
2886.577529610833
 11
51525.60384036639
 21
2886.577529610833
  0
LINE
  5
1F2
100
AcDbEntity
  8
sezioni
  6
ByLayer
 62
  256
370
   -1
100
AcDbLine
 10
51732.60384036639
 20
2886.577529610833
 11
51637.60384036639
 21
2886.577529610833
  0
LINE
  5
1F3
100
AcDbEntity
  8
sezioni
  6
ByLayer
 62
  256
370
   -1
100
AcDbLine
 10
51873.60384036638
 20
2886.577529610833
 11
51822.60384036639
 21
2886.577529610833
  0
LINE
  5
1F4
100
AcDbEntity
  8
sezioni
  6
ByLayer
 62
  256
370
   -1
100
AcDbLine
 10
51902.60384036639
 20
2886.577529610833
 11
51892.60384036638
 21
2886.577529610833
  0
LINE
  5
1F5
100
AcDbEntity
  8
sezioni
  6
ByLayer
 62
  256
370
   -1
100
AcDbLine
 10
51362.60384036638
 20
2844.577529610834
 11
51240.60384036638
 21
2844.577529610834
  0
LINE
  5
1F6
100
AcDbEntity
  8
sezioni
  6
ByLayer
 62
  256
370
   -1
100
AcDbLine
 10
51547.60384036639
 20
2844.577529610834
 11
51452.60384036639
 21
2844.577529610834
  0
LINE
  5
1F7
100
AcDbEntity
  8
sezioni
  6
ByLayer
 62
  256
370
   -1
100
AcDbLine
 10
51732.60384036639
 20
2844.577529610834
 11
51637.60384036639
 21
2844.577529610834
  0
LINE
  5
1F8
100
AcDbEntity
  8
sezioni
  6
ByLayer
 62
  256
370
   -1
100
AcDbLine
 10
51902.60384036638
 20
2844.577529610834
 11
51822.60384036638
 21
2844.577529610834
  0
LINE
  5
1F9
100
AcDbEntity
  8
sezioni
  6
ByLayer
 62
  256
370
   -1
100
AcDbLine
 10
52050.60384036638
 20
2844.577529610834
 11
52042.60384036638
 21
2844.577529610834
  0
LINE
  5
1FA
100
AcDbEntity
  8
sezioni
  6
ByLayer
 62
  256
370
   -1
100
AcDbLine
 10
52092.60384036639
 20
2597.577529610833
 11
52092.6038403664
 21
2876.577529610833
  0
LINE
  5
1FB
100
AcDbEntity
  8
sezioni
  6
ByLayer
 62
  256
370
   -1
100
AcDbLine
 10
52050.60384036638
 20
2555.577529610833
 11
52050.60384036638
 21
2844.577529610834
  0
LINE
  5
1FC
100
AcDbEntity
  8
sezioni
  6
ByLayer
 62
  256
370
   -1
100
AcDbLine
 10
52122.60384036639
 20
2597.577529610833
 11
52092.60384036639
 21
2597.577529610833
  0
LINE
  5
1FD
100
AcDbEntity
  8
sezioni
  6
ByLayer
 62
  256
370
   -1
100
AcDbLine
 10
52282.60384036639
 20
2597.577529610833
 11
52242.60384036639
 21
2597.577529610833
  0
LINE
  5
1FE
100
AcDbEntity
  8
sezioni
  6
ByLayer
 62
  256
370
   -1
100
AcDbLine
 10
52391.10384036639
 20
2597.577529610833
 11
52302.6038403664
 21
2597.577529610833
  0
LINE
  5
1FF
100
AcDbEntity
  8
sezioni
  6
ByLayer
 62
  256
370
   -1
100
AcDbLine
 10
52682.60384036639
 20
2597.577529610833
 11
52539.10384036639
 21
2597.577529610833
  0
LINE
  5
200
100
AcDbEntity
  8
sezioni
  6
ByLayer
 62
  256
370
   -1
100
AcDbLine
 10
52832.60384036639
 20
2597.577529610833
 11
52802.60384036639
 21
2597.577529610833
  0
LINE
  5
201
100
AcDbEntity
  8
sezioni
  6
ByLayer
 62
  256
370
   -1
100
AcDbLine
 10
52122.60384036639
 20
2555.577529610833
 11
52050.60384036638
 21
2555.577529610833
  0
LINE
  5
202
100
AcDbEntity
  8
sezioni
  6
ByLayer
 62
  256
370
   -1
100
AcDbLine
 10
52391.10384036639
 20
2555.577529610833
 11
52242.60384036639
 21
2555.577529610833
  0
LINE
  5
203
100
AcDbEntity
  8
sezioni
  6
ByLayer
 62
  256
370
   -1
100
AcDbLine
 10
52682.60384036639
 20
2555.577529610833
 11
52539.10384036639
 21
2555.577529610833
  0
LINE
  5
204
100
AcDbEntity
  8
sezioni
  6
ByLayer
 62
  256
370
   -1
100
AcDbLine
 10
52874.60384036639
 20
2555.577529610833
 11
52802.60384036639
 21
2555.577529610833
  0
LINE
  5
205
100
AcDbEntity
  8
sezioni
  6
ByLayer
 62
  256
370
   -1
100
AcDbLine
 10
53207.60384036639
 20
2745.577529610833
 11
53262.60384036639
 21
2745.577529610833
  0
LINE
  5
206
100
AcDbEntity
  8
sezioni
  6
ByLayer
 62
  256
370
   -1
100
AcDbLine
 10
53017.60384036639
 20
2745.577529610833
 11
53117.60384036639
 21
2745.577529610833
  0
LINE
  5
207
100
AcDbEntity
  8
sezioni
  6
ByLayer
 62
  256
370
   -1
100
AcDbLine
 10
52856.60384036639
 20
2745.577529610833
 11
52927.60384036639
 21
2745.577529610833
  0
LINE
  5
208
100
AcDbEntity
  8
sezioni
  6
ByLayer
 62
  256
370
   -1
100
AcDbLine
 10
53207.60384036639
 20
2703.577529610833
 11
53304.60384036639
 21
2703.577529610833
  0
LINE
  5
209
100
AcDbEntity
  8
sezioni
  6
ByLayer
 62
  256
370
   -1
100
AcDbLine
 10
53017.60384036639
 20
2703.577529610833
 11
53117.60384036639
 21
2703.577529610833
  0
LINE
  5
20A
100
AcDbEntity
  8
sezioni
  6
ByLayer
 62
  256
370
   -1
100
AcDbLine
 10
52874.60384036639
 20
2703.577529610833
 11
52927.60384036639
 21
2703.577529610833
  0
LINE
  5
20B
100
AcDbEntity
  8
sezioni
  6
ByLayer
 62
  256
370
   -1
100
AcDbLine
 10
52402.60384036639
 20
3597.577529610833
 11
52402.60384036639
 21
3931.577529610834
  0
LINE
  5
20C
100
AcDbEntity
  8
sezioni
  6
ByLayer
 62
  256
370
   -1
100
AcDbLine
 10
52490.60384036638
 20
3554.577529610833
 11
52351.60384036639
 21
3554.577529610833
  0
LINE
  5
20D
100
AcDbEntity
  8
sezioni
  6
ByLayer
 62
  256
370
   -1
100
AcDbLine
 10
52832.60384036639
 20
3554.577529610833
 11
52781.60384036639
 21
3554.577529610833
  0
LINE
  5
20E
100
AcDbEntity
  8
sezioni
  6
ByLayer
 62
  256
370
   -1
100
AcDbLine
 10
53184.60384036639
 20
3565.577529610833
 11
52856.60384036638
 21
3565.577529610833
  0
LINE
  5
20F
100
AcDbEntity
  8
sezioni
  6
ByLayer
 62
  256
370
   -1
100
AcDbLine
 10
53262.60384036639
 20
3565.577529610833
 11
53256.60384036638
 21
3565.577529610833
  0
LINE
  5
210
100
AcDbEntity
  8
sezioni
  6
ByLayer
 62
  256
370
   -1
100
AcDbLine
 10
53129.60384036639
 20
3714.577529610834
 11
52828.60384036639
 21
3714.577529610834
  0
LINE
  5
211
100
AcDbEntity
  8
sezioni
  6
ByLayer
 62
  256
370
   -1
100
AcDbLine
 10
53274.60384036639
 20
3714.577529610834
 11
53219.60384036639
 21
3714.577529610834
  0
LINE
  5
212
100
AcDbEntity
  8
sezioni
  6
ByLayer
 62
  256
370
   -1
100
AcDbLine
 10
52372.60384036638
 20
3599.577529610833
 11
52322.60384036639
 21
3599.577529610833
  0
LINE
  5
213
100
AcDbEntity
  8
sezioni
  6
ByLayer
 62
  256
370
   -1
100
AcDbLine
 10
52490.60384036638
 20
3597.577529610833
 11
52402.60384036639
 21
3597.577529610833
  0
LINE
  5
214
100
AcDbEntity
  8
sezioni
  6
ByLayer
 62
  256
370
   -1
100
AcDbLine
 10
52799.60384036639
 20
3597.577529610833
 11
52781.60384036639
 21
3597.577529610833
  0
LINE
  5
215
100
AcDbEntity
  8
sezioni
  6
ByLayer
 62
  256
370
   -1
100
AcDbLine
 10
53184.60384036639
 20
3594.577529610833
 11
52828.60384036639
 21
3594.577529610833
  0
LINE
  5
216
100
AcDbEntity
  8
sezioni
  6
ByLayer
 62
  256
370
   -1
100
AcDbLine
 10
53274.60384036639
 20
3594.577529610833
 11
53256.60384036638
 21
3594.577529610833
  0
LINE
  5
217
100
AcDbEntity
  8
sezioni
  6
ByLayer
 62
  256
370
   -1
100
AcDbLine
 10
52799.60384036639
 20
3748.577529610833
 11
52799.60384036639
 21
3597.577529610833
  0
LINE
  5
218
100
AcDbEntity
  8
sezioni
  6
ByLayer
 62
  256
370
   -1
100
AcDbLine
 10
53129.60384036639
 20
3748.577529610833
 11
52799.60384036639
 21
3748.577529610833
  0
LINE
  5
219
100
AcDbEntity
  8
sezioni
  6
ByLayer
 62
  256
370
   -1
100
AcDbLine
 10
53304.60384036639
 20
3748.577529610833
 11
53219.60384036639
 21
3748.577529610833
  0
LINE
  5
21A
100
AcDbEntity
  8
sezioni
  6
ByLayer
 62
  256
370
   -1
100
AcDbLine
 10
51259.60384036639
 20
3020.536649968818
 11
51259.60384036639
 21
3009.577529610834
  0
LINE
  5
21B
100
AcDbEntity
  8
sezioni
  6
ByLayer
 62
  256
370
   -1
100
AcDbLine
 10
51259.6038403664
 20
3356.577529610833
 11
51259.60384036639
 21
3090.536649968817
  0
LINE
  5
21C
100
AcDbEntity
  8
sezioni
  6
ByLayer
 62
  256
370
   -1
100
AcDbLine
 10
51513.60384036639
 20
3369.577529610833
 11
51513.60384036639
 21
3356.577529610832
  0
LINE
  5
21D
100
AcDbEntity
  8
sezioni
  6
ByLayer
 62
  256
370
   -1
100
AcDbLine
 10
51513.60384036639
 20
3459.577529610834
 11
51513.60384036639
 21
3449.577529610833
  0
LINE
  5
21E
100
AcDbEntity
  8
sezioni
  6
ByLayer
 62
  256
370
   -1
100
AcDbLine
 10
51513.60384036639
 20
3494.577529610833
 11
51513.60384036639
 21
3488.577529610834
  0
LINE
  5
21F
100
AcDbEntity
  8
sezioni
  6
ByLayer
 62
  256
370
   -1
100
AcDbLine
 10
51513.60384036639
 20
3587.577529610833
 11
51513.60384036639
 21
3574.577529610833
  0
LINE
  5
220
100
AcDbEntity
  8
sezioni
  6
ByLayer
 62
  256
370
   -1
100
AcDbLine
 10
51259.60384036639
 20
3888.577529610834
 11
51259.60384036639
 21
3587.577529610833
  0
LINE
  5
221
100
AcDbEntity
  8
sezioni
  6
ByLayer
 62
  256
370
   -1
100
AcDbLine
 10
50841.60384036639
 20
3459.577529610834
 11
50841.60384036639
 21
3009.577529610834
  0
LINE
  5
222
100
AcDbEntity
  8
sezioni
  6
ByLayer
 62
  256
370
   -1
100
AcDbLine
 10
50841.60384036639
 20
3544.577529610833
 11
50841.60384036639
 21
3488.577529610834
  0
LINE
  5
223
100
AcDbEntity
  8
sezioni
  6
ByLayer
 62
  256
370
   -1
100
AcDbLine
 10
50841.60384036639
 20
3744.577529610833
 11
50841.60384036639
 21
3634.577529610834
  0
LINE
  5
224
100
AcDbEntity
  8
sezioni
  6
ByLayer
 62
  256
370
   -1
100
AcDbLine
 10
50841.60384036639
 20
3888.577529610834
 11
50841.60384036639
 21
3834.577529610834
  0
LINE
  5
225
100
AcDbEntity
  8
sezioni
  6
ByLayer
 62
  256
370
   -1
100
AcDbLine
 10
50799.60384036639
 20
3187.577529610833
 11
50799.60384036639
 21
2967.577529610833
  0
LINE
  5
226
100
AcDbEntity
  8
sezioni
  6
ByLayer
 62
  256
370
   -1
100
AcDbLine
 10
50799.60384036639
 20
3544.577529610833
 11
50799.60384036639
 21
3270.577529610834
  0
LINE
  5
227
100
AcDbEntity
  8
sezioni
  6
ByLayer
 62
  256
370
   -1
100
AcDbLine
 10
50799.60384036639
 20
3744.577529610833
 11
50799.60384036639
 21
3634.577529610834
  0
LINE
  5
228
100
AcDbEntity
  8
sezioni
  6
ByLayer
 62
  256
370
   -1
100
AcDbLine
 10
50799.60384036639
 20
3931.577529610834
 11
50799.60384036639
 21
3834.577529610834
  0
LINE
  5
229
100
AcDbEntity
  8
sezioni
  6
ByLayer
 62
  256
370
   -1
100
AcDbLine
 10
52856.60384036639
 20
2975.577529610833
 11
52856.60384036639
 21
2745.577529610833
  0
LINE
  5
22A
100
AcDbEntity
  8
sezioni
  6
ByLayer
 62
  256
370
   -1
100
AcDbLine
 10
52856.60384036639
 20
3333.577529610832
 11
52856.60384036639
 21
3055.577529610833
  0
LINE
  5
22B
100
AcDbEntity
  8
sezioni
  6
ByLayer
 62
  256
370
   -1
100
AcDbLine
 10
52856.60384036638
 20
3453.577529610833
 11
52856.60384036637
 21
3343.577529610832
  0
LINE
  5
22C
100
AcDbEntity
  8
sezioni
  6
ByLayer
 62
  256
370
   -1
100
AcDbLine
 10
52856.60384036638
 20
3565.577529610833
 11
52856.60384036638
 21
3533.577529610833
  0
LINE
  5
22D
100
AcDbEntity
  8
sezioni
  6
ByLayer
 62
  256
370
   -1
100
AcDbLine
 10
52832.60384036639
 20
2975.577529610833
 11
52832.60384036639
 21
2597.577529610833
  0
LINE
  5
22E
100
AcDbEntity
  8
sezioni
  6
ByLayer
 62
  256
370
   -1
100
AcDbLine
 10
52832.60384036639
 20
3453.577529610833
 11
52832.60384036639
 21
3055.577529610833
  0
LINE
  5
22F
100
AcDbEntity
  8
sezioni
  6
ByLayer
 62
  256
370
   -1
100
AcDbLine
 10
52832.60384036639
 20
3554.577529610833
 11
52832.60384036639
 21
3533.577529610833
  0
LINE
  5
230
100
AcDbEntity
  8
sezioni
  6
ByLayer
 62
  256
370
   -1
100
AcDbLine
 10
52874.60384036639
 20
2703.577529610833
 11
52874.60384036639
 21
2555.577529610833
  0
LINE
  5
231
100
AcDbEntity
  8
sezioni
  6
ByLayer
 62
  256
370
   -1
100
AcDbLine
 10
53262.60384036639
 20
3235.577529610834
 11
53262.60384036639
 21
2745.577529610833
  0
LINE
  5
232
100
AcDbEntity
  8
sezioni
  6
ByLayer
 62
  256
370
   -1
100
AcDbLine
 10
53262.60384036639
 20
3333.577529610833
 11
53262.60384036639
 21
3325.577529610833
  0
LINE
  5
233
100
AcDbEntity
  8
sezioni
  6
ByLayer
 62
  256
370
   -1
100
AcDbLine
 10
53262.60384036639
 20
3425.577529610833
 11
53262.60384036639
 21
3343.577529610833
  0
LINE
  5
234
100
AcDbEntity
  8
sezioni
  6
ByLayer
 62
  256
370
   -1
100
AcDbLine
 10
53262.60384036639
 20
3565.577529610833
 11
53262.60384036639
 21
3515.577529610833
  0
LINE
  5
235
100
AcDbEntity
  8
SCALE-PORTE-FINESTRE
  6
ByLayer
 62
    7
370
   -1
100
AcDbLine
 10
53074.60384036639
 20
3714.577529610834
 11
53074.60384036639
 21
3594.577529610833
  0
LINE
  5
236
100
AcDbEntity
  8
SCALE-PORTE-FINESTRE
  6
ByLayer
 62
    7
370
   -1
100
AcDbLine
 10
53102.60384036639
 20
3714.577529610834
 11
53102.60384036639
 21
3594.577529610833
  0
LINE
  5
237
100
AcDbEntity
  8
SCALE-PORTE-FINESTRE
  6
ByLayer
 62
    7
370
   -1
100
AcDbLine
 10
53130.60384036639
 20
3714.577529610834
 11
53130.60384036639
 21
3594.577529610833
  0
LINE
  5
238
100
AcDbEntity
  8
SCALE-PORTE-FINESTRE
  6
ByLayer
 62
    7
370
   -1
100
AcDbLine
 10
53158.60384036639
 20
3714.577529610834
 11
53158.60384036639
 21
3594.577529610833
  0
LINE
  5
239
100
AcDbEntity
  8
sezioni
  6
ByLayer
 62
  256
370
   -1
100
AcDbLine
 10
52828.60384036639
 20
3714.577529610834
 11
52828.60384036639
 21
3594.577529610833
  0
LINE
  5
23A
100
AcDbEntity
  8
sezioni
  6
ByLayer
 62
  256
370
   -1
100
AcDbLine
 10
53274.60384036639
 20
3714.577529610834
 11
53274.60384036639
 21
3594.577529610833
  0
LINE
  5
23B
100
AcDbEntity
  8
sezioni
  6
ByLayer
 62
  256
370
   -1
100
AcDbLine
 10
53304.60384036639
 20
3097.577529610833
 11
53304.60384036639
 21
2703.577529610833
  0
LINE
  5
23C
100
AcDbEntity
  8
sezioni
  6
ByLayer
 62
  256
370
   -1
100
AcDbLine
 10
53304.60384036639
 20
3235.577529610834
 11
53304.60384036639
 21
3181.577529610833
  0
LINE
  5
23D
100
AcDbEntity
  8
sezioni
  6
ByLayer
 62
  256
370
   -1
100
AcDbLine
 10
53304.60384036639
 20
3425.577529610833
 11
53304.60384036639
 21
3325.577529610833
  0
LINE
  5
23E
100
AcDbEntity
  8
sezioni
  6
ByLayer
 62
  256
370
   -1
100
AcDbLine
 10
53304.60384036639
 20
3748.577529610833
 11
53304.60384036639
 21
3515.577529610833
  0
LINE
  5
23F
100
AcDbEntity
  8
sezioni
  6
ByLayer
 62
  256
370
   -1
100
AcDbLine
 10
52290.60384036639
 20
3459.577529610834
 11
52351.60384036639
 21
3459.577529610834
  0
LINE
  5
240
100
AcDbEntity
  8
sezioni
  6
ByLayer
 62
  256
370
   -1
100
AcDbLine
 10
52183.60384036641
 20
3459.577529610833
 11
52220.60384036639
 21
3459.577529610834
  0
LINE
  5
241
100
AcDbEntity
  8
sezioni
  6
ByLayer
 62
  256
370
   -1
100
AcDbLine
 10
51728.60384036639
 20
3459.577529610834
 11
52172.60384036639
 21
3459.577529610833
  0
LINE
  5
242
100
AcDbEntity
  8
sezioni
  6
ByLayer
 62
  256
370
   -1
100
AcDbLine
 10
50841.60384036639
 20
3459.577529610834
 11
51513.60384036639
 21
3459.577529610834
  0
LINE
  5
243
100
AcDbEntity
  8
sezioni
  6
ByLayer
 62
  256
370
   -1
100
AcDbLine
 10
52290.60384036639
 20
3488.577529610834
 11
52322.60384036639
 21
3488.577529610834
  0
LINE
  5
244
100
AcDbEntity
  8
sezioni
  6
ByLayer
 62
  256
370
   -1
100
AcDbLine
 10
52192.60384036639
 20
3488.577529610834
 11
52220.60384036639
 21
3488.577529610834
  0
LINE
  5
245
100
AcDbEntity
  8
sezioni
  6
ByLayer
 62
  256
370
   -1
100
AcDbLine
 10
51752.60384036639
 20
3488.577529610834
 11
52172.60384036639
 21
3488.577529610834
  0
LINE
  5
246
100
AcDbEntity
  8
sezioni
  6
ByLayer
 62
  256
370
   -1
100
AcDbLine
 10
50841.60384036639
 20
3488.577529610834
 11
51513.60384036639
 21
3488.577529610834
  0
LINE
  5
247
100
AcDbEntity
  8
sezioni
  6
ByLayer
 62
  256
370
   -1
100
AcDbLine
 10
51525.60384036639
 20
3587.577529610833
 11
51728.60384036639
 21
3587.577529610833
  0
LINE
  5
248
100
AcDbEntity
  8
sezioni
  6
ByLayer
 62
  256
370
   -1
100
AcDbLine
 10
51515.60384036639
 20
3613.577529610834
 11
51728.60384036639
 21
3613.577529610834
  0
LINE
  5
249
100
AcDbEntity
  8
sezioni
  6
ByLayer
 62
  256
370
   -1
100
AcDbLine
 10
51362.60384036639
 20
3613.577529610834
 11
51498.60384036639
 21
3613.577529610831
  0
LINE
  5
24A
100
AcDbEntity
  8
sezioni
  6
ByLayer
 62
  256
370
   -1
100
AcDbLine
 10
51282.60384036639
 20
3613.577529610834
 11
51292.6038403664
 21
3613.577529610834
  0
LINE
  5
24B
100
AcDbEntity
  8
sezioni
  6
ByLayer
 62
  256
370
   -1
100
AcDbLine
 10
52345.60384036639
 20
3888.577529610834
 11
52372.60384036638
 21
3888.577529610834
  0
LINE
  5
24C
100
AcDbEntity
  8
sezioni
  6
ByLayer
 62
  256
370
   -1
100
AcDbLine
 10
52192.60384036639
 20
3888.577529610834
 11
52255.60384036638
 21
3888.577529610834
  0
LINE
  5
24D
100
AcDbEntity
  8
sezioni
  6
ByLayer
 62
  256
370
   -1
100
AcDbLine
 10
52105.60384036639
 20
3888.577529610834
 11
52172.60384036639
 21
3888.577529610834
  0
LINE
  5
24E
100
AcDbEntity
  8
sezioni
  6
ByLayer
 62
  256
370
   -1
100
AcDbLine
 10
51908.60384036638
 20
3888.577529610834
 11
52015.60384036638
 21
3888.577529610834
  0
LINE
  5
24F
100
AcDbEntity
  8
sezioni
  6
ByLayer
 62
  256
370
   -1
100
AcDbLine
 10
51752.60384036639
 20
3888.577529610834
 11
51818.60384036638
 21
3888.577529610834
  0
LINE
  5
250
100
AcDbEntity
  8
sezioni
  6
ByLayer
 62
  256
370
   -1
100
AcDbLine
 10
51647.60384036639
 20
3888.577529610834
 11
51728.60384036639
 21
3888.577529610834
  0
LINE
  5
251
100
AcDbEntity
  8
sezioni
  6
ByLayer
 62
  256
370
   -1
100
AcDbLine
 10
51515.60384036639
 20
3888.577529610834
 11
51557.60384036639
 21
3888.577529610834
  0
LINE
  5
252
100
AcDbEntity
  8
sezioni
  6
ByLayer
 62
  256
370
   -1
100
AcDbLine
 10
51457.60384036639
 20
3888.577529610834
 11
51498.60384036639
 21
3888.577529610834
  0
LINE
  5
253
100
AcDbEntity
  8
sezioni
  6
ByLayer
 62
  256
370
   -1
100
AcDbLine
 10
51282.60384036638
 20
3888.577529610834
 11
51367.60384036639
 21
3888.577529610834
  0
LINE
  5
254
100
AcDbEntity
  8
sezioni
  6
ByLayer
 62
  256
370
   -1
100
AcDbLine
 10
50841.60384036639
 20
3888.577529610834
 11
51259.60384036639
 21
3888.577529610834
  0
LINE
  5
255
100
AcDbEntity
  8
sezioni
  6
ByLayer
 62
  256
370
   -1
100
AcDbLine
 10
52345.60384036639
 20
3931.577529610834
 11
52402.60384036639
 21
3931.577529610834
  0
LINE
  5
256
100
AcDbEntity
  8
sezioni
  6
ByLayer
 62
  256
370
   -1
100
AcDbLine
 10
52204.60384036639
 20
3931.577529610834
 11
52255.60384036639
 21
3931.577529610834
  0
LINE
  5
257
100
AcDbEntity
  8
sezioni
  6
ByLayer
 62
  256
370
   -1
100
AcDbLine
 10
52105.60384036639
 20
3931.577529610834
 11
52121.60384036639
 21
3931.577529610834
  0
LINE
  5
258
100
AcDbEntity
  8
sezioni
  6
ByLayer
 62
  256
370
   -1
100
AcDbLine
 10
51908.60384036638
 20
3931.577529610834
 11
52015.60384036638
 21
3931.577529610834
  0
LINE
  5
259
100
AcDbEntity
  8
sezioni
  6
ByLayer
 62
  256
370
   -1
100
AcDbLine
 10
51647.60384036639
 20
3931.577529610834
 11
51818.60384036638
 21
3931.577529610834
  0
LINE
  5
25A
100
AcDbEntity
  8
sezioni
  6
ByLayer
 62
  256
370
   -1
100
AcDbLine
 10
51457.60384036639
 20
3931.577529610834
 11
51557.60384036639
 21
3931.577529610834
  0
LINE
  5
25B
100
AcDbEntity
  8
sezioni
  6
ByLayer
 62
  256
370
   -1
100
AcDbLine
 10
51070.60384036639
 20
3931.577529610834
 11
51367.60384036639
 21
3931.577529610834
  0
LINE
  5
25C
100
AcDbEntity
  8
sezioni
  6
ByLayer
 62
  256
370
   -1
100
AcDbLine
 10
50799.60384036639
 20
3931.577529610834
 11
50986.60384036639
 21
3931.577529610834
  0
TEXT
  5
25D
100
AcDbEntity
  8
TESTI
  6
ByLayer
 62
  256
370
   -1
100
AcDbText
 10
53025.2598275381
 20
2988.164475016907
 30
0
 40
20
  1
sala colazioni
 50
0
 41
1
 51
0
  7
romans
 71
    0
 72
    1
 11
53025.2598275381
 21
2988.164475016907
 31
0
210
0
220
0
230
1
100
AcDbText
  0
TEXT
  5
25E
100
AcDbEntity
  8
TESTI
  6
ByLayer
 62
  256
370
   -1
100
AcDbText
 10
52599.58446076199
 20
2892.572485122772
 30
0
 40
20
  1
mq. 47.40
 50
0
 41
1
 51
0
  7
romans
 71
    0
 72
    1
 11
52599.58446076199
 21
2892.572485122772
 31
0
210
0
220
0
230
1
100
AcDbText
  0
LWPOLYLINE
  5
25F
100
AcDbEntity
  8
AREE LEONARDO
  6
ByLayer
 62
    6
370
   -1
100
AcDbPolyline
 90
    4
 70
    1
 43
0
 10
51873.60384036638
 20
3288.577529610833
 10
51525.60384036639
 20
3288.577529610833
 10
51525.60384036639
 20
2886.577529610833
 10
51873.60384036638
 20
2886.577529610833
  0
LWPOLYLINE
  5
260
100
AcDbEntity
  8
AREE LEONARDO
  6
ByLayer
 62
    1
370
   -1
100
AcDbPolyline
 90
    4
 70
    1
 43
0
 10
52028.65411292137
 20
3084.562418373066
 10
52088.65411292137
 20
3084.562418373066
 10
52088.65411292137
 20
3024.562418373066
 10
52028.65411292137
 20
3024.562418373066
  0
LWPOLYLINE
  5
261
100
AcDbEntity
  8
AREE LEONARDO
  6
ByLayer
 62
  256
370
   -1
100
AcDbPolyline
 90
    6
 70
    1
 43
0
 10
51031.57697094347
 20
3951.268772176878
 10
51259.60384036639
 20
3888.577529610834
 10
51259.60384036639
 20
3587.577529610833
 10
51513.60384036639
 20
3587.577529610833
 10
51513.60384036639
 20
3488.577529610834
 10
51125.65479885244
 20
3507.221424446524
  0
LWPOLYLINE
  5
262
100
AcDbEntity
  8
AREE LEONARDO
  6
ByLayer
 62
  256
370
   -1
100
AcDbPolyline
 90
    6
 70
    1
 43
0
 10
50348.63602212337
 20
3745.574126454113
 10
51008.99829224531
 20
3992.663016456826
 10
51125.65479885244
 20
3405.617370304833
 10
50768.15905279834
 20
3420.669822770269
 10
50766.63602212337
 20
3295.574126454113
 10
50348.63602212337
 20
3295.574126454113
  0
LINE
  5
263
100
AcDbEntity
  8
AREE LEONARDO
  6
ByLayer
 62
  256
370
   -1
100
AcDbLine
 10
51894.6115911305
 20
3574.714661105771
 11
52050.5181495588
 21
3738.045341363978
  0
LINE
  5
264
100
AcDbEntity
  8
AREE LEONARDO
  6
ByLayer
 62
  256
370
   -1
100
AcDbLine
 10
52451.4207283744
 20
3274.03772699407
 11
52696.41674876171
 21
3110.707046735863
  0
LWPOLYLINE
  5
265
100
AcDbEntity
  8
AREE LEONARDO
  6
ByLayer
 62
    3
370
   -1
100
AcDbPolyline
 90
    4
 70
    1
 43
0
 10
52856.60384036637
 20
3343.577529610832
 10
53262.60384036639
 20
3343.577529610832
 10
53262.60384036639
 20
3565.577529610833
 10
52822.62681987032
 20
3927.360448026901
  0
LINE
  5
266
100
AcDbEntity
  8
AREE LEONARDO
  6
ByLayer
 62
  256
370
   -1
100
AcDbLine
 10
50595.39027089476
 20
3708.348854044305
 11
50840.38629128208
 21
3812.286559663164
  0
LINE
  5
267
100
AcDbEntity
  8
AREE LEONARDO
  6
ByLayer
 62
  256
370
   -1
100
AcDbLine
 10
52974.24875198051
 20
3422.512674144107
 11
52922.85246457422
 21
3749.181524108856
  0
ENDSEC
  0
SECTION
  2
OBJECTS
  0
DICTIONARY
  5
C
330
0
100
AcDbDictionary
281
    1
  3
ACAD_GROUP
350
D
  0
DICTIONARY
  5
D
330
C
100
AcDbDictionary
281
    1
  0
ENDSEC
  0
EOF
