  0
SECTION
  2
HEADER
  9
$ACADVER
  1
AC1032
  9
$ACADMAINTVER
 90
4
  9
$DWGCODEPAGE
  3
ANSI_1252
  9
$LASTSAVEDBY
  1
ezdxf
  9
$REQUIREDVERSIONS
160
0
  9
$INSBASE
 10
0.0
 20
0.0
 30
0.0
  9
$EXTMIN
 10
1e+20
 20
1e+20
 30
1e+20
  9
$EXTMAX
 10
-1e+20
 20
-1e+20
 30
-1e+20
  9
$LIMMIN
 10
0.0
 20
0.0
  9
$LIMMAX
 10
420.0
 20
297.0
  9
$ORTHOMODE
 70
0
  9
$REGENMODE
 70
1
  9
$FILLMODE
 70
1
  9
$QTEXTMODE
 70
0
  9
$MIRRTEXT
 70
1
  9
$LTSCALE
 40
1.0
  9
$ATTMODE
 70
1
  9
$TEXTSIZE
 40
2.5
  9
$TRACEWID
 40
1.0
  9
$TEXTSTYLE
  7
Standard
  9
$CLAYER
  8
0
  9
$CELTYPE
  6
ByLayer
  9
$CECOLOR
 62
256
  9
$CELTSCALE
 40
1.0
  9
$DISPSILH
 70
0
  9
$DIMSCALE
 40
1.0
  9
$DIMASZ
 40
2.5
  9
$DIMEXO
 40
0.625
  9
$DIMDLI
 40
3.75
  9
$DIMRND
 40
0.0
  9
$DIMDLE
 40
0.0
  9
$DIMEXE
 40
1.25
  9
$DIMTP
 40
0.0
  9
$DIMTM
 40
0.0
  9
$DIMTXT
 40
2.5
  9
$DIMCEN
 40
2.5
  9
$DIMTSZ
 40
0.0
  9
$DIMTOL
 70
0
  9
$DIMLIM
 70
0
  9
$DIMTIH
 70
0
  9
$DIMTOH
 70
0
  9
$DIMSE1
 70
0
  9
$DIMSE2
 70
0
  9
$DIMTAD
 70
1
  9
$DIMZIN
 70
8
  9
$DIMBLK
  1

  9
$DIMASO
 70
1
  9
$DIMSHO
 70
1
  9
$DIMPOST
  1

  9
$DIMAPOST
  1

  9
$DIMALT
 70
0
  9
$DIMALTD
 70
3
  9
$DIMALTF
 40
0.03937007874
  9
$DIMLFAC
 40
1.0
  9
$DIMTOFL
 70
1
  9
$DIMTVP
 40
0.0
  9
$DIMTIX
 70
0
  9
$DIMSOXD
 70
0
  9
$DIMSAH
 70
0
  9
$DIMBLK1
  1

  9
$DIMBLK2
  1

  9
$DIMSTYLE
  2
ISO-25
  9
$DIMCLRD
 70
0
  9
$DIMCLRE
 70
0
  9
$DIMCLRT
 70
0
  9
$DIMTFAC
 40
1.0
  9
$DIMGAP
 40
0.625
  9
$DIMJUST
 70
0
  9
$DIMSD1
 70
0
  9
$DIMSD2
 70
0
  9
$DIMTOLJ
 70
0
  9
$DIMTZIN
 70
8
  9
$DIMALTZ
 70
0
  9
$DIMALTTZ
 70
0
  9
$DIMUPT
 70
0
  9
$DIMDEC
 70
2
  9
$DIMTDEC
 70
2
  9
$DIMALTU
 70
2
  9
$DIMALTTD
 70
3
  9
$DIMTXSTY
  7
Standard
  9
$DIMAUNIT
 70
0
  9
$DIMADEC
 70
0
  9
$DIMALTRND
 40
0.0
  9
$DIMAZIN
 70
0
  9
$DIMDSEP
 70
44
  9
$DIMATFIT
 70
3
  9
$DIMFRAC
 70
0
  9
$DIMLDRBLK
  1

  9
$DIMLUNIT
 70
2
  9
$DIMLWD
 70
-2
  9
$DIMLWE
 70
-2
  9
$DIMTMOVE
 70
0
  9
$DIMFXL
 40
1.0
  9
$DIMFXLON
 70
0
  9
$DIMJOGANG
 40
0.785398163397
  9
$DIMTFILL
 70
0
  9
$DIMTFILLCLR
 70
0
  9
$DIMARCSYM
 70
0
  9
$DIMLTYPE
  6

  9
$DIMLTEX1
  6

  9
$DIMLTEX2
  6

  9
$DIMTXTDIRECTION
 70
0
  9
$LUNITS
 70
2
  9
$LUPREC
 70
4
  9
$SKETCHINC
 40
1.0
  9
$FILLETRAD
 40
10.0
  9
$AUNITS
 70
0
  9
$AUPREC
 70
2
  9
$MENU
  1
.
  9
$ELEVATION
 40
0.0
  9
$PELEVATION
 40
0.0
  9
$THICKNESS
 40
0.0
  9
$LIMCHECK
 70
0
  9
$CHAMFERA
 40
0.0
  9
$CHAMFERB
 40
0.0
  9
$CHAMFERC
 40
0.0
  9
$CHAMFERD
 40
0.0
  9
$SKPOLY
 70
0
  9
$TDCREATE
 40
2460263.9004050926
  9
$TDUCREATE
 40
2458532.153996898
  9
$TDUPDATE
 40
2460263.9004050926
  9
$TDUUPDATE
 40
2458532.1544311
  9
$TDINDWG
 40
0.0
  9
$TDUSRTIMER
 40
0.0
  9
$USRTIMER
 70
1
  9
$ANGBASE
 50
0.0
  9
$ANGDIR
 70
0
  9
$PDMODE
 70
0
  9
$PDSIZE
 40
0.0
  9
$PLINEWID
 40
0.0
  9
$SPLFRAME
 70
0
  9
$SPLINETYPE
 70
6
  9
$SPLINESEGS
 70
8
  9
$HANDSEED
  5
59
  9
$SURFTAB1
 70
6
  9
$SURFTAB2
 70
6
  9
$SURFTYPE
 70
6
  9
$SURFU
 70
6
  9
$SURFV
 70
6
  9
$UCSBASE
  2

  9
$UCSNAME
  2

  9
$UCSORG
 10
0.0
 20
0.0
 30
0.0
  9
$UCSXDIR
 10
1.0
 20
0.0
 30
0.0
  9
$UCSYDIR
 10
0.0
 20
1.0
 30
0.0
  9
$UCSORTHOREF
  2

  9
$UCSORTHOVIEW
 70
0
  9
$UCSORGTOP
 10
0.0
 20
0.0
 30
0.0
  9
$UCSORGBOTTOM
 10
0.0
 20
0.0
 30
0.0
  9
$UCSORGLEFT
 10
0.0
 20
0.0
 30
0.0
  9
$UCSORGRIGHT
 10
0.0
 20
0.0
 30
0.0
  9
$UCSORGFRONT
 10
0.0
 20
0.0
 30
0.0
  9
$UCSORGBACK
 10
0.0
 20
0.0
 30
0.0
  9
$PUCSBASE
  2

  9
$PUCSNAME
  2

  9
$PUCSORG
 10
0.0
 20
0.0
 30
0.0
  9
$PUCSXDIR
 10
1.0
 20
0.0
 30
0.0
  9
$PUCSYDIR
 10
0.0
 20
1.0
 30
0.0
  9
$PUCSORTHOREF
  2

  9
$PUCSORTHOVIEW
 70
0
  9
$PUCSORGTOP
 10
0.0
 20
0.0
 30
0.0
  9
$PUCSORGBOTTOM
 10
0.0
 20
0.0
 30
0.0
  9
$PUCSORGLEFT
 10
0.0
 20
0.0
 30
0.0
  9
$PUCSORGRIGHT
 10
0.0
 20
0.0
 30
0.0
  9
$PUCSORGFRONT
 10
0.0
 20
0.0
 30
0.0
  9
$PUCSORGBACK
 10
0.0
 20
0.0
 30
0.0
  9
$USERI1
 70
0
  9
$USERI2
 70
0
  9
$USERI3
 70
0
  9
$USERI4
 70
0
  9
$USERI5
 70
0
  9
$USERR1
 40
0.0
  9
$USERR2
 40
0.0
  9
$USERR3
 40
0.0
  9
$USERR4
 40
0.0
  9
$USERR5
 40
0.0
  9
$WORLDVIEW
 70
1
  9
$SHADEDGE
 70
3
  9
$SHADEDIF
 70
70
  9
$TILEMODE
 70
1
  9
$MAXACTVP
 70
64
  9
$PINSBASE
 10
0.0
 20
0.0
 30
0.0
  9
$PLIMCHECK
 70
0
  9
$PEXTMIN
 10
1e+20
 20
1e+20
 30
1e+20
  9
$PEXTMAX
 10
-1e+20
 20
-1e+20
 30
-1e+20
  9
$PLIMMIN
 10
0.0
 20
0.0
  9
$PLIMMAX
 10
420.0
 20
297.0
  9
$UNITMODE
 70
0
  9
$VISRETAIN
 70
1
  9
$PLINEGEN
 70
0
  9
$PSLTSCALE
 70
1
  9
$TREEDEPTH
 70
3020
  9
$CMLSTYLE
  2
Standard
  9
$CMLJUST
 70
0
  9
$CMLSCALE
 40
20.0
  9
$PROXYGRAPHICS
 70
1
  9
$MEASUREMENT
 70
1
  9
$CELWEIGHT
370
-1
  9
$ENDCAPS
280
0
  9
$JOINSTYLE
280
0
  9
$LWDISPLAY
290
0
  9
$INSUNITS
 70
6
  9
$HYPERLINKBASE
  1

  9
$STYLESHEET
  1

  9
$XEDIT
290
1
  9
$CEPSNTYPE
380
0
  9
$PSTYLEMODE
290
1
  9
$FINGERPRINTGUID
  2
{E32D319F-3912-4B6B-B040-7407F0CC81DF}
  9
$VERSIONGUID
  2
{8101D55B-51DC-444B-A817-03242FA5632A}
  9
$EXTNAMES
290
1
  9
$PSVPSCALE
 40
0.0
  9
$OLESTARTUP
290
0
  9
$SORTENTS
280
127
  9
$INDEXCTL
280
0
  9
$HIDETEXT
280
1
  9
$XCLIPFRAME
280
0
  9
$HALOGAP
280
0
  9
$OBSCOLOR
 70
257
  9
$OBSLTYPE
280
0
  9
$INTERSECTIONDISPLAY
280
0
  9
$INTERSECTIONCOLOR
 70
257
  9
$DIMASSOC
280
2
  9
$PROJECTNAME
  1

  9
$CAMERADISPLAY
290
0
  9
$LENSLENGTH
 40
50.0
  9
$CAMERAHEIGHT
 40
0.0
  9
$STEPSPERSEC
 40
24.0
  9
$STEPSIZE
 40
100.0
  9
$3DDWFPREC
 40
2.0
  9
$PSOLWIDTH
 40
0.005
  9
$PSOLHEIGHT
 40
0.08
  9
$LOFTANG1
 40
1.570796326795
  9
$LOFTANG2
 40
1.570796326795
  9
$LOFTMAG1
 40
0.0
  9
$LOFTMAG2
 40
0.0
  9
$LOFTPARAM
 70
7
  9
$LOFTNORMALS
280
1
  9
$LATITUDE
 40
37.795
  9
$LONGITUDE
 40
-122.394
  9
$NORTHDIRECTION
 40
0.0
  9
$TIMEZONE
 70
-8000
  9
$LIGHTGLYPHDISPLAY
280
1
  9
$TILEMODELIGHTSYNCH
280
1
  9
$CMATERIAL
347
20
  9
$SOLIDHIST
280
0
  9
$SHOWHIST
280
1
  9
$DWFFRAME
280
2
  9
$DGNFRAME
280
2
  9
$REALWORLDSCALE
290
1
  9
$INTERFERECOLOR
 62
256
  9
$CSHADOW
280
0
  9
$SHADOWPLANELOCATION
 40
0.0
  0
ENDSEC
  0
SECTION
  2
CLASSES
  0
CLASS
  1
ACDBDICTIONARYWDFLT
  2
AcDbDictionaryWithDefault
  3
ObjectDBX Classes
 90
0
 91
0
280
0
281
0
  0
CLASS
  1
SUN
  2
AcDbSun
  3
SCENEOE
 90
1153
 91
0
280
0
281
0
  0
CLASS
  1
VISUALSTYLE
  2
AcDbVisualStyle
  3
ObjectDBX Classes
 90
4095
 91
0
280
0
281
0
  0
CLASS
  1
MATERIAL
  2
AcDbMaterial
  3
ObjectDBX Classes
 90
1153
 91
0
280
0
281
0
  0
CLASS
  1
SCALE
  2
AcDbScale
  3
ObjectDBX Classes
 90
1153
 91
0
280
0
281
0
  0
CLASS
  1
TABLESTYLE
  2
AcDbTableStyle
  3
ObjectDBX Classes
 90
4095
 91
0
280
0
281
0
  0
CLASS
  1
MLEADERSTYLE
  2
AcDbMLeaderStyle
  3
ACDB_MLEADERSTYLE_CLASS
 90
4095
 91
0
280
0
281
0
  0
CLASS
  1
DICTIONARYVAR
  2
AcDbDictionaryVar
  3
ObjectDBX Classes
 90
0
 91
0
280
0
281
0
  0
CLASS
  1
CELLSTYLEMAP
  2
AcDbCellStyleMap
  3
ObjectDBX Classes
 90
1152
 91
0
280
0
281
0
  0
CLASS
  1
MENTALRAYRENDERSETTINGS
  2
AcDbMentalRayRenderSettings
  3
SCENEOE
 90
1024
 91
0
280
0
281
0
  0
CLASS
  1
ACDBDETAILVIEWSTYLE
  2
AcDbDetailViewStyle
  3
ObjectDBX Classes
 90
1025
 91
0
280
0
281
0
  0
CLASS
  1
ACDBSECTIONVIEWSTYLE
  2
AcDbSectionViewStyle
  3
ObjectDBX Classes
 90
1025
 91
0
280
0
281
0
  0
CLASS
  1
RASTERVARIABLES
  2
AcDbRasterVariables
  3
ISM
 90
0
 91
0
280
0
281
0
  0
CLASS
  1
LAYOUT
  2
AcDbLayout
  3
ObjectDBX Classes
 90
0
 91
0
280
0
281
0
  0
CLASS
  1
ACDBPLACEHOLDER
  2
AcDbPlaceHolder
  3
ObjectDBX Classes
 90
0
 91
0
280
0
281
0
  0
ENDSEC
  0
SECTION
  2
TABLES
  0
TABLE
  2
VPORT
  5
8
330
0
100
AcDbSymbolTable
 70
1
  0
VPORT
  5
23
330
8
100
AcDbSymbolTableRecord
100
AcDbViewportTableRecord
  2
*Active
 70
0
 10
0.0
 20
0.0
 11
1.0
 21
1.0
 12
0.0
 22
0.0
 13
0.0
 23
0.0
 14
0.5
 24
0.5
 15
0.5
 25
0.5
 16
0.0
 26
0.0
 36
1.0
 17
0.0
 27
0.0
 37
0.0
 40
1000.0
 41
1.34
 42
50.0
 43
0.0
 44
0.0
 50
0.0
 51
0.0
 71
0
 72
1000
 73
1
 74
3
 75
0
 76
0
 77
0
 78
0
281
0
 65
0
146
0.0
  0
ENDTAB
  0
TABLE
  2
LTYPE
  5
2
330
0
100
AcDbSymbolTable
 70
3
  0
LTYPE
  5
24
330
2
100
AcDbSymbolTableRecord
100
AcDbLinetypeTableRecord
  2
ByBlock
 70
0
  3

 72
65
 73
0
 40
0.0
  0
LTYPE
  5
25
330
2
100
AcDbSymbolTableRecord
100
AcDbLinetypeTableRecord
  2
ByLayer
 70
0
  3

 72
65
 73
0
 40
0.0
  0
LTYPE
  5
26
330
2
100
AcDbSymbolTableRecord
100
AcDbLinetypeTableRecord
  2
Continuous
 70
0
  3

 72
65
 73
0
 40
0.0
  0
ENDTAB
  0
TABLE
  2
LAYER
  5
1
330
0
100
AcDbSymbolTable
 70
3
  0
LAYER
  5
27
330
1
100
AcDbSymbolTableRecord
100
AcDbLayerTableRecord
  2
0
 70
0
 62
7
  6
Continuous
370
-3
390
13
347
21
  0
LAYER
  5
28
330
1
100
AcDbSymbolTableRecord
100
AcDbLayerTableRecord
  2
Defpoints
 70
0
 62
7
  6
Continuous
290
0
370
-3
390
13
347
21
  0
LAYER
  5
55
330
1
100
AcDbSymbolTableRecord
100
AcDbLayerTableRecord
  2
AREE LEONARDO
 70
0
 62
5
  6
Continuous
370
-3
390
8
347
B
  0
ENDTAB
  0
TABLE
  2
STYLE
  5
5
330
0
100
AcDbSymbolTable
 70
1
  0
STYLE
  5
29
330
5
100
AcDbSymbolTableRecord
100
AcDbTextStyleTableRecord
  2
Standard
 70
0
 40
0.0
 41
1.0
 50
0.0
 71
0
 42
2.5
  3
txt
  4

  0
ENDTAB
  0
TABLE
  2
VIEW
  5
7
330
0
100
AcDbSymbolTable
 70
0
  0
ENDTAB
  0
TABLE
  2
UCS
  5
6
330
0
100
AcDbSymbolTable
 70
0
  0
ENDTAB
  0
TABLE
  2
APPID
  5
3
330
0
100
AcDbSymbolTable
 70
3
  0
APPID
  5
2A
330
3
100
AcDbSymbolTableRecord
100
AcDbRegAppTableRecord
  2
ACAD
 70
0
  0
APPID
  5
56
330
3
100
AcDbSymbolTableRecord
100
AcDbRegAppTableRecord
  2
HATCHBACKGROUNDCOLOR
 70
0
  0
APPID
  5
57
330
3
100
AcDbSymbolTableRecord
100
AcDbRegAppTableRecord
  2
EZDXF
 70
0
  0
ENDTAB
  0
TABLE
  2
DIMSTYLE
  5
4
330
0
100
AcDbSymbolTable
 70
1
100
AcDbDimStyleTable
  0
DIMSTYLE
105
2B
330
4
100
AcDbSymbolTableRecord
100
AcDbDimStyleTableRecord
  2
Standard
 70
0
 40
1.0
 41
2.5
 42
0.625
 43
3.75
 44
1.25
 45
0.0
 46
0.0
 47
0.0
 48
0.0
 49
2.5
140
2.5
141
2.5
142
0.0
143
0.03937007874
144
1.0
145
0.0
146
1.0
147
0.625
148
0.0
 69
0
 70
0
 71
0
 72
0
 73
0
 74
0
 75
0
 76
0
 77
1
 78
8
 79
3
170
0
171
3
172
1
173
0
174
0
175
0
176
0
177
0
178
0
179
2
271
2
272
2
273
2
274
3
275
0
276
0
277
2
278
44
279
0
280
0
281
0
282
0
283
0
284
8
285
0
286
0
288
0
289
3
290
0
371
-2
372
-2
  0
ENDTAB
  0
TABLE
  2
BLOCK_RECORD
  5
9
330
0
100
AcDbSymbolTable
 70
2
  0
BLOCK_RECORD
  5
17
330
9
100
AcDbSymbolTableRecord
100
AcDbBlockTableRecord
  2
*Model_Space
340
1A
 70
0
280
1
281
0
  0
BLOCK_RECORD
  5
1B
330
9
100
AcDbSymbolTableRecord
100
AcDbBlockTableRecord
  2
*Paper_Space
340
1E
 70
0
280
1
281
0
  0
ENDTAB
  0
ENDSEC
  0
SECTION
  2
BLOCKS
  0
BLOCK
  5
18
330
17
100
AcDbEntity
  8
0
100
AcDbBlockBegin
  2
*Model_Space
 70
0
 10
0.0
 20
0.0
 30
0.0
  3
*Model_Space
  1

  0
ENDBLK
  5
19
330
17
100
AcDbEntity
  8
0
100
AcDbBlockEnd
  0
BLOCK
  5
1C
330
1B
100
AcDbEntity
  8
0
100
AcDbBlockBegin
  2
*Paper_Space
 70
0
 10
0.0
 20
0.0
 30
0.0
  3
*Paper_Space
  1

  0
ENDBLK
  5
1D
330
1B
100
AcDbEntity
  8
0
100
AcDbBlockEnd
  0
ENDSEC
  0
SECTION
  2
ENTITIES
  0
LWPOLYLINE
  5
2F
330
17
100
AcDbEntity
  8
AREE LEONARDO
 62
5
100
AcDbPolyline
 90
31
 70
1
 10
1231.454072280652
 20
489.1274647671762
 10
1263.454072280652
 20
489.1274647671762
 10
1263.454072280652
 20
408.1274647671762
 10
1396.454072280652
 20
408.1274647671762
 10
1396.454072280652
 20
468.1274647671762
 10
1406.454072280652
 20
468.1274647671762
 10
1406.454072280652
 20
408.1274647671762
 10
1519.454072280638
 20
408.1274647671762
 10
1519.454072280652
 20
610.1274647671762
 10
1389.454072280652
 20
610.1274647671762
 10
1389.454072280652
 20
1042.127464767176
 10
1284.454072280638
 20
1042.127464767176
 10
1284.454072280638
 20
600.1274647671762
 10
1066.454072280638
 20
600.1274647671762
 10
1066.454072280638
 20
985.1274647671762
 10
538.4540722806523
 20
985.1274647671762
 10
538.4540722806523
 20
965.1274647671762
 10
301.4540722806523
 20
965.1274647671762
 10
301.4540722806523
 20
470.1274647671762
 10
506.4540722806523
 20
470.1274647671762
 10
506.4540722806523
 20
490.1274647671762
 10
539.4540722806523
 20
490.1274647671762
 10
539.4540722806523
 20
470.1274647671762
 10
932.4540722806523
 20
470.1274647671762
 10
932.4540722806523
 20
408.1274647671762
 10
1059.454072280652
 20
408.1274647671762
 10
1059.454072280652
 20
460.1274647671762
 10
1071.454072280652
 20
460.1274647671762
 10
1071.454072280652
 20
408.1274647671762
 10
1231.454072280652
 20
408.1274647671762
 10
1231.454072280652
 20
489.1274647671762
  0
LWPOLYLINE
  5
30
330
17
100
AcDbEntity
  8
AREE LEONARDO
 62
3
100
AcDbPolyline
 90
4
 70
1
 10
1076.454072280638
 20
985.1274647671762
 10
1274.454072280638
 20
985.1274647671762
 10
1274.454072280638
 20
610.1274647671762
 10
1076.454072280638
 20
610.1274647671762
  0
LWPOLYLINE
  5
31
330
17
100
AcDbEntity
  8
AREE LEONARDO
 62
5
100
AcDbPolyline
 90
4
 70
1
 10
1399.454072280652
 20
1042.127464767176
 10
1779.454072280652
 20
1042.127464767176
 10
1779.454072280652
 20
620.1274647671762
 10
1399.454072280652
 20
620.1274647671762
  0
LWPOLYLINE
  5
32
330
17
100
AcDbEntity
  8
AREE LEONARDO
 62
5
100
AcDbPolyline
 90
4
 70
1
 10
914.4540722806523
 20
-101.8725352328238
 10
1253.454072280652
 20
-101.8725352328238
 10
1253.454072280652
 20
398.1274647671763
 10
914.4540722806523
 20
398.1274647671763
  0
LWPOLYLINE
  5
33
330
17
100
AcDbEntity
  8
AREE LEONARDO
 62
5
100
AcDbPolyline
 90
4
 70
1
 10
1263.454072280652
 20
398.1274647671762
 10
1403.454072280652
 20
398.1274647671762
 10
1403.454072280652
 20
-101.8725352328239
 10
1263.454072280652
 20
-101.8725352328239
  0
LWPOLYLINE
  5
34
330
17
100
AcDbEntity
  8
AREE LEONARDO
 62
5
100
AcDbPolyline
 90
7
 70
1
 10
1413.454072280652
 20
-101.8725352328238
 10
1779.454072280652
 20
-101.872535232815
 10
1779.454072280642
 20
368.1274647671817
 10
1519.454072280638
 20
368.1274647671762
 10
1519.454072280638
 20
398.1274647671762
 10
1413.454072280652
 20
398.1274647671762
 10
1413.454072280652
 20
-101.8725352328238
  0
LWPOLYLINE
  5
35
330
17
100
AcDbEntity
  8
AREE LEONARDO
 62
3
100
AcDbPolyline
 90
7
 70
1
 10
1703.611397071607
 20
590.1274647672053
 10
1703.611397071607
 20
610.1274647671762
 10
1529.454072280652
 20
610.1274647671762
 10
1529.454072280652
 20
378.1274647671762
 10
1779.454044033682
 20
378.1274647671762
 10
1779.454044033682
 20
590.1274647672053
 10
1703.611397071607
 20
590.1274647672053
  0
LWPOLYLINE
  5
36
330
17
100
AcDbEntity
  8
AREE LEONARDO
 62
2
100
AcDbPolyline
 90
4
 70
1
 10
736.0744253337883
 20
850.2685246331731
 10
720.2166603187734
 20
850.2685246331731
 10
720.2166603187734
 20
834.1371181713189
 10
736.0744253337883
 20
834.1371181713189
  0
LWPOLYLINE
  5
37
330
17
100
AcDbEntity
  8
AREE LEONARDO
 62
2
100
AcDbPolyline
 90
4
 70
1
 10
663.5777222046038
 20
528.9708789402073
 10
648.3846539267452
 20
528.9708789402073
 10
648.3846539267452
 20
512.8394724783531
 10
663.5777222046038
 20
512.8394724783531
  0
LWPOLYLINE
  5
38
330
17
100
AcDbEntity
  8
AREE LEONARDO
 62
2
100
AcDbPolyline
 90
4
 70
1
 10
878.486407747204
 20
528.7277898477615
 10
862.6286427321892
 20
528.7277898477615
 10
862.6286427321892
 20
512.5963833859073
 10
878.486407747204
 20
512.5963833859073
  0
LWPOLYLINE
  5
39
330
17
100
AcDbEntity
  8
AREE LEONARDO
 62
2
100
AcDbPolyline
 90
4
 70
1
 10
1006.342273660163
 20
528.9708789402076
 10
989.3479529137148
 20
528.9708789402076
 10
989.3479529137148
 20
512.8394724783534
 10
1006.342273660163
 20
512.8394724783534
  0
LWPOLYLINE
  5
3A
330
17
100
AcDbEntity
  8
AREE LEONARDO
 62
2
100
AcDbPolyline
 90
4
 70
1
 10
1348.822761354022
 20
528.9708789402074
 10
1333.021970345049
 20
528.9708789402074
 10
1333.021970345049
 20
512.8394724783532
 10
1348.822761354022
 20
512.8394724783532
  0
LWPOLYLINE
  5
3B
330
17
100
AcDbEntity
  8
AREE LEONARDO
 62
2
100
AcDbPolyline
 90
4
 70
1
 10
1467.632555286876
 20
529.2139680326532
 10
1450.48796128328
 20
529.2139680326532
 10
1450.48796128328
 20
513.0825615707989
 10
1467.632555286876
 20
513.0825615707989
  0
LWPOLYLINE
  5
3C
330
17
100
AcDbEntity
  8
AREE LEONARDO
 62
2
100
AcDbPolyline
 90
4
 70
1
 10
1299.566501054062
 20
657.4372222338202
 10
1286.137754218431
 20
657.4372222338202
 10
1286.137754218431
 20
643.6130062456707
 10
1299.566501054062
 20
643.6130062456707
  0
LWPOLYLINE
  5
3D
330
17
100
AcDbEntity
  8
AREE LEONARDO
 62
2
100
AcDbPolyline
 90
4
 70
1
 10
1388.705092084508
 20
724.9587137928132
 10
1375.276345248876
 20
724.9587137928132
 10
1375.276345248876
 20
711.1344978046637
 10
1388.705092084508
 20
711.1344978046637
  0
LWPOLYLINE
  5
3E
330
17
100
AcDbEntity
  8
AREE LEONARDO
 62
2
100
AcDbPolyline
 90
4
 70
1
 10
1298.807016490405
 20
790.5727415267957
 10
1285.378269654774
 20
790.5727415267957
 10
1285.378269654774
 20
776.7485255386462
 10
1298.807016490405
 20
776.7485255386462
  0
LWPOLYLINE
  5
3F
330
17
100
AcDbEntity
  8
AREE LEONARDO
 62
2
100
AcDbPolyline
 90
4
 70
1
 10
1387.999496338364
 20
861.2591822835458
 10
1375.68068804327
 20
861.2591822835458
 10
1375.68068804327
 20
847.4349662953963
 10
1387.999496338364
 20
847.4349662953963
  0
LWPOLYLINE
  5
40
330
17
100
AcDbEntity
  8
AREE LEONARDO
 62
2
100
AcDbPolyline
 90
4
 70
1
 10
1298.973947667111
 20
929.1135908279487
 10
1285.545200831479
 20
929.1135908279487
 10
1285.545200831479
 20
915.2893748397992
 10
1298.973947667111
 20
915.2893748397992
  0
LWPOLYLINE
  5
41
330
17
100
AcDbEntity
  8
AREE LEONARDO
 62
2
100
AcDbPolyline
 90
4
 70
1
 10
1388.159572099825
 20
998.8130897884408
 10
1374.730825264194
 20
998.8130897884408
 10
1374.730825264194
 20
984.9888738002913
 10
1388.159572099825
 20
984.9888738002913
  0
LWPOLYLINE
  5
42
330
17
100
AcDbEntity
  8
AREE LEONARDO
 62
2
100
AcDbPolyline
 90
4
 70
1
 10
1599.461757132095
 20
528.3621111803654
 10
1586.033010296463
 20
528.3621111803654
 10
1586.033010296463
 20
514.537895192216
 10
1599.461757132095
 20
514.537895192216
  0
LWPOLYLINE
  5
43
330
17
100
AcDbEntity
  8
AREE LEONARDO
 62
2
100
AcDbPolyline
 90
4
 70
1
 10
1664.254852024095
 20
528.280507786295
 10
1650.826105188463
 20
528.280507786295
 10
1650.826105188463
 20
514.4562917981455
 10
1664.254852024095
 20
514.4562917981455
  0
LWPOLYLINE
  5
44
330
17
100
AcDbEntity
  8
AREE LEONARDO
 62
2
100
AcDbPolyline
 90
4
 70
1
 10
441.566406461945
 20
842.5932244674786
 10
454.066406461945
 20
842.5932244674786
 10
454.066406461945
 20
642.5932244674786
 10
441.566406461945
 20
642.5932244674786
  0
LWPOLYLINE
  5
45
330
17
100
AcDbEntity
  8
AREE LEONARDO
 62
2
100
AcDbPolyline
 90
4
 70
1
 10
1368.444086750565
 20
322.2317316178339
 10
1355.015339914934
 20
322.2317316178339
 10
1355.015339914934
 20
308.4075156296844
 10
1368.444086750565
 20
308.4075156296844
  0
LWPOLYLINE
  5
46
330
17
100
AcDbEntity
  8
AREE LEONARDO
 62
2
100
AcDbPolyline
 90
4
 70
1
 10
1368.516037993181
 20
145.3332901348108
 10
1355.087291157549
 20
145.3332901348108
 10
1355.087291157549
 20
131.5090741466613
 10
1368.516037993181
 20
131.5090741466613
  0
LWPOLYLINE
  5
47
330
17
100
AcDbEntity
  8
AREE LEONARDO
 62
2
100
AcDbPolyline
 90
4
 70
1
 10
1369.607719273685
 20
-5.92736676451295
 10
1356.178972438054
 20
-5.92736676451295
 10
1356.178972438054
 20
-19.75158275266244
 10
1369.607719273685
 20
-19.75158275266244
  0
LWPOLYLINE
  5
48
330
17
100
AcDbEntity
  8
AREE LEONARDO
 62
2
100
AcDbPolyline
 90
4
 70
1
 10
1503.743349279239
 20
4.54413376898128
 10
1490.314602443608
 20
4.54413376898128
 10
1490.314602443608
 20
-9.28008221916821
 10
1503.743349279239
 20
-9.28008221916821
  0
LWPOLYLINE
  5
49
330
17
100
AcDbEntity
  8
AREE LEONARDO
 62
2
100
AcDbPolyline
 90
4
 70
1
 10
1504.180274251941
 20
302.49476241245
 10
1490.751527416309
 20
302.49476241245
 10
1490.751527416309
 20
288.6705464243005
 10
1504.180274251941
 20
288.6705464243005
  0
LWPOLYLINE
  5
4A
330
17
100
AcDbEntity
  8
AREE LEONARDO
 62
2
100
AcDbPolyline
 90
4
 70
1
 10
1527.989453769803
 20
1154.280176222724
 10
1514.560706934171
 20
1154.280176222724
 10
1514.560706934171
 20
1140.455960234574
 10
1527.989453769803
 20
1140.455960234574
  0
LWPOLYLINE
  5
4B
330
17
100
AcDbEntity
  8
AREE LEONARDO
 62
2
100
AcDbPolyline
 90
4
 70
1
 10
1387.175401993517
 20
1154.532636723129
 10
1373.746655157885
 20
1154.532636723129
 10
1373.746655157885
 20
1140.708420734979
 10
1387.175401993517
 20
1140.708420734979
  0
LWPOLYLINE
  5
4C
330
17
100
AcDbEntity
  8
AREE LEONARDO
 62
2
100
AcDbPolyline
 90
4
 70
1
 10
1734.995843635792
 20
1125.563411427242
 10
1721.56709680016
 20
1125.563411427242
 10
1721.56709680016
 20
1111.739195439093
 10
1734.995843635792
 20
1111.739195439093
  0
LWPOLYLINE
  5
4D
330
17
100
AcDbEntity
  8
AREE LEONARDO
 62
3
100
AcDbPolyline
 90
4
 70
1
 10
1284.454072280645
 20
1242.127464767176
 10
1614.454072280652
 20
1242.127464767176
 10
1614.454072280652
 20
1052.127464767176
 10
1284.454072280645
 20
1052.127464767176
  0
LWPOLYLINE
  5
4E
330
17
100
AcDbEntity
  8
AREE LEONARDO
 62
5
100
AcDbPolyline
 90
7
 70
1
 10
1624.454072280652
 20
1242.127464767176
 10
1624.393804857753
 20
1052.052971803926
 10
1779.454072280658
 20
1052.052971803933
 10
1779.454072280652
 20
1190.127464767176
 10
1719.454072280652
 20
1190.127464767176
 10
1719.454072280652
 20
1242.127464767176
 10
1624.454081831482
 20
1242.157586665757
  0
LWPOLYLINE
  5
4F
330
17
100
AcDbEntity
  8
AREE LEONARDO
 62
2
100
AcDbPolyline
 90
4
 70
1
 10
1182.235341293852
 20
867.488696657612
 10
1168.80659445822
 20
867.488696657612
 10
1168.80659445822
 20
853.6644806694625
 10
1182.235341293852
 20
853.6644806694625
  0
LWPOLYLINE
  5
50
330
17
100
AcDbEntity
  8
AREE LEONARDO
 62
2
100
AcDbPolyline
 90
4
 70
1
 10
1182.279174046955
 20
797.3343668996746
 10
1168.850427211323
 20
797.3343668996746
 10
1168.850427211323
 20
783.5101509115251
 10
1182.279174046955
 20
783.5101509115251
  0
LWPOLYLINE
  5
51
330
17
100
AcDbEntity
  8
AREE LEONARDO
 62
2
100
AcDbPolyline
 90
4
 70
1
 10
1182.298116999835
 20
732.5202948351857
 10
1168.869370164203
 20
732.5202948351857
 10
1168.869370164203
 20
718.6960788470362
 10
1182.298116999835
 20
718.6960788470362
  0
LWPOLYLINE
  5
52
330
17
100
AcDbEntity
  8
AREE LEONARDO
 62
1
100
AcDbPolyline
 90
4
 70
1
 10
965.6190297256417
 20
487.9693724288521
 10
1025.619029734955
 20
487.9693724288521
 10
1025.619029734955
 20
427.969372466105
 10
965.6190297256417
 20
427.969372466105
  0
LWPOLYLINE
  5
53
330
17
100
AcDbEntity
  8
AREE LEONARDO
 62
1
100
AcDbPolyline
 90
4
 70
1
 10
1307.995431089915
 20
487.9693724288521
 10
1367.995431099229
 20
487.9693724288521
 10
1367.995431099229
 20
427.969372466105
 10
1307.995431089915
 20
427.969372466105
  0
LWPOLYLINE
  5
54
330
17
100
AcDbEntity
  8
AREE LEONARDO
 62
2
100
AcDbPolyline
 90
4
 70
1
 10
1139.693877467345
 20
594.7910954281353
 10
1307.494805281316
 20
594.7910954281353
 10
1307.494805281316
 20
493.6869302981768
 10
1139.693877467345
 20
493.6869302981768
  0
ENDSEC
  0
SECTION
  2
OBJECTS
  0
DICTIONARY
  5
A
330
0
100
AcDbDictionary
280
0
281
1
  3
ACAD_COLOR
350
B
  3
ACAD_GROUP
350
C
  3
ACAD_LAYOUT
350
D
  3
ACAD_MATERIAL
350
E
  3
ACAD_MLEADERSTYLE
350
F
  3
ACAD_MLINESTYLE
350
10
  3
ACAD_PLOTSETTINGS
350
11
  3
ACAD_PLOTSTYLENAME
350
12
  3
ACAD_SCALELIST
350
14
  3
ACAD_TABLESTYLE
350
15
  3
ACAD_VISUALSTYLE
350
16
  3
EZDXF_META
350
2D
  0
DICTIONARY
  5
B
330
A
100
AcDbDictionary
280
0
281
1
  0
DICTIONARY
  5
C
330
A
100
AcDbDictionary
280
0
281
1
  0
DICTIONARY
  5
D
330
A
100
AcDbDictionary
280
0
281
1
  3
Model
350
1A
  3
Layout1
350
1E
  0
DICTIONARY
  5
E
330
A
100
AcDbDictionary
280
0
281
1
  3
ByBlock
350
1F
  3
ByLayer
350
20
  3
Global
350
21
  0
DICTIONARY
  5
F
330
A
100
AcDbDictionary
280
0
281
1
  3
Standard
350
2C
  0
DICTIONARY
  5
10
330
A
100
AcDbDictionary
280
0
281
1
  3
Standard
350
22
  0
DICTIONARY
  5
11
330
A
100
AcDbDictionary
280
0
281
1
  0
ACDBDICTIONARYWDFLT
  5
12
330
A
100
AcDbDictionary
280
0
281
1
  3
Normal
350
13
100
AcDbDictionaryWithDefault
340
13
  0
ACDBPLACEHOLDER
  5
13
330
12
  0
DICTIONARY
  5
14
330
A
100
AcDbDictionary
280
0
281
1
  0
DICTIONARY
  5
15
330
A
100
AcDbDictionary
280
0
281
1
  0
DICTIONARY
  5
16
330
A
100
AcDbDictionary
280
0
281
1
  0
LAYOUT
  5
1A
330
D
100
AcDbPlotSettings
  1

  2
Adobe PDF
  4
A3
  6

 40
7.5
 41
20.0
 42
7.5
 43
20.0
 44
420.0
 45
297.0
 46
0.0
 47
0.0
 48
0.0
 49
0.0
140
0.0
141
0.0
142
1.0
143
1.0
 70
1024
 72
1
 73
0
 74
5
  7

 75
16
 76
0
 77
2
 78
300
147
1.0
148
0.0
149
0.0
100
AcDbLayout
  1
Model
 70
1
 71
0
 10
0.0
 20
0.0
 11
420.0
 21
297.0
 12
0.0
 22
0.0
 32
0.0
 14
1e+20
 24
1e+20
 34
1e+20
 15
-1e+20
 25
-1e+20
 35
-1e+20
146
0.0
 13
0.0
 23
0.0
 33
0.0
 16
1.0
 26
0.0
 36
0.0
 17
0.0
 27
1.0
 37
0.0
 76
1
330
17
  0
LAYOUT
  5
1E
330
D
100
AcDbPlotSettings
  1

  2
Adobe PDF
  4
A3
  6

 40
7.5
 41
20.0
 42
7.5
 43
20.0
 44
420.0
 45
297.0
 46
0.0
 47
0.0
 48
0.0
 49
0.0
140
0.0
141
0.0
142
1.0
143
1.0
 70
0
 72
1
 73
0
 74
5
  7

 75
16
 76
0
 77
2
 78
300
147
1.0
148
0.0
149
0.0
100
AcDbLayout
  1
Layout1
 70
1
 71
1
 10
0.0
 20
0.0
 11
420.0
 21
297.0
 12
0.0
 22
0.0
 32
0.0
 14
1e+20
 24
1e+20
 34
1e+20
 15
-1e+20
 25
-1e+20
 35
-1e+20
146
0.0
 13
0.0
 23
0.0
 33
0.0
 16
1.0
 26
0.0
 36
0.0
 17
0.0
 27
1.0
 37
0.0
 76
1
330
1B
  0
MATERIAL
  5
1F
102
{ACAD_REACTORS
330
E
102
}
330
E
100
AcDbMaterial
  1
ByBlock
  2

 70
0
 40
1.0
 71
1
 41
1.0
 91
-1023410177
 42
1.0
 72
1
  3

 73
1
 74
1
 75
1
 44
0.5
 73
0
 45
1.0
 46
1.0
 77
1
  4

 78
1
 79
1
170
1
 48
1.0
171
1
  6

172
1
173
1
174
1
140
1.0
141
1.0
175
1
  7

176
1
177
1
178
1
143
1.0
179
1
  8

270
1
271
1
272
1
145
1.0
146
1.0
273
1
  9

274
1
275
1
276
1
 42
1.0
 72
1
  3

 73
1
 74
1
 75
1
 94
63
  0
MATERIAL
  5
20
102
{ACAD_REACTORS
330
E
102
}
330
E
100
AcDbMaterial
  1
ByLayer
  2

 70
0
 40
1.0
 71
1
 41
1.0
 91
-1023410177
 42
1.0
 72
1
  3

 73
1
 74
1
 75
1
 44
0.5
 73
0
 45
1.0
 46
1.0
 77
1
  4

 78
1
 79
1
170
1
 48
1.0
171
1
  6

172
1
173
1
174
1
140
1.0
141
1.0
175
1
  7

176
1
177
1
178
1
143
1.0
179
1
  8

270
1
271
1
272
1
145
1.0
146
1.0
273
1
  9

274
1
275
1
276
1
 42
1.0
 72
1
  3

 73
1
 74
1
 75
1
 94
63
  0
MATERIAL
  5
21
102
{ACAD_REACTORS
330
E
102
}
330
E
100
AcDbMaterial
  1
Global
  2

 70
0
 40
1.0
 71
1
 41
1.0
 91
-1023410177
 42
1.0
 72
1
  3

 73
1
 74
1
 75
1
 44
0.5
 73
0
 45
1.0
 46
1.0
 77
1
  4

 78
1
 79
1
170
1
 48
1.0
171
1
  6

172
1
173
1
174
1
140
1.0
141
1.0
175
1
  7

176
1
177
1
178
1
143
1.0
179
1
  8

270
1
271
1
272
1
145
1.0
146
1.0
273
1
  9

274
1
275
1
276
1
 42
1.0
 72
1
  3

 73
1
 74
1
 75
1
 94
63
  0
MLINESTYLE
  5
22
102
{ACAD_REACTORS
330
10
102
}
330
10
100
AcDbMlineStyle
  2
Standard
 70
0
  3

 62
256
 51
90.0
 52
90.0
 71
2
 49
0.5
 62
256
  6
BYLAYER
 49
-0.5
 62
256
  6
BYLAYER
  0
MLEADERSTYLE
  5
2C
102
{ACAD_REACTORS
330
F
102
}
330
F
100
AcDbMLeaderStyle
179
2
170
2
171
1
172
0
 90
2
 40
0.0
 41
0.0
173
1
 91
-1056964608
 92
-2
290
1
 42
2.0
291
1
 43
8.0
  3
Standard
 44
4.0
300

342
29
174
1
175
1
176
0
178
1
 93
-1056964608
 45
4.0
292
0
297
0
 46
4.0
 94
-1056964608
 47
1.0
 49
1.0
140
1.0
294
1
141
0.0
177
0
142
1.0
295
0
296
0
143
3.75
271
0
272
9
273
9
  0
DICTIONARY
  5
2D
330
A
100
AcDbDictionary
281
1
  3
CREATED_BY_EZDXF
350
2E
  3
WRITTEN_BY_EZDXF
350
58
  0
DICTIONARYVAR
  5
2E
330
2D
100
DictionaryVariables
280
0
  1
1.1.2 @ 2023-11-14T21:36:35.422362+00:00
  0
DICTIONARYVAR
  5
58
330
2D
100
DictionaryVariables
280
0
  1
1.1.2 @ 2023-11-14T21:36:35.426598+00:00
  0
ENDSEC
  0
EOF
