  0
SECTION
  2
HEADER
  9
$ACADVER
  1
AC1032
  9
$ACADMAINTVER
 90
4
  9
$DWGCODEPAGE
  3
ANSI_1252
  9
$LASTSAVEDBY
  1
ezdxf
  9
$REQUIREDVERSIONS
160
0
  9
$INSBASE
 10
0.0
 20
0.0
 30
0.0
  9
$EXTMIN
 10
1e+20
 20
1e+20
 30
1e+20
  9
$EXTMAX
 10
-1e+20
 20
-1e+20
 30
-1e+20
  9
$LIMMIN
 10
0.0
 20
0.0
  9
$LIMMAX
 10
420.0
 20
297.0
  9
$ORTHOMODE
 70
0
  9
$REGENMODE
 70
1
  9
$FILLMODE
 70
1
  9
$QTEXTMODE
 70
0
  9
$MIRRTEXT
 70
1
  9
$LTSCALE
 40
1.0
  9
$ATTMODE
 70
1
  9
$TEXTSIZE
 40
2.5
  9
$TRACEWID
 40
1.0
  9
$TEXTSTYLE
  7
Standard
  9
$CLAYER
  8
0
  9
$CELTYPE
  6
ByLayer
  9
$CECOLOR
 62
256
  9
$CELTSCALE
 40
1.0
  9
$DISPSILH
 70
0
  9
$DIMSCALE
 40
1.0
  9
$DIMASZ
 40
2.5
  9
$DIMEXO
 40
0.625
  9
$DIMDLI
 40
3.75
  9
$DIMRND
 40
0.0
  9
$DIMDLE
 40
0.0
  9
$DIMEXE
 40
1.25
  9
$DIMTP
 40
0.0
  9
$DIMTM
 40
0.0
  9
$DIMTXT
 40
2.5
  9
$DIMCEN
 40
2.5
  9
$DIMTSZ
 40
0.0
  9
$DIMTOL
 70
0
  9
$DIMLIM
 70
0
  9
$DIMTIH
 70
0
  9
$DIMTOH
 70
0
  9
$DIMSE1
 70
0
  9
$DIMSE2
 70
0
  9
$DIMTAD
 70
1
  9
$DIMZIN
 70
8
  9
$DIMBLK
  1

  9
$DIMASO
 70
1
  9
$DIMSHO
 70
1
  9
$DIMPOST
  1

  9
$DIMAPOST
  1

  9
$DIMALT
 70
0
  9
$DIMALTD
 70
3
  9
$DIMALTF
 40
0.03937007874
  9
$DIMLFAC
 40
1.0
  9
$DIMTOFL
 70
1
  9
$DIMTVP
 40
0.0
  9
$DIMTIX
 70
0
  9
$DIMSOXD
 70
0
  9
$DIMSAH
 70
0
  9
$DIMBLK1
  1

  9
$DIMBLK2
  1

  9
$DIMSTYLE
  2
ISO-25
  9
$DIMCLRD
 70
0
  9
$DIMCLRE
 70
0
  9
$DIMCLRT
 70
0
  9
$DIMTFAC
 40
1.0
  9
$DIMGAP
 40
0.625
  9
$DIMJUST
 70
0
  9
$DIMSD1
 70
0
  9
$DIMSD2
 70
0
  9
$DIMTOLJ
 70
0
  9
$DIMTZIN
 70
8
  9
$DIMALTZ
 70
0
  9
$DIMALTTZ
 70
0
  9
$DIMUPT
 70
0
  9
$DIMDEC
 70
2
  9
$DIMTDEC
 70
2
  9
$DIMALTU
 70
2
  9
$DIMALTTD
 70
3
  9
$DIMTXSTY
  7
Standard
  9
$DIMAUNIT
 70
0
  9
$DIMADEC
 70
0
  9
$DIMALTRND
 40
0.0
  9
$DIMAZIN
 70
0
  9
$DIMDSEP
 70
44
  9
$DIMATFIT
 70
3
  9
$DIMFRAC
 70
0
  9
$DIMLDRBLK
  1

  9
$DIMLUNIT
 70
2
  9
$DIMLWD
 70
-2
  9
$DIMLWE
 70
-2
  9
$DIMTMOVE
 70
0
  9
$DIMFXL
 40
1.0
  9
$DIMFXLON
 70
0
  9
$DIMJOGANG
 40
0.785398163397
  9
$DIMTFILL
 70
0
  9
$DIMTFILLCLR
 70
0
  9
$DIMARCSYM
 70
0
  9
$DIMLTYPE
  6

  9
$DIMLTEX1
  6

  9
$DIMLTEX2
  6

  9
$DIMTXTDIRECTION
 70
0
  9
$LUNITS
 70
2
  9
$LUPREC
 70
4
  9
$SKETCHINC
 40
1.0
  9
$FILLETRAD
 40
10.0
  9
$AUNITS
 70
0
  9
$AUPREC
 70
2
  9
$MENU
  1
.
  9
$ELEVATION
 40
0.0
  9
$PELEVATION
 40
0.0
  9
$THICKNESS
 40
0.0
  9
$LIMCHECK
 70
0
  9
$CHAMFERA
 40
0.0
  9
$CHAMFERB
 40
0.0
  9
$CHAMFERC
 40
0.0
  9
$CHAMFERD
 40
0.0
  9
$SKPOLY
 70
0
  9
$TDCREATE
 40
2460263.900173611
  9
$TDUCREATE
 40
2458532.153996898
  9
$TDUPDATE
 40
2460263.900173611
  9
$TDUUPDATE
 40
2458532.1544311
  9
$TDINDWG
 40
0.0
  9
$TDUSRTIMER
 40
0.0
  9
$USRTIMER
 70
1
  9
$ANGBASE
 50
0.0
  9
$ANGDIR
 70
0
  9
$PDMODE
 70
0
  9
$PDSIZE
 40
0.0
  9
$PLINEWID
 40
0.0
  9
$SPLFRAME
 70
0
  9
$SPLINETYPE
 70
6
  9
$SPLINESEGS
 70
8
  9
$HANDSEED
  5
54
  9
$SURFTAB1
 70
6
  9
$SURFTAB2
 70
6
  9
$SURFTYPE
 70
6
  9
$SURFU
 70
6
  9
$SURFV
 70
6
  9
$UCSBASE
  2

  9
$UCSNAME
  2

  9
$UCSORG
 10
0.0
 20
0.0
 30
0.0
  9
$UCSXDIR
 10
1.0
 20
0.0
 30
0.0
  9
$UCSYDIR
 10
0.0
 20
1.0
 30
0.0
  9
$UCSORTHOREF
  2

  9
$UCSORTHOVIEW
 70
0
  9
$UCSORGTOP
 10
0.0
 20
0.0
 30
0.0
  9
$UCSORGBOTTOM
 10
0.0
 20
0.0
 30
0.0
  9
$UCSORGLEFT
 10
0.0
 20
0.0
 30
0.0
  9
$UCSORGRIGHT
 10
0.0
 20
0.0
 30
0.0
  9
$UCSORGFRONT
 10
0.0
 20
0.0
 30
0.0
  9
$UCSORGBACK
 10
0.0
 20
0.0
 30
0.0
  9
$PUCSBASE
  2

  9
$PUCSNAME
  2

  9
$PUCSORG
 10
0.0
 20
0.0
 30
0.0
  9
$PUCSXDIR
 10
1.0
 20
0.0
 30
0.0
  9
$PUCSYDIR
 10
0.0
 20
1.0
 30
0.0
  9
$PUCSORTHOREF
  2

  9
$PUCSORTHOVIEW
 70
0
  9
$PUCSORGTOP
 10
0.0
 20
0.0
 30
0.0
  9
$PUCSORGBOTTOM
 10
0.0
 20
0.0
 30
0.0
  9
$PUCSORGLEFT
 10
0.0
 20
0.0
 30
0.0
  9
$PUCSORGRIGHT
 10
0.0
 20
0.0
 30
0.0
  9
$PUCSORGFRONT
 10
0.0
 20
0.0
 30
0.0
  9
$PUCSORGBACK
 10
0.0
 20
0.0
 30
0.0
  9
$USERI1
 70
0
  9
$USERI2
 70
0
  9
$USERI3
 70
0
  9
$USERI4
 70
0
  9
$USERI5
 70
0
  9
$USERR1
 40
0.0
  9
$USERR2
 40
0.0
  9
$USERR3
 40
0.0
  9
$USERR4
 40
0.0
  9
$USERR5
 40
0.0
  9
$WORLDVIEW
 70
1
  9
$SHADEDGE
 70
3
  9
$SHADEDIF
 70
70
  9
$TILEMODE
 70
1
  9
$MAXACTVP
 70
64
  9
$PINSBASE
 10
0.0
 20
0.0
 30
0.0
  9
$PLIMCHECK
 70
0
  9
$PEXTMIN
 10
1e+20
 20
1e+20
 30
1e+20
  9
$PEXTMAX
 10
-1e+20
 20
-1e+20
 30
-1e+20
  9
$PLIMMIN
 10
0.0
 20
0.0
  9
$PLIMMAX
 10
420.0
 20
297.0
  9
$UNITMODE
 70
0
  9
$VISRETAIN
 70
1
  9
$PLINEGEN
 70
0
  9
$PSLTSCALE
 70
1
  9
$TREEDEPTH
 70
3020
  9
$CMLSTYLE
  2
Standard
  9
$CMLJUST
 70
0
  9
$CMLSCALE
 40
20.0
  9
$PROXYGRAPHICS
 70
1
  9
$MEASUREMENT
 70
1
  9
$CELWEIGHT
370
-1
  9
$ENDCAPS
280
0
  9
$JOINSTYLE
280
0
  9
$LWDISPLAY
290
0
  9
$INSUNITS
 70
6
  9
$HYPERLINKBASE
  1

  9
$STYLESHEET
  1

  9
$XEDIT
290
1
  9
$CEPSNTYPE
380
0
  9
$PSTYLEMODE
290
1
  9
$FINGERPRINTGUID
  2
{52AE4883-8637-4296-9798-57CE6DF799AF}
  9
$VERSIONGUID
  2
{1A7AD212-ECB2-48E4-9D08-FDC2970C8E40}
  9
$EXTNAMES
290
1
  9
$PSVPSCALE
 40
0.0
  9
$OLESTARTUP
290
0
  9
$SORTENTS
280
127
  9
$INDEXCTL
280
0
  9
$HIDETEXT
280
1
  9
$XCLIPFRAME
280
0
  9
$HALOGAP
280
0
  9
$OBSCOLOR
 70
257
  9
$OBSLTYPE
280
0
  9
$INTERSECTIONDISPLAY
280
0
  9
$INTERSECTIONCOLOR
 70
257
  9
$DIMASSOC
280
2
  9
$PROJECTNAME
  1

  9
$CAMERADISPLAY
290
0
  9
$LENSLENGTH
 40
50.0
  9
$CAMERAHEIGHT
 40
0.0
  9
$STEPSPERSEC
 40
24.0
  9
$STEPSIZE
 40
100.0
  9
$3DDWFPREC
 40
2.0
  9
$PSOLWIDTH
 40
0.005
  9
$PSOLHEIGHT
 40
0.08
  9
$LOFTANG1
 40
1.570796326795
  9
$LOFTANG2
 40
1.570796326795
  9
$LOFTMAG1
 40
0.0
  9
$LOFTMAG2
 40
0.0
  9
$LOFTPARAM
 70
7
  9
$LOFTNORMALS
280
1
  9
$LATITUDE
 40
37.795
  9
$LONGITUDE
 40
-122.394
  9
$NORTHDIRECTION
 40
0.0
  9
$TIMEZONE
 70
-8000
  9
$LIGHTGLYPHDISPLAY
280
1
  9
$TILEMODELIGHTSYNCH
280
1
  9
$CMATERIAL
347
20
  9
$SOLIDHIST
280
0
  9
$SHOWHIST
280
1
  9
$DWFFRAME
280
2
  9
$DGNFRAME
280
2
  9
$REALWORLDSCALE
290
1
  9
$INTERFERECOLOR
 62
256
  9
$CSHADOW
280
0
  9
$SHADOWPLANELOCATION
 40
0.0
  0
ENDSEC
  0
SECTION
  2
CLASSES
  0
CLASS
  1
ACDBDICTIONARYWDFLT
  2
AcDbDictionaryWithDefault
  3
ObjectDBX Classes
 90
0
 91
0
280
0
281
0
  0
CLASS
  1
SUN
  2
AcDbSun
  3
SCENEOE
 90
1153
 91
0
280
0
281
0
  0
CLASS
  1
VISUALSTYLE
  2
AcDbVisualStyle
  3
ObjectDBX Classes
 90
4095
 91
0
280
0
281
0
  0
CLASS
  1
MATERIAL
  2
AcDbMaterial
  3
ObjectDBX Classes
 90
1153
 91
0
280
0
281
0
  0
CLASS
  1
SCALE
  2
AcDbScale
  3
ObjectDBX Classes
 90
1153
 91
0
280
0
281
0
  0
CLASS
  1
TABLESTYLE
  2
AcDbTableStyle
  3
ObjectDBX Classes
 90
4095
 91
0
280
0
281
0
  0
CLASS
  1
MLEADERSTYLE
  2
AcDbMLeaderStyle
  3
ACDB_MLEADERSTYLE_CLASS
 90
4095
 91
0
280
0
281
0
  0
CLASS
  1
DICTIONARYVAR
  2
AcDbDictionaryVar
  3
ObjectDBX Classes
 90
0
 91
0
280
0
281
0
  0
CLASS
  1
CELLSTYLEMAP
  2
AcDbCellStyleMap
  3
ObjectDBX Classes
 90
1152
 91
0
280
0
281
0
  0
CLASS
  1
MENTALRAYRENDERSETTINGS
  2
AcDbMentalRayRenderSettings
  3
SCENEOE
 90
1024
 91
0
280
0
281
0
  0
CLASS
  1
ACDBDETAILVIEWSTYLE
  2
AcDbDetailViewStyle
  3
ObjectDBX Classes
 90
1025
 91
0
280
0
281
0
  0
CLASS
  1
ACDBSECTIONVIEWSTYLE
  2
AcDbSectionViewStyle
  3
ObjectDBX Classes
 90
1025
 91
0
280
0
281
0
  0
CLASS
  1
RASTERVARIABLES
  2
AcDbRasterVariables
  3
ISM
 90
0
 91
0
280
0
281
0
  0
CLASS
  1
LAYOUT
  2
AcDbLayout
  3
ObjectDBX Classes
 90
0
 91
0
280
0
281
0
  0
CLASS
  1
ACDBPLACEHOLDER
  2
AcDbPlaceHolder
  3
ObjectDBX Classes
 90
0
 91
0
280
0
281
0
  0
ENDSEC
  0
SECTION
  2
TABLES
  0
TABLE
  2
VPORT
  5
8
330
0
100
AcDbSymbolTable
 70
1
  0
VPORT
  5
23
330
8
100
AcDbSymbolTableRecord
100
AcDbViewportTableRecord
  2
*Active
 70
0
 10
0.0
 20
0.0
 11
1.0
 21
1.0
 12
0.0
 22
0.0
 13
0.0
 23
0.0
 14
0.5
 24
0.5
 15
0.5
 25
0.5
 16
0.0
 26
0.0
 36
1.0
 17
0.0
 27
0.0
 37
0.0
 40
1000.0
 41
1.34
 42
50.0
 43
0.0
 44
0.0
 50
0.0
 51
0.0
 71
0
 72
1000
 73
1
 74
3
 75
0
 76
0
 77
0
 78
0
281
0
 65
0
146
0.0
  0
ENDTAB
  0
TABLE
  2
LTYPE
  5
2
330
0
100
AcDbSymbolTable
 70
3
  0
LTYPE
  5
24
330
2
100
AcDbSymbolTableRecord
100
AcDbLinetypeTableRecord
  2
ByBlock
 70
0
  3

 72
65
 73
0
 40
0.0
  0
LTYPE
  5
25
330
2
100
AcDbSymbolTableRecord
100
AcDbLinetypeTableRecord
  2
ByLayer
 70
0
  3

 72
65
 73
0
 40
0.0
  0
LTYPE
  5
26
330
2
100
AcDbSymbolTableRecord
100
AcDbLinetypeTableRecord
  2
Continuous
 70
0
  3

 72
65
 73
0
 40
0.0
  0
ENDTAB
  0
TABLE
  2
LAYER
  5
1
330
0
100
AcDbSymbolTable
 70
3
  0
LAYER
  5
27
330
1
100
AcDbSymbolTableRecord
100
AcDbLayerTableRecord
  2
0
 70
0
 62
7
  6
Continuous
370
-3
390
13
347
21
  0
LAYER
  5
28
330
1
100
AcDbSymbolTableRecord
100
AcDbLayerTableRecord
  2
Defpoints
 70
0
 62
7
  6
Continuous
290
0
370
-3
390
13
347
21
  0
LAYER
  5
50
330
1
100
AcDbSymbolTableRecord
100
AcDbLayerTableRecord
  2
AREE LEONARDO
 70
0
 62
5
  6
Continuous
370
-3
390
F
347
EE
  0
ENDTAB
  0
TABLE
  2
STYLE
  5
5
330
0
100
AcDbSymbolTable
 70
1
  0
STYLE
  5
29
330
5
100
AcDbSymbolTableRecord
100
AcDbTextStyleTableRecord
  2
Standard
 70
0
 40
0.0
 41
1.0
 50
0.0
 71
0
 42
2.5
  3
txt
  4

  0
ENDTAB
  0
TABLE
  2
VIEW
  5
7
330
0
100
AcDbSymbolTable
 70
0
  0
ENDTAB
  0
TABLE
  2
UCS
  5
6
330
0
100
AcDbSymbolTable
 70
0
  0
ENDTAB
  0
TABLE
  2
APPID
  5
3
330
0
100
AcDbSymbolTable
 70
3
  0
APPID
  5
2A
330
3
100
AcDbSymbolTableRecord
100
AcDbRegAppTableRecord
  2
ACAD
 70
0
  0
APPID
  5
51
330
3
100
AcDbSymbolTableRecord
100
AcDbRegAppTableRecord
  2
HATCHBACKGROUNDCOLOR
 70
0
  0
APPID
  5
52
330
3
100
AcDbSymbolTableRecord
100
AcDbRegAppTableRecord
  2
EZDXF
 70
0
  0
ENDTAB
  0
TABLE
  2
DIMSTYLE
  5
4
330
0
100
AcDbSymbolTable
 70
1
100
AcDbDimStyleTable
  0
DIMSTYLE
105
2B
330
4
100
AcDbSymbolTableRecord
100
AcDbDimStyleTableRecord
  2
Standard
 70
0
 40
1.0
 41
2.5
 42
0.625
 43
3.75
 44
1.25
 45
0.0
 46
0.0
 47
0.0
 48
0.0
 49
2.5
140
2.5
141
2.5
142
0.0
143
0.03937007874
144
1.0
145
0.0
146
1.0
147
0.625
148
0.0
 69
0
 70
0
 71
0
 72
0
 73
0
 74
0
 75
0
 76
0
 77
1
 78
8
 79
3
170
0
171
3
172
1
173
0
174
0
175
0
176
0
177
0
178
0
179
2
271
2
272
2
273
2
274
3
275
0
276
0
277
2
278
44
279
0
280
0
281
0
282
0
283
0
284
8
285
0
286
0
288
0
289
3
290
0
371
-2
372
-2
  0
ENDTAB
  0
TABLE
  2
BLOCK_RECORD
  5
9
330
0
100
AcDbSymbolTable
 70
2
  0
BLOCK_RECORD
  5
17
330
9
100
AcDbSymbolTableRecord
100
AcDbBlockTableRecord
  2
*Model_Space
340
1A
 70
0
280
1
281
0
  0
BLOCK_RECORD
  5
1B
330
9
100
AcDbSymbolTableRecord
100
AcDbBlockTableRecord
  2
*Paper_Space
340
1E
 70
0
280
1
281
0
  0
ENDTAB
  0
ENDSEC
  0
SECTION
  2
BLOCKS
  0
BLOCK
  5
18
330
17
100
AcDbEntity
  8
0
100
AcDbBlockBegin
  2
*Model_Space
 70
0
 10
0.0
 20
0.0
 30
0.0
  3
*Model_Space
  1

  0
ENDBLK
  5
19
330
17
100
AcDbEntity
  8
0
100
AcDbBlockEnd
  0
BLOCK
  5
1C
330
1B
100
AcDbEntity
  8
0
100
AcDbBlockBegin
  2
*Paper_Space
 70
0
 10
0.0
 20
0.0
 30
0.0
  3
*Paper_Space
  1

  0
ENDBLK
  5
1D
330
1B
100
AcDbEntity
  8
0
100
AcDbBlockEnd
  0
ENDSEC
  0
SECTION
  2
ENTITIES
  0
LWPOLYLINE
  5
2F
330
17
100
AcDbEntity
  8
AREE LEONARDO
 62
5
100
AcDbPolyline
 90
11
 70
1
 10
20349.21562010029
 20
19035.64359672676
 10
20797.81654939798
 20
19616.57918581281
 10
20797.81654939831
 20
19744.23892793997
 10
20513.0886085556
 20
19744.2389279407
 10
20337.0241317492
 20
19880.19666472859
 10
20263.99116520896
 20
19785.61939867977
 10
20289.72902043529
 20
19765.7445175578
 10
20263.81924110431
 20
19730.05913693182
 10
20237.04986061675
 20
19750.7305662417
 10
19933.02868504326
 20
19357.02491564533
 10
20349.21562010029
 20
19035.64359672676
  0
LWPOLYLINE
  5
30
330
17
100
AcDbEntity
  8
AREE LEONARDO
 62
5
100
AcDbPolyline
 90
6
 70
1
 10
20926.99937082125
 20
18589.47653040355
 10
21296.64987645066
 20
19068.17178094414
 10
21296.64987645065
 20
19225.06073483785
 10
20798.71803428761
 20
19609.56581822014
 10
20353.17304634148
 20
19032.58765537494
 10
20926.99937082164
 20
18589.47653040156
  0
LWPOLYLINE
  5
31
330
17
100
AcDbEntity
  8
AREE LEONARDO
 62
5
100
AcDbPolyline
 90
11
 70
1
 10
20930.95679706243
 20
18586.42058905176
 10
21250.85162335605
 20
18339.39644549813
 10
21446.47684366815
 20
18592.72996573987
 10
21431.50643122247
 20
18604.29018181414
 10
21457.41621055345
 20
18639.97556244012
 10
21473.4181482601
 20
18627.61879817813
 10
21654.84707006298
 20
18862.56819458328
 10
21445.61774311319
 20
19024.13596951364
 10
21445.61774178488
 20
19063.17178311988
 10
21299.10609237423
 20
19063.17178098001
 10
20930.95679706172
 20
18586.4205890523
  0
LWPOLYLINE
  5
32
330
17
100
AcDbEntity
  8
AREE LEONARDO
 62
2
100
AcDbPolyline
 90
5
 70
1
 10
20977.41621055345
 20
18639.97556244012
 10
21012.72880776319
 20
18612.70702489184
 10
20986.81902843221
 20
18577.02164426586
 10
20951.50643122247
 20
18604.29018181414
 10
20977.41621055345
 20
18639.97556244012
  0
LWPOLYLINE
  5
33
330
17
100
AcDbEntity
  8
AREE LEONARDO
 62
5
100
AcDbPolyline
 90
18
 70
1
 10
21126.61774181345
 20
19744.23892793912
 10
21126.61774181345
 20
19590.0980452867
 10
21334.93044690232
 20
19429.23808964944
 10
22115.24149242431
 20
19429.23808964944
 10
22115.24149242431
 20
19240.23892948988
 10
21936.61780833658
 20
19240.23892948988
 10
21936.61780833658
 20
19271.99860335232
 10
21904.61780833658
 20
19271.99860335232
 10
21904.61780833658
 20
19240.23892948988
 10
21485.61773629306
 20
19240.23891461933
 10
21485.61773514815
 20
19272.49860335149
 10
21445.61773514187
 20
19272.49860335312
 10
21445.61774171185
 20
19068.17178311988
 10
21301.64987645065
 20
19068.17178311988
 10
21301.64987645065
 20
19227.51695073381
 10
20802.81654939798
 20
19612.71816457633
 10
20802.81654939831
 20
19744.23892793995
 10
21126.61774181345
 20
19744.2389279391
  0
LWPOLYLINE
  5
34
330
17
100
AcDbEntity
  8
AREE LEONARDO
 62
5
100
AcDbPolyline
 90
12
 70
1
 10
21131.61774181298
 20
19974.23892935713
 10
21131.61774181345
 20
19592.5542611833
 10
21336.63626031022
 20
19434.23809042313
 10
22115.61780556859
 20
19434.23809042313
 10
22115.61786212623
 20
19674.23888699659
 10
21935.61780833671
 20
19674.2389294147
 10
21935.61780833693
 20
19722.99860335233
 10
21904.61780833661
 20
19722.99860335233
 10
21904.61780833661
 20
19754.99860335233
 10
21935.61780833708
 20
19754.99860335233
 10
21935.61780833811
 20
19974.23892935355
 10
21131.61774181298
 20
19974.23892935256
  0
LWPOLYLINE
  5
35
330
17
100
AcDbEntity
  8
AREE LEONARDO
 62
2
100
AcDbPolyline
 90
4
 70
1
 10
21446.11761949286
 20
19754.99860335232
 10
21478.11761949285
 20
19754.99860335232
 10
21478.11761949285
 20
19722.99860335232
 10
21446.11761949286
 20
19722.99860335232
  0
LWPOLYLINE
  5
36
330
17
100
AcDbEntity
  8
AREE LEONARDO
 62
3
100
AcDbPolyline
 90
23
 70
1
 10
21950.61780833648
 20
19872.23892935316
 10
22135.61780833625
 20
19872.23892935313
 10
22135.61780833625
 20
19882.23892935314
 10
22145.61780833625
 20
19882.23892935314
 10
22145.61780833625
 20
19847.23892935313
 10
22135.61780833625
 20
19847.23892935313
 10
22135.61780833625
 20
19857.23892935313
 10
21950.61780833648
 20
19857.23892935313
 10
21950.61780833648
 20
19689.23892941447
 10
22135.61780833648
 20
19689.23892941447
 10
22135.61780833648
 20
19757.23892935313
 10
22145.61780833625
 20
19757.23892935313
 10
22145.61780833625
 20
19749.23892941517
 10
22205.61780833392
 20
19749.23892941517
 10
22205.61780833392
 20
19689.23892941447
 10
22455.61780835124
 20
19689.23892941447
 10
22455.61780839411
 20
19974.2389293511
 10
22145.61780833625
 20
19974.2389293511
 10
22145.61780833625
 20
19962.23892935314
 10
22135.61780833625
 20
19962.23892935314
 10
22135.6178083363
 20
19974.2389293526
 10
21950.61780833648
 20
19974.23892935347
 10
21950.61780833646
 20
19872.23892935316
  0
LWPOLYLINE
  5
37
330
17
100
AcDbEntity
  8
AREE LEONARDO
 62
5
100
AcDbPolyline
 90
29
 70
1
 10
22125.61780556859
 20
19674.23888464005
 10
22125.61780556859
 20
19240.23892948988
 10
22148.61780858002
 20
19240.23892948988
 10
22148.61780859168
 20
18845.23892939095
 10
22456.59470346589
 20
18845.41195518463
 10
22562.08752603117
 20
18835.24112251578
 10
22665.50169152914
 20
18707.82341346972
 10
22665.6178083636
 20
18592.23892940562
 10
22702.22946071443
 20
18503.85058175935
 10
22790.61780836349
 20
18467.23892941004
 10
23080.61780833392
 20
18467.23892941658
 10
23080.61780833392
 20
18619.2389294133
 10
23045.61780833625
 20
18619.2389294133
 10
23045.61780833625
 20
18679.23892941399
 10
23080.61780833392
 20
18679.23892941399
 10
23080.61780833392
 20
19059.23892941284
 10
22610.61780830062
 20
19059.23892941284
 10
22610.61780830062
 20
19689.23892941447
 10
22575.61780833508
 20
19689.23892941447
 10
22575.61780833508
 20
19749.23892941517
 10
22610.61780833555
 20
19749.23892941762
 10
22610.61780837104
 20
19981.2389294317
 10
22475.61780839865
 20
19981.23892945235
 10
22475.61780839865
 20
19471.23892942983
 10
22350.61780832065
 20
19471.2389294282
 10
22350.61780832065
 20
19481.2389294317
 10
22465.61780831995
 20
19481.2389294317
 10
22465.61780834898
 20
19674.23881483124
 10
22125.61780556859
 20
19674.23888464005
  0
LWPOLYLINE
  5
38
330
17
100
AcDbEntity
  8
AREE LEONARDO
 62
5
100
AcDbPolyline
 90
4
 70
1
 10
22635.61780833275
 20
19981.2389294317
 10
23070.61780833625
 20
19981.2389294317
 10
23070.61780833625
 20
19364.23892941447
 10
22635.61780833275
 20
19364.23892941447
  0
LWPOLYLINE
  5
39
330
17
100
AcDbEntity
  8
AREE LEONARDO
 62
2
100
AcDbPolyline
 90
4
 70
1
 10
22945.61780833059
 20
19739.23892941447
 10
22760.61780833555
 20
19739.23892941447
 10
22760.61780833555
 20
19489.23892941447
 10
22945.61780833059
 20
19489.23892941447
  0
LWPOLYLINE
  5
3A
330
17
100
AcDbEntity
  8
AREE LEONARDO
 62
3
100
AcDbPolyline
 90
26
 70
1
 10
22935.62073981608
 20
19339.23892941307
 10
22935.62073981366
 20
19179.23892941399
 10
22750.61780830598
 20
19179.238929358
 10
22750.61780830346
 20
19189.23892941749
 10
22740.61780830528
 20
19189.23892941749
 10
22740.61780830528
 20
19159.23892941563
 10
22750.61780830295
 20
19159.23892941563
 10
22750.61780830304
 20
19169.23892941633
 10
22750.61780830598
 20
19169.23892941633
 10
22935.62073981305
 20
19169.2389294147
 10
22935.62073981305
 20
19069.23892941633
 10
22750.61780830295
 20
19069.2389294133
 10
22750.61780830015
 20
19079.2389294168
 10
22740.61780830528
 20
19079.2389294168
 10
22740.61780830528
 20
19069.23892941633
 10
22620.61780830435
 20
19069.23892941633
 10
22620.61780834207
 20
19339.23892941167
 10
22635.61780833555
 20
19339.23892941447
 10
22635.61780833555
 20
19279.23892941399
 10
22695.61780833625
 20
19279.23892941399
 10
22695.61780833707
 20
19339.23892941065
 10
22740.61780830831
 20
19339.23892941004
 10
22740.61780830528
 20
19269.23892941633
 10
22750.61780830295
 20
19269.23892941749
 10
22750.61780830181
 20
19339.23892941004
 10
22935.62073981608
 20
19339.23892941307
  0
LWPOLYLINE
  5
3B
330
17
100
AcDbEntity
  8
AREE LEONARDO
 62
5
100
AcDbPolyline
 90
7
 70
1
 10
22945.62073981957
 20
19339.23892941307
 10
22945.62073981957
 20
19069.2389294147
 10
23080.61780833392
 20
19069.2389294147
 10
23080.61780833392
 20
19279.23892941399
 10
23045.61780833625
 20
19279.23892941399
 10
23045.61780833625
 20
19339.23892941447
 10
22945.62073981957
 20
19339.23892941307
  0
LWPOLYLINE
  5
3C
330
17
100
AcDbEntity
  8
AREE LEONARDO
 62
5
100
AcDbPolyline
 90
13
 70
1
 10
22148.61780841192
 20
18467.23892939118
 10
22530.61780836666
 20
18467.23892940276
 10
22619.00615600619
 20
18503.85058175834
 10
22655.61780834119
 20
18592.2389294064
 10
22655.61780835417
 20
18635.23892939049
 10
22597.03916459148
 20
18776.66028562779
 10
22455.61780835417
 20
18835.23892939049
 10
22148.61780905407
 20
18835.23892939049
 10
22148.61780905407
 20
18682.23892941377
 10
22208.61780837164
 20
18682.23892941377
 10
22208.61780837164
 20
18616.23892941354
 10
22148.61780842356
 20
18616.23892941354
 10
22148.6178084284
 20
18467.23892939039
  0
LWPOLYLINE
  5
3D
330
17
100
AcDbEntity
  8
AREE LEONARDO
 62
5
100
AcDbPolyline
 90
9
 70
1
 10
22148.61780828328
 20
17372.23892941425
 10
22148.61780838561
 20
17127.23892941493
 10
22208.61780837164
 20
17127.23892941493
 10
22208.61780837164
 20
17067.23892941447
 10
23042.61780833648
 20
17067.23892941447
 10
23042.61780833648
 20
17127.23892941354
 10
23080.61780833392
 20
17127.23892941354
 10
23080.61780833443
 20
17372.23892941423
 10
22148.61780828328
 20
17372.23892902496
  0
LWPOLYLINE
  5
3E
330
17
100
AcDbEntity
  8
AREE LEONARDO
 62
2
100
AcDbPolyline
 90
4
 70
1
 10
22286.6720236949
 20
18097.50826016594
 10
22725.9355274594
 20
18097.50826016594
 10
22725.9355274594
 20
18087.50826016594
 10
22286.6720236949
 20
18087.50826016594
  0
LWPOLYLINE
  5
3F
330
17
100
AcDbEntity
  8
AREE LEONARDO
 62
2
100
AcDbPolyline
 90
4
 70
1
 10
22344.88021876406
 20
19476.42234374116
 10
22133.21454703066
 20
19476.42234374116
 10
22133.21454703066
 20
19471.23887145276
 10
22344.88021876406
 20
19471.23887145276
  0
LWPOLYLINE
  5
40
330
17
100
AcDbEntity
  8
AREE LEONARDO
 62
2
100
AcDbPolyline
 90
4
 70
1
 10
22481.91326649744
 20
19474.38226393259
 10
22604.02239127171
 20
19474.38226393259
 10
22604.02239127171
 20
19471.23892945056
 10
22481.91326649744
 20
19471.23892945056
  0
LWPOLYLINE
  5
41
330
17
100
AcDbEntity
  8
AREE LEONARDO
 62
2
100
AcDbPolyline
 90
4
 70
1
 10
22136.37559451795
 20
19843.49952130958
 10
22144.41764825611
 20
19843.49952130958
 10
22144.41764825611
 20
19764.73470087407
 10
22136.37559451795
 20
19764.73470087407
  0
LWPOLYLINE
  5
42
330
17
100
AcDbEntity
  8
AREE LEONARDO
 62
2
100
AcDbPolyline
 90
4
 70
1
 10
22135.61780833625
 20
19885.2911867836
 10
22144.65417924841
 20
19885.2911867836
 10
22144.65417924841
 20
19957.50745959761
 10
22135.61780833625
 20
19957.50745959761
  0
LWPOLYLINE
  5
43
330
17
100
AcDbEntity
  8
AREE LEONARDO
 62
2
100
AcDbPolyline
 90
4
 70
1
 10
20833.96069881528
 20
19612.73859623077
 10
21094.57622287394
 20
19612.73859623077
 10
21094.57622287394
 20
19726.09181673212
 10
20833.96069881528
 20
19726.09181673212
  0
LWPOLYLINE
  5
44
330
17
100
AcDbEntity
  8
AREE LEONARDO
 62
2
100
AcDbPolyline
 90
4
 70
1
 10
22153.56173086628
 20
19646.06250539628
 10
22385.47563819543
 20
19646.06250539628
 10
22385.47563819543
 20
19524.353117999
 10
22153.56173086628
 20
19524.353117999
  0
LWPOLYLINE
  5
45
330
17
100
AcDbEntity
  8
AREE LEONARDO
 62
2
100
AcDbPolyline
 90
4
 70
1
 10
22750.12439952064
 20
19153.09904657156
 10
22741.99364666037
 20
19153.09904657156
 10
22741.99364666037
 20
19088.86609897541
 10
22750.12439952064
 20
19088.86609897541
  0
LWPOLYLINE
  5
46
330
17
100
AcDbEntity
  8
AREE LEONARDO
 62
2
100
AcDbPolyline
 90
4
 70
1
 10
22749.4170240218
 20
19263.17317879392
 10
22741.89607762605
 20
19263.17317879392
 10
22741.89607762605
 20
19194.67158594613
 10
22749.4170240218
 20
19194.67158594613
  0
LWPOLYLINE
  5
47
330
17
100
AcDbEntity
  8
AREE LEONARDO
 62
5
100
AcDbPolyline
 90
5
 70
1
 10
22148.61780841215
 20
18457.23892938969
 10
23080.61780833392
 20
18457.23892938969
 10
23080.61780833392
 20
17758.84566282334
 10
22148.61780841215
 20
17758.84566282334
 10
22148.61780841215
 20
18457.23892938969
  0
LWPOLYLINE
  5
48
330
17
100
AcDbEntity
  8
AREE LEONARDO
 62
1
100
AcDbPolyline
 90
4
 70
1
 10
21333.01194215822
 20
19162.68524326911
 10
21413.60238137852
 20
19162.68524326911
 10
21413.60238137852
 20
19092.58586714257
 10
21333.01194215822
 20
19092.58586714257
  0
LWPOLYLINE
  5
49
330
17
100
AcDbEntity
  8
AREE LEONARDO
 62
1
100
AcDbPolyline
 90
4
 70
1
 10
22178.17778368878
 20
18940.96917590874
 10
22258.76822290908
 20
18940.96917590874
 10
22258.76822290908
 20
18870.86979978221
 10
22178.17778368878
 20
18870.86979978221
  0
LWPOLYLINE
  5
4A
330
17
100
AcDbEntity
  8
AREE LEONARDO
 62
5
100
AcDbPolyline
 90
4
 70
1
 10
22148.61780841215
 20
17382.23892941447
 10
23080.61780833392
 20
17382.23892941447
 10
23080.61780833392
 20
17755.0832988268
 10
22148.61780841215
 20
17755.0832988268
  0
LWPOLYLINE
  5
4B
330
17
100
AcDbEntity
  8
AREE LEONARDO
 62
2
100
AcDbPolyline
 90
4
 70
1
 10
22286.6720236949
 20
17748.84566281877
 10
22725.9355274594
 20
17748.84566281877
 10
22725.9355274594
 20
17753.84566281877
 10
22286.6720236949
 20
17753.84566281877
  0
LWPOLYLINE
  5
4C
330
17
100
AcDbEntity
  8
AREE LEONARDO
 62
1
100
AcDbPolyline
 90
4
 70
1
 10
22170.34701477045
 20
18432.44811808958
 10
22250.93745399074
 20
18432.44811808958
 10
22250.93745399074
 20
18362.34874196305
 10
22170.34701477045
 20
18362.34874196305
  0
LWPOLYLINE
  5
4D
330
17
100
AcDbEntity
  8
AREE LEONARDO
 62
1
100
AcDbPolyline
 90
4
 70
1
 10
22017.96055466767
 20
19408.55013563241
 10
22098.55099388796
 20
19408.55013563241
 10
22098.55099388796
 20
19338.45075950588
 10
22017.96055466767
 20
19338.45075950588
  0
LWPOLYLINE
  5
4E
330
17
100
AcDbEntity
  8
AREE LEONARDO
 62
1
100
AcDbPolyline
 90
4
 70
1
 10
22169.01843253118
 20
17347.10163094716
 10
22249.60887175147
 20
17347.10163094716
 10
22249.60887175147
 20
17277.00225482063
 10
22169.01843253118
 20
17277.00225482063
  0
LWPOLYLINE
  5
4F
330
17
100
AcDbEntity
  8
AREE LEONARDO
 62
2
100
AcDbPolyline
 90
4
 70
1
 10
22268.89051860459
 20
18427.83864457527
 10
22500.80442593374
 20
18427.83864457527
 10
22500.80442593374
 20
18306.12925717799
 10
22268.89051860459
 20
18306.12925717799
  0
ENDSEC
  0
SECTION
  2
OBJECTS
  0
DICTIONARY
  5
A
330
0
100
AcDbDictionary
280
0
281
1
  3
ACAD_COLOR
350
B
  3
ACAD_GROUP
350
C
  3
ACAD_LAYOUT
350
D
  3
ACAD_MATERIAL
350
E
  3
ACAD_MLEADERSTYLE
350
F
  3
ACAD_MLINESTYLE
350
10
  3
ACAD_PLOTSETTINGS
350
11
  3
ACAD_PLOTSTYLENAME
350
12
  3
ACAD_SCALELIST
350
14
  3
ACAD_TABLESTYLE
350
15
  3
ACAD_VISUALSTYLE
350
16
  3
EZDXF_META
350
2D
  0
DICTIONARY
  5
B
330
A
100
AcDbDictionary
280
0
281
1
  0
DICTIONARY
  5
C
330
A
100
AcDbDictionary
280
0
281
1
  0
DICTIONARY
  5
D
330
A
100
AcDbDictionary
280
0
281
1
  3
Model
350
1A
  3
Layout1
350
1E
  0
DICTIONARY
  5
E
330
A
100
AcDbDictionary
280
0
281
1
  3
ByBlock
350
1F
  3
ByLayer
350
20
  3
Global
350
21
  0
DICTIONARY
  5
F
330
A
100
AcDbDictionary
280
0
281
1
  3
Standard
350
2C
  0
DICTIONARY
  5
10
330
A
100
AcDbDictionary
280
0
281
1
  3
Standard
350
22
  0
DICTIONARY
  5
11
330
A
100
AcDbDictionary
280
0
281
1
  0
ACDBDICTIONARYWDFLT
  5
12
330
A
100
AcDbDictionary
280
0
281
1
  3
Normal
350
13
100
AcDbDictionaryWithDefault
340
13
  0
ACDBPLACEHOLDER
  5
13
330
12
  0
DICTIONARY
  5
14
330
A
100
AcDbDictionary
280
0
281
1
  0
DICTIONARY
  5
15
330
A
100
AcDbDictionary
280
0
281
1
  0
DICTIONARY
  5
16
330
A
100
AcDbDictionary
280
0
281
1
  0
LAYOUT
  5
1A
330
D
100
AcDbPlotSettings
  1

  2
Adobe PDF
  4
A3
  6

 40
7.5
 41
20.0
 42
7.5
 43
20.0
 44
420.0
 45
297.0
 46
0.0
 47
0.0
 48
0.0
 49
0.0
140
0.0
141
0.0
142
1.0
143
1.0
 70
1024
 72
1
 73
0
 74
5
  7

 75
16
 76
0
 77
2
 78
300
147
1.0
148
0.0
149
0.0
100
AcDbLayout
  1
Model
 70
1
 71
0
 10
0.0
 20
0.0
 11
420.0
 21
297.0
 12
0.0
 22
0.0
 32
0.0
 14
1e+20
 24
1e+20
 34
1e+20
 15
-1e+20
 25
-1e+20
 35
-1e+20
146
0.0
 13
0.0
 23
0.0
 33
0.0
 16
1.0
 26
0.0
 36
0.0
 17
0.0
 27
1.0
 37
0.0
 76
1
330
17
  0
LAYOUT
  5
1E
330
D
100
AcDbPlotSettings
  1

  2
Adobe PDF
  4
A3
  6

 40
7.5
 41
20.0
 42
7.5
 43
20.0
 44
420.0
 45
297.0
 46
0.0
 47
0.0
 48
0.0
 49
0.0
140
0.0
141
0.0
142
1.0
143
1.0
 70
0
 72
1
 73
0
 74
5
  7

 75
16
 76
0
 77
2
 78
300
147
1.0
148
0.0
149
0.0
100
AcDbLayout
  1
Layout1
 70
1
 71
1
 10
0.0
 20
0.0
 11
420.0
 21
297.0
 12
0.0
 22
0.0
 32
0.0
 14
1e+20
 24
1e+20
 34
1e+20
 15
-1e+20
 25
-1e+20
 35
-1e+20
146
0.0
 13
0.0
 23
0.0
 33
0.0
 16
1.0
 26
0.0
 36
0.0
 17
0.0
 27
1.0
 37
0.0
 76
1
330
1B
  0
MATERIAL
  5
1F
102
{ACAD_REACTORS
330
E
102
}
330
E
100
AcDbMaterial
  1
ByBlock
  2

 70
0
 40
1.0
 71
1
 41
1.0
 91
-1023410177
 42
1.0
 72
1
  3

 73
1
 74
1
 75
1
 44
0.5
 73
0
 45
1.0
 46
1.0
 77
1
  4

 78
1
 79
1
170
1
 48
1.0
171
1
  6

172
1
173
1
174
1
140
1.0
141
1.0
175
1
  7

176
1
177
1
178
1
143
1.0
179
1
  8

270
1
271
1
272
1
145
1.0
146
1.0
273
1
  9

274
1
275
1
276
1
 42
1.0
 72
1
  3

 73
1
 74
1
 75
1
 94
63
  0
MATERIAL
  5
20
102
{ACAD_REACTORS
330
E
102
}
330
E
100
AcDbMaterial
  1
ByLayer
  2

 70
0
 40
1.0
 71
1
 41
1.0
 91
-1023410177
 42
1.0
 72
1
  3

 73
1
 74
1
 75
1
 44
0.5
 73
0
 45
1.0
 46
1.0
 77
1
  4

 78
1
 79
1
170
1
 48
1.0
171
1
  6

172
1
173
1
174
1
140
1.0
141
1.0
175
1
  7

176
1
177
1
178
1
143
1.0
179
1
  8

270
1
271
1
272
1
145
1.0
146
1.0
273
1
  9

274
1
275
1
276
1
 42
1.0
 72
1
  3

 73
1
 74
1
 75
1
 94
63
  0
MATERIAL
  5
21
102
{ACAD_REACTORS
330
E
102
}
330
E
100
AcDbMaterial
  1
Global
  2

 70
0
 40
1.0
 71
1
 41
1.0
 91
-1023410177
 42
1.0
 72
1
  3

 73
1
 74
1
 75
1
 44
0.5
 73
0
 45
1.0
 46
1.0
 77
1
  4

 78
1
 79
1
170
1
 48
1.0
171
1
  6

172
1
173
1
174
1
140
1.0
141
1.0
175
1
  7

176
1
177
1
178
1
143
1.0
179
1
  8

270
1
271
1
272
1
145
1.0
146
1.0
273
1
  9

274
1
275
1
276
1
 42
1.0
 72
1
  3

 73
1
 74
1
 75
1
 94
63
  0
MLINESTYLE
  5
22
102
{ACAD_REACTORS
330
10
102
}
330
10
100
AcDbMlineStyle
  2
Standard
 70
0
  3

 62
256
 51
90.0
 52
90.0
 71
2
 49
0.5
 62
256
  6
BYLAYER
 49
-0.5
 62
256
  6
BYLAYER
  0
MLEADERSTYLE
  5
2C
102
{ACAD_REACTORS
330
F
102
}
330
F
100
AcDbMLeaderStyle
179
2
170
2
171
1
172
0
 90
2
 40
0.0
 41
0.0
173
1
 91
-1056964608
 92
-2
290
1
 42
2.0
291
1
 43
8.0
  3
Standard
 44
4.0
300

342
29
174
1
175
1
176
0
178
1
 93
-1056964608
 45
4.0
292
0
297
0
 46
4.0
 94
-1056964608
 47
1.0
 49
1.0
140
1.0
294
1
141
0.0
177
0
142
1.0
295
0
296
0
143
3.75
271
0
272
9
273
9
  0
DICTIONARY
  5
2D
330
A
100
AcDbDictionary
281
1
  3
CREATED_BY_EZDXF
350
2E
  3
WRITTEN_BY_EZDXF
350
53
  0
DICTIONARYVAR
  5
2E
330
2D
100
DictionaryVariables
280
0
  1
1.1.2 @ 2023-11-14T21:36:15.532974+00:00
  0
DICTIONARYVAR
  5
53
330
2D
100
DictionaryVariables
280
0
  1
1.1.2 @ 2023-11-14T21:36:15.538669+00:00
  0
ENDSEC
  0
EOF
