  0
SECTION
  2
HEADER
  9
$ACADVER
  1
AC1032
  9
$ACADMAINTVER
 90
4
  9
$DWGCODEPAGE
  3
ANSI_1252
  9
$LASTSAVEDBY
  1
ezdxf
  9
$REQUIREDVERSIONS
160
0
  9
$INSBASE
 10
0.0
 20
0.0
 30
0.0
  9
$EXTMIN
 10
1e+20
 20
1e+20
 30
1e+20
  9
$EXTMAX
 10
-1e+20
 20
-1e+20
 30
-1e+20
  9
$LIMMIN
 10
0.0
 20
0.0
  9
$LIMMAX
 10
420.0
 20
297.0
  9
$ORTHOMODE
 70
0
  9
$REGENMODE
 70
1
  9
$FILLMODE
 70
1
  9
$QTEXTMODE
 70
0
  9
$MIRRTEXT
 70
1
  9
$LTSCALE
 40
1.0
  9
$ATTMODE
 70
1
  9
$TEXTSIZE
 40
2.5
  9
$TRACEWID
 40
1.0
  9
$TEXTSTYLE
  7
Standard
  9
$CLAYER
  8
0
  9
$CELTYPE
  6
ByLayer
  9
$CECOLOR
 62
256
  9
$CELTSCALE
 40
1.0
  9
$DISPSILH
 70
0
  9
$DIMSCALE
 40
1.0
  9
$DIMASZ
 40
2.5
  9
$DIMEXO
 40
0.625
  9
$DIMDLI
 40
3.75
  9
$DIMRND
 40
0.0
  9
$DIMDLE
 40
0.0
  9
$DIMEXE
 40
1.25
  9
$DIMTP
 40
0.0
  9
$DIMTM
 40
0.0
  9
$DIMTXT
 40
2.5
  9
$DIMCEN
 40
2.5
  9
$DIMTSZ
 40
0.0
  9
$DIMTOL
 70
0
  9
$DIMLIM
 70
0
  9
$DIMTIH
 70
0
  9
$DIMTOH
 70
0
  9
$DIMSE1
 70
0
  9
$DIMSE2
 70
0
  9
$DIMTAD
 70
1
  9
$DIMZIN
 70
8
  9
$DIMBLK
  1

  9
$DIMASO
 70
1
  9
$DIMSHO
 70
1
  9
$DIMPOST
  1

  9
$DIMAPOST
  1

  9
$DIMALT
 70
0
  9
$DIMALTD
 70
3
  9
$DIMALTF
 40
0.03937007874
  9
$DIMLFAC
 40
1.0
  9
$DIMTOFL
 70
1
  9
$DIMTVP
 40
0.0
  9
$DIMTIX
 70
0
  9
$DIMSOXD
 70
0
  9
$DIMSAH
 70
0
  9
$DIMBLK1
  1

  9
$DIMBLK2
  1

  9
$DIMSTYLE
  2
ISO-25
  9
$DIMCLRD
 70
0
  9
$DIMCLRE
 70
0
  9
$DIMCLRT
 70
0
  9
$DIMTFAC
 40
1.0
  9
$DIMGAP
 40
0.625
  9
$DIMJUST
 70
0
  9
$DIMSD1
 70
0
  9
$DIMSD2
 70
0
  9
$DIMTOLJ
 70
0
  9
$DIMTZIN
 70
8
  9
$DIMALTZ
 70
0
  9
$DIMALTTZ
 70
0
  9
$DIMUPT
 70
0
  9
$DIMDEC
 70
2
  9
$DIMTDEC
 70
2
  9
$DIMALTU
 70
2
  9
$DIMALTTD
 70
3
  9
$DIMTXSTY
  7
Standard
  9
$DIMAUNIT
 70
0
  9
$DIMADEC
 70
0
  9
$DIMALTRND
 40
0.0
  9
$DIMAZIN
 70
0
  9
$DIMDSEP
 70
44
  9
$DIMATFIT
 70
3
  9
$DIMFRAC
 70
0
  9
$DIMLDRBLK
  1

  9
$DIMLUNIT
 70
2
  9
$DIMLWD
 70
-2
  9
$DIMLWE
 70
-2
  9
$DIMTMOVE
 70
0
  9
$DIMFXL
 40
1.0
  9
$DIMFXLON
 70
0
  9
$DIMJOGANG
 40
0.785398163397
  9
$DIMTFILL
 70
0
  9
$DIMTFILLCLR
 70
0
  9
$DIMARCSYM
 70
0
  9
$DIMLTYPE
  6

  9
$DIMLTEX1
  6

  9
$DIMLTEX2
  6

  9
$DIMTXTDIRECTION
 70
0
  9
$LUNITS
 70
2
  9
$LUPREC
 70
4
  9
$SKETCHINC
 40
1.0
  9
$FILLETRAD
 40
10.0
  9
$AUNITS
 70
0
  9
$AUPREC
 70
2
  9
$MENU
  1
.
  9
$ELEVATION
 40
0.0
  9
$PELEVATION
 40
0.0
  9
$THICKNESS
 40
0.0
  9
$LIMCHECK
 70
0
  9
$CHAMFERA
 40
0.0
  9
$CHAMFERB
 40
0.0
  9
$CHAMFERC
 40
0.0
  9
$CHAMFERD
 40
0.0
  9
$SKPOLY
 70
0
  9
$TDCREATE
 40
2460263.900127315
  9
$TDUCREATE
 40
2458532.153996898
  9
$TDUPDATE
 40
2460263.900127315
  9
$TDUUPDATE
 40
2458532.1544311
  9
$TDINDWG
 40
0.0
  9
$TDUSRTIMER
 40
0.0
  9
$USRTIMER
 70
1
  9
$ANGBASE
 50
0.0
  9
$ANGDIR
 70
0
  9
$PDMODE
 70
0
  9
$PDSIZE
 40
0.0
  9
$PLINEWID
 40
0.0
  9
$SPLFRAME
 70
0
  9
$SPLINETYPE
 70
6
  9
$SPLINESEGS
 70
8
  9
$HANDSEED
  5
4B
  9
$SURFTAB1
 70
6
  9
$SURFTAB2
 70
6
  9
$SURFTYPE
 70
6
  9
$SURFU
 70
6
  9
$SURFV
 70
6
  9
$UCSBASE
  2

  9
$UCSNAME
  2

  9
$UCSORG
 10
0.0
 20
0.0
 30
0.0
  9
$UCSXDIR
 10
1.0
 20
0.0
 30
0.0
  9
$UCSYDIR
 10
0.0
 20
1.0
 30
0.0
  9
$UCSORTHOREF
  2

  9
$UCSORTHOVIEW
 70
0
  9
$UCSORGTOP
 10
0.0
 20
0.0
 30
0.0
  9
$UCSORGBOTTOM
 10
0.0
 20
0.0
 30
0.0
  9
$UCSORGLEFT
 10
0.0
 20
0.0
 30
0.0
  9
$UCSORGRIGHT
 10
0.0
 20
0.0
 30
0.0
  9
$UCSORGFRONT
 10
0.0
 20
0.0
 30
0.0
  9
$UCSORGBACK
 10
0.0
 20
0.0
 30
0.0
  9
$PUCSBASE
  2

  9
$PUCSNAME
  2

  9
$PUCSORG
 10
0.0
 20
0.0
 30
0.0
  9
$PUCSXDIR
 10
1.0
 20
0.0
 30
0.0
  9
$PUCSYDIR
 10
0.0
 20
1.0
 30
0.0
  9
$PUCSORTHOREF
  2

  9
$PUCSORTHOVIEW
 70
0
  9
$PUCSORGTOP
 10
0.0
 20
0.0
 30
0.0
  9
$PUCSORGBOTTOM
 10
0.0
 20
0.0
 30
0.0
  9
$PUCSORGLEFT
 10
0.0
 20
0.0
 30
0.0
  9
$PUCSORGRIGHT
 10
0.0
 20
0.0
 30
0.0
  9
$PUCSORGFRONT
 10
0.0
 20
0.0
 30
0.0
  9
$PUCSORGBACK
 10
0.0
 20
0.0
 30
0.0
  9
$USERI1
 70
0
  9
$USERI2
 70
0
  9
$USERI3
 70
0
  9
$USERI4
 70
0
  9
$USERI5
 70
0
  9
$USERR1
 40
0.0
  9
$USERR2
 40
0.0
  9
$USERR3
 40
0.0
  9
$USERR4
 40
0.0
  9
$USERR5
 40
0.0
  9
$WORLDVIEW
 70
1
  9
$SHADEDGE
 70
3
  9
$SHADEDIF
 70
70
  9
$TILEMODE
 70
1
  9
$MAXACTVP
 70
64
  9
$PINSBASE
 10
0.0
 20
0.0
 30
0.0
  9
$PLIMCHECK
 70
0
  9
$PEXTMIN
 10
1e+20
 20
1e+20
 30
1e+20
  9
$PEXTMAX
 10
-1e+20
 20
-1e+20
 30
-1e+20
  9
$PLIMMIN
 10
0.0
 20
0.0
  9
$PLIMMAX
 10
420.0
 20
297.0
  9
$UNITMODE
 70
0
  9
$VISRETAIN
 70
1
  9
$PLINEGEN
 70
0
  9
$PSLTSCALE
 70
1
  9
$TREEDEPTH
 70
3020
  9
$CMLSTYLE
  2
Standard
  9
$CMLJUST
 70
0
  9
$CMLSCALE
 40
20.0
  9
$PROXYGRAPHICS
 70
1
  9
$MEASUREMENT
 70
1
  9
$CELWEIGHT
370
-1
  9
$ENDCAPS
280
0
  9
$JOINSTYLE
280
0
  9
$LWDISPLAY
290
0
  9
$INSUNITS
 70
6
  9
$HYPERLINKBASE
  1

  9
$STYLESHEET
  1

  9
$XEDIT
290
1
  9
$CEPSNTYPE
380
0
  9
$PSTYLEMODE
290
1
  9
$FINGERPRINTGUID
  2
{688A9737-FA85-4649-89E7-33A6ACA5E420}
  9
$VERSIONGUID
  2
{F631B1A8-ADAB-4B20-A7DE-CD70439D2F91}
  9
$EXTNAMES
290
1
  9
$PSVPSCALE
 40
0.0
  9
$OLESTARTUP
290
0
  9
$SORTENTS
280
127
  9
$INDEXCTL
280
0
  9
$HIDETEXT
280
1
  9
$XCLIPFRAME
280
0
  9
$HALOGAP
280
0
  9
$OBSCOLOR
 70
257
  9
$OBSLTYPE
280
0
  9
$INTERSECTIONDISPLAY
280
0
  9
$INTERSECTIONCOLOR
 70
257
  9
$DIMASSOC
280
2
  9
$PROJECTNAME
  1

  9
$CAMERADISPLAY
290
0
  9
$LENSLENGTH
 40
50.0
  9
$CAMERAHEIGHT
 40
0.0
  9
$STEPSPERSEC
 40
24.0
  9
$STEPSIZE
 40
100.0
  9
$3DDWFPREC
 40
2.0
  9
$PSOLWIDTH
 40
0.005
  9
$PSOLHEIGHT
 40
0.08
  9
$LOFTANG1
 40
1.570796326795
  9
$LOFTANG2
 40
1.570796326795
  9
$LOFTMAG1
 40
0.0
  9
$LOFTMAG2
 40
0.0
  9
$LOFTPARAM
 70
7
  9
$LOFTNORMALS
280
1
  9
$LATITUDE
 40
37.795
  9
$LONGITUDE
 40
-122.394
  9
$NORTHDIRECTION
 40
0.0
  9
$TIMEZONE
 70
-8000
  9
$LIGHTGLYPHDISPLAY
280
1
  9
$TILEMODELIGHTSYNCH
280
1
  9
$CMATERIAL
347
20
  9
$SOLIDHIST
280
0
  9
$SHOWHIST
280
1
  9
$DWFFRAME
280
2
  9
$DGNFRAME
280
2
  9
$REALWORLDSCALE
290
1
  9
$INTERFERECOLOR
 62
256
  9
$CSHADOW
280
0
  9
$SHADOWPLANELOCATION
 40
0.0
  0
ENDSEC
  0
SECTION
  2
CLASSES
  0
CLASS
  1
ACDBDICTIONARYWDFLT
  2
AcDbDictionaryWithDefault
  3
ObjectDBX Classes
 90
0
 91
0
280
0
281
0
  0
CLASS
  1
SUN
  2
AcDbSun
  3
SCENEOE
 90
1153
 91
0
280
0
281
0
  0
CLASS
  1
VISUALSTYLE
  2
AcDbVisualStyle
  3
ObjectDBX Classes
 90
4095
 91
0
280
0
281
0
  0
CLASS
  1
MATERIAL
  2
AcDbMaterial
  3
ObjectDBX Classes
 90
1153
 91
0
280
0
281
0
  0
CLASS
  1
SCALE
  2
AcDbScale
  3
ObjectDBX Classes
 90
1153
 91
0
280
0
281
0
  0
CLASS
  1
TABLESTYLE
  2
AcDbTableStyle
  3
ObjectDBX Classes
 90
4095
 91
0
280
0
281
0
  0
CLASS
  1
MLEADERSTYLE
  2
AcDbMLeaderStyle
  3
ACDB_MLEADERSTYLE_CLASS
 90
4095
 91
0
280
0
281
0
  0
CLASS
  1
DICTIONARYVAR
  2
AcDbDictionaryVar
  3
ObjectDBX Classes
 90
0
 91
0
280
0
281
0
  0
CLASS
  1
CELLSTYLEMAP
  2
AcDbCellStyleMap
  3
ObjectDBX Classes
 90
1152
 91
0
280
0
281
0
  0
CLASS
  1
MENTALRAYRENDERSETTINGS
  2
AcDbMentalRayRenderSettings
  3
SCENEOE
 90
1024
 91
0
280
0
281
0
  0
CLASS
  1
ACDBDETAILVIEWSTYLE
  2
AcDbDetailViewStyle
  3
ObjectDBX Classes
 90
1025
 91
0
280
0
281
0
  0
CLASS
  1
ACDBSECTIONVIEWSTYLE
  2
AcDbSectionViewStyle
  3
ObjectDBX Classes
 90
1025
 91
0
280
0
281
0
  0
CLASS
  1
RASTERVARIABLES
  2
AcDbRasterVariables
  3
ISM
 90
0
 91
0
280
0
281
0
  0
CLASS
  1
LAYOUT
  2
AcDbLayout
  3
ObjectDBX Classes
 90
0
 91
0
280
0
281
0
  0
CLASS
  1
ACDBPLACEHOLDER
  2
AcDbPlaceHolder
  3
ObjectDBX Classes
 90
0
 91
0
280
0
281
0
  0
ENDSEC
  0
SECTION
  2
TABLES
  0
TABLE
  2
VPORT
  5
8
330
0
100
AcDbSymbolTable
 70
1
  0
VPORT
  5
23
330
8
100
AcDbSymbolTableRecord
100
AcDbViewportTableRecord
  2
*Active
 70
0
 10
0.0
 20
0.0
 11
1.0
 21
1.0
 12
0.0
 22
0.0
 13
0.0
 23
0.0
 14
0.5
 24
0.5
 15
0.5
 25
0.5
 16
0.0
 26
0.0
 36
1.0
 17
0.0
 27
0.0
 37
0.0
 40
1000.0
 41
1.34
 42
50.0
 43
0.0
 44
0.0
 50
0.0
 51
0.0
 71
0
 72
1000
 73
1
 74
3
 75
0
 76
0
 77
0
 78
0
281
0
 65
0
146
0.0
  0
ENDTAB
  0
TABLE
  2
LTYPE
  5
2
330
0
100
AcDbSymbolTable
 70
3
  0
LTYPE
  5
24
330
2
100
AcDbSymbolTableRecord
100
AcDbLinetypeTableRecord
  2
ByBlock
 70
0
  3

 72
65
 73
0
 40
0.0
  0
LTYPE
  5
25
330
2
100
AcDbSymbolTableRecord
100
AcDbLinetypeTableRecord
  2
ByLayer
 70
0
  3

 72
65
 73
0
 40
0.0
  0
LTYPE
  5
26
330
2
100
AcDbSymbolTableRecord
100
AcDbLinetypeTableRecord
  2
Continuous
 70
0
  3

 72
65
 73
0
 40
0.0
  0
ENDTAB
  0
TABLE
  2
LAYER
  5
1
330
0
100
AcDbSymbolTable
 70
3
  0
LAYER
  5
27
330
1
100
AcDbSymbolTableRecord
100
AcDbLayerTableRecord
  2
0
 70
0
 62
7
  6
Continuous
370
-3
390
13
347
21
  0
LAYER
  5
28
330
1
100
AcDbSymbolTableRecord
100
AcDbLayerTableRecord
  2
Defpoints
 70
0
 62
7
  6
Continuous
290
0
370
-3
390
13
347
21
  0
LAYER
  5
47
330
1
100
AcDbSymbolTableRecord
100
AcDbLayerTableRecord
  2
AREE LEONARDO
 70
0
 62
5
  6
Continuous
370
-3
390
F
347
EE
  0
ENDTAB
  0
TABLE
  2
STYLE
  5
5
330
0
100
AcDbSymbolTable
 70
1
  0
STYLE
  5
29
330
5
100
AcDbSymbolTableRecord
100
AcDbTextStyleTableRecord
  2
Standard
 70
0
 40
0.0
 41
1.0
 50
0.0
 71
0
 42
2.5
  3
txt
  4

  0
ENDTAB
  0
TABLE
  2
VIEW
  5
7
330
0
100
AcDbSymbolTable
 70
0
  0
ENDTAB
  0
TABLE
  2
UCS
  5
6
330
0
100
AcDbSymbolTable
 70
0
  0
ENDTAB
  0
TABLE
  2
APPID
  5
3
330
0
100
AcDbSymbolTable
 70
3
  0
APPID
  5
2A
330
3
100
AcDbSymbolTableRecord
100
AcDbRegAppTableRecord
  2
ACAD
 70
0
  0
APPID
  5
48
330
3
100
AcDbSymbolTableRecord
100
AcDbRegAppTableRecord
  2
HATCHBACKGROUNDCOLOR
 70
0
  0
APPID
  5
49
330
3
100
AcDbSymbolTableRecord
100
AcDbRegAppTableRecord
  2
EZDXF
 70
0
  0
ENDTAB
  0
TABLE
  2
DIMSTYLE
  5
4
330
0
100
AcDbSymbolTable
 70
1
100
AcDbDimStyleTable
  0
DIMSTYLE
105
2B
330
4
100
AcDbSymbolTableRecord
100
AcDbDimStyleTableRecord
  2
Standard
 70
0
 40
1.0
 41
2.5
 42
0.625
 43
3.75
 44
1.25
 45
0.0
 46
0.0
 47
0.0
 48
0.0
 49
2.5
140
2.5
141
2.5
142
0.0
143
0.03937007874
144
1.0
145
0.0
146
1.0
147
0.625
148
0.0
 69
0
 70
0
 71
0
 72
0
 73
0
 74
0
 75
0
 76
0
 77
1
 78
8
 79
3
170
0
171
3
172
1
173
0
174
0
175
0
176
0
177
0
178
0
179
2
271
2
272
2
273
2
274
3
275
0
276
0
277
2
278
44
279
0
280
0
281
0
282
0
283
0
284
8
285
0
286
0
288
0
289
3
290
0
371
-2
372
-2
  0
ENDTAB
  0
TABLE
  2
BLOCK_RECORD
  5
9
330
0
100
AcDbSymbolTable
 70
2
  0
BLOCK_RECORD
  5
17
330
9
100
AcDbSymbolTableRecord
100
AcDbBlockTableRecord
  2
*Model_Space
340
1A
 70
0
280
1
281
0
  0
BLOCK_RECORD
  5
1B
330
9
100
AcDbSymbolTableRecord
100
AcDbBlockTableRecord
  2
*Paper_Space
340
1E
 70
0
280
1
281
0
  0
ENDTAB
  0
ENDSEC
  0
SECTION
  2
BLOCKS
  0
BLOCK
  5
18
330
17
100
AcDbEntity
  8
0
100
AcDbBlockBegin
  2
*Model_Space
 70
0
 10
0.0
 20
0.0
 30
0.0
  3
*Model_Space
  1

  0
ENDBLK
  5
19
330
17
100
AcDbEntity
  8
0
100
AcDbBlockEnd
  0
BLOCK
  5
1C
330
1B
100
AcDbEntity
  8
0
100
AcDbBlockBegin
  2
*Paper_Space
 70
0
 10
0.0
 20
0.0
 30
0.0
  3
*Paper_Space
  1

  0
ENDBLK
  5
1D
330
1B
100
AcDbEntity
  8
0
100
AcDbBlockEnd
  0
ENDSEC
  0
SECTION
  2
ENTITIES
  0
LWPOLYLINE
  5
2F
330
17
100
AcDbEntity
  8
AREE LEONARDO
 62
5
100
AcDbPolyline
 90
7
 70
1
 10
-67.14726817805598
 20
5.307642145889275
 10
-67.12057907802381
 20
0.1829489066332996
 10
-62.50857016330627
 20
0.5430267765266024
 10
-62.50857016330627
 20
1.519575581190764
 10
-64.90857016330614
 20
4.107642145889457
 10
-64.90857016330614
 20
5.30764214588882
 10
-67.14726817805666
 20
5.307642145889275
  0
LWPOLYLINE
  5
30
330
17
100
AcDbEntity
  8
AREE LEONARDO
 62
5
100
AcDbPolyline
 90
10
 70
1
 10
-64.88656421331115
 20
5.310146134261373
 10
-64.89228034142889
 20
4.107456430697453
 10
-62.49390249252281
 20
1.518657129985427
 10
-62.40857016330636
 20
1.519575581190764
 10
-62.40857016330659
 20
0.5508341740521238
 10
-61.20857016330655
 20
0.6445229443608868
 10
-61.20857016330609
 20
5.907642145891458
 10
-63.60857016330618
 20
5.907642145889184
 10
-63.60857016330618
 20
5.307642145889275
 10
-64.88656421331115
 20
5.310146134261373
  0
LWPOLYLINE
  5
31
330
17
100
AcDbEntity
  8
AREE LEONARDO
 62
3
100
AcDbPolyline
 90
5
 70
1
 10
-60.90861412536145
 20
4.547642145827666
 10
-60.90857016330659
 20
0.9976421458916036
 10
-59.70854734456901
 20
1.038401983865441
 10
-59.70854734456946
 20
4.547642145827211
 10
-60.90861412536168
 20
4.547642145827666
  0
LWPOLYLINE
  5
32
330
17
100
AcDbEntity
  8
AREE LEONARDO
 62
5
100
AcDbPolyline
 90
5
 70
1
 10
-53.97883142033236
 20
7.479945821952012
 10
-53.99800045940087
 20
2.869278210089523
 10
-50.51883142033188
 20
2.990449360673409
 10
-50.51883142033188
 20
7.479945821951076
 10
-53.97883142033239
 20
7.479945821945831
  0
LWPOLYLINE
  5
33
330
17
100
AcDbEntity
  8
AREE LEONARDO
 62
5
100
AcDbPolyline
 90
5
 70
1
 10
-50.35883142033179
 20
7.479945821951076
 10
-50.35883142033252
 20
2.996021778648991
 10
-46.87883142033164
 20
3.117221869617746
 10
-46.878831420332
 20
7.479945821950622
 10
-50.35883142033179
 20
7.479945821951076
  0
LWPOLYLINE
  5
34
330
17
100
AcDbEntity
  8
AREE LEONARDO
 62
5
100
AcDbPolyline
 90
5
 70
1
 10
-46.55883142033184
 20
7.479945821951076
 10
-46.55883142033161
 20
3.128366705569277
 10
-43.35077645601308
 20
3.24009560025584
 10
-43.31883142033183
 20
7.479945821951076
 10
-46.55883142033184
 20
7.479945821951076
  0
LWPOLYLINE
  5
35
330
17
100
AcDbEntity
  8
AREE LEONARDO
 62
5
100
AcDbPolyline
 90
7
 70
1
 10
-43.14882659509698
 20
7.479945821951076
 10
-43.18072700849455
 20
3.246018016493252
 10
-42.1013814130228
 20
3.283609046481359
 10
-42.10346980357775
 20
3.343572690674335
 10
-40.79140320105051
 20
3.389268837681555
 10
-40.73882659509666
 20
7.479945821950622
 10
-43.14882659509674
 20
7.47994582195192
  0
LWPOLYLINE
  5
36
330
17
100
AcDbEntity
  8
AREE LEONARDO
 62
3
100
AcDbPolyline
 90
5
 70
1
 10
-55.68857985851235
 20
7.537850596815331
 10
-55.68857985851122
 20
4.930262405425962
 10
-54.32945826444001
 20
4.924611801841109
 10
-54.31858247832059
 20
7.540529826125037
 10
-55.68857985851235
 20
7.537850596815331
  0
LWPOLYLINE
  5
37
330
17
100
AcDbEntity
  8
AREE LEONARDO
 62
3
100
AcDbPolyline
 90
11
 70
1
 10
-40.5816748514232
 20
7.40440284606413
 10
-40.60994724472624
 20
5.204693936037728
 10
-40.36059599918115
 20
5.201489077224977
 10
-40.36188117178897
 20
5.101497335908987
 10
-40.61123241742865
 20
5.104702194494365
 10
-40.63398168745647
 20
3.334715075282218
 10
-39.63458761757437
 20
3.369521584530247
 10
-39.5907475924459
 20
6.704407077880404
 10
-39.40739141910552
 20
6.704407077880858
 10
-39.35970271201398
 20
7.404402846065039
 10
-40.58167485142319
 20
7.404402846064584
  0
LWPOLYLINE
  5
38
330
17
100
AcDbEntity
  8
AREE LEONARDO
 62
5
100
AcDbPolyline
 90
15
 70
1
 10
-37.79531920826907
 20
7.268543558031723
 10
-37.87727910097323
 20
6.065500289452061
 10
-37.27866666476411
 20
6.024718538433916
 10
-37.28546362326682
 20
5.924949799066069
 10
-37.88407605947595
 20
5.965731550083745
 10
-38.16847223008262
 20
1.791239766720281
 10
-35.18235049523395
 20
1.638999874881614
 10
-35.02348121516019
 20
3.970952878604038
 10
-35.17313432421218
 20
3.981148316358229
 10
-35.13167287734467
 20
4.589737626503622
 10
-34.98201976829268
 20
4.579542188749431
 10
-34.84608059823307
 20
6.574916976112234
 10
-34.99573370728507
 20
6.58511241386688
 10
-34.95902477472708
 20
7.123942233595897
 10
-37.79531920826907
 20
7.268543558031723
  0
LWPOLYLINE
  5
39
330
17
100
AcDbEntity
  8
AREE LEONARDO
 62
3
100
AcDbPolyline
 90
5
 70
1
 10
-37.20247218047683
 20
8.911893409976273
 10
-37.3058964644967
 20
7.393786387236758
 10
-34.79900054770946
 20
7.26597861611728
 10
-34.69557626369027
 20
8.784085638856794
 10
-37.20247218047683
 20
8.911893409976273
  0
LWPOLYLINE
  5
3A
330
17
100
AcDbEntity
  8
AREE LEONARDO
 62
5
100
AcDbPolyline
 90
11
 70
1
 10
-38.6027484616431
 20
13.7186787081757
 10
-38.90850540124865
 20
9.319286818894142
 10
-34.26702832704945
 20
9.08265280645466
 10
-34.08936302480708
 20
12.56748332062274
 10
-36.64604250347245
 20
12.69782918119401
 10
-36.74787520704257
 20
10.70042333849571
 10
-35.05008024074044
 20
10.61386554046086
 10
-35.0612818381332
 20
10.39415089776295
 10
-36.97879144713323
 20
10.49191029319056
 10
-36.81891410252766
 20
13.62783746623315
 10
-38.6027484616431
 20
13.7186787081757
  0
LWPOLYLINE
  5
3B
330
17
100
AcDbEntity
  8
AREE LEONARDO
 62
5
100
AcDbPolyline
 90
7
 70
1
 10
-33.62306475419354
 20
13.46490514051922
 10
-33.708883226551
 20
11.78161173782084
 10
-34.02846816138566
 20
11.79790497039241
 10
-34.08314605446725
 20
10.72542099151289
 10
-31.83680418301396
 20
10.61089691181607
 10
-31.64780016942354
 20
13.3642012531902
 10
-33.62306475419352
 20
13.46490514051966
  0
LWPOLYLINE
  5
3C
330
17
100
AcDbEntity
  8
AREE LEONARDO
 62
3
100
AcDbPolyline
 90
5
 70
1
 10
-34.08823768964598
 20
10.62555069937453
 10
-34.16715803491383
 20
9.0775611712763
 10
-31.94754603941186
 20
8.964399846949362
 10
-31.84351581067455
 20
10.51110921091525
 10
-34.08823768964598
 20
10.62555069937453
  0
LWPOLYLINE
  5
3D
330
17
100
AcDbEntity
  8
AREE LEONARDO
 62
5
100
AcDbPolyline
 90
9
 70
1
 10
-67.15518424837632
 20
6.82764214589153
 10
-67.14778897215609
 20
5.407642145889184
 10
-63.70857016330609
 20
5.407642145889184
 10
-63.70857016330609
 20
6.007642145888638
 10
-61.20857016330631
 20
6.007642145891367
 10
-61.20857016330631
 20
6.79287600900426
 10
-66.9550252978999
 20
6.79764214589133
 10
-66.95518153612983
 20
6.82764214589153
 10
-67.15518424837632
 20
6.82764214589153
  0
LWPOLYLINE
  5
3E
330
17
100
AcDbEntity
  8
AREE LEONARDO
 62
5
100
AcDbPolyline
 90
20
 70
1
 10
-60.90857016330694
 20
7.127641380981657
 10
-60.90861412536145
 20
4.647642145827575
 10
-59.50854734456965
 20
4.647642145827575
 10
-59.50854734456942
 20
1.045195161018199
 10
-54.34485790958132
 20
1.220584446480387
 10
-54.33871834272117
 20
2.69731481212986
 10
-55.83857985851017
 20
2.64507821668414
 10
-55.83857985851032
 20
3.677786052166891
 10
-56.23857985851117
 20
4.077786052167738
 10
-56.23857985851185
 20
6.097246897549006
 10
-56.47409633716796
 20
6.332763376204383
 10
-56.40338565904944
 20
6.40347405432314
 10
-55.83857985851086
 20
5.838668253785471
 10
-55.83857985851153
 20
7.537557249979471
 10
-57.53415291476921
 20
7.534241310040869
 10
-56.96907108399904
 20
6.969159479271837
 10
-57.03978176211757
 20
6.898448801153534
 10
-57.27607820875227
 20
7.134745247787776
 10
-60.90857016330705
 20
7.127641380981657
 10
-60.90861412536168
 20
4.647642145827575
  0
LWPOLYLINE
  5
3F
330
17
100
AcDbEntity
  8
AREE LEONARDO
 62
5
100
AcDbPolyline
 90
37
 70
1
 10
-53.99866616564731
 20
2.709158017531279
 10
-54.00465297276809
 20
1.269170462675724
 10
-50.51883142033188
 20
1.406758770221784
 10
-50.51883142033211
 20
1.513555561647734
 10
-50.35883142033203
 20
1.513555561647734
 10
-50.35883142033203
 20
1.413074104749028
 10
-46.87883142033178
 20
1.550432630726135
 10
-46.87883142033178
 20
1.648778746372244
 10
-46.55883142033184
 20
1.648778746372244
 10
-46.55883142033184
 20
1.600060745269558
 10
-46.55883142033184
 20
1.563063299781532
 10
-43.36246143529905
 20
1.689226710592009
 10
-43.36174278252741
 20
1.784608670526008
 10
-43.19174760762592
 20
1.78332784652386
 10
-43.19240603695283
 20
1.695938940146987
 10
-39.65475272988573
 20
1.835573090628457
 10
-39.65362170496104
 20
1.921609506065323
 10
-39.65362170496104
 20
1.921609506065323
 10
-39.65362170496104
 20
1.921609506065323
 10
-39.65362170496104
 20
1.921609506065323
 10
-39.63782422355775
 20
3.123314829133203
 10
-39.63669319863328
 20
3.209351244570115
 10
-39.63669319863328
 20
3.209351244570569
 10
-39.63669319863328
 20
3.209351244570115
 10
-43.18193357163607
 20
3.085878987181075
 10
-43.18270649702452
 20
2.983293787006658
 10
-43.35270167192669
 20
2.984574611008355
 10
-43.35198301915482
 20
3.079956570942812
 10
-46.55883142033206
 20
2.968269697969589
 10
-46.55883142033184
 20
2.858778746372735
 10
-46.87883142033178
 20
2.85877874637228
 10
-46.878831420332
 20
2.957124862018381
 10
-50.35883142033179
 20
2.83592477104932
 10
-50.35883142033203
 20
2.723555561647771
 10
-50.51883142033188
 20
2.723555561647771
 10
-50.51883142033142
 20
2.83035235307372
 10
-53.99866616564731
 20
2.709158017531734
  0
LWPOLYLINE
  5
40
330
17
100
AcDbEntity
  8
AREE LEONARDO
 62
5
100
AcDbPolyline
 90
8
 70
1
 10
-37.30235704801538
 20
8.916985788245
 10
-38.82038548847294
 20
8.994378642958708
 10
-39.30716280940277
 20
1.849293036487978
 10
-38.26835709762071
 20
1.796332144989463
 10
-37.88500715009644
 20
7.423310886225152
 10
-37.40578133203476
 20
7.398878765505951
 10
-37.30235704801515
 20
8.916985788245
 10
-38.8203854884728
 20
8.994378642960745
  0
LWPOLYLINE
  5
41
330
17
100
AcDbEntity
  8
AREE LEONARDO
 62
1
100
AcDbPolyline
 90
4
 70
1
 10
-66.38514758617856
 20
5.216956829500134
 10
-65.78514758608543
 20
5.216956829500134
 10
-65.78514758608543
 20
4.616956829872092
 10
-66.38514758617856
 20
4.616956829872092
  0
LWPOLYLINE
  5
42
330
17
100
AcDbEntity
  8
AREE LEONARDO
 62
1
100
AcDbPolyline
 90
4
 70
1
 10
-51.79116724198855
 20
3.689332524139331
 10
-51.19116724189542
 20
3.689332524139331
 10
-51.19116724189542
 20
3.08933252451129
 10
-51.79116724198855
 20
3.08933252451129
  0
LWPOLYLINE
  5
43
330
17
100
AcDbEntity
  8
AREE LEONARDO
 62
1
100
AcDbPolyline
 90
4
 70
1
 10
-42.92869010425095
 20
4.024135372983977
 10
-42.32869010415782
 20
4.024135372983977
 10
-42.32869010415782
 20
3.424135373355936
 10
-42.92869010425095
 20
3.424135373355936
  0
LWPOLYLINE
  5
44
330
17
100
AcDbEntity
  8
AREE LEONARDO
 62
1
100
AcDbPolyline
 90
4
 70
1
 10
-37.88887328921277
 20
2.919441684556005
 10
-37.28887328911964
 20
2.919441684556005
 10
-37.28887328911964
 20
2.319441684927964
 10
-37.88887328921277
 20
2.319441684927964
  0
LWPOLYLINE
  5
45
330
17
100
AcDbEntity
  8
AREE LEONARDO
 62
1
100
AcDbPolyline
 90
4
 70
1
 10
-38.18317698868975
 20
9.973952574474822
 10
-37.58317698859662
 20
9.973952574474822
 10
-37.58317698859662
 20
9.37395257484678
 10
-38.18317698868975
 20
9.37395257484678
  0
LWPOLYLINE
  5
46
330
17
100
AcDbEntity
  8
AREE LEONARDO
 62
1
100
AcDbPolyline
 90
4
 70
1
 10
-53.77791551212289
 20
2.307738675536825
 10
-53.17791551202976
 20
2.307738675536825
 10
-53.17791551202976
 20
1.707738675908784
 10
-53.77791551212289
 20
1.707738675908784
  0
ENDSEC
  0
SECTION
  2
OBJECTS
  0
DICTIONARY
  5
A
330
0
100
AcDbDictionary
280
0
281
1
  3
ACAD_COLOR
350
B
  3
ACAD_GROUP
350
C
  3
ACAD_LAYOUT
350
D
  3
ACAD_MATERIAL
350
E
  3
ACAD_MLEADERSTYLE
350
F
  3
ACAD_MLINESTYLE
350
10
  3
ACAD_PLOTSETTINGS
350
11
  3
ACAD_PLOTSTYLENAME
350
12
  3
ACAD_SCALELIST
350
14
  3
ACAD_TABLESTYLE
350
15
  3
ACAD_VISUALSTYLE
350
16
  3
EZDXF_META
350
2D
  0
DICTIONARY
  5
B
330
A
100
AcDbDictionary
280
0
281
1
  0
DICTIONARY
  5
C
330
A
100
AcDbDictionary
280
0
281
1
  0
DICTIONARY
  5
D
330
A
100
AcDbDictionary
280
0
281
1
  3
Model
350
1A
  3
Layout1
350
1E
  0
DICTIONARY
  5
E
330
A
100
AcDbDictionary
280
0
281
1
  3
ByBlock
350
1F
  3
ByLayer
350
20
  3
Global
350
21
  0
DICTIONARY
  5
F
330
A
100
AcDbDictionary
280
0
281
1
  3
Standard
350
2C
  0
DICTIONARY
  5
10
330
A
100
AcDbDictionary
280
0
281
1
  3
Standard
350
22
  0
DICTIONARY
  5
11
330
A
100
AcDbDictionary
280
0
281
1
  0
ACDBDICTIONARYWDFLT
  5
12
330
A
100
AcDbDictionary
280
0
281
1
  3
Normal
350
13
100
AcDbDictionaryWithDefault
340
13
  0
ACDBPLACEHOLDER
  5
13
330
12
  0
DICTIONARY
  5
14
330
A
100
AcDbDictionary
280
0
281
1
  0
DICTIONARY
  5
15
330
A
100
AcDbDictionary
280
0
281
1
  0
DICTIONARY
  5
16
330
A
100
AcDbDictionary
280
0
281
1
  0
LAYOUT
  5
1A
330
D
100
AcDbPlotSettings
  1

  2
Adobe PDF
  4
A3
  6

 40
7.5
 41
20.0
 42
7.5
 43
20.0
 44
420.0
 45
297.0
 46
0.0
 47
0.0
 48
0.0
 49
0.0
140
0.0
141
0.0
142
1.0
143
1.0
 70
1024
 72
1
 73
0
 74
5
  7

 75
16
 76
0
 77
2
 78
300
147
1.0
148
0.0
149
0.0
100
AcDbLayout
  1
Model
 70
1
 71
0
 10
0.0
 20
0.0
 11
420.0
 21
297.0
 12
0.0
 22
0.0
 32
0.0
 14
1e+20
 24
1e+20
 34
1e+20
 15
-1e+20
 25
-1e+20
 35
-1e+20
146
0.0
 13
0.0
 23
0.0
 33
0.0
 16
1.0
 26
0.0
 36
0.0
 17
0.0
 27
1.0
 37
0.0
 76
1
330
17
  0
LAYOUT
  5
1E
330
D
100
AcDbPlotSettings
  1

  2
Adobe PDF
  4
A3
  6

 40
7.5
 41
20.0
 42
7.5
 43
20.0
 44
420.0
 45
297.0
 46
0.0
 47
0.0
 48
0.0
 49
0.0
140
0.0
141
0.0
142
1.0
143
1.0
 70
0
 72
1
 73
0
 74
5
  7

 75
16
 76
0
 77
2
 78
300
147
1.0
148
0.0
149
0.0
100
AcDbLayout
  1
Layout1
 70
1
 71
1
 10
0.0
 20
0.0
 11
420.0
 21
297.0
 12
0.0
 22
0.0
 32
0.0
 14
1e+20
 24
1e+20
 34
1e+20
 15
-1e+20
 25
-1e+20
 35
-1e+20
146
0.0
 13
0.0
 23
0.0
 33
0.0
 16
1.0
 26
0.0
 36
0.0
 17
0.0
 27
1.0
 37
0.0
 76
1
330
1B
  0
MATERIAL
  5
1F
102
{ACAD_REACTORS
330
E
102
}
330
E
100
AcDbMaterial
  1
ByBlock
  2

 70
0
 40
1.0
 71
1
 41
1.0
 91
-1023410177
 42
1.0
 72
1
  3

 73
1
 74
1
 75
1
 44
0.5
 73
0
 45
1.0
 46
1.0
 77
1
  4

 78
1
 79
1
170
1
 48
1.0
171
1
  6

172
1
173
1
174
1
140
1.0
141
1.0
175
1
  7

176
1
177
1
178
1
143
1.0
179
1
  8

270
1
271
1
272
1
145
1.0
146
1.0
273
1
  9

274
1
275
1
276
1
 42
1.0
 72
1
  3

 73
1
 74
1
 75
1
 94
63
  0
MATERIAL
  5
20
102
{ACAD_REACTORS
330
E
102
}
330
E
100
AcDbMaterial
  1
ByLayer
  2

 70
0
 40
1.0
 71
1
 41
1.0
 91
-1023410177
 42
1.0
 72
1
  3

 73
1
 74
1
 75
1
 44
0.5
 73
0
 45
1.0
 46
1.0
 77
1
  4

 78
1
 79
1
170
1
 48
1.0
171
1
  6

172
1
173
1
174
1
140
1.0
141
1.0
175
1
  7

176
1
177
1
178
1
143
1.0
179
1
  8

270
1
271
1
272
1
145
1.0
146
1.0
273
1
  9

274
1
275
1
276
1
 42
1.0
 72
1
  3

 73
1
 74
1
 75
1
 94
63
  0
MATERIAL
  5
21
102
{ACAD_REACTORS
330
E
102
}
330
E
100
AcDbMaterial
  1
Global
  2

 70
0
 40
1.0
 71
1
 41
1.0
 91
-1023410177
 42
1.0
 72
1
  3

 73
1
 74
1
 75
1
 44
0.5
 73
0
 45
1.0
 46
1.0
 77
1
  4

 78
1
 79
1
170
1
 48
1.0
171
1
  6

172
1
173
1
174
1
140
1.0
141
1.0
175
1
  7

176
1
177
1
178
1
143
1.0
179
1
  8

270
1
271
1
272
1
145
1.0
146
1.0
273
1
  9

274
1
275
1
276
1
 42
1.0
 72
1
  3

 73
1
 74
1
 75
1
 94
63
  0
MLINESTYLE
  5
22
102
{ACAD_REACTORS
330
10
102
}
330
10
100
AcDbMlineStyle
  2
Standard
 70
0
  3

 62
256
 51
90.0
 52
90.0
 71
2
 49
0.5
 62
256
  6
BYLAYER
 49
-0.5
 62
256
  6
BYLAYER
  0
MLEADERSTYLE
  5
2C
102
{ACAD_REACTORS
330
F
102
}
330
F
100
AcDbMLeaderStyle
179
2
170
2
171
1
172
0
 90
2
 40
0.0
 41
0.0
173
1
 91
-1056964608
 92
-2
290
1
 42
2.0
291
1
 43
8.0
  3
Standard
 44
4.0
300

342
29
174
1
175
1
176
0
178
1
 93
-1056964608
 45
4.0
292
0
297
0
 46
4.0
 94
-1056964608
 47
1.0
 49
1.0
140
1.0
294
1
141
0.0
177
0
142
1.0
295
0
296
0
143
3.75
271
0
272
9
273
9
  0
DICTIONARY
  5
2D
330
A
100
AcDbDictionary
281
1
  3
CREATED_BY_EZDXF
350
2E
  3
WRITTEN_BY_EZDXF
350
4A
  0
DICTIONARYVAR
  5
2E
330
2D
100
DictionaryVariables
280
0
  1
1.1.2 @ 2023-11-14T21:36:11.103860+00:00
  0
DICTIONARYVAR
  5
4A
330
2D
100
DictionaryVariables
280
0
  1
1.1.2 @ 2023-11-14T21:36:11.107555+00:00
  0
ENDSEC
  0
EOF
